ISO-10303-21;
HEADER;
FILE_DESCRIPTION(('CATIA V5 STEP Exchange'),'2;1');

FILE_NAME('C:\\Users\\alexi\\Documents\\scolaire\\IPSA\\AeroIpsa\\SP-02\\CATIA\\new_catia\\SP02_ALPHA\\SP02_ALPHA_AF\\STEP\\SP02_ALPHA_AF_BLOC_BAGUE0.stp','2025-11-18T15:27:28+00:00',('none'),('none'),'CATIA Version 5 Release 19 GA (IN-10)','CATIA V5 STEP AP203','none');

FILE_SCHEMA(('CONFIG_CONTROL_DESIGN'));

ENDSEC;
/* file written by CATIA V5R19 */
DATA;
#5=PRODUCT('SP02_ALPHA_AF_BLOC_BAGUE0','','',(#2)) ;
#1=APPLICATION_CONTEXT('configuration controlled 3D design of mechanical parts and assemblies') ;
#14=PRODUCT_DEFINITION('',' ',#6,#3) ;
#16=SECURITY_CLASSIFICATION(' ',' ',#15) ;
#15=SECURITY_CLASSIFICATION_LEVEL('unclassified') ;
#47=CARTESIAN_POINT(' ',(0.,0.,0.)) ;
#52=CARTESIAN_POINT('Axis2P3D Location',(-23.8615300825,23.8615300825,3.5)) ;
#57=CARTESIAN_POINT('Line Origine',(-24.8903229535,23.6492337924,3.0205744614)) ;
#61=CARTESIAN_POINT('Vertex',(-23.8615300825,23.8615300825,3.5)) ;
#63=CARTESIAN_POINT('Vertex',(-25.9191158245,23.4369375023,2.54114892279)) ;
#66=CARTESIAN_POINT('Axis2P3D Location',(-24.6780266634,24.6780266634,3.5)) ;
#70=CARTESIAN_POINT('Vertex',(-23.4369375023,25.9191158245,4.45885107721)) ;
#73=CARTESIAN_POINT('Line Origine',(-23.6492337924,24.8903229535,3.9794255386)) ;
#84=CARTESIAN_POINT('Axis2P3D Location',(0.,0.,0.)) ;
#89=CARTESIAN_POINT('Axis2P3D Location',(0.,0.,0.)) ;
#93=CARTESIAN_POINT('Vertex',(18.,46.5404125465,0.)) ;
#95=CARTESIAN_POINT('Vertex',(-18.,46.5404125465,0.)) ;
#98=CARTESIAN_POINT('Axis2P3D Location',(0.,0.,0.)) ;
#102=CARTESIAN_POINT('Vertex',(49.3051795679,-7.68174900514,0.)) ;
#105=CARTESIAN_POINT('Axis2P3D Location',(0.,0.,0.)) ;
#109=CARTESIAN_POINT('Vertex',(31.3051795679,-38.8586635414,0.)) ;
#112=CARTESIAN_POINT('Axis2P3D Location',(0.,0.,0.)) ;
#116=CARTESIAN_POINT('Vertex',(-31.3051795679,-38.8586635414,0.)) ;
#119=CARTESIAN_POINT('Axis2P3D Location',(0.,0.,0.)) ;
#123=CARTESIAN_POINT('Vertex',(-49.3051795679,-7.68174900514,0.)) ;
#126=CARTESIAN_POINT('Axis2P3D Location',(0.,0.,0.)) ;
#139=CARTESIAN_POINT('Line Origine',(2.5,31.75,0.)) ;
#143=CARTESIAN_POINT('Vertex',(2.5,21.,0.)) ;
#145=CARTESIAN_POINT('Vertex',(2.5,42.5,0.)) ;
#148=CARTESIAN_POINT('Axis2P3D Location',(-5.20474889638E-015,42.5,0.)) ;
#152=CARTESIAN_POINT('Vertex',(-2.5,42.5,0.)) ;
#155=CARTESIAN_POINT('Line Origine',(-2.5,31.75,0.)) ;
#159=CARTESIAN_POINT('Vertex',(-2.5,21.,0.)) ;
#162=CARTESIAN_POINT('Axis2P3D Location',(-1.71146263515E-015,21.,0.)) ;
#173=CARTESIAN_POINT('Line Origine',(28.7463065702,-13.7099364905,0.)) ;
#177=CARTESIAN_POINT('Vertex',(38.0560796608,-19.0849364905,0.)) ;
#179=CARTESIAN_POINT('Vertex',(19.4365334795,-8.33493649054,0.)) ;
#182=CARTESIAN_POINT('Axis2P3D Location',(18.1865334795,-10.5,0.)) ;
#186=CARTESIAN_POINT('Vertex',(16.9365334795,-12.6650635095,0.)) ;
#189=CARTESIAN_POINT('Line Origine',(26.2463065702,-18.0400635095,0.)) ;
#193=CARTESIAN_POINT('Vertex',(35.5560796608,-23.4150635095,0.)) ;
#196=CARTESIAN_POINT('Axis2P3D Location',(36.8060796608,-21.25,0.)) ;
#207=CARTESIAN_POINT('Line Origine',(-26.2463065702,-18.0400635095,0.)) ;
#211=CARTESIAN_POINT('Vertex',(-35.5560796608,-23.4150635095,0.)) ;
#213=CARTESIAN_POINT('Vertex',(-16.9365334795,-12.6650635095,0.)) ;
#216=CARTESIAN_POINT('Axis2P3D Location',(-18.1865334795,-10.5,0.)) ;
#220=CARTESIAN_POINT('Vertex',(-19.4365334795,-8.33493649054,0.)) ;
#223=CARTESIAN_POINT('Line Origine',(-28.7463065702,-13.7099364905,0.)) ;
#227=CARTESIAN_POINT('Vertex',(-38.0560796608,-19.0849364905,0.)) ;
#230=CARTESIAN_POINT('Axis2P3D Location',(-36.8060796608,-21.25,0.)) ;
#241=CARTESIAN_POINT('Axis2P3D Location',(32.04293994,18.5,0.)) ;
#245=CARTESIAN_POINT('Vertex',(34.54293994,18.5,0.)) ;
#247=CARTESIAN_POINT('Vertex',(29.54293994,18.5,0.)) ;
#250=CARTESIAN_POINT('Axis2P3D Location',(32.04293994,18.5,0.)) ;
#259=CARTESIAN_POINT('Axis2P3D Location',(-32.04293994,18.5,0.)) ;
#263=CARTESIAN_POINT('Vertex',(-29.54293994,18.5,0.)) ;
#265=CARTESIAN_POINT('Vertex',(-34.54293994,18.5,0.)) ;
#268=CARTESIAN_POINT('Axis2P3D Location',(-32.04293994,18.5,0.)) ;
#277=CARTESIAN_POINT('Axis2P3D Location',(0.,-37.,0.)) ;
#281=CARTESIAN_POINT('Vertex',(2.5,-37.,0.)) ;
#283=CARTESIAN_POINT('Vertex',(-2.5,-37.,0.)) ;
#286=CARTESIAN_POINT('Axis2P3D Location',(0.,-37.,0.)) ;
#295=CARTESIAN_POINT('Axis2P3D Location',(0.,0.,0.)) ;
#299=CARTESIAN_POINT('Vertex',(14.2,0.,0.)) ;
#301=CARTESIAN_POINT('Vertex',(-14.2,1.73899845479E-015,0.)) ;
#304=CARTESIAN_POINT('Axis2P3D Location',(0.,0.,0.)) ;
#314=CARTESIAN_POINT('Axis2P3D Location',(0.,0.,1.75)) ;
#319=CARTESIAN_POINT('Line Origine',(18.,46.5404125465,1.75)) ;
#323=CARTESIAN_POINT('Vertex',(18.,46.5404125465,3.5)) ;
#326=CARTESIAN_POINT('Line Origine',(-18.,46.5404125465,1.75)) ;
#330=CARTESIAN_POINT('Vertex',(-18.,46.5404125465,3.5)) ;
#333=CARTESIAN_POINT('Axis2P3D Location',(0.,0.,3.5)) ;
#345=CARTESIAN_POINT('Axis2P3D Location',(18.,19.0525588833,0.)) ;
#350=CARTESIAN_POINT('Line Origine',(18.,32.7964857149,3.5)) ;
#354=CARTESIAN_POINT('Vertex',(18.,19.0525588833,3.5)) ;
#357=CARTESIAN_POINT('Line Origine',(18.,19.0525588833,5.25)) ;
#361=CARTESIAN_POINT('Vertex',(18.,19.0525588833,7.)) ;
#364=CARTESIAN_POINT('Line Origine',(18.,32.7964857149,7.)) ;
#368=CARTESIAN_POINT('Vertex',(18.,46.5404125465,7.)) ;
#371=CARTESIAN_POINT('Line Origine',(18.,46.5404125465,5.25)) ;
#383=CARTESIAN_POINT('Axis2P3D Location',(7.5,-25.1147367097,0.)) ;
#388=CARTESIAN_POINT('Line Origine',(19.4025897839,-31.9867001256,3.5)) ;
#392=CARTESIAN_POINT('Vertex',(31.3051795679,-38.8586635414,3.5)) ;
#394=CARTESIAN_POINT('Vertex',(7.5,-25.1147367097,3.5)) ;
#397=CARTESIAN_POINT('Line Origine',(7.5,-25.1147367097,5.25)) ;
#401=CARTESIAN_POINT('Vertex',(7.5,-25.1147367097,7.)) ;
#404=CARTESIAN_POINT('Line Origine',(19.4025897839,-31.9867001256,7.)) ;
#408=CARTESIAN_POINT('Vertex',(31.3051795679,-38.8586635414,7.)) ;
#411=CARTESIAN_POINT('Line Origine',(31.3051795679,-38.8586635414,5.25)) ;
#423=CARTESIAN_POINT('Axis2P3D Location',(-25.5,6.06217782649,0.)) ;
#428=CARTESIAN_POINT('Line Origine',(-37.4025897839,-0.809785589324,3.5)) ;
#432=CARTESIAN_POINT('Vertex',(-49.3051795679,-7.68174900514,3.5)) ;
#434=CARTESIAN_POINT('Vertex',(-25.5,6.06217782649,3.5)) ;
#437=CARTESIAN_POINT('Line Origine',(-25.5,6.06217782649,5.25)) ;
#441=CARTESIAN_POINT('Vertex',(-25.5,6.06217782649,7.)) ;
#444=CARTESIAN_POINT('Line Origine',(-37.4025897839,-0.809785589324,7.)) ;
#448=CARTESIAN_POINT('Vertex',(-49.3051795679,-7.68174900514,7.)) ;
#451=CARTESIAN_POINT('Line Origine',(-49.3051795679,-7.68174900514,5.25)) ;
#463=CARTESIAN_POINT('Axis2P3D Location',(-1.71146263515E-015,21.,1.75)) ;
#468=CARTESIAN_POINT('Axis2P3D Location',(-1.71146263515E-015,21.,3.5)) ;
#472=CARTESIAN_POINT('Vertex',(-2.5,21.,3.5)) ;
#474=CARTESIAN_POINT('Vertex',(2.5,21.,3.5)) ;
#477=CARTESIAN_POINT('Line Origine',(2.5,21.,1.75)) ;
#482=CARTESIAN_POINT('Line Origine',(-2.5,21.,1.75)) ;
#494=CARTESIAN_POINT('Axis2P3D Location',(-2.5,21.,0.)) ;
#499=CARTESIAN_POINT('Line Origine',(-2.5,31.75,3.5)) ;
#503=CARTESIAN_POINT('Vertex',(-2.5,42.5,3.5)) ;
#506=CARTESIAN_POINT('Line Origine',(-2.5,42.5,1.75)) ;
#518=CARTESIAN_POINT('Axis2P3D Location',(-5.20474889638E-015,42.5,1.75)) ;
#523=CARTESIAN_POINT('Axis2P3D Location',(-5.20474889638E-015,42.5,3.5)) ;
#527=CARTESIAN_POINT('Vertex',(2.5,42.5,3.5)) ;
#530=CARTESIAN_POINT('Line Origine',(2.5,42.5,1.75)) ;
#542=CARTESIAN_POINT('Axis2P3D Location',(2.5,42.5,0.)) ;
#547=CARTESIAN_POINT('Line Origine',(2.5,31.75,3.5)) ;
#559=CARTESIAN_POINT('Axis2P3D Location',(36.8060796608,-21.25,1.75)) ;
#564=CARTESIAN_POINT('Axis2P3D Location',(36.8060796608,-21.25,3.5)) ;
#568=CARTESIAN_POINT('Vertex',(35.5560796608,-23.4150635095,3.5)) ;
#570=CARTESIAN_POINT('Vertex',(38.0560796608,-19.0849364905,3.5)) ;
#573=CARTESIAN_POINT('Line Origine',(38.0560796608,-19.0849364905,1.75)) ;
#578=CARTESIAN_POINT('Line Origine',(35.5560796608,-23.4150635095,1.75)) ;
#590=CARTESIAN_POINT('Axis2P3D Location',(35.5560796608,-23.4150635095,0.)) ;
#595=CARTESIAN_POINT('Line Origine',(26.2463065702,-18.0400635095,3.5)) ;
#599=CARTESIAN_POINT('Vertex',(16.9365334795,-12.6650635095,3.5)) ;
#602=CARTESIAN_POINT('Line Origine',(16.9365334795,-12.6650635095,1.75)) ;
#614=CARTESIAN_POINT('Axis2P3D Location',(18.1865334795,-10.5,1.75)) ;
#619=CARTESIAN_POINT('Axis2P3D Location',(18.1865334795,-10.5,3.5)) ;
#623=CARTESIAN_POINT('Vertex',(19.4365334795,-8.33493649054,3.5)) ;
#626=CARTESIAN_POINT('Line Origine',(19.4365334795,-8.33493649054,1.75)) ;
#638=CARTESIAN_POINT('Axis2P3D Location',(19.4365334795,-8.33493649054,0.)) ;
#643=CARTESIAN_POINT('Line Origine',(28.7463065702,-13.7099364905,3.5)) ;
#655=CARTESIAN_POINT('Axis2P3D Location',(-36.8060796608,-21.25,1.75)) ;
#660=CARTESIAN_POINT('Axis2P3D Location',(-36.8060796608,-21.25,3.5)) ;
#664=CARTESIAN_POINT('Vertex',(-38.0560796608,-19.0849364905,3.5)) ;
#666=CARTESIAN_POINT('Vertex',(-35.5560796608,-23.4150635095,3.5)) ;
#669=CARTESIAN_POINT('Line Origine',(-35.5560796608,-23.4150635095,1.75)) ;
#674=CARTESIAN_POINT('Line Origine',(-38.0560796608,-19.0849364905,1.75)) ;
#686=CARTESIAN_POINT('Axis2P3D Location',(-38.0560796608,-19.0849364905,0.)) ;
#691=CARTESIAN_POINT('Line Origine',(-28.7463065702,-13.7099364905,3.5)) ;
#695=CARTESIAN_POINT('Vertex',(-19.4365334795,-8.33493649054,3.5)) ;
#698=CARTESIAN_POINT('Line Origine',(-19.4365334795,-8.33493649054,1.75)) ;
#710=CARTESIAN_POINT('Axis2P3D Location',(-18.1865334795,-10.5,1.75)) ;
#715=CARTESIAN_POINT('Axis2P3D Location',(-18.1865334795,-10.5,3.5)) ;
#719=CARTESIAN_POINT('Vertex',(-16.9365334795,-12.6650635095,3.5)) ;
#722=CARTESIAN_POINT('Line Origine',(-16.9365334795,-12.6650635095,1.75)) ;
#734=CARTESIAN_POINT('Axis2P3D Location',(-16.9365334795,-12.6650635095,0.)) ;
#739=CARTESIAN_POINT('Line Origine',(-26.2463065702,-18.0400635095,3.5)) ;
#751=CARTESIAN_POINT('Axis2P3D Location',(32.04293994,18.5,3.5)) ;
#756=CARTESIAN_POINT('Axis2P3D Location',(32.04293994,18.5,7.)) ;
#760=CARTESIAN_POINT('Vertex',(29.54293994,18.5,7.)) ;
#762=CARTESIAN_POINT('Vertex',(34.54293994,18.5,7.)) ;
#765=CARTESIAN_POINT('Line Origine',(34.54293994,18.5,3.5)) ;
#770=CARTESIAN_POINT('Line Origine',(29.54293994,18.5,3.5)) ;
#782=CARTESIAN_POINT('Axis2P3D Location',(32.04293994,18.5,7.)) ;
#794=CARTESIAN_POINT('Axis2P3D Location',(-32.04293994,18.5,3.5)) ;
#799=CARTESIAN_POINT('Axis2P3D Location',(-32.04293994,18.5,7.)) ;
#803=CARTESIAN_POINT('Vertex',(-34.54293994,18.5,7.)) ;
#805=CARTESIAN_POINT('Vertex',(-29.54293994,18.5,7.)) ;
#808=CARTESIAN_POINT('Line Origine',(-29.54293994,18.5,3.5)) ;
#813=CARTESIAN_POINT('Line Origine',(-34.54293994,18.5,3.5)) ;
#825=CARTESIAN_POINT('Axis2P3D Location',(-32.04293994,18.5,7.)) ;
#837=CARTESIAN_POINT('Axis2P3D Location',(0.,-37.,3.5)) ;
#842=CARTESIAN_POINT('Axis2P3D Location',(0.,-37.,7.)) ;
#846=CARTESIAN_POINT('Vertex',(-2.5,-37.,7.)) ;
#848=CARTESIAN_POINT('Vertex',(2.5,-37.,7.)) ;
#851=CARTESIAN_POINT('Line Origine',(2.5,-37.,3.5)) ;
#856=CARTESIAN_POINT('Line Origine',(-2.5,-37.,3.5)) ;
#868=CARTESIAN_POINT('Axis2P3D Location',(0.,-37.,7.)) ;
#880=CARTESIAN_POINT('Axis2P3D Location',(0.,0.,0.75)) ;
#885=CARTESIAN_POINT('Axis2P3D Location',(0.,0.,1.5)) ;
#889=CARTESIAN_POINT('Vertex',(-14.2,1.73899845479E-015,1.5)) ;
#891=CARTESIAN_POINT('Vertex',(14.2,0.,1.5)) ;
#894=CARTESIAN_POINT('Line Origine',(14.2,-3.47799690958E-015,0.75)) ;
#899=CARTESIAN_POINT('Line Origine',(-14.2,1.73899845479E-015,0.75)) ;
#911=CARTESIAN_POINT('Axis2P3D Location',(0.,0.,1.5)) ;
#923=CARTESIAN_POINT('Axis2P3D Location',(33.,19.0525588833,3.5)) ;
#928=CARTESIAN_POINT('Line Origine',(25.5,6.06217782649,3.5)) ;
#932=CARTESIAN_POINT('Vertex',(25.5,6.06217782649,3.5)) ;
#934=CARTESIAN_POINT('Vertex',(25.5,6.06217782649,7.)) ;
#937=CARTESIAN_POINT('Axis2P3D Location',(33.,19.0525588833,7.)) ;
#942=CARTESIAN_POINT('Axis2P3D Location',(33.,19.0525588833,3.5)) ;
#954=CARTESIAN_POINT('Axis2P3D Location',(3.5527136788E-015,-38.1051177665,3.5)) ;
#959=CARTESIAN_POINT('Line Origine',(-7.5,-25.1147367097,3.5)) ;
#963=CARTESIAN_POINT('Vertex',(-7.5,-25.1147367097,3.5)) ;
#965=CARTESIAN_POINT('Vertex',(-7.5,-25.1147367097,7.)) ;
#968=CARTESIAN_POINT('Axis2P3D Location',(3.5527136788E-015,-38.1051177665,7.)) ;
#973=CARTESIAN_POINT('Axis2P3D Location',(3.5527136788E-015,-38.1051177665,3.5)) ;
#985=CARTESIAN_POINT('Axis2P3D Location',(-33.,19.0525588833,3.5)) ;
#990=CARTESIAN_POINT('Line Origine',(-18.,19.0525588833,3.5)) ;
#994=CARTESIAN_POINT('Vertex',(-18.,19.0525588833,3.5)) ;
#996=CARTESIAN_POINT('Vertex',(-18.,19.0525588833,7.)) ;
#999=CARTESIAN_POINT('Axis2P3D Location',(-33.,19.0525588833,7.)) ;
#1004=CARTESIAN_POINT('Axis2P3D Location',(-33.,19.0525588833,3.5)) ;
#1016=CARTESIAN_POINT('Axis2P3D Location',(0.,0.,1.5)) ;
#1021=CARTESIAN_POINT('Axis2P3D Location',(0.,0.,1.5)) ;
#1025=CARTESIAN_POINT('Vertex',(16.2,0.,1.5)) ;
#1027=CARTESIAN_POINT('Vertex',(-16.2,-1.24045625845E-014,1.5)) ;
#1030=CARTESIAN_POINT('Axis2P3D Location',(0.,0.,1.5)) ;
#1044=CARTESIAN_POINT('Axis2P3D Location',(0.,0.,1.75)) ;
#1049=CARTESIAN_POINT('Line Origine',(16.2,0.,1.75)) ;
#1053=CARTESIAN_POINT('Vertex',(16.2,0.,3.5)) ;
#1056=CARTESIAN_POINT('Axis2P3D Location',(0.,0.,3.5)) ;
#1060=CARTESIAN_POINT('Vertex',(-16.2,1.98392781462E-015,3.5)) ;
#1063=CARTESIAN_POINT('Line Origine',(-16.2,1.98392781462E-015,1.75)) ;
#1075=CARTESIAN_POINT('Axis2P3D Location',(0.,0.,3.5)) ;
#1087=CARTESIAN_POINT('Axis2P3D Location',(-18.,46.5404125465,0.)) ;
#1092=CARTESIAN_POINT('Line Origine',(-18.,32.7964857149,3.5)) ;
#1097=CARTESIAN_POINT('Line Origine',(-18.,46.5404125465,5.25)) ;
#1101=CARTESIAN_POINT('Vertex',(-18.,46.5404125465,7.)) ;
#1104=CARTESIAN_POINT('Line Origine',(-18.,32.7964857149,7.)) ;
#1116=CARTESIAN_POINT('Axis2P3D Location',(0.,0.,7.)) ;
#1121=CARTESIAN_POINT('Axis2P3D Location',(0.,0.,7.)) ;
#1137=CARTESIAN_POINT('Axis2P3D Location',(-31.3051795679,-38.8586635414,0.)) ;
#1142=CARTESIAN_POINT('Line Origine',(-19.4025897839,-31.9867001256,3.5)) ;
#1146=CARTESIAN_POINT('Vertex',(-31.3051795679,-38.8586635414,3.5)) ;
#1149=CARTESIAN_POINT('Line Origine',(-31.3051795679,-38.8586635414,5.25)) ;
#1153=CARTESIAN_POINT('Vertex',(-31.3051795679,-38.8586635414,7.)) ;
#1156=CARTESIAN_POINT('Line Origine',(-19.4025897839,-31.9867001256,7.)) ;
#1168=CARTESIAN_POINT('Axis2P3D Location',(0.,0.,7.)) ;
#1184=CARTESIAN_POINT('Axis2P3D Location',(0.,0.,3.5)) ;
#1189=CARTESIAN_POINT('Axis2P3D Location',(0.,0.,3.5)) ;
#1194=CARTESIAN_POINT('Axis2P3D Location',(0.,0.,3.5)) ;
#1198=CARTESIAN_POINT('Vertex',(49.3051795679,-7.68174900514,3.5)) ;
#1201=CARTESIAN_POINT('Line Origine',(37.4025897839,-0.809785589324,3.5)) ;
#1243=CARTESIAN_POINT('Axis2P3D Location',(49.3051795679,-7.68174900514,0.)) ;
#1248=CARTESIAN_POINT('Line Origine',(49.3051795679,-7.68174900514,5.25)) ;
#1252=CARTESIAN_POINT('Vertex',(49.3051795679,-7.68174900514,7.)) ;
#1255=CARTESIAN_POINT('Line Origine',(37.4025897839,-0.809785589324,7.)) ;
#1267=CARTESIAN_POINT('Axis2P3D Location',(0.,0.,7.)) ;
#1283=CARTESIAN_POINT('Axis2P3D Location',(-35.2139177031,35.2139177031,3.5)) ;
#1289=CARTESIAN_POINT('Control Point',(-36.5038839695,34.0217056472,2.54114892279)) ;
#1290=CARTESIAN_POINT('Control Point',(-36.3365057005,34.2012956117,2.09205049227)) ;
#1291=CARTESIAN_POINT('Control Point',(-36.0700846961,34.4849397996,1.72147537465)) ;
#1292=CARTESIAN_POINT('Control Point',(-35.7242171098,34.8458821041,1.49149916056)) ;
#1293=CARTESIAN_POINT('Control Point',(-35.1584606583,35.4155494796,1.41020587727)) ;
#1294=CARTESIAN_POINT('Control Point',(-34.6372866312,35.9215049172,1.69004177188)) ;
#1295=CARTESIAN_POINT('Control Point',(-34.4744408868,36.0775262728,1.82202792316)) ;
#1296=CARTESIAN_POINT('Control Point',(-34.0526522469,36.477500219,2.30294962754)) ;
#1297=CARTESIAN_POINT('Control Point',(-33.8163554115,36.6945247111,3.01257727112)) ;
#1298=CARTESIAN_POINT('Control Point',(-33.7737842409,36.733070078,3.53073192725)) ;
#1299=CARTESIAN_POINT('Control Point',(-33.850415546,36.6635267463,4.03050801356)) ;
#1300=CARTESIAN_POINT('Control Point',(-34.0217056472,36.5038839695,4.45885107721)) ;
#1301=CARTESIAN_POINT('Vertex',(-36.5038839695,34.0217056472,2.54114892279)) ;
#1303=CARTESIAN_POINT('Vertex',(-34.0217056472,36.5038839695,4.45885107721)) ;
#1306=CARTESIAN_POINT('Line Origine',(-38.6558131712,36.173634849,2.54114892279)) ;
#1311=CARTESIAN_POINT('Axis2P3D Location',(-24.6780266634,24.6780266634,3.5)) ;
#1316=CARTESIAN_POINT('Line Origine',(-36.173634849,38.6558131712,4.45885107721)) ;
#1329=CARTESIAN_POINT('Control Point',(-34.0217056472,36.5038839695,4.45885107721)) ;
#1330=CARTESIAN_POINT('Control Point',(-34.2012956117,36.3365057004,4.90794950778)) ;
#1331=CARTESIAN_POINT('Control Point',(-34.4849397997,36.0700846961,5.27852462544)) ;
#1332=CARTESIAN_POINT('Control Point',(-34.845882104,35.7242171099,5.50850083942)) ;
#1333=CARTESIAN_POINT('Control Point',(-35.4155494795,35.1584606583,5.58979412276)) ;
#1334=CARTESIAN_POINT('Control Point',(-35.9215049172,34.6372866312,5.30995822811)) ;
#1335=CARTESIAN_POINT('Control Point',(-36.0775262728,34.4744408868,5.17797207686)) ;
#1336=CARTESIAN_POINT('Control Point',(-36.477500219,34.0526522469,4.69705037246)) ;
#1337=CARTESIAN_POINT('Control Point',(-36.6945247111,33.8163554115,3.98742272886)) ;
#1338=CARTESIAN_POINT('Control Point',(-36.733070078,33.7737842409,3.46926807277)) ;
#1339=CARTESIAN_POINT('Control Point',(-36.6635267463,33.850415546,2.96949198645)) ;
#1340=CARTESIAN_POINT('Control Point',(-36.5038839695,34.0217056472,2.54114892279)) ;
#1355=CARTESIAN_POINT('Axis2P3D Location',(0.,0.,3.5)) ;
#1385=CARTESIAN_POINT('Control Point',(-11.2117193858,-48.6241436779,2.54114892279)) ;
#1386=CARTESIAN_POINT('Control Point',(-11.4509379919,-48.5689848272,2.09205049227)) ;
#1387=CARTESIAN_POINT('Control Point',(-11.8297902473,-48.4800800178,1.72147791248)) ;
#1388=CARTESIAN_POINT('Control Point',(-12.3153078218,-48.3610212856,1.49149855938)) ;
#1389=CARTESIAN_POINT('Control Point',(-13.091536585,-48.1558944836,1.41020617884)) ;
#1390=CARTESIAN_POINT('Control Point',(-13.7902917947,-47.9575227721,1.6900416206)) ;
#1391=CARTESIAN_POINT('Control Point',(-14.0068333426,-47.8945048221,1.82202737619)) ;
#1392=CARTESIAN_POINT('Control Point',(-14.56411663,-47.7292118381,2.30295066751)) ;
#1393=CARTESIAN_POINT('Control Point',(-14.870211168,-47.6330855542,3.01257529379)) ;
#1394=CARTESIAN_POINT('Control Point',(-14.9248784802,-47.6154904155,3.53073423596)) ;
#1395=CARTESIAN_POINT('Control Point',(-14.8263377816,-47.6470831647,4.03050801356)) ;
#1396=CARTESIAN_POINT('Control Point',(-14.6024380307,-47.7156033553,4.45885107721)) ;
#1397=CARTESIAN_POINT('Vertex',(-11.2117193858,-48.6241436779,2.54114892279)) ;
#1399=CARTESIAN_POINT('Vertex',(-14.6024380307,-47.7156033553,4.45885107721)) ;
#1403=CARTESIAN_POINT('Control Point',(-14.6024380307,-47.7156033553,4.45885107721)) ;
#1404=CARTESIAN_POINT('Control Point',(-14.3676892155,-47.7874436923,4.90794950778)) ;
#1405=CARTESIAN_POINT('Control Point',(-13.9951411332,-47.8998759966,5.27852208762)) ;
#1406=CARTESIAN_POINT('Control Point',(-13.5151412138,-48.0395268972,5.5085014406)) ;
#1407=CARTESIAN_POINT('Control Point',(-12.7403439846,-48.2499962572,5.58979382118)) ;
#1408=CARTESIAN_POINT('Control Point',(-12.0360183662,-48.4275789205,5.30995837939)) ;
#1409=CARTESIAN_POINT('Control Point',(-11.8169789097,-48.4812745489,5.17797262382)) ;
#1410=CARTESIAN_POINT('Control Point',(-11.2517109338,-48.6167682694,4.69704933249)) ;
#1411=CARTESIAN_POINT('Control Point',(-10.938562146,-48.6865677345,3.98742470619)) ;
#1412=CARTESIAN_POINT('Control Point',(-10.8824212955,-48.6986635536,3.46926576406)) ;
#1413=CARTESIAN_POINT('Control Point',(-10.9835564183,-48.6767533276,2.96949198645)) ;
#1414=CARTESIAN_POINT('Control Point',(-11.2117193858,-48.6241436779,2.54114892279)) ;
#1421=CARTESIAN_POINT('Control Point',(47.7156033553,14.6024380307,2.54114892279)) ;
#1422=CARTESIAN_POINT('Control Point',(47.7874436923,14.3676892155,2.09205049227)) ;
#1423=CARTESIAN_POINT('Control Point',(47.8998759966,13.9951411333,1.72147791248)) ;
#1424=CARTESIAN_POINT('Control Point',(48.0395268972,13.5151412137,1.49149855938)) ;
#1425=CARTESIAN_POINT('Control Point',(48.2499962572,12.7403439846,1.41020617884)) ;
#1426=CARTESIAN_POINT('Control Point',(48.4275789205,12.0360183663,1.6900416206)) ;
#1427=CARTESIAN_POINT('Control Point',(48.4812745489,11.8169789097,1.82202737619)) ;
#1428=CARTESIAN_POINT('Control Point',(48.6167682694,11.2517109338,2.30295066751)) ;
#1429=CARTESIAN_POINT('Control Point',(48.6865677345,10.938562146,3.01257529379)) ;
#1430=CARTESIAN_POINT('Control Point',(48.6986635536,10.8824212955,3.53073423596)) ;
#1431=CARTESIAN_POINT('Control Point',(48.6767533276,10.9835564184,4.03050801356)) ;
#1432=CARTESIAN_POINT('Control Point',(48.6241436779,11.2117193858,4.45885107721)) ;
#1433=CARTESIAN_POINT('Vertex',(47.7156033553,14.6024380307,2.54114892279)) ;
#1435=CARTESIAN_POINT('Vertex',(48.6241436779,11.2117193858,4.45885107721)) ;
#1439=CARTESIAN_POINT('Control Point',(48.6241436779,11.2117193858,4.45885107721)) ;
#1440=CARTESIAN_POINT('Control Point',(48.5689848272,11.4509379919,4.90794950778)) ;
#1441=CARTESIAN_POINT('Control Point',(48.4800800178,11.8297902474,5.27852208762)) ;
#1442=CARTESIAN_POINT('Control Point',(48.3610212857,12.3153078217,5.5085014406)) ;
#1443=CARTESIAN_POINT('Control Point',(48.1558944836,13.091536585,5.58979382118)) ;
#1444=CARTESIAN_POINT('Control Point',(47.9575227721,13.7902917947,5.30995837939)) ;
#1445=CARTESIAN_POINT('Control Point',(47.8945048221,14.0068333426,5.17797262382)) ;
#1446=CARTESIAN_POINT('Control Point',(47.7292118381,14.56411663,4.69704933249)) ;
#1447=CARTESIAN_POINT('Control Point',(47.6330855542,14.870211168,3.98742470619)) ;
#1448=CARTESIAN_POINT('Control Point',(47.6154904155,14.9248784802,3.46926576406)) ;
#1449=CARTESIAN_POINT('Control Point',(47.6470831647,14.8263377816,2.96949198645)) ;
#1450=CARTESIAN_POINT('Control Point',(47.7156033553,14.6024380307,2.54114892279)) ;
#1457=CARTESIAN_POINT('Axis2P3D Location',(32.5954562658,8.73392618336,3.5)) ;
#1462=CARTESIAN_POINT('Line Origine',(32.925998721,9.73103508995,3.0205744614)) ;
#1466=CARTESIAN_POINT('Vertex',(32.5954562658,8.73392618336,3.5)) ;
#1468=CARTESIAN_POINT('Vertex',(33.2565411762,10.7281439965,2.54114892279)) ;
#1471=CARTESIAN_POINT('Axis2P3D Location',(33.7108113375,9.03278467408,3.5)) ;
#1475=CARTESIAN_POINT('Vertex',(34.1650814988,7.33742535162,4.45885107721)) ;
#1478=CARTESIAN_POINT('Line Origine',(33.3802688823,8.03567576749,3.9794255386)) ;
#1489=CARTESIAN_POINT('Axis2P3D Location',(33.7108113375,9.03278467408,3.5)) ;
#1500=CARTESIAN_POINT('Axis2P3D Location',(48.1031061492,12.8891884461,3.5)) ;
#1505=CARTESIAN_POINT('Line Origine',(51.5637336347,11.9993801408,4.45885107721)) ;
#1510=CARTESIAN_POINT('Line Origine',(50.655193312,15.3900987857,2.54114892279)) ;
#1529=CARTESIAN_POINT('Axis2P3D Location',(-8.73392618336,-32.5954562658,3.5)) ;
#1534=CARTESIAN_POINT('Line Origine',(-8.03567576749,-33.3802688823,3.0205744614)) ;
#1538=CARTESIAN_POINT('Vertex',(-8.73392618336,-32.5954562658,3.5)) ;
#1540=CARTESIAN_POINT('Vertex',(-7.33742535162,-34.1650814988,2.54114892279)) ;
#1543=CARTESIAN_POINT('Axis2P3D Location',(-9.03278467408,-33.7108113375,3.5)) ;
#1547=CARTESIAN_POINT('Vertex',(-10.7281439965,-33.2565411762,4.45885107721)) ;
#1550=CARTESIAN_POINT('Line Origine',(-9.73103508995,-32.925998721,3.9794255386)) ;
#1561=CARTESIAN_POINT('Axis2P3D Location',(-9.03278467408,-33.7108113375,3.5)) ;
#1572=CARTESIAN_POINT('Axis2P3D Location',(-12.8891884461,-48.1031061492,3.5)) ;
#1577=CARTESIAN_POINT('Line Origine',(-15.3900987857,-50.655193312,4.45885107721)) ;
#1582=CARTESIAN_POINT('Line Origine',(-11.9993801408,-51.5637336347,2.54114892279)) ;
#53=DIRECTION('Axis2P3D Direction',(-0.707106781187,0.707106781187,0.)) ;
#54=DIRECTION('Axis2P3D XDirection',(0.620544580564,0.620544580564,0.479425538604)) ;
#58=DIRECTION('Vector Direction',(-0.890960761542,-0.183853980356,-0.415194695654)) ;
#67=DIRECTION('Axis2P3D Direction',(-0.707106781187,0.707106781187,0.)) ;
#74=DIRECTION('Vector Direction',(0.183853980356,0.890960761542,0.415194695654)) ;
#85=DIRECTION('Axis2P3D Direction',(0.,0.,1.)) ;
#86=DIRECTION('Axis2P3D XDirection',(1.,0.,0.)) ;
#90=DIRECTION('Axis2P3D Direction',(0.,0.,1.)) ;
#99=DIRECTION('Axis2P3D Direction',(0.,0.,1.)) ;
#106=DIRECTION('Axis2P3D Direction',(0.,0.,1.)) ;
#113=DIRECTION('Axis2P3D Direction',(0.,0.,1.)) ;
#120=DIRECTION('Axis2P3D Direction',(0.,0.,1.)) ;
#127=DIRECTION('Axis2P3D Direction',(0.,0.,1.)) ;
#140=DIRECTION('Vector Direction',(0.,-1.,0.)) ;
#149=DIRECTION('Axis2P3D Direction',(0.,0.,1.)) ;
#156=DIRECTION('Vector Direction',(0.,1.,0.)) ;
#163=DIRECTION('Axis2P3D Direction',(0.,0.,1.)) ;
#174=DIRECTION('Vector Direction',(0.866025403784,-0.5,0.)) ;
#183=DIRECTION('Axis2P3D Direction',(0.,0.,1.)) ;
#190=DIRECTION('Vector Direction',(-0.866025403784,0.5,0.)) ;
#197=DIRECTION('Axis2P3D Direction',(0.,0.,1.)) ;
#208=DIRECTION('Vector Direction',(-0.866025403784,-0.5,0.)) ;
#217=DIRECTION('Axis2P3D Direction',(0.,0.,1.)) ;
#224=DIRECTION('Vector Direction',(0.866025403784,0.5,0.)) ;
#231=DIRECTION('Axis2P3D Direction',(0.,0.,1.)) ;
#242=DIRECTION('Axis2P3D Direction',(0.,0.,1.)) ;
#251=DIRECTION('Axis2P3D Direction',(0.,0.,1.)) ;
#260=DIRECTION('Axis2P3D Direction',(0.,0.,1.)) ;
#269=DIRECTION('Axis2P3D Direction',(0.,0.,1.)) ;
#278=DIRECTION('Axis2P3D Direction',(0.,0.,1.)) ;
#287=DIRECTION('Axis2P3D Direction',(0.,0.,1.)) ;
#296=DIRECTION('Axis2P3D Direction',(0.,0.,1.)) ;
#305=DIRECTION('Axis2P3D Direction',(0.,0.,1.)) ;
#315=DIRECTION('Axis2P3D Direction',(0.,0.,1.)) ;
#316=DIRECTION('Axis2P3D XDirection',(0.360721442886,0.932673598127,0.)) ;
#320=DIRECTION('Vector Direction',(0.,0.,1.)) ;
#327=DIRECTION('Vector Direction',(0.,0.,1.)) ;
#334=DIRECTION('Axis2P3D Direction',(0.,0.,1.)) ;
#346=DIRECTION('Axis2P3D Direction',(1.,0.,0.)) ;
#347=DIRECTION('Axis2P3D XDirection',(0.,1.,0.)) ;
#351=DIRECTION('Vector Direction',(0.,1.,0.)) ;
#358=DIRECTION('Vector Direction',(0.,0.,1.)) ;
#365=DIRECTION('Vector Direction',(0.,1.,0.)) ;
#372=DIRECTION('Vector Direction',(0.,0.,1.)) ;
#384=DIRECTION('Axis2P3D Direction',(-0.5,-0.866025403784,0.)) ;
#385=DIRECTION('Axis2P3D XDirection',(0.866025403784,-0.5,0.)) ;
#389=DIRECTION('Vector Direction',(0.866025403784,-0.5,0.)) ;
#398=DIRECTION('Vector Direction',(0.,0.,1.)) ;
#405=DIRECTION('Vector Direction',(0.866025403784,-0.5,0.)) ;
#412=DIRECTION('Vector Direction',(0.,0.,1.)) ;
#424=DIRECTION('Axis2P3D Direction',(-0.5,0.866025403784,0.)) ;
#425=DIRECTION('Axis2P3D XDirection',(-0.866025403784,-0.5,-0.)) ;
#429=DIRECTION('Vector Direction',(-0.866025403784,-0.5,0.)) ;
#438=DIRECTION('Vector Direction',(0.,0.,1.)) ;
#445=DIRECTION('Vector Direction',(-0.866025403784,-0.5,0.)) ;
#452=DIRECTION('Vector Direction',(0.,0.,1.)) ;
#464=DIRECTION('Axis2P3D Direction',(0.,0.,1.)) ;
#465=DIRECTION('Axis2P3D XDirection',(-1.,1.22464679915E-016,0.)) ;
#469=DIRECTION('Axis2P3D Direction',(0.,0.,1.)) ;
#478=DIRECTION('Vector Direction',(0.,0.,1.)) ;
#483=DIRECTION('Vector Direction',(0.,0.,1.)) ;
#495=DIRECTION('Axis2P3D Direction',(1.,0.,0.)) ;
#496=DIRECTION('Axis2P3D XDirection',(0.,1.,0.)) ;
#500=DIRECTION('Vector Direction',(0.,1.,0.)) ;
#507=DIRECTION('Vector Direction',(0.,0.,1.)) ;
#519=DIRECTION('Axis2P3D Direction',(0.,0.,1.)) ;
#520=DIRECTION('Axis2P3D XDirection',(1.,0.,0.)) ;
#524=DIRECTION('Axis2P3D Direction',(0.,0.,1.)) ;
#531=DIRECTION('Vector Direction',(0.,0.,1.)) ;
#543=DIRECTION('Axis2P3D Direction',(-1.,0.,0.)) ;
#544=DIRECTION('Axis2P3D XDirection',(0.,-1.,0.)) ;
#548=DIRECTION('Vector Direction',(0.,-1.,0.)) ;
#560=DIRECTION('Axis2P3D Direction',(0.,0.,1.)) ;
#561=DIRECTION('Axis2P3D XDirection',(-0.5,-0.866025403784,-0.)) ;
#565=DIRECTION('Axis2P3D Direction',(0.,0.,1.)) ;
#574=DIRECTION('Vector Direction',(0.,0.,1.)) ;
#579=DIRECTION('Vector Direction',(0.,0.,1.)) ;
#591=DIRECTION('Axis2P3D Direction',(0.5,0.866025403784,-0.)) ;
#592=DIRECTION('Axis2P3D XDirection',(-0.866025403784,0.5,0.)) ;
#596=DIRECTION('Vector Direction',(-0.866025403784,0.5,0.)) ;
#603=DIRECTION('Vector Direction',(0.,0.,1.)) ;
#615=DIRECTION('Axis2P3D Direction',(0.,0.,1.)) ;
#616=DIRECTION('Axis2P3D XDirection',(0.5,0.866025403784,0.)) ;
#620=DIRECTION('Axis2P3D Direction',(0.,0.,1.)) ;
#627=DIRECTION('Vector Direction',(0.,0.,1.)) ;
#639=DIRECTION('Axis2P3D Direction',(-0.5,-0.866025403784,0.)) ;
#640=DIRECTION('Axis2P3D XDirection',(0.866025403784,-0.5,0.)) ;
#644=DIRECTION('Vector Direction',(0.866025403784,-0.5,0.)) ;
#656=DIRECTION('Axis2P3D Direction',(0.,0.,1.)) ;
#657=DIRECTION('Axis2P3D XDirection',(-0.5,0.866025403784,0.)) ;
#661=DIRECTION('Axis2P3D Direction',(0.,0.,1.)) ;
#670=DIRECTION('Vector Direction',(0.,0.,1.)) ;
#675=DIRECTION('Vector Direction',(0.,0.,1.)) ;
#687=DIRECTION('Axis2P3D Direction',(0.5,-0.866025403784,0.)) ;
#688=DIRECTION('Axis2P3D XDirection',(0.866025403784,0.5,0.)) ;
#692=DIRECTION('Vector Direction',(0.866025403784,0.5,0.)) ;
#699=DIRECTION('Vector Direction',(0.,0.,1.)) ;
#711=DIRECTION('Axis2P3D Direction',(0.,0.,1.)) ;
#712=DIRECTION('Axis2P3D XDirection',(0.5,-0.866025403784,0.)) ;
#716=DIRECTION('Axis2P3D Direction',(0.,0.,1.)) ;
#723=DIRECTION('Vector Direction',(0.,0.,1.)) ;
#735=DIRECTION('Axis2P3D Direction',(-0.5,0.866025403784,0.)) ;
#736=DIRECTION('Axis2P3D XDirection',(-0.866025403784,-0.5,-0.)) ;
#740=DIRECTION('Vector Direction',(-0.866025403784,-0.5,0.)) ;
#752=DIRECTION('Axis2P3D Direction',(0.,0.,1.)) ;
#753=DIRECTION('Axis2P3D XDirection',(1.,0.,0.)) ;
#757=DIRECTION('Axis2P3D Direction',(0.,0.,1.)) ;
#766=DIRECTION('Vector Direction',(0.,0.,1.)) ;
#771=DIRECTION('Vector Direction',(0.,0.,1.)) ;
#783=DIRECTION('Axis2P3D Direction',(0.,0.,1.)) ;
#795=DIRECTION('Axis2P3D Direction',(0.,0.,1.)) ;
#796=DIRECTION('Axis2P3D XDirection',(1.,0.,0.)) ;
#800=DIRECTION('Axis2P3D Direction',(0.,0.,1.)) ;
#809=DIRECTION('Vector Direction',(0.,0.,1.)) ;
#814=DIRECTION('Vector Direction',(0.,0.,1.)) ;
#826=DIRECTION('Axis2P3D Direction',(0.,0.,1.)) ;
#838=DIRECTION('Axis2P3D Direction',(0.,0.,1.)) ;
#839=DIRECTION('Axis2P3D XDirection',(1.,0.,0.)) ;
#843=DIRECTION('Axis2P3D Direction',(0.,0.,1.)) ;
#852=DIRECTION('Vector Direction',(0.,0.,1.)) ;
#857=DIRECTION('Vector Direction',(0.,0.,1.)) ;
#869=DIRECTION('Axis2P3D Direction',(0.,0.,1.)) ;
#881=DIRECTION('Axis2P3D Direction',(0.,0.,1.)) ;
#882=DIRECTION('Axis2P3D XDirection',(1.,0.,0.)) ;
#886=DIRECTION('Axis2P3D Direction',(0.,0.,1.)) ;
#895=DIRECTION('Vector Direction',(0.,0.,1.)) ;
#900=DIRECTION('Vector Direction',(0.,0.,1.)) ;
#912=DIRECTION('Axis2P3D Direction',(0.,0.,1.)) ;
#924=DIRECTION('Axis2P3D Direction',(0.,0.,1.)) ;
#925=DIRECTION('Axis2P3D XDirection',(-1.,5.66553889765E-016,0.)) ;
#929=DIRECTION('Vector Direction',(0.,0.,1.)) ;
#938=DIRECTION('Axis2P3D Direction',(0.,0.,1.)) ;
#943=DIRECTION('Axis2P3D Direction',(0.,0.,1.)) ;
#955=DIRECTION('Axis2P3D Direction',(0.,0.,1.)) ;
#956=DIRECTION('Axis2P3D XDirection',(0.5,0.866025403784,0.)) ;
#960=DIRECTION('Vector Direction',(0.,0.,1.)) ;
#969=DIRECTION('Axis2P3D Direction',(0.,0.,1.)) ;
#974=DIRECTION('Axis2P3D Direction',(0.,0.,1.)) ;
#986=DIRECTION('Axis2P3D Direction',(0.,0.,1.)) ;
#987=DIRECTION('Axis2P3D XDirection',(0.5,-0.866025403784,0.)) ;
#991=DIRECTION('Vector Direction',(0.,0.,1.)) ;
#1000=DIRECTION('Axis2P3D Direction',(0.,0.,1.)) ;
#1005=DIRECTION('Axis2P3D Direction',(0.,0.,1.)) ;
#1017=DIRECTION('Axis2P3D Direction',(0.,0.,1.)) ;
#1018=DIRECTION('Axis2P3D XDirection',(1.,0.,0.)) ;
#1022=DIRECTION('Axis2P3D Direction',(0.,0.,1.)) ;
#1031=DIRECTION('Axis2P3D Direction',(0.,0.,1.)) ;
#1045=DIRECTION('Axis2P3D Direction',(0.,0.,1.)) ;
#1046=DIRECTION('Axis2P3D XDirection',(1.,0.,0.)) ;
#1050=DIRECTION('Vector Direction',(0.,0.,1.)) ;
#1057=DIRECTION('Axis2P3D Direction',(0.,0.,1.)) ;
#1064=DIRECTION('Vector Direction',(0.,0.,1.)) ;
#1076=DIRECTION('Axis2P3D Direction',(0.,0.,1.)) ;
#1088=DIRECTION('Axis2P3D Direction',(-1.,0.,0.)) ;
#1089=DIRECTION('Axis2P3D XDirection',(0.,-1.,0.)) ;
#1093=DIRECTION('Vector Direction',(0.,-1.,0.)) ;
#1098=DIRECTION('Vector Direction',(0.,0.,1.)) ;
#1105=DIRECTION('Vector Direction',(0.,-1.,0.)) ;
#1117=DIRECTION('Axis2P3D Direction',(0.,0.,1.)) ;
#1118=DIRECTION('Axis2P3D XDirection',(1.,0.,0.)) ;
#1122=DIRECTION('Axis2P3D Direction',(0.,0.,1.)) ;
#1138=DIRECTION('Axis2P3D Direction',(0.5,-0.866025403784,0.)) ;
#1139=DIRECTION('Axis2P3D XDirection',(0.866025403784,0.5,0.)) ;
#1143=DIRECTION('Vector Direction',(0.866025403784,0.5,0.)) ;
#1150=DIRECTION('Vector Direction',(0.,0.,1.)) ;
#1157=DIRECTION('Vector Direction',(0.866025403784,0.5,0.)) ;
#1169=DIRECTION('Axis2P3D Direction',(0.,0.,1.)) ;
#1185=DIRECTION('Axis2P3D Direction',(0.,0.,1.)) ;
#1186=DIRECTION('Axis2P3D XDirection',(1.,0.,0.)) ;
#1190=DIRECTION('Axis2P3D Direction',(0.,0.,1.)) ;
#1195=DIRECTION('Axis2P3D Direction',(0.,0.,1.)) ;
#1202=DIRECTION('Vector Direction',(-0.866025403784,0.5,0.)) ;
#1244=DIRECTION('Axis2P3D Direction',(0.5,0.866025403784,-0.)) ;
#1245=DIRECTION('Axis2P3D XDirection',(-0.866025403784,0.5,0.)) ;
#1249=DIRECTION('Vector Direction',(0.,0.,1.)) ;
#1256=DIRECTION('Vector Direction',(-0.866025403784,0.5,0.)) ;
#1268=DIRECTION('Axis2P3D Direction',(0.,0.,1.)) ;
#1284=DIRECTION('Axis2P3D Direction',(0.707106781187,-0.707106781187,-0.)) ;
#1285=DIRECTION('Axis2P3D XDirection',(0.620544580564,0.620544580564,0.479425538604)) ;
#1307=DIRECTION('Vector Direction',(0.707106781187,-0.707106781187,0.)) ;
#1312=DIRECTION('Axis2P3D Direction',(0.707106781187,-0.707106781187,-0.)) ;
#1317=DIRECTION('Vector Direction',(0.707106781187,-0.707106781187,0.)) ;
#1356=DIRECTION('Axis2P3D Direction',(0.,0.,1.)) ;
#1357=DIRECTION('Axis2P3D XDirection',(-0.360721442886,0.932673598127,0.)) ;
#1458=DIRECTION('Axis2P3D Direction',(0.965925826289,0.258819045103,0.)) ;
#1459=DIRECTION('Axis2P3D XDirection',(0.227135080667,-0.847679661231,0.479425538604)) ;
#1463=DIRECTION('Vector Direction',(0.286258163196,0.863521643449,-0.415194695654)) ;
#1472=DIRECTION('Axis2P3D Direction',(0.965925826289,0.258819045103,0.)) ;
#1479=DIRECTION('Vector Direction',(0.679667663093,-0.604702598346,0.415194695654)) ;
#1490=DIRECTION('Axis2P3D Direction',(0.965925826289,0.258819045103,0.)) ;
#1501=DIRECTION('Axis2P3D Direction',(-0.965925826289,-0.258819045103,0.)) ;
#1502=DIRECTION('Axis2P3D XDirection',(0.227135080667,-0.847679661231,0.479425538604)) ;
#1506=DIRECTION('Vector Direction',(-0.965925826289,-0.258819045103,0.)) ;
#1511=DIRECTION('Vector Direction',(-0.965925826289,-0.258819045103,0.)) ;
#1530=DIRECTION('Axis2P3D Direction',(-0.258819045103,-0.965925826289,0.)) ;
#1531=DIRECTION('Axis2P3D XDirection',(-0.847679661231,0.227135080667,0.479425538604)) ;
#1535=DIRECTION('Vector Direction',(0.604702598346,-0.679667663093,-0.415194695654)) ;
#1544=DIRECTION('Axis2P3D Direction',(-0.258819045103,-0.965925826289,0.)) ;
#1551=DIRECTION('Vector Direction',(-0.863521643449,-0.286258163196,0.415194695654)) ;
#1562=DIRECTION('Axis2P3D Direction',(-0.258819045103,-0.965925826289,0.)) ;
#1573=DIRECTION('Axis2P3D Direction',(0.258819045103,0.965925826289,-0.)) ;
#1574=DIRECTION('Axis2P3D XDirection',(-0.847679661231,0.227135080667,0.479425538604)) ;
#1578=DIRECTION('Vector Direction',(0.258819045103,0.965925826289,0.)) ;
#1583=DIRECTION('Vector Direction',(0.258819045103,0.965925826289,0.)) ;
#48=AXIS2_PLACEMENT_3D(' ',#47,$,$) ;
#55=AXIS2_PLACEMENT_3D('Cone Axis2P3D',#52,#53,#54) ;
#68=AXIS2_PLACEMENT_3D('Circle Axis2P3D',#66,#67,$) ;
#87=AXIS2_PLACEMENT_3D('Plane Axis2P3D',#84,#85,#86) ;
#91=AXIS2_PLACEMENT_3D('Circle Axis2P3D',#89,#90,$) ;
#100=AXIS2_PLACEMENT_3D('Circle Axis2P3D',#98,#99,$) ;
#107=AXIS2_PLACEMENT_3D('Circle Axis2P3D',#105,#106,$) ;
#114=AXIS2_PLACEMENT_3D('Circle Axis2P3D',#112,#113,$) ;
#121=AXIS2_PLACEMENT_3D('Circle Axis2P3D',#119,#120,$) ;
#128=AXIS2_PLACEMENT_3D('Circle Axis2P3D',#126,#127,$) ;
#150=AXIS2_PLACEMENT_3D('Circle Axis2P3D',#148,#149,$) ;
#164=AXIS2_PLACEMENT_3D('Circle Axis2P3D',#162,#163,$) ;
#184=AXIS2_PLACEMENT_3D('Circle Axis2P3D',#182,#183,$) ;
#198=AXIS2_PLACEMENT_3D('Circle Axis2P3D',#196,#197,$) ;
#218=AXIS2_PLACEMENT_3D('Circle Axis2P3D',#216,#217,$) ;
#232=AXIS2_PLACEMENT_3D('Circle Axis2P3D',#230,#231,$) ;
#243=AXIS2_PLACEMENT_3D('Circle Axis2P3D',#241,#242,$) ;
#252=AXIS2_PLACEMENT_3D('Circle Axis2P3D',#250,#251,$) ;
#261=AXIS2_PLACEMENT_3D('Circle Axis2P3D',#259,#260,$) ;
#270=AXIS2_PLACEMENT_3D('Circle Axis2P3D',#268,#269,$) ;
#279=AXIS2_PLACEMENT_3D('Circle Axis2P3D',#277,#278,$) ;
#288=AXIS2_PLACEMENT_3D('Circle Axis2P3D',#286,#287,$) ;
#297=AXIS2_PLACEMENT_3D('Circle Axis2P3D',#295,#296,$) ;
#306=AXIS2_PLACEMENT_3D('Circle Axis2P3D',#304,#305,$) ;
#317=AXIS2_PLACEMENT_3D('Cylinder Axis2P3D',#314,#315,#316) ;
#335=AXIS2_PLACEMENT_3D('Circle Axis2P3D',#333,#334,$) ;
#348=AXIS2_PLACEMENT_3D('Plane Axis2P3D',#345,#346,#347) ;
#386=AXIS2_PLACEMENT_3D('Plane Axis2P3D',#383,#384,#385) ;
#426=AXIS2_PLACEMENT_3D('Plane Axis2P3D',#423,#424,#425) ;
#466=AXIS2_PLACEMENT_3D('Cylinder Axis2P3D',#463,#464,#465) ;
#470=AXIS2_PLACEMENT_3D('Circle Axis2P3D',#468,#469,$) ;
#497=AXIS2_PLACEMENT_3D('Plane Axis2P3D',#494,#495,#496) ;
#521=AXIS2_PLACEMENT_3D('Cylinder Axis2P3D',#518,#519,#520) ;
#525=AXIS2_PLACEMENT_3D('Circle Axis2P3D',#523,#524,$) ;
#545=AXIS2_PLACEMENT_3D('Plane Axis2P3D',#542,#543,#544) ;
#562=AXIS2_PLACEMENT_3D('Cylinder Axis2P3D',#559,#560,#561) ;
#566=AXIS2_PLACEMENT_3D('Circle Axis2P3D',#564,#565,$) ;
#593=AXIS2_PLACEMENT_3D('Plane Axis2P3D',#590,#591,#592) ;
#617=AXIS2_PLACEMENT_3D('Cylinder Axis2P3D',#614,#615,#616) ;
#621=AXIS2_PLACEMENT_3D('Circle Axis2P3D',#619,#620,$) ;
#641=AXIS2_PLACEMENT_3D('Plane Axis2P3D',#638,#639,#640) ;
#658=AXIS2_PLACEMENT_3D('Cylinder Axis2P3D',#655,#656,#657) ;
#662=AXIS2_PLACEMENT_3D('Circle Axis2P3D',#660,#661,$) ;
#689=AXIS2_PLACEMENT_3D('Plane Axis2P3D',#686,#687,#688) ;
#713=AXIS2_PLACEMENT_3D('Cylinder Axis2P3D',#710,#711,#712) ;
#717=AXIS2_PLACEMENT_3D('Circle Axis2P3D',#715,#716,$) ;
#737=AXIS2_PLACEMENT_3D('Plane Axis2P3D',#734,#735,#736) ;
#754=AXIS2_PLACEMENT_3D('Cylinder Axis2P3D',#751,#752,#753) ;
#758=AXIS2_PLACEMENT_3D('Circle Axis2P3D',#756,#757,$) ;
#784=AXIS2_PLACEMENT_3D('Circle Axis2P3D',#782,#783,$) ;
#797=AXIS2_PLACEMENT_3D('Cylinder Axis2P3D',#794,#795,#796) ;
#801=AXIS2_PLACEMENT_3D('Circle Axis2P3D',#799,#800,$) ;
#827=AXIS2_PLACEMENT_3D('Circle Axis2P3D',#825,#826,$) ;
#840=AXIS2_PLACEMENT_3D('Cylinder Axis2P3D',#837,#838,#839) ;
#844=AXIS2_PLACEMENT_3D('Circle Axis2P3D',#842,#843,$) ;
#870=AXIS2_PLACEMENT_3D('Circle Axis2P3D',#868,#869,$) ;
#883=AXIS2_PLACEMENT_3D('Cylinder Axis2P3D',#880,#881,#882) ;
#887=AXIS2_PLACEMENT_3D('Circle Axis2P3D',#885,#886,$) ;
#913=AXIS2_PLACEMENT_3D('Circle Axis2P3D',#911,#912,$) ;
#926=AXIS2_PLACEMENT_3D('Cylinder Axis2P3D',#923,#924,#925) ;
#939=AXIS2_PLACEMENT_3D('Circle Axis2P3D',#937,#938,$) ;
#944=AXIS2_PLACEMENT_3D('Circle Axis2P3D',#942,#943,$) ;
#957=AXIS2_PLACEMENT_3D('Cylinder Axis2P3D',#954,#955,#956) ;
#970=AXIS2_PLACEMENT_3D('Circle Axis2P3D',#968,#969,$) ;
#975=AXIS2_PLACEMENT_3D('Circle Axis2P3D',#973,#974,$) ;
#988=AXIS2_PLACEMENT_3D('Cylinder Axis2P3D',#985,#986,#987) ;
#1001=AXIS2_PLACEMENT_3D('Circle Axis2P3D',#999,#1000,$) ;
#1006=AXIS2_PLACEMENT_3D('Circle Axis2P3D',#1004,#1005,$) ;
#1019=AXIS2_PLACEMENT_3D('Plane Axis2P3D',#1016,#1017,#1018) ;
#1023=AXIS2_PLACEMENT_3D('Circle Axis2P3D',#1021,#1022,$) ;
#1032=AXIS2_PLACEMENT_3D('Circle Axis2P3D',#1030,#1031,$) ;
#1047=AXIS2_PLACEMENT_3D('Cylinder Axis2P3D',#1044,#1045,#1046) ;
#1058=AXIS2_PLACEMENT_3D('Circle Axis2P3D',#1056,#1057,$) ;
#1077=AXIS2_PLACEMENT_3D('Circle Axis2P3D',#1075,#1076,$) ;
#1090=AXIS2_PLACEMENT_3D('Plane Axis2P3D',#1087,#1088,#1089) ;
#1119=AXIS2_PLACEMENT_3D('Plane Axis2P3D',#1116,#1117,#1118) ;
#1123=AXIS2_PLACEMENT_3D('Circle Axis2P3D',#1121,#1122,$) ;
#1140=AXIS2_PLACEMENT_3D('Plane Axis2P3D',#1137,#1138,#1139) ;
#1170=AXIS2_PLACEMENT_3D('Circle Axis2P3D',#1168,#1169,$) ;
#1187=AXIS2_PLACEMENT_3D('Plane Axis2P3D',#1184,#1185,#1186) ;
#1191=AXIS2_PLACEMENT_3D('Circle Axis2P3D',#1189,#1190,$) ;
#1196=AXIS2_PLACEMENT_3D('Circle Axis2P3D',#1194,#1195,$) ;
#1246=AXIS2_PLACEMENT_3D('Plane Axis2P3D',#1243,#1244,#1245) ;
#1269=AXIS2_PLACEMENT_3D('Circle Axis2P3D',#1267,#1268,$) ;
#1286=AXIS2_PLACEMENT_3D('Cylinder Axis2P3D',#1283,#1284,#1285) ;
#1313=AXIS2_PLACEMENT_3D('Circle Axis2P3D',#1311,#1312,$) ;
#1358=AXIS2_PLACEMENT_3D('Cylinder Axis2P3D',#1355,#1356,#1357) ;
#1460=AXIS2_PLACEMENT_3D('Cone Axis2P3D',#1457,#1458,#1459) ;
#1473=AXIS2_PLACEMENT_3D('Circle Axis2P3D',#1471,#1472,$) ;
#1491=AXIS2_PLACEMENT_3D('Circle Axis2P3D',#1489,#1490,$) ;
#1503=AXIS2_PLACEMENT_3D('Cylinder Axis2P3D',#1500,#1501,#1502) ;
#1532=AXIS2_PLACEMENT_3D('Cone Axis2P3D',#1529,#1530,#1531) ;
#1545=AXIS2_PLACEMENT_3D('Circle Axis2P3D',#1543,#1544,$) ;
#1563=AXIS2_PLACEMENT_3D('Circle Axis2P3D',#1561,#1562,$) ;
#1575=AXIS2_PLACEMENT_3D('Cylinder Axis2P3D',#1572,#1573,#1574) ;
#40=PRODUCT_DEFINITION_SHAPE(' ',' ',#14) ;
#31=APPROVAL_PERSON_ORGANIZATION(#25,#21,#19) ;
#25=PERSON_AND_ORGANIZATION(#22,#23) ;
#22=PERSON(' ',' ',' ',$,$,$) ;
#23=ORGANIZATION(' ',' ',' ') ;
#21=APPROVAL(#20,' ') ;
#20=APPROVAL_STATUS('not_yet_approved') ;
#19=APPROVAL_ROLE('APPROVER') ;
#13=DATE_AND_TIME(#11,#12) ;
#12=LOCAL_TIME(16,27,27.,#10) ;
#10=COORDINATED_UNIVERSAL_TIME_OFFSET(0,0,.AHEAD.) ;
#79=ORIENTED_EDGE('',*,*,#65,.T.) ;
#80=ORIENTED_EDGE('',*,*,#72,.F.) ;
#81=ORIENTED_EDGE('',*,*,#77,.F.) ;
#132=ORIENTED_EDGE('',*,*,#97,.F.) ;
#133=ORIENTED_EDGE('',*,*,#104,.F.) ;
#134=ORIENTED_EDGE('',*,*,#111,.F.) ;
#135=ORIENTED_EDGE('',*,*,#118,.F.) ;
#136=ORIENTED_EDGE('',*,*,#125,.F.) ;
#137=ORIENTED_EDGE('',*,*,#130,.F.) ;
#168=ORIENTED_EDGE('',*,*,#147,.T.) ;
#169=ORIENTED_EDGE('',*,*,#154,.T.) ;
#170=ORIENTED_EDGE('',*,*,#161,.T.) ;
#171=ORIENTED_EDGE('',*,*,#166,.T.) ;
#202=ORIENTED_EDGE('',*,*,#181,.T.) ;
#203=ORIENTED_EDGE('',*,*,#188,.T.) ;
#204=ORIENTED_EDGE('',*,*,#195,.T.) ;
#205=ORIENTED_EDGE('',*,*,#200,.T.) ;
#236=ORIENTED_EDGE('',*,*,#215,.T.) ;
#237=ORIENTED_EDGE('',*,*,#222,.T.) ;
#238=ORIENTED_EDGE('',*,*,#229,.T.) ;
#239=ORIENTED_EDGE('',*,*,#234,.T.) ;
#256=ORIENTED_EDGE('',*,*,#249,.T.) ;
#257=ORIENTED_EDGE('',*,*,#254,.T.) ;
#274=ORIENTED_EDGE('',*,*,#267,.T.) ;
#275=ORIENTED_EDGE('',*,*,#272,.T.) ;
#292=ORIENTED_EDGE('',*,*,#285,.T.) ;
#293=ORIENTED_EDGE('',*,*,#290,.T.) ;
#310=ORIENTED_EDGE('',*,*,#303,.T.) ;
#311=ORIENTED_EDGE('',*,*,#308,.T.) ;
#339=ORIENTED_EDGE('',*,*,#325,.F.) ;
#340=ORIENTED_EDGE('',*,*,#97,.T.) ;
#341=ORIENTED_EDGE('',*,*,#332,.T.) ;
#342=ORIENTED_EDGE('',*,*,#337,.F.) ;
#377=ORIENTED_EDGE('',*,*,#356,.T.) ;
#378=ORIENTED_EDGE('',*,*,#363,.T.) ;
#379=ORIENTED_EDGE('',*,*,#370,.F.) ;
#380=ORIENTED_EDGE('',*,*,#375,.F.) ;
#417=ORIENTED_EDGE('',*,*,#396,.T.) ;
#418=ORIENTED_EDGE('',*,*,#403,.T.) ;
#419=ORIENTED_EDGE('',*,*,#410,.F.) ;
#420=ORIENTED_EDGE('',*,*,#415,.F.) ;
#457=ORIENTED_EDGE('',*,*,#436,.T.) ;
#458=ORIENTED_EDGE('',*,*,#443,.T.) ;
#459=ORIENTED_EDGE('',*,*,#450,.F.) ;
#460=ORIENTED_EDGE('',*,*,#455,.F.) ;
#488=ORIENTED_EDGE('',*,*,#476,.T.) ;
#489=ORIENTED_EDGE('',*,*,#481,.F.) ;
#490=ORIENTED_EDGE('',*,*,#166,.F.) ;
#491=ORIENTED_EDGE('',*,*,#486,.T.) ;
#512=ORIENTED_EDGE('',*,*,#505,.T.) ;
#513=ORIENTED_EDGE('',*,*,#486,.F.) ;
#514=ORIENTED_EDGE('',*,*,#161,.F.) ;
#515=ORIENTED_EDGE('',*,*,#510,.T.) ;
#536=ORIENTED_EDGE('',*,*,#529,.T.) ;
#537=ORIENTED_EDGE('',*,*,#510,.F.) ;
#538=ORIENTED_EDGE('',*,*,#154,.F.) ;
#539=ORIENTED_EDGE('',*,*,#534,.T.) ;
#553=ORIENTED_EDGE('',*,*,#551,.T.) ;
#554=ORIENTED_EDGE('',*,*,#534,.F.) ;
#555=ORIENTED_EDGE('',*,*,#147,.F.) ;
#556=ORIENTED_EDGE('',*,*,#481,.T.) ;
#584=ORIENTED_EDGE('',*,*,#572,.T.) ;
#585=ORIENTED_EDGE('',*,*,#577,.F.) ;
#586=ORIENTED_EDGE('',*,*,#200,.F.) ;
#587=ORIENTED_EDGE('',*,*,#582,.T.) ;
#608=ORIENTED_EDGE('',*,*,#601,.T.) ;
#609=ORIENTED_EDGE('',*,*,#582,.F.) ;
#610=ORIENTED_EDGE('',*,*,#195,.F.) ;
#611=ORIENTED_EDGE('',*,*,#606,.T.) ;
#632=ORIENTED_EDGE('',*,*,#625,.T.) ;
#633=ORIENTED_EDGE('',*,*,#606,.F.) ;
#634=ORIENTED_EDGE('',*,*,#188,.F.) ;
#635=ORIENTED_EDGE('',*,*,#630,.T.) ;
#649=ORIENTED_EDGE('',*,*,#647,.T.) ;
#650=ORIENTED_EDGE('',*,*,#630,.F.) ;
#651=ORIENTED_EDGE('',*,*,#181,.F.) ;
#652=ORIENTED_EDGE('',*,*,#577,.T.) ;
#680=ORIENTED_EDGE('',*,*,#668,.T.) ;
#681=ORIENTED_EDGE('',*,*,#673,.F.) ;
#682=ORIENTED_EDGE('',*,*,#234,.F.) ;
#683=ORIENTED_EDGE('',*,*,#678,.T.) ;
#704=ORIENTED_EDGE('',*,*,#697,.T.) ;
#705=ORIENTED_EDGE('',*,*,#678,.F.) ;
#706=ORIENTED_EDGE('',*,*,#229,.F.) ;
#707=ORIENTED_EDGE('',*,*,#702,.T.) ;
#728=ORIENTED_EDGE('',*,*,#721,.T.) ;
#729=ORIENTED_EDGE('',*,*,#702,.F.) ;
#730=ORIENTED_EDGE('',*,*,#222,.F.) ;
#731=ORIENTED_EDGE('',*,*,#726,.T.) ;
#745=ORIENTED_EDGE('',*,*,#743,.T.) ;
#746=ORIENTED_EDGE('',*,*,#726,.F.) ;
#747=ORIENTED_EDGE('',*,*,#215,.F.) ;
#748=ORIENTED_EDGE('',*,*,#673,.T.) ;
#776=ORIENTED_EDGE('',*,*,#764,.T.) ;
#777=ORIENTED_EDGE('',*,*,#769,.F.) ;
#778=ORIENTED_EDGE('',*,*,#254,.F.) ;
#779=ORIENTED_EDGE('',*,*,#774,.T.) ;
#788=ORIENTED_EDGE('',*,*,#786,.T.) ;
#789=ORIENTED_EDGE('',*,*,#774,.F.) ;
#790=ORIENTED_EDGE('',*,*,#249,.F.) ;
#791=ORIENTED_EDGE('',*,*,#769,.T.) ;
#819=ORIENTED_EDGE('',*,*,#807,.T.) ;
#820=ORIENTED_EDGE('',*,*,#812,.F.) ;
#821=ORIENTED_EDGE('',*,*,#272,.F.) ;
#822=ORIENTED_EDGE('',*,*,#817,.T.) ;
#831=ORIENTED_EDGE('',*,*,#829,.T.) ;
#832=ORIENTED_EDGE('',*,*,#817,.F.) ;
#833=ORIENTED_EDGE('',*,*,#267,.F.) ;
#834=ORIENTED_EDGE('',*,*,#812,.T.) ;
#862=ORIENTED_EDGE('',*,*,#850,.T.) ;
#863=ORIENTED_EDGE('',*,*,#855,.F.) ;
#864=ORIENTED_EDGE('',*,*,#290,.F.) ;
#865=ORIENTED_EDGE('',*,*,#860,.T.) ;
#874=ORIENTED_EDGE('',*,*,#872,.T.) ;
#875=ORIENTED_EDGE('',*,*,#860,.F.) ;
#876=ORIENTED_EDGE('',*,*,#285,.F.) ;
#877=ORIENTED_EDGE('',*,*,#855,.T.) ;
#905=ORIENTED_EDGE('',*,*,#893,.T.) ;
#906=ORIENTED_EDGE('',*,*,#898,.F.) ;
#907=ORIENTED_EDGE('',*,*,#308,.F.) ;
#908=ORIENTED_EDGE('',*,*,#903,.T.) ;
#917=ORIENTED_EDGE('',*,*,#915,.T.) ;
#918=ORIENTED_EDGE('',*,*,#903,.F.) ;
#919=ORIENTED_EDGE('',*,*,#303,.F.) ;
#920=ORIENTED_EDGE('',*,*,#898,.T.) ;
#948=ORIENTED_EDGE('',*,*,#936,.T.) ;
#949=ORIENTED_EDGE('',*,*,#941,.F.) ;
#950=ORIENTED_EDGE('',*,*,#363,.F.) ;
#951=ORIENTED_EDGE('',*,*,#946,.T.) ;
#979=ORIENTED_EDGE('',*,*,#967,.T.) ;
#980=ORIENTED_EDGE('',*,*,#972,.F.) ;
#981=ORIENTED_EDGE('',*,*,#403,.F.) ;
#982=ORIENTED_EDGE('',*,*,#977,.T.) ;
#1010=ORIENTED_EDGE('',*,*,#998,.T.) ;
#1011=ORIENTED_EDGE('',*,*,#1003,.F.) ;
#1012=ORIENTED_EDGE('',*,*,#443,.F.) ;
#1013=ORIENTED_EDGE('',*,*,#1008,.T.) ;
#1036=ORIENTED_EDGE('',*,*,#1029,.T.) ;
#1037=ORIENTED_EDGE('',*,*,#1034,.T.) ;
#1040=ORIENTED_EDGE('',*,*,#893,.F.) ;
#1041=ORIENTED_EDGE('',*,*,#915,.F.) ;
#1069=ORIENTED_EDGE('',*,*,#1029,.F.) ;
#1070=ORIENTED_EDGE('',*,*,#1055,.T.) ;
#1071=ORIENTED_EDGE('',*,*,#1062,.T.) ;
#1072=ORIENTED_EDGE('',*,*,#1067,.F.) ;
#1081=ORIENTED_EDGE('',*,*,#1034,.F.) ;
#1082=ORIENTED_EDGE('',*,*,#1067,.T.) ;
#1083=ORIENTED_EDGE('',*,*,#1079,.T.) ;
#1084=ORIENTED_EDGE('',*,*,#1055,.F.) ;
#1110=ORIENTED_EDGE('',*,*,#1096,.T.) ;
#1111=ORIENTED_EDGE('',*,*,#1103,.T.) ;
#1112=ORIENTED_EDGE('',*,*,#1108,.F.) ;
#1113=ORIENTED_EDGE('',*,*,#998,.F.) ;
#1127=ORIENTED_EDGE('',*,*,#450,.T.) ;
#1128=ORIENTED_EDGE('',*,*,#1003,.T.) ;
#1129=ORIENTED_EDGE('',*,*,#1108,.T.) ;
#1130=ORIENTED_EDGE('',*,*,#1125,.T.) ;
#1133=ORIENTED_EDGE('',*,*,#807,.F.) ;
#1134=ORIENTED_EDGE('',*,*,#829,.F.) ;
#1162=ORIENTED_EDGE('',*,*,#1148,.T.) ;
#1163=ORIENTED_EDGE('',*,*,#1155,.T.) ;
#1164=ORIENTED_EDGE('',*,*,#1160,.F.) ;
#1165=ORIENTED_EDGE('',*,*,#967,.F.) ;
#1174=ORIENTED_EDGE('',*,*,#410,.T.) ;
#1175=ORIENTED_EDGE('',*,*,#972,.T.) ;
#1176=ORIENTED_EDGE('',*,*,#1160,.T.) ;
#1177=ORIENTED_EDGE('',*,*,#1172,.T.) ;
#1180=ORIENTED_EDGE('',*,*,#850,.F.) ;
#1181=ORIENTED_EDGE('',*,*,#872,.F.) ;
#1207=ORIENTED_EDGE('',*,*,#1193,.T.) ;
#1208=ORIENTED_EDGE('',*,*,#1148,.F.) ;
#1209=ORIENTED_EDGE('',*,*,#977,.F.) ;
#1210=ORIENTED_EDGE('',*,*,#396,.F.) ;
#1211=ORIENTED_EDGE('',*,*,#1200,.T.) ;
#1212=ORIENTED_EDGE('',*,*,#1205,.F.) ;
#1213=ORIENTED_EDGE('',*,*,#946,.F.) ;
#1214=ORIENTED_EDGE('',*,*,#356,.F.) ;
#1215=ORIENTED_EDGE('',*,*,#337,.T.) ;
#1216=ORIENTED_EDGE('',*,*,#1096,.F.) ;
#1217=ORIENTED_EDGE('',*,*,#1008,.F.) ;
#1218=ORIENTED_EDGE('',*,*,#436,.F.) ;
#1221=ORIENTED_EDGE('',*,*,#1079,.F.) ;
#1222=ORIENTED_EDGE('',*,*,#1062,.F.) ;
#1225=ORIENTED_EDGE('',*,*,#551,.F.) ;
#1226=ORIENTED_EDGE('',*,*,#476,.F.) ;
#1227=ORIENTED_EDGE('',*,*,#505,.F.) ;
#1228=ORIENTED_EDGE('',*,*,#529,.F.) ;
#1231=ORIENTED_EDGE('',*,*,#647,.F.) ;
#1232=ORIENTED_EDGE('',*,*,#572,.F.) ;
#1233=ORIENTED_EDGE('',*,*,#601,.F.) ;
#1234=ORIENTED_EDGE('',*,*,#625,.F.) ;
#1237=ORIENTED_EDGE('',*,*,#743,.F.) ;
#1238=ORIENTED_EDGE('',*,*,#668,.F.) ;
#1239=ORIENTED_EDGE('',*,*,#697,.F.) ;
#1240=ORIENTED_EDGE('',*,*,#721,.F.) ;
#1261=ORIENTED_EDGE('',*,*,#1205,.T.) ;
#1262=ORIENTED_EDGE('',*,*,#1254,.T.) ;
#1263=ORIENTED_EDGE('',*,*,#1259,.F.) ;
#1264=ORIENTED_EDGE('',*,*,#936,.F.) ;
#1273=ORIENTED_EDGE('',*,*,#1271,.T.) ;
#1274=ORIENTED_EDGE('',*,*,#370,.T.) ;
#1275=ORIENTED_EDGE('',*,*,#941,.T.) ;
#1276=ORIENTED_EDGE('',*,*,#1259,.T.) ;
#1279=ORIENTED_EDGE('',*,*,#764,.F.) ;
#1280=ORIENTED_EDGE('',*,*,#786,.F.) ;
#1322=ORIENTED_EDGE('',*,*,#1305,.F.) ;
#1323=ORIENTED_EDGE('',*,*,#1310,.F.) ;
#1324=ORIENTED_EDGE('',*,*,#1315,.T.) ;
#1325=ORIENTED_EDGE('',*,*,#1320,.T.) ;
#1343=ORIENTED_EDGE('',*,*,#1341,.F.) ;
#1344=ORIENTED_EDGE('',*,*,#1320,.F.) ;
#1345=ORIENTED_EDGE('',*,*,#72,.T.) ;
#1346=ORIENTED_EDGE('',*,*,#1310,.T.) ;
#1350=ORIENTED_EDGE('',*,*,#77,.T.) ;
#1351=ORIENTED_EDGE('',*,*,#1315,.F.) ;
#1352=ORIENTED_EDGE('',*,*,#65,.F.) ;
#1361=ORIENTED_EDGE('',*,*,#125,.T.) ;
#1362=ORIENTED_EDGE('',*,*,#118,.T.) ;
#1363=ORIENTED_EDGE('',*,*,#111,.T.) ;
#1364=ORIENTED_EDGE('',*,*,#104,.T.) ;
#1365=ORIENTED_EDGE('',*,*,#325,.T.) ;
#1366=ORIENTED_EDGE('',*,*,#375,.T.) ;
#1367=ORIENTED_EDGE('',*,*,#1271,.F.) ;
#1368=ORIENTED_EDGE('',*,*,#1254,.F.) ;
#1369=ORIENTED_EDGE('',*,*,#1200,.F.) ;
#1370=ORIENTED_EDGE('',*,*,#415,.T.) ;
#1371=ORIENTED_EDGE('',*,*,#1172,.F.) ;
#1372=ORIENTED_EDGE('',*,*,#1155,.F.) ;
#1373=ORIENTED_EDGE('',*,*,#1193,.F.) ;
#1374=ORIENTED_EDGE('',*,*,#455,.T.) ;
#1375=ORIENTED_EDGE('',*,*,#1125,.F.) ;
#1376=ORIENTED_EDGE('',*,*,#1103,.F.) ;
#1377=ORIENTED_EDGE('',*,*,#332,.F.) ;
#1378=ORIENTED_EDGE('',*,*,#130,.T.) ;
#1381=ORIENTED_EDGE('',*,*,#1305,.T.) ;
#1382=ORIENTED_EDGE('',*,*,#1341,.T.) ;
#1417=ORIENTED_EDGE('',*,*,#1401,.T.) ;
#1418=ORIENTED_EDGE('',*,*,#1415,.T.) ;
#1453=ORIENTED_EDGE('',*,*,#1437,.T.) ;
#1454=ORIENTED_EDGE('',*,*,#1451,.T.) ;
#1484=ORIENTED_EDGE('',*,*,#1470,.T.) ;
#1485=ORIENTED_EDGE('',*,*,#1477,.F.) ;
#1486=ORIENTED_EDGE('',*,*,#1482,.F.) ;
#1495=ORIENTED_EDGE('',*,*,#1482,.T.) ;
#1496=ORIENTED_EDGE('',*,*,#1493,.F.) ;
#1497=ORIENTED_EDGE('',*,*,#1470,.F.) ;
#1516=ORIENTED_EDGE('',*,*,#1451,.F.) ;
#1517=ORIENTED_EDGE('',*,*,#1509,.F.) ;
#1518=ORIENTED_EDGE('',*,*,#1477,.T.) ;
#1519=ORIENTED_EDGE('',*,*,#1514,.T.) ;
#1523=ORIENTED_EDGE('',*,*,#1437,.F.) ;
#1524=ORIENTED_EDGE('',*,*,#1514,.F.) ;
#1525=ORIENTED_EDGE('',*,*,#1493,.T.) ;
#1526=ORIENTED_EDGE('',*,*,#1509,.T.) ;
#1556=ORIENTED_EDGE('',*,*,#1542,.T.) ;
#1557=ORIENTED_EDGE('',*,*,#1549,.F.) ;
#1558=ORIENTED_EDGE('',*,*,#1554,.F.) ;
#1567=ORIENTED_EDGE('',*,*,#1554,.T.) ;
#1568=ORIENTED_EDGE('',*,*,#1565,.F.) ;
#1569=ORIENTED_EDGE('',*,*,#1542,.F.) ;
#1588=ORIENTED_EDGE('',*,*,#1415,.F.) ;
#1589=ORIENTED_EDGE('',*,*,#1581,.F.) ;
#1590=ORIENTED_EDGE('',*,*,#1549,.T.) ;
#1591=ORIENTED_EDGE('',*,*,#1586,.T.) ;
#1595=ORIENTED_EDGE('',*,*,#1401,.F.) ;
#1596=ORIENTED_EDGE('',*,*,#1586,.F.) ;
#1597=ORIENTED_EDGE('',*,*,#1565,.T.) ;
#1598=ORIENTED_EDGE('',*,*,#1581,.T.) ;
#172=FACE_BOUND('',#167,.T.) ;
#206=FACE_BOUND('',#201,.T.) ;
#240=FACE_BOUND('',#235,.T.) ;
#258=FACE_BOUND('',#255,.T.) ;
#276=FACE_BOUND('',#273,.T.) ;
#294=FACE_BOUND('',#291,.T.) ;
#312=FACE_BOUND('',#309,.T.) ;
#1042=FACE_BOUND('',#1039,.T.) ;
#1135=FACE_BOUND('',#1132,.T.) ;
#1182=FACE_BOUND('',#1179,.T.) ;
#1223=FACE_BOUND('',#1220,.T.) ;
#1229=FACE_BOUND('',#1224,.T.) ;
#1235=FACE_BOUND('',#1230,.T.) ;
#1241=FACE_BOUND('',#1236,.T.) ;
#1281=FACE_BOUND('',#1278,.T.) ;
#1383=FACE_BOUND('',#1380,.T.) ;
#1419=FACE_BOUND('',#1416,.T.) ;
#1455=FACE_BOUND('',#1452,.T.) ;
#51=CLOSED_SHELL('Closed Shell',(#83,#313,#344,#382,#422,#462,#493,#517,#541,#558,#589,#613,#637,#654,#685,#709,#733,#750,#781,#793,#824,#836,#867,#879,#910,#922,#953,#984,#1015,#1043,#1074,#1086,#1115,#1136,#1167,#1183,#1242,#1266,#1282,#1327,#1348,#1354,#1456,#1488,#1499,#1521,#1528,#1560,#1571,#1593,#1600)) ;
#59=VECTOR('Line Direction',#58,1.) ;
#75=VECTOR('Line Direction',#74,1.) ;
#141=VECTOR('Line Direction',#140,1.) ;
#157=VECTOR('Line Direction',#156,1.) ;
#175=VECTOR('Line Direction',#174,1.) ;
#191=VECTOR('Line Direction',#190,1.) ;
#209=VECTOR('Line Direction',#208,1.) ;
#225=VECTOR('Line Direction',#224,1.) ;
#321=VECTOR('Line Direction',#320,1.) ;
#328=VECTOR('Line Direction',#327,1.) ;
#352=VECTOR('Line Direction',#351,1.) ;
#359=VECTOR('Line Direction',#358,1.) ;
#366=VECTOR('Line Direction',#365,1.) ;
#373=VECTOR('Line Direction',#372,1.) ;
#390=VECTOR('Line Direction',#389,1.) ;
#399=VECTOR('Line Direction',#398,1.) ;
#406=VECTOR('Line Direction',#405,1.) ;
#413=VECTOR('Line Direction',#412,1.) ;
#430=VECTOR('Line Direction',#429,1.) ;
#439=VECTOR('Line Direction',#438,1.) ;
#446=VECTOR('Line Direction',#445,1.) ;
#453=VECTOR('Line Direction',#452,1.) ;
#479=VECTOR('Line Direction',#478,1.) ;
#484=VECTOR('Line Direction',#483,1.) ;
#501=VECTOR('Line Direction',#500,1.) ;
#508=VECTOR('Line Direction',#507,1.) ;
#532=VECTOR('Line Direction',#531,1.) ;
#549=VECTOR('Line Direction',#548,1.) ;
#575=VECTOR('Line Direction',#574,1.) ;
#580=VECTOR('Line Direction',#579,1.) ;
#597=VECTOR('Line Direction',#596,1.) ;
#604=VECTOR('Line Direction',#603,1.) ;
#628=VECTOR('Line Direction',#627,1.) ;
#645=VECTOR('Line Direction',#644,1.) ;
#671=VECTOR('Line Direction',#670,1.) ;
#676=VECTOR('Line Direction',#675,1.) ;
#693=VECTOR('Line Direction',#692,1.) ;
#700=VECTOR('Line Direction',#699,1.) ;
#724=VECTOR('Line Direction',#723,1.) ;
#741=VECTOR('Line Direction',#740,1.) ;
#767=VECTOR('Line Direction',#766,1.) ;
#772=VECTOR('Line Direction',#771,1.) ;
#810=VECTOR('Line Direction',#809,1.) ;
#815=VECTOR('Line Direction',#814,1.) ;
#853=VECTOR('Line Direction',#852,1.) ;
#858=VECTOR('Line Direction',#857,1.) ;
#896=VECTOR('Line Direction',#895,1.) ;
#901=VECTOR('Line Direction',#900,1.) ;
#930=VECTOR('Line Direction',#929,1.) ;
#961=VECTOR('Line Direction',#960,1.) ;
#992=VECTOR('Line Direction',#991,1.) ;
#1051=VECTOR('Line Direction',#1050,1.) ;
#1065=VECTOR('Line Direction',#1064,1.) ;
#1094=VECTOR('Line Direction',#1093,1.) ;
#1099=VECTOR('Line Direction',#1098,1.) ;
#1106=VECTOR('Line Direction',#1105,1.) ;
#1144=VECTOR('Line Direction',#1143,1.) ;
#1151=VECTOR('Line Direction',#1150,1.) ;
#1158=VECTOR('Line Direction',#1157,1.) ;
#1203=VECTOR('Line Direction',#1202,1.) ;
#1250=VECTOR('Line Direction',#1249,1.) ;
#1257=VECTOR('Line Direction',#1256,1.) ;
#1308=VECTOR('Line Direction',#1307,1.) ;
#1318=VECTOR('Line Direction',#1317,1.) ;
#1464=VECTOR('Line Direction',#1463,1.) ;
#1480=VECTOR('Line Direction',#1479,1.) ;
#1507=VECTOR('Line Direction',#1506,1.) ;
#1512=VECTOR('Line Direction',#1511,1.) ;
#1536=VECTOR('Line Direction',#1535,1.) ;
#1552=VECTOR('Line Direction',#1551,1.) ;
#1579=VECTOR('Line Direction',#1578,1.) ;
#1584=VECTOR('Line Direction',#1583,1.) ;
#1602=ADVANCED_BREP_SHAPE_REPRESENTATION('NONE',(#1601),#46) ;
#49=SHAPE_REPRESENTATION(' ',(#48),#46) ;
#83=ADVANCED_FACE('Corps principal',(#82),#56,.F.) ;
#313=ADVANCED_FACE('Corps principal',(#138,#172,#206,#240,#258,#276,#294,#312),#88,.F.) ;
#344=ADVANCED_FACE('Corps principal',(#343),#318,.T.) ;
#382=ADVANCED_FACE('Corps principal',(#381),#349,.F.) ;
#422=ADVANCED_FACE('Corps principal',(#421),#387,.F.) ;
#462=ADVANCED_FACE('Corps principal',(#461),#427,.F.) ;
#493=ADVANCED_FACE('Corps principal',(#492),#467,.F.) ;
#517=ADVANCED_FACE('Corps principal',(#516),#498,.T.) ;
#541=ADVANCED_FACE('Corps principal',(#540),#522,.F.) ;
#558=ADVANCED_FACE('Corps principal',(#557),#546,.T.) ;
#589=ADVANCED_FACE('Corps principal',(#588),#563,.F.) ;
#613=ADVANCED_FACE('Corps principal',(#612),#594,.T.) ;
#637=ADVANCED_FACE('Corps principal',(#636),#618,.F.) ;
#654=ADVANCED_FACE('Corps principal',(#653),#642,.T.) ;
#685=ADVANCED_FACE('Corps principal',(#684),#659,.F.) ;
#709=ADVANCED_FACE('Corps principal',(#708),#690,.T.) ;
#733=ADVANCED_FACE('Corps principal',(#732),#714,.F.) ;
#750=ADVANCED_FACE('Corps principal',(#749),#738,.T.) ;
#781=ADVANCED_FACE('Corps principal',(#780),#755,.F.) ;
#793=ADVANCED_FACE('Corps principal',(#792),#755,.F.) ;
#824=ADVANCED_FACE('Corps principal',(#823),#798,.F.) ;
#836=ADVANCED_FACE('Corps principal',(#835),#798,.F.) ;
#867=ADVANCED_FACE('Corps principal',(#866),#841,.F.) ;
#879=ADVANCED_FACE('Corps principal',(#878),#841,.F.) ;
#910=ADVANCED_FACE('Corps principal',(#909),#884,.F.) ;
#922=ADVANCED_FACE('Corps principal',(#921),#884,.F.) ;
#953=ADVANCED_FACE('Corps principal',(#952),#927,.T.) ;
#984=ADVANCED_FACE('Corps principal',(#983),#958,.T.) ;
#1015=ADVANCED_FACE('Corps principal',(#1014),#989,.T.) ;
#1043=ADVANCED_FACE('Corps principal',(#1038,#1042),#1020,.T.) ;
#1074=ADVANCED_FACE('Corps principal',(#1073),#1048,.F.) ;
#1086=ADVANCED_FACE('Corps principal',(#1085),#1048,.F.) ;
#1115=ADVANCED_FACE('Corps principal',(#1114),#1091,.F.) ;
#1136=ADVANCED_FACE('Corps principal',(#1131,#1135),#1120,.T.) ;
#1167=ADVANCED_FACE('Corps principal',(#1166),#1141,.F.) ;
#1183=ADVANCED_FACE('Corps principal',(#1178,#1182),#1120,.T.) ;
#1242=ADVANCED_FACE('Corps principal',(#1219,#1223,#1229,#1235,#1241),#1188,.T.) ;
#1266=ADVANCED_FACE('Corps principal',(#1265),#1247,.F.) ;
#1282=ADVANCED_FACE('Corps principal',(#1277,#1281),#1120,.T.) ;
#1327=ADVANCED_FACE('Corps principal',(#1326),#1287,.F.) ;
#1348=ADVANCED_FACE('Corps principal',(#1347),#1287,.F.) ;
#1354=ADVANCED_FACE('Corps principal',(#1353),#56,.F.) ;
#1456=ADVANCED_FACE('Corps principal',(#1379,#1383,#1419,#1455),#1359,.T.) ;
#1488=ADVANCED_FACE('Corps principal',(#1487),#1461,.F.) ;
#1499=ADVANCED_FACE('Corps principal',(#1498),#1461,.F.) ;
#1521=ADVANCED_FACE('Corps principal',(#1520),#1504,.F.) ;
#1528=ADVANCED_FACE('Corps principal',(#1527),#1504,.F.) ;
#1560=ADVANCED_FACE('Corps principal',(#1559),#1533,.F.) ;
#1571=ADVANCED_FACE('Corps principal',(#1570),#1533,.F.) ;
#1593=ADVANCED_FACE('Corps principal',(#1592),#1576,.F.) ;
#1600=ADVANCED_FACE('Corps principal',(#1599),#1576,.F.) ;
#4=APPLICATION_PROTOCOL_DEFINITION('international standard','config_control_design',1994,#1) ;
#32=APPROVAL_DATE_TIME(#13,#21) ;
#1288=B_SPLINE_CURVE_WITH_KNOTS('',5,(#1289,#1290,#1291,#1292,#1293,#1294,#1295,#1296,#1297,#1298,#1299,#1300),.UNSPECIFIED.,.F.,.U.,(6,3,3,6),(0.,3.61909823424,5.43457818512,8.88641751469),.UNSPECIFIED.) ;
#1328=B_SPLINE_CURVE_WITH_KNOTS('',5,(#1329,#1330,#1331,#1332,#1333,#1334,#1335,#1336,#1337,#1338,#1339,#1340),.UNSPECIFIED.,.F.,.U.,(6,3,3,6),(0.,3.6190982347,5.43457818566,8.88641751529),.UNSPECIFIED.) ;
#1384=B_SPLINE_CURVE_WITH_KNOTS('',5,(#1385,#1386,#1387,#1388,#1389,#1390,#1391,#1392,#1393,#1394,#1395,#1396),.UNSPECIFIED.,.F.,.U.,(6,3,3,6),(0.,3.61909823424,5.43457818512,8.88641751469),.UNSPECIFIED.) ;
#1402=B_SPLINE_CURVE_WITH_KNOTS('',5,(#1403,#1404,#1405,#1406,#1407,#1408,#1409,#1410,#1411,#1412,#1413,#1414),.UNSPECIFIED.,.F.,.U.,(6,3,3,6),(0.,3.6190982347,5.43457818566,8.88641751529),.UNSPECIFIED.) ;
#1420=B_SPLINE_CURVE_WITH_KNOTS('',5,(#1421,#1422,#1423,#1424,#1425,#1426,#1427,#1428,#1429,#1430,#1431,#1432),.UNSPECIFIED.,.F.,.U.,(6,3,3,6),(0.,3.61909823424,5.43457818512,8.88641751469),.UNSPECIFIED.) ;
#1438=B_SPLINE_CURVE_WITH_KNOTS('',5,(#1439,#1440,#1441,#1442,#1443,#1444,#1445,#1446,#1447,#1448,#1449,#1450),.UNSPECIFIED.,.F.,.U.,(6,3,3,6),(0.,3.6190982347,5.43457818566,8.88641751529),.UNSPECIFIED.) ;
#1601=MANIFOLD_SOLID_BREP('Corps principal',#51) ;
#11=CALENDAR_DATE(2025,18,11) ;
#30=CC_DESIGN_APPROVAL(#21,(#16,#6,#14)) ;
#18=CC_DESIGN_DATE_AND_TIME_ASSIGNMENT(#13,#17,(#16)) ;
#29=CC_DESIGN_DATE_AND_TIME_ASSIGNMENT(#13,#28,(#14)) ;
#17=DATE_TIME_ROLE('classification_date') ;
#28=DATE_TIME_ROLE('creation_date') ;
#27=CC_DESIGN_PERSON_AND_ORGANIZATION_ASSIGNMENT(#25,#26,(#16)) ;
#33=CC_DESIGN_PERSON_AND_ORGANIZATION_ASSIGNMENT(#25,#34,(#6)) ;
#35=CC_DESIGN_PERSON_AND_ORGANIZATION_ASSIGNMENT(#25,#36,(#6,#14)) ;
#37=CC_DESIGN_PERSON_AND_ORGANIZATION_ASSIGNMENT(#25,#38,(#5)) ;
#26=PERSON_AND_ORGANIZATION_ROLE('classification_officer') ;
#34=PERSON_AND_ORGANIZATION_ROLE('design_supplier') ;
#36=PERSON_AND_ORGANIZATION_ROLE('creator') ;
#38=PERSON_AND_ORGANIZATION_ROLE('design_owner') ;
#39=CC_DESIGN_SECURITY_CLASSIFICATION(#16,(#6)) ;
#69=CIRCLE('generated circle',#68,2.) ;
#92=CIRCLE('generated circle',#91,49.9) ;
#101=CIRCLE('generated circle',#100,49.9) ;
#108=CIRCLE('generated circle',#107,49.9) ;
#115=CIRCLE('generated circle',#114,49.9) ;
#122=CIRCLE('generated circle',#121,49.9) ;
#129=CIRCLE('generated circle',#128,49.9) ;
#151=CIRCLE('generated circle',#150,2.5) ;
#165=CIRCLE('generated circle',#164,2.5) ;
#185=CIRCLE('generated circle',#184,2.5) ;
#199=CIRCLE('generated circle',#198,2.5) ;
#219=CIRCLE('generated circle',#218,2.5) ;
#233=CIRCLE('generated circle',#232,2.5) ;
#244=CIRCLE('generated circle',#243,2.5) ;
#253=CIRCLE('generated circle',#252,2.5) ;
#262=CIRCLE('generated circle',#261,2.5) ;
#271=CIRCLE('generated circle',#270,2.5) ;
#280=CIRCLE('generated circle',#279,2.5) ;
#289=CIRCLE('generated circle',#288,2.5) ;
#298=CIRCLE('generated circle',#297,14.2) ;
#307=CIRCLE('generated circle',#306,14.2) ;
#336=CIRCLE('generated circle',#335,49.9) ;
#471=CIRCLE('generated circle',#470,2.5) ;
#526=CIRCLE('generated circle',#525,2.5) ;
#567=CIRCLE('generated circle',#566,2.5) ;
#622=CIRCLE('generated circle',#621,2.5) ;
#663=CIRCLE('generated circle',#662,2.5) ;
#718=CIRCLE('generated circle',#717,2.5) ;
#759=CIRCLE('generated circle',#758,2.5) ;
#785=CIRCLE('generated circle',#784,2.5) ;
#802=CIRCLE('generated circle',#801,2.5) ;
#828=CIRCLE('generated circle',#827,2.5) ;
#845=CIRCLE('generated circle',#844,2.5) ;
#871=CIRCLE('generated circle',#870,2.5) ;
#888=CIRCLE('generated circle',#887,14.2) ;
#914=CIRCLE('generated circle',#913,14.2) ;
#940=CIRCLE('generated circle',#939,15.) ;
#945=CIRCLE('generated circle',#944,15.) ;
#971=CIRCLE('generated circle',#970,15.) ;
#976=CIRCLE('generated circle',#975,15.) ;
#1002=CIRCLE('generated circle',#1001,15.) ;
#1007=CIRCLE('generated circle',#1006,15.) ;
#1024=CIRCLE('generated circle',#1023,16.2) ;
#1033=CIRCLE('generated circle',#1032,16.2) ;
#1059=CIRCLE('generated circle',#1058,16.2) ;
#1078=CIRCLE('generated circle',#1077,16.2) ;
#1124=CIRCLE('generated circle',#1123,49.9) ;
#1171=CIRCLE('generated circle',#1170,49.9) ;
#1192=CIRCLE('generated circle',#1191,49.9) ;
#1197=CIRCLE('generated circle',#1196,49.9) ;
#1270=CIRCLE('generated circle',#1269,49.9) ;
#1314=CIRCLE('generated circle',#1313,2.) ;
#1474=CIRCLE('generated circle',#1473,2.) ;
#1492=CIRCLE('generated circle',#1491,2.) ;
#1546=CIRCLE('generated circle',#1545,2.) ;
#1564=CIRCLE('generated circle',#1563,2.) ;
#56=CONICAL_SURFACE('Cone',#55,0.,1.0471975512) ;
#1461=CONICAL_SURFACE('Cone',#1460,0.,1.0471975512) ;
#1533=CONICAL_SURFACE('Cone',#1532,0.,1.0471975512) ;
#1603=SHAPE_REPRESENTATION_RELATIONSHIP(' ',' ',#49,#1602) ;
#318=CYLINDRICAL_SURFACE('generated cylinder',#317,49.9) ;
#467=CYLINDRICAL_SURFACE('generated cylinder',#466,2.5) ;
#522=CYLINDRICAL_SURFACE('generated cylinder',#521,2.5) ;
#563=CYLINDRICAL_SURFACE('generated cylinder',#562,2.5) ;
#618=CYLINDRICAL_SURFACE('generated cylinder',#617,2.5) ;
#659=CYLINDRICAL_SURFACE('generated cylinder',#658,2.5) ;
#714=CYLINDRICAL_SURFACE('generated cylinder',#713,2.5) ;
#755=CYLINDRICAL_SURFACE('generated cylinder',#754,2.5) ;
#798=CYLINDRICAL_SURFACE('generated cylinder',#797,2.5) ;
#841=CYLINDRICAL_SURFACE('generated cylinder',#840,2.5) ;
#884=CYLINDRICAL_SURFACE('generated cylinder',#883,14.2) ;
#927=CYLINDRICAL_SURFACE('generated cylinder',#926,15.) ;
#958=CYLINDRICAL_SURFACE('generated cylinder',#957,15.) ;
#989=CYLINDRICAL_SURFACE('generated cylinder',#988,15.) ;
#1048=CYLINDRICAL_SURFACE('generated cylinder',#1047,16.2) ;
#1287=CYLINDRICAL_SURFACE('generated cylinder',#1286,2.) ;
#1359=CYLINDRICAL_SURFACE('generated cylinder',#1358,49.9) ;
#1504=CYLINDRICAL_SURFACE('generated cylinder',#1503,2.) ;
#1576=CYLINDRICAL_SURFACE('generated cylinder',#1575,2.) ;
#3=DESIGN_CONTEXT(' ',#1,'design') ;
#65=EDGE_CURVE('',#62,#64,#60,.T.) ;
#72=EDGE_CURVE('',#71,#64,#69,.F.) ;
#77=EDGE_CURVE('',#62,#71,#76,.T.) ;
#97=EDGE_CURVE('',#94,#96,#92,.T.) ;
#104=EDGE_CURVE('',#103,#94,#101,.T.) ;
#111=EDGE_CURVE('',#110,#103,#108,.T.) ;
#118=EDGE_CURVE('',#117,#110,#115,.T.) ;
#125=EDGE_CURVE('',#124,#117,#122,.T.) ;
#130=EDGE_CURVE('',#96,#124,#129,.T.) ;
#147=EDGE_CURVE('',#144,#146,#142,.F.) ;
#154=EDGE_CURVE('',#146,#153,#151,.T.) ;
#161=EDGE_CURVE('',#153,#160,#158,.F.) ;
#166=EDGE_CURVE('',#160,#144,#165,.T.) ;
#181=EDGE_CURVE('',#178,#180,#176,.F.) ;
#188=EDGE_CURVE('',#180,#187,#185,.T.) ;
#195=EDGE_CURVE('',#187,#194,#192,.F.) ;
#200=EDGE_CURVE('',#194,#178,#199,.T.) ;
#215=EDGE_CURVE('',#212,#214,#210,.F.) ;
#222=EDGE_CURVE('',#214,#221,#219,.T.) ;
#229=EDGE_CURVE('',#221,#228,#226,.F.) ;
#234=EDGE_CURVE('',#228,#212,#233,.T.) ;
#249=EDGE_CURVE('',#246,#248,#244,.T.) ;
#254=EDGE_CURVE('',#248,#246,#253,.T.) ;
#267=EDGE_CURVE('',#264,#266,#262,.T.) ;
#272=EDGE_CURVE('',#266,#264,#271,.T.) ;
#285=EDGE_CURVE('',#282,#284,#280,.T.) ;
#290=EDGE_CURVE('',#284,#282,#289,.T.) ;
#303=EDGE_CURVE('',#300,#302,#298,.T.) ;
#308=EDGE_CURVE('',#302,#300,#307,.T.) ;
#325=EDGE_CURVE('',#94,#324,#322,.T.) ;
#332=EDGE_CURVE('',#96,#331,#329,.T.) ;
#337=EDGE_CURVE('',#324,#331,#336,.T.) ;
#356=EDGE_CURVE('',#324,#355,#353,.F.) ;
#363=EDGE_CURVE('',#355,#362,#360,.T.) ;
#370=EDGE_CURVE('',#369,#362,#367,.F.) ;
#375=EDGE_CURVE('',#324,#369,#374,.T.) ;
#396=EDGE_CURVE('',#393,#395,#391,.F.) ;
#403=EDGE_CURVE('',#395,#402,#400,.T.) ;
#410=EDGE_CURVE('',#409,#402,#407,.F.) ;
#415=EDGE_CURVE('',#393,#409,#414,.T.) ;
#436=EDGE_CURVE('',#433,#435,#431,.F.) ;
#443=EDGE_CURVE('',#435,#442,#440,.T.) ;
#450=EDGE_CURVE('',#449,#442,#447,.F.) ;
#455=EDGE_CURVE('',#433,#449,#454,.T.) ;
#476=EDGE_CURVE('',#473,#475,#471,.T.) ;
#481=EDGE_CURVE('',#144,#475,#480,.T.) ;
#486=EDGE_CURVE('',#160,#473,#485,.T.) ;
#505=EDGE_CURVE('',#504,#473,#502,.F.) ;
#510=EDGE_CURVE('',#153,#504,#509,.T.) ;
#529=EDGE_CURVE('',#528,#504,#526,.T.) ;
#534=EDGE_CURVE('',#146,#528,#533,.T.) ;
#551=EDGE_CURVE('',#475,#528,#550,.F.) ;
#572=EDGE_CURVE('',#569,#571,#567,.T.) ;
#577=EDGE_CURVE('',#178,#571,#576,.T.) ;
#582=EDGE_CURVE('',#194,#569,#581,.T.) ;
#601=EDGE_CURVE('',#600,#569,#598,.F.) ;
#606=EDGE_CURVE('',#187,#600,#605,.T.) ;
#625=EDGE_CURVE('',#624,#600,#622,.T.) ;
#630=EDGE_CURVE('',#180,#624,#629,.T.) ;
#647=EDGE_CURVE('',#571,#624,#646,.F.) ;
#668=EDGE_CURVE('',#665,#667,#663,.T.) ;
#673=EDGE_CURVE('',#212,#667,#672,.T.) ;
#678=EDGE_CURVE('',#228,#665,#677,.T.) ;
#697=EDGE_CURVE('',#696,#665,#694,.F.) ;
#702=EDGE_CURVE('',#221,#696,#701,.T.) ;
#721=EDGE_CURVE('',#720,#696,#718,.T.) ;
#726=EDGE_CURVE('',#214,#720,#725,.T.) ;
#743=EDGE_CURVE('',#667,#720,#742,.F.) ;
#764=EDGE_CURVE('',#761,#763,#759,.T.) ;
#769=EDGE_CURVE('',#246,#763,#768,.T.) ;
#774=EDGE_CURVE('',#248,#761,#773,.T.) ;
#786=EDGE_CURVE('',#763,#761,#785,.T.) ;
#807=EDGE_CURVE('',#804,#806,#802,.T.) ;
#812=EDGE_CURVE('',#264,#806,#811,.T.) ;
#817=EDGE_CURVE('',#266,#804,#816,.T.) ;
#829=EDGE_CURVE('',#806,#804,#828,.T.) ;
#850=EDGE_CURVE('',#847,#849,#845,.T.) ;
#855=EDGE_CURVE('',#282,#849,#854,.T.) ;
#860=EDGE_CURVE('',#284,#847,#859,.T.) ;
#872=EDGE_CURVE('',#849,#847,#871,.T.) ;
#893=EDGE_CURVE('',#890,#892,#888,.T.) ;
#898=EDGE_CURVE('',#300,#892,#897,.T.) ;
#903=EDGE_CURVE('',#302,#890,#902,.T.) ;
#915=EDGE_CURVE('',#892,#890,#914,.T.) ;
#936=EDGE_CURVE('',#933,#935,#931,.T.) ;
#941=EDGE_CURVE('',#362,#935,#940,.T.) ;
#946=EDGE_CURVE('',#355,#933,#945,.T.) ;
#967=EDGE_CURVE('',#964,#966,#962,.T.) ;
#972=EDGE_CURVE('',#402,#966,#971,.T.) ;
#977=EDGE_CURVE('',#395,#964,#976,.T.) ;
#998=EDGE_CURVE('',#995,#997,#993,.T.) ;
#1003=EDGE_CURVE('',#442,#997,#1002,.T.) ;
#1008=EDGE_CURVE('',#435,#995,#1007,.T.) ;
#1029=EDGE_CURVE('',#1026,#1028,#1024,.T.) ;
#1034=EDGE_CURVE('',#1028,#1026,#1033,.T.) ;
#1055=EDGE_CURVE('',#1026,#1054,#1052,.T.) ;
#1062=EDGE_CURVE('',#1054,#1061,#1059,.T.) ;
#1067=EDGE_CURVE('',#1028,#1061,#1066,.T.) ;
#1079=EDGE_CURVE('',#1061,#1054,#1078,.T.) ;
#1096=EDGE_CURVE('',#995,#331,#1095,.F.) ;
#1103=EDGE_CURVE('',#331,#1102,#1100,.T.) ;
#1108=EDGE_CURVE('',#997,#1102,#1107,.F.) ;
#1125=EDGE_CURVE('',#1102,#449,#1124,.T.) ;
#1148=EDGE_CURVE('',#964,#1147,#1145,.F.) ;
#1155=EDGE_CURVE('',#1147,#1154,#1152,.T.) ;
#1160=EDGE_CURVE('',#966,#1154,#1159,.F.) ;
#1172=EDGE_CURVE('',#1154,#409,#1171,.T.) ;
#1193=EDGE_CURVE('',#433,#1147,#1192,.T.) ;
#1200=EDGE_CURVE('',#393,#1199,#1197,.T.) ;
#1205=EDGE_CURVE('',#933,#1199,#1204,.F.) ;
#1254=EDGE_CURVE('',#1199,#1253,#1251,.T.) ;
#1259=EDGE_CURVE('',#935,#1253,#1258,.F.) ;
#1271=EDGE_CURVE('',#1253,#369,#1270,.T.) ;
#1305=EDGE_CURVE('',#1302,#1304,#1288,.T.) ;
#1310=EDGE_CURVE('',#64,#1302,#1309,.F.) ;
#1315=EDGE_CURVE('',#64,#71,#1314,.T.) ;
#1320=EDGE_CURVE('',#71,#1304,#1319,.F.) ;
#1341=EDGE_CURVE('',#1304,#1302,#1328,.T.) ;
#1401=EDGE_CURVE('',#1398,#1400,#1384,.T.) ;
#1415=EDGE_CURVE('',#1400,#1398,#1402,.T.) ;
#1437=EDGE_CURVE('',#1434,#1436,#1420,.T.) ;
#1451=EDGE_CURVE('',#1436,#1434,#1438,.T.) ;
#1470=EDGE_CURVE('',#1467,#1469,#1465,.T.) ;
#1477=EDGE_CURVE('',#1476,#1469,#1474,.F.) ;
#1482=EDGE_CURVE('',#1467,#1476,#1481,.T.) ;
#1493=EDGE_CURVE('',#1469,#1476,#1492,.F.) ;
#1509=EDGE_CURVE('',#1476,#1436,#1508,.F.) ;
#1514=EDGE_CURVE('',#1469,#1434,#1513,.F.) ;
#1542=EDGE_CURVE('',#1539,#1541,#1537,.T.) ;
#1549=EDGE_CURVE('',#1548,#1541,#1546,.F.) ;
#1554=EDGE_CURVE('',#1539,#1548,#1553,.T.) ;
#1565=EDGE_CURVE('',#1541,#1548,#1564,.F.) ;
#1581=EDGE_CURVE('',#1548,#1400,#1580,.F.) ;
#1586=EDGE_CURVE('',#1541,#1398,#1585,.F.) ;
#78=EDGE_LOOP('',(#79,#80,#81)) ;
#131=EDGE_LOOP('',(#132,#133,#134,#135,#136,#137)) ;
#167=EDGE_LOOP('',(#168,#169,#170,#171)) ;
#201=EDGE_LOOP('',(#202,#203,#204,#205)) ;
#235=EDGE_LOOP('',(#236,#237,#238,#239)) ;
#255=EDGE_LOOP('',(#256,#257)) ;
#273=EDGE_LOOP('',(#274,#275)) ;
#291=EDGE_LOOP('',(#292,#293)) ;
#309=EDGE_LOOP('',(#310,#311)) ;
#338=EDGE_LOOP('',(#339,#340,#341,#342)) ;
#376=EDGE_LOOP('',(#377,#378,#379,#380)) ;
#416=EDGE_LOOP('',(#417,#418,#419,#420)) ;
#456=EDGE_LOOP('',(#457,#458,#459,#460)) ;
#487=EDGE_LOOP('',(#488,#489,#490,#491)) ;
#511=EDGE_LOOP('',(#512,#513,#514,#515)) ;
#535=EDGE_LOOP('',(#536,#537,#538,#539)) ;
#552=EDGE_LOOP('',(#553,#554,#555,#556)) ;
#583=EDGE_LOOP('',(#584,#585,#586,#587)) ;
#607=EDGE_LOOP('',(#608,#609,#610,#611)) ;
#631=EDGE_LOOP('',(#632,#633,#634,#635)) ;
#648=EDGE_LOOP('',(#649,#650,#651,#652)) ;
#679=EDGE_LOOP('',(#680,#681,#682,#683)) ;
#703=EDGE_LOOP('',(#704,#705,#706,#707)) ;
#727=EDGE_LOOP('',(#728,#729,#730,#731)) ;
#744=EDGE_LOOP('',(#745,#746,#747,#748)) ;
#775=EDGE_LOOP('',(#776,#777,#778,#779)) ;
#787=EDGE_LOOP('',(#788,#789,#790,#791)) ;
#818=EDGE_LOOP('',(#819,#820,#821,#822)) ;
#830=EDGE_LOOP('',(#831,#832,#833,#834)) ;
#861=EDGE_LOOP('',(#862,#863,#864,#865)) ;
#873=EDGE_LOOP('',(#874,#875,#876,#877)) ;
#904=EDGE_LOOP('',(#905,#906,#907,#908)) ;
#916=EDGE_LOOP('',(#917,#918,#919,#920)) ;
#947=EDGE_LOOP('',(#948,#949,#950,#951)) ;
#978=EDGE_LOOP('',(#979,#980,#981,#982)) ;
#1009=EDGE_LOOP('',(#1010,#1011,#1012,#1013)) ;
#1035=EDGE_LOOP('',(#1036,#1037)) ;
#1039=EDGE_LOOP('',(#1040,#1041)) ;
#1068=EDGE_LOOP('',(#1069,#1070,#1071,#1072)) ;
#1080=EDGE_LOOP('',(#1081,#1082,#1083,#1084)) ;
#1109=EDGE_LOOP('',(#1110,#1111,#1112,#1113)) ;
#1126=EDGE_LOOP('',(#1127,#1128,#1129,#1130)) ;
#1132=EDGE_LOOP('',(#1133,#1134)) ;
#1161=EDGE_LOOP('',(#1162,#1163,#1164,#1165)) ;
#1173=EDGE_LOOP('',(#1174,#1175,#1176,#1177)) ;
#1179=EDGE_LOOP('',(#1180,#1181)) ;
#1206=EDGE_LOOP('',(#1207,#1208,#1209,#1210,#1211,#1212,#1213,#1214,#1215,#1216,#1217,#1218)) ;
#1220=EDGE_LOOP('',(#1221,#1222)) ;
#1224=EDGE_LOOP('',(#1225,#1226,#1227,#1228)) ;
#1230=EDGE_LOOP('',(#1231,#1232,#1233,#1234)) ;
#1236=EDGE_LOOP('',(#1237,#1238,#1239,#1240)) ;
#1260=EDGE_LOOP('',(#1261,#1262,#1263,#1264)) ;
#1272=EDGE_LOOP('',(#1273,#1274,#1275,#1276)) ;
#1278=EDGE_LOOP('',(#1279,#1280)) ;
#1321=EDGE_LOOP('',(#1322,#1323,#1324,#1325)) ;
#1342=EDGE_LOOP('',(#1343,#1344,#1345,#1346)) ;
#1349=EDGE_LOOP('',(#1350,#1351,#1352)) ;
#1360=EDGE_LOOP('',(#1361,#1362,#1363,#1364,#1365,#1366,#1367,#1368,#1369,#1370,#1371,#1372,#1373,#1374,#1375,#1376,#1377,#1378)) ;
#1380=EDGE_LOOP('',(#1381,#1382)) ;
#1416=EDGE_LOOP('',(#1417,#1418)) ;
#1452=EDGE_LOOP('',(#1453,#1454)) ;
#1483=EDGE_LOOP('',(#1484,#1485,#1486)) ;
#1494=EDGE_LOOP('',(#1495,#1496,#1497)) ;
#1515=EDGE_LOOP('',(#1516,#1517,#1518,#1519)) ;
#1522=EDGE_LOOP('',(#1523,#1524,#1525,#1526)) ;
#1555=EDGE_LOOP('',(#1556,#1557,#1558)) ;
#1566=EDGE_LOOP('',(#1567,#1568,#1569)) ;
#1587=EDGE_LOOP('',(#1588,#1589,#1590,#1591)) ;
#1594=EDGE_LOOP('',(#1595,#1596,#1597,#1598)) ;
#82=FACE_OUTER_BOUND('',#78,.T.) ;
#138=FACE_OUTER_BOUND('',#131,.T.) ;
#343=FACE_OUTER_BOUND('',#338,.T.) ;
#381=FACE_OUTER_BOUND('',#376,.T.) ;
#421=FACE_OUTER_BOUND('',#416,.T.) ;
#461=FACE_OUTER_BOUND('',#456,.T.) ;
#492=FACE_OUTER_BOUND('',#487,.T.) ;
#516=FACE_OUTER_BOUND('',#511,.T.) ;
#540=FACE_OUTER_BOUND('',#535,.T.) ;
#557=FACE_OUTER_BOUND('',#552,.T.) ;
#588=FACE_OUTER_BOUND('',#583,.T.) ;
#612=FACE_OUTER_BOUND('',#607,.T.) ;
#636=FACE_OUTER_BOUND('',#631,.T.) ;
#653=FACE_OUTER_BOUND('',#648,.T.) ;
#684=FACE_OUTER_BOUND('',#679,.T.) ;
#708=FACE_OUTER_BOUND('',#703,.T.) ;
#732=FACE_OUTER_BOUND('',#727,.T.) ;
#749=FACE_OUTER_BOUND('',#744,.T.) ;
#780=FACE_OUTER_BOUND('',#775,.T.) ;
#792=FACE_OUTER_BOUND('',#787,.T.) ;
#823=FACE_OUTER_BOUND('',#818,.T.) ;
#835=FACE_OUTER_BOUND('',#830,.T.) ;
#866=FACE_OUTER_BOUND('',#861,.T.) ;
#878=FACE_OUTER_BOUND('',#873,.T.) ;
#909=FACE_OUTER_BOUND('',#904,.T.) ;
#921=FACE_OUTER_BOUND('',#916,.T.) ;
#952=FACE_OUTER_BOUND('',#947,.T.) ;
#983=FACE_OUTER_BOUND('',#978,.T.) ;
#1014=FACE_OUTER_BOUND('',#1009,.T.) ;
#1038=FACE_OUTER_BOUND('',#1035,.T.) ;
#1073=FACE_OUTER_BOUND('',#1068,.T.) ;
#1085=FACE_OUTER_BOUND('',#1080,.T.) ;
#1114=FACE_OUTER_BOUND('',#1109,.T.) ;
#1131=FACE_OUTER_BOUND('',#1126,.T.) ;
#1166=FACE_OUTER_BOUND('',#1161,.T.) ;
#1178=FACE_OUTER_BOUND('',#1173,.T.) ;
#1219=FACE_OUTER_BOUND('',#1206,.T.) ;
#1265=FACE_OUTER_BOUND('',#1260,.T.) ;
#1277=FACE_OUTER_BOUND('',#1272,.T.) ;
#1326=FACE_OUTER_BOUND('',#1321,.T.) ;
#1347=FACE_OUTER_BOUND('',#1342,.T.) ;
#1353=FACE_OUTER_BOUND('',#1349,.T.) ;
#1379=FACE_OUTER_BOUND('',#1360,.T.) ;
#1487=FACE_OUTER_BOUND('',#1483,.T.) ;
#1498=FACE_OUTER_BOUND('',#1494,.T.) ;
#1520=FACE_OUTER_BOUND('',#1515,.T.) ;
#1527=FACE_OUTER_BOUND('',#1522,.T.) ;
#1559=FACE_OUTER_BOUND('',#1555,.T.) ;
#1570=FACE_OUTER_BOUND('',#1566,.T.) ;
#1592=FACE_OUTER_BOUND('',#1587,.T.) ;
#1599=FACE_OUTER_BOUND('',#1594,.T.) ;
#45=UNCERTAINTY_MEASURE_WITH_UNIT(LENGTH_MEASURE(0.005),#41,'distance_accuracy_value','CONFUSED CURVE UNCERTAINTY') ;
#60=LINE('Line',#57,#59) ;
#76=LINE('Line',#73,#75) ;
#142=LINE('Line',#139,#141) ;
#158=LINE('Line',#155,#157) ;
#176=LINE('Line',#173,#175) ;
#192=LINE('Line',#189,#191) ;
#210=LINE('Line',#207,#209) ;
#226=LINE('Line',#223,#225) ;
#322=LINE('Line',#319,#321) ;
#329=LINE('Line',#326,#328) ;
#353=LINE('Line',#350,#352) ;
#360=LINE('Line',#357,#359) ;
#367=LINE('Line',#364,#366) ;
#374=LINE('Line',#371,#373) ;
#391=LINE('Line',#388,#390) ;
#400=LINE('Line',#397,#399) ;
#407=LINE('Line',#404,#406) ;
#414=LINE('Line',#411,#413) ;
#431=LINE('Line',#428,#430) ;
#440=LINE('Line',#437,#439) ;
#447=LINE('Line',#444,#446) ;
#454=LINE('Line',#451,#453) ;
#480=LINE('Line',#477,#479) ;
#485=LINE('Line',#482,#484) ;
#502=LINE('Line',#499,#501) ;
#509=LINE('Line',#506,#508) ;
#533=LINE('Line',#530,#532) ;
#550=LINE('Line',#547,#549) ;
#576=LINE('Line',#573,#575) ;
#581=LINE('Line',#578,#580) ;
#598=LINE('Line',#595,#597) ;
#605=LINE('Line',#602,#604) ;
#629=LINE('Line',#626,#628) ;
#646=LINE('Line',#643,#645) ;
#672=LINE('Line',#669,#671) ;
#677=LINE('Line',#674,#676) ;
#694=LINE('Line',#691,#693) ;
#701=LINE('Line',#698,#700) ;
#725=LINE('Line',#722,#724) ;
#742=LINE('Line',#739,#741) ;
#768=LINE('Line',#765,#767) ;
#773=LINE('Line',#770,#772) ;
#811=LINE('Line',#808,#810) ;
#816=LINE('Line',#813,#815) ;
#854=LINE('Line',#851,#853) ;
#859=LINE('Line',#856,#858) ;
#897=LINE('Line',#894,#896) ;
#902=LINE('Line',#899,#901) ;
#931=LINE('Line',#928,#930) ;
#962=LINE('Line',#959,#961) ;
#993=LINE('Line',#990,#992) ;
#1052=LINE('Line',#1049,#1051) ;
#1066=LINE('Line',#1063,#1065) ;
#1095=LINE('Line',#1092,#1094) ;
#1100=LINE('Line',#1097,#1099) ;
#1107=LINE('Line',#1104,#1106) ;
#1145=LINE('Line',#1142,#1144) ;
#1152=LINE('Line',#1149,#1151) ;
#1159=LINE('Line',#1156,#1158) ;
#1204=LINE('Line',#1201,#1203) ;
#1251=LINE('Line',#1248,#1250) ;
#1258=LINE('Line',#1255,#1257) ;
#1309=LINE('Line',#1306,#1308) ;
#1319=LINE('Line',#1316,#1318) ;
#1465=LINE('Line',#1462,#1464) ;
#1481=LINE('Line',#1478,#1480) ;
#1508=LINE('Line',#1505,#1507) ;
#1513=LINE('Line',#1510,#1512) ;
#1537=LINE('Line',#1534,#1536) ;
#1553=LINE('Line',#1550,#1552) ;
#1580=LINE('Line',#1577,#1579) ;
#1585=LINE('Line',#1582,#1584) ;
#2=MECHANICAL_CONTEXT(' ',#1,'mechanical') ;
#24=PERSONAL_ADDRESS(' ',' ',' ',' ',' ',' ',' ',' ',' ',' ',' ',' ',(#22),' ') ;
#88=PLANE('Plane',#87) ;
#349=PLANE('Plane',#348) ;
#387=PLANE('Plane',#386) ;
#427=PLANE('Plane',#426) ;
#498=PLANE('Plane',#497) ;
#546=PLANE('Plane',#545) ;
#594=PLANE('Plane',#593) ;
#642=PLANE('Plane',#641) ;
#690=PLANE('Plane',#689) ;
#738=PLANE('Plane',#737) ;
#1020=PLANE('Plane',#1019) ;
#1091=PLANE('Plane',#1090) ;
#1120=PLANE('Plane',#1119) ;
#1141=PLANE('Plane',#1140) ;
#1188=PLANE('Plane',#1187) ;
#1247=PLANE('Plane',#1246) ;
#43=PLANE_ANGLE_MEASURE_WITH_UNIT(PLANE_ANGLE_MEASURE(0.0174532925199),#42) ;
#7=PRODUCT_CATEGORY('part',$) ;
#9=PRODUCT_CATEGORY_RELATIONSHIP(' ',' ',#7,#8) ;
#6=PRODUCT_DEFINITION_FORMATION_WITH_SPECIFIED_SOURCE('',' ',#5,.NOT_KNOWN.) ;
#8=PRODUCT_RELATED_PRODUCT_CATEGORY('detail',$,(#5)) ;
#50=SHAPE_DEFINITION_REPRESENTATION(#40,#49) ;
#62=VERTEX_POINT('',#61) ;
#64=VERTEX_POINT('',#63) ;
#71=VERTEX_POINT('',#70) ;
#94=VERTEX_POINT('',#93) ;
#96=VERTEX_POINT('',#95) ;
#103=VERTEX_POINT('',#102) ;
#110=VERTEX_POINT('',#109) ;
#117=VERTEX_POINT('',#116) ;
#124=VERTEX_POINT('',#123) ;
#144=VERTEX_POINT('',#143) ;
#146=VERTEX_POINT('',#145) ;
#153=VERTEX_POINT('',#152) ;
#160=VERTEX_POINT('',#159) ;
#178=VERTEX_POINT('',#177) ;
#180=VERTEX_POINT('',#179) ;
#187=VERTEX_POINT('',#186) ;
#194=VERTEX_POINT('',#193) ;
#212=VERTEX_POINT('',#211) ;
#214=VERTEX_POINT('',#213) ;
#221=VERTEX_POINT('',#220) ;
#228=VERTEX_POINT('',#227) ;
#246=VERTEX_POINT('',#245) ;
#248=VERTEX_POINT('',#247) ;
#264=VERTEX_POINT('',#263) ;
#266=VERTEX_POINT('',#265) ;
#282=VERTEX_POINT('',#281) ;
#284=VERTEX_POINT('',#283) ;
#300=VERTEX_POINT('',#299) ;
#302=VERTEX_POINT('',#301) ;
#324=VERTEX_POINT('',#323) ;
#331=VERTEX_POINT('',#330) ;
#355=VERTEX_POINT('',#354) ;
#362=VERTEX_POINT('',#361) ;
#369=VERTEX_POINT('',#368) ;
#393=VERTEX_POINT('',#392) ;
#395=VERTEX_POINT('',#394) ;
#402=VERTEX_POINT('',#401) ;
#409=VERTEX_POINT('',#408) ;
#433=VERTEX_POINT('',#432) ;
#435=VERTEX_POINT('',#434) ;
#442=VERTEX_POINT('',#441) ;
#449=VERTEX_POINT('',#448) ;
#473=VERTEX_POINT('',#472) ;
#475=VERTEX_POINT('',#474) ;
#504=VERTEX_POINT('',#503) ;
#528=VERTEX_POINT('',#527) ;
#569=VERTEX_POINT('',#568) ;
#571=VERTEX_POINT('',#570) ;
#600=VERTEX_POINT('',#599) ;
#624=VERTEX_POINT('',#623) ;
#665=VERTEX_POINT('',#664) ;
#667=VERTEX_POINT('',#666) ;
#696=VERTEX_POINT('',#695) ;
#720=VERTEX_POINT('',#719) ;
#761=VERTEX_POINT('',#760) ;
#763=VERTEX_POINT('',#762) ;
#804=VERTEX_POINT('',#803) ;
#806=VERTEX_POINT('',#805) ;
#847=VERTEX_POINT('',#846) ;
#849=VERTEX_POINT('',#848) ;
#890=VERTEX_POINT('',#889) ;
#892=VERTEX_POINT('',#891) ;
#933=VERTEX_POINT('',#932) ;
#935=VERTEX_POINT('',#934) ;
#964=VERTEX_POINT('',#963) ;
#966=VERTEX_POINT('',#965) ;
#995=VERTEX_POINT('',#994) ;
#997=VERTEX_POINT('',#996) ;
#1026=VERTEX_POINT('',#1025) ;
#1028=VERTEX_POINT('',#1027) ;
#1054=VERTEX_POINT('',#1053) ;
#1061=VERTEX_POINT('',#1060) ;
#1102=VERTEX_POINT('',#1101) ;
#1147=VERTEX_POINT('',#1146) ;
#1154=VERTEX_POINT('',#1153) ;
#1199=VERTEX_POINT('',#1198) ;
#1253=VERTEX_POINT('',#1252) ;
#1302=VERTEX_POINT('',#1301) ;
#1304=VERTEX_POINT('',#1303) ;
#1398=VERTEX_POINT('',#1397) ;
#1400=VERTEX_POINT('',#1399) ;
#1434=VERTEX_POINT('',#1433) ;
#1436=VERTEX_POINT('',#1435) ;
#1467=VERTEX_POINT('',#1466) ;
#1469=VERTEX_POINT('',#1468) ;
#1476=VERTEX_POINT('',#1475) ;
#1539=VERTEX_POINT('',#1538) ;
#1541=VERTEX_POINT('',#1540) ;
#1548=VERTEX_POINT('',#1547) ;
#41=(LENGTH_UNIT()NAMED_UNIT(*)SI_UNIT(.MILLI.,.METRE.)) ;
#42=(NAMED_UNIT(*)PLANE_ANGLE_UNIT()SI_UNIT($,.RADIAN.)) ;
#44=(NAMED_UNIT(*)SI_UNIT($,.STERADIAN.)SOLID_ANGLE_UNIT()) ;
#46=(GEOMETRIC_REPRESENTATION_CONTEXT(3)GLOBAL_UNCERTAINTY_ASSIGNED_CONTEXT((#45))GLOBAL_UNIT_ASSIGNED_CONTEXT((#41,#42,#44))REPRESENTATION_CONTEXT(' ',' ')) ;
ENDSEC;
END-ISO-10303-21;
