ISO-10303-21;
HEADER;
FILE_DESCRIPTION(('CATIA V5 STEP Exchange'),'2;1');

FILE_NAME('C:\\Users\\alexi\\Documents\\scolaire\\IPSA\\AeroIpsa\\SP-02\\CATIA\\new_catia\\SP02_ALPHA\\SP02_ALPHA_AF\\STEP\\SP02_ALPHA_AF_BLOC_RONDELLE.stp','2025-11-18T15:28:24+00:00',('none'),('none'),'CATIA Version 5 Release 19 GA (IN-10)','CATIA V5 STEP AP203','none');

FILE_SCHEMA(('CONFIG_CONTROL_DESIGN'));

ENDSEC;
/* file written by CATIA V5R19 */
DATA;
#5=PRODUCT('SP02_ALPHA_AF_BLOC_RONDELLE','','',(#2)) ;
#1=APPLICATION_CONTEXT('configuration controlled 3D design of mechanical parts and assemblies') ;
#14=PRODUCT_DEFINITION('',' ',#6,#3) ;
#16=SECURITY_CLASSIFICATION(' ',' ',#15) ;
#15=SECURITY_CLASSIFICATION_LEVEL('unclassified') ;
#47=CARTESIAN_POINT(' ',(0.,0.,0.)) ;
#52=CARTESIAN_POINT('Axis2P3D Location',(0.,0.,2.5)) ;
#57=CARTESIAN_POINT('Line Origine',(16.,0.,2.5)) ;
#61=CARTESIAN_POINT('Vertex',(16.,0.,0.)) ;
#63=CARTESIAN_POINT('Vertex',(16.,0.,5.)) ;
#66=CARTESIAN_POINT('Axis2P3D Location',(0.,0.,0.)) ;
#70=CARTESIAN_POINT('Vertex',(-16.,1.95943487864E-015,0.)) ;
#73=CARTESIAN_POINT('Line Origine',(-16.,1.95943487864E-015,2.5)) ;
#77=CARTESIAN_POINT('Vertex',(-16.,1.95943487864E-015,5.)) ;
#80=CARTESIAN_POINT('Axis2P3D Location',(0.,0.,5.)) ;
#92=CARTESIAN_POINT('Axis2P3D Location',(0.,0.,0.)) ;
#97=CARTESIAN_POINT('Axis2P3D Location',(0.,0.,5.)) ;
#109=CARTESIAN_POINT('Axis2P3D Location',(10.3923048454,-6.,2.5)) ;
#114=CARTESIAN_POINT('Axis2P3D Location',(10.3923048454,-6.,5.)) ;
#118=CARTESIAN_POINT('Vertex',(8.39230484541,-6.,5.)) ;
#120=CARTESIAN_POINT('Vertex',(12.3923048454,-6.,5.)) ;
#123=CARTESIAN_POINT('Line Origine',(12.3923048454,-6.,2.5)) ;
#127=CARTESIAN_POINT('Vertex',(12.3923048454,-6.,0.)) ;
#130=CARTESIAN_POINT('Axis2P3D Location',(10.3923048454,-6.,0.)) ;
#134=CARTESIAN_POINT('Vertex',(8.39230484541,-6.,0.)) ;
#137=CARTESIAN_POINT('Line Origine',(8.39230484541,-6.,2.5)) ;
#149=CARTESIAN_POINT('Axis2P3D Location',(10.3923048454,-6.,5.)) ;
#154=CARTESIAN_POINT('Axis2P3D Location',(10.3923048454,-6.,0.)) ;
#166=CARTESIAN_POINT('Axis2P3D Location',(0.,12.,2.5)) ;
#171=CARTESIAN_POINT('Axis2P3D Location',(0.,12.,5.)) ;
#175=CARTESIAN_POINT('Vertex',(-2.,12.,5.)) ;
#177=CARTESIAN_POINT('Vertex',(2.,12.,5.)) ;
#180=CARTESIAN_POINT('Line Origine',(2.,12.,2.5)) ;
#184=CARTESIAN_POINT('Vertex',(2.,12.,0.)) ;
#187=CARTESIAN_POINT('Axis2P3D Location',(0.,12.,0.)) ;
#191=CARTESIAN_POINT('Vertex',(-2.,12.,0.)) ;
#194=CARTESIAN_POINT('Line Origine',(-2.,12.,2.5)) ;
#206=CARTESIAN_POINT('Axis2P3D Location',(0.,12.,5.)) ;
#211=CARTESIAN_POINT('Axis2P3D Location',(0.,12.,0.)) ;
#223=CARTESIAN_POINT('Axis2P3D Location',(-10.3923048454,-6.,2.5)) ;
#228=CARTESIAN_POINT('Axis2P3D Location',(-10.3923048454,-6.,5.)) ;
#232=CARTESIAN_POINT('Vertex',(-12.3923048454,-6.,5.)) ;
#234=CARTESIAN_POINT('Vertex',(-8.39230484541,-6.,5.)) ;
#237=CARTESIAN_POINT('Line Origine',(-8.39230484541,-6.,2.5)) ;
#241=CARTESIAN_POINT('Vertex',(-8.39230484541,-6.,0.)) ;
#244=CARTESIAN_POINT('Axis2P3D Location',(-10.3923048454,-6.,0.)) ;
#248=CARTESIAN_POINT('Vertex',(-12.3923048454,-6.,0.)) ;
#251=CARTESIAN_POINT('Line Origine',(-12.3923048454,-6.,2.5)) ;
#263=CARTESIAN_POINT('Axis2P3D Location',(-10.3923048454,-6.,5.)) ;
#268=CARTESIAN_POINT('Axis2P3D Location',(-10.3923048454,-6.,0.)) ;
#280=CARTESIAN_POINT('Axis2P3D Location',(4.94974746831,4.94974746831,2.5)) ;
#285=CARTESIAN_POINT('Axis2P3D Location',(4.94974746831,4.94974746831,5.)) ;
#289=CARTESIAN_POINT('Vertex',(3.44974746831,4.94974746831,5.)) ;
#291=CARTESIAN_POINT('Vertex',(6.44974746831,4.94974746831,5.)) ;
#294=CARTESIAN_POINT('Line Origine',(6.44974746831,4.94974746831,2.5)) ;
#298=CARTESIAN_POINT('Vertex',(6.44974746831,4.94974746831,0.)) ;
#301=CARTESIAN_POINT('Axis2P3D Location',(4.94974746831,4.94974746831,0.)) ;
#305=CARTESIAN_POINT('Vertex',(3.44974746831,4.94974746831,0.)) ;
#308=CARTESIAN_POINT('Line Origine',(3.44974746831,4.94974746831,2.5)) ;
#320=CARTESIAN_POINT('Axis2P3D Location',(4.94974746831,4.94974746831,5.)) ;
#325=CARTESIAN_POINT('Axis2P3D Location',(4.94974746831,4.94974746831,0.)) ;
#337=CARTESIAN_POINT('Axis2P3D Location',(-4.94974746831,4.94974746831,2.5)) ;
#342=CARTESIAN_POINT('Axis2P3D Location',(-4.94974746831,4.94974746831,5.)) ;
#346=CARTESIAN_POINT('Vertex',(-3.44974746831,4.94974746831,5.)) ;
#348=CARTESIAN_POINT('Vertex',(-6.44974746831,4.94974746831,5.)) ;
#351=CARTESIAN_POINT('Line Origine',(-6.44974746831,4.94974746831,2.5)) ;
#355=CARTESIAN_POINT('Vertex',(-6.44974746831,4.94974746831,0.)) ;
#358=CARTESIAN_POINT('Axis2P3D Location',(-4.94974746831,4.94974746831,0.)) ;
#362=CARTESIAN_POINT('Vertex',(-3.44974746831,4.94974746831,0.)) ;
#365=CARTESIAN_POINT('Line Origine',(-3.44974746831,4.94974746831,2.5)) ;
#377=CARTESIAN_POINT('Axis2P3D Location',(-4.94974746831,4.94974746831,5.)) ;
#382=CARTESIAN_POINT('Axis2P3D Location',(-4.94974746831,4.94974746831,0.)) ;
#394=CARTESIAN_POINT('Axis2P3D Location',(4.94974746831,-4.94974746831,2.5)) ;
#399=CARTESIAN_POINT('Axis2P3D Location',(4.94974746831,-4.94974746831,5.)) ;
#403=CARTESIAN_POINT('Vertex',(3.44974746831,-4.94974746831,5.)) ;
#405=CARTESIAN_POINT('Vertex',(6.44974746831,-4.94974746831,5.)) ;
#408=CARTESIAN_POINT('Line Origine',(6.44974746831,-4.94974746831,2.5)) ;
#412=CARTESIAN_POINT('Vertex',(6.44974746831,-4.94974746831,0.)) ;
#415=CARTESIAN_POINT('Axis2P3D Location',(4.94974746831,-4.94974746831,0.)) ;
#419=CARTESIAN_POINT('Vertex',(3.44974746831,-4.94974746831,0.)) ;
#422=CARTESIAN_POINT('Line Origine',(3.44974746831,-4.94974746831,2.5)) ;
#434=CARTESIAN_POINT('Axis2P3D Location',(4.94974746831,-4.94974746831,5.)) ;
#439=CARTESIAN_POINT('Axis2P3D Location',(4.94974746831,-4.94974746831,0.)) ;
#451=CARTESIAN_POINT('Axis2P3D Location',(-4.94974746831,-4.94974746831,2.5)) ;
#456=CARTESIAN_POINT('Axis2P3D Location',(-4.94974746831,-4.94974746831,5.)) ;
#460=CARTESIAN_POINT('Vertex',(-3.44974746831,-4.94974746831,5.)) ;
#462=CARTESIAN_POINT('Vertex',(-6.44974746831,-4.94974746831,5.)) ;
#465=CARTESIAN_POINT('Line Origine',(-6.44974746831,-4.94974746831,2.5)) ;
#469=CARTESIAN_POINT('Vertex',(-6.44974746831,-4.94974746831,0.)) ;
#472=CARTESIAN_POINT('Axis2P3D Location',(-4.94974746831,-4.94974746831,0.)) ;
#476=CARTESIAN_POINT('Vertex',(-3.44974746831,-4.94974746831,0.)) ;
#479=CARTESIAN_POINT('Line Origine',(-3.44974746831,-4.94974746831,2.5)) ;
#491=CARTESIAN_POINT('Axis2P3D Location',(-4.94974746831,-4.94974746831,5.)) ;
#496=CARTESIAN_POINT('Axis2P3D Location',(-4.94974746831,-4.94974746831,0.)) ;
#508=CARTESIAN_POINT('Axis2P3D Location',(0.,0.,0.)) ;
#546=CARTESIAN_POINT('Axis2P3D Location',(0.,0.,5.)) ;
#53=DIRECTION('Axis2P3D Direction',(0.,0.,1.)) ;
#54=DIRECTION('Axis2P3D XDirection',(1.,0.,0.)) ;
#58=DIRECTION('Vector Direction',(0.,0.,1.)) ;
#67=DIRECTION('Axis2P3D Direction',(0.,0.,1.)) ;
#74=DIRECTION('Vector Direction',(0.,0.,1.)) ;
#81=DIRECTION('Axis2P3D Direction',(0.,0.,1.)) ;
#93=DIRECTION('Axis2P3D Direction',(0.,0.,1.)) ;
#98=DIRECTION('Axis2P3D Direction',(0.,0.,1.)) ;
#110=DIRECTION('Axis2P3D Direction',(0.,0.,1.)) ;
#111=DIRECTION('Axis2P3D XDirection',(1.,0.,0.)) ;
#115=DIRECTION('Axis2P3D Direction',(0.,0.,1.)) ;
#124=DIRECTION('Vector Direction',(0.,0.,1.)) ;
#131=DIRECTION('Axis2P3D Direction',(0.,0.,1.)) ;
#138=DIRECTION('Vector Direction',(0.,0.,1.)) ;
#150=DIRECTION('Axis2P3D Direction',(0.,0.,1.)) ;
#155=DIRECTION('Axis2P3D Direction',(0.,0.,1.)) ;
#167=DIRECTION('Axis2P3D Direction',(0.,0.,1.)) ;
#168=DIRECTION('Axis2P3D XDirection',(1.,0.,0.)) ;
#172=DIRECTION('Axis2P3D Direction',(0.,0.,1.)) ;
#181=DIRECTION('Vector Direction',(0.,0.,1.)) ;
#188=DIRECTION('Axis2P3D Direction',(0.,0.,1.)) ;
#195=DIRECTION('Vector Direction',(0.,0.,1.)) ;
#207=DIRECTION('Axis2P3D Direction',(0.,0.,1.)) ;
#212=DIRECTION('Axis2P3D Direction',(0.,0.,1.)) ;
#224=DIRECTION('Axis2P3D Direction',(0.,0.,1.)) ;
#225=DIRECTION('Axis2P3D XDirection',(1.,0.,0.)) ;
#229=DIRECTION('Axis2P3D Direction',(0.,0.,1.)) ;
#238=DIRECTION('Vector Direction',(0.,0.,1.)) ;
#245=DIRECTION('Axis2P3D Direction',(0.,0.,1.)) ;
#252=DIRECTION('Vector Direction',(0.,0.,1.)) ;
#264=DIRECTION('Axis2P3D Direction',(0.,0.,1.)) ;
#269=DIRECTION('Axis2P3D Direction',(0.,0.,1.)) ;
#281=DIRECTION('Axis2P3D Direction',(0.,0.,1.)) ;
#282=DIRECTION('Axis2P3D XDirection',(1.,0.,0.)) ;
#286=DIRECTION('Axis2P3D Direction',(0.,0.,1.)) ;
#295=DIRECTION('Vector Direction',(0.,0.,1.)) ;
#302=DIRECTION('Axis2P3D Direction',(0.,0.,1.)) ;
#309=DIRECTION('Vector Direction',(0.,0.,1.)) ;
#321=DIRECTION('Axis2P3D Direction',(0.,0.,1.)) ;
#326=DIRECTION('Axis2P3D Direction',(0.,0.,1.)) ;
#338=DIRECTION('Axis2P3D Direction',(0.,0.,1.)) ;
#339=DIRECTION('Axis2P3D XDirection',(-1.,1.22464679915E-016,0.)) ;
#343=DIRECTION('Axis2P3D Direction',(0.,0.,1.)) ;
#352=DIRECTION('Vector Direction',(0.,0.,1.)) ;
#359=DIRECTION('Axis2P3D Direction',(0.,0.,1.)) ;
#366=DIRECTION('Vector Direction',(0.,0.,1.)) ;
#378=DIRECTION('Axis2P3D Direction',(0.,0.,1.)) ;
#383=DIRECTION('Axis2P3D Direction',(0.,0.,1.)) ;
#395=DIRECTION('Axis2P3D Direction',(0.,0.,1.)) ;
#396=DIRECTION('Axis2P3D XDirection',(1.,0.,0.)) ;
#400=DIRECTION('Axis2P3D Direction',(0.,0.,1.)) ;
#409=DIRECTION('Vector Direction',(0.,0.,1.)) ;
#416=DIRECTION('Axis2P3D Direction',(0.,0.,1.)) ;
#423=DIRECTION('Vector Direction',(0.,0.,1.)) ;
#435=DIRECTION('Axis2P3D Direction',(0.,0.,1.)) ;
#440=DIRECTION('Axis2P3D Direction',(0.,0.,1.)) ;
#452=DIRECTION('Axis2P3D Direction',(0.,0.,1.)) ;
#453=DIRECTION('Axis2P3D XDirection',(-1.,1.22464679915E-016,0.)) ;
#457=DIRECTION('Axis2P3D Direction',(0.,0.,1.)) ;
#466=DIRECTION('Vector Direction',(0.,0.,1.)) ;
#473=DIRECTION('Axis2P3D Direction',(0.,0.,1.)) ;
#480=DIRECTION('Vector Direction',(0.,0.,1.)) ;
#492=DIRECTION('Axis2P3D Direction',(0.,0.,1.)) ;
#497=DIRECTION('Axis2P3D Direction',(0.,0.,1.)) ;
#509=DIRECTION('Axis2P3D Direction',(0.,0.,1.)) ;
#510=DIRECTION('Axis2P3D XDirection',(1.,0.,0.)) ;
#547=DIRECTION('Axis2P3D Direction',(0.,0.,1.)) ;
#548=DIRECTION('Axis2P3D XDirection',(1.,0.,0.)) ;
#48=AXIS2_PLACEMENT_3D(' ',#47,$,$) ;
#55=AXIS2_PLACEMENT_3D('Cylinder Axis2P3D',#52,#53,#54) ;
#68=AXIS2_PLACEMENT_3D('Circle Axis2P3D',#66,#67,$) ;
#82=AXIS2_PLACEMENT_3D('Circle Axis2P3D',#80,#81,$) ;
#94=AXIS2_PLACEMENT_3D('Circle Axis2P3D',#92,#93,$) ;
#99=AXIS2_PLACEMENT_3D('Circle Axis2P3D',#97,#98,$) ;
#112=AXIS2_PLACEMENT_3D('Cylinder Axis2P3D',#109,#110,#111) ;
#116=AXIS2_PLACEMENT_3D('Circle Axis2P3D',#114,#115,$) ;
#132=AXIS2_PLACEMENT_3D('Circle Axis2P3D',#130,#131,$) ;
#151=AXIS2_PLACEMENT_3D('Circle Axis2P3D',#149,#150,$) ;
#156=AXIS2_PLACEMENT_3D('Circle Axis2P3D',#154,#155,$) ;
#169=AXIS2_PLACEMENT_3D('Cylinder Axis2P3D',#166,#167,#168) ;
#173=AXIS2_PLACEMENT_3D('Circle Axis2P3D',#171,#172,$) ;
#189=AXIS2_PLACEMENT_3D('Circle Axis2P3D',#187,#188,$) ;
#208=AXIS2_PLACEMENT_3D('Circle Axis2P3D',#206,#207,$) ;
#213=AXIS2_PLACEMENT_3D('Circle Axis2P3D',#211,#212,$) ;
#226=AXIS2_PLACEMENT_3D('Cylinder Axis2P3D',#223,#224,#225) ;
#230=AXIS2_PLACEMENT_3D('Circle Axis2P3D',#228,#229,$) ;
#246=AXIS2_PLACEMENT_3D('Circle Axis2P3D',#244,#245,$) ;
#265=AXIS2_PLACEMENT_3D('Circle Axis2P3D',#263,#264,$) ;
#270=AXIS2_PLACEMENT_3D('Circle Axis2P3D',#268,#269,$) ;
#283=AXIS2_PLACEMENT_3D('Cylinder Axis2P3D',#280,#281,#282) ;
#287=AXIS2_PLACEMENT_3D('Circle Axis2P3D',#285,#286,$) ;
#303=AXIS2_PLACEMENT_3D('Circle Axis2P3D',#301,#302,$) ;
#322=AXIS2_PLACEMENT_3D('Circle Axis2P3D',#320,#321,$) ;
#327=AXIS2_PLACEMENT_3D('Circle Axis2P3D',#325,#326,$) ;
#340=AXIS2_PLACEMENT_3D('Cylinder Axis2P3D',#337,#338,#339) ;
#344=AXIS2_PLACEMENT_3D('Circle Axis2P3D',#342,#343,$) ;
#360=AXIS2_PLACEMENT_3D('Circle Axis2P3D',#358,#359,$) ;
#379=AXIS2_PLACEMENT_3D('Circle Axis2P3D',#377,#378,$) ;
#384=AXIS2_PLACEMENT_3D('Circle Axis2P3D',#382,#383,$) ;
#397=AXIS2_PLACEMENT_3D('Cylinder Axis2P3D',#394,#395,#396) ;
#401=AXIS2_PLACEMENT_3D('Circle Axis2P3D',#399,#400,$) ;
#417=AXIS2_PLACEMENT_3D('Circle Axis2P3D',#415,#416,$) ;
#436=AXIS2_PLACEMENT_3D('Circle Axis2P3D',#434,#435,$) ;
#441=AXIS2_PLACEMENT_3D('Circle Axis2P3D',#439,#440,$) ;
#454=AXIS2_PLACEMENT_3D('Cylinder Axis2P3D',#451,#452,#453) ;
#458=AXIS2_PLACEMENT_3D('Circle Axis2P3D',#456,#457,$) ;
#474=AXIS2_PLACEMENT_3D('Circle Axis2P3D',#472,#473,$) ;
#493=AXIS2_PLACEMENT_3D('Circle Axis2P3D',#491,#492,$) ;
#498=AXIS2_PLACEMENT_3D('Circle Axis2P3D',#496,#497,$) ;
#511=AXIS2_PLACEMENT_3D('Plane Axis2P3D',#508,#509,#510) ;
#549=AXIS2_PLACEMENT_3D('Plane Axis2P3D',#546,#547,#548) ;
#40=PRODUCT_DEFINITION_SHAPE(' ',' ',#14) ;
#31=APPROVAL_PERSON_ORGANIZATION(#25,#21,#19) ;
#25=PERSON_AND_ORGANIZATION(#22,#23) ;
#22=PERSON(' ',' ',' ',$,$,$) ;
#23=ORGANIZATION(' ',' ',' ') ;
#21=APPROVAL(#20,' ') ;
#20=APPROVAL_STATUS('not_yet_approved') ;
#19=APPROVAL_ROLE('APPROVER') ;
#13=DATE_AND_TIME(#11,#12) ;
#12=LOCAL_TIME(16,28,24.,#10) ;
#10=COORDINATED_UNIVERSAL_TIME_OFFSET(0,0,.AHEAD.) ;
#86=ORIENTED_EDGE('',*,*,#65,.F.) ;
#87=ORIENTED_EDGE('',*,*,#72,.T.) ;
#88=ORIENTED_EDGE('',*,*,#79,.T.) ;
#89=ORIENTED_EDGE('',*,*,#84,.F.) ;
#103=ORIENTED_EDGE('',*,*,#79,.F.) ;
#104=ORIENTED_EDGE('',*,*,#96,.T.) ;
#105=ORIENTED_EDGE('',*,*,#65,.T.) ;
#106=ORIENTED_EDGE('',*,*,#101,.F.) ;
#143=ORIENTED_EDGE('',*,*,#122,.T.) ;
#144=ORIENTED_EDGE('',*,*,#129,.F.) ;
#145=ORIENTED_EDGE('',*,*,#136,.F.) ;
#146=ORIENTED_EDGE('',*,*,#141,.T.) ;
#160=ORIENTED_EDGE('',*,*,#153,.T.) ;
#161=ORIENTED_EDGE('',*,*,#141,.F.) ;
#162=ORIENTED_EDGE('',*,*,#158,.F.) ;
#163=ORIENTED_EDGE('',*,*,#129,.T.) ;
#200=ORIENTED_EDGE('',*,*,#179,.T.) ;
#201=ORIENTED_EDGE('',*,*,#186,.F.) ;
#202=ORIENTED_EDGE('',*,*,#193,.F.) ;
#203=ORIENTED_EDGE('',*,*,#198,.T.) ;
#217=ORIENTED_EDGE('',*,*,#210,.T.) ;
#218=ORIENTED_EDGE('',*,*,#198,.F.) ;
#219=ORIENTED_EDGE('',*,*,#215,.F.) ;
#220=ORIENTED_EDGE('',*,*,#186,.T.) ;
#257=ORIENTED_EDGE('',*,*,#236,.T.) ;
#258=ORIENTED_EDGE('',*,*,#243,.F.) ;
#259=ORIENTED_EDGE('',*,*,#250,.F.) ;
#260=ORIENTED_EDGE('',*,*,#255,.T.) ;
#274=ORIENTED_EDGE('',*,*,#267,.T.) ;
#275=ORIENTED_EDGE('',*,*,#255,.F.) ;
#276=ORIENTED_EDGE('',*,*,#272,.F.) ;
#277=ORIENTED_EDGE('',*,*,#243,.T.) ;
#314=ORIENTED_EDGE('',*,*,#293,.T.) ;
#315=ORIENTED_EDGE('',*,*,#300,.F.) ;
#316=ORIENTED_EDGE('',*,*,#307,.F.) ;
#317=ORIENTED_EDGE('',*,*,#312,.T.) ;
#331=ORIENTED_EDGE('',*,*,#324,.T.) ;
#332=ORIENTED_EDGE('',*,*,#312,.F.) ;
#333=ORIENTED_EDGE('',*,*,#329,.F.) ;
#334=ORIENTED_EDGE('',*,*,#300,.T.) ;
#371=ORIENTED_EDGE('',*,*,#350,.T.) ;
#372=ORIENTED_EDGE('',*,*,#357,.F.) ;
#373=ORIENTED_EDGE('',*,*,#364,.F.) ;
#374=ORIENTED_EDGE('',*,*,#369,.T.) ;
#388=ORIENTED_EDGE('',*,*,#381,.T.) ;
#389=ORIENTED_EDGE('',*,*,#369,.F.) ;
#390=ORIENTED_EDGE('',*,*,#386,.F.) ;
#391=ORIENTED_EDGE('',*,*,#357,.T.) ;
#428=ORIENTED_EDGE('',*,*,#407,.T.) ;
#429=ORIENTED_EDGE('',*,*,#414,.F.) ;
#430=ORIENTED_EDGE('',*,*,#421,.F.) ;
#431=ORIENTED_EDGE('',*,*,#426,.T.) ;
#445=ORIENTED_EDGE('',*,*,#438,.T.) ;
#446=ORIENTED_EDGE('',*,*,#426,.F.) ;
#447=ORIENTED_EDGE('',*,*,#443,.F.) ;
#448=ORIENTED_EDGE('',*,*,#414,.T.) ;
#485=ORIENTED_EDGE('',*,*,#464,.T.) ;
#486=ORIENTED_EDGE('',*,*,#471,.F.) ;
#487=ORIENTED_EDGE('',*,*,#478,.F.) ;
#488=ORIENTED_EDGE('',*,*,#483,.T.) ;
#502=ORIENTED_EDGE('',*,*,#495,.T.) ;
#503=ORIENTED_EDGE('',*,*,#483,.F.) ;
#504=ORIENTED_EDGE('',*,*,#500,.F.) ;
#505=ORIENTED_EDGE('',*,*,#471,.T.) ;
#514=ORIENTED_EDGE('',*,*,#96,.F.) ;
#515=ORIENTED_EDGE('',*,*,#72,.F.) ;
#518=ORIENTED_EDGE('',*,*,#158,.T.) ;
#519=ORIENTED_EDGE('',*,*,#136,.T.) ;
#522=ORIENTED_EDGE('',*,*,#215,.T.) ;
#523=ORIENTED_EDGE('',*,*,#193,.T.) ;
#526=ORIENTED_EDGE('',*,*,#272,.T.) ;
#527=ORIENTED_EDGE('',*,*,#250,.T.) ;
#530=ORIENTED_EDGE('',*,*,#329,.T.) ;
#531=ORIENTED_EDGE('',*,*,#307,.T.) ;
#534=ORIENTED_EDGE('',*,*,#386,.T.) ;
#535=ORIENTED_EDGE('',*,*,#364,.T.) ;
#538=ORIENTED_EDGE('',*,*,#443,.T.) ;
#539=ORIENTED_EDGE('',*,*,#421,.T.) ;
#542=ORIENTED_EDGE('',*,*,#500,.T.) ;
#543=ORIENTED_EDGE('',*,*,#478,.T.) ;
#552=ORIENTED_EDGE('',*,*,#84,.T.) ;
#553=ORIENTED_EDGE('',*,*,#101,.T.) ;
#556=ORIENTED_EDGE('',*,*,#122,.F.) ;
#557=ORIENTED_EDGE('',*,*,#153,.F.) ;
#560=ORIENTED_EDGE('',*,*,#179,.F.) ;
#561=ORIENTED_EDGE('',*,*,#210,.F.) ;
#564=ORIENTED_EDGE('',*,*,#236,.F.) ;
#565=ORIENTED_EDGE('',*,*,#267,.F.) ;
#568=ORIENTED_EDGE('',*,*,#293,.F.) ;
#569=ORIENTED_EDGE('',*,*,#324,.F.) ;
#572=ORIENTED_EDGE('',*,*,#350,.F.) ;
#573=ORIENTED_EDGE('',*,*,#381,.F.) ;
#576=ORIENTED_EDGE('',*,*,#407,.F.) ;
#577=ORIENTED_EDGE('',*,*,#438,.F.) ;
#580=ORIENTED_EDGE('',*,*,#464,.F.) ;
#581=ORIENTED_EDGE('',*,*,#495,.F.) ;
#520=FACE_BOUND('',#517,.T.) ;
#524=FACE_BOUND('',#521,.T.) ;
#528=FACE_BOUND('',#525,.T.) ;
#532=FACE_BOUND('',#529,.T.) ;
#536=FACE_BOUND('',#533,.T.) ;
#540=FACE_BOUND('',#537,.T.) ;
#544=FACE_BOUND('',#541,.T.) ;
#558=FACE_BOUND('',#555,.T.) ;
#562=FACE_BOUND('',#559,.T.) ;
#566=FACE_BOUND('',#563,.T.) ;
#570=FACE_BOUND('',#567,.T.) ;
#574=FACE_BOUND('',#571,.T.) ;
#578=FACE_BOUND('',#575,.T.) ;
#582=FACE_BOUND('',#579,.T.) ;
#51=CLOSED_SHELL('Closed Shell',(#91,#108,#148,#165,#205,#222,#262,#279,#319,#336,#376,#393,#433,#450,#490,#507,#545,#583)) ;
#59=VECTOR('Line Direction',#58,1.) ;
#75=VECTOR('Line Direction',#74,1.) ;
#125=VECTOR('Line Direction',#124,1.) ;
#139=VECTOR('Line Direction',#138,1.) ;
#182=VECTOR('Line Direction',#181,1.) ;
#196=VECTOR('Line Direction',#195,1.) ;
#239=VECTOR('Line Direction',#238,1.) ;
#253=VECTOR('Line Direction',#252,1.) ;
#296=VECTOR('Line Direction',#295,1.) ;
#310=VECTOR('Line Direction',#309,1.) ;
#353=VECTOR('Line Direction',#352,1.) ;
#367=VECTOR('Line Direction',#366,1.) ;
#410=VECTOR('Line Direction',#409,1.) ;
#424=VECTOR('Line Direction',#423,1.) ;
#467=VECTOR('Line Direction',#466,1.) ;
#481=VECTOR('Line Direction',#480,1.) ;
#585=ADVANCED_BREP_SHAPE_REPRESENTATION('NONE',(#584),#46) ;
#49=SHAPE_REPRESENTATION(' ',(#48),#46) ;
#91=ADVANCED_FACE('Corps principal',(#90),#56,.T.) ;
#108=ADVANCED_FACE('Corps principal',(#107),#56,.T.) ;
#148=ADVANCED_FACE('Corps principal',(#147),#113,.F.) ;
#165=ADVANCED_FACE('Corps principal',(#164),#113,.F.) ;
#205=ADVANCED_FACE('Corps principal',(#204),#170,.F.) ;
#222=ADVANCED_FACE('Corps principal',(#221),#170,.F.) ;
#262=ADVANCED_FACE('Corps principal',(#261),#227,.F.) ;
#279=ADVANCED_FACE('Corps principal',(#278),#227,.F.) ;
#319=ADVANCED_FACE('Corps principal',(#318),#284,.F.) ;
#336=ADVANCED_FACE('Corps principal',(#335),#284,.F.) ;
#376=ADVANCED_FACE('Corps principal',(#375),#341,.F.) ;
#393=ADVANCED_FACE('Corps principal',(#392),#341,.F.) ;
#433=ADVANCED_FACE('Corps principal',(#432),#398,.F.) ;
#450=ADVANCED_FACE('Corps principal',(#449),#398,.F.) ;
#490=ADVANCED_FACE('Corps principal',(#489),#455,.F.) ;
#507=ADVANCED_FACE('Corps principal',(#506),#455,.F.) ;
#545=ADVANCED_FACE('Corps principal',(#516,#520,#524,#528,#532,#536,#540,#544),#512,.F.) ;
#583=ADVANCED_FACE('Corps principal',(#554,#558,#562,#566,#570,#574,#578,#582),#550,.T.) ;
#4=APPLICATION_PROTOCOL_DEFINITION('international standard','config_control_design',1994,#1) ;
#32=APPROVAL_DATE_TIME(#13,#21) ;
#584=MANIFOLD_SOLID_BREP('Corps principal',#51) ;
#11=CALENDAR_DATE(2025,18,11) ;
#30=CC_DESIGN_APPROVAL(#21,(#16,#6,#14)) ;
#18=CC_DESIGN_DATE_AND_TIME_ASSIGNMENT(#13,#17,(#16)) ;
#29=CC_DESIGN_DATE_AND_TIME_ASSIGNMENT(#13,#28,(#14)) ;
#17=DATE_TIME_ROLE('classification_date') ;
#28=DATE_TIME_ROLE('creation_date') ;
#27=CC_DESIGN_PERSON_AND_ORGANIZATION_ASSIGNMENT(#25,#26,(#16)) ;
#33=CC_DESIGN_PERSON_AND_ORGANIZATION_ASSIGNMENT(#25,#34,(#6)) ;
#35=CC_DESIGN_PERSON_AND_ORGANIZATION_ASSIGNMENT(#25,#36,(#6,#14)) ;
#37=CC_DESIGN_PERSON_AND_ORGANIZATION_ASSIGNMENT(#25,#38,(#5)) ;
#26=PERSON_AND_ORGANIZATION_ROLE('classification_officer') ;
#34=PERSON_AND_ORGANIZATION_ROLE('design_supplier') ;
#36=PERSON_AND_ORGANIZATION_ROLE('creator') ;
#38=PERSON_AND_ORGANIZATION_ROLE('design_owner') ;
#39=CC_DESIGN_SECURITY_CLASSIFICATION(#16,(#6)) ;
#69=CIRCLE('generated circle',#68,16.) ;
#83=CIRCLE('generated circle',#82,16.) ;
#95=CIRCLE('generated circle',#94,16.) ;
#100=CIRCLE('generated circle',#99,16.) ;
#117=CIRCLE('generated circle',#116,2.) ;
#133=CIRCLE('generated circle',#132,2.) ;
#152=CIRCLE('generated circle',#151,2.) ;
#157=CIRCLE('generated circle',#156,2.) ;
#174=CIRCLE('generated circle',#173,2.) ;
#190=CIRCLE('generated circle',#189,2.) ;
#209=CIRCLE('generated circle',#208,2.) ;
#214=CIRCLE('generated circle',#213,2.) ;
#231=CIRCLE('generated circle',#230,2.) ;
#247=CIRCLE('generated circle',#246,2.) ;
#266=CIRCLE('generated circle',#265,2.) ;
#271=CIRCLE('generated circle',#270,2.) ;
#288=CIRCLE('generated circle',#287,1.5) ;
#304=CIRCLE('generated circle',#303,1.5) ;
#323=CIRCLE('generated circle',#322,1.5) ;
#328=CIRCLE('generated circle',#327,1.5) ;
#345=CIRCLE('generated circle',#344,1.5) ;
#361=CIRCLE('generated circle',#360,1.5) ;
#380=CIRCLE('generated circle',#379,1.5) ;
#385=CIRCLE('generated circle',#384,1.5) ;
#402=CIRCLE('generated circle',#401,1.5) ;
#418=CIRCLE('generated circle',#417,1.5) ;
#437=CIRCLE('generated circle',#436,1.5) ;
#442=CIRCLE('generated circle',#441,1.5) ;
#459=CIRCLE('generated circle',#458,1.5) ;
#475=CIRCLE('generated circle',#474,1.5) ;
#494=CIRCLE('generated circle',#493,1.5) ;
#499=CIRCLE('generated circle',#498,1.5) ;
#586=SHAPE_REPRESENTATION_RELATIONSHIP(' ',' ',#49,#585) ;
#56=CYLINDRICAL_SURFACE('generated cylinder',#55,16.) ;
#113=CYLINDRICAL_SURFACE('generated cylinder',#112,2.) ;
#170=CYLINDRICAL_SURFACE('generated cylinder',#169,2.) ;
#227=CYLINDRICAL_SURFACE('generated cylinder',#226,2.) ;
#284=CYLINDRICAL_SURFACE('generated cylinder',#283,1.5) ;
#341=CYLINDRICAL_SURFACE('generated cylinder',#340,1.5) ;
#398=CYLINDRICAL_SURFACE('generated cylinder',#397,1.5) ;
#455=CYLINDRICAL_SURFACE('generated cylinder',#454,1.5) ;
#3=DESIGN_CONTEXT(' ',#1,'design') ;
#65=EDGE_CURVE('',#62,#64,#60,.T.) ;
#72=EDGE_CURVE('',#62,#71,#69,.T.) ;
#79=EDGE_CURVE('',#71,#78,#76,.T.) ;
#84=EDGE_CURVE('',#64,#78,#83,.T.) ;
#96=EDGE_CURVE('',#71,#62,#95,.T.) ;
#101=EDGE_CURVE('',#78,#64,#100,.T.) ;
#122=EDGE_CURVE('',#119,#121,#117,.T.) ;
#129=EDGE_CURVE('',#128,#121,#126,.T.) ;
#136=EDGE_CURVE('',#135,#128,#133,.T.) ;
#141=EDGE_CURVE('',#135,#119,#140,.T.) ;
#153=EDGE_CURVE('',#121,#119,#152,.T.) ;
#158=EDGE_CURVE('',#128,#135,#157,.T.) ;
#179=EDGE_CURVE('',#176,#178,#174,.T.) ;
#186=EDGE_CURVE('',#185,#178,#183,.T.) ;
#193=EDGE_CURVE('',#192,#185,#190,.T.) ;
#198=EDGE_CURVE('',#192,#176,#197,.T.) ;
#210=EDGE_CURVE('',#178,#176,#209,.T.) ;
#215=EDGE_CURVE('',#185,#192,#214,.T.) ;
#236=EDGE_CURVE('',#233,#235,#231,.T.) ;
#243=EDGE_CURVE('',#242,#235,#240,.T.) ;
#250=EDGE_CURVE('',#249,#242,#247,.T.) ;
#255=EDGE_CURVE('',#249,#233,#254,.T.) ;
#267=EDGE_CURVE('',#235,#233,#266,.T.) ;
#272=EDGE_CURVE('',#242,#249,#271,.T.) ;
#293=EDGE_CURVE('',#290,#292,#288,.T.) ;
#300=EDGE_CURVE('',#299,#292,#297,.T.) ;
#307=EDGE_CURVE('',#306,#299,#304,.T.) ;
#312=EDGE_CURVE('',#306,#290,#311,.T.) ;
#324=EDGE_CURVE('',#292,#290,#323,.T.) ;
#329=EDGE_CURVE('',#299,#306,#328,.T.) ;
#350=EDGE_CURVE('',#347,#349,#345,.T.) ;
#357=EDGE_CURVE('',#356,#349,#354,.T.) ;
#364=EDGE_CURVE('',#363,#356,#361,.T.) ;
#369=EDGE_CURVE('',#363,#347,#368,.T.) ;
#381=EDGE_CURVE('',#349,#347,#380,.T.) ;
#386=EDGE_CURVE('',#356,#363,#385,.T.) ;
#407=EDGE_CURVE('',#404,#406,#402,.T.) ;
#414=EDGE_CURVE('',#413,#406,#411,.T.) ;
#421=EDGE_CURVE('',#420,#413,#418,.T.) ;
#426=EDGE_CURVE('',#420,#404,#425,.T.) ;
#438=EDGE_CURVE('',#406,#404,#437,.T.) ;
#443=EDGE_CURVE('',#413,#420,#442,.T.) ;
#464=EDGE_CURVE('',#461,#463,#459,.T.) ;
#471=EDGE_CURVE('',#470,#463,#468,.T.) ;
#478=EDGE_CURVE('',#477,#470,#475,.T.) ;
#483=EDGE_CURVE('',#477,#461,#482,.T.) ;
#495=EDGE_CURVE('',#463,#461,#494,.T.) ;
#500=EDGE_CURVE('',#470,#477,#499,.T.) ;
#85=EDGE_LOOP('',(#86,#87,#88,#89)) ;
#102=EDGE_LOOP('',(#103,#104,#105,#106)) ;
#142=EDGE_LOOP('',(#143,#144,#145,#146)) ;
#159=EDGE_LOOP('',(#160,#161,#162,#163)) ;
#199=EDGE_LOOP('',(#200,#201,#202,#203)) ;
#216=EDGE_LOOP('',(#217,#218,#219,#220)) ;
#256=EDGE_LOOP('',(#257,#258,#259,#260)) ;
#273=EDGE_LOOP('',(#274,#275,#276,#277)) ;
#313=EDGE_LOOP('',(#314,#315,#316,#317)) ;
#330=EDGE_LOOP('',(#331,#332,#333,#334)) ;
#370=EDGE_LOOP('',(#371,#372,#373,#374)) ;
#387=EDGE_LOOP('',(#388,#389,#390,#391)) ;
#427=EDGE_LOOP('',(#428,#429,#430,#431)) ;
#444=EDGE_LOOP('',(#445,#446,#447,#448)) ;
#484=EDGE_LOOP('',(#485,#486,#487,#488)) ;
#501=EDGE_LOOP('',(#502,#503,#504,#505)) ;
#513=EDGE_LOOP('',(#514,#515)) ;
#517=EDGE_LOOP('',(#518,#519)) ;
#521=EDGE_LOOP('',(#522,#523)) ;
#525=EDGE_LOOP('',(#526,#527)) ;
#529=EDGE_LOOP('',(#530,#531)) ;
#533=EDGE_LOOP('',(#534,#535)) ;
#537=EDGE_LOOP('',(#538,#539)) ;
#541=EDGE_LOOP('',(#542,#543)) ;
#551=EDGE_LOOP('',(#552,#553)) ;
#555=EDGE_LOOP('',(#556,#557)) ;
#559=EDGE_LOOP('',(#560,#561)) ;
#563=EDGE_LOOP('',(#564,#565)) ;
#567=EDGE_LOOP('',(#568,#569)) ;
#571=EDGE_LOOP('',(#572,#573)) ;
#575=EDGE_LOOP('',(#576,#577)) ;
#579=EDGE_LOOP('',(#580,#581)) ;
#90=FACE_OUTER_BOUND('',#85,.T.) ;
#107=FACE_OUTER_BOUND('',#102,.T.) ;
#147=FACE_OUTER_BOUND('',#142,.T.) ;
#164=FACE_OUTER_BOUND('',#159,.T.) ;
#204=FACE_OUTER_BOUND('',#199,.T.) ;
#221=FACE_OUTER_BOUND('',#216,.T.) ;
#261=FACE_OUTER_BOUND('',#256,.T.) ;
#278=FACE_OUTER_BOUND('',#273,.T.) ;
#318=FACE_OUTER_BOUND('',#313,.T.) ;
#335=FACE_OUTER_BOUND('',#330,.T.) ;
#375=FACE_OUTER_BOUND('',#370,.T.) ;
#392=FACE_OUTER_BOUND('',#387,.T.) ;
#432=FACE_OUTER_BOUND('',#427,.T.) ;
#449=FACE_OUTER_BOUND('',#444,.T.) ;
#489=FACE_OUTER_BOUND('',#484,.T.) ;
#506=FACE_OUTER_BOUND('',#501,.T.) ;
#516=FACE_OUTER_BOUND('',#513,.T.) ;
#554=FACE_OUTER_BOUND('',#551,.T.) ;
#45=UNCERTAINTY_MEASURE_WITH_UNIT(LENGTH_MEASURE(0.005),#41,'distance_accuracy_value','CONFUSED CURVE UNCERTAINTY') ;
#60=LINE('Line',#57,#59) ;
#76=LINE('Line',#73,#75) ;
#126=LINE('Line',#123,#125) ;
#140=LINE('Line',#137,#139) ;
#183=LINE('Line',#180,#182) ;
#197=LINE('Line',#194,#196) ;
#240=LINE('Line',#237,#239) ;
#254=LINE('Line',#251,#253) ;
#297=LINE('Line',#294,#296) ;
#311=LINE('Line',#308,#310) ;
#354=LINE('Line',#351,#353) ;
#368=LINE('Line',#365,#367) ;
#411=LINE('Line',#408,#410) ;
#425=LINE('Line',#422,#424) ;
#468=LINE('Line',#465,#467) ;
#482=LINE('Line',#479,#481) ;
#2=MECHANICAL_CONTEXT(' ',#1,'mechanical') ;
#24=PERSONAL_ADDRESS(' ',' ',' ',' ',' ',' ',' ',' ',' ',' ',' ',' ',(#22),' ') ;
#512=PLANE('Plane',#511) ;
#550=PLANE('Plane',#549) ;
#43=PLANE_ANGLE_MEASURE_WITH_UNIT(PLANE_ANGLE_MEASURE(0.0174532925199),#42) ;
#7=PRODUCT_CATEGORY('part',$) ;
#9=PRODUCT_CATEGORY_RELATIONSHIP(' ',' ',#7,#8) ;
#6=PRODUCT_DEFINITION_FORMATION_WITH_SPECIFIED_SOURCE('',' ',#5,.NOT_KNOWN.) ;
#8=PRODUCT_RELATED_PRODUCT_CATEGORY('detail',$,(#5)) ;
#50=SHAPE_DEFINITION_REPRESENTATION(#40,#49) ;
#62=VERTEX_POINT('',#61) ;
#64=VERTEX_POINT('',#63) ;
#71=VERTEX_POINT('',#70) ;
#78=VERTEX_POINT('',#77) ;
#119=VERTEX_POINT('',#118) ;
#121=VERTEX_POINT('',#120) ;
#128=VERTEX_POINT('',#127) ;
#135=VERTEX_POINT('',#134) ;
#176=VERTEX_POINT('',#175) ;
#178=VERTEX_POINT('',#177) ;
#185=VERTEX_POINT('',#184) ;
#192=VERTEX_POINT('',#191) ;
#233=VERTEX_POINT('',#232) ;
#235=VERTEX_POINT('',#234) ;
#242=VERTEX_POINT('',#241) ;
#249=VERTEX_POINT('',#248) ;
#290=VERTEX_POINT('',#289) ;
#292=VERTEX_POINT('',#291) ;
#299=VERTEX_POINT('',#298) ;
#306=VERTEX_POINT('',#305) ;
#347=VERTEX_POINT('',#346) ;
#349=VERTEX_POINT('',#348) ;
#356=VERTEX_POINT('',#355) ;
#363=VERTEX_POINT('',#362) ;
#404=VERTEX_POINT('',#403) ;
#406=VERTEX_POINT('',#405) ;
#413=VERTEX_POINT('',#412) ;
#420=VERTEX_POINT('',#419) ;
#461=VERTEX_POINT('',#460) ;
#463=VERTEX_POINT('',#462) ;
#470=VERTEX_POINT('',#469) ;
#477=VERTEX_POINT('',#476) ;
#41=(LENGTH_UNIT()NAMED_UNIT(*)SI_UNIT(.MILLI.,.METRE.)) ;
#42=(NAMED_UNIT(*)PLANE_ANGLE_UNIT()SI_UNIT($,.RADIAN.)) ;
#44=(NAMED_UNIT(*)SI_UNIT($,.STERADIAN.)SOLID_ANGLE_UNIT()) ;
#46=(GEOMETRIC_REPRESENTATION_CONTEXT(3)GLOBAL_UNCERTAINTY_ASSIGNED_CONTEXT((#45))GLOBAL_UNIT_ASSIGNED_CONTEXT((#41,#42,#44))REPRESENTATION_CONTEXT(' ',' ')) ;
ENDSEC;
END-ISO-10303-21;
