ISO-10303-21;
HEADER;
FILE_DESCRIPTION(('CATIA V5 STEP Exchange'),'2;1');

FILE_NAME('C:\\Users\\alexi\\Documents\\scolaire\\IPSA\\AeroIpsa\\SP-02\\CATIA\\new_catia\\SP02_ALPHA\\SP02_ALPHA_AF\\STEP\\SP02_ALPHA_AF_BLOC_AF.stp','2025-11-18T15:28:04+00:00',('none'),('none'),'CATIA Version 5 Release 19 GA (IN-10)','CATIA V5 STEP AP203','none');

FILE_SCHEMA(('CONFIG_CONTROL_DESIGN'));

ENDSEC;
/* file written by CATIA V5R19 */
DATA;
#5=PRODUCT('SP02_ALPHA_AF_BLOC_AF','','',(#2)) ;
#1=APPLICATION_CONTEXT('configuration controlled 3D design of mechanical parts and assemblies') ;
#14=PRODUCT_DEFINITION('',' ',#6,#3) ;
#16=SECURITY_CLASSIFICATION(' ',' ',#15) ;
#15=SECURITY_CLASSIFICATION_LEVEL('unclassified') ;
#47=CARTESIAN_POINT(' ',(0.,0.,0.)) ;
#52=CARTESIAN_POINT('Axis2P3D Location',(0.,0.,3.)) ;
#57=CARTESIAN_POINT('Line Origine',(-17.8,20.15,3.)) ;
#61=CARTESIAN_POINT('Vertex',(-17.8,25.5,3.)) ;
#63=CARTESIAN_POINT('Vertex',(-17.8,14.8,3.)) ;
#66=CARTESIAN_POINT('Line Origine',(-13.0821047333,14.8,3.)) ;
#70=CARTESIAN_POINT('Vertex',(-8.36420946653,14.8,3.)) ;
#73=CARTESIAN_POINT('Axis2P3D Location',(0.,0.,3.)) ;
#77=CARTESIAN_POINT('Vertex',(8.36420946653,14.8,3.)) ;
#80=CARTESIAN_POINT('Line Origine',(13.0821047333,14.8,3.)) ;
#84=CARTESIAN_POINT('Vertex',(17.8,14.8,3.)) ;
#87=CARTESIAN_POINT('Line Origine',(17.8,20.15,3.)) ;
#91=CARTESIAN_POINT('Vertex',(17.8,25.5,3.)) ;
#94=CARTESIAN_POINT('Line Origine',(0.,25.5,3.)) ;
#107=CARTESIAN_POINT('Axis2P3D Location',(0.,21.,3.)) ;
#111=CARTESIAN_POINT('Vertex',(-2.,21.,3.)) ;
#113=CARTESIAN_POINT('Vertex',(2.,21.,3.)) ;
#116=CARTESIAN_POINT('Axis2P3D Location',(0.,21.,3.)) ;
#126=CARTESIAN_POINT('Axis2P3D Location',(0.,0.,1.5)) ;
#131=CARTESIAN_POINT('Line Origine',(-8.36420946653,14.8,1.5)) ;
#135=CARTESIAN_POINT('Vertex',(-8.36420946653,14.8,0.)) ;
#138=CARTESIAN_POINT('Axis2P3D Location',(0.,0.,0.)) ;
#142=CARTESIAN_POINT('Vertex',(8.36420946653,14.8,0.)) ;
#145=CARTESIAN_POINT('Line Origine',(8.36420946653,14.8,1.5)) ;
#157=CARTESIAN_POINT('Axis2P3D Location',(0.,21.,1.5)) ;
#162=CARTESIAN_POINT('Line Origine',(2.,21.,1.5)) ;
#166=CARTESIAN_POINT('Vertex',(2.,21.,0.)) ;
#169=CARTESIAN_POINT('Axis2P3D Location',(0.,21.,0.)) ;
#173=CARTESIAN_POINT('Vertex',(-2.,21.,0.)) ;
#176=CARTESIAN_POINT('Line Origine',(-2.,21.,1.5)) ;
#188=CARTESIAN_POINT('Axis2P3D Location',(0.,21.,0.)) ;
#200=CARTESIAN_POINT('Axis2P3D Location',(-17.8,54.66,6.)) ;
#205=CARTESIAN_POINT('Line Origine',(-17.3,25.5,6.5)) ;
#209=CARTESIAN_POINT('Vertex',(-17.8,25.5,6.)) ;
#211=CARTESIAN_POINT('Vertex',(-16.8,25.5,7.)) ;
#214=CARTESIAN_POINT('Line Origine',(-16.8,31.5589786068,7.)) ;
#218=CARTESIAN_POINT('Vertex',(-16.8,46.8806996535,7.)) ;
#222=CARTESIAN_POINT('Control Point',(-17.8,46.510213932,6.)) ;
#223=CARTESIAN_POINT('Control Point',(-17.467380758,46.6375111858,6.33261924204)) ;
#224=CARTESIAN_POINT('Control Point',(-17.1340265603,46.760999089,6.66597343965)) ;
#225=CARTESIAN_POINT('Control Point',(-16.8,46.8806996535,7.)) ;
#226=CARTESIAN_POINT('Vertex',(-17.8,46.510213932,6.)) ;
#229=CARTESIAN_POINT('Line Origine',(-17.8,31.5589786068,6.)) ;
#241=CARTESIAN_POINT('Axis2P3D Location',(0.,0.,7.)) ;
#246=CARTESIAN_POINT('Axis2P3D Location',(0.,0.,7.)) ;
#250=CARTESIAN_POINT('Vertex',(16.8,46.8806996535,7.)) ;
#253=CARTESIAN_POINT('Line Origine',(0.,25.5,7.)) ;
#257=CARTESIAN_POINT('Vertex',(16.8,25.5,7.)) ;
#260=CARTESIAN_POINT('Line Origine',(16.8,36.1903498267,7.)) ;
#272=CARTESIAN_POINT('Axis2P3D Location',(-17.8,25.5,0.)) ;
#277=CARTESIAN_POINT('Line Origine',(-17.8,25.5,4.5)) ;
#282=CARTESIAN_POINT('Line Origine',(17.8,25.5,4.5)) ;
#286=CARTESIAN_POINT('Vertex',(17.8,25.5,6.)) ;
#289=CARTESIAN_POINT('Line Origine',(17.3,25.5,6.5)) ;
#303=CARTESIAN_POINT('Axis2P3D Location',(17.8,8.4579572136,6.)) ;
#309=CARTESIAN_POINT('Control Point',(17.8,46.510213932,6.)) ;
#310=CARTESIAN_POINT('Control Point',(17.467380758,46.6375111858,6.33261924204)) ;
#311=CARTESIAN_POINT('Control Point',(17.1340265603,46.760999089,6.66597343965)) ;
#312=CARTESIAN_POINT('Control Point',(16.8,46.8806996535,7.)) ;
#313=CARTESIAN_POINT('Vertex',(17.8,46.510213932,6.)) ;
#316=CARTESIAN_POINT('Line Origine',(17.8,31.5589786068,6.)) ;
#328=CARTESIAN_POINT('Axis2P3D Location',(-8.36420946653,14.8,0.)) ;
#333=CARTESIAN_POINT('Line Origine',(-17.3,14.8,0.5)) ;
#337=CARTESIAN_POINT('Vertex',(-16.8,14.8,0.)) ;
#339=CARTESIAN_POINT('Vertex',(-17.8,14.8,1.)) ;
#342=CARTESIAN_POINT('Line Origine',(-12.5821047333,14.8,0.)) ;
#347=CARTESIAN_POINT('Line Origine',(-17.8,14.8,2.)) ;
#360=CARTESIAN_POINT('Axis2P3D Location',(-17.8,14.8,0.)) ;
#365=CARTESIAN_POINT('Line Origine',(-17.8,30.655106966,1.)) ;
#369=CARTESIAN_POINT('Vertex',(-17.8,46.510213932,1.)) ;
#372=CARTESIAN_POINT('Line Origine',(-17.8,46.510213932,3.5)) ;
#386=CARTESIAN_POINT('Axis2P3D Location',(-17.8,56.8,1.)) ;
#392=CARTESIAN_POINT('Control Point',(-17.8,46.510213932,1.)) ;
#393=CARTESIAN_POINT('Control Point',(-17.467380758,46.6375111858,0.66738075796)) ;
#394=CARTESIAN_POINT('Control Point',(-17.1340265603,46.760999089,0.334026560347)) ;
#395=CARTESIAN_POINT('Control Point',(-16.8,46.8806996535,2.22044604925E-016)) ;
#396=CARTESIAN_POINT('Vertex',(-16.8,46.8806996535,0.)) ;
#399=CARTESIAN_POINT('Line Origine',(-16.8,32.3,2.22044604925E-016)) ;
#411=CARTESIAN_POINT('Line Origine',(17.3,14.8,0.5)) ;
#415=CARTESIAN_POINT('Vertex',(17.8,14.8,1.)) ;
#417=CARTESIAN_POINT('Vertex',(16.8,14.8,0.)) ;
#420=CARTESIAN_POINT('Line Origine',(17.8,14.8,2.)) ;
#425=CARTESIAN_POINT('Line Origine',(12.5821047333,14.8,0.)) ;
#438=CARTESIAN_POINT('Axis2P3D Location',(17.8,25.5,0.)) ;
#443=CARTESIAN_POINT('Line Origine',(17.8,30.655106966,1.)) ;
#447=CARTESIAN_POINT('Vertex',(17.8,46.510213932,1.)) ;
#450=CARTESIAN_POINT('Line Origine',(17.8,46.510213932,3.5)) ;
#464=CARTESIAN_POINT('Axis2P3D Location',(0.,0.,0.)) ;
#469=CARTESIAN_POINT('Line Origine',(16.8,30.8403498267,0.)) ;
#473=CARTESIAN_POINT('Vertex',(16.8,46.8806996535,0.)) ;
#476=CARTESIAN_POINT('Axis2P3D Location',(0.,0.,0.)) ;
#494=CARTESIAN_POINT('Axis2P3D Location',(0.,0.,3.5)) ;
#500=CARTESIAN_POINT('Control Point',(17.8,46.510213932,1.)) ;
#501=CARTESIAN_POINT('Control Point',(17.467380758,46.6375111858,0.66738075796)) ;
#502=CARTESIAN_POINT('Control Point',(17.1340265603,46.760999089,0.334026560347)) ;
#503=CARTESIAN_POINT('Control Point',(16.8,46.8806996535,1.11022302463E-016)) ;
#516=CARTESIAN_POINT('Axis2P3D Location',(17.8,7.8,1.)) ;
#53=DIRECTION('Axis2P3D Direction',(0.,0.,1.)) ;
#54=DIRECTION('Axis2P3D XDirection',(1.,0.,0.)) ;
#58=DIRECTION('Vector Direction',(0.,1.,0.)) ;
#67=DIRECTION('Vector Direction',(-1.,0.,0.)) ;
#74=DIRECTION('Axis2P3D Direction',(0.,0.,1.)) ;
#81=DIRECTION('Vector Direction',(-1.,0.,0.)) ;
#88=DIRECTION('Vector Direction',(0.,-1.,0.)) ;
#95=DIRECTION('Vector Direction',(1.,0.,0.)) ;
#108=DIRECTION('Axis2P3D Direction',(0.,0.,1.)) ;
#117=DIRECTION('Axis2P3D Direction',(0.,0.,1.)) ;
#127=DIRECTION('Axis2P3D Direction',(0.,0.,1.)) ;
#128=DIRECTION('Axis2P3D XDirection',(0.492012321561,0.870588235294,0.)) ;
#132=DIRECTION('Vector Direction',(0.,0.,1.)) ;
#139=DIRECTION('Axis2P3D Direction',(0.,0.,1.)) ;
#146=DIRECTION('Vector Direction',(0.,0.,1.)) ;
#158=DIRECTION('Axis2P3D Direction',(0.,0.,1.)) ;
#159=DIRECTION('Axis2P3D XDirection',(1.,0.,0.)) ;
#163=DIRECTION('Vector Direction',(0.,0.,1.)) ;
#170=DIRECTION('Axis2P3D Direction',(0.,0.,1.)) ;
#177=DIRECTION('Vector Direction',(0.,0.,1.)) ;
#189=DIRECTION('Axis2P3D Direction',(0.,0.,1.)) ;
#201=DIRECTION('Axis2P3D Direction',(-0.707106781187,0.,0.707106781187)) ;
#202=DIRECTION('Axis2P3D XDirection',(0.,-1.,0.)) ;
#206=DIRECTION('Vector Direction',(0.707106781187,0.,0.707106781187)) ;
#215=DIRECTION('Vector Direction',(0.,-1.,0.)) ;
#230=DIRECTION('Vector Direction',(0.,-1.,0.)) ;
#242=DIRECTION('Axis2P3D Direction',(0.,0.,1.)) ;
#243=DIRECTION('Axis2P3D XDirection',(1.,0.,0.)) ;
#247=DIRECTION('Axis2P3D Direction',(0.,0.,1.)) ;
#254=DIRECTION('Vector Direction',(1.,0.,0.)) ;
#261=DIRECTION('Vector Direction',(0.,1.,0.)) ;
#273=DIRECTION('Axis2P3D Direction',(0.,-1.,0.)) ;
#274=DIRECTION('Axis2P3D XDirection',(1.,0.,0.)) ;
#278=DIRECTION('Vector Direction',(0.,0.,1.)) ;
#283=DIRECTION('Vector Direction',(0.,0.,1.)) ;
#290=DIRECTION('Vector Direction',(0.707106781187,0.,-0.707106781187)) ;
#304=DIRECTION('Axis2P3D Direction',(0.707106781187,2.71865461178E-016,0.707106781187)) ;
#305=DIRECTION('Axis2P3D XDirection',(-3.84475822338E-016,1.,0.)) ;
#317=DIRECTION('Vector Direction',(-3.84475822338E-016,1.,0.)) ;
#329=DIRECTION('Axis2P3D Direction',(-1.88257341354E-016,1.,0.)) ;
#330=DIRECTION('Axis2P3D XDirection',(-1.,-1.88257341354E-016,-0.)) ;
#334=DIRECTION('Vector Direction',(0.707106781187,0.,-0.707106781187)) ;
#343=DIRECTION('Vector Direction',(-1.,-2.10573843951E-016,0.)) ;
#348=DIRECTION('Vector Direction',(0.,0.,1.)) ;
#361=DIRECTION('Axis2P3D Direction',(1.,0.,0.)) ;
#362=DIRECTION('Axis2P3D XDirection',(0.,1.,0.)) ;
#366=DIRECTION('Vector Direction',(0.,-1.,0.)) ;
#373=DIRECTION('Vector Direction',(0.,0.,1.)) ;
#387=DIRECTION('Axis2P3D Direction',(0.707106781187,0.,0.707106781187)) ;
#388=DIRECTION('Axis2P3D XDirection',(0.,-1.,0.)) ;
#400=DIRECTION('Vector Direction',(0.,-1.,0.)) ;
#412=DIRECTION('Vector Direction',(-0.707106781187,0.,-0.707106781187)) ;
#421=DIRECTION('Vector Direction',(0.,0.,1.)) ;
#426=DIRECTION('Vector Direction',(-1.,-2.10573843951E-016,0.)) ;
#439=DIRECTION('Axis2P3D Direction',(-1.,-3.32029315776E-016,0.)) ;
#440=DIRECTION('Axis2P3D XDirection',(3.32029315776E-016,-1.,0.)) ;
#444=DIRECTION('Vector Direction',(-3.36110663247E-016,1.,0.)) ;
#451=DIRECTION('Vector Direction',(0.,0.,1.)) ;
#465=DIRECTION('Axis2P3D Direction',(0.,0.,1.)) ;
#466=DIRECTION('Axis2P3D XDirection',(1.,0.,0.)) ;
#470=DIRECTION('Vector Direction',(0.,1.,0.)) ;
#477=DIRECTION('Axis2P3D Direction',(0.,0.,1.)) ;
#495=DIRECTION('Axis2P3D Direction',(0.,0.,1.)) ;
#496=DIRECTION('Axis2P3D XDirection',(0.357429718876,0.933940038795,0.)) ;
#517=DIRECTION('Axis2P3D Direction',(-0.707106781187,-2.56341625908E-016,0.707106781187)) ;
#518=DIRECTION('Axis2P3D XDirection',(-3.62521803959E-016,1.,0.)) ;
#48=AXIS2_PLACEMENT_3D(' ',#47,$,$) ;
#55=AXIS2_PLACEMENT_3D('Plane Axis2P3D',#52,#53,#54) ;
#75=AXIS2_PLACEMENT_3D('Circle Axis2P3D',#73,#74,$) ;
#109=AXIS2_PLACEMENT_3D('Circle Axis2P3D',#107,#108,$) ;
#118=AXIS2_PLACEMENT_3D('Circle Axis2P3D',#116,#117,$) ;
#129=AXIS2_PLACEMENT_3D('Cylinder Axis2P3D',#126,#127,#128) ;
#140=AXIS2_PLACEMENT_3D('Circle Axis2P3D',#138,#139,$) ;
#160=AXIS2_PLACEMENT_3D('Cylinder Axis2P3D',#157,#158,#159) ;
#171=AXIS2_PLACEMENT_3D('Circle Axis2P3D',#169,#170,$) ;
#190=AXIS2_PLACEMENT_3D('Circle Axis2P3D',#188,#189,$) ;
#203=AXIS2_PLACEMENT_3D('Plane Axis2P3D',#200,#201,#202) ;
#244=AXIS2_PLACEMENT_3D('Plane Axis2P3D',#241,#242,#243) ;
#248=AXIS2_PLACEMENT_3D('Circle Axis2P3D',#246,#247,$) ;
#275=AXIS2_PLACEMENT_3D('Plane Axis2P3D',#272,#273,#274) ;
#306=AXIS2_PLACEMENT_3D('Plane Axis2P3D',#303,#304,#305) ;
#331=AXIS2_PLACEMENT_3D('Plane Axis2P3D',#328,#329,#330) ;
#363=AXIS2_PLACEMENT_3D('Plane Axis2P3D',#360,#361,#362) ;
#389=AXIS2_PLACEMENT_3D('Plane Axis2P3D',#386,#387,#388) ;
#441=AXIS2_PLACEMENT_3D('Plane Axis2P3D',#438,#439,#440) ;
#467=AXIS2_PLACEMENT_3D('Plane Axis2P3D',#464,#465,#466) ;
#478=AXIS2_PLACEMENT_3D('Circle Axis2P3D',#476,#477,$) ;
#497=AXIS2_PLACEMENT_3D('Cylinder Axis2P3D',#494,#495,#496) ;
#519=AXIS2_PLACEMENT_3D('Plane Axis2P3D',#516,#517,#518) ;
#40=PRODUCT_DEFINITION_SHAPE(' ',' ',#14) ;
#31=APPROVAL_PERSON_ORGANIZATION(#25,#21,#19) ;
#25=PERSON_AND_ORGANIZATION(#22,#23) ;
#22=PERSON(' ',' ',' ',$,$,$) ;
#23=ORGANIZATION(' ',' ',' ') ;
#21=APPROVAL(#20,' ') ;
#20=APPROVAL_STATUS('not_yet_approved') ;
#19=APPROVAL_ROLE('APPROVER') ;
#13=DATE_AND_TIME(#11,#12) ;
#12=LOCAL_TIME(16,28,4.,#10) ;
#10=COORDINATED_UNIVERSAL_TIME_OFFSET(0,0,.AHEAD.) ;
#100=ORIENTED_EDGE('',*,*,#65,.T.) ;
#101=ORIENTED_EDGE('',*,*,#72,.T.) ;
#102=ORIENTED_EDGE('',*,*,#79,.T.) ;
#103=ORIENTED_EDGE('',*,*,#86,.T.) ;
#104=ORIENTED_EDGE('',*,*,#93,.T.) ;
#105=ORIENTED_EDGE('',*,*,#98,.T.) ;
#122=ORIENTED_EDGE('',*,*,#115,.F.) ;
#123=ORIENTED_EDGE('',*,*,#120,.F.) ;
#151=ORIENTED_EDGE('',*,*,#137,.F.) ;
#152=ORIENTED_EDGE('',*,*,#144,.T.) ;
#153=ORIENTED_EDGE('',*,*,#149,.T.) ;
#154=ORIENTED_EDGE('',*,*,#79,.F.) ;
#182=ORIENTED_EDGE('',*,*,#115,.T.) ;
#183=ORIENTED_EDGE('',*,*,#168,.F.) ;
#184=ORIENTED_EDGE('',*,*,#175,.F.) ;
#185=ORIENTED_EDGE('',*,*,#180,.T.) ;
#194=ORIENTED_EDGE('',*,*,#120,.T.) ;
#195=ORIENTED_EDGE('',*,*,#180,.F.) ;
#196=ORIENTED_EDGE('',*,*,#192,.F.) ;
#197=ORIENTED_EDGE('',*,*,#168,.T.) ;
#235=ORIENTED_EDGE('',*,*,#213,.T.) ;
#236=ORIENTED_EDGE('',*,*,#220,.F.) ;
#237=ORIENTED_EDGE('',*,*,#228,.T.) ;
#238=ORIENTED_EDGE('',*,*,#233,.T.) ;
#266=ORIENTED_EDGE('',*,*,#252,.T.) ;
#267=ORIENTED_EDGE('',*,*,#220,.T.) ;
#268=ORIENTED_EDGE('',*,*,#259,.F.) ;
#269=ORIENTED_EDGE('',*,*,#264,.T.) ;
#295=ORIENTED_EDGE('',*,*,#259,.T.) ;
#296=ORIENTED_EDGE('',*,*,#213,.F.) ;
#297=ORIENTED_EDGE('',*,*,#281,.F.) ;
#298=ORIENTED_EDGE('',*,*,#98,.F.) ;
#299=ORIENTED_EDGE('',*,*,#288,.T.) ;
#300=ORIENTED_EDGE('',*,*,#293,.F.) ;
#322=ORIENTED_EDGE('',*,*,#315,.T.) ;
#323=ORIENTED_EDGE('',*,*,#264,.F.) ;
#324=ORIENTED_EDGE('',*,*,#293,.T.) ;
#325=ORIENTED_EDGE('',*,*,#320,.T.) ;
#353=ORIENTED_EDGE('',*,*,#341,.F.) ;
#354=ORIENTED_EDGE('',*,*,#346,.T.) ;
#355=ORIENTED_EDGE('',*,*,#137,.T.) ;
#356=ORIENTED_EDGE('',*,*,#72,.F.) ;
#357=ORIENTED_EDGE('',*,*,#351,.F.) ;
#378=ORIENTED_EDGE('',*,*,#371,.T.) ;
#379=ORIENTED_EDGE('',*,*,#351,.T.) ;
#380=ORIENTED_EDGE('',*,*,#65,.F.) ;
#381=ORIENTED_EDGE('',*,*,#281,.T.) ;
#382=ORIENTED_EDGE('',*,*,#233,.F.) ;
#383=ORIENTED_EDGE('',*,*,#376,.F.) ;
#405=ORIENTED_EDGE('',*,*,#371,.F.) ;
#406=ORIENTED_EDGE('',*,*,#398,.T.) ;
#407=ORIENTED_EDGE('',*,*,#403,.T.) ;
#408=ORIENTED_EDGE('',*,*,#341,.T.) ;
#431=ORIENTED_EDGE('',*,*,#419,.F.) ;
#432=ORIENTED_EDGE('',*,*,#424,.T.) ;
#433=ORIENTED_EDGE('',*,*,#86,.F.) ;
#434=ORIENTED_EDGE('',*,*,#149,.F.) ;
#435=ORIENTED_EDGE('',*,*,#429,.T.) ;
#456=ORIENTED_EDGE('',*,*,#449,.T.) ;
#457=ORIENTED_EDGE('',*,*,#454,.T.) ;
#458=ORIENTED_EDGE('',*,*,#320,.F.) ;
#459=ORIENTED_EDGE('',*,*,#288,.F.) ;
#460=ORIENTED_EDGE('',*,*,#93,.F.) ;
#461=ORIENTED_EDGE('',*,*,#424,.F.) ;
#482=ORIENTED_EDGE('',*,*,#475,.F.) ;
#483=ORIENTED_EDGE('',*,*,#429,.F.) ;
#484=ORIENTED_EDGE('',*,*,#144,.F.) ;
#485=ORIENTED_EDGE('',*,*,#346,.F.) ;
#486=ORIENTED_EDGE('',*,*,#403,.F.) ;
#487=ORIENTED_EDGE('',*,*,#480,.F.) ;
#490=ORIENTED_EDGE('',*,*,#175,.T.) ;
#491=ORIENTED_EDGE('',*,*,#192,.T.) ;
#506=ORIENTED_EDGE('',*,*,#480,.T.) ;
#507=ORIENTED_EDGE('',*,*,#398,.F.) ;
#508=ORIENTED_EDGE('',*,*,#376,.T.) ;
#509=ORIENTED_EDGE('',*,*,#228,.F.) ;
#510=ORIENTED_EDGE('',*,*,#252,.F.) ;
#511=ORIENTED_EDGE('',*,*,#315,.F.) ;
#512=ORIENTED_EDGE('',*,*,#454,.F.) ;
#513=ORIENTED_EDGE('',*,*,#504,.F.) ;
#522=ORIENTED_EDGE('',*,*,#449,.F.) ;
#523=ORIENTED_EDGE('',*,*,#419,.T.) ;
#524=ORIENTED_EDGE('',*,*,#475,.T.) ;
#525=ORIENTED_EDGE('',*,*,#504,.T.) ;
#124=FACE_BOUND('',#121,.T.) ;
#492=FACE_BOUND('',#489,.T.) ;
#51=CLOSED_SHELL('Closed Shell',(#125,#156,#187,#199,#240,#271,#302,#327,#359,#385,#410,#437,#463,#493,#515,#527)) ;
#59=VECTOR('Line Direction',#58,1.) ;
#68=VECTOR('Line Direction',#67,1.) ;
#82=VECTOR('Line Direction',#81,1.) ;
#89=VECTOR('Line Direction',#88,1.) ;
#96=VECTOR('Line Direction',#95,1.) ;
#133=VECTOR('Line Direction',#132,1.) ;
#147=VECTOR('Line Direction',#146,1.) ;
#164=VECTOR('Line Direction',#163,1.) ;
#178=VECTOR('Line Direction',#177,1.) ;
#207=VECTOR('Line Direction',#206,1.) ;
#216=VECTOR('Line Direction',#215,1.) ;
#231=VECTOR('Line Direction',#230,1.) ;
#255=VECTOR('Line Direction',#254,1.) ;
#262=VECTOR('Line Direction',#261,1.) ;
#279=VECTOR('Line Direction',#278,1.) ;
#284=VECTOR('Line Direction',#283,1.) ;
#291=VECTOR('Line Direction',#290,1.) ;
#318=VECTOR('Line Direction',#317,1.) ;
#335=VECTOR('Line Direction',#334,1.) ;
#344=VECTOR('Line Direction',#343,1.) ;
#349=VECTOR('Line Direction',#348,1.) ;
#367=VECTOR('Line Direction',#366,1.) ;
#374=VECTOR('Line Direction',#373,1.) ;
#401=VECTOR('Line Direction',#400,1.) ;
#413=VECTOR('Line Direction',#412,1.) ;
#422=VECTOR('Line Direction',#421,1.) ;
#427=VECTOR('Line Direction',#426,1.) ;
#445=VECTOR('Line Direction',#444,1.) ;
#452=VECTOR('Line Direction',#451,1.) ;
#471=VECTOR('Line Direction',#470,1.) ;
#529=ADVANCED_BREP_SHAPE_REPRESENTATION('NONE',(#528),#46) ;
#49=SHAPE_REPRESENTATION(' ',(#48),#46) ;
#125=ADVANCED_FACE('Corps principal',(#106,#124),#56,.T.) ;
#156=ADVANCED_FACE('Corps principal',(#155),#130,.F.) ;
#187=ADVANCED_FACE('Corps principal',(#186),#161,.F.) ;
#199=ADVANCED_FACE('Corps principal',(#198),#161,.F.) ;
#240=ADVANCED_FACE('Corps principal',(#239),#204,.T.) ;
#271=ADVANCED_FACE('Corps principal',(#270),#245,.T.) ;
#302=ADVANCED_FACE('Corps principal',(#301),#276,.T.) ;
#327=ADVANCED_FACE('Corps principal',(#326),#307,.T.) ;
#359=ADVANCED_FACE('Corps principal',(#358),#332,.F.) ;
#385=ADVANCED_FACE('Corps principal',(#384),#364,.F.) ;
#410=ADVANCED_FACE('Corps principal',(#409),#390,.F.) ;
#437=ADVANCED_FACE('Corps principal',(#436),#332,.F.) ;
#463=ADVANCED_FACE('Corps principal',(#462),#442,.F.) ;
#493=ADVANCED_FACE('Corps principal',(#488,#492),#468,.F.) ;
#515=ADVANCED_FACE('Corps principal',(#514),#498,.T.) ;
#527=ADVANCED_FACE('Corps principal',(#526),#520,.F.) ;
#4=APPLICATION_PROTOCOL_DEFINITION('international standard','config_control_design',1994,#1) ;
#32=APPROVAL_DATE_TIME(#13,#21) ;
#221=B_SPLINE_CURVE_WITH_KNOTS('',3,(#222,#223,#224,#225),.UNSPECIFIED.,.F.,.U.,(4,4),(0.,2.06750158435),.UNSPECIFIED.) ;
#308=B_SPLINE_CURVE_WITH_KNOTS('',3,(#309,#310,#311,#312),.UNSPECIFIED.,.F.,.U.,(4,4),(0.,2.06750158435),.UNSPECIFIED.) ;
#391=B_SPLINE_CURVE_WITH_KNOTS('',3,(#392,#393,#394,#395),.UNSPECIFIED.,.F.,.U.,(4,4),(0.,2.06750158435),.UNSPECIFIED.) ;
#499=B_SPLINE_CURVE_WITH_KNOTS('',3,(#500,#501,#502,#503),.UNSPECIFIED.,.F.,.U.,(4,4),(0.,2.06750158435),.UNSPECIFIED.) ;
#528=MANIFOLD_SOLID_BREP('Corps principal',#51) ;
#11=CALENDAR_DATE(2025,18,11) ;
#30=CC_DESIGN_APPROVAL(#21,(#16,#6,#14)) ;
#18=CC_DESIGN_DATE_AND_TIME_ASSIGNMENT(#13,#17,(#16)) ;
#29=CC_DESIGN_DATE_AND_TIME_ASSIGNMENT(#13,#28,(#14)) ;
#17=DATE_TIME_ROLE('classification_date') ;
#28=DATE_TIME_ROLE('creation_date') ;
#27=CC_DESIGN_PERSON_AND_ORGANIZATION_ASSIGNMENT(#25,#26,(#16)) ;
#33=CC_DESIGN_PERSON_AND_ORGANIZATION_ASSIGNMENT(#25,#34,(#6)) ;
#35=CC_DESIGN_PERSON_AND_ORGANIZATION_ASSIGNMENT(#25,#36,(#6,#14)) ;
#37=CC_DESIGN_PERSON_AND_ORGANIZATION_ASSIGNMENT(#25,#38,(#5)) ;
#26=PERSON_AND_ORGANIZATION_ROLE('classification_officer') ;
#34=PERSON_AND_ORGANIZATION_ROLE('design_supplier') ;
#36=PERSON_AND_ORGANIZATION_ROLE('creator') ;
#38=PERSON_AND_ORGANIZATION_ROLE('design_owner') ;
#39=CC_DESIGN_SECURITY_CLASSIFICATION(#16,(#6)) ;
#76=CIRCLE('generated circle',#75,17.) ;
#110=CIRCLE('generated circle',#109,2.) ;
#119=CIRCLE('generated circle',#118,2.) ;
#141=CIRCLE('generated circle',#140,17.) ;
#172=CIRCLE('generated circle',#171,2.) ;
#191=CIRCLE('generated circle',#190,2.) ;
#249=CIRCLE('generated circle',#248,49.8) ;
#479=CIRCLE('generated circle',#478,49.8) ;
#530=SHAPE_REPRESENTATION_RELATIONSHIP(' ',' ',#49,#529) ;
#130=CYLINDRICAL_SURFACE('generated cylinder',#129,17.) ;
#161=CYLINDRICAL_SURFACE('generated cylinder',#160,2.) ;
#498=CYLINDRICAL_SURFACE('generated cylinder',#497,49.8) ;
#3=DESIGN_CONTEXT(' ',#1,'design') ;
#65=EDGE_CURVE('',#62,#64,#60,.F.) ;
#72=EDGE_CURVE('',#64,#71,#69,.F.) ;
#79=EDGE_CURVE('',#71,#78,#76,.F.) ;
#86=EDGE_CURVE('',#78,#85,#83,.F.) ;
#93=EDGE_CURVE('',#85,#92,#90,.F.) ;
#98=EDGE_CURVE('',#92,#62,#97,.F.) ;
#115=EDGE_CURVE('',#112,#114,#110,.T.) ;
#120=EDGE_CURVE('',#114,#112,#119,.T.) ;
#137=EDGE_CURVE('',#136,#71,#134,.T.) ;
#144=EDGE_CURVE('',#136,#143,#141,.F.) ;
#149=EDGE_CURVE('',#143,#78,#148,.T.) ;
#168=EDGE_CURVE('',#167,#114,#165,.T.) ;
#175=EDGE_CURVE('',#174,#167,#172,.T.) ;
#180=EDGE_CURVE('',#174,#112,#179,.T.) ;
#192=EDGE_CURVE('',#167,#174,#191,.T.) ;
#213=EDGE_CURVE('',#210,#212,#208,.T.) ;
#220=EDGE_CURVE('',#219,#212,#217,.T.) ;
#228=EDGE_CURVE('',#219,#227,#221,.F.) ;
#233=EDGE_CURVE('',#227,#210,#232,.T.) ;
#252=EDGE_CURVE('',#251,#219,#249,.T.) ;
#259=EDGE_CURVE('',#258,#212,#256,.F.) ;
#264=EDGE_CURVE('',#258,#251,#263,.T.) ;
#281=EDGE_CURVE('',#62,#210,#280,.T.) ;
#288=EDGE_CURVE('',#92,#287,#285,.T.) ;
#293=EDGE_CURVE('',#258,#287,#292,.T.) ;
#315=EDGE_CURVE('',#314,#251,#308,.T.) ;
#320=EDGE_CURVE('',#287,#314,#319,.T.) ;
#341=EDGE_CURVE('',#338,#340,#336,.F.) ;
#346=EDGE_CURVE('',#338,#136,#345,.F.) ;
#351=EDGE_CURVE('',#340,#64,#350,.T.) ;
#371=EDGE_CURVE('',#370,#340,#368,.T.) ;
#376=EDGE_CURVE('',#370,#227,#375,.T.) ;
#398=EDGE_CURVE('',#370,#397,#391,.T.) ;
#403=EDGE_CURVE('',#397,#338,#402,.T.) ;
#419=EDGE_CURVE('',#416,#418,#414,.T.) ;
#424=EDGE_CURVE('',#416,#85,#423,.T.) ;
#429=EDGE_CURVE('',#143,#418,#428,.F.) ;
#449=EDGE_CURVE('',#416,#448,#446,.T.) ;
#454=EDGE_CURVE('',#448,#314,#453,.T.) ;
#475=EDGE_CURVE('',#418,#474,#472,.T.) ;
#480=EDGE_CURVE('',#474,#397,#479,.T.) ;
#504=EDGE_CURVE('',#474,#448,#499,.F.) ;
#99=EDGE_LOOP('',(#100,#101,#102,#103,#104,#105)) ;
#121=EDGE_LOOP('',(#122,#123)) ;
#150=EDGE_LOOP('',(#151,#152,#153,#154)) ;
#181=EDGE_LOOP('',(#182,#183,#184,#185)) ;
#193=EDGE_LOOP('',(#194,#195,#196,#197)) ;
#234=EDGE_LOOP('',(#235,#236,#237,#238)) ;
#265=EDGE_LOOP('',(#266,#267,#268,#269)) ;
#294=EDGE_LOOP('',(#295,#296,#297,#298,#299,#300)) ;
#321=EDGE_LOOP('',(#322,#323,#324,#325)) ;
#352=EDGE_LOOP('',(#353,#354,#355,#356,#357)) ;
#377=EDGE_LOOP('',(#378,#379,#380,#381,#382,#383)) ;
#404=EDGE_LOOP('',(#405,#406,#407,#408)) ;
#430=EDGE_LOOP('',(#431,#432,#433,#434,#435)) ;
#455=EDGE_LOOP('',(#456,#457,#458,#459,#460,#461)) ;
#481=EDGE_LOOP('',(#482,#483,#484,#485,#486,#487)) ;
#489=EDGE_LOOP('',(#490,#491)) ;
#505=EDGE_LOOP('',(#506,#507,#508,#509,#510,#511,#512,#513)) ;
#521=EDGE_LOOP('',(#522,#523,#524,#525)) ;
#106=FACE_OUTER_BOUND('',#99,.T.) ;
#155=FACE_OUTER_BOUND('',#150,.T.) ;
#186=FACE_OUTER_BOUND('',#181,.T.) ;
#198=FACE_OUTER_BOUND('',#193,.T.) ;
#239=FACE_OUTER_BOUND('',#234,.T.) ;
#270=FACE_OUTER_BOUND('',#265,.T.) ;
#301=FACE_OUTER_BOUND('',#294,.T.) ;
#326=FACE_OUTER_BOUND('',#321,.T.) ;
#358=FACE_OUTER_BOUND('',#352,.T.) ;
#384=FACE_OUTER_BOUND('',#377,.T.) ;
#409=FACE_OUTER_BOUND('',#404,.T.) ;
#436=FACE_OUTER_BOUND('',#430,.T.) ;
#462=FACE_OUTER_BOUND('',#455,.T.) ;
#488=FACE_OUTER_BOUND('',#481,.T.) ;
#514=FACE_OUTER_BOUND('',#505,.T.) ;
#526=FACE_OUTER_BOUND('',#521,.T.) ;
#45=UNCERTAINTY_MEASURE_WITH_UNIT(LENGTH_MEASURE(0.005),#41,'distance_accuracy_value','CONFUSED CURVE UNCERTAINTY') ;
#60=LINE('Line',#57,#59) ;
#69=LINE('Line',#66,#68) ;
#83=LINE('Line',#80,#82) ;
#90=LINE('Line',#87,#89) ;
#97=LINE('Line',#94,#96) ;
#134=LINE('Line',#131,#133) ;
#148=LINE('Line',#145,#147) ;
#165=LINE('Line',#162,#164) ;
#179=LINE('Line',#176,#178) ;
#208=LINE('Line',#205,#207) ;
#217=LINE('Line',#214,#216) ;
#232=LINE('Line',#229,#231) ;
#256=LINE('Line',#253,#255) ;
#263=LINE('Line',#260,#262) ;
#280=LINE('Line',#277,#279) ;
#285=LINE('Line',#282,#284) ;
#292=LINE('Line',#289,#291) ;
#319=LINE('Line',#316,#318) ;
#336=LINE('Line',#333,#335) ;
#345=LINE('Line',#342,#344) ;
#350=LINE('Line',#347,#349) ;
#368=LINE('Line',#365,#367) ;
#375=LINE('Line',#372,#374) ;
#402=LINE('Line',#399,#401) ;
#414=LINE('Line',#411,#413) ;
#423=LINE('Line',#420,#422) ;
#428=LINE('Line',#425,#427) ;
#446=LINE('Line',#443,#445) ;
#453=LINE('Line',#450,#452) ;
#472=LINE('Line',#469,#471) ;
#2=MECHANICAL_CONTEXT(' ',#1,'mechanical') ;
#24=PERSONAL_ADDRESS(' ',' ',' ',' ',' ',' ',' ',' ',' ',' ',' ',' ',(#22),' ') ;
#56=PLANE('Plane',#55) ;
#204=PLANE('Plane',#203) ;
#245=PLANE('Plane',#244) ;
#276=PLANE('Plane',#275) ;
#307=PLANE('Plane',#306) ;
#332=PLANE('Plane',#331) ;
#364=PLANE('Plane',#363) ;
#390=PLANE('Plane',#389) ;
#442=PLANE('Plane',#441) ;
#468=PLANE('Plane',#467) ;
#520=PLANE('Plane',#519) ;
#43=PLANE_ANGLE_MEASURE_WITH_UNIT(PLANE_ANGLE_MEASURE(0.0174532925199),#42) ;
#7=PRODUCT_CATEGORY('part',$) ;
#9=PRODUCT_CATEGORY_RELATIONSHIP(' ',' ',#7,#8) ;
#6=PRODUCT_DEFINITION_FORMATION_WITH_SPECIFIED_SOURCE('',' ',#5,.NOT_KNOWN.) ;
#8=PRODUCT_RELATED_PRODUCT_CATEGORY('detail',$,(#5)) ;
#50=SHAPE_DEFINITION_REPRESENTATION(#40,#49) ;
#62=VERTEX_POINT('',#61) ;
#64=VERTEX_POINT('',#63) ;
#71=VERTEX_POINT('',#70) ;
#78=VERTEX_POINT('',#77) ;
#85=VERTEX_POINT('',#84) ;
#92=VERTEX_POINT('',#91) ;
#112=VERTEX_POINT('',#111) ;
#114=VERTEX_POINT('',#113) ;
#136=VERTEX_POINT('',#135) ;
#143=VERTEX_POINT('',#142) ;
#167=VERTEX_POINT('',#166) ;
#174=VERTEX_POINT('',#173) ;
#210=VERTEX_POINT('',#209) ;
#212=VERTEX_POINT('',#211) ;
#219=VERTEX_POINT('',#218) ;
#227=VERTEX_POINT('',#226) ;
#251=VERTEX_POINT('',#250) ;
#258=VERTEX_POINT('',#257) ;
#287=VERTEX_POINT('',#286) ;
#314=VERTEX_POINT('',#313) ;
#338=VERTEX_POINT('',#337) ;
#340=VERTEX_POINT('',#339) ;
#370=VERTEX_POINT('',#369) ;
#397=VERTEX_POINT('',#396) ;
#416=VERTEX_POINT('',#415) ;
#418=VERTEX_POINT('',#417) ;
#448=VERTEX_POINT('',#447) ;
#474=VERTEX_POINT('',#473) ;
#41=(LENGTH_UNIT()NAMED_UNIT(*)SI_UNIT(.MILLI.,.METRE.)) ;
#42=(NAMED_UNIT(*)PLANE_ANGLE_UNIT()SI_UNIT($,.RADIAN.)) ;
#44=(NAMED_UNIT(*)SI_UNIT($,.STERADIAN.)SOLID_ANGLE_UNIT()) ;
#46=(GEOMETRIC_REPRESENTATION_CONTEXT(3)GLOBAL_UNCERTAINTY_ASSIGNED_CONTEXT((#45))GLOBAL_UNIT_ASSIGNED_CONTEXT((#41,#42,#44))REPRESENTATION_CONTEXT(' ',' ')) ;
ENDSEC;
END-ISO-10303-21;
