ISO-10303-21;
HEADER;
FILE_DESCRIPTION(('CATIA V5 STEP Exchange'),'2;1');

FILE_NAME('C:\\Users\\alexi\\Documents\\scolaire\\IPSA\\AeroIpsa\\SP-02\\CATIA\\new_catia\\SP02_ALPHA\\SP02_ALPHA_AF\\STEP\\SP02_ALPHA_AF_BLOC_BIELLE.stp','2026-03-23T20:53:57+00:00',('none'),('none'),'CATIA Version 5 Release 19 GA (IN-10)','CATIA V5 STEP AP203','none');

FILE_SCHEMA(('CONFIG_CONTROL_DESIGN'));

ENDSEC;
/* file written by CATIA V5R19 */
DATA;
#5=PRODUCT('SP02_ALPHA_AF_BLOC_BIELLE','','',(#2)) ;
#1=APPLICATION_CONTEXT('configuration controlled 3D design of mechanical parts and assemblies') ;
#14=PRODUCT_DEFINITION('',' ',#6,#3) ;
#16=SECURITY_CLASSIFICATION(' ',' ',#15) ;
#15=SECURITY_CLASSIFICATION_LEVEL('unclassified') ;
#47=CARTESIAN_POINT(' ',(0.,0.,0.)) ;
#52=CARTESIAN_POINT('Axis2P3D Location',(0.,21.,2.9)) ;
#57=CARTESIAN_POINT('Line Origine',(-1.42256133282,21.7771487981,1.5)) ;
#61=CARTESIAN_POINT('Vertex',(-1.42256133282,21.7771487981,-4.4408920985E-016)) ;
#63=CARTESIAN_POINT('Vertex',(-1.42256133282,21.7771487981,3.)) ;
#66=CARTESIAN_POINT('Axis2P3D Location',(0.,21.,0.)) ;
#70=CARTESIAN_POINT('Vertex',(1.42256133282,20.2228512019,-4.4408920985E-016)) ;
#73=CARTESIAN_POINT('Line Origine',(1.42256133282,20.2228512019,1.5)) ;
#77=CARTESIAN_POINT('Vertex',(1.42256133282,20.2228512019,3.)) ;
#80=CARTESIAN_POINT('Axis2P3D Location',(0.,21.,3.)) ;
#92=CARTESIAN_POINT('Axis2P3D Location',(0.,0.,3.)) ;
#97=CARTESIAN_POINT('Axis2P3D Location',(10.3923048454,-6.,3.)) ;
#101=CARTESIAN_POINT('Vertex',(7.0160094135,-3.85509227321,3.)) ;
#103=CARTESIAN_POINT('Vertex',(13.7686002773,-8.14490772679,3.)) ;
#106=CARTESIAN_POINT('Axis2P3D Location',(-4.80102459819,3.65208477057,3.)) ;
#110=CARTESIAN_POINT('Vertex',(1.06689435515,24.8550922732,3.)) ;
#113=CARTESIAN_POINT('Axis2P3D Location',(0.,21.,3.)) ;
#117=CARTESIAN_POINT('Vertex',(-1.06689435515,17.1449077268,3.)) ;
#120=CARTESIAN_POINT('Axis2P3D Location',(-4.80102459819,3.65208477057,3.)) ;
#131=CARTESIAN_POINT('Axis2P3D Location',(-3.88578058619E-016,21.,3.)) ;
#140=CARTESIAN_POINT('Axis2P3D Location',(10.3923048454,-6.,3.)) ;
#144=CARTESIAN_POINT('Vertex',(8.14230484541,-6.,3.)) ;
#146=CARTESIAN_POINT('Vertex',(12.6423048454,-6.,3.)) ;
#149=CARTESIAN_POINT('Axis2P3D Location',(10.3923048454,-6.,3.)) ;
#159=CARTESIAN_POINT('Axis2P3D Location',(0.,21.,0.)) ;
#171=CARTESIAN_POINT('Axis2P3D Location',(10.3923048454,-6.,1.5)) ;
#176=CARTESIAN_POINT('Line Origine',(7.0160094135,-3.85509227321,1.5)) ;
#180=CARTESIAN_POINT('Vertex',(7.0160094135,-3.85509227321,0.)) ;
#183=CARTESIAN_POINT('Axis2P3D Location',(10.3923048454,-6.,0.)) ;
#187=CARTESIAN_POINT('Vertex',(13.7686002773,-8.14490772679,0.)) ;
#190=CARTESIAN_POINT('Line Origine',(13.7686002773,-8.14490772679,1.5)) ;
#202=CARTESIAN_POINT('Axis2P3D Location',(-4.80102459819,3.65208477057,1.5)) ;
#207=CARTESIAN_POINT('Axis2P3D Location',(-4.80102459819,3.65208477057,0.)) ;
#211=CARTESIAN_POINT('Vertex',(1.06689435515,24.8550922732,0.)) ;
#214=CARTESIAN_POINT('Line Origine',(1.06689435515,24.8550922732,1.5)) ;
#226=CARTESIAN_POINT('Axis2P3D Location',(0.,21.,1.5)) ;
#231=CARTESIAN_POINT('Axis2P3D Location',(0.,21.,0.)) ;
#235=CARTESIAN_POINT('Vertex',(-1.06689435515,17.1449077268,0.)) ;
#238=CARTESIAN_POINT('Line Origine',(-1.06689435515,17.1449077268,1.5)) ;
#250=CARTESIAN_POINT('Axis2P3D Location',(-4.80102459819,3.65208477057,1.5)) ;
#255=CARTESIAN_POINT('Axis2P3D Location',(-4.80102459819,3.65208477057,0.)) ;
#267=CARTESIAN_POINT('Axis2P3D Location',(10.3923048454,-6.,1.5)) ;
#272=CARTESIAN_POINT('Line Origine',(8.14230484541,-6.,1.5)) ;
#276=CARTESIAN_POINT('Vertex',(8.14230484541,-6.,0.)) ;
#279=CARTESIAN_POINT('Axis2P3D Location',(10.3923048454,-6.,0.)) ;
#283=CARTESIAN_POINT('Vertex',(12.6423048454,-6.,0.)) ;
#286=CARTESIAN_POINT('Line Origine',(12.6423048454,-6.,1.5)) ;
#298=CARTESIAN_POINT('Axis2P3D Location',(10.3923048454,-6.,0.)) ;
#310=CARTESIAN_POINT('Axis2P3D Location',(0.,0.,0.)) ;
#53=DIRECTION('Axis2P3D Direction',(0.,-0.,-1.)) ;
#54=DIRECTION('Axis2P3D XDirection',(0.87758256189,-0.479425538604,0.)) ;
#58=DIRECTION('Vector Direction',(0.,0.,-1.)) ;
#67=DIRECTION('Axis2P3D Direction',(0.,-0.,-1.)) ;
#74=DIRECTION('Vector Direction',(0.,0.,-1.)) ;
#81=DIRECTION('Axis2P3D Direction',(0.,-0.,-1.)) ;
#93=DIRECTION('Axis2P3D Direction',(0.,0.,1.)) ;
#94=DIRECTION('Axis2P3D XDirection',(1.,0.,0.)) ;
#98=DIRECTION('Axis2P3D Direction',(0.,0.,1.)) ;
#107=DIRECTION('Axis2P3D Direction',(0.,0.,1.)) ;
#114=DIRECTION('Axis2P3D Direction',(0.,0.,1.)) ;
#121=DIRECTION('Axis2P3D Direction',(0.,0.,1.)) ;
#132=DIRECTION('Axis2P3D Direction',(0.,0.,1.)) ;
#141=DIRECTION('Axis2P3D Direction',(0.,0.,1.)) ;
#150=DIRECTION('Axis2P3D Direction',(0.,0.,1.)) ;
#160=DIRECTION('Axis2P3D Direction',(0.,-0.,-1.)) ;
#172=DIRECTION('Axis2P3D Direction',(0.,0.,1.)) ;
#173=DIRECTION('Axis2P3D XDirection',(-0.844073857978,0.536226931698,0.)) ;
#177=DIRECTION('Vector Direction',(0.,0.,1.)) ;
#184=DIRECTION('Axis2P3D Direction',(0.,0.,1.)) ;
#191=DIRECTION('Vector Direction',(0.,0.,1.)) ;
#203=DIRECTION('Axis2P3D Direction',(0.,0.,1.)) ;
#204=DIRECTION('Axis2P3D XDirection',(0.844073857978,-0.536226931698,0.)) ;
#208=DIRECTION('Axis2P3D Direction',(0.,0.,1.)) ;
#215=DIRECTION('Vector Direction',(0.,0.,1.)) ;
#227=DIRECTION('Axis2P3D Direction',(0.,0.,1.)) ;
#228=DIRECTION('Axis2P3D XDirection',(0.266723588788,0.963773068302,0.)) ;
#232=DIRECTION('Axis2P3D Direction',(0.,0.,1.)) ;
#239=DIRECTION('Vector Direction',(0.,0.,1.)) ;
#251=DIRECTION('Axis2P3D Direction',(0.,0.,1.)) ;
#252=DIRECTION('Axis2P3D XDirection',(0.844073857978,-0.536226931698,0.)) ;
#256=DIRECTION('Axis2P3D Direction',(0.,0.,1.)) ;
#268=DIRECTION('Axis2P3D Direction',(0.,0.,1.)) ;
#269=DIRECTION('Axis2P3D XDirection',(1.,0.,0.)) ;
#273=DIRECTION('Vector Direction',(0.,0.,1.)) ;
#280=DIRECTION('Axis2P3D Direction',(0.,0.,1.)) ;
#287=DIRECTION('Vector Direction',(0.,0.,1.)) ;
#299=DIRECTION('Axis2P3D Direction',(0.,0.,1.)) ;
#311=DIRECTION('Axis2P3D Direction',(0.,0.,1.)) ;
#312=DIRECTION('Axis2P3D XDirection',(1.,0.,0.)) ;
#48=AXIS2_PLACEMENT_3D(' ',#47,$,$) ;
#55=AXIS2_PLACEMENT_3D('Cylinder Axis2P3D',#52,#53,#54) ;
#68=AXIS2_PLACEMENT_3D('Circle Axis2P3D',#66,#67,$) ;
#82=AXIS2_PLACEMENT_3D('Circle Axis2P3D',#80,#81,$) ;
#95=AXIS2_PLACEMENT_3D('Plane Axis2P3D',#92,#93,#94) ;
#99=AXIS2_PLACEMENT_3D('Circle Axis2P3D',#97,#98,$) ;
#108=AXIS2_PLACEMENT_3D('Circle Axis2P3D',#106,#107,$) ;
#115=AXIS2_PLACEMENT_3D('Circle Axis2P3D',#113,#114,$) ;
#122=AXIS2_PLACEMENT_3D('Circle Axis2P3D',#120,#121,$) ;
#133=AXIS2_PLACEMENT_3D('Circle Axis2P3D',#131,#132,$) ;
#142=AXIS2_PLACEMENT_3D('Circle Axis2P3D',#140,#141,$) ;
#151=AXIS2_PLACEMENT_3D('Circle Axis2P3D',#149,#150,$) ;
#161=AXIS2_PLACEMENT_3D('Circle Axis2P3D',#159,#160,$) ;
#174=AXIS2_PLACEMENT_3D('Cylinder Axis2P3D',#171,#172,#173) ;
#185=AXIS2_PLACEMENT_3D('Circle Axis2P3D',#183,#184,$) ;
#205=AXIS2_PLACEMENT_3D('Cylinder Axis2P3D',#202,#203,#204) ;
#209=AXIS2_PLACEMENT_3D('Circle Axis2P3D',#207,#208,$) ;
#229=AXIS2_PLACEMENT_3D('Cylinder Axis2P3D',#226,#227,#228) ;
#233=AXIS2_PLACEMENT_3D('Circle Axis2P3D',#231,#232,$) ;
#253=AXIS2_PLACEMENT_3D('Cylinder Axis2P3D',#250,#251,#252) ;
#257=AXIS2_PLACEMENT_3D('Circle Axis2P3D',#255,#256,$) ;
#270=AXIS2_PLACEMENT_3D('Cylinder Axis2P3D',#267,#268,#269) ;
#281=AXIS2_PLACEMENT_3D('Circle Axis2P3D',#279,#280,$) ;
#300=AXIS2_PLACEMENT_3D('Circle Axis2P3D',#298,#299,$) ;
#313=AXIS2_PLACEMENT_3D('Plane Axis2P3D',#310,#311,#312) ;
#40=PRODUCT_DEFINITION_SHAPE(' ',' ',#14) ;
#31=APPROVAL_PERSON_ORGANIZATION(#25,#21,#19) ;
#25=PERSON_AND_ORGANIZATION(#22,#23) ;
#22=PERSON(' ',' ',' ',$,$,$) ;
#23=ORGANIZATION(' ',' ',' ') ;
#21=APPROVAL(#20,' ') ;
#20=APPROVAL_STATUS('not_yet_approved') ;
#19=APPROVAL_ROLE('APPROVER') ;
#13=DATE_AND_TIME(#11,#12) ;
#12=LOCAL_TIME(21,53,57.,#10) ;
#10=COORDINATED_UNIVERSAL_TIME_OFFSET(0,0,.AHEAD.) ;
#86=ORIENTED_EDGE('',*,*,#65,.F.) ;
#87=ORIENTED_EDGE('',*,*,#72,.F.) ;
#88=ORIENTED_EDGE('',*,*,#79,.T.) ;
#89=ORIENTED_EDGE('',*,*,#84,.T.) ;
#126=ORIENTED_EDGE('',*,*,#105,.T.) ;
#127=ORIENTED_EDGE('',*,*,#112,.T.) ;
#128=ORIENTED_EDGE('',*,*,#119,.T.) ;
#129=ORIENTED_EDGE('',*,*,#124,.T.) ;
#137=ORIENTED_EDGE('',*,*,#135,.F.) ;
#138=ORIENTED_EDGE('',*,*,#84,.F.) ;
#155=ORIENTED_EDGE('',*,*,#148,.F.) ;
#156=ORIENTED_EDGE('',*,*,#153,.F.) ;
#165=ORIENTED_EDGE('',*,*,#79,.F.) ;
#166=ORIENTED_EDGE('',*,*,#163,.F.) ;
#167=ORIENTED_EDGE('',*,*,#65,.T.) ;
#168=ORIENTED_EDGE('',*,*,#135,.T.) ;
#196=ORIENTED_EDGE('',*,*,#182,.F.) ;
#197=ORIENTED_EDGE('',*,*,#189,.T.) ;
#198=ORIENTED_EDGE('',*,*,#194,.T.) ;
#199=ORIENTED_EDGE('',*,*,#105,.F.) ;
#220=ORIENTED_EDGE('',*,*,#194,.F.) ;
#221=ORIENTED_EDGE('',*,*,#213,.T.) ;
#222=ORIENTED_EDGE('',*,*,#218,.T.) ;
#223=ORIENTED_EDGE('',*,*,#112,.F.) ;
#244=ORIENTED_EDGE('',*,*,#218,.F.) ;
#245=ORIENTED_EDGE('',*,*,#237,.T.) ;
#246=ORIENTED_EDGE('',*,*,#242,.T.) ;
#247=ORIENTED_EDGE('',*,*,#119,.F.) ;
#261=ORIENTED_EDGE('',*,*,#242,.F.) ;
#262=ORIENTED_EDGE('',*,*,#259,.T.) ;
#263=ORIENTED_EDGE('',*,*,#182,.T.) ;
#264=ORIENTED_EDGE('',*,*,#124,.F.) ;
#292=ORIENTED_EDGE('',*,*,#153,.T.) ;
#293=ORIENTED_EDGE('',*,*,#278,.F.) ;
#294=ORIENTED_EDGE('',*,*,#285,.F.) ;
#295=ORIENTED_EDGE('',*,*,#290,.T.) ;
#304=ORIENTED_EDGE('',*,*,#148,.T.) ;
#305=ORIENTED_EDGE('',*,*,#290,.F.) ;
#306=ORIENTED_EDGE('',*,*,#302,.F.) ;
#307=ORIENTED_EDGE('',*,*,#278,.T.) ;
#316=ORIENTED_EDGE('',*,*,#259,.F.) ;
#317=ORIENTED_EDGE('',*,*,#237,.F.) ;
#318=ORIENTED_EDGE('',*,*,#213,.F.) ;
#319=ORIENTED_EDGE('',*,*,#189,.F.) ;
#322=ORIENTED_EDGE('',*,*,#72,.T.) ;
#323=ORIENTED_EDGE('',*,*,#163,.T.) ;
#326=ORIENTED_EDGE('',*,*,#285,.T.) ;
#327=ORIENTED_EDGE('',*,*,#302,.T.) ;
#139=FACE_BOUND('',#136,.T.) ;
#157=FACE_BOUND('',#154,.T.) ;
#324=FACE_BOUND('',#321,.T.) ;
#328=FACE_BOUND('',#325,.T.) ;
#51=CLOSED_SHELL('Closed Shell',(#91,#158,#170,#201,#225,#249,#266,#297,#309,#329)) ;
#59=VECTOR('Line Direction',#58,1.) ;
#75=VECTOR('Line Direction',#74,1.) ;
#178=VECTOR('Line Direction',#177,1.) ;
#192=VECTOR('Line Direction',#191,1.) ;
#216=VECTOR('Line Direction',#215,1.) ;
#240=VECTOR('Line Direction',#239,1.) ;
#274=VECTOR('Line Direction',#273,1.) ;
#288=VECTOR('Line Direction',#287,1.) ;
#331=ADVANCED_BREP_SHAPE_REPRESENTATION('NONE',(#330),#46) ;
#49=SHAPE_REPRESENTATION(' ',(#48),#46) ;
#91=ADVANCED_FACE('PartBody',(#90),#56,.F.) ;
#158=ADVANCED_FACE('PartBody',(#130,#139,#157),#96,.T.) ;
#170=ADVANCED_FACE('PartBody',(#169),#56,.F.) ;
#201=ADVANCED_FACE('PartBody',(#200),#175,.T.) ;
#225=ADVANCED_FACE('PartBody',(#224),#206,.T.) ;
#249=ADVANCED_FACE('PartBody',(#248),#230,.T.) ;
#266=ADVANCED_FACE('PartBody',(#265),#254,.F.) ;
#297=ADVANCED_FACE('PartBody',(#296),#271,.F.) ;
#309=ADVANCED_FACE('PartBody',(#308),#271,.F.) ;
#329=ADVANCED_FACE('PartBody',(#320,#324,#328),#314,.F.) ;
#4=APPLICATION_PROTOCOL_DEFINITION('international standard','config_control_design',1994,#1) ;
#32=APPROVAL_DATE_TIME(#13,#21) ;
#330=MANIFOLD_SOLID_BREP('PartBody',#51) ;
#11=CALENDAR_DATE(2026,23,3) ;
#30=CC_DESIGN_APPROVAL(#21,(#16,#6,#14)) ;
#18=CC_DESIGN_DATE_AND_TIME_ASSIGNMENT(#13,#17,(#16)) ;
#29=CC_DESIGN_DATE_AND_TIME_ASSIGNMENT(#13,#28,(#14)) ;
#17=DATE_TIME_ROLE('classification_date') ;
#28=DATE_TIME_ROLE('creation_date') ;
#27=CC_DESIGN_PERSON_AND_ORGANIZATION_ASSIGNMENT(#25,#26,(#16)) ;
#33=CC_DESIGN_PERSON_AND_ORGANIZATION_ASSIGNMENT(#25,#34,(#6)) ;
#35=CC_DESIGN_PERSON_AND_ORGANIZATION_ASSIGNMENT(#25,#36,(#6,#14)) ;
#37=CC_DESIGN_PERSON_AND_ORGANIZATION_ASSIGNMENT(#25,#38,(#5)) ;
#26=PERSON_AND_ORGANIZATION_ROLE('classification_officer') ;
#34=PERSON_AND_ORGANIZATION_ROLE('design_supplier') ;
#36=PERSON_AND_ORGANIZATION_ROLE('creator') ;
#38=PERSON_AND_ORGANIZATION_ROLE('design_owner') ;
#39=CC_DESIGN_SECURITY_CLASSIFICATION(#16,(#6)) ;
#69=CIRCLE('generated circle',#68,1.621) ;
#83=CIRCLE('generated circle',#82,1.621) ;
#100=CIRCLE('generated circle',#99,4.) ;
#109=CIRCLE('generated circle',#108,22.) ;
#116=CIRCLE('generated circle',#115,4.) ;
#123=CIRCLE('generated circle',#122,14.) ;
#134=CIRCLE('generated circle',#133,1.621) ;
#143=CIRCLE('generated circle',#142,2.25) ;
#152=CIRCLE('generated circle',#151,2.25) ;
#162=CIRCLE('generated circle',#161,1.621) ;
#186=CIRCLE('generated circle',#185,4.) ;
#210=CIRCLE('generated circle',#209,22.) ;
#234=CIRCLE('generated circle',#233,4.) ;
#258=CIRCLE('generated circle',#257,14.) ;
#282=CIRCLE('generated circle',#281,2.25) ;
#301=CIRCLE('generated circle',#300,2.25) ;
#332=SHAPE_REPRESENTATION_RELATIONSHIP(' ',' ',#49,#331) ;
#56=CYLINDRICAL_SURFACE('generated cylinder',#55,1.621) ;
#175=CYLINDRICAL_SURFACE('generated cylinder',#174,4.) ;
#206=CYLINDRICAL_SURFACE('generated cylinder',#205,22.) ;
#230=CYLINDRICAL_SURFACE('generated cylinder',#229,4.) ;
#254=CYLINDRICAL_SURFACE('generated cylinder',#253,14.) ;
#271=CYLINDRICAL_SURFACE('generated cylinder',#270,2.25) ;
#3=DESIGN_CONTEXT(' ',#1,'design') ;
#65=EDGE_CURVE('',#62,#64,#60,.F.) ;
#72=EDGE_CURVE('',#71,#62,#69,.F.) ;
#79=EDGE_CURVE('',#71,#78,#76,.F.) ;
#84=EDGE_CURVE('',#78,#64,#83,.F.) ;
#105=EDGE_CURVE('',#102,#104,#100,.T.) ;
#112=EDGE_CURVE('',#104,#111,#109,.T.) ;
#119=EDGE_CURVE('',#111,#118,#116,.T.) ;
#124=EDGE_CURVE('',#118,#102,#123,.F.) ;
#135=EDGE_CURVE('',#64,#78,#134,.T.) ;
#148=EDGE_CURVE('',#145,#147,#143,.T.) ;
#153=EDGE_CURVE('',#147,#145,#152,.T.) ;
#163=EDGE_CURVE('',#62,#71,#162,.F.) ;
#182=EDGE_CURVE('',#181,#102,#179,.T.) ;
#189=EDGE_CURVE('',#181,#188,#186,.T.) ;
#194=EDGE_CURVE('',#188,#104,#193,.T.) ;
#213=EDGE_CURVE('',#188,#212,#210,.T.) ;
#218=EDGE_CURVE('',#212,#111,#217,.T.) ;
#237=EDGE_CURVE('',#212,#236,#234,.T.) ;
#242=EDGE_CURVE('',#236,#118,#241,.T.) ;
#259=EDGE_CURVE('',#236,#181,#258,.F.) ;
#278=EDGE_CURVE('',#277,#145,#275,.T.) ;
#285=EDGE_CURVE('',#284,#277,#282,.T.) ;
#290=EDGE_CURVE('',#284,#147,#289,.T.) ;
#302=EDGE_CURVE('',#277,#284,#301,.T.) ;
#85=EDGE_LOOP('',(#86,#87,#88,#89)) ;
#125=EDGE_LOOP('',(#126,#127,#128,#129)) ;
#136=EDGE_LOOP('',(#137,#138)) ;
#154=EDGE_LOOP('',(#155,#156)) ;
#164=EDGE_LOOP('',(#165,#166,#167,#168)) ;
#195=EDGE_LOOP('',(#196,#197,#198,#199)) ;
#219=EDGE_LOOP('',(#220,#221,#222,#223)) ;
#243=EDGE_LOOP('',(#244,#245,#246,#247)) ;
#260=EDGE_LOOP('',(#261,#262,#263,#264)) ;
#291=EDGE_LOOP('',(#292,#293,#294,#295)) ;
#303=EDGE_LOOP('',(#304,#305,#306,#307)) ;
#315=EDGE_LOOP('',(#316,#317,#318,#319)) ;
#321=EDGE_LOOP('',(#322,#323)) ;
#325=EDGE_LOOP('',(#326,#327)) ;
#90=FACE_OUTER_BOUND('',#85,.T.) ;
#130=FACE_OUTER_BOUND('',#125,.T.) ;
#169=FACE_OUTER_BOUND('',#164,.T.) ;
#200=FACE_OUTER_BOUND('',#195,.T.) ;
#224=FACE_OUTER_BOUND('',#219,.T.) ;
#248=FACE_OUTER_BOUND('',#243,.T.) ;
#265=FACE_OUTER_BOUND('',#260,.T.) ;
#296=FACE_OUTER_BOUND('',#291,.T.) ;
#308=FACE_OUTER_BOUND('',#303,.T.) ;
#320=FACE_OUTER_BOUND('',#315,.T.) ;
#45=UNCERTAINTY_MEASURE_WITH_UNIT(LENGTH_MEASURE(0.005),#41,'distance_accuracy_value','CONFUSED CURVE UNCERTAINTY') ;
#60=LINE('Line',#57,#59) ;
#76=LINE('Line',#73,#75) ;
#179=LINE('Line',#176,#178) ;
#193=LINE('Line',#190,#192) ;
#217=LINE('Line',#214,#216) ;
#241=LINE('Line',#238,#240) ;
#275=LINE('Line',#272,#274) ;
#289=LINE('Line',#286,#288) ;
#2=MECHANICAL_CONTEXT(' ',#1,'mechanical') ;
#24=PERSONAL_ADDRESS(' ',' ',' ',' ',' ',' ',' ',' ',' ',' ',' ',' ',(#22),' ') ;
#96=PLANE('Plane',#95) ;
#314=PLANE('Plane',#313) ;
#43=PLANE_ANGLE_MEASURE_WITH_UNIT(PLANE_ANGLE_MEASURE(0.0174532925199),#42) ;
#7=PRODUCT_CATEGORY('part',$) ;
#9=PRODUCT_CATEGORY_RELATIONSHIP(' ',' ',#7,#8) ;
#6=PRODUCT_DEFINITION_FORMATION_WITH_SPECIFIED_SOURCE('',' ',#5,.NOT_KNOWN.) ;
#8=PRODUCT_RELATED_PRODUCT_CATEGORY('detail',$,(#5)) ;
#50=SHAPE_DEFINITION_REPRESENTATION(#40,#49) ;
#62=VERTEX_POINT('',#61) ;
#64=VERTEX_POINT('',#63) ;
#71=VERTEX_POINT('',#70) ;
#78=VERTEX_POINT('',#77) ;
#102=VERTEX_POINT('',#101) ;
#104=VERTEX_POINT('',#103) ;
#111=VERTEX_POINT('',#110) ;
#118=VERTEX_POINT('',#117) ;
#145=VERTEX_POINT('',#144) ;
#147=VERTEX_POINT('',#146) ;
#181=VERTEX_POINT('',#180) ;
#188=VERTEX_POINT('',#187) ;
#212=VERTEX_POINT('',#211) ;
#236=VERTEX_POINT('',#235) ;
#277=VERTEX_POINT('',#276) ;
#284=VERTEX_POINT('',#283) ;
#41=(LENGTH_UNIT()NAMED_UNIT(*)SI_UNIT(.MILLI.,.METRE.)) ;
#42=(NAMED_UNIT(*)PLANE_ANGLE_UNIT()SI_UNIT($,.RADIAN.)) ;
#44=(NAMED_UNIT(*)SI_UNIT($,.STERADIAN.)SOLID_ANGLE_UNIT()) ;
#46=(GEOMETRIC_REPRESENTATION_CONTEXT(3)GLOBAL_UNCERTAINTY_ASSIGNED_CONTEXT((#45))GLOBAL_UNIT_ASSIGNED_CONTEXT((#41,#42,#44))REPRESENTATION_CONTEXT(' ',' ')) ;
ENDSEC;
END-ISO-10303-21;
