ISO-10303-21;
HEADER;
FILE_DESCRIPTION(('CATIA V5 STEP Exchange'),'2;1');

FILE_NAME('C:\\Users\\alexi\\Documents\\scolaire\\IPSA\\AeroIpsa\\SP-02\\CATIA\\new_catia\\SP02_ALPHA\\SP02_ALPHA_AF\\STEP\\SP02_ALPHA_AF_BLOC_AF_KR.stp','2026-01-15T18:50:15+00:00',('none'),('none'),'CATIA Version 5 Release 19 GA (IN-10)','CATIA V5 STEP AP203','none');

FILE_SCHEMA(('CONFIG_CONTROL_DESIGN'));

ENDSEC;
/* file written by CATIA V5R19 */
DATA;
#5=PRODUCT('SP02_ALPHA_AF_BLOC_AF','','',(#2)) ;
#1=APPLICATION_CONTEXT('configuration controlled 3D design of mechanical parts and assemblies') ;
#14=PRODUCT_DEFINITION('',' ',#6,#3) ;
#16=SECURITY_CLASSIFICATION(' ',' ',#15) ;
#15=SECURITY_CLASSIFICATION_LEVEL('unclassified') ;
#47=CARTESIAN_POINT(' ',(0.,0.,0.)) ;
#52=CARTESIAN_POINT('Axis2P3D Location',(0.,0.,2.9)) ;
#57=CARTESIAN_POINT('Line Origine',(-17.85,18.5432055528,2.9)) ;
#61=CARTESIAN_POINT('Vertex',(-17.85,19.5864111057,2.9)) ;
#63=CARTESIAN_POINT('Vertex',(-17.85,17.5,2.9)) ;
#66=CARTESIAN_POINT('Axis2P3D Location',(-14.85,17.5,2.9)) ;
#70=CARTESIAN_POINT('Vertex',(-14.85,14.5,2.9)) ;
#73=CARTESIAN_POINT('Line Origine',(-11.8620598373,14.5,2.9)) ;
#77=CARTESIAN_POINT('Vertex',(-8.87411967465,14.5,2.9)) ;
#80=CARTESIAN_POINT('Axis2P3D Location',(0.,0.,2.9)) ;
#84=CARTESIAN_POINT('Vertex',(8.87411967465,14.5,2.9)) ;
#87=CARTESIAN_POINT('Line Origine',(11.9120598373,14.5,2.9)) ;
#91=CARTESIAN_POINT('Vertex',(14.95,14.5,2.9)) ;
#94=CARTESIAN_POINT('Axis2P3D Location',(14.95,17.5,2.9)) ;
#98=CARTESIAN_POINT('Vertex',(17.95,17.5,2.9)) ;
#101=CARTESIAN_POINT('Line Origine',(17.95,18.4974035004,2.9)) ;
#105=CARTESIAN_POINT('Vertex',(17.95,19.4948070008,2.9)) ;
#108=CARTESIAN_POINT('Axis2P3D Location',(0.,0.,2.9)) ;
#123=CARTESIAN_POINT('Axis2P3D Location',(0.,21.,2.9)) ;
#127=CARTESIAN_POINT('Vertex',(-2.2,21.,2.9)) ;
#129=CARTESIAN_POINT('Vertex',(2.2,21.,2.9)) ;
#132=CARTESIAN_POINT('Axis2P3D Location',(0.,21.,2.9)) ;
#142=CARTESIAN_POINT('Axis2P3D Location',(-8.87411967465,14.5,0.)) ;
#147=CARTESIAN_POINT('Line Origine',(-14.85,14.5,1.45)) ;
#151=CARTESIAN_POINT('Vertex',(-14.85,14.5,0.)) ;
#154=CARTESIAN_POINT('Line Origine',(-11.8620598373,14.5,0.)) ;
#158=CARTESIAN_POINT('Vertex',(-8.87411967465,14.5,0.)) ;
#161=CARTESIAN_POINT('Line Origine',(-8.87411967465,14.5,1.45)) ;
#173=CARTESIAN_POINT('Axis2P3D Location',(0.,0.,1.45)) ;
#178=CARTESIAN_POINT('Axis2P3D Location',(0.,0.,0.)) ;
#182=CARTESIAN_POINT('Vertex',(8.87411967465,14.5,0.)) ;
#185=CARTESIAN_POINT('Line Origine',(8.87411967465,14.5,1.45)) ;
#197=CARTESIAN_POINT('Line Origine',(11.9120598373,14.5,0.)) ;
#201=CARTESIAN_POINT('Vertex',(14.95,14.5,0.)) ;
#204=CARTESIAN_POINT('Line Origine',(14.95,14.5,1.45)) ;
#216=CARTESIAN_POINT('Axis2P3D Location',(0.,21.,1.45)) ;
#221=CARTESIAN_POINT('Line Origine',(2.2,21.,1.45)) ;
#225=CARTESIAN_POINT('Vertex',(2.2,21.,0.)) ;
#228=CARTESIAN_POINT('Axis2P3D Location',(0.,21.,0.)) ;
#232=CARTESIAN_POINT('Vertex',(-2.2,21.,0.)) ;
#235=CARTESIAN_POINT('Line Origine',(-2.2,21.,1.45)) ;
#247=CARTESIAN_POINT('Axis2P3D Location',(0.,21.,0.)) ;
#259=CARTESIAN_POINT('Axis2P3D Location',(0.,0.,6.8)) ;
#264=CARTESIAN_POINT('Line Origine',(17.95,32.9974035004,6.8)) ;
#268=CARTESIAN_POINT('Vertex',(17.95,19.4948070008,6.8)) ;
#270=CARTESIAN_POINT('Vertex',(17.95,46.5,6.8)) ;
#273=CARTESIAN_POINT('Axis2P3D Location',(0.05,-2.32202371881,6.8)) ;
#277=CARTESIAN_POINT('Vertex',(-17.85,46.5,6.8)) ;
#280=CARTESIAN_POINT('Line Origine',(-17.85,33.0432055528,6.8)) ;
#284=CARTESIAN_POINT('Vertex',(-17.85,19.5864111057,6.8)) ;
#287=CARTESIAN_POINT('Axis2P3D Location',(0.,0.,6.8)) ;
#299=CARTESIAN_POINT('Axis2P3D Location',(0.,0.,3.4)) ;
#304=CARTESIAN_POINT('Line Origine',(17.95,19.4948070008,3.4)) ;
#309=CARTESIAN_POINT('Line Origine',(-17.85,19.5864111057,3.4)) ;
#321=CARTESIAN_POINT('Axis2P3D Location',(0.,0.,0.)) ;
#326=CARTESIAN_POINT('Axis2P3D Location',(0.05,-2.32202371881,0.)) ;
#330=CARTESIAN_POINT('Vertex',(17.95,46.5,0.)) ;
#332=CARTESIAN_POINT('Vertex',(-17.85,46.5,0.)) ;
#335=CARTESIAN_POINT('Line Origine',(17.95,32.,0.)) ;
#339=CARTESIAN_POINT('Vertex',(17.95,17.5,0.)) ;
#342=CARTESIAN_POINT('Axis2P3D Location',(14.95,17.5,0.)) ;
#347=CARTESIAN_POINT('Axis2P3D Location',(-14.85,17.5,0.)) ;
#351=CARTESIAN_POINT('Vertex',(-17.85,17.5,0.)) ;
#354=CARTESIAN_POINT('Line Origine',(-17.85,32.,0.)) ;
#374=CARTESIAN_POINT('Axis2P3D Location',(17.95,46.5,0.)) ;
#379=CARTESIAN_POINT('Line Origine',(17.95,17.5,1.45)) ;
#384=CARTESIAN_POINT('Line Origine',(17.95,46.5,3.4)) ;
#398=CARTESIAN_POINT('Axis2P3D Location',(-17.85,19.5864111057,0.)) ;
#403=CARTESIAN_POINT('Line Origine',(-17.85,17.5,1.45)) ;
#408=CARTESIAN_POINT('Line Origine',(-17.85,46.5,3.4)) ;
#422=CARTESIAN_POINT('Axis2P3D Location',(-14.85,17.5,1.45)) ;
#434=CARTESIAN_POINT('Axis2P3D Location',(14.95,17.5,1.45)) ;
#446=CARTESIAN_POINT('Axis2P3D Location',(0.05,-2.32202371881,3.4)) ;
#53=DIRECTION('Axis2P3D Direction',(0.,0.,1.)) ;
#54=DIRECTION('Axis2P3D XDirection',(1.,0.,0.)) ;
#58=DIRECTION('Vector Direction',(0.,1.,0.)) ;
#67=DIRECTION('Axis2P3D Direction',(0.,0.,1.)) ;
#74=DIRECTION('Vector Direction',(-1.,0.,0.)) ;
#81=DIRECTION('Axis2P3D Direction',(0.,0.,1.)) ;
#88=DIRECTION('Vector Direction',(-1.,0.,0.)) ;
#95=DIRECTION('Axis2P3D Direction',(0.,0.,1.)) ;
#102=DIRECTION('Vector Direction',(0.,-1.,0.)) ;
#109=DIRECTION('Axis2P3D Direction',(0.,0.,1.)) ;
#124=DIRECTION('Axis2P3D Direction',(0.,0.,1.)) ;
#133=DIRECTION('Axis2P3D Direction',(0.,0.,1.)) ;
#143=DIRECTION('Axis2P3D Direction',(-2.97254419883E-016,1.,0.)) ;
#144=DIRECTION('Axis2P3D XDirection',(-1.,-2.97254419883E-016,0.)) ;
#148=DIRECTION('Vector Direction',(0.,0.,1.)) ;
#155=DIRECTION('Vector Direction',(-1.,-2.97254419883E-016,0.)) ;
#162=DIRECTION('Vector Direction',(0.,0.,1.)) ;
#174=DIRECTION('Axis2P3D Direction',(0.,0.,1.)) ;
#175=DIRECTION('Axis2P3D XDirection',(0.522007039685,0.852941176471,0.)) ;
#179=DIRECTION('Axis2P3D Direction',(0.,0.,1.)) ;
#186=DIRECTION('Vector Direction',(0.,0.,1.)) ;
#198=DIRECTION('Vector Direction',(-1.,-2.92362051963E-016,0.)) ;
#205=DIRECTION('Vector Direction',(0.,0.,1.)) ;
#217=DIRECTION('Axis2P3D Direction',(0.,0.,1.)) ;
#218=DIRECTION('Axis2P3D XDirection',(1.,0.,0.)) ;
#222=DIRECTION('Vector Direction',(0.,0.,1.)) ;
#229=DIRECTION('Axis2P3D Direction',(0.,0.,1.)) ;
#236=DIRECTION('Vector Direction',(0.,0.,1.)) ;
#248=DIRECTION('Axis2P3D Direction',(0.,0.,1.)) ;
#260=DIRECTION('Axis2P3D Direction',(0.,0.,1.)) ;
#261=DIRECTION('Axis2P3D XDirection',(1.,0.,0.)) ;
#265=DIRECTION('Vector Direction',(0.,-1.,0.)) ;
#274=DIRECTION('Axis2P3D Direction',(0.,0.,1.)) ;
#281=DIRECTION('Vector Direction',(0.,1.,0.)) ;
#288=DIRECTION('Axis2P3D Direction',(0.,0.,1.)) ;
#300=DIRECTION('Axis2P3D Direction',(0.,0.,1.)) ;
#301=DIRECTION('Axis2P3D XDirection',(0.677358490566,0.735653094371,0.)) ;
#305=DIRECTION('Vector Direction',(0.,0.,1.)) ;
#310=DIRECTION('Vector Direction',(0.,0.,1.)) ;
#322=DIRECTION('Axis2P3D Direction',(0.,0.,1.)) ;
#323=DIRECTION('Axis2P3D XDirection',(1.,0.,0.)) ;
#327=DIRECTION('Axis2P3D Direction',(0.,0.,1.)) ;
#336=DIRECTION('Vector Direction',(-1.22507368235E-016,-1.,0.)) ;
#343=DIRECTION('Axis2P3D Direction',(0.,0.,1.)) ;
#348=DIRECTION('Axis2P3D Direction',(0.,0.,1.)) ;
#355=DIRECTION('Vector Direction',(0.,1.,0.)) ;
#375=DIRECTION('Axis2P3D Direction',(-1.,1.31556685372E-016,0.)) ;
#376=DIRECTION('Axis2P3D XDirection',(-1.31556685372E-016,-1.,0.)) ;
#380=DIRECTION('Vector Direction',(0.,0.,1.)) ;
#385=DIRECTION('Vector Direction',(0.,0.,1.)) ;
#399=DIRECTION('Axis2P3D Direction',(1.,0.,0.)) ;
#400=DIRECTION('Axis2P3D XDirection',(0.,1.,0.)) ;
#404=DIRECTION('Vector Direction',(0.,0.,1.)) ;
#409=DIRECTION('Vector Direction',(0.,0.,1.)) ;
#423=DIRECTION('Axis2P3D Direction',(0.,0.,1.)) ;
#424=DIRECTION('Axis2P3D XDirection',(-1.,1.22464679915E-016,0.)) ;
#435=DIRECTION('Axis2P3D Direction',(0.,0.,1.)) ;
#436=DIRECTION('Axis2P3D XDirection',(-1.83697019872E-016,-1.,-0.)) ;
#447=DIRECTION('Axis2P3D Direction',(0.,0.,1.)) ;
#448=DIRECTION('Axis2P3D XDirection',(0.344230769231,0.938885071516,0.)) ;
#48=AXIS2_PLACEMENT_3D(' ',#47,$,$) ;
#55=AXIS2_PLACEMENT_3D('Plane Axis2P3D',#52,#53,#54) ;
#68=AXIS2_PLACEMENT_3D('Circle Axis2P3D',#66,#67,$) ;
#82=AXIS2_PLACEMENT_3D('Circle Axis2P3D',#80,#81,$) ;
#96=AXIS2_PLACEMENT_3D('Circle Axis2P3D',#94,#95,$) ;
#110=AXIS2_PLACEMENT_3D('Circle Axis2P3D',#108,#109,$) ;
#125=AXIS2_PLACEMENT_3D('Circle Axis2P3D',#123,#124,$) ;
#134=AXIS2_PLACEMENT_3D('Circle Axis2P3D',#132,#133,$) ;
#145=AXIS2_PLACEMENT_3D('Plane Axis2P3D',#142,#143,#144) ;
#176=AXIS2_PLACEMENT_3D('Cylinder Axis2P3D',#173,#174,#175) ;
#180=AXIS2_PLACEMENT_3D('Circle Axis2P3D',#178,#179,$) ;
#219=AXIS2_PLACEMENT_3D('Cylinder Axis2P3D',#216,#217,#218) ;
#230=AXIS2_PLACEMENT_3D('Circle Axis2P3D',#228,#229,$) ;
#249=AXIS2_PLACEMENT_3D('Circle Axis2P3D',#247,#248,$) ;
#262=AXIS2_PLACEMENT_3D('Plane Axis2P3D',#259,#260,#261) ;
#275=AXIS2_PLACEMENT_3D('Circle Axis2P3D',#273,#274,$) ;
#289=AXIS2_PLACEMENT_3D('Circle Axis2P3D',#287,#288,$) ;
#302=AXIS2_PLACEMENT_3D('Cylinder Axis2P3D',#299,#300,#301) ;
#324=AXIS2_PLACEMENT_3D('Plane Axis2P3D',#321,#322,#323) ;
#328=AXIS2_PLACEMENT_3D('Circle Axis2P3D',#326,#327,$) ;
#344=AXIS2_PLACEMENT_3D('Circle Axis2P3D',#342,#343,$) ;
#349=AXIS2_PLACEMENT_3D('Circle Axis2P3D',#347,#348,$) ;
#377=AXIS2_PLACEMENT_3D('Plane Axis2P3D',#374,#375,#376) ;
#401=AXIS2_PLACEMENT_3D('Plane Axis2P3D',#398,#399,#400) ;
#425=AXIS2_PLACEMENT_3D('Cylinder Axis2P3D',#422,#423,#424) ;
#437=AXIS2_PLACEMENT_3D('Cylinder Axis2P3D',#434,#435,#436) ;
#449=AXIS2_PLACEMENT_3D('Cylinder Axis2P3D',#446,#447,#448) ;
#40=PRODUCT_DEFINITION_SHAPE(' ',' ',#14) ;
#31=APPROVAL_PERSON_ORGANIZATION(#25,#21,#19) ;
#25=PERSON_AND_ORGANIZATION(#22,#23) ;
#22=PERSON(' ',' ',' ',$,$,$) ;
#23=ORGANIZATION(' ',' ',' ') ;
#21=APPROVAL(#20,' ') ;
#20=APPROVAL_STATUS('not_yet_approved') ;
#19=APPROVAL_ROLE('APPROVER') ;
#13=DATE_AND_TIME(#11,#12) ;
#12=LOCAL_TIME(19,50,15.,#10) ;
#10=COORDINATED_UNIVERSAL_TIME_OFFSET(0,0,.AHEAD.) ;
#114=ORIENTED_EDGE('',*,*,#65,.T.) ;
#115=ORIENTED_EDGE('',*,*,#72,.T.) ;
#116=ORIENTED_EDGE('',*,*,#79,.T.) ;
#117=ORIENTED_EDGE('',*,*,#86,.T.) ;
#118=ORIENTED_EDGE('',*,*,#93,.T.) ;
#119=ORIENTED_EDGE('',*,*,#100,.T.) ;
#120=ORIENTED_EDGE('',*,*,#107,.T.) ;
#121=ORIENTED_EDGE('',*,*,#112,.T.) ;
#138=ORIENTED_EDGE('',*,*,#131,.F.) ;
#139=ORIENTED_EDGE('',*,*,#136,.F.) ;
#167=ORIENTED_EDGE('',*,*,#153,.F.) ;
#168=ORIENTED_EDGE('',*,*,#160,.T.) ;
#169=ORIENTED_EDGE('',*,*,#165,.T.) ;
#170=ORIENTED_EDGE('',*,*,#79,.F.) ;
#191=ORIENTED_EDGE('',*,*,#165,.F.) ;
#192=ORIENTED_EDGE('',*,*,#184,.T.) ;
#193=ORIENTED_EDGE('',*,*,#189,.T.) ;
#194=ORIENTED_EDGE('',*,*,#86,.F.) ;
#210=ORIENTED_EDGE('',*,*,#189,.F.) ;
#211=ORIENTED_EDGE('',*,*,#203,.T.) ;
#212=ORIENTED_EDGE('',*,*,#208,.T.) ;
#213=ORIENTED_EDGE('',*,*,#93,.F.) ;
#241=ORIENTED_EDGE('',*,*,#131,.T.) ;
#242=ORIENTED_EDGE('',*,*,#227,.F.) ;
#243=ORIENTED_EDGE('',*,*,#234,.F.) ;
#244=ORIENTED_EDGE('',*,*,#239,.T.) ;
#253=ORIENTED_EDGE('',*,*,#136,.T.) ;
#254=ORIENTED_EDGE('',*,*,#239,.F.) ;
#255=ORIENTED_EDGE('',*,*,#251,.F.) ;
#256=ORIENTED_EDGE('',*,*,#227,.T.) ;
#293=ORIENTED_EDGE('',*,*,#272,.T.) ;
#294=ORIENTED_EDGE('',*,*,#279,.T.) ;
#295=ORIENTED_EDGE('',*,*,#286,.T.) ;
#296=ORIENTED_EDGE('',*,*,#291,.F.) ;
#315=ORIENTED_EDGE('',*,*,#112,.F.) ;
#316=ORIENTED_EDGE('',*,*,#308,.T.) ;
#317=ORIENTED_EDGE('',*,*,#291,.T.) ;
#318=ORIENTED_EDGE('',*,*,#313,.F.) ;
#360=ORIENTED_EDGE('',*,*,#334,.F.) ;
#361=ORIENTED_EDGE('',*,*,#341,.F.) ;
#362=ORIENTED_EDGE('',*,*,#346,.F.) ;
#363=ORIENTED_EDGE('',*,*,#203,.F.) ;
#364=ORIENTED_EDGE('',*,*,#184,.F.) ;
#365=ORIENTED_EDGE('',*,*,#160,.F.) ;
#366=ORIENTED_EDGE('',*,*,#353,.F.) ;
#367=ORIENTED_EDGE('',*,*,#358,.F.) ;
#370=ORIENTED_EDGE('',*,*,#251,.T.) ;
#371=ORIENTED_EDGE('',*,*,#234,.T.) ;
#390=ORIENTED_EDGE('',*,*,#383,.F.) ;
#391=ORIENTED_EDGE('',*,*,#341,.T.) ;
#392=ORIENTED_EDGE('',*,*,#388,.T.) ;
#393=ORIENTED_EDGE('',*,*,#272,.F.) ;
#394=ORIENTED_EDGE('',*,*,#308,.F.) ;
#395=ORIENTED_EDGE('',*,*,#107,.F.) ;
#414=ORIENTED_EDGE('',*,*,#358,.T.) ;
#415=ORIENTED_EDGE('',*,*,#407,.T.) ;
#416=ORIENTED_EDGE('',*,*,#65,.F.) ;
#417=ORIENTED_EDGE('',*,*,#313,.T.) ;
#418=ORIENTED_EDGE('',*,*,#286,.F.) ;
#419=ORIENTED_EDGE('',*,*,#412,.F.) ;
#428=ORIENTED_EDGE('',*,*,#407,.F.) ;
#429=ORIENTED_EDGE('',*,*,#353,.T.) ;
#430=ORIENTED_EDGE('',*,*,#153,.T.) ;
#431=ORIENTED_EDGE('',*,*,#72,.F.) ;
#440=ORIENTED_EDGE('',*,*,#208,.F.) ;
#441=ORIENTED_EDGE('',*,*,#346,.T.) ;
#442=ORIENTED_EDGE('',*,*,#383,.T.) ;
#443=ORIENTED_EDGE('',*,*,#100,.F.) ;
#452=ORIENTED_EDGE('',*,*,#388,.F.) ;
#453=ORIENTED_EDGE('',*,*,#334,.T.) ;
#454=ORIENTED_EDGE('',*,*,#412,.T.) ;
#455=ORIENTED_EDGE('',*,*,#279,.F.) ;
#140=FACE_BOUND('',#137,.T.) ;
#372=FACE_BOUND('',#369,.T.) ;
#51=CLOSED_SHELL('Closed Shell',(#141,#172,#196,#215,#246,#258,#298,#320,#373,#397,#421,#433,#445,#457)) ;
#59=VECTOR('Line Direction',#58,1.) ;
#75=VECTOR('Line Direction',#74,1.) ;
#89=VECTOR('Line Direction',#88,1.) ;
#103=VECTOR('Line Direction',#102,1.) ;
#149=VECTOR('Line Direction',#148,1.) ;
#156=VECTOR('Line Direction',#155,1.) ;
#163=VECTOR('Line Direction',#162,1.) ;
#187=VECTOR('Line Direction',#186,1.) ;
#199=VECTOR('Line Direction',#198,1.) ;
#206=VECTOR('Line Direction',#205,1.) ;
#223=VECTOR('Line Direction',#222,1.) ;
#237=VECTOR('Line Direction',#236,1.) ;
#266=VECTOR('Line Direction',#265,1.) ;
#282=VECTOR('Line Direction',#281,1.) ;
#306=VECTOR('Line Direction',#305,1.) ;
#311=VECTOR('Line Direction',#310,1.) ;
#337=VECTOR('Line Direction',#336,1.) ;
#356=VECTOR('Line Direction',#355,1.) ;
#381=VECTOR('Line Direction',#380,1.) ;
#386=VECTOR('Line Direction',#385,1.) ;
#405=VECTOR('Line Direction',#404,1.) ;
#410=VECTOR('Line Direction',#409,1.) ;
#459=ADVANCED_BREP_SHAPE_REPRESENTATION('NONE',(#458),#46) ;
#49=SHAPE_REPRESENTATION(' ',(#48),#46) ;
#141=ADVANCED_FACE('PartBody',(#122,#140),#56,.T.) ;
#172=ADVANCED_FACE('PartBody',(#171),#146,.F.) ;
#196=ADVANCED_FACE('PartBody',(#195),#177,.F.) ;
#215=ADVANCED_FACE('PartBody',(#214),#146,.F.) ;
#246=ADVANCED_FACE('PartBody',(#245),#220,.F.) ;
#258=ADVANCED_FACE('PartBody',(#257),#220,.F.) ;
#298=ADVANCED_FACE('PartBody',(#297),#263,.T.) ;
#320=ADVANCED_FACE('PartBody',(#319),#303,.F.) ;
#373=ADVANCED_FACE('PartBody',(#368,#372),#325,.F.) ;
#397=ADVANCED_FACE('PartBody',(#396),#378,.F.) ;
#421=ADVANCED_FACE('PartBody',(#420),#402,.F.) ;
#433=ADVANCED_FACE('PartBody',(#432),#426,.T.) ;
#445=ADVANCED_FACE('PartBody',(#444),#438,.T.) ;
#457=ADVANCED_FACE('PartBody',(#456),#450,.T.) ;
#4=APPLICATION_PROTOCOL_DEFINITION('international standard','config_control_design',1994,#1) ;
#32=APPROVAL_DATE_TIME(#13,#21) ;
#458=MANIFOLD_SOLID_BREP('PartBody',#51) ;
#11=CALENDAR_DATE(2026,15,1) ;
#30=CC_DESIGN_APPROVAL(#21,(#16,#6,#14)) ;
#18=CC_DESIGN_DATE_AND_TIME_ASSIGNMENT(#13,#17,(#16)) ;
#29=CC_DESIGN_DATE_AND_TIME_ASSIGNMENT(#13,#28,(#14)) ;
#17=DATE_TIME_ROLE('classification_date') ;
#28=DATE_TIME_ROLE('creation_date') ;
#27=CC_DESIGN_PERSON_AND_ORGANIZATION_ASSIGNMENT(#25,#26,(#16)) ;
#33=CC_DESIGN_PERSON_AND_ORGANIZATION_ASSIGNMENT(#25,#34,(#6)) ;
#35=CC_DESIGN_PERSON_AND_ORGANIZATION_ASSIGNMENT(#25,#36,(#6,#14)) ;
#37=CC_DESIGN_PERSON_AND_ORGANIZATION_ASSIGNMENT(#25,#38,(#5)) ;
#26=PERSON_AND_ORGANIZATION_ROLE('classification_officer') ;
#34=PERSON_AND_ORGANIZATION_ROLE('design_supplier') ;
#36=PERSON_AND_ORGANIZATION_ROLE('creator') ;
#38=PERSON_AND_ORGANIZATION_ROLE('design_owner') ;
#39=CC_DESIGN_SECURITY_CLASSIFICATION(#16,(#6)) ;
#69=CIRCLE('generated circle',#68,3.) ;
#83=CIRCLE('generated circle',#82,17.) ;
#97=CIRCLE('generated circle',#96,3.) ;
#111=CIRCLE('generated circle',#110,26.5) ;
#126=CIRCLE('generated circle',#125,2.2) ;
#135=CIRCLE('generated circle',#134,2.2) ;
#181=CIRCLE('generated circle',#180,17.) ;
#231=CIRCLE('generated circle',#230,2.2) ;
#250=CIRCLE('generated circle',#249,2.2) ;
#276=CIRCLE('generated circle',#275,52.) ;
#290=CIRCLE('generated circle',#289,26.5) ;
#329=CIRCLE('generated circle',#328,52.) ;
#345=CIRCLE('generated circle',#344,3.) ;
#350=CIRCLE('generated circle',#349,3.) ;
#460=SHAPE_REPRESENTATION_RELATIONSHIP(' ',' ',#49,#459) ;
#177=CYLINDRICAL_SURFACE('generated cylinder',#176,17.) ;
#220=CYLINDRICAL_SURFACE('generated cylinder',#219,2.2) ;
#303=CYLINDRICAL_SURFACE('generated cylinder',#302,26.5) ;
#426=CYLINDRICAL_SURFACE('generated cylinder',#425,3.) ;
#438=CYLINDRICAL_SURFACE('generated cylinder',#437,3.) ;
#450=CYLINDRICAL_SURFACE('generated cylinder',#449,52.) ;
#3=DESIGN_CONTEXT(' ',#1,'design') ;
#65=EDGE_CURVE('',#62,#64,#60,.F.) ;
#72=EDGE_CURVE('',#64,#71,#69,.T.) ;
#79=EDGE_CURVE('',#71,#78,#76,.F.) ;
#86=EDGE_CURVE('',#78,#85,#83,.F.) ;
#93=EDGE_CURVE('',#85,#92,#90,.F.) ;
#100=EDGE_CURVE('',#92,#99,#97,.T.) ;
#107=EDGE_CURVE('',#99,#106,#104,.F.) ;
#112=EDGE_CURVE('',#106,#62,#111,.T.) ;
#131=EDGE_CURVE('',#128,#130,#126,.T.) ;
#136=EDGE_CURVE('',#130,#128,#135,.T.) ;
#153=EDGE_CURVE('',#152,#71,#150,.T.) ;
#160=EDGE_CURVE('',#152,#159,#157,.F.) ;
#165=EDGE_CURVE('',#159,#78,#164,.T.) ;
#184=EDGE_CURVE('',#159,#183,#181,.F.) ;
#189=EDGE_CURVE('',#183,#85,#188,.T.) ;
#203=EDGE_CURVE('',#183,#202,#200,.F.) ;
#208=EDGE_CURVE('',#202,#92,#207,.T.) ;
#227=EDGE_CURVE('',#226,#130,#224,.T.) ;
#234=EDGE_CURVE('',#233,#226,#231,.T.) ;
#239=EDGE_CURVE('',#233,#128,#238,.T.) ;
#251=EDGE_CURVE('',#226,#233,#250,.T.) ;
#272=EDGE_CURVE('',#269,#271,#267,.F.) ;
#279=EDGE_CURVE('',#271,#278,#276,.T.) ;
#286=EDGE_CURVE('',#278,#285,#283,.F.) ;
#291=EDGE_CURVE('',#269,#285,#290,.T.) ;
#308=EDGE_CURVE('',#106,#269,#307,.T.) ;
#313=EDGE_CURVE('',#62,#285,#312,.T.) ;
#334=EDGE_CURVE('',#331,#333,#329,.T.) ;
#341=EDGE_CURVE('',#340,#331,#338,.F.) ;
#346=EDGE_CURVE('',#202,#340,#345,.T.) ;
#353=EDGE_CURVE('',#352,#152,#350,.T.) ;
#358=EDGE_CURVE('',#333,#352,#357,.F.) ;
#383=EDGE_CURVE('',#340,#99,#382,.T.) ;
#388=EDGE_CURVE('',#331,#271,#387,.T.) ;
#407=EDGE_CURVE('',#352,#64,#406,.T.) ;
#412=EDGE_CURVE('',#333,#278,#411,.T.) ;
#113=EDGE_LOOP('',(#114,#115,#116,#117,#118,#119,#120,#121)) ;
#137=EDGE_LOOP('',(#138,#139)) ;
#166=EDGE_LOOP('',(#167,#168,#169,#170)) ;
#190=EDGE_LOOP('',(#191,#192,#193,#194)) ;
#209=EDGE_LOOP('',(#210,#211,#212,#213)) ;
#240=EDGE_LOOP('',(#241,#242,#243,#244)) ;
#252=EDGE_LOOP('',(#253,#254,#255,#256)) ;
#292=EDGE_LOOP('',(#293,#294,#295,#296)) ;
#314=EDGE_LOOP('',(#315,#316,#317,#318)) ;
#359=EDGE_LOOP('',(#360,#361,#362,#363,#364,#365,#366,#367)) ;
#369=EDGE_LOOP('',(#370,#371)) ;
#389=EDGE_LOOP('',(#390,#391,#392,#393,#394,#395)) ;
#413=EDGE_LOOP('',(#414,#415,#416,#417,#418,#419)) ;
#427=EDGE_LOOP('',(#428,#429,#430,#431)) ;
#439=EDGE_LOOP('',(#440,#441,#442,#443)) ;
#451=EDGE_LOOP('',(#452,#453,#454,#455)) ;
#122=FACE_OUTER_BOUND('',#113,.T.) ;
#171=FACE_OUTER_BOUND('',#166,.T.) ;
#195=FACE_OUTER_BOUND('',#190,.T.) ;
#214=FACE_OUTER_BOUND('',#209,.T.) ;
#245=FACE_OUTER_BOUND('',#240,.T.) ;
#257=FACE_OUTER_BOUND('',#252,.T.) ;
#297=FACE_OUTER_BOUND('',#292,.T.) ;
#319=FACE_OUTER_BOUND('',#314,.T.) ;
#368=FACE_OUTER_BOUND('',#359,.T.) ;
#396=FACE_OUTER_BOUND('',#389,.T.) ;
#420=FACE_OUTER_BOUND('',#413,.T.) ;
#432=FACE_OUTER_BOUND('',#427,.T.) ;
#444=FACE_OUTER_BOUND('',#439,.T.) ;
#456=FACE_OUTER_BOUND('',#451,.T.) ;
#45=UNCERTAINTY_MEASURE_WITH_UNIT(LENGTH_MEASURE(0.005),#41,'distance_accuracy_value','CONFUSED CURVE UNCERTAINTY') ;
#60=LINE('Line',#57,#59) ;
#76=LINE('Line',#73,#75) ;
#90=LINE('Line',#87,#89) ;
#104=LINE('Line',#101,#103) ;
#150=LINE('Line',#147,#149) ;
#157=LINE('Line',#154,#156) ;
#164=LINE('Line',#161,#163) ;
#188=LINE('Line',#185,#187) ;
#200=LINE('Line',#197,#199) ;
#207=LINE('Line',#204,#206) ;
#224=LINE('Line',#221,#223) ;
#238=LINE('Line',#235,#237) ;
#267=LINE('Line',#264,#266) ;
#283=LINE('Line',#280,#282) ;
#307=LINE('Line',#304,#306) ;
#312=LINE('Line',#309,#311) ;
#338=LINE('Line',#335,#337) ;
#357=LINE('Line',#354,#356) ;
#382=LINE('Line',#379,#381) ;
#387=LINE('Line',#384,#386) ;
#406=LINE('Line',#403,#405) ;
#411=LINE('Line',#408,#410) ;
#2=MECHANICAL_CONTEXT(' ',#1,'mechanical') ;
#24=PERSONAL_ADDRESS(' ',' ',' ',' ',' ',' ',' ',' ',' ',' ',' ',' ',(#22),' ') ;
#56=PLANE('Plane',#55) ;
#146=PLANE('Plane',#145) ;
#263=PLANE('Plane',#262) ;
#325=PLANE('Plane',#324) ;
#378=PLANE('Plane',#377) ;
#402=PLANE('Plane',#401) ;
#43=PLANE_ANGLE_MEASURE_WITH_UNIT(PLANE_ANGLE_MEASURE(0.0174532925199),#42) ;
#7=PRODUCT_CATEGORY('part',$) ;
#9=PRODUCT_CATEGORY_RELATIONSHIP(' ',' ',#7,#8) ;
#6=PRODUCT_DEFINITION_FORMATION_WITH_SPECIFIED_SOURCE('',' ',#5,.NOT_KNOWN.) ;
#8=PRODUCT_RELATED_PRODUCT_CATEGORY('detail',$,(#5)) ;
#50=SHAPE_DEFINITION_REPRESENTATION(#40,#49) ;
#62=VERTEX_POINT('',#61) ;
#64=VERTEX_POINT('',#63) ;
#71=VERTEX_POINT('',#70) ;
#78=VERTEX_POINT('',#77) ;
#85=VERTEX_POINT('',#84) ;
#92=VERTEX_POINT('',#91) ;
#99=VERTEX_POINT('',#98) ;
#106=VERTEX_POINT('',#105) ;
#128=VERTEX_POINT('',#127) ;
#130=VERTEX_POINT('',#129) ;
#152=VERTEX_POINT('',#151) ;
#159=VERTEX_POINT('',#158) ;
#183=VERTEX_POINT('',#182) ;
#202=VERTEX_POINT('',#201) ;
#226=VERTEX_POINT('',#225) ;
#233=VERTEX_POINT('',#232) ;
#269=VERTEX_POINT('',#268) ;
#271=VERTEX_POINT('',#270) ;
#278=VERTEX_POINT('',#277) ;
#285=VERTEX_POINT('',#284) ;
#331=VERTEX_POINT('',#330) ;
#333=VERTEX_POINT('',#332) ;
#340=VERTEX_POINT('',#339) ;
#352=VERTEX_POINT('',#351) ;
#41=(LENGTH_UNIT()NAMED_UNIT(*)SI_UNIT(.MILLI.,.METRE.)) ;
#42=(NAMED_UNIT(*)PLANE_ANGLE_UNIT()SI_UNIT($,.RADIAN.)) ;
#44=(NAMED_UNIT(*)SI_UNIT($,.STERADIAN.)SOLID_ANGLE_UNIT()) ;
#46=(GEOMETRIC_REPRESENTATION_CONTEXT(3)GLOBAL_UNCERTAINTY_ASSIGNED_CONTEXT((#45))GLOBAL_UNIT_ASSIGNED_CONTEXT((#41,#42,#44))REPRESENTATION_CONTEXT(' ',' ')) ;
ENDSEC;
END-ISO-10303-21;
