solid CATIA STL
  facet normal  0.000000e+000  0.000000e+000 -1.000000e+000
    outer loop
      vertex -7.000000e+000 -2.000000e+001  9.814760e+002
      vertex -7.000000e+000 -1.250000e+001  9.814760e+002
      vertex -9.352347e-001 -1.667275e+001  9.814760e+002
    endloop
  endfacet
  facet normal  0.000000e+000  -0.000000e+000 -1.000000e+000
    outer loop
      vertex -7.000000e+000 -2.000000e+001  9.814760e+002
      vertex -9.352347e-001 -1.667275e+001  9.814760e+002
      vertex -6.508256e-001 -1.685145e+001  9.814760e+002
    endloop
  endfacet
  facet normal  0.000000e+000  -0.000000e+000 -1.000000e+000
    outer loop
      vertex -7.000000e+000 -2.000000e+001  9.814760e+002
      vertex -6.508256e-001 -1.685145e+001  9.814760e+002
      vertex -3.337814e-001 -1.696239e+001  9.814760e+002
    endloop
  endfacet
  facet normal  0.000000e+000  -0.000000e+000 -1.000000e+000
    outer loop
      vertex -7.000000e+000 -2.000000e+001  9.814760e+002
      vertex -3.337814e-001 -1.696239e+001  9.814760e+002
      vertex  9.184851e-017 -1.700000e+001  9.814760e+002
    endloop
  endfacet
  facet normal  0.000000e+000  -0.000000e+000 -1.000000e+000
    outer loop
      vertex -7.000000e+000 -2.000000e+001  9.814760e+002
      vertex  9.184851e-017 -1.700000e+001  9.814760e+002
      vertex  7.000000e+000 -2.000000e+001  9.814760e+002
    endloop
  endfacet
  facet normal  -0.000000e+000  0.000000e+000 -1.000000e+000
    outer loop
      vertex -7.000000e+000 -1.250000e+001  9.814760e+002
      vertex  7.000000e+000 -1.250000e+001  9.814760e+002
      vertex -2.755455e-016 -1.400000e+001  9.814760e+002
    endloop
  endfacet
  facet normal  -0.000000e+000  0.000000e+000 -1.000000e+000
    outer loop
      vertex -7.000000e+000 -1.250000e+001  9.814760e+002
      vertex -2.755455e-016 -1.400000e+001  9.814760e+002
      vertex -3.337814e-001 -1.403761e+001  9.814760e+002
    endloop
  endfacet
  facet normal  -0.000000e+000  0.000000e+000 -1.000000e+000
    outer loop
      vertex -7.000000e+000 -1.250000e+001  9.814760e+002
      vertex -3.337814e-001 -1.403761e+001  9.814760e+002
      vertex -6.508256e-001 -1.414855e+001  9.814760e+002
    endloop
  endfacet
  facet normal  -0.000000e+000  0.000000e+000 -1.000000e+000
    outer loop
      vertex -7.000000e+000 -1.250000e+001  9.814760e+002
      vertex -6.508256e-001 -1.414855e+001  9.814760e+002
      vertex -9.352347e-001 -1.432725e+001  9.814760e+002
    endloop
  endfacet
  facet normal  -0.000000e+000  0.000000e+000 -1.000000e+000
    outer loop
      vertex -7.000000e+000 -1.250000e+001  9.814760e+002
      vertex -9.352347e-001 -1.432725e+001  9.814760e+002
      vertex -1.172747e+000 -1.456476e+001  9.814760e+002
    endloop
  endfacet
  facet normal  -0.000000e+000  0.000000e+000 -1.000000e+000
    outer loop
      vertex -7.000000e+000 -1.250000e+001  9.814760e+002
      vertex -1.172747e+000 -1.456476e+001  9.814760e+002
      vertex -1.351453e+000 -1.484917e+001  9.814760e+002
    endloop
  endfacet
  facet normal  -0.000000e+000  0.000000e+000 -1.000000e+000
    outer loop
      vertex -7.000000e+000 -1.250000e+001  9.814760e+002
      vertex -1.351453e+000 -1.484917e+001  9.814760e+002
      vertex -1.462392e+000 -1.516622e+001  9.814760e+002
    endloop
  endfacet
  facet normal  -0.000000e+000  0.000000e+000 -1.000000e+000
    outer loop
      vertex -7.000000e+000 -1.250000e+001  9.814760e+002
      vertex -1.462392e+000 -1.516622e+001  9.814760e+002
      vertex -1.500000e+000 -1.550000e+001  9.814760e+002
    endloop
  endfacet
  facet normal  -0.000000e+000  -0.000000e+000 -1.000000e+000
    outer loop
      vertex -7.000000e+000 -1.250000e+001  9.814760e+002
      vertex -1.500000e+000 -1.550000e+001  9.814760e+002
      vertex -1.462392e+000 -1.583378e+001  9.814760e+002
    endloop
  endfacet
  facet normal  -0.000000e+000  -0.000000e+000 -1.000000e+000
    outer loop
      vertex -7.000000e+000 -1.250000e+001  9.814760e+002
      vertex -1.462392e+000 -1.583378e+001  9.814760e+002
      vertex -1.351453e+000 -1.615083e+001  9.814760e+002
    endloop
  endfacet
  facet normal  -0.000000e+000  -0.000000e+000 -9.999999e-001
    outer loop
      vertex -7.000000e+000 -1.250000e+001  9.814760e+002
      vertex -1.351453e+000 -1.615083e+001  9.814760e+002
      vertex -1.172747e+000 -1.643523e+001  9.814760e+002
    endloop
  endfacet
  facet normal  -0.000000e+000  -0.000000e+000 -1.000000e+000
    outer loop
      vertex -7.000000e+000 -1.250000e+001  9.814760e+002
      vertex -1.172747e+000 -1.643523e+001  9.814760e+002
      vertex -9.352347e-001 -1.667275e+001  9.814760e+002
    endloop
  endfacet
  facet normal  0.000000e+000  0.000000e+000 -1.000000e+000
    outer loop
      vertex  7.000000e+000 -1.250000e+001  9.814760e+002
      vertex  9.352347e-001 -1.667275e+001  9.814760e+002
      vertex  1.172747e+000 -1.643523e+001  9.814760e+002
    endloop
  endfacet
  facet normal  0.000000e+000  0.000000e+000 -9.999999e-001
    outer loop
      vertex  7.000000e+000 -1.250000e+001  9.814760e+002
      vertex  1.172747e+000 -1.643523e+001  9.814760e+002
      vertex  1.351453e+000 -1.615083e+001  9.814760e+002
    endloop
  endfacet
  facet normal  0.000000e+000  0.000000e+000 -1.000000e+000
    outer loop
      vertex  7.000000e+000 -1.250000e+001  9.814760e+002
      vertex  1.351453e+000 -1.615083e+001  9.814760e+002
      vertex  1.462392e+000 -1.583378e+001  9.814760e+002
    endloop
  endfacet
  facet normal  0.000000e+000  0.000000e+000 -1.000000e+000
    outer loop
      vertex  7.000000e+000 -1.250000e+001  9.814760e+002
      vertex  1.462392e+000 -1.583378e+001  9.814760e+002
      vertex  1.500000e+000 -1.550000e+001  9.814760e+002
    endloop
  endfacet
  facet normal  0.000000e+000  0.000000e+000 -1.000000e+000
    outer loop
      vertex  7.000000e+000 -1.250000e+001  9.814760e+002
      vertex  1.500000e+000 -1.550000e+001  9.814760e+002
      vertex  1.462392e+000 -1.516622e+001  9.814760e+002
    endloop
  endfacet
  facet normal  0.000000e+000  0.000000e+000 -1.000000e+000
    outer loop
      vertex  7.000000e+000 -1.250000e+001  9.814760e+002
      vertex  1.462392e+000 -1.516622e+001  9.814760e+002
      vertex  1.351453e+000 -1.484917e+001  9.814760e+002
    endloop
  endfacet
  facet normal  0.000000e+000  0.000000e+000 -1.000000e+000
    outer loop
      vertex  7.000000e+000 -1.250000e+001  9.814760e+002
      vertex  1.351453e+000 -1.484917e+001  9.814760e+002
      vertex  1.172747e+000 -1.456476e+001  9.814760e+002
    endloop
  endfacet
  facet normal  0.000000e+000  0.000000e+000 -1.000000e+000
    outer loop
      vertex  7.000000e+000 -1.250000e+001  9.814760e+002
      vertex  1.172747e+000 -1.456476e+001  9.814760e+002
      vertex  9.352347e-001 -1.432725e+001  9.814760e+002
    endloop
  endfacet
  facet normal  0.000000e+000  0.000000e+000 -9.999999e-001
    outer loop
      vertex  7.000000e+000 -1.250000e+001  9.814760e+002
      vertex  9.352347e-001 -1.432725e+001  9.814760e+002
      vertex  6.508256e-001 -1.414855e+001  9.814760e+002
    endloop
  endfacet
  facet normal  0.000000e+000  0.000000e+000 -1.000000e+000
    outer loop
      vertex  7.000000e+000 -1.250000e+001  9.814760e+002
      vertex  6.508256e-001 -1.414855e+001  9.814760e+002
      vertex  3.337814e-001 -1.403761e+001  9.814760e+002
    endloop
  endfacet
  facet normal  0.000000e+000  0.000000e+000 -1.000000e+000
    outer loop
      vertex  7.000000e+000 -1.250000e+001  9.814760e+002
      vertex  3.337814e-001 -1.403761e+001  9.814760e+002
      vertex -2.755455e-016 -1.400000e+001  9.814760e+002
    endloop
  endfacet
  facet normal  0.000000e+000  0.000000e+000 -1.000000e+000
    outer loop
      vertex  7.000000e+000 -2.000000e+001  9.814760e+002
      vertex  9.184851e-017 -1.700000e+001  9.814760e+002
      vertex  3.337814e-001 -1.696239e+001  9.814760e+002
    endloop
  endfacet
  facet normal  0.000000e+000  0.000000e+000 -1.000000e+000
    outer loop
      vertex  7.000000e+000 -2.000000e+001  9.814760e+002
      vertex  3.337814e-001 -1.696239e+001  9.814760e+002
      vertex  6.508256e-001 -1.685145e+001  9.814760e+002
    endloop
  endfacet
  facet normal  0.000000e+000  0.000000e+000 -1.000000e+000
    outer loop
      vertex  7.000000e+000 -2.000000e+001  9.814760e+002
      vertex  6.508256e-001 -1.685145e+001  9.814760e+002
      vertex  9.352347e-001 -1.667275e+001  9.814760e+002
    endloop
  endfacet
  facet normal  0.000000e+000  0.000000e+000 -1.000000e+000
    outer loop
      vertex  7.000000e+000 -2.000000e+001  9.814760e+002
      vertex  9.352347e-001 -1.667275e+001  9.814760e+002
      vertex  7.000000e+000 -1.250000e+001  9.814760e+002
    endloop
  endfacet
  facet normal  9.937122e-001  1.119646e-001  -0.000000e+000
    outer loop
      vertex  1.500000e+000 -1.550000e+001  9.814760e+002
      vertex  1.500000e+000 -1.550000e+001  9.789760e+002
      vertex  1.462392e+000 -1.516622e+001  9.814760e+002
    endloop
  endfacet
  facet normal  9.937122e-001  1.119646e-001  0.000000e+000
    outer loop
      vertex  1.462392e+000 -1.516622e+001  9.814760e+002
      vertex  1.500000e+000 -1.550000e+001  9.789760e+002
      vertex  1.462392e+000 -1.516622e+001  9.789760e+002
    endloop
  endfacet
  facet normal  9.438834e-001  3.302790e-001  -0.000000e+000
    outer loop
      vertex  1.462392e+000 -1.516622e+001  9.814760e+002
      vertex  1.462392e+000 -1.516622e+001  9.789760e+002
      vertex  1.351453e+000 -1.484917e+001  9.814760e+002
    endloop
  endfacet
  facet normal  9.438834e-001  3.302790e-001  0.000000e+000
    outer loop
      vertex  1.351453e+000 -1.484917e+001  9.814760e+002
      vertex  1.462392e+000 -1.516622e+001  9.789760e+002
      vertex  1.351453e+000 -1.484917e+001  9.789760e+002
    endloop
  endfacet
  facet normal  8.467246e-001  5.320314e-001  -0.000000e+000
    outer loop
      vertex  1.351453e+000 -1.484917e+001  9.814760e+002
      vertex  1.351453e+000 -1.484917e+001  9.789760e+002
      vertex  1.172747e+000 -1.456476e+001  9.814760e+002
    endloop
  endfacet
  facet normal  8.467246e-001  5.320314e-001  0.000000e+000
    outer loop
      vertex  1.172747e+000 -1.456476e+001  9.814760e+002
      vertex  1.351453e+000 -1.484917e+001  9.789760e+002
      vertex  1.172747e+000 -1.456476e+001  9.789760e+002
    endloop
  endfacet
  facet normal  7.071069e-001  7.071067e-001  -0.000000e+000
    outer loop
      vertex  1.172747e+000 -1.456476e+001  9.814760e+002
      vertex  1.172747e+000 -1.456476e+001  9.789760e+002
      vertex  9.352347e-001 -1.432725e+001  9.814760e+002
    endloop
  endfacet
  facet normal  7.071069e-001  7.071067e-001  0.000000e+000
    outer loop
      vertex  9.352347e-001 -1.432725e+001  9.814760e+002
      vertex  1.172747e+000 -1.456476e+001  9.789760e+002
      vertex  9.352347e-001 -1.432725e+001  9.789760e+002
    endloop
  endfacet
  facet normal  5.320302e-001  8.467253e-001  -0.000000e+000
    outer loop
      vertex  9.352347e-001 -1.432725e+001  9.814760e+002
      vertex  9.352347e-001 -1.432725e+001  9.789760e+002
      vertex  6.508256e-001 -1.414855e+001  9.814760e+002
    endloop
  endfacet
  facet normal  5.320302e-001  8.467253e-001  0.000000e+000
    outer loop
      vertex  6.508256e-001 -1.414855e+001  9.814760e+002
      vertex  9.352347e-001 -1.432725e+001  9.789760e+002
      vertex  6.508256e-001 -1.414855e+001  9.789760e+002
    endloop
  endfacet
  facet normal  3.302802e-001  9.438829e-001  -0.000000e+000
    outer loop
      vertex  6.508256e-001 -1.414855e+001  9.814760e+002
      vertex  6.508256e-001 -1.414855e+001  9.789760e+002
      vertex  3.337814e-001 -1.403761e+001  9.814760e+002
    endloop
  endfacet
  facet normal  3.302802e-001  9.438829e-001  0.000000e+000
    outer loop
      vertex  3.337814e-001 -1.403761e+001  9.814760e+002
      vertex  6.508256e-001 -1.414855e+001  9.789760e+002
      vertex  3.337814e-001 -1.403761e+001  9.789760e+002
    endloop
  endfacet
  facet normal  1.119645e-001  9.937122e-001  -0.000000e+000
    outer loop
      vertex  3.337814e-001 -1.403761e+001  9.814760e+002
      vertex  3.337814e-001 -1.403761e+001  9.789760e+002
      vertex -2.755455e-016 -1.400000e+001  9.814760e+002
    endloop
  endfacet
  facet normal  1.119645e-001  9.937122e-001  0.000000e+000
    outer loop
      vertex -2.755455e-016 -1.400000e+001  9.814760e+002
      vertex  3.337814e-001 -1.403761e+001  9.789760e+002
      vertex -2.755455e-016 -1.400000e+001  9.789760e+002
    endloop
  endfacet
  facet normal -1.119645e-001  9.937122e-001  0.000000e+000
    outer loop
      vertex -2.755455e-016 -1.400000e+001  9.814760e+002
      vertex -2.755455e-016 -1.400000e+001  9.789760e+002
      vertex -3.337814e-001 -1.403761e+001  9.814760e+002
    endloop
  endfacet
  facet normal -1.119645e-001  9.937122e-001  0.000000e+000
    outer loop
      vertex -3.337814e-001 -1.403761e+001  9.814760e+002
      vertex -2.755455e-016 -1.400000e+001  9.789760e+002
      vertex -3.337814e-001 -1.403761e+001  9.789760e+002
    endloop
  endfacet
  facet normal -3.302802e-001  9.438829e-001  0.000000e+000
    outer loop
      vertex -3.337814e-001 -1.403761e+001  9.814760e+002
      vertex -3.337814e-001 -1.403761e+001  9.789760e+002
      vertex -6.508256e-001 -1.414855e+001  9.814760e+002
    endloop
  endfacet
  facet normal -3.302802e-001  9.438829e-001  0.000000e+000
    outer loop
      vertex -6.508256e-001 -1.414855e+001  9.814760e+002
      vertex -3.337814e-001 -1.403761e+001  9.789760e+002
      vertex -6.508256e-001 -1.414855e+001  9.789760e+002
    endloop
  endfacet
  facet normal -5.320302e-001  8.467253e-001  0.000000e+000
    outer loop
      vertex -6.508256e-001 -1.414855e+001  9.814760e+002
      vertex -6.508256e-001 -1.414855e+001  9.789760e+002
      vertex -9.352347e-001 -1.432725e+001  9.814760e+002
    endloop
  endfacet
  facet normal -5.320302e-001  8.467253e-001  0.000000e+000
    outer loop
      vertex -9.352347e-001 -1.432725e+001  9.814760e+002
      vertex -6.508256e-001 -1.414855e+001  9.789760e+002
      vertex -9.352347e-001 -1.432725e+001  9.789760e+002
    endloop
  endfacet
  facet normal -7.071069e-001  7.071067e-001  0.000000e+000
    outer loop
      vertex -9.352347e-001 -1.432725e+001  9.814760e+002
      vertex -9.352347e-001 -1.432725e+001  9.789760e+002
      vertex -1.172747e+000 -1.456476e+001  9.814760e+002
    endloop
  endfacet
  facet normal -7.071069e-001  7.071067e-001  0.000000e+000
    outer loop
      vertex -1.172747e+000 -1.456476e+001  9.814760e+002
      vertex -9.352347e-001 -1.432725e+001  9.789760e+002
      vertex -1.172747e+000 -1.456476e+001  9.789760e+002
    endloop
  endfacet
  facet normal -8.467246e-001  5.320314e-001  0.000000e+000
    outer loop
      vertex -1.172747e+000 -1.456476e+001  9.814760e+002
      vertex -1.172747e+000 -1.456476e+001  9.789760e+002
      vertex -1.351453e+000 -1.484917e+001  9.814760e+002
    endloop
  endfacet
  facet normal -8.467246e-001  5.320314e-001  0.000000e+000
    outer loop
      vertex -1.351453e+000 -1.484917e+001  9.814760e+002
      vertex -1.172747e+000 -1.456476e+001  9.789760e+002
      vertex -1.351453e+000 -1.484917e+001  9.789760e+002
    endloop
  endfacet
  facet normal -9.438834e-001  3.302790e-001  0.000000e+000
    outer loop
      vertex -1.351453e+000 -1.484917e+001  9.814760e+002
      vertex -1.351453e+000 -1.484917e+001  9.789760e+002
      vertex -1.462392e+000 -1.516622e+001  9.814760e+002
    endloop
  endfacet
  facet normal -9.438834e-001  3.302790e-001  0.000000e+000
    outer loop
      vertex -1.462392e+000 -1.516622e+001  9.814760e+002
      vertex -1.351453e+000 -1.484917e+001  9.789760e+002
      vertex -1.462392e+000 -1.516622e+001  9.789760e+002
    endloop
  endfacet
  facet normal -9.937122e-001  1.119646e-001  0.000000e+000
    outer loop
      vertex -1.462392e+000 -1.516622e+001  9.814760e+002
      vertex -1.462392e+000 -1.516622e+001  9.789760e+002
      vertex -1.500000e+000 -1.550000e+001  9.814760e+002
    endloop
  endfacet
  facet normal -9.937122e-001  1.119646e-001  0.000000e+000
    outer loop
      vertex -1.500000e+000 -1.550000e+001  9.814760e+002
      vertex -1.462392e+000 -1.516622e+001  9.789760e+002
      vertex -1.500000e+000 -1.550000e+001  9.789760e+002
    endloop
  endfacet
  facet normal -9.937122e-001 -1.119646e-001  0.000000e+000
    outer loop
      vertex -1.500000e+000 -1.550000e+001  9.814760e+002
      vertex -1.500000e+000 -1.550000e+001  9.789760e+002
      vertex -1.462392e+000 -1.583378e+001  9.814760e+002
    endloop
  endfacet
  facet normal -9.937122e-001 -1.119646e-001  -0.000000e+000
    outer loop
      vertex -1.462392e+000 -1.583378e+001  9.814760e+002
      vertex -1.500000e+000 -1.550000e+001  9.789760e+002
      vertex -1.462392e+000 -1.583378e+001  9.789760e+002
    endloop
  endfacet
  facet normal -9.438834e-001 -3.302790e-001  0.000000e+000
    outer loop
      vertex -1.462392e+000 -1.583378e+001  9.814760e+002
      vertex -1.462392e+000 -1.583378e+001  9.789760e+002
      vertex -1.351453e+000 -1.615083e+001  9.814760e+002
    endloop
  endfacet
  facet normal -9.438834e-001 -3.302790e-001  -0.000000e+000
    outer loop
      vertex -1.351453e+000 -1.615083e+001  9.814760e+002
      vertex -1.462392e+000 -1.583378e+001  9.789760e+002
      vertex -1.351453e+000 -1.615083e+001  9.789760e+002
    endloop
  endfacet
  facet normal -8.467238e-001 -5.320327e-001  0.000000e+000
    outer loop
      vertex -1.351453e+000 -1.615083e+001  9.814760e+002
      vertex -1.351453e+000 -1.615083e+001  9.789760e+002
      vertex -1.172747e+000 -1.643523e+001  9.814760e+002
    endloop
  endfacet
  facet normal -8.467238e-001 -5.320327e-001  -0.000000e+000
    outer loop
      vertex -1.172747e+000 -1.643523e+001  9.814760e+002
      vertex -1.351453e+000 -1.615083e+001  9.789760e+002
      vertex -1.172747e+000 -1.643523e+001  9.789760e+002
    endloop
  endfacet
  facet normal -7.071069e-001 -7.071067e-001  0.000000e+000
    outer loop
      vertex -1.172747e+000 -1.643523e+001  9.814760e+002
      vertex -1.172747e+000 -1.643523e+001  9.789760e+002
      vertex -9.352347e-001 -1.667275e+001  9.814760e+002
    endloop
  endfacet
  facet normal -7.071069e-001 -7.071067e-001  -0.000000e+000
    outer loop
      vertex -9.352347e-001 -1.667275e+001  9.814760e+002
      vertex -1.172747e+000 -1.643523e+001  9.789760e+002
      vertex -9.352347e-001 -1.667275e+001  9.789760e+002
    endloop
  endfacet
  facet normal -5.320343e-001 -8.467228e-001  0.000000e+000
    outer loop
      vertex -9.352347e-001 -1.667275e+001  9.814760e+002
      vertex -9.352347e-001 -1.667275e+001  9.789760e+002
      vertex -6.508256e-001 -1.685145e+001  9.814760e+002
    endloop
  endfacet
  facet normal -5.320343e-001 -8.467228e-001  -0.000000e+000
    outer loop
      vertex -6.508256e-001 -1.685145e+001  9.814760e+002
      vertex -9.352347e-001 -1.667275e+001  9.789760e+002
      vertex -6.508256e-001 -1.685145e+001  9.789760e+002
    endloop
  endfacet
  facet normal -3.302802e-001 -9.438829e-001  0.000000e+000
    outer loop
      vertex -6.508256e-001 -1.685145e+001  9.814760e+002
      vertex -6.508256e-001 -1.685145e+001  9.789760e+002
      vertex -3.337814e-001 -1.696239e+001  9.814760e+002
    endloop
  endfacet
  facet normal -3.302802e-001 -9.438829e-001  -0.000000e+000
    outer loop
      vertex -3.337814e-001 -1.696239e+001  9.814760e+002
      vertex -6.508256e-001 -1.685145e+001  9.789760e+002
      vertex -3.337814e-001 -1.696239e+001  9.789760e+002
    endloop
  endfacet
  facet normal -1.119617e-001 -9.937125e-001  0.000000e+000
    outer loop
      vertex -3.337814e-001 -1.696239e+001  9.814760e+002
      vertex -3.337814e-001 -1.696239e+001  9.789760e+002
      vertex  9.184851e-017 -1.700000e+001  9.814760e+002
    endloop
  endfacet
  facet normal -1.119617e-001 -9.937125e-001  -0.000000e+000
    outer loop
      vertex  9.184851e-017 -1.700000e+001  9.814760e+002
      vertex -3.337814e-001 -1.696239e+001  9.789760e+002
      vertex  9.184851e-017 -1.700000e+001  9.789760e+002
    endloop
  endfacet
  facet normal  1.119617e-001 -9.937125e-001  0.000000e+000
    outer loop
      vertex  9.184851e-017 -1.700000e+001  9.814760e+002
      vertex  9.184851e-017 -1.700000e+001  9.789760e+002
      vertex  3.337814e-001 -1.696239e+001  9.814760e+002
    endloop
  endfacet
  facet normal  1.119617e-001 -9.937125e-001  0.000000e+000
    outer loop
      vertex  3.337814e-001 -1.696239e+001  9.814760e+002
      vertex  9.184851e-017 -1.700000e+001  9.789760e+002
      vertex  3.337814e-001 -1.696239e+001  9.789760e+002
    endloop
  endfacet
  facet normal  3.302802e-001 -9.438829e-001  0.000000e+000
    outer loop
      vertex  3.337814e-001 -1.696239e+001  9.814760e+002
      vertex  3.337814e-001 -1.696239e+001  9.789760e+002
      vertex  6.508256e-001 -1.685145e+001  9.814760e+002
    endloop
  endfacet
  facet normal  3.302802e-001 -9.438829e-001  0.000000e+000
    outer loop
      vertex  6.508256e-001 -1.685145e+001  9.814760e+002
      vertex  3.337814e-001 -1.696239e+001  9.789760e+002
      vertex  6.508256e-001 -1.685145e+001  9.789760e+002
    endloop
  endfacet
  facet normal  5.320343e-001 -8.467228e-001  0.000000e+000
    outer loop
      vertex  6.508256e-001 -1.685145e+001  9.814760e+002
      vertex  6.508256e-001 -1.685145e+001  9.789760e+002
      vertex  9.352347e-001 -1.667275e+001  9.814760e+002
    endloop
  endfacet
  facet normal  5.320343e-001 -8.467228e-001  0.000000e+000
    outer loop
      vertex  9.352347e-001 -1.667275e+001  9.814760e+002
      vertex  6.508256e-001 -1.685145e+001  9.789760e+002
      vertex  9.352347e-001 -1.667275e+001  9.789760e+002
    endloop
  endfacet
  facet normal  7.071069e-001 -7.071067e-001  0.000000e+000
    outer loop
      vertex  9.352347e-001 -1.667275e+001  9.814760e+002
      vertex  9.352347e-001 -1.667275e+001  9.789760e+002
      vertex  1.172747e+000 -1.643523e+001  9.814760e+002
    endloop
  endfacet
  facet normal  7.071069e-001 -7.071067e-001  0.000000e+000
    outer loop
      vertex  1.172747e+000 -1.643523e+001  9.814760e+002
      vertex  9.352347e-001 -1.667275e+001  9.789760e+002
      vertex  1.172747e+000 -1.643523e+001  9.789760e+002
    endloop
  endfacet
  facet normal  8.467238e-001 -5.320327e-001  0.000000e+000
    outer loop
      vertex  1.172747e+000 -1.643523e+001  9.814760e+002
      vertex  1.172747e+000 -1.643523e+001  9.789760e+002
      vertex  1.351453e+000 -1.615083e+001  9.814760e+002
    endloop
  endfacet
  facet normal  8.467238e-001 -5.320327e-001  0.000000e+000
    outer loop
      vertex  1.351453e+000 -1.615083e+001  9.814760e+002
      vertex  1.172747e+000 -1.643523e+001  9.789760e+002
      vertex  1.351453e+000 -1.615083e+001  9.789760e+002
    endloop
  endfacet
  facet normal  9.438834e-001 -3.302790e-001  0.000000e+000
    outer loop
      vertex  1.351453e+000 -1.615083e+001  9.814760e+002
      vertex  1.351453e+000 -1.615083e+001  9.789760e+002
      vertex  1.462392e+000 -1.583378e+001  9.814760e+002
    endloop
  endfacet
  facet normal  9.438834e-001 -3.302790e-001  0.000000e+000
    outer loop
      vertex  1.462392e+000 -1.583378e+001  9.814760e+002
      vertex  1.351453e+000 -1.615083e+001  9.789760e+002
      vertex  1.462392e+000 -1.583378e+001  9.789760e+002
    endloop
  endfacet
  facet normal  9.937122e-001 -1.119646e-001  0.000000e+000
    outer loop
      vertex  1.462392e+000 -1.583378e+001  9.814760e+002
      vertex  1.462392e+000 -1.583378e+001  9.789760e+002
      vertex  1.500000e+000 -1.550000e+001  9.814760e+002
    endloop
  endfacet
  facet normal  9.937122e-001 -1.119646e-001  0.000000e+000
    outer loop
      vertex  1.500000e+000 -1.550000e+001  9.814760e+002
      vertex  1.462392e+000 -1.583378e+001  9.789760e+002
      vertex  1.500000e+000 -1.550000e+001  9.789760e+002
    endloop
  endfacet
  facet normal  -0.000000e+000  0.000000e+000 -1.000000e+000
    outer loop
      vertex -3.337814e-001 -1.696239e+001  9.789760e+002
      vertex  3.337814e-001 -1.696239e+001  9.789760e+002
      vertex  9.184851e-017 -1.700000e+001  9.789760e+002
    endloop
  endfacet
  facet normal  0.000000e+000  0.000000e+000 -9.999999e-001
    outer loop
      vertex  3.337814e-001 -1.696239e+001  9.789760e+002
      vertex -3.337814e-001 -1.696239e+001  9.789760e+002
      vertex  6.508256e-001 -1.685145e+001  9.789760e+002
    endloop
  endfacet
  facet normal  -0.000000e+000  0.000000e+000 -1.000000e+000
    outer loop
      vertex  6.508256e-001 -1.685145e+001  9.789760e+002
      vertex -3.337814e-001 -1.696239e+001  9.789760e+002
      vertex -6.508256e-001 -1.685145e+001  9.789760e+002
    endloop
  endfacet
  facet normal  0.000000e+000  0.000000e+000 -9.999999e-001
    outer loop
      vertex  6.508256e-001 -1.685145e+001  9.789760e+002
      vertex -6.508256e-001 -1.685145e+001  9.789760e+002
      vertex  9.352347e-001 -1.667275e+001  9.789760e+002
    endloop
  endfacet
  facet normal  -0.000000e+000  0.000000e+000 -1.000000e+000
    outer loop
      vertex  9.352347e-001 -1.667275e+001  9.789760e+002
      vertex -6.508256e-001 -1.685145e+001  9.789760e+002
      vertex -9.352347e-001 -1.667275e+001  9.789760e+002
    endloop
  endfacet
  facet normal  0.000000e+000  0.000000e+000 -9.999999e-001
    outer loop
      vertex  9.352347e-001 -1.667275e+001  9.789760e+002
      vertex -9.352347e-001 -1.667275e+001  9.789760e+002
      vertex  1.172747e+000 -1.643523e+001  9.789760e+002
    endloop
  endfacet
  facet normal  -0.000000e+000  0.000000e+000 -1.000000e+000
    outer loop
      vertex  1.172747e+000 -1.643523e+001  9.789760e+002
      vertex -9.352347e-001 -1.667275e+001  9.789760e+002
      vertex -1.172747e+000 -1.643523e+001  9.789760e+002
    endloop
  endfacet
  facet normal  0.000000e+000  0.000000e+000 -1.000000e+000
    outer loop
      vertex  1.172747e+000 -1.643523e+001  9.789760e+002
      vertex -1.172747e+000 -1.643523e+001  9.789760e+002
      vertex  1.351453e+000 -1.615083e+001  9.789760e+002
    endloop
  endfacet
  facet normal  -0.000000e+000  0.000000e+000 -1.000000e+000
    outer loop
      vertex  1.351453e+000 -1.615083e+001  9.789760e+002
      vertex -1.172747e+000 -1.643523e+001  9.789760e+002
      vertex -1.351453e+000 -1.615083e+001  9.789760e+002
    endloop
  endfacet
  facet normal  0.000000e+000  0.000000e+000 -1.000000e+000
    outer loop
      vertex  1.351453e+000 -1.615083e+001  9.789760e+002
      vertex -1.351453e+000 -1.615083e+001  9.789760e+002
      vertex  1.462392e+000 -1.583378e+001  9.789760e+002
    endloop
  endfacet
  facet normal  -0.000000e+000  0.000000e+000 -9.999999e-001
    outer loop
      vertex  1.462392e+000 -1.583378e+001  9.789760e+002
      vertex -1.351453e+000 -1.615083e+001  9.789760e+002
      vertex -1.462392e+000 -1.583378e+001  9.789760e+002
    endloop
  endfacet
  facet normal  0.000000e+000  0.000000e+000 -9.999999e-001
    outer loop
      vertex  1.462392e+000 -1.583378e+001  9.789760e+002
      vertex -1.462392e+000 -1.583378e+001  9.789760e+002
      vertex  1.500000e+000 -1.550000e+001  9.789760e+002
    endloop
  endfacet
  facet normal  -0.000000e+000  0.000000e+000 -1.000000e+000
    outer loop
      vertex  1.500000e+000 -1.550000e+001  9.789760e+002
      vertex -1.462392e+000 -1.583378e+001  9.789760e+002
      vertex -1.500000e+000 -1.550000e+001  9.789760e+002
    endloop
  endfacet
  facet normal  0.000000e+000  0.000000e+000 -1.000000e+000
    outer loop
      vertex  1.500000e+000 -1.550000e+001  9.789760e+002
      vertex -1.500000e+000 -1.550000e+001  9.789760e+002
      vertex  1.462392e+000 -1.516622e+001  9.789760e+002
    endloop
  endfacet
  facet normal  -0.000000e+000  0.000000e+000 -9.999999e-001
    outer loop
      vertex  1.462392e+000 -1.516622e+001  9.789760e+002
      vertex -1.500000e+000 -1.550000e+001  9.789760e+002
      vertex -1.462392e+000 -1.516622e+001  9.789760e+002
    endloop
  endfacet
  facet normal  0.000000e+000  0.000000e+000 -9.999999e-001
    outer loop
      vertex  1.462392e+000 -1.516622e+001  9.789760e+002
      vertex -1.462392e+000 -1.516622e+001  9.789760e+002
      vertex  1.351453e+000 -1.484917e+001  9.789760e+002
    endloop
  endfacet
  facet normal  -0.000000e+000  0.000000e+000 -1.000000e+000
    outer loop
      vertex  1.351453e+000 -1.484917e+001  9.789760e+002
      vertex -1.462392e+000 -1.516622e+001  9.789760e+002
      vertex -1.351453e+000 -1.484917e+001  9.789760e+002
    endloop
  endfacet
  facet normal  0.000000e+000  0.000000e+000 -1.000000e+000
    outer loop
      vertex  1.351453e+000 -1.484917e+001  9.789760e+002
      vertex -1.351453e+000 -1.484917e+001  9.789760e+002
      vertex  1.172747e+000 -1.456476e+001  9.789760e+002
    endloop
  endfacet
  facet normal  -0.000000e+000  0.000000e+000 -1.000000e+000
    outer loop
      vertex  1.172747e+000 -1.456476e+001  9.789760e+002
      vertex -1.351453e+000 -1.484917e+001  9.789760e+002
      vertex -1.172747e+000 -1.456476e+001  9.789760e+002
    endloop
  endfacet
  facet normal  0.000000e+000  0.000000e+000 -1.000000e+000
    outer loop
      vertex  1.172747e+000 -1.456476e+001  9.789760e+002
      vertex -1.172747e+000 -1.456476e+001  9.789760e+002
      vertex  9.352347e-001 -1.432725e+001  9.789760e+002
    endloop
  endfacet
  facet normal  -0.000000e+000  0.000000e+000 -9.999999e-001
    outer loop
      vertex  9.352347e-001 -1.432725e+001  9.789760e+002
      vertex -1.172747e+000 -1.456476e+001  9.789760e+002
      vertex -9.352347e-001 -1.432725e+001  9.789760e+002
    endloop
  endfacet
  facet normal  0.000000e+000  0.000000e+000 -9.999999e-001
    outer loop
      vertex  9.352347e-001 -1.432725e+001  9.789760e+002
      vertex -9.352347e-001 -1.432725e+001  9.789760e+002
      vertex  6.508256e-001 -1.414855e+001  9.789760e+002
    endloop
  endfacet
  facet normal  -0.000000e+000  0.000000e+000 -1.000000e+000
    outer loop
      vertex  6.508256e-001 -1.414855e+001  9.789760e+002
      vertex -9.352347e-001 -1.432725e+001  9.789760e+002
      vertex -6.508256e-001 -1.414855e+001  9.789760e+002
    endloop
  endfacet
  facet normal  0.000000e+000  0.000000e+000 -1.000000e+000
    outer loop
      vertex  6.508256e-001 -1.414855e+001  9.789760e+002
      vertex -6.508256e-001 -1.414855e+001  9.789760e+002
      vertex  3.337814e-001 -1.403761e+001  9.789760e+002
    endloop
  endfacet
  facet normal  -0.000000e+000  0.000000e+000 -9.999999e-001
    outer loop
      vertex  3.337814e-001 -1.403761e+001  9.789760e+002
      vertex -6.508256e-001 -1.414855e+001  9.789760e+002
      vertex -3.337814e-001 -1.403761e+001  9.789760e+002
    endloop
  endfacet
  facet normal  0.000000e+000  0.000000e+000 -1.000000e+000
    outer loop
      vertex  3.337814e-001 -1.403761e+001  9.789760e+002
      vertex -3.337814e-001 -1.403761e+001  9.789760e+002
      vertex -2.755455e-016 -1.400000e+001  9.789760e+002
    endloop
  endfacet
  facet normal -9.937129e-001  -0.000000e+000 -1.119579e-001
    outer loop
      vertex -7.000000e+000 -2.800000e+001  9.797260e+002
      vertex -7.000000e+000 -2.000000e+001  9.797260e+002
      vertex -6.962392e+000 -2.800000e+001  9.793922e+002
    endloop
  endfacet
  facet normal -9.937129e-001  0.000000e+000 -1.119579e-001
    outer loop
      vertex -6.962392e+000 -2.800000e+001  9.793922e+002
      vertex -7.000000e+000 -2.000000e+001  9.797260e+002
      vertex -6.962392e+000 -2.000000e+001  9.793922e+002
    endloop
  endfacet
  facet normal -9.438947e-001  -0.000000e+000 -3.302467e-001
    outer loop
      vertex -6.962392e+000 -2.800000e+001  9.793922e+002
      vertex -6.962392e+000 -2.000000e+001  9.793922e+002
      vertex -6.851454e+000 -2.800000e+001  9.790751e+002
    endloop
  endfacet
  facet normal -9.438947e-001  0.000000e+000 -3.302467e-001
    outer loop
      vertex -6.851454e+000 -2.800000e+001  9.790751e+002
      vertex -6.962392e+000 -2.000000e+001  9.793922e+002
      vertex -6.851454e+000 -2.000000e+001  9.790751e+002
    endloop
  endfacet
  facet normal -8.466856e-001  -0.000000e+000 -5.320933e-001
    outer loop
      vertex -6.851454e+000 -2.800000e+001  9.790751e+002
      vertex -6.851454e+000 -2.000000e+001  9.790751e+002
      vertex -6.672748e+000 -2.800000e+001  9.787907e+002
    endloop
  endfacet
  facet normal -8.466856e-001  0.000000e+000 -5.320933e-001
    outer loop
      vertex -6.672748e+000 -2.800000e+001  9.787907e+002
      vertex -6.851454e+000 -2.000000e+001  9.790751e+002
      vertex -6.672748e+000 -2.000000e+001  9.787907e+002
    endloop
  endfacet
  facet normal -7.071614e-001  -0.000000e+000 -7.070522e-001
    outer loop
      vertex -6.672748e+000 -2.800000e+001  9.787907e+002
      vertex -6.672748e+000 -2.000000e+001  9.787907e+002
      vertex -6.435236e+000 -2.800000e+001  9.785532e+002
    endloop
  endfacet
  facet normal -7.071614e-001  0.000000e+000 -7.070522e-001
    outer loop
      vertex -6.435236e+000 -2.800000e+001  9.785532e+002
      vertex -6.672748e+000 -2.000000e+001  9.787907e+002
      vertex -6.435236e+000 -2.000000e+001  9.785532e+002
    endloop
  endfacet
  facet normal -5.320432e-001  -0.000000e+000 -8.467172e-001
    outer loop
      vertex -6.435236e+000 -2.800000e+001  9.785532e+002
      vertex -6.435236e+000 -2.000000e+001  9.785532e+002
      vertex -6.150827e+000 -2.800000e+001  9.783745e+002
    endloop
  endfacet
  facet normal -5.320432e-001  0.000000e+000 -8.467172e-001
    outer loop
      vertex -6.150827e+000 -2.800000e+001  9.783745e+002
      vertex -6.435236e+000 -2.000000e+001  9.785532e+002
      vertex -6.150827e+000 -2.000000e+001  9.783745e+002
    endloop
  endfacet
  facet normal -3.301799e-001  -0.000000e+000 -9.439180e-001
    outer loop
      vertex -6.150827e+000 -2.800000e+001  9.783745e+002
      vertex -6.150827e+000 -2.000000e+001  9.783745e+002
      vertex -5.833784e+000 -2.800000e+001  9.782635e+002
    endloop
  endfacet
  facet normal -3.301799e-001  0.000000e+000 -9.439180e-001
    outer loop
      vertex -5.833784e+000 -2.800000e+001  9.782635e+002
      vertex -6.150827e+000 -2.000000e+001  9.783745e+002
      vertex -5.833784e+000 -2.000000e+001  9.782635e+002
    endloop
  endfacet
  facet normal -1.119339e-001  -0.000000e+000 -9.937156e-001
    outer loop
      vertex -5.833784e+000 -2.800000e+001  9.782635e+002
      vertex -5.833784e+000 -2.000000e+001  9.782635e+002
      vertex -5.500003e+000 -2.800000e+001  9.782260e+002
    endloop
  endfacet
  facet normal -1.119339e-001  0.000000e+000 -9.937156e-001
    outer loop
      vertex -5.500003e+000 -2.800000e+001  9.782260e+002
      vertex -5.833784e+000 -2.000000e+001  9.782635e+002
      vertex -5.500003e+000 -2.000000e+001  9.782260e+002
    endloop
  endfacet
  facet normal  1.119339e-001  0.000000e+000 -9.937156e-001
    outer loop
      vertex  5.500003e+000 -2.800000e+001  9.782260e+002
      vertex  5.500003e+000 -2.000000e+001  9.782260e+002
      vertex  5.833784e+000 -2.800000e+001  9.782635e+002
    endloop
  endfacet
  facet normal  1.119339e-001  0.000000e+000 -9.937156e-001
    outer loop
      vertex  5.833784e+000 -2.800000e+001  9.782635e+002
      vertex  5.500003e+000 -2.000000e+001  9.782260e+002
      vertex  5.833784e+000 -2.000000e+001  9.782635e+002
    endloop
  endfacet
  facet normal  3.301799e-001  0.000000e+000 -9.439180e-001
    outer loop
      vertex  5.833784e+000 -2.800000e+001  9.782635e+002
      vertex  5.833784e+000 -2.000000e+001  9.782635e+002
      vertex  6.150827e+000 -2.800000e+001  9.783745e+002
    endloop
  endfacet
  facet normal  3.301799e-001  0.000000e+000 -9.439180e-001
    outer loop
      vertex  6.150827e+000 -2.800000e+001  9.783745e+002
      vertex  5.833784e+000 -2.000000e+001  9.782635e+002
      vertex  6.150827e+000 -2.000000e+001  9.783745e+002
    endloop
  endfacet
  facet normal  5.320432e-001  0.000000e+000 -8.467172e-001
    outer loop
      vertex  6.150827e+000 -2.800000e+001  9.783745e+002
      vertex  6.150827e+000 -2.000000e+001  9.783745e+002
      vertex  6.435236e+000 -2.800000e+001  9.785532e+002
    endloop
  endfacet
  facet normal  5.320432e-001  0.000000e+000 -8.467172e-001
    outer loop
      vertex  6.435236e+000 -2.800000e+001  9.785532e+002
      vertex  6.150827e+000 -2.000000e+001  9.783745e+002
      vertex  6.435236e+000 -2.000000e+001  9.785532e+002
    endloop
  endfacet
  facet normal  7.071614e-001  0.000000e+000 -7.070522e-001
    outer loop
      vertex  6.435236e+000 -2.800000e+001  9.785532e+002
      vertex  6.435236e+000 -2.000000e+001  9.785532e+002
      vertex  6.672748e+000 -2.800000e+001  9.787907e+002
    endloop
  endfacet
  facet normal  7.071614e-001  0.000000e+000 -7.070522e-001
    outer loop
      vertex  6.672748e+000 -2.800000e+001  9.787907e+002
      vertex  6.435236e+000 -2.000000e+001  9.785532e+002
      vertex  6.672748e+000 -2.000000e+001  9.787907e+002
    endloop
  endfacet
  facet normal  8.466856e-001  0.000000e+000 -5.320933e-001
    outer loop
      vertex  6.672748e+000 -2.800000e+001  9.787907e+002
      vertex  6.672748e+000 -2.000000e+001  9.787907e+002
      vertex  6.851454e+000 -2.800000e+001  9.790751e+002
    endloop
  endfacet
  facet normal  8.466856e-001  0.000000e+000 -5.320933e-001
    outer loop
      vertex  6.851454e+000 -2.800000e+001  9.790751e+002
      vertex  6.672748e+000 -2.000000e+001  9.787907e+002
      vertex  6.851454e+000 -2.000000e+001  9.790751e+002
    endloop
  endfacet
  facet normal  9.438947e-001  0.000000e+000 -3.302467e-001
    outer loop
      vertex  6.851454e+000 -2.800000e+001  9.790751e+002
      vertex  6.851454e+000 -2.000000e+001  9.790751e+002
      vertex  6.962392e+000 -2.800000e+001  9.793922e+002
    endloop
  endfacet
  facet normal  9.438947e-001  0.000000e+000 -3.302467e-001
    outer loop
      vertex  6.962392e+000 -2.800000e+001  9.793922e+002
      vertex  6.851454e+000 -2.000000e+001  9.790751e+002
      vertex  6.962392e+000 -2.000000e+001  9.793922e+002
    endloop
  endfacet
  facet normal  9.937129e-001  0.000000e+000 -1.119579e-001
    outer loop
      vertex  6.962392e+000 -2.800000e+001  9.793922e+002
      vertex  6.962392e+000 -2.000000e+001  9.793922e+002
      vertex  7.000000e+000 -2.800000e+001  9.797260e+002
    endloop
  endfacet
  facet normal  9.937129e-001  0.000000e+000 -1.119579e-001
    outer loop
      vertex  7.000000e+000 -2.800000e+001  9.797260e+002
      vertex  6.962392e+000 -2.000000e+001  9.793922e+002
      vertex  7.000000e+000 -2.000000e+001  9.797260e+002
    endloop
  endfacet
  facet normal  9.937107e-001  0.000000e+000  1.119782e-001
    outer loop
      vertex  7.000000e+000 -2.800000e+001  9.832260e+002
      vertex  7.000000e+000 -1.250000e+001  9.832260e+002
      vertex  6.962392e+000 -2.800000e+001  9.835597e+002
    endloop
  endfacet
  facet normal  9.937107e-001  -0.000000e+000  1.119782e-001
    outer loop
      vertex  6.962392e+000 -2.800000e+001  9.835597e+002
      vertex  7.000000e+000 -1.250000e+001  9.832260e+002
      vertex  6.962392e+000 -1.250000e+001  9.835597e+002
    endloop
  endfacet
  facet normal  9.438937e-001  0.000000e+000  3.302492e-001
    outer loop
      vertex  6.962392e+000 -2.800000e+001  9.835597e+002
      vertex  6.962392e+000 -1.250000e+001  9.835597e+002
      vertex  6.851453e+000 -2.800000e+001  9.838768e+002
    endloop
  endfacet
  facet normal  9.438937e-001  -0.000000e+000  3.302492e-001
    outer loop
      vertex  6.851453e+000 -2.800000e+001  9.838768e+002
      vertex  6.962392e+000 -1.250000e+001  9.835597e+002
      vertex  6.851453e+000 -1.250000e+001  9.838768e+002
    endloop
  endfacet
  facet normal  8.467366e-001  0.000000e+000  5.320125e-001
    outer loop
      vertex  6.851453e+000 -2.800000e+001  9.838768e+002
      vertex  6.851453e+000 -1.250000e+001  9.838768e+002
      vertex  6.672747e+000 -2.800000e+001  9.841612e+002
    endloop
  endfacet
  facet normal  8.467366e-001  -0.000000e+000  5.320125e-001
    outer loop
      vertex  6.672747e+000 -2.800000e+001  9.841612e+002
      vertex  6.851453e+000 -1.250000e+001  9.838768e+002
      vertex  6.672747e+000 -1.250000e+001  9.841612e+002
    endloop
  endfacet
  facet normal  7.070692e-001  0.000000e+000  7.071444e-001
    outer loop
      vertex  6.672747e+000 -2.800000e+001  9.841612e+002
      vertex  6.672747e+000 -1.250000e+001  9.841612e+002
      vertex  6.435234e+000 -2.800000e+001  9.843987e+002
    endloop
  endfacet
  facet normal  7.070692e-001  -0.000000e+000  7.071444e-001
    outer loop
      vertex  6.435234e+000 -2.800000e+001  9.843987e+002
      vertex  6.672747e+000 -1.250000e+001  9.841612e+002
      vertex  6.435234e+000 -1.250000e+001  9.843987e+002
    endloop
  endfacet
  facet normal  5.320419e-001  0.000000e+000  8.467181e-001
    outer loop
      vertex  6.435234e+000 -2.800000e+001  9.843987e+002
      vertex  6.435234e+000 -1.250000e+001  9.843987e+002
      vertex  6.150824e+000 -2.800000e+001  9.845774e+002
    endloop
  endfacet
  facet normal  5.320419e-001  -0.000000e+000  8.467181e-001
    outer loop
      vertex  6.150824e+000 -2.800000e+001  9.845774e+002
      vertex  6.435234e+000 -1.250000e+001  9.843987e+002
      vertex  6.150824e+000 -1.250000e+001  9.845774e+002
    endloop
  endfacet
  facet normal  3.301786e-001  0.000000e+000  9.439185e-001
    outer loop
      vertex  6.150824e+000 -2.800000e+001  9.845774e+002
      vertex  6.150824e+000 -1.250000e+001  9.845774e+002
      vertex  5.833779e+000 -2.800000e+001  9.846883e+002
    endloop
  endfacet
  facet normal  3.301786e-001  -0.000000e+000  9.439185e-001
    outer loop
      vertex  5.833779e+000 -2.800000e+001  9.846883e+002
      vertex  6.150824e+000 -1.250000e+001  9.845774e+002
      vertex  5.833779e+000 -1.250000e+001  9.846883e+002
    endloop
  endfacet
  facet normal  1.121130e-001  0.000000e+000  9.936954e-001
    outer loop
      vertex  5.833779e+000 -2.800000e+001  9.846883e+002
      vertex  5.833779e+000 -1.250000e+001  9.846883e+002
      vertex  5.499998e+000 -2.800000e+001  9.847260e+002
    endloop
  endfacet
  facet normal  1.121130e-001  -0.000000e+000  9.936954e-001
    outer loop
      vertex  5.499998e+000 -2.800000e+001  9.847260e+002
      vertex  5.833779e+000 -1.250000e+001  9.846883e+002
      vertex  5.499998e+000 -1.250000e+001  9.847260e+002
    endloop
  endfacet
  facet normal -1.121130e-001  0.000000e+000  9.936954e-001
    outer loop
      vertex -5.499999e+000 -2.800000e+001  9.847260e+002
      vertex -5.499999e+000 -1.250000e+001  9.847260e+002
      vertex -5.833780e+000 -2.800000e+001  9.846883e+002
    endloop
  endfacet
  facet normal -1.121130e-001  0.000000e+000  9.936954e-001
    outer loop
      vertex -5.833780e+000 -2.800000e+001  9.846883e+002
      vertex -5.499999e+000 -1.250000e+001  9.847260e+002
      vertex -5.833780e+000 -1.250000e+001  9.846883e+002
    endloop
  endfacet
  facet normal -3.301786e-001  0.000000e+000  9.439185e-001
    outer loop
      vertex -5.833780e+000 -2.800000e+001  9.846883e+002
      vertex -5.833780e+000 -1.250000e+001  9.846883e+002
      vertex -6.150825e+000 -2.800000e+001  9.845774e+002
    endloop
  endfacet
  facet normal -3.301786e-001  0.000000e+000  9.439185e-001
    outer loop
      vertex -6.150825e+000 -2.800000e+001  9.845774e+002
      vertex -5.833780e+000 -1.250000e+001  9.846883e+002
      vertex -6.150825e+000 -1.250000e+001  9.845774e+002
    endloop
  endfacet
  facet normal -5.320424e-001  0.000000e+000  8.467176e-001
    outer loop
      vertex -6.150825e+000 -2.800000e+001  9.845774e+002
      vertex -6.150825e+000 -1.250000e+001  9.845774e+002
      vertex -6.435234e+000 -2.800000e+001  9.843987e+002
    endloop
  endfacet
  facet normal -5.320424e-001  0.000000e+000  8.467176e-001
    outer loop
      vertex -6.435234e+000 -2.800000e+001  9.843987e+002
      vertex -6.150825e+000 -1.250000e+001  9.845774e+002
      vertex -6.435234e+000 -1.250000e+001  9.843987e+002
    endloop
  endfacet
  facet normal -7.070692e-001  0.000000e+000  7.071444e-001
    outer loop
      vertex -6.435234e+000 -2.800000e+001  9.843987e+002
      vertex -6.435234e+000 -1.250000e+001  9.843987e+002
      vertex -6.672747e+000 -2.800000e+001  9.841612e+002
    endloop
  endfacet
  facet normal -7.070692e-001  0.000000e+000  7.071444e-001
    outer loop
      vertex -6.672747e+000 -2.800000e+001  9.841612e+002
      vertex -6.435234e+000 -1.250000e+001  9.843987e+002
      vertex -6.672747e+000 -1.250000e+001  9.841612e+002
    endloop
  endfacet
  facet normal -8.467366e-001  0.000000e+000  5.320125e-001
    outer loop
      vertex -6.672747e+000 -2.800000e+001  9.841612e+002
      vertex -6.672747e+000 -1.250000e+001  9.841612e+002
      vertex -6.851453e+000 -2.800000e+001  9.838768e+002
    endloop
  endfacet
  facet normal -8.467366e-001  0.000000e+000  5.320125e-001
    outer loop
      vertex -6.851453e+000 -2.800000e+001  9.838768e+002
      vertex -6.672747e+000 -1.250000e+001  9.841612e+002
      vertex -6.851453e+000 -1.250000e+001  9.838768e+002
    endloop
  endfacet
  facet normal -9.438941e-001  0.000000e+000  3.302480e-001
    outer loop
      vertex -6.851453e+000 -2.800000e+001  9.838768e+002
      vertex -6.851453e+000 -1.250000e+001  9.838768e+002
      vertex -6.962392e+000 -2.800000e+001  9.835597e+002
    endloop
  endfacet
  facet normal -9.438941e-001  0.000000e+000  3.302480e-001
    outer loop
      vertex -6.962392e+000 -2.800000e+001  9.835597e+002
      vertex -6.851453e+000 -1.250000e+001  9.838768e+002
      vertex -6.962392e+000 -1.250000e+001  9.835597e+002
    endloop
  endfacet
  facet normal -9.937107e-001  0.000000e+000  1.119782e-001
    outer loop
      vertex -6.962392e+000 -2.800000e+001  9.835597e+002
      vertex -6.962392e+000 -1.250000e+001  9.835597e+002
      vertex -7.000000e+000 -2.800000e+001  9.832260e+002
    endloop
  endfacet
  facet normal -9.937107e-001  0.000000e+000  1.119782e-001
    outer loop
      vertex -7.000000e+000 -2.800000e+001  9.832260e+002
      vertex -6.962392e+000 -1.250000e+001  9.835597e+002
      vertex -7.000000e+000 -1.250000e+001  9.832260e+002
    endloop
  endfacet
  facet normal -1.000000e+000  0.000000e+000  0.000000e+000
    outer loop
      vertex -7.000000e+000 -1.250000e+001  9.832260e+002
      vertex -7.000000e+000 -1.250000e+001  9.814760e+002
      vertex -7.000000e+000 -2.800000e+001  9.832260e+002
    endloop
  endfacet
  facet normal -1.000000e+000  0.000000e+000  0.000000e+000
    outer loop
      vertex -7.000000e+000 -2.800000e+001  9.832260e+002
      vertex -7.000000e+000 -1.250000e+001  9.814760e+002
      vertex -7.000000e+000 -2.000000e+001  9.814760e+002
    endloop
  endfacet
  facet normal -1.000000e+000  -0.000000e+000  0.000000e+000
    outer loop
      vertex -7.000000e+000 -2.800000e+001  9.832260e+002
      vertex -7.000000e+000 -2.000000e+001  9.814760e+002
      vertex -7.000000e+000 -2.800000e+001  9.797260e+002
    endloop
  endfacet
  facet normal -1.000000e+000  0.000000e+000  0.000000e+000
    outer loop
      vertex -7.000000e+000 -2.800000e+001  9.797260e+002
      vertex -7.000000e+000 -2.000000e+001  9.814760e+002
      vertex -7.000000e+000 -2.000000e+001  9.797260e+002
    endloop
  endfacet
  facet normal  0.000000e+000 -1.000000e+000  0.000000e+000
    outer loop
      vertex  5.499998e+000 -2.800000e+001  9.847260e+002
      vertex -5.499999e+000 -2.800000e+001  9.847260e+002
      vertex  5.833779e+000 -2.800000e+001  9.846883e+002
    endloop
  endfacet
  facet normal  0.000000e+000 -1.000000e+000  0.000000e+000
    outer loop
      vertex  5.833779e+000 -2.800000e+001  9.846883e+002
      vertex -5.499999e+000 -2.800000e+001  9.847260e+002
      vertex -5.833780e+000 -2.800000e+001  9.846883e+002
    endloop
  endfacet
  facet normal  0.000000e+000 -9.999999e-001  0.000000e+000
    outer loop
      vertex  5.833779e+000 -2.800000e+001  9.846883e+002
      vertex -5.833780e+000 -2.800000e+001  9.846883e+002
      vertex  6.150824e+000 -2.800000e+001  9.845774e+002
    endloop
  endfacet
  facet normal  0.000000e+000 -1.000000e+000  0.000000e+000
    outer loop
      vertex  6.150824e+000 -2.800000e+001  9.845774e+002
      vertex -5.833780e+000 -2.800000e+001  9.846883e+002
      vertex -6.150825e+000 -2.800000e+001  9.845774e+002
    endloop
  endfacet
  facet normal  0.000000e+000 -1.000000e+000  0.000000e+000
    outer loop
      vertex  6.150824e+000 -2.800000e+001  9.845774e+002
      vertex -6.150825e+000 -2.800000e+001  9.845774e+002
      vertex  6.435234e+000 -2.800000e+001  9.843987e+002
    endloop
  endfacet
  facet normal  0.000000e+000 -1.000000e+000  0.000000e+000
    outer loop
      vertex  6.435234e+000 -2.800000e+001  9.843987e+002
      vertex -6.150825e+000 -2.800000e+001  9.845774e+002
      vertex -6.435234e+000 -2.800000e+001  9.843987e+002
    endloop
  endfacet
  facet normal  0.000000e+000 -1.000000e+000  0.000000e+000
    outer loop
      vertex  6.435234e+000 -2.800000e+001  9.843987e+002
      vertex -6.435234e+000 -2.800000e+001  9.843987e+002
      vertex  6.672747e+000 -2.800000e+001  9.841612e+002
    endloop
  endfacet
  facet normal  0.000000e+000 -9.999999e-001  0.000000e+000
    outer loop
      vertex  6.672747e+000 -2.800000e+001  9.841612e+002
      vertex -6.435234e+000 -2.800000e+001  9.843987e+002
      vertex -6.672747e+000 -2.800000e+001  9.841612e+002
    endloop
  endfacet
  facet normal  0.000000e+000 -1.000000e+000  0.000000e+000
    outer loop
      vertex  6.672747e+000 -2.800000e+001  9.841612e+002
      vertex -6.672747e+000 -2.800000e+001  9.841612e+002
      vertex  6.851453e+000 -2.800000e+001  9.838768e+002
    endloop
  endfacet
  facet normal  0.000000e+000 -1.000000e+000  0.000000e+000
    outer loop
      vertex  6.851453e+000 -2.800000e+001  9.838768e+002
      vertex -6.672747e+000 -2.800000e+001  9.841612e+002
      vertex -6.851453e+000 -2.800000e+001  9.838768e+002
    endloop
  endfacet
  facet normal  0.000000e+000 -1.000000e+000  0.000000e+000
    outer loop
      vertex  6.851453e+000 -2.800000e+001  9.838768e+002
      vertex -6.851453e+000 -2.800000e+001  9.838768e+002
      vertex  6.962392e+000 -2.800000e+001  9.835597e+002
    endloop
  endfacet
  facet normal  0.000000e+000 -1.000000e+000  0.000000e+000
    outer loop
      vertex  6.962392e+000 -2.800000e+001  9.835597e+002
      vertex -6.851453e+000 -2.800000e+001  9.838768e+002
      vertex -6.962392e+000 -2.800000e+001  9.835597e+002
    endloop
  endfacet
  facet normal  0.000000e+000 -1.000000e+000  0.000000e+000
    outer loop
      vertex  6.962392e+000 -2.800000e+001  9.835597e+002
      vertex -6.962392e+000 -2.800000e+001  9.835597e+002
      vertex  7.000000e+000 -2.800000e+001  9.832260e+002
    endloop
  endfacet
  facet normal  0.000000e+000 -1.000000e+000  0.000000e+000
    outer loop
      vertex  7.000000e+000 -2.800000e+001  9.832260e+002
      vertex -6.962392e+000 -2.800000e+001  9.835597e+002
      vertex -7.000000e+000 -2.800000e+001  9.832260e+002
    endloop
  endfacet
  facet normal  0.000000e+000 -1.000000e+000  0.000000e+000
    outer loop
      vertex  7.000000e+000 -2.800000e+001  9.832260e+002
      vertex -7.000000e+000 -2.800000e+001  9.832260e+002
      vertex  7.000000e+000 -2.800000e+001  9.797260e+002
    endloop
  endfacet
  facet normal  0.000000e+000 -1.000000e+000  0.000000e+000
    outer loop
      vertex  7.000000e+000 -2.800000e+001  9.797260e+002
      vertex -7.000000e+000 -2.800000e+001  9.832260e+002
      vertex -7.000000e+000 -2.800000e+001  9.797260e+002
    endloop
  endfacet
  facet normal  0.000000e+000 -1.000000e+000  0.000000e+000
    outer loop
      vertex  7.000000e+000 -2.800000e+001  9.797260e+002
      vertex -7.000000e+000 -2.800000e+001  9.797260e+002
      vertex  6.962392e+000 -2.800000e+001  9.793922e+002
    endloop
  endfacet
  facet normal  0.000000e+000 -1.000000e+000  0.000000e+000
    outer loop
      vertex  6.962392e+000 -2.800000e+001  9.793922e+002
      vertex -7.000000e+000 -2.800000e+001  9.797260e+002
      vertex -6.962392e+000 -2.800000e+001  9.793922e+002
    endloop
  endfacet
  facet normal  0.000000e+000 -1.000000e+000  0.000000e+000
    outer loop
      vertex  6.962392e+000 -2.800000e+001  9.793922e+002
      vertex -6.962392e+000 -2.800000e+001  9.793922e+002
      vertex  6.851454e+000 -2.800000e+001  9.790751e+002
    endloop
  endfacet
  facet normal  0.000000e+000 -1.000000e+000  0.000000e+000
    outer loop
      vertex  6.851454e+000 -2.800000e+001  9.790751e+002
      vertex -6.962392e+000 -2.800000e+001  9.793922e+002
      vertex -6.851454e+000 -2.800000e+001  9.790751e+002
    endloop
  endfacet
  facet normal  0.000000e+000 -1.000000e+000  0.000000e+000
    outer loop
      vertex  6.851454e+000 -2.800000e+001  9.790751e+002
      vertex -6.851454e+000 -2.800000e+001  9.790751e+002
      vertex  6.672748e+000 -2.800000e+001  9.787907e+002
    endloop
  endfacet
  facet normal  0.000000e+000 -1.000000e+000  0.000000e+000
    outer loop
      vertex  6.672748e+000 -2.800000e+001  9.787907e+002
      vertex -6.851454e+000 -2.800000e+001  9.790751e+002
      vertex -6.672748e+000 -2.800000e+001  9.787907e+002
    endloop
  endfacet
  facet normal  0.000000e+000 -1.000000e+000  0.000000e+000
    outer loop
      vertex  6.672748e+000 -2.800000e+001  9.787907e+002
      vertex -6.672748e+000 -2.800000e+001  9.787907e+002
      vertex  6.435236e+000 -2.800000e+001  9.785532e+002
    endloop
  endfacet
  facet normal  0.000000e+000 -1.000000e+000  0.000000e+000
    outer loop
      vertex  6.435236e+000 -2.800000e+001  9.785532e+002
      vertex -6.672748e+000 -2.800000e+001  9.787907e+002
      vertex -6.435236e+000 -2.800000e+001  9.785532e+002
    endloop
  endfacet
  facet normal  0.000000e+000 -9.999999e-001  0.000000e+000
    outer loop
      vertex  6.435236e+000 -2.800000e+001  9.785532e+002
      vertex -6.435236e+000 -2.800000e+001  9.785532e+002
      vertex  6.150827e+000 -2.800000e+001  9.783745e+002
    endloop
  endfacet
  facet normal  0.000000e+000 -1.000000e+000  0.000000e+000
    outer loop
      vertex  6.150827e+000 -2.800000e+001  9.783745e+002
      vertex -6.435236e+000 -2.800000e+001  9.785532e+002
      vertex -6.150827e+000 -2.800000e+001  9.783745e+002
    endloop
  endfacet
  facet normal  0.000000e+000 -1.000000e+000  0.000000e+000
    outer loop
      vertex  6.150827e+000 -2.800000e+001  9.783745e+002
      vertex -6.150827e+000 -2.800000e+001  9.783745e+002
      vertex  5.833784e+000 -2.800000e+001  9.782635e+002
    endloop
  endfacet
  facet normal  0.000000e+000 -1.000000e+000  0.000000e+000
    outer loop
      vertex  5.833784e+000 -2.800000e+001  9.782635e+002
      vertex -6.150827e+000 -2.800000e+001  9.783745e+002
      vertex -5.833784e+000 -2.800000e+001  9.782635e+002
    endloop
  endfacet
  facet normal  0.000000e+000 -1.000000e+000  0.000000e+000
    outer loop
      vertex  5.833784e+000 -2.800000e+001  9.782635e+002
      vertex -5.833784e+000 -2.800000e+001  9.782635e+002
      vertex  5.500003e+000 -2.800000e+001  9.782260e+002
    endloop
  endfacet
  facet normal  0.000000e+000 -9.999999e-001  0.000000e+000
    outer loop
      vertex  5.500003e+000 -2.800000e+001  9.782260e+002
      vertex -5.833784e+000 -2.800000e+001  9.782635e+002
      vertex -5.500003e+000 -2.800000e+001  9.782260e+002
    endloop
  endfacet
  facet normal  1.000000e+000  0.000000e+000  0.000000e+000
    outer loop
      vertex  7.000000e+000 -2.800000e+001  9.797260e+002
      vertex  7.000000e+000 -2.000000e+001  9.797260e+002
      vertex  7.000000e+000 -2.800000e+001  9.832260e+002
    endloop
  endfacet
  facet normal  1.000000e+000  0.000000e+000  0.000000e+000
    outer loop
      vertex  7.000000e+000 -2.800000e+001  9.832260e+002
      vertex  7.000000e+000 -2.000000e+001  9.797260e+002
      vertex  7.000000e+000 -2.000000e+001  9.814760e+002
    endloop
  endfacet
  facet normal  1.000000e+000  0.000000e+000  -0.000000e+000
    outer loop
      vertex  7.000000e+000 -2.800000e+001  9.832260e+002
      vertex  7.000000e+000 -2.000000e+001  9.814760e+002
      vertex  7.000000e+000 -1.250000e+001  9.832260e+002
    endloop
  endfacet
  facet normal  1.000000e+000  0.000000e+000  0.000000e+000
    outer loop
      vertex  7.000000e+000 -1.250000e+001  9.832260e+002
      vertex  7.000000e+000 -2.000000e+001  9.814760e+002
      vertex  7.000000e+000 -1.250000e+001  9.814760e+002
    endloop
  endfacet
  facet normal  0.000000e+000  1.000000e+000  0.000000e+000
    outer loop
      vertex -7.000000e+000 -2.000000e+001  9.814760e+002
      vertex  7.000000e+000 -2.000000e+001  9.814760e+002
      vertex -7.000000e+000 -2.000000e+001  9.797260e+002
    endloop
  endfacet
  facet normal  0.000000e+000  1.000000e+000  0.000000e+000
    outer loop
      vertex -7.000000e+000 -2.000000e+001  9.797260e+002
      vertex  7.000000e+000 -2.000000e+001  9.814760e+002
      vertex  7.000000e+000 -2.000000e+001  9.797260e+002
    endloop
  endfacet
  facet normal  0.000000e+000  1.000000e+000  0.000000e+000
    outer loop
      vertex -7.000000e+000 -2.000000e+001  9.797260e+002
      vertex  7.000000e+000 -2.000000e+001  9.797260e+002
      vertex -6.962392e+000 -2.000000e+001  9.793922e+002
    endloop
  endfacet
  facet normal  0.000000e+000  1.000000e+000  0.000000e+000
    outer loop
      vertex -6.962392e+000 -2.000000e+001  9.793922e+002
      vertex  7.000000e+000 -2.000000e+001  9.797260e+002
      vertex  6.962392e+000 -2.000000e+001  9.793922e+002
    endloop
  endfacet
  facet normal  0.000000e+000  1.000000e+000  0.000000e+000
    outer loop
      vertex -6.962392e+000 -2.000000e+001  9.793922e+002
      vertex  6.962392e+000 -2.000000e+001  9.793922e+002
      vertex -6.851454e+000 -2.000000e+001  9.790751e+002
    endloop
  endfacet
  facet normal  0.000000e+000  1.000000e+000  0.000000e+000
    outer loop
      vertex -6.851454e+000 -2.000000e+001  9.790751e+002
      vertex  6.962392e+000 -2.000000e+001  9.793922e+002
      vertex  6.851454e+000 -2.000000e+001  9.790751e+002
    endloop
  endfacet
  facet normal  0.000000e+000  1.000000e+000  0.000000e+000
    outer loop
      vertex -6.851454e+000 -2.000000e+001  9.790751e+002
      vertex  6.851454e+000 -2.000000e+001  9.790751e+002
      vertex -6.672748e+000 -2.000000e+001  9.787907e+002
    endloop
  endfacet
  facet normal  0.000000e+000  1.000000e+000  0.000000e+000
    outer loop
      vertex -6.672748e+000 -2.000000e+001  9.787907e+002
      vertex  6.851454e+000 -2.000000e+001  9.790751e+002
      vertex  6.672748e+000 -2.000000e+001  9.787907e+002
    endloop
  endfacet
  facet normal  0.000000e+000  1.000000e+000  0.000000e+000
    outer loop
      vertex -6.672748e+000 -2.000000e+001  9.787907e+002
      vertex  6.672748e+000 -2.000000e+001  9.787907e+002
      vertex -6.435236e+000 -2.000000e+001  9.785532e+002
    endloop
  endfacet
  facet normal  0.000000e+000  1.000000e+000  0.000000e+000
    outer loop
      vertex -6.435236e+000 -2.000000e+001  9.785532e+002
      vertex  6.672748e+000 -2.000000e+001  9.787907e+002
      vertex  6.435236e+000 -2.000000e+001  9.785532e+002
    endloop
  endfacet
  facet normal  0.000000e+000  9.999999e-001  0.000000e+000
    outer loop
      vertex -6.435236e+000 -2.000000e+001  9.785532e+002
      vertex  6.435236e+000 -2.000000e+001  9.785532e+002
      vertex -6.150827e+000 -2.000000e+001  9.783745e+002
    endloop
  endfacet
  facet normal  0.000000e+000  1.000000e+000  0.000000e+000
    outer loop
      vertex -6.150827e+000 -2.000000e+001  9.783745e+002
      vertex  6.435236e+000 -2.000000e+001  9.785532e+002
      vertex  6.150827e+000 -2.000000e+001  9.783745e+002
    endloop
  endfacet
  facet normal  0.000000e+000  1.000000e+000  0.000000e+000
    outer loop
      vertex -6.150827e+000 -2.000000e+001  9.783745e+002
      vertex  6.150827e+000 -2.000000e+001  9.783745e+002
      vertex -5.833784e+000 -2.000000e+001  9.782635e+002
    endloop
  endfacet
  facet normal  0.000000e+000  1.000000e+000  0.000000e+000
    outer loop
      vertex -5.833784e+000 -2.000000e+001  9.782635e+002
      vertex  6.150827e+000 -2.000000e+001  9.783745e+002
      vertex  5.833784e+000 -2.000000e+001  9.782635e+002
    endloop
  endfacet
  facet normal  0.000000e+000  1.000000e+000  0.000000e+000
    outer loop
      vertex -5.833784e+000 -2.000000e+001  9.782635e+002
      vertex  5.833784e+000 -2.000000e+001  9.782635e+002
      vertex -5.500003e+000 -2.000000e+001  9.782260e+002
    endloop
  endfacet
  facet normal  0.000000e+000  9.999999e-001  0.000000e+000
    outer loop
      vertex -5.500003e+000 -2.000000e+001  9.782260e+002
      vertex  5.833784e+000 -2.000000e+001  9.782635e+002
      vertex  5.500003e+000 -2.000000e+001  9.782260e+002
    endloop
  endfacet
  facet normal  0.000000e+000  1.000000e+000  0.000000e+000
    outer loop
      vertex -5.499999e+000 -1.250000e+001  9.847260e+002
      vertex  5.499998e+000 -1.250000e+001  9.847260e+002
      vertex -5.833780e+000 -1.250000e+001  9.846883e+002
    endloop
  endfacet
  facet normal  0.000000e+000  1.000000e+000  0.000000e+000
    outer loop
      vertex -5.833780e+000 -1.250000e+001  9.846883e+002
      vertex  5.499998e+000 -1.250000e+001  9.847260e+002
      vertex  5.833779e+000 -1.250000e+001  9.846883e+002
    endloop
  endfacet
  facet normal  0.000000e+000  9.999999e-001  0.000000e+000
    outer loop
      vertex -5.833780e+000 -1.250000e+001  9.846883e+002
      vertex  5.833779e+000 -1.250000e+001  9.846883e+002
      vertex -6.150825e+000 -1.250000e+001  9.845774e+002
    endloop
  endfacet
  facet normal  0.000000e+000  1.000000e+000  0.000000e+000
    outer loop
      vertex -6.150825e+000 -1.250000e+001  9.845774e+002
      vertex  5.833779e+000 -1.250000e+001  9.846883e+002
      vertex  6.150824e+000 -1.250000e+001  9.845774e+002
    endloop
  endfacet
  facet normal  0.000000e+000  1.000000e+000  0.000000e+000
    outer loop
      vertex -6.150825e+000 -1.250000e+001  9.845774e+002
      vertex  6.150824e+000 -1.250000e+001  9.845774e+002
      vertex -6.435234e+000 -1.250000e+001  9.843987e+002
    endloop
  endfacet
  facet normal  0.000000e+000  1.000000e+000  0.000000e+000
    outer loop
      vertex -6.435234e+000 -1.250000e+001  9.843987e+002
      vertex  6.150824e+000 -1.250000e+001  9.845774e+002
      vertex  6.435234e+000 -1.250000e+001  9.843987e+002
    endloop
  endfacet
  facet normal  0.000000e+000  1.000000e+000  0.000000e+000
    outer loop
      vertex -6.435234e+000 -1.250000e+001  9.843987e+002
      vertex  6.435234e+000 -1.250000e+001  9.843987e+002
      vertex -6.672747e+000 -1.250000e+001  9.841612e+002
    endloop
  endfacet
  facet normal  0.000000e+000  9.999999e-001  0.000000e+000
    outer loop
      vertex -6.672747e+000 -1.250000e+001  9.841612e+002
      vertex  6.435234e+000 -1.250000e+001  9.843987e+002
      vertex  6.672747e+000 -1.250000e+001  9.841612e+002
    endloop
  endfacet
  facet normal  0.000000e+000  1.000000e+000  0.000000e+000
    outer loop
      vertex -6.672747e+000 -1.250000e+001  9.841612e+002
      vertex  6.672747e+000 -1.250000e+001  9.841612e+002
      vertex -6.851453e+000 -1.250000e+001  9.838768e+002
    endloop
  endfacet
  facet normal  0.000000e+000  1.000000e+000  0.000000e+000
    outer loop
      vertex -6.851453e+000 -1.250000e+001  9.838768e+002
      vertex  6.672747e+000 -1.250000e+001  9.841612e+002
      vertex  6.851453e+000 -1.250000e+001  9.838768e+002
    endloop
  endfacet
  facet normal  0.000000e+000  1.000000e+000  0.000000e+000
    outer loop
      vertex -6.851453e+000 -1.250000e+001  9.838768e+002
      vertex  6.851453e+000 -1.250000e+001  9.838768e+002
      vertex -6.962392e+000 -1.250000e+001  9.835597e+002
    endloop
  endfacet
  facet normal  0.000000e+000  1.000000e+000  0.000000e+000
    outer loop
      vertex -6.962392e+000 -1.250000e+001  9.835597e+002
      vertex  6.851453e+000 -1.250000e+001  9.838768e+002
      vertex  6.962392e+000 -1.250000e+001  9.835597e+002
    endloop
  endfacet
  facet normal  0.000000e+000  1.000000e+000  0.000000e+000
    outer loop
      vertex -6.962392e+000 -1.250000e+001  9.835597e+002
      vertex  6.962392e+000 -1.250000e+001  9.835597e+002
      vertex -7.000000e+000 -1.250000e+001  9.832260e+002
    endloop
  endfacet
  facet normal  0.000000e+000  1.000000e+000  0.000000e+000
    outer loop
      vertex -7.000000e+000 -1.250000e+001  9.832260e+002
      vertex  6.962392e+000 -1.250000e+001  9.835597e+002
      vertex  7.000000e+000 -1.250000e+001  9.832260e+002
    endloop
  endfacet
  facet normal  0.000000e+000  1.000000e+000  0.000000e+000
    outer loop
      vertex -7.000000e+000 -1.250000e+001  9.832260e+002
      vertex  7.000000e+000 -1.250000e+001  9.832260e+002
      vertex -7.000000e+000 -1.250000e+001  9.814760e+002
    endloop
  endfacet
  facet normal  0.000000e+000  1.000000e+000  0.000000e+000
    outer loop
      vertex -7.000000e+000 -1.250000e+001  9.814760e+002
      vertex  7.000000e+000 -1.250000e+001  9.832260e+002
      vertex  7.000000e+000 -1.250000e+001  9.814760e+002
    endloop
  endfacet
  facet normal  -0.000000e+000  0.000000e+000  1.000000e+000
    outer loop
      vertex  5.499998e+000 -1.250000e+001  9.847260e+002
      vertex -5.499999e+000 -1.250000e+001  9.847260e+002
      vertex  5.499998e+000 -2.800000e+001  9.847260e+002
    endloop
  endfacet
  facet normal  0.000000e+000  0.000000e+000  1.000000e+000
    outer loop
      vertex  5.499998e+000 -2.800000e+001  9.847260e+002
      vertex -5.499999e+000 -1.250000e+001  9.847260e+002
      vertex -5.499999e+000 -2.800000e+001  9.847260e+002
    endloop
  endfacet
  facet normal  0.000000e+000  0.000000e+000 -1.000000e+000
    outer loop
      vertex -5.500003e+000 -2.800000e+001  9.782260e+002
      vertex -5.500003e+000 -2.000000e+001  9.782260e+002
      vertex  5.500003e+000 -2.800000e+001  9.782260e+002
    endloop
  endfacet
  facet normal  0.000000e+000  0.000000e+000 -1.000000e+000
    outer loop
      vertex  5.500003e+000 -2.800000e+001  9.782260e+002
      vertex -5.500003e+000 -2.000000e+001  9.782260e+002
      vertex  5.500003e+000 -2.000000e+001  9.782260e+002
    endloop
  endfacet
endsolid CATIA STL
