ISO-10303-21;
HEADER;
FILE_DESCRIPTION(('CATIA V5 STEP Exchange'),'2;1');

FILE_NAME('C:\\Users\\alexi\\Documents\\scolaire\\IPSA\\AeroIpsa\\SP-02\\CATIA\\new_catia\\PATANT2.stp','2026-01-28T13:15:20+00:00',('none'),('none'),'CATIA Version 5 Release 19 GA (IN-10)','CATIA V5 STEP AP203','none');

FILE_SCHEMA(('CONFIG_CONTROL_DESIGN'));

ENDSEC;
/* file written by CATIA V5R19 */
DATA;
#5=PRODUCT('Part2','','',(#2)) ;
#1=APPLICATION_CONTEXT('configuration controlled 3D design of mechanical parts and assemblies') ;
#14=PRODUCT_DEFINITION('',' ',#6,#3) ;
#16=SECURITY_CLASSIFICATION(' ',' ',#15) ;
#15=SECURITY_CLASSIFICATION_LEVEL('unclassified') ;
#47=CARTESIAN_POINT(' ',(0.,0.,0.)) ;
#52=CARTESIAN_POINT('Axis2P3D Location',(39.6398059727,36.6699574917,0.)) ;
#57=CARTESIAN_POINT('Line Origine',(39.6398059727,36.6699574917,5.)) ;
#61=CARTESIAN_POINT('Vertex',(39.6398059727,36.6699574917,0.)) ;
#63=CARTESIAN_POINT('Vertex',(39.6398059727,36.6699574917,10.)) ;
#66=CARTESIAN_POINT('Line Origine',(74.8199029864,71.8500545054,0.)) ;
#70=CARTESIAN_POINT('Vertex',(110.,107.030151519,0.)) ;
#73=CARTESIAN_POINT('Line Origine',(110.,107.030151519,5.)) ;
#77=CARTESIAN_POINT('Vertex',(110.,107.030151519,10.)) ;
#80=CARTESIAN_POINT('Line Origine',(74.8199029864,71.8500545054,10.)) ;
#92=CARTESIAN_POINT('Axis2P3D Location',(108.51507576,108.51507576,5.)) ;
#97=CARTESIAN_POINT('Axis2P3D Location',(108.51507576,108.51507576,0.)) ;
#101=CARTESIAN_POINT('Vertex',(107.030151519,110.,0.)) ;
#104=CARTESIAN_POINT('Line Origine',(107.030151519,110.,5.)) ;
#108=CARTESIAN_POINT('Vertex',(107.030151519,110.,10.)) ;
#111=CARTESIAN_POINT('Axis2P3D Location',(108.51507576,108.51507576,10.)) ;
#123=CARTESIAN_POINT('Axis2P3D Location',(107.030151519,110.,0.)) ;
#128=CARTESIAN_POINT('Line Origine',(71.8500545054,74.8199029864,0.)) ;
#132=CARTESIAN_POINT('Vertex',(36.6699574917,39.6398059727,0.)) ;
#135=CARTESIAN_POINT('Line Origine',(36.6699574917,39.6398059727,5.)) ;
#139=CARTESIAN_POINT('Vertex',(36.6699574917,39.6398059727,10.)) ;
#142=CARTESIAN_POINT('Line Origine',(71.8500545054,74.8199029864,10.)) ;
#154=CARTESIAN_POINT('Axis2P3D Location',(0.,0.,5.)) ;
#159=CARTESIAN_POINT('Axis2P3D Location',(0.,0.,0.)) ;
#163=CARTESIAN_POINT('Vertex',(37.0356306042,39.298372304,0.)) ;
#166=CARTESIAN_POINT('Line Origine',(37.0356306042,39.298372304,5.)) ;
#170=CARTESIAN_POINT('Vertex',(37.0356306042,39.298372304,10.)) ;
#173=CARTESIAN_POINT('Axis2P3D Location',(0.,0.,10.)) ;
#185=CARTESIAN_POINT('Axis2P3D Location',(37.0356306042,39.298372304,0.)) ;
#190=CARTESIAN_POINT('Line Origine',(72.2096677569,74.4724094567,0.)) ;
#194=CARTESIAN_POINT('Vertex',(107.38370491,109.646446609,0.)) ;
#197=CARTESIAN_POINT('Line Origine',(107.38370491,109.646446609,5.)) ;
#201=CARTESIAN_POINT('Vertex',(107.38370491,109.646446609,10.)) ;
#204=CARTESIAN_POINT('Line Origine',(72.2096677569,74.4724094567,10.)) ;
#216=CARTESIAN_POINT('Axis2P3D Location',(108.51507576,108.51507576,5.)) ;
#221=CARTESIAN_POINT('Axis2P3D Location',(108.51507576,108.51507576,0.)) ;
#225=CARTESIAN_POINT('Vertex',(109.646446609,107.38370491,0.)) ;
#228=CARTESIAN_POINT('Line Origine',(109.646446609,107.38370491,5.)) ;
#232=CARTESIAN_POINT('Vertex',(109.646446609,107.38370491,10.)) ;
#235=CARTESIAN_POINT('Axis2P3D Location',(108.51507576,108.51507576,10.)) ;
#247=CARTESIAN_POINT('Axis2P3D Location',(39.298372304,37.0356306042,0.)) ;
#252=CARTESIAN_POINT('Line Origine',(74.4724094567,72.2096677569,0.)) ;
#256=CARTESIAN_POINT('Vertex',(39.298372304,37.0356306042,0.)) ;
#259=CARTESIAN_POINT('Line Origine',(39.298372304,37.0356306042,5.)) ;
#263=CARTESIAN_POINT('Vertex',(39.298372304,37.0356306042,10.)) ;
#266=CARTESIAN_POINT('Line Origine',(74.4724094567,72.2096677569,10.)) ;
#278=CARTESIAN_POINT('Axis2P3D Location',(0.,0.,0.)) ;
#283=CARTESIAN_POINT('Axis2P3D Location',(0.,0.,10.)) ;
#295=CARTESIAN_POINT('Axis2P3D Location',(0.,0.,0.)) ;
#311=CARTESIAN_POINT('Axis2P3D Location',(0.,0.,10.)) ;
#53=DIRECTION('Axis2P3D Direction',(0.707106781187,-0.707106781187,0.)) ;
#54=DIRECTION('Axis2P3D XDirection',(0.707106781187,0.707106781187,0.)) ;
#58=DIRECTION('Vector Direction',(0.,0.,1.)) ;
#67=DIRECTION('Vector Direction',(0.707106781187,0.707106781187,0.)) ;
#74=DIRECTION('Vector Direction',(0.,0.,1.)) ;
#81=DIRECTION('Vector Direction',(0.707106781187,0.707106781187,0.)) ;
#93=DIRECTION('Axis2P3D Direction',(0.,0.,1.)) ;
#94=DIRECTION('Axis2P3D XDirection',(0.707106781187,-0.707106781187,0.)) ;
#98=DIRECTION('Axis2P3D Direction',(0.,0.,1.)) ;
#105=DIRECTION('Vector Direction',(0.,0.,1.)) ;
#112=DIRECTION('Axis2P3D Direction',(0.,0.,1.)) ;
#124=DIRECTION('Axis2P3D Direction',(-0.707106781187,0.707106781187,0.)) ;
#125=DIRECTION('Axis2P3D XDirection',(-0.707106781187,-0.707106781187,-0.)) ;
#129=DIRECTION('Vector Direction',(-0.707106781187,-0.707106781187,0.)) ;
#136=DIRECTION('Vector Direction',(0.,0.,1.)) ;
#143=DIRECTION('Vector Direction',(-0.707106781187,-0.707106781187,0.)) ;
#155=DIRECTION('Axis2P3D Direction',(0.,0.,1.)) ;
#156=DIRECTION('Axis2P3D XDirection',(0.734070480976,0.679073286884,0.)) ;
#160=DIRECTION('Axis2P3D Direction',(0.,0.,1.)) ;
#167=DIRECTION('Vector Direction',(0.,0.,1.)) ;
#174=DIRECTION('Axis2P3D Direction',(0.,0.,1.)) ;
#186=DIRECTION('Axis2P3D Direction',(0.707106781187,-0.707106781187,0.)) ;
#187=DIRECTION('Axis2P3D XDirection',(0.707106781187,0.707106781187,0.)) ;
#191=DIRECTION('Vector Direction',(0.707106781187,0.707106781187,0.)) ;
#198=DIRECTION('Vector Direction',(0.,0.,1.)) ;
#205=DIRECTION('Vector Direction',(0.707106781187,0.707106781187,0.)) ;
#217=DIRECTION('Axis2P3D Direction',(0.,0.,1.)) ;
#218=DIRECTION('Axis2P3D XDirection',(0.707106781187,-0.707106781187,0.)) ;
#222=DIRECTION('Axis2P3D Direction',(0.,0.,1.)) ;
#229=DIRECTION('Vector Direction',(0.,0.,1.)) ;
#236=DIRECTION('Axis2P3D Direction',(0.,0.,1.)) ;
#248=DIRECTION('Axis2P3D Direction',(0.707106781187,-0.707106781187,0.)) ;
#249=DIRECTION('Axis2P3D XDirection',(0.707106781187,0.707106781187,0.)) ;
#253=DIRECTION('Vector Direction',(0.707106781187,0.707106781187,0.)) ;
#260=DIRECTION('Vector Direction',(0.,0.,1.)) ;
#267=DIRECTION('Vector Direction',(0.707106781187,0.707106781187,0.)) ;
#279=DIRECTION('Axis2P3D Direction',(0.,0.,1.)) ;
#284=DIRECTION('Axis2P3D Direction',(0.,0.,1.)) ;
#296=DIRECTION('Axis2P3D Direction',(0.,0.,1.)) ;
#297=DIRECTION('Axis2P3D XDirection',(1.,0.,0.)) ;
#312=DIRECTION('Axis2P3D Direction',(0.,0.,1.)) ;
#313=DIRECTION('Axis2P3D XDirection',(1.,0.,0.)) ;
#48=AXIS2_PLACEMENT_3D(' ',#47,$,$) ;
#55=AXIS2_PLACEMENT_3D('Plane Axis2P3D',#52,#53,#54) ;
#95=AXIS2_PLACEMENT_3D('Cylinder Axis2P3D',#92,#93,#94) ;
#99=AXIS2_PLACEMENT_3D('Circle Axis2P3D',#97,#98,$) ;
#113=AXIS2_PLACEMENT_3D('Circle Axis2P3D',#111,#112,$) ;
#126=AXIS2_PLACEMENT_3D('Plane Axis2P3D',#123,#124,#125) ;
#157=AXIS2_PLACEMENT_3D('Cylinder Axis2P3D',#154,#155,#156) ;
#161=AXIS2_PLACEMENT_3D('Circle Axis2P3D',#159,#160,$) ;
#175=AXIS2_PLACEMENT_3D('Circle Axis2P3D',#173,#174,$) ;
#188=AXIS2_PLACEMENT_3D('Plane Axis2P3D',#185,#186,#187) ;
#219=AXIS2_PLACEMENT_3D('Cylinder Axis2P3D',#216,#217,#218) ;
#223=AXIS2_PLACEMENT_3D('Circle Axis2P3D',#221,#222,$) ;
#237=AXIS2_PLACEMENT_3D('Circle Axis2P3D',#235,#236,$) ;
#250=AXIS2_PLACEMENT_3D('Plane Axis2P3D',#247,#248,#249) ;
#280=AXIS2_PLACEMENT_3D('Circle Axis2P3D',#278,#279,$) ;
#285=AXIS2_PLACEMENT_3D('Circle Axis2P3D',#283,#284,$) ;
#298=AXIS2_PLACEMENT_3D('Plane Axis2P3D',#295,#296,#297) ;
#314=AXIS2_PLACEMENT_3D('Plane Axis2P3D',#311,#312,#313) ;
#40=PRODUCT_DEFINITION_SHAPE(' ',' ',#14) ;
#31=APPROVAL_PERSON_ORGANIZATION(#25,#21,#19) ;
#25=PERSON_AND_ORGANIZATION(#22,#23) ;
#22=PERSON(' ',' ',' ',$,$,$) ;
#23=ORGANIZATION(' ',' ',' ') ;
#21=APPROVAL(#20,' ') ;
#20=APPROVAL_STATUS('not_yet_approved') ;
#19=APPROVAL_ROLE('APPROVER') ;
#13=DATE_AND_TIME(#11,#12) ;
#12=LOCAL_TIME(14,15,20.,#10) ;
#10=COORDINATED_UNIVERSAL_TIME_OFFSET(0,0,.AHEAD.) ;
#86=ORIENTED_EDGE('',*,*,#65,.F.) ;
#87=ORIENTED_EDGE('',*,*,#72,.T.) ;
#88=ORIENTED_EDGE('',*,*,#79,.T.) ;
#89=ORIENTED_EDGE('',*,*,#84,.F.) ;
#117=ORIENTED_EDGE('',*,*,#79,.F.) ;
#118=ORIENTED_EDGE('',*,*,#103,.T.) ;
#119=ORIENTED_EDGE('',*,*,#110,.T.) ;
#120=ORIENTED_EDGE('',*,*,#115,.F.) ;
#148=ORIENTED_EDGE('',*,*,#110,.F.) ;
#149=ORIENTED_EDGE('',*,*,#134,.T.) ;
#150=ORIENTED_EDGE('',*,*,#141,.T.) ;
#151=ORIENTED_EDGE('',*,*,#146,.F.) ;
#179=ORIENTED_EDGE('',*,*,#141,.F.) ;
#180=ORIENTED_EDGE('',*,*,#165,.T.) ;
#181=ORIENTED_EDGE('',*,*,#172,.T.) ;
#182=ORIENTED_EDGE('',*,*,#177,.F.) ;
#210=ORIENTED_EDGE('',*,*,#172,.F.) ;
#211=ORIENTED_EDGE('',*,*,#196,.T.) ;
#212=ORIENTED_EDGE('',*,*,#203,.T.) ;
#213=ORIENTED_EDGE('',*,*,#208,.F.) ;
#241=ORIENTED_EDGE('',*,*,#203,.F.) ;
#242=ORIENTED_EDGE('',*,*,#227,.T.) ;
#243=ORIENTED_EDGE('',*,*,#234,.T.) ;
#244=ORIENTED_EDGE('',*,*,#239,.F.) ;
#272=ORIENTED_EDGE('',*,*,#234,.F.) ;
#273=ORIENTED_EDGE('',*,*,#258,.T.) ;
#274=ORIENTED_EDGE('',*,*,#265,.T.) ;
#275=ORIENTED_EDGE('',*,*,#270,.F.) ;
#289=ORIENTED_EDGE('',*,*,#265,.F.) ;
#290=ORIENTED_EDGE('',*,*,#282,.T.) ;
#291=ORIENTED_EDGE('',*,*,#65,.T.) ;
#292=ORIENTED_EDGE('',*,*,#287,.F.) ;
#301=ORIENTED_EDGE('',*,*,#282,.F.) ;
#302=ORIENTED_EDGE('',*,*,#258,.F.) ;
#303=ORIENTED_EDGE('',*,*,#227,.F.) ;
#304=ORIENTED_EDGE('',*,*,#196,.F.) ;
#305=ORIENTED_EDGE('',*,*,#165,.F.) ;
#306=ORIENTED_EDGE('',*,*,#134,.F.) ;
#307=ORIENTED_EDGE('',*,*,#103,.F.) ;
#308=ORIENTED_EDGE('',*,*,#72,.F.) ;
#317=ORIENTED_EDGE('',*,*,#84,.T.) ;
#318=ORIENTED_EDGE('',*,*,#115,.T.) ;
#319=ORIENTED_EDGE('',*,*,#146,.T.) ;
#320=ORIENTED_EDGE('',*,*,#177,.T.) ;
#321=ORIENTED_EDGE('',*,*,#208,.T.) ;
#322=ORIENTED_EDGE('',*,*,#239,.T.) ;
#323=ORIENTED_EDGE('',*,*,#270,.T.) ;
#324=ORIENTED_EDGE('',*,*,#287,.T.) ;
#51=CLOSED_SHELL('Closed Shell',(#91,#122,#153,#184,#215,#246,#277,#294,#310,#326)) ;
#59=VECTOR('Line Direction',#58,1.) ;
#68=VECTOR('Line Direction',#67,1.) ;
#75=VECTOR('Line Direction',#74,1.) ;
#82=VECTOR('Line Direction',#81,1.) ;
#106=VECTOR('Line Direction',#105,1.) ;
#130=VECTOR('Line Direction',#129,1.) ;
#137=VECTOR('Line Direction',#136,1.) ;
#144=VECTOR('Line Direction',#143,1.) ;
#168=VECTOR('Line Direction',#167,1.) ;
#192=VECTOR('Line Direction',#191,1.) ;
#199=VECTOR('Line Direction',#198,1.) ;
#206=VECTOR('Line Direction',#205,1.) ;
#230=VECTOR('Line Direction',#229,1.) ;
#254=VECTOR('Line Direction',#253,1.) ;
#261=VECTOR('Line Direction',#260,1.) ;
#268=VECTOR('Line Direction',#267,1.) ;
#328=ADVANCED_BREP_SHAPE_REPRESENTATION('NONE',(#327),#46) ;
#49=SHAPE_REPRESENTATION(' ',(#48),#46) ;
#91=ADVANCED_FACE('PartBody',(#90),#56,.T.) ;
#122=ADVANCED_FACE('PartBody',(#121),#96,.T.) ;
#153=ADVANCED_FACE('PartBody',(#152),#127,.T.) ;
#184=ADVANCED_FACE('PartBody',(#183),#158,.F.) ;
#215=ADVANCED_FACE('PartBody',(#214),#189,.T.) ;
#246=ADVANCED_FACE('PartBody',(#245),#220,.F.) ;
#277=ADVANCED_FACE('PartBody',(#276),#251,.F.) ;
#294=ADVANCED_FACE('PartBody',(#293),#158,.F.) ;
#310=ADVANCED_FACE('PartBody',(#309),#299,.F.) ;
#326=ADVANCED_FACE('PartBody',(#325),#315,.T.) ;
#4=APPLICATION_PROTOCOL_DEFINITION('international standard','config_control_design',1994,#1) ;
#32=APPROVAL_DATE_TIME(#13,#21) ;
#327=MANIFOLD_SOLID_BREP('PartBody',#51) ;
#11=CALENDAR_DATE(2026,28,1) ;
#30=CC_DESIGN_APPROVAL(#21,(#16,#6,#14)) ;
#18=CC_DESIGN_DATE_AND_TIME_ASSIGNMENT(#13,#17,(#16)) ;
#29=CC_DESIGN_DATE_AND_TIME_ASSIGNMENT(#13,#28,(#14)) ;
#17=DATE_TIME_ROLE('classification_date') ;
#28=DATE_TIME_ROLE('creation_date') ;
#27=CC_DESIGN_PERSON_AND_ORGANIZATION_ASSIGNMENT(#25,#26,(#16)) ;
#33=CC_DESIGN_PERSON_AND_ORGANIZATION_ASSIGNMENT(#25,#34,(#6)) ;
#35=CC_DESIGN_PERSON_AND_ORGANIZATION_ASSIGNMENT(#25,#36,(#6,#14)) ;
#37=CC_DESIGN_PERSON_AND_ORGANIZATION_ASSIGNMENT(#25,#38,(#5)) ;
#26=PERSON_AND_ORGANIZATION_ROLE('classification_officer') ;
#34=PERSON_AND_ORGANIZATION_ROLE('design_supplier') ;
#36=PERSON_AND_ORGANIZATION_ROLE('creator') ;
#38=PERSON_AND_ORGANIZATION_ROLE('design_owner') ;
#39=CC_DESIGN_SECURITY_CLASSIFICATION(#16,(#6)) ;
#100=CIRCLE('generated circle',#99,2.1) ;
#114=CIRCLE('generated circle',#113,2.1) ;
#162=CIRCLE('generated circle',#161,54.) ;
#176=CIRCLE('generated circle',#175,54.) ;
#224=CIRCLE('generated circle',#223,1.6) ;
#238=CIRCLE('generated circle',#237,1.6) ;
#281=CIRCLE('generated circle',#280,54.) ;
#286=CIRCLE('generated circle',#285,54.) ;
#329=SHAPE_REPRESENTATION_RELATIONSHIP(' ',' ',#49,#328) ;
#96=CYLINDRICAL_SURFACE('generated cylinder',#95,2.1) ;
#158=CYLINDRICAL_SURFACE('generated cylinder',#157,54.) ;
#220=CYLINDRICAL_SURFACE('generated cylinder',#219,1.6) ;
#3=DESIGN_CONTEXT(' ',#1,'design') ;
#65=EDGE_CURVE('',#62,#64,#60,.T.) ;
#72=EDGE_CURVE('',#62,#71,#69,.T.) ;
#79=EDGE_CURVE('',#71,#78,#76,.T.) ;
#84=EDGE_CURVE('',#64,#78,#83,.T.) ;
#103=EDGE_CURVE('',#71,#102,#100,.T.) ;
#110=EDGE_CURVE('',#102,#109,#107,.T.) ;
#115=EDGE_CURVE('',#78,#109,#114,.T.) ;
#134=EDGE_CURVE('',#102,#133,#131,.T.) ;
#141=EDGE_CURVE('',#133,#140,#138,.T.) ;
#146=EDGE_CURVE('',#109,#140,#145,.T.) ;
#165=EDGE_CURVE('',#133,#164,#162,.F.) ;
#172=EDGE_CURVE('',#164,#171,#169,.T.) ;
#177=EDGE_CURVE('',#140,#171,#176,.F.) ;
#196=EDGE_CURVE('',#164,#195,#193,.T.) ;
#203=EDGE_CURVE('',#195,#202,#200,.T.) ;
#208=EDGE_CURVE('',#171,#202,#207,.T.) ;
#227=EDGE_CURVE('',#195,#226,#224,.F.) ;
#234=EDGE_CURVE('',#226,#233,#231,.T.) ;
#239=EDGE_CURVE('',#202,#233,#238,.F.) ;
#258=EDGE_CURVE('',#226,#257,#255,.F.) ;
#265=EDGE_CURVE('',#257,#264,#262,.T.) ;
#270=EDGE_CURVE('',#233,#264,#269,.F.) ;
#282=EDGE_CURVE('',#257,#62,#281,.F.) ;
#287=EDGE_CURVE('',#264,#64,#286,.F.) ;
#85=EDGE_LOOP('',(#86,#87,#88,#89)) ;
#116=EDGE_LOOP('',(#117,#118,#119,#120)) ;
#147=EDGE_LOOP('',(#148,#149,#150,#151)) ;
#178=EDGE_LOOP('',(#179,#180,#181,#182)) ;
#209=EDGE_LOOP('',(#210,#211,#212,#213)) ;
#240=EDGE_LOOP('',(#241,#242,#243,#244)) ;
#271=EDGE_LOOP('',(#272,#273,#274,#275)) ;
#288=EDGE_LOOP('',(#289,#290,#291,#292)) ;
#300=EDGE_LOOP('',(#301,#302,#303,#304,#305,#306,#307,#308)) ;
#316=EDGE_LOOP('',(#317,#318,#319,#320,#321,#322,#323,#324)) ;
#90=FACE_OUTER_BOUND('',#85,.T.) ;
#121=FACE_OUTER_BOUND('',#116,.T.) ;
#152=FACE_OUTER_BOUND('',#147,.T.) ;
#183=FACE_OUTER_BOUND('',#178,.T.) ;
#214=FACE_OUTER_BOUND('',#209,.T.) ;
#245=FACE_OUTER_BOUND('',#240,.T.) ;
#276=FACE_OUTER_BOUND('',#271,.T.) ;
#293=FACE_OUTER_BOUND('',#288,.T.) ;
#309=FACE_OUTER_BOUND('',#300,.T.) ;
#325=FACE_OUTER_BOUND('',#316,.T.) ;
#45=UNCERTAINTY_MEASURE_WITH_UNIT(LENGTH_MEASURE(0.005),#41,'distance_accuracy_value','CONFUSED CURVE UNCERTAINTY') ;
#60=LINE('Line',#57,#59) ;
#69=LINE('Line',#66,#68) ;
#76=LINE('Line',#73,#75) ;
#83=LINE('Line',#80,#82) ;
#107=LINE('Line',#104,#106) ;
#131=LINE('Line',#128,#130) ;
#138=LINE('Line',#135,#137) ;
#145=LINE('Line',#142,#144) ;
#169=LINE('Line',#166,#168) ;
#193=LINE('Line',#190,#192) ;
#200=LINE('Line',#197,#199) ;
#207=LINE('Line',#204,#206) ;
#231=LINE('Line',#228,#230) ;
#255=LINE('Line',#252,#254) ;
#262=LINE('Line',#259,#261) ;
#269=LINE('Line',#266,#268) ;
#2=MECHANICAL_CONTEXT(' ',#1,'mechanical') ;
#24=PERSONAL_ADDRESS(' ',' ',' ',' ',' ',' ',' ',' ',' ',' ',' ',' ',(#22),' ') ;
#56=PLANE('Plane',#55) ;
#127=PLANE('Plane',#126) ;
#189=PLANE('Plane',#188) ;
#251=PLANE('Plane',#250) ;
#299=PLANE('Plane',#298) ;
#315=PLANE('Plane',#314) ;
#43=PLANE_ANGLE_MEASURE_WITH_UNIT(PLANE_ANGLE_MEASURE(0.0174532925199),#42) ;
#7=PRODUCT_CATEGORY('part',$) ;
#9=PRODUCT_CATEGORY_RELATIONSHIP(' ',' ',#7,#8) ;
#6=PRODUCT_DEFINITION_FORMATION_WITH_SPECIFIED_SOURCE('',' ',#5,.NOT_KNOWN.) ;
#8=PRODUCT_RELATED_PRODUCT_CATEGORY('detail',$,(#5)) ;
#50=SHAPE_DEFINITION_REPRESENTATION(#40,#49) ;
#62=VERTEX_POINT('',#61) ;
#64=VERTEX_POINT('',#63) ;
#71=VERTEX_POINT('',#70) ;
#78=VERTEX_POINT('',#77) ;
#102=VERTEX_POINT('',#101) ;
#109=VERTEX_POINT('',#108) ;
#133=VERTEX_POINT('',#132) ;
#140=VERTEX_POINT('',#139) ;
#164=VERTEX_POINT('',#163) ;
#171=VERTEX_POINT('',#170) ;
#195=VERTEX_POINT('',#194) ;
#202=VERTEX_POINT('',#201) ;
#226=VERTEX_POINT('',#225) ;
#233=VERTEX_POINT('',#232) ;
#257=VERTEX_POINT('',#256) ;
#264=VERTEX_POINT('',#263) ;
#41=(LENGTH_UNIT()NAMED_UNIT(*)SI_UNIT(.MILLI.,.METRE.)) ;
#42=(NAMED_UNIT(*)PLANE_ANGLE_UNIT()SI_UNIT($,.RADIAN.)) ;
#44=(NAMED_UNIT(*)SI_UNIT($,.STERADIAN.)SOLID_ANGLE_UNIT()) ;
#46=(GEOMETRIC_REPRESENTATION_CONTEXT(3)GLOBAL_UNCERTAINTY_ASSIGNED_CONTEXT((#45))GLOBAL_UNIT_ASSIGNED_CONTEXT((#41,#42,#44))REPRESENTATION_CONTEXT(' ',' ')) ;
ENDSEC;
END-ISO-10303-21;
