ISO-10303-21;
HEADER;
FILE_DESCRIPTION(('CATIA V5 STEP Exchange'),'2;1');

FILE_NAME('C:\\Users\\alexi\\Documents\\scolaire\\IPSA\\AeroIpsa\\SP-02\\CATIA\\new_catia\\PONSEUR_AILERON.stp','2026-01-28T15:42:10+00:00',('none'),('none'),'CATIA Version 5 Release 19 GA (IN-10)','CATIA V5 STEP AP203','none');

FILE_SCHEMA(('CONFIG_CONTROL_DESIGN'));

ENDSEC;
/* file written by CATIA V5R19 */
DATA;
#5=PRODUCT('PONSEUR_AILERON','','',(#2)) ;
#1=APPLICATION_CONTEXT('configuration controlled 3D design of mechanical parts and assemblies') ;
#14=PRODUCT_DEFINITION('',' ',#6,#3) ;
#16=SECURITY_CLASSIFICATION(' ',' ',#15) ;
#15=SECURITY_CLASSIFICATION_LEVEL('unclassified') ;
#47=CARTESIAN_POINT(' ',(0.,0.,0.)) ;
#52=CARTESIAN_POINT('Axis2P3D Location',(14.,-2.5,65.)) ;
#57=CARTESIAN_POINT('Line Origine',(16.5,-2.5,65.)) ;
#61=CARTESIAN_POINT('Vertex',(16.5,-20.,65.)) ;
#63=CARTESIAN_POINT('Vertex',(16.5,15.,65.)) ;
#66=CARTESIAN_POINT('Axis2P3D Location',(14.,15.,65.)) ;
#70=CARTESIAN_POINT('Vertex',(11.5,15.,65.)) ;
#73=CARTESIAN_POINT('Line Origine',(11.5,-2.5,65.)) ;
#77=CARTESIAN_POINT('Vertex',(11.5,-20.,65.)) ;
#80=CARTESIAN_POINT('Axis2P3D Location',(14.,-20.,65.)) ;
#92=CARTESIAN_POINT('Axis2P3D Location',(-20.,-20.,0.)) ;
#97=CARTESIAN_POINT('Line Origine',(3.19744231092E-014,-20.,37.5)) ;
#101=CARTESIAN_POINT('Vertex',(3.15303338994E-014,-20.,0.)) ;
#103=CARTESIAN_POINT('Vertex',(3.15303338994E-014,-20.,75.)) ;
#106=CARTESIAN_POINT('Line Origine',(10.,-20.,0.)) ;
#110=CARTESIAN_POINT('Vertex',(20.,-20.,0.)) ;
#113=CARTESIAN_POINT('Line Origine',(20.,-20.,37.5)) ;
#117=CARTESIAN_POINT('Vertex',(20.,-20.,75.)) ;
#120=CARTESIAN_POINT('Line Origine',(10.,-20.,75.)) ;
#131=CARTESIAN_POINT('Axis2P3D Location',(14.,-20.,65.)) ;
#140=CARTESIAN_POINT('Axis2P3D Location',(14.,-20.,10.)) ;
#144=CARTESIAN_POINT('Vertex',(16.5,-20.,10.)) ;
#146=CARTESIAN_POINT('Vertex',(11.5,-20.,10.)) ;
#149=CARTESIAN_POINT('Axis2P3D Location',(14.,-20.,10.)) ;
#159=CARTESIAN_POINT('Axis2P3D Location',(-8.66025403784,15.,0.)) ;
#164=CARTESIAN_POINT('Line Origine',(20.,15.,37.5)) ;
#168=CARTESIAN_POINT('Vertex',(20.,15.,0.)) ;
#170=CARTESIAN_POINT('Vertex',(20.,15.,75.)) ;
#173=CARTESIAN_POINT('Line Origine',(14.3301270189,15.,0.)) ;
#177=CARTESIAN_POINT('Vertex',(8.66025403784,15.,0.)) ;
#180=CARTESIAN_POINT('Line Origine',(8.66025403784,15.,37.5)) ;
#184=CARTESIAN_POINT('Vertex',(8.66025403784,15.,75.)) ;
#187=CARTESIAN_POINT('Line Origine',(14.3301270189,15.,75.)) ;
#198=CARTESIAN_POINT('Axis2P3D Location',(14.,15.,65.)) ;
#207=CARTESIAN_POINT('Axis2P3D Location',(14.,15.,10.)) ;
#211=CARTESIAN_POINT('Vertex',(11.5,15.,10.)) ;
#213=CARTESIAN_POINT('Vertex',(16.5,15.,10.)) ;
#216=CARTESIAN_POINT('Axis2P3D Location',(14.,15.,10.)) ;
#226=CARTESIAN_POINT('Axis2P3D Location',(20.,15.,0.)) ;
#231=CARTESIAN_POINT('Line Origine',(20.,-2.5,0.)) ;
#236=CARTESIAN_POINT('Line Origine',(20.,-2.5,75.)) ;
#248=CARTESIAN_POINT('Axis2P3D Location',(0.,0.,0.)) ;
#253=CARTESIAN_POINT('Line Origine',(4.58012701892,7.93301270189,0.)) ;
#257=CARTESIAN_POINT('Vertex',(0.5,0.866025403784,0.)) ;
#260=CARTESIAN_POINT('Line Origine',(-10.,-20.,0.)) ;
#264=CARTESIAN_POINT('Vertex',(-20.,-20.,0.)) ;
#267=CARTESIAN_POINT('Line Origine',(-20.,-2.5,0.)) ;
#271=CARTESIAN_POINT('Vertex',(-20.,15.,0.)) ;
#274=CARTESIAN_POINT('Line Origine',(-14.3301270189,15.,0.)) ;
#278=CARTESIAN_POINT('Vertex',(-8.66025403784,15.,0.)) ;
#281=CARTESIAN_POINT('Line Origine',(-4.58012701892,7.93301270189,0.)) ;
#285=CARTESIAN_POINT('Vertex',(-0.5,0.866025403784,0.)) ;
#288=CARTESIAN_POINT('Line Origine',(-0.5,-1.31698729811,0.)) ;
#292=CARTESIAN_POINT('Vertex',(-0.5,-3.5,0.)) ;
#295=CARTESIAN_POINT('Axis2P3D Location',(4.90975319512E-015,-3.5,0.)) ;
#299=CARTESIAN_POINT('Vertex',(2.55192635271E-016,-4.,0.)) ;
#302=CARTESIAN_POINT('Axis2P3D Location',(3.47041145207E-016,-3.5,0.)) ;
#306=CARTESIAN_POINT('Vertex',(0.5,-3.5,0.)) ;
#309=CARTESIAN_POINT('Line Origine',(0.5,-1.31698729811,0.)) ;
#329=CARTESIAN_POINT('Axis2P3D Location',(0.5,0.866025403784,0.)) ;
#334=CARTESIAN_POINT('Line Origine',(0.5,0.866025403784,37.5)) ;
#338=CARTESIAN_POINT('Vertex',(0.5,0.866025403784,75.)) ;
#341=CARTESIAN_POINT('Line Origine',(4.58012701892,7.93301270189,75.)) ;
#353=CARTESIAN_POINT('Axis2P3D Location',(-14.,-2.5,10.)) ;
#358=CARTESIAN_POINT('Line Origine',(-16.5,-2.5,10.)) ;
#362=CARTESIAN_POINT('Vertex',(-16.5,-20.,10.)) ;
#364=CARTESIAN_POINT('Vertex',(-16.5,15.,10.)) ;
#367=CARTESIAN_POINT('Axis2P3D Location',(-14.,15.,10.)) ;
#371=CARTESIAN_POINT('Vertex',(-11.5,15.,10.)) ;
#374=CARTESIAN_POINT('Line Origine',(-11.5,-2.5,10.)) ;
#378=CARTESIAN_POINT('Vertex',(-11.5,-20.,10.)) ;
#381=CARTESIAN_POINT('Axis2P3D Location',(-14.,-20.,10.)) ;
#393=CARTESIAN_POINT('Axis2P3D Location',(-14.,15.,10.)) ;
#398=CARTESIAN_POINT('Axis2P3D Location',(-14.,-20.,10.)) ;
#410=CARTESIAN_POINT('Axis2P3D Location',(-14.,-2.5,65.)) ;
#415=CARTESIAN_POINT('Line Origine',(-16.5,-2.5,65.)) ;
#419=CARTESIAN_POINT('Vertex',(-16.5,-20.,65.)) ;
#421=CARTESIAN_POINT('Vertex',(-16.5,15.,65.)) ;
#424=CARTESIAN_POINT('Axis2P3D Location',(-14.,15.,65.)) ;
#428=CARTESIAN_POINT('Vertex',(-11.5,15.,65.)) ;
#431=CARTESIAN_POINT('Line Origine',(-11.5,-2.5,65.)) ;
#435=CARTESIAN_POINT('Vertex',(-11.5,-20.,65.)) ;
#438=CARTESIAN_POINT('Axis2P3D Location',(-14.,-20.,65.)) ;
#450=CARTESIAN_POINT('Axis2P3D Location',(-14.,15.,65.)) ;
#455=CARTESIAN_POINT('Axis2P3D Location',(-14.,-20.,65.)) ;
#467=CARTESIAN_POINT('Axis2P3D Location',(-20.,15.,0.)) ;
#472=CARTESIAN_POINT('Line Origine',(-20.,15.,37.5)) ;
#476=CARTESIAN_POINT('Vertex',(-20.,15.,75.)) ;
#479=CARTESIAN_POINT('Line Origine',(-20.,-20.,37.5)) ;
#483=CARTESIAN_POINT('Vertex',(-20.,-20.,75.)) ;
#486=CARTESIAN_POINT('Line Origine',(-20.,-2.5,75.)) ;
#498=CARTESIAN_POINT('Line Origine',(-8.66025403784,15.,37.5)) ;
#502=CARTESIAN_POINT('Vertex',(-8.66025403784,15.,75.)) ;
#505=CARTESIAN_POINT('Line Origine',(-14.3301270189,15.,75.)) ;
#525=CARTESIAN_POINT('Axis2P3D Location',(-0.5,0.866025403784,0.)) ;
#530=CARTESIAN_POINT('Line Origine',(-0.5,0.866025403784,37.5)) ;
#534=CARTESIAN_POINT('Vertex',(-0.5,0.866025403784,75.)) ;
#537=CARTESIAN_POINT('Line Origine',(-4.58012701892,7.93301270189,75.)) ;
#549=CARTESIAN_POINT('Axis2P3D Location',(-0.5,0.866025403784,0.)) ;
#554=CARTESIAN_POINT('Line Origine',(-0.5,-3.5,37.5)) ;
#558=CARTESIAN_POINT('Vertex',(-0.5,-3.5,75.)) ;
#561=CARTESIAN_POINT('Line Origine',(-0.5,-1.31698729811,75.)) ;
#573=CARTESIAN_POINT('Axis2P3D Location',(3.47041145207E-016,-3.5,37.5)) ;
#578=CARTESIAN_POINT('Line Origine',(2.55192635271E-016,-4.,37.5)) ;
#582=CARTESIAN_POINT('Vertex',(2.55192635271E-016,-4.,75.)) ;
#585=CARTESIAN_POINT('Axis2P3D Location',(3.47041145207E-016,-3.5,75.)) ;
#597=CARTESIAN_POINT('Line Origine',(0.5,-3.5,37.5)) ;
#601=CARTESIAN_POINT('Vertex',(0.5,-3.5,75.)) ;
#604=CARTESIAN_POINT('Axis2P3D Location',(3.47041145207E-016,-3.5,75.)) ;
#616=CARTESIAN_POINT('Axis2P3D Location',(0.5,0.866025403784,0.)) ;
#621=CARTESIAN_POINT('Line Origine',(0.5,-1.31698729811,75.)) ;
#633=CARTESIAN_POINT('Axis2P3D Location',(14.,-2.5,10.)) ;
#638=CARTESIAN_POINT('Line Origine',(16.5,-2.5,10.)) ;
#643=CARTESIAN_POINT('Line Origine',(11.5,-2.5,10.)) ;
#662=CARTESIAN_POINT('Line Origine',(-10.,-20.,75.)) ;
#682=CARTESIAN_POINT('Axis2P3D Location',(0.,0.,75.)) ;
#53=DIRECTION('Axis2P3D Direction',(0.,1.,0.)) ;
#54=DIRECTION('Axis2P3D XDirection',(-1.,0.,0.)) ;
#58=DIRECTION('Vector Direction',(0.,1.,0.)) ;
#67=DIRECTION('Axis2P3D Direction',(0.,1.,0.)) ;
#74=DIRECTION('Vector Direction',(0.,1.,0.)) ;
#81=DIRECTION('Axis2P3D Direction',(0.,1.,0.)) ;
#93=DIRECTION('Axis2P3D Direction',(0.,-1.,0.)) ;
#94=DIRECTION('Axis2P3D XDirection',(1.,0.,0.)) ;
#98=DIRECTION('Vector Direction',(0.,0.,1.)) ;
#107=DIRECTION('Vector Direction',(-1.,0.,0.)) ;
#114=DIRECTION('Vector Direction',(0.,0.,1.)) ;
#121=DIRECTION('Vector Direction',(-1.,0.,0.)) ;
#132=DIRECTION('Axis2P3D Direction',(0.,-1.,0.)) ;
#141=DIRECTION('Axis2P3D Direction',(0.,-1.,0.)) ;
#150=DIRECTION('Axis2P3D Direction',(0.,-1.,0.)) ;
#160=DIRECTION('Axis2P3D Direction',(-6.26594932666E-016,1.,0.)) ;
#161=DIRECTION('Axis2P3D XDirection',(-1.,-6.26594932666E-016,-0.)) ;
#165=DIRECTION('Vector Direction',(0.,0.,1.)) ;
#174=DIRECTION('Vector Direction',(1.,6.26594932666E-016,0.)) ;
#181=DIRECTION('Vector Direction',(0.,0.,1.)) ;
#188=DIRECTION('Vector Direction',(1.,6.26594932666E-016,0.)) ;
#199=DIRECTION('Axis2P3D Direction',(-6.26594932666E-016,1.,0.)) ;
#208=DIRECTION('Axis2P3D Direction',(-6.26594932666E-016,1.,0.)) ;
#217=DIRECTION('Axis2P3D Direction',(-6.26594932666E-016,1.,0.)) ;
#227=DIRECTION('Axis2P3D Direction',(-1.,0.,0.)) ;
#228=DIRECTION('Axis2P3D XDirection',(0.,-1.,0.)) ;
#232=DIRECTION('Vector Direction',(0.,-1.,0.)) ;
#237=DIRECTION('Vector Direction',(0.,-1.,0.)) ;
#249=DIRECTION('Axis2P3D Direction',(0.,0.,1.)) ;
#250=DIRECTION('Axis2P3D XDirection',(1.,0.,0.)) ;
#254=DIRECTION('Vector Direction',(0.5,0.866025403784,0.)) ;
#261=DIRECTION('Vector Direction',(1.,0.,0.)) ;
#268=DIRECTION('Vector Direction',(1.01506105109E-015,-1.,0.)) ;
#275=DIRECTION('Vector Direction',(-1.,-6.26594932666E-016,0.)) ;
#282=DIRECTION('Vector Direction',(-0.5,0.866025403784,0.)) ;
#289=DIRECTION('Vector Direction',(1.01714756278E-015,-1.,0.)) ;
#296=DIRECTION('Axis2P3D Direction',(0.,0.,1.)) ;
#303=DIRECTION('Axis2P3D Direction',(0.,0.,1.)) ;
#310=DIRECTION('Vector Direction',(0.,-1.,0.)) ;
#330=DIRECTION('Axis2P3D Direction',(0.866025403784,-0.5,0.)) ;
#331=DIRECTION('Axis2P3D XDirection',(0.5,0.866025403784,0.)) ;
#335=DIRECTION('Vector Direction',(0.,0.,1.)) ;
#342=DIRECTION('Vector Direction',(0.5,0.866025403784,0.)) ;
#354=DIRECTION('Axis2P3D Direction',(0.,1.,0.)) ;
#355=DIRECTION('Axis2P3D XDirection',(1.,-0.,1.22464679915E-016)) ;
#359=DIRECTION('Vector Direction',(0.,1.,0.)) ;
#368=DIRECTION('Axis2P3D Direction',(0.,1.,0.)) ;
#375=DIRECTION('Vector Direction',(0.,1.,0.)) ;
#382=DIRECTION('Axis2P3D Direction',(0.,1.,0.)) ;
#394=DIRECTION('Axis2P3D Direction',(0.,1.,0.)) ;
#399=DIRECTION('Axis2P3D Direction',(0.,1.,0.)) ;
#411=DIRECTION('Axis2P3D Direction',(0.,1.,0.)) ;
#412=DIRECTION('Axis2P3D XDirection',(1.,-0.,1.22464679915E-016)) ;
#416=DIRECTION('Vector Direction',(0.,1.,0.)) ;
#425=DIRECTION('Axis2P3D Direction',(0.,1.,0.)) ;
#432=DIRECTION('Vector Direction',(0.,1.,0.)) ;
#439=DIRECTION('Axis2P3D Direction',(0.,1.,0.)) ;
#451=DIRECTION('Axis2P3D Direction',(0.,1.,0.)) ;
#456=DIRECTION('Axis2P3D Direction',(0.,1.,0.)) ;
#468=DIRECTION('Axis2P3D Direction',(-1.,-1.01506105109E-015,0.)) ;
#469=DIRECTION('Axis2P3D XDirection',(1.01506105109E-015,-1.,0.)) ;
#473=DIRECTION('Vector Direction',(0.,0.,1.)) ;
#480=DIRECTION('Vector Direction',(0.,0.,1.)) ;
#487=DIRECTION('Vector Direction',(1.01506105109E-015,-1.,0.)) ;
#499=DIRECTION('Vector Direction',(0.,0.,1.)) ;
#506=DIRECTION('Vector Direction',(-1.,-6.26594932666E-016,0.)) ;
#526=DIRECTION('Axis2P3D Direction',(0.866025403784,0.5,-0.)) ;
#527=DIRECTION('Axis2P3D XDirection',(-0.5,0.866025403784,0.)) ;
#531=DIRECTION('Vector Direction',(0.,0.,1.)) ;
#538=DIRECTION('Vector Direction',(-0.5,0.866025403784,0.)) ;
#550=DIRECTION('Axis2P3D Direction',(-1.,-1.01714756278E-015,0.)) ;
#551=DIRECTION('Axis2P3D XDirection',(1.01714756278E-015,-1.,0.)) ;
#555=DIRECTION('Vector Direction',(0.,0.,1.)) ;
#562=DIRECTION('Vector Direction',(1.01714756278E-015,-1.,0.)) ;
#574=DIRECTION('Axis2P3D Direction',(0.,0.,1.)) ;
#575=DIRECTION('Axis2P3D XDirection',(-1.,-7.65713739785E-016,-0.)) ;
#579=DIRECTION('Vector Direction',(0.,0.,1.)) ;
#586=DIRECTION('Axis2P3D Direction',(0.,0.,1.)) ;
#598=DIRECTION('Vector Direction',(0.,0.,1.)) ;
#605=DIRECTION('Axis2P3D Direction',(0.,0.,1.)) ;
#617=DIRECTION('Axis2P3D Direction',(-1.,0.,0.)) ;
#618=DIRECTION('Axis2P3D XDirection',(0.,-1.,0.)) ;
#622=DIRECTION('Vector Direction',(0.,-1.,0.)) ;
#634=DIRECTION('Axis2P3D Direction',(0.,1.,0.)) ;
#635=DIRECTION('Axis2P3D XDirection',(-1.,0.,0.)) ;
#639=DIRECTION('Vector Direction',(0.,1.,0.)) ;
#644=DIRECTION('Vector Direction',(0.,1.,0.)) ;
#663=DIRECTION('Vector Direction',(1.,0.,0.)) ;
#683=DIRECTION('Axis2P3D Direction',(0.,0.,1.)) ;
#684=DIRECTION('Axis2P3D XDirection',(1.,0.,0.)) ;
#48=AXIS2_PLACEMENT_3D(' ',#47,$,$) ;
#55=AXIS2_PLACEMENT_3D('Cylinder Axis2P3D',#52,#53,#54) ;
#68=AXIS2_PLACEMENT_3D('Circle Axis2P3D',#66,#67,$) ;
#82=AXIS2_PLACEMENT_3D('Circle Axis2P3D',#80,#81,$) ;
#95=AXIS2_PLACEMENT_3D('Plane Axis2P3D',#92,#93,#94) ;
#133=AXIS2_PLACEMENT_3D('Circle Axis2P3D',#131,#132,$) ;
#142=AXIS2_PLACEMENT_3D('Circle Axis2P3D',#140,#141,$) ;
#151=AXIS2_PLACEMENT_3D('Circle Axis2P3D',#149,#150,$) ;
#162=AXIS2_PLACEMENT_3D('Plane Axis2P3D',#159,#160,#161) ;
#200=AXIS2_PLACEMENT_3D('Circle Axis2P3D',#198,#199,$) ;
#209=AXIS2_PLACEMENT_3D('Circle Axis2P3D',#207,#208,$) ;
#218=AXIS2_PLACEMENT_3D('Circle Axis2P3D',#216,#217,$) ;
#229=AXIS2_PLACEMENT_3D('Plane Axis2P3D',#226,#227,#228) ;
#251=AXIS2_PLACEMENT_3D('Plane Axis2P3D',#248,#249,#250) ;
#297=AXIS2_PLACEMENT_3D('Circle Axis2P3D',#295,#296,$) ;
#304=AXIS2_PLACEMENT_3D('Circle Axis2P3D',#302,#303,$) ;
#332=AXIS2_PLACEMENT_3D('Plane Axis2P3D',#329,#330,#331) ;
#356=AXIS2_PLACEMENT_3D('Cylinder Axis2P3D',#353,#354,#355) ;
#369=AXIS2_PLACEMENT_3D('Circle Axis2P3D',#367,#368,$) ;
#383=AXIS2_PLACEMENT_3D('Circle Axis2P3D',#381,#382,$) ;
#395=AXIS2_PLACEMENT_3D('Circle Axis2P3D',#393,#394,$) ;
#400=AXIS2_PLACEMENT_3D('Circle Axis2P3D',#398,#399,$) ;
#413=AXIS2_PLACEMENT_3D('Cylinder Axis2P3D',#410,#411,#412) ;
#426=AXIS2_PLACEMENT_3D('Circle Axis2P3D',#424,#425,$) ;
#440=AXIS2_PLACEMENT_3D('Circle Axis2P3D',#438,#439,$) ;
#452=AXIS2_PLACEMENT_3D('Circle Axis2P3D',#450,#451,$) ;
#457=AXIS2_PLACEMENT_3D('Circle Axis2P3D',#455,#456,$) ;
#470=AXIS2_PLACEMENT_3D('Plane Axis2P3D',#467,#468,#469) ;
#528=AXIS2_PLACEMENT_3D('Plane Axis2P3D',#525,#526,#527) ;
#552=AXIS2_PLACEMENT_3D('Plane Axis2P3D',#549,#550,#551) ;
#576=AXIS2_PLACEMENT_3D('Cylinder Axis2P3D',#573,#574,#575) ;
#587=AXIS2_PLACEMENT_3D('Circle Axis2P3D',#585,#586,$) ;
#606=AXIS2_PLACEMENT_3D('Circle Axis2P3D',#604,#605,$) ;
#619=AXIS2_PLACEMENT_3D('Plane Axis2P3D',#616,#617,#618) ;
#636=AXIS2_PLACEMENT_3D('Cylinder Axis2P3D',#633,#634,#635) ;
#685=AXIS2_PLACEMENT_3D('Plane Axis2P3D',#682,#683,#684) ;
#40=PRODUCT_DEFINITION_SHAPE(' ',' ',#14) ;
#31=APPROVAL_PERSON_ORGANIZATION(#25,#21,#19) ;
#25=PERSON_AND_ORGANIZATION(#22,#23) ;
#22=PERSON(' ',' ',' ',$,$,$) ;
#23=ORGANIZATION(' ',' ',' ') ;
#21=APPROVAL(#20,' ') ;
#20=APPROVAL_STATUS('not_yet_approved') ;
#19=APPROVAL_ROLE('APPROVER') ;
#13=DATE_AND_TIME(#11,#12) ;
#12=LOCAL_TIME(16,42,10.,#10) ;
#10=COORDINATED_UNIVERSAL_TIME_OFFSET(0,0,.AHEAD.) ;
#86=ORIENTED_EDGE('',*,*,#65,.T.) ;
#87=ORIENTED_EDGE('',*,*,#72,.T.) ;
#88=ORIENTED_EDGE('',*,*,#79,.F.) ;
#89=ORIENTED_EDGE('',*,*,#84,.T.) ;
#126=ORIENTED_EDGE('',*,*,#105,.F.) ;
#127=ORIENTED_EDGE('',*,*,#112,.T.) ;
#128=ORIENTED_EDGE('',*,*,#119,.T.) ;
#129=ORIENTED_EDGE('',*,*,#124,.F.) ;
#137=ORIENTED_EDGE('',*,*,#135,.F.) ;
#138=ORIENTED_EDGE('',*,*,#84,.F.) ;
#155=ORIENTED_EDGE('',*,*,#148,.F.) ;
#156=ORIENTED_EDGE('',*,*,#153,.F.) ;
#193=ORIENTED_EDGE('',*,*,#172,.F.) ;
#194=ORIENTED_EDGE('',*,*,#179,.T.) ;
#195=ORIENTED_EDGE('',*,*,#186,.T.) ;
#196=ORIENTED_EDGE('',*,*,#191,.F.) ;
#204=ORIENTED_EDGE('',*,*,#202,.F.) ;
#205=ORIENTED_EDGE('',*,*,#72,.F.) ;
#222=ORIENTED_EDGE('',*,*,#215,.F.) ;
#223=ORIENTED_EDGE('',*,*,#220,.F.) ;
#242=ORIENTED_EDGE('',*,*,#119,.F.) ;
#243=ORIENTED_EDGE('',*,*,#235,.T.) ;
#244=ORIENTED_EDGE('',*,*,#172,.T.) ;
#245=ORIENTED_EDGE('',*,*,#240,.F.) ;
#315=ORIENTED_EDGE('',*,*,#259,.F.) ;
#316=ORIENTED_EDGE('',*,*,#179,.F.) ;
#317=ORIENTED_EDGE('',*,*,#235,.F.) ;
#318=ORIENTED_EDGE('',*,*,#112,.F.) ;
#319=ORIENTED_EDGE('',*,*,#266,.F.) ;
#320=ORIENTED_EDGE('',*,*,#273,.F.) ;
#321=ORIENTED_EDGE('',*,*,#280,.F.) ;
#322=ORIENTED_EDGE('',*,*,#287,.F.) ;
#323=ORIENTED_EDGE('',*,*,#294,.F.) ;
#324=ORIENTED_EDGE('',*,*,#301,.F.) ;
#325=ORIENTED_EDGE('',*,*,#308,.F.) ;
#326=ORIENTED_EDGE('',*,*,#313,.F.) ;
#347=ORIENTED_EDGE('',*,*,#186,.F.) ;
#348=ORIENTED_EDGE('',*,*,#259,.T.) ;
#349=ORIENTED_EDGE('',*,*,#340,.T.) ;
#350=ORIENTED_EDGE('',*,*,#345,.F.) ;
#387=ORIENTED_EDGE('',*,*,#366,.T.) ;
#388=ORIENTED_EDGE('',*,*,#373,.T.) ;
#389=ORIENTED_EDGE('',*,*,#380,.F.) ;
#390=ORIENTED_EDGE('',*,*,#385,.T.) ;
#404=ORIENTED_EDGE('',*,*,#380,.T.) ;
#405=ORIENTED_EDGE('',*,*,#397,.T.) ;
#406=ORIENTED_EDGE('',*,*,#366,.F.) ;
#407=ORIENTED_EDGE('',*,*,#402,.T.) ;
#444=ORIENTED_EDGE('',*,*,#423,.T.) ;
#445=ORIENTED_EDGE('',*,*,#430,.T.) ;
#446=ORIENTED_EDGE('',*,*,#437,.F.) ;
#447=ORIENTED_EDGE('',*,*,#442,.T.) ;
#461=ORIENTED_EDGE('',*,*,#437,.T.) ;
#462=ORIENTED_EDGE('',*,*,#454,.T.) ;
#463=ORIENTED_EDGE('',*,*,#423,.F.) ;
#464=ORIENTED_EDGE('',*,*,#459,.T.) ;
#492=ORIENTED_EDGE('',*,*,#478,.F.) ;
#493=ORIENTED_EDGE('',*,*,#273,.T.) ;
#494=ORIENTED_EDGE('',*,*,#485,.T.) ;
#495=ORIENTED_EDGE('',*,*,#490,.F.) ;
#511=ORIENTED_EDGE('',*,*,#504,.F.) ;
#512=ORIENTED_EDGE('',*,*,#280,.T.) ;
#513=ORIENTED_EDGE('',*,*,#478,.T.) ;
#514=ORIENTED_EDGE('',*,*,#509,.F.) ;
#517=ORIENTED_EDGE('',*,*,#454,.F.) ;
#518=ORIENTED_EDGE('',*,*,#430,.F.) ;
#521=ORIENTED_EDGE('',*,*,#397,.F.) ;
#522=ORIENTED_EDGE('',*,*,#373,.F.) ;
#543=ORIENTED_EDGE('',*,*,#536,.F.) ;
#544=ORIENTED_EDGE('',*,*,#287,.T.) ;
#545=ORIENTED_EDGE('',*,*,#504,.T.) ;
#546=ORIENTED_EDGE('',*,*,#541,.F.) ;
#567=ORIENTED_EDGE('',*,*,#560,.F.) ;
#568=ORIENTED_EDGE('',*,*,#294,.T.) ;
#569=ORIENTED_EDGE('',*,*,#536,.T.) ;
#570=ORIENTED_EDGE('',*,*,#565,.F.) ;
#591=ORIENTED_EDGE('',*,*,#584,.F.) ;
#592=ORIENTED_EDGE('',*,*,#301,.T.) ;
#593=ORIENTED_EDGE('',*,*,#560,.T.) ;
#594=ORIENTED_EDGE('',*,*,#589,.F.) ;
#610=ORIENTED_EDGE('',*,*,#603,.F.) ;
#611=ORIENTED_EDGE('',*,*,#308,.T.) ;
#612=ORIENTED_EDGE('',*,*,#584,.T.) ;
#613=ORIENTED_EDGE('',*,*,#608,.F.) ;
#627=ORIENTED_EDGE('',*,*,#340,.F.) ;
#628=ORIENTED_EDGE('',*,*,#313,.T.) ;
#629=ORIENTED_EDGE('',*,*,#603,.T.) ;
#630=ORIENTED_EDGE('',*,*,#625,.F.) ;
#649=ORIENTED_EDGE('',*,*,#642,.T.) ;
#650=ORIENTED_EDGE('',*,*,#220,.T.) ;
#651=ORIENTED_EDGE('',*,*,#647,.F.) ;
#652=ORIENTED_EDGE('',*,*,#153,.T.) ;
#656=ORIENTED_EDGE('',*,*,#647,.T.) ;
#657=ORIENTED_EDGE('',*,*,#215,.T.) ;
#658=ORIENTED_EDGE('',*,*,#642,.F.) ;
#659=ORIENTED_EDGE('',*,*,#148,.T.) ;
#668=ORIENTED_EDGE('',*,*,#485,.F.) ;
#669=ORIENTED_EDGE('',*,*,#266,.T.) ;
#670=ORIENTED_EDGE('',*,*,#105,.T.) ;
#671=ORIENTED_EDGE('',*,*,#666,.F.) ;
#674=ORIENTED_EDGE('',*,*,#459,.F.) ;
#675=ORIENTED_EDGE('',*,*,#442,.F.) ;
#678=ORIENTED_EDGE('',*,*,#402,.F.) ;
#679=ORIENTED_EDGE('',*,*,#385,.F.) ;
#688=ORIENTED_EDGE('',*,*,#625,.T.) ;
#689=ORIENTED_EDGE('',*,*,#608,.T.) ;
#690=ORIENTED_EDGE('',*,*,#589,.T.) ;
#691=ORIENTED_EDGE('',*,*,#565,.T.) ;
#692=ORIENTED_EDGE('',*,*,#541,.T.) ;
#693=ORIENTED_EDGE('',*,*,#509,.T.) ;
#694=ORIENTED_EDGE('',*,*,#490,.T.) ;
#695=ORIENTED_EDGE('',*,*,#666,.T.) ;
#696=ORIENTED_EDGE('',*,*,#124,.T.) ;
#697=ORIENTED_EDGE('',*,*,#240,.T.) ;
#698=ORIENTED_EDGE('',*,*,#191,.T.) ;
#699=ORIENTED_EDGE('',*,*,#345,.T.) ;
#703=ORIENTED_EDGE('',*,*,#79,.T.) ;
#704=ORIENTED_EDGE('',*,*,#202,.T.) ;
#705=ORIENTED_EDGE('',*,*,#65,.F.) ;
#706=ORIENTED_EDGE('',*,*,#135,.T.) ;
#139=FACE_BOUND('',#136,.T.) ;
#157=FACE_BOUND('',#154,.T.) ;
#206=FACE_BOUND('',#203,.T.) ;
#224=FACE_BOUND('',#221,.T.) ;
#519=FACE_BOUND('',#516,.T.) ;
#523=FACE_BOUND('',#520,.T.) ;
#676=FACE_BOUND('',#673,.T.) ;
#680=FACE_BOUND('',#677,.T.) ;
#51=CLOSED_SHELL('Closed Shell',(#91,#158,#225,#247,#328,#352,#392,#409,#449,#466,#497,#524,#548,#572,#596,#615,#632,#654,#661,#681,#701,#708)) ;
#59=VECTOR('Line Direction',#58,1.) ;
#75=VECTOR('Line Direction',#74,1.) ;
#99=VECTOR('Line Direction',#98,1.) ;
#108=VECTOR('Line Direction',#107,1.) ;
#115=VECTOR('Line Direction',#114,1.) ;
#122=VECTOR('Line Direction',#121,1.) ;
#166=VECTOR('Line Direction',#165,1.) ;
#175=VECTOR('Line Direction',#174,1.) ;
#182=VECTOR('Line Direction',#181,1.) ;
#189=VECTOR('Line Direction',#188,1.) ;
#233=VECTOR('Line Direction',#232,1.) ;
#238=VECTOR('Line Direction',#237,1.) ;
#255=VECTOR('Line Direction',#254,1.) ;
#262=VECTOR('Line Direction',#261,1.) ;
#269=VECTOR('Line Direction',#268,1.) ;
#276=VECTOR('Line Direction',#275,1.) ;
#283=VECTOR('Line Direction',#282,1.) ;
#290=VECTOR('Line Direction',#289,1.) ;
#311=VECTOR('Line Direction',#310,1.) ;
#336=VECTOR('Line Direction',#335,1.) ;
#343=VECTOR('Line Direction',#342,1.) ;
#360=VECTOR('Line Direction',#359,1.) ;
#376=VECTOR('Line Direction',#375,1.) ;
#417=VECTOR('Line Direction',#416,1.) ;
#433=VECTOR('Line Direction',#432,1.) ;
#474=VECTOR('Line Direction',#473,1.) ;
#481=VECTOR('Line Direction',#480,1.) ;
#488=VECTOR('Line Direction',#487,1.) ;
#500=VECTOR('Line Direction',#499,1.) ;
#507=VECTOR('Line Direction',#506,1.) ;
#532=VECTOR('Line Direction',#531,1.) ;
#539=VECTOR('Line Direction',#538,1.) ;
#556=VECTOR('Line Direction',#555,1.) ;
#563=VECTOR('Line Direction',#562,1.) ;
#580=VECTOR('Line Direction',#579,1.) ;
#599=VECTOR('Line Direction',#598,1.) ;
#623=VECTOR('Line Direction',#622,1.) ;
#640=VECTOR('Line Direction',#639,1.) ;
#645=VECTOR('Line Direction',#644,1.) ;
#664=VECTOR('Line Direction',#663,1.) ;
#710=ADVANCED_BREP_SHAPE_REPRESENTATION('NONE',(#709),#46) ;
#49=SHAPE_REPRESENTATION(' ',(#48),#46) ;
#91=ADVANCED_FACE('PartBody',(#90),#56,.F.) ;
#158=ADVANCED_FACE('PartBody',(#130,#139,#157),#96,.T.) ;
#225=ADVANCED_FACE('PartBody',(#197,#206,#224),#163,.T.) ;
#247=ADVANCED_FACE('PartBody',(#246),#230,.F.) ;
#328=ADVANCED_FACE('PartBody',(#327),#252,.F.) ;
#352=ADVANCED_FACE('PartBody',(#351),#333,.F.) ;
#392=ADVANCED_FACE('PartBody',(#391),#357,.F.) ;
#409=ADVANCED_FACE('PartBody',(#408),#357,.F.) ;
#449=ADVANCED_FACE('PartBody',(#448),#414,.F.) ;
#466=ADVANCED_FACE('PartBody',(#465),#414,.F.) ;
#497=ADVANCED_FACE('PartBody',(#496),#471,.T.) ;
#524=ADVANCED_FACE('PartBody',(#515,#519,#523),#163,.T.) ;
#548=ADVANCED_FACE('PartBody',(#547),#529,.T.) ;
#572=ADVANCED_FACE('PartBody',(#571),#553,.F.) ;
#596=ADVANCED_FACE('PartBody',(#595),#577,.F.) ;
#615=ADVANCED_FACE('PartBody',(#614),#577,.F.) ;
#632=ADVANCED_FACE('PartBody',(#631),#620,.T.) ;
#654=ADVANCED_FACE('PartBody',(#653),#637,.F.) ;
#661=ADVANCED_FACE('PartBody',(#660),#637,.F.) ;
#681=ADVANCED_FACE('PartBody',(#672,#676,#680),#96,.T.) ;
#701=ADVANCED_FACE('PartBody',(#700),#686,.T.) ;
#708=ADVANCED_FACE('PartBody',(#707),#56,.F.) ;
#4=APPLICATION_PROTOCOL_DEFINITION('international standard','config_control_design',1994,#1) ;
#32=APPROVAL_DATE_TIME(#13,#21) ;
#709=MANIFOLD_SOLID_BREP('PartBody',#51) ;
#11=CALENDAR_DATE(2026,28,1) ;
#30=CC_DESIGN_APPROVAL(#21,(#16,#6,#14)) ;
#18=CC_DESIGN_DATE_AND_TIME_ASSIGNMENT(#13,#17,(#16)) ;
#29=CC_DESIGN_DATE_AND_TIME_ASSIGNMENT(#13,#28,(#14)) ;
#17=DATE_TIME_ROLE('classification_date') ;
#28=DATE_TIME_ROLE('creation_date') ;
#27=CC_DESIGN_PERSON_AND_ORGANIZATION_ASSIGNMENT(#25,#26,(#16)) ;
#33=CC_DESIGN_PERSON_AND_ORGANIZATION_ASSIGNMENT(#25,#34,(#6)) ;
#35=CC_DESIGN_PERSON_AND_ORGANIZATION_ASSIGNMENT(#25,#36,(#6,#14)) ;
#37=CC_DESIGN_PERSON_AND_ORGANIZATION_ASSIGNMENT(#25,#38,(#5)) ;
#26=PERSON_AND_ORGANIZATION_ROLE('classification_officer') ;
#34=PERSON_AND_ORGANIZATION_ROLE('design_supplier') ;
#36=PERSON_AND_ORGANIZATION_ROLE('creator') ;
#38=PERSON_AND_ORGANIZATION_ROLE('design_owner') ;
#39=CC_DESIGN_SECURITY_CLASSIFICATION(#16,(#6)) ;
#69=CIRCLE('generated circle',#68,2.5) ;
#83=CIRCLE('generated circle',#82,2.5) ;
#134=CIRCLE('generated circle',#133,2.5) ;
#143=CIRCLE('generated circle',#142,2.5) ;
#152=CIRCLE('generated circle',#151,2.5) ;
#201=CIRCLE('generated circle',#200,2.5) ;
#210=CIRCLE('generated circle',#209,2.5) ;
#219=CIRCLE('generated circle',#218,2.5) ;
#298=CIRCLE('generated circle',#297,0.5) ;
#305=CIRCLE('generated circle',#304,0.5) ;
#370=CIRCLE('generated circle',#369,2.5) ;
#384=CIRCLE('generated circle',#383,2.5) ;
#396=CIRCLE('generated circle',#395,2.5) ;
#401=CIRCLE('generated circle',#400,2.5) ;
#427=CIRCLE('generated circle',#426,2.5) ;
#441=CIRCLE('generated circle',#440,2.5) ;
#453=CIRCLE('generated circle',#452,2.5) ;
#458=CIRCLE('generated circle',#457,2.5) ;
#588=CIRCLE('generated circle',#587,0.5) ;
#607=CIRCLE('generated circle',#606,0.5) ;
#711=SHAPE_REPRESENTATION_RELATIONSHIP(' ',' ',#49,#710) ;
#56=CYLINDRICAL_SURFACE('generated cylinder',#55,2.5) ;
#357=CYLINDRICAL_SURFACE('generated cylinder',#356,2.5) ;
#414=CYLINDRICAL_SURFACE('generated cylinder',#413,2.5) ;
#577=CYLINDRICAL_SURFACE('generated cylinder',#576,0.5) ;
#637=CYLINDRICAL_SURFACE('generated cylinder',#636,2.5) ;
#3=DESIGN_CONTEXT(' ',#1,'design') ;
#65=EDGE_CURVE('',#62,#64,#60,.T.) ;
#72=EDGE_CURVE('',#64,#71,#69,.T.) ;
#79=EDGE_CURVE('',#78,#71,#76,.T.) ;
#84=EDGE_CURVE('',#78,#62,#83,.F.) ;
#105=EDGE_CURVE('',#102,#104,#100,.T.) ;
#112=EDGE_CURVE('',#102,#111,#109,.F.) ;
#119=EDGE_CURVE('',#111,#118,#116,.T.) ;
#124=EDGE_CURVE('',#104,#118,#123,.F.) ;
#135=EDGE_CURVE('',#62,#78,#134,.T.) ;
#148=EDGE_CURVE('',#145,#147,#143,.T.) ;
#153=EDGE_CURVE('',#147,#145,#152,.T.) ;
#172=EDGE_CURVE('',#169,#171,#167,.T.) ;
#179=EDGE_CURVE('',#169,#178,#176,.F.) ;
#186=EDGE_CURVE('',#178,#185,#183,.T.) ;
#191=EDGE_CURVE('',#171,#185,#190,.F.) ;
#202=EDGE_CURVE('',#71,#64,#201,.T.) ;
#215=EDGE_CURVE('',#212,#214,#210,.T.) ;
#220=EDGE_CURVE('',#214,#212,#219,.T.) ;
#235=EDGE_CURVE('',#111,#169,#234,.F.) ;
#240=EDGE_CURVE('',#118,#171,#239,.F.) ;
#259=EDGE_CURVE('',#178,#258,#256,.F.) ;
#266=EDGE_CURVE('',#265,#102,#263,.T.) ;
#273=EDGE_CURVE('',#272,#265,#270,.T.) ;
#280=EDGE_CURVE('',#279,#272,#277,.T.) ;
#287=EDGE_CURVE('',#286,#279,#284,.T.) ;
#294=EDGE_CURVE('',#293,#286,#291,.F.) ;
#301=EDGE_CURVE('',#300,#293,#298,.F.) ;
#308=EDGE_CURVE('',#307,#300,#305,.F.) ;
#313=EDGE_CURVE('',#258,#307,#312,.T.) ;
#340=EDGE_CURVE('',#258,#339,#337,.T.) ;
#345=EDGE_CURVE('',#185,#339,#344,.F.) ;
#366=EDGE_CURVE('',#363,#365,#361,.T.) ;
#373=EDGE_CURVE('',#365,#372,#370,.T.) ;
#380=EDGE_CURVE('',#379,#372,#377,.T.) ;
#385=EDGE_CURVE('',#379,#363,#384,.F.) ;
#397=EDGE_CURVE('',#372,#365,#396,.T.) ;
#402=EDGE_CURVE('',#363,#379,#401,.F.) ;
#423=EDGE_CURVE('',#420,#422,#418,.T.) ;
#430=EDGE_CURVE('',#422,#429,#427,.T.) ;
#437=EDGE_CURVE('',#436,#429,#434,.T.) ;
#442=EDGE_CURVE('',#436,#420,#441,.F.) ;
#454=EDGE_CURVE('',#429,#422,#453,.T.) ;
#459=EDGE_CURVE('',#420,#436,#458,.F.) ;
#478=EDGE_CURVE('',#272,#477,#475,.T.) ;
#485=EDGE_CURVE('',#265,#484,#482,.T.) ;
#490=EDGE_CURVE('',#477,#484,#489,.T.) ;
#504=EDGE_CURVE('',#279,#503,#501,.T.) ;
#509=EDGE_CURVE('',#503,#477,#508,.T.) ;
#536=EDGE_CURVE('',#286,#535,#533,.T.) ;
#541=EDGE_CURVE('',#535,#503,#540,.T.) ;
#560=EDGE_CURVE('',#293,#559,#557,.T.) ;
#565=EDGE_CURVE('',#559,#535,#564,.F.) ;
#584=EDGE_CURVE('',#300,#583,#581,.T.) ;
#589=EDGE_CURVE('',#583,#559,#588,.F.) ;
#603=EDGE_CURVE('',#307,#602,#600,.T.) ;
#608=EDGE_CURVE('',#602,#583,#607,.F.) ;
#625=EDGE_CURVE('',#339,#602,#624,.T.) ;
#642=EDGE_CURVE('',#145,#214,#641,.T.) ;
#647=EDGE_CURVE('',#147,#212,#646,.T.) ;
#666=EDGE_CURVE('',#484,#104,#665,.T.) ;
#85=EDGE_LOOP('',(#86,#87,#88,#89)) ;
#125=EDGE_LOOP('',(#126,#127,#128,#129)) ;
#136=EDGE_LOOP('',(#137,#138)) ;
#154=EDGE_LOOP('',(#155,#156)) ;
#192=EDGE_LOOP('',(#193,#194,#195,#196)) ;
#203=EDGE_LOOP('',(#204,#205)) ;
#221=EDGE_LOOP('',(#222,#223)) ;
#241=EDGE_LOOP('',(#242,#243,#244,#245)) ;
#314=EDGE_LOOP('',(#315,#316,#317,#318,#319,#320,#321,#322,#323,#324,#325,#326)) ;
#346=EDGE_LOOP('',(#347,#348,#349,#350)) ;
#386=EDGE_LOOP('',(#387,#388,#389,#390)) ;
#403=EDGE_LOOP('',(#404,#405,#406,#407)) ;
#443=EDGE_LOOP('',(#444,#445,#446,#447)) ;
#460=EDGE_LOOP('',(#461,#462,#463,#464)) ;
#491=EDGE_LOOP('',(#492,#493,#494,#495)) ;
#510=EDGE_LOOP('',(#511,#512,#513,#514)) ;
#516=EDGE_LOOP('',(#517,#518)) ;
#520=EDGE_LOOP('',(#521,#522)) ;
#542=EDGE_LOOP('',(#543,#544,#545,#546)) ;
#566=EDGE_LOOP('',(#567,#568,#569,#570)) ;
#590=EDGE_LOOP('',(#591,#592,#593,#594)) ;
#609=EDGE_LOOP('',(#610,#611,#612,#613)) ;
#626=EDGE_LOOP('',(#627,#628,#629,#630)) ;
#648=EDGE_LOOP('',(#649,#650,#651,#652)) ;
#655=EDGE_LOOP('',(#656,#657,#658,#659)) ;
#667=EDGE_LOOP('',(#668,#669,#670,#671)) ;
#673=EDGE_LOOP('',(#674,#675)) ;
#677=EDGE_LOOP('',(#678,#679)) ;
#687=EDGE_LOOP('',(#688,#689,#690,#691,#692,#693,#694,#695,#696,#697,#698,#699)) ;
#702=EDGE_LOOP('',(#703,#704,#705,#706)) ;
#90=FACE_OUTER_BOUND('',#85,.T.) ;
#130=FACE_OUTER_BOUND('',#125,.T.) ;
#197=FACE_OUTER_BOUND('',#192,.T.) ;
#246=FACE_OUTER_BOUND('',#241,.T.) ;
#327=FACE_OUTER_BOUND('',#314,.T.) ;
#351=FACE_OUTER_BOUND('',#346,.T.) ;
#391=FACE_OUTER_BOUND('',#386,.T.) ;
#408=FACE_OUTER_BOUND('',#403,.T.) ;
#448=FACE_OUTER_BOUND('',#443,.T.) ;
#465=FACE_OUTER_BOUND('',#460,.T.) ;
#496=FACE_OUTER_BOUND('',#491,.T.) ;
#515=FACE_OUTER_BOUND('',#510,.T.) ;
#547=FACE_OUTER_BOUND('',#542,.T.) ;
#571=FACE_OUTER_BOUND('',#566,.T.) ;
#595=FACE_OUTER_BOUND('',#590,.T.) ;
#614=FACE_OUTER_BOUND('',#609,.T.) ;
#631=FACE_OUTER_BOUND('',#626,.T.) ;
#653=FACE_OUTER_BOUND('',#648,.T.) ;
#660=FACE_OUTER_BOUND('',#655,.T.) ;
#672=FACE_OUTER_BOUND('',#667,.T.) ;
#700=FACE_OUTER_BOUND('',#687,.T.) ;
#707=FACE_OUTER_BOUND('',#702,.T.) ;
#45=UNCERTAINTY_MEASURE_WITH_UNIT(LENGTH_MEASURE(0.005),#41,'distance_accuracy_value','CONFUSED CURVE UNCERTAINTY') ;
#60=LINE('Line',#57,#59) ;
#76=LINE('Line',#73,#75) ;
#100=LINE('Line',#97,#99) ;
#109=LINE('Line',#106,#108) ;
#116=LINE('Line',#113,#115) ;
#123=LINE('Line',#120,#122) ;
#167=LINE('Line',#164,#166) ;
#176=LINE('Line',#173,#175) ;
#183=LINE('Line',#180,#182) ;
#190=LINE('Line',#187,#189) ;
#234=LINE('Line',#231,#233) ;
#239=LINE('Line',#236,#238) ;
#256=LINE('Line',#253,#255) ;
#263=LINE('Line',#260,#262) ;
#270=LINE('Line',#267,#269) ;
#277=LINE('Line',#274,#276) ;
#284=LINE('Line',#281,#283) ;
#291=LINE('Line',#288,#290) ;
#312=LINE('Line',#309,#311) ;
#337=LINE('Line',#334,#336) ;
#344=LINE('Line',#341,#343) ;
#361=LINE('Line',#358,#360) ;
#377=LINE('Line',#374,#376) ;
#418=LINE('Line',#415,#417) ;
#434=LINE('Line',#431,#433) ;
#475=LINE('Line',#472,#474) ;
#482=LINE('Line',#479,#481) ;
#489=LINE('Line',#486,#488) ;
#501=LINE('Line',#498,#500) ;
#508=LINE('Line',#505,#507) ;
#533=LINE('Line',#530,#532) ;
#540=LINE('Line',#537,#539) ;
#557=LINE('Line',#554,#556) ;
#564=LINE('Line',#561,#563) ;
#581=LINE('Line',#578,#580) ;
#600=LINE('Line',#597,#599) ;
#624=LINE('Line',#621,#623) ;
#641=LINE('Line',#638,#640) ;
#646=LINE('Line',#643,#645) ;
#665=LINE('Line',#662,#664) ;
#2=MECHANICAL_CONTEXT(' ',#1,'mechanical') ;
#24=PERSONAL_ADDRESS(' ',' ',' ',' ',' ',' ',' ',' ',' ',' ',' ',' ',(#22),' ') ;
#96=PLANE('Plane',#95) ;
#163=PLANE('Plane',#162) ;
#230=PLANE('Plane',#229) ;
#252=PLANE('Plane',#251) ;
#333=PLANE('Plane',#332) ;
#471=PLANE('Plane',#470) ;
#529=PLANE('Plane',#528) ;
#553=PLANE('Plane',#552) ;
#620=PLANE('Plane',#619) ;
#686=PLANE('Plane',#685) ;
#43=PLANE_ANGLE_MEASURE_WITH_UNIT(PLANE_ANGLE_MEASURE(0.0174532925199),#42) ;
#7=PRODUCT_CATEGORY('part',$) ;
#9=PRODUCT_CATEGORY_RELATIONSHIP(' ',' ',#7,#8) ;
#6=PRODUCT_DEFINITION_FORMATION_WITH_SPECIFIED_SOURCE('',' ',#5,.NOT_KNOWN.) ;
#8=PRODUCT_RELATED_PRODUCT_CATEGORY('detail',$,(#5)) ;
#50=SHAPE_DEFINITION_REPRESENTATION(#40,#49) ;
#62=VERTEX_POINT('',#61) ;
#64=VERTEX_POINT('',#63) ;
#71=VERTEX_POINT('',#70) ;
#78=VERTEX_POINT('',#77) ;
#102=VERTEX_POINT('',#101) ;
#104=VERTEX_POINT('',#103) ;
#111=VERTEX_POINT('',#110) ;
#118=VERTEX_POINT('',#117) ;
#145=VERTEX_POINT('',#144) ;
#147=VERTEX_POINT('',#146) ;
#169=VERTEX_POINT('',#168) ;
#171=VERTEX_POINT('',#170) ;
#178=VERTEX_POINT('',#177) ;
#185=VERTEX_POINT('',#184) ;
#212=VERTEX_POINT('',#211) ;
#214=VERTEX_POINT('',#213) ;
#258=VERTEX_POINT('',#257) ;
#265=VERTEX_POINT('',#264) ;
#272=VERTEX_POINT('',#271) ;
#279=VERTEX_POINT('',#278) ;
#286=VERTEX_POINT('',#285) ;
#293=VERTEX_POINT('',#292) ;
#300=VERTEX_POINT('',#299) ;
#307=VERTEX_POINT('',#306) ;
#339=VERTEX_POINT('',#338) ;
#363=VERTEX_POINT('',#362) ;
#365=VERTEX_POINT('',#364) ;
#372=VERTEX_POINT('',#371) ;
#379=VERTEX_POINT('',#378) ;
#420=VERTEX_POINT('',#419) ;
#422=VERTEX_POINT('',#421) ;
#429=VERTEX_POINT('',#428) ;
#436=VERTEX_POINT('',#435) ;
#477=VERTEX_POINT('',#476) ;
#484=VERTEX_POINT('',#483) ;
#503=VERTEX_POINT('',#502) ;
#535=VERTEX_POINT('',#534) ;
#559=VERTEX_POINT('',#558) ;
#583=VERTEX_POINT('',#582) ;
#602=VERTEX_POINT('',#601) ;
#41=(LENGTH_UNIT()NAMED_UNIT(*)SI_UNIT(.MILLI.,.METRE.)) ;
#42=(NAMED_UNIT(*)PLANE_ANGLE_UNIT()SI_UNIT($,.RADIAN.)) ;
#44=(NAMED_UNIT(*)SI_UNIT($,.STERADIAN.)SOLID_ANGLE_UNIT()) ;
#46=(GEOMETRIC_REPRESENTATION_CONTEXT(3)GLOBAL_UNCERTAINTY_ASSIGNED_CONTEXT((#45))GLOBAL_UNIT_ASSIGNED_CONTEXT((#41,#42,#44))REPRESENTATION_CONTEXT(' ',' ')) ;
ENDSEC;
END-ISO-10303-21;
