ISO-10303-21;
HEADER;
FILE_DESCRIPTION(('CATIA V5 STEP Exchange'),'2;1');

FILE_NAME('C:\\Users\\alexi\\Documents\\scolaire\\IPSA\\AeroIpsa\\SP-02\\CATIA\\new_catia\\SP02_ALPHA5_PASDIDEEDENOM.stp','2026-01-30T12:40:22+00:00',('none'),('none'),'CATIA Version 5 Release 19 GA (IN-10)','CATIA V5 STEP AP203','none');

FILE_SCHEMA(('CONFIG_CONTROL_DESIGN'));

ENDSEC;
/* file written by CATIA V5R19 */
DATA;
#5=PRODUCT('SP02_APLPHA5_PASDIDEEDENOM(Sym\X2\00E9\X0\trie miroir)','SP02_APLPHA5_PASDIDEEDENOM(Sym\X2\00E9\X0\trie miroir)','',(#2)) ;
#1=APPLICATION_CONTEXT('configuration controlled 3D design of mechanical parts and assemblies') ;
#14=PRODUCT_DEFINITION('SP02_APLPHA5_PASDIDEEDENOM(Sym\X2\00E9\X0\trie miroir)',' ',#6,#3) ;
#16=SECURITY_CLASSIFICATION(' ',' ',#15) ;
#15=SECURITY_CLASSIFICATION_LEVEL('unclassified') ;
#47=CARTESIAN_POINT(' ',(0.,0.,0.)) ;
#52=CARTESIAN_POINT('Axis2P3D Location',(-10.7,24.1350288425,50.)) ;
#57=CARTESIAN_POINT('Line Origine',(-10.5086582838,23.6730890763,50.)) ;
#61=CARTESIAN_POINT('Vertex',(-10.5086582838,23.6730890763,55.)) ;
#63=CARTESIAN_POINT('Vertex',(-10.5086582838,23.6730890763,50.)) ;
#66=CARTESIAN_POINT('Axis2P3D Location',(-10.7,24.1350288425,50.)) ;
#70=CARTESIAN_POINT('Vertex',(-10.2,24.1350288425,50.)) ;
#73=CARTESIAN_POINT('Line Origine',(-10.2,24.1350288425,50.)) ;
#77=CARTESIAN_POINT('Vertex',(-10.2,24.1350288425,55.)) ;
#80=CARTESIAN_POINT('Axis2P3D Location',(-10.7,24.1350288425,55.)) ;
#92=CARTESIAN_POINT('Axis2P3D Location',(-10.7,24.1350288425,50.)) ;
#97=CARTESIAN_POINT('Axis2P3D Location',(-10.7,24.1350288425,55.)) ;
#101=CARTESIAN_POINT('Vertex',(-11.0535533906,23.781475452,55.)) ;
#104=CARTESIAN_POINT('Line Origine',(-11.0535533906,23.781475452,50.)) ;
#108=CARTESIAN_POINT('Vertex',(-11.0535533906,23.781475452,50.)) ;
#111=CARTESIAN_POINT('Axis2P3D Location',(-10.7,24.1350288425,50.)) ;
#123=CARTESIAN_POINT('Axis2P3D Location',(0.,36.4639610307,50.)) ;
#128=CARTESIAN_POINT('Line Origine',(-13.440990258,26.1689123189,50.)) ;
#132=CARTESIAN_POINT('Vertex',(-15.8284271248,28.5563491861,50.)) ;
#135=CARTESIAN_POINT('Axis2P3D Location',(-13.000000001,31.3847763099,50.)) ;
#139=CARTESIAN_POINT('Vertex',(-17.,31.3847763109,50.)) ;
#142=CARTESIAN_POINT('Line Origine',(-17.,39.2030240459,50.)) ;
#146=CARTESIAN_POINT('Vertex',(-17.,47.021271782,50.)) ;
#149=CARTESIAN_POINT('Axis2P3D Location',(0.,8.17124146124E-012,50.)) ;
#153=CARTESIAN_POINT('Vertex',(17.,47.021271782,50.)) ;
#156=CARTESIAN_POINT('Line Origine',(17.,39.2030240459,50.)) ;
#160=CARTESIAN_POINT('Vertex',(17.,31.3847763109,50.)) ;
#163=CARTESIAN_POINT('Axis2P3D Location',(13.000000001,31.3847763099,50.)) ;
#167=CARTESIAN_POINT('Vertex',(15.8284271247,28.5563491861,50.)) ;
#170=CARTESIAN_POINT('Line Origine',(13.440990258,26.1689123189,50.)) ;
#174=CARTESIAN_POINT('Vertex',(11.0535533906,23.781475452,50.)) ;
#178=CARTESIAN_POINT('Control Point',(10.5086587467,23.6730901936,50.)) ;
#179=CARTESIAN_POINT('Control Point',(10.5278336457,23.665147236,50.)) ;
#180=CARTESIAN_POINT('Control Point',(10.5474204002,23.6581992963,50.)) ;
#181=CARTESIAN_POINT('Control Point',(10.5673501299,23.652275011,50.)) ;
#182=CARTESIAN_POINT('Control Point',(10.6549848192,23.6311083715,50.)) ;
#183=CARTESIAN_POINT('Control Point',(10.7463488704,23.6298605801,50.)) ;
#184=CARTESIAN_POINT('Control Point',(10.8161508934,23.6412144737,50.)) ;
#185=CARTESIAN_POINT('Control Point',(10.9090935757,23.6736917119,50.)) ;
#186=CARTESIAN_POINT('Control Point',(10.9905977007,23.7267275018,50.)) ;
#187=CARTESIAN_POINT('Control Point',(11.0129796393,23.7436201238,50.)) ;
#188=CARTESIAN_POINT('Control Point',(11.0339461692,23.7618682301,50.)) ;
#189=CARTESIAN_POINT('Control Point',(11.0535533912,23.7814754521,50.)) ;
#190=CARTESIAN_POINT('Vertex',(10.5086582838,23.6730890763,50.)) ;
#194=CARTESIAN_POINT('Control Point',(10.1999999993,24.1350288422,50.)) ;
#195=CARTESIAN_POINT('Control Point',(10.1999999993,24.0657494646,50.)) ;
#196=CARTESIAN_POINT('Control Point',(10.2119990796,23.9964709355,50.)) ;
#197=CARTESIAN_POINT('Control Point',(10.2360094326,23.9299522375,50.)) ;
#198=CARTESIAN_POINT('Control Point',(10.2955539739,23.8262744261,50.)) ;
#199=CARTESIAN_POINT('Control Point',(10.3817929233,23.7447585283,50.)) ;
#200=CARTESIAN_POINT('Control Point',(10.4212429772,23.7156734318,50.)) ;
#201=CARTESIAN_POINT('Control Point',(10.4638250718,23.6916619723,50.)) ;
#202=CARTESIAN_POINT('Control Point',(10.5086587467,23.6730901936,50.)) ;
#203=CARTESIAN_POINT('Vertex',(10.2,24.1350288425,50.)) ;
#206=CARTESIAN_POINT('Line Origine',(10.1999999993,27.9946791728,50.)) ;
#210=CARTESIAN_POINT('Vertex',(10.2,31.8543295029,50.)) ;
#214=CARTESIAN_POINT('Control Point',(10.3464469542,32.2078825489,50.)) ;
#215=CARTESIAN_POINT('Control Point',(10.3131261028,32.1745608636,50.)) ;
#216=CARTESIAN_POINT('Control Point',(10.2837299532,32.1373125988,50.)) ;
#217=CARTESIAN_POINT('Control Point',(10.2588746424,32.0967549125,50.)) ;
#218=CARTESIAN_POINT('Control Point',(10.2258325017,32.0249780353,50.)) ;
#219=CARTESIAN_POINT('Control Point',(10.2074325375,31.9484447711,50.)) ;
#220=CARTESIAN_POINT('Control Point',(10.2024572869,31.9170326296,50.)) ;
#221=CARTESIAN_POINT('Control Point',(10.1999999993,31.8856809797,50.)) ;
#222=CARTESIAN_POINT('Control Point',(10.1999999993,31.8543295035,50.)) ;
#223=CARTESIAN_POINT('Vertex',(10.3464466094,32.2078828936,50.)) ;
#227=CARTESIAN_POINT('Control Point',(10.6999999993,32.3543295035,50.)) ;
#228=CARTESIAN_POINT('Control Point',(10.6371698336,32.3543295035,50.)) ;
#229=CARTESIAN_POINT('Control Point',(10.5743403657,32.3444604292,50.)) ;
#230=CARTESIAN_POINT('Control Point',(10.513570178,32.324715452,50.)) ;
#231=CARTESIAN_POINT('Control Point',(10.4427797368,32.2885318035,50.)) ;
#232=CARTESIAN_POINT('Control Point',(10.3810541488,32.2398733102,50.)) ;
#233=CARTESIAN_POINT('Control Point',(10.3690975311,32.229661272,50.)) ;
#234=CARTESIAN_POINT('Control Point',(10.3575541924,32.218990065,50.)) ;
#235=CARTESIAN_POINT('Control Point',(10.3464469542,32.2078825489,50.)) ;
#236=CARTESIAN_POINT('Vertex',(10.7,32.354329503,50.)) ;
#239=CARTESIAN_POINT('Line Origine',(11.4499999993,32.3543295035,50.)) ;
#243=CARTESIAN_POINT('Vertex',(12.2,32.354329503,50.)) ;
#246=CARTESIAN_POINT('Axis2P3D Location',(12.2000000025,33.3543295003,50.)) ;
#250=CARTESIAN_POINT('Vertex',(13.2,33.354329503,50.)) ;
#253=CARTESIAN_POINT('Line Origine',(13.1999999993,35.3543295035,50.)) ;
#257=CARTESIAN_POINT('Vertex',(13.2,37.354329503,50.)) ;
#260=CARTESIAN_POINT('Axis2P3D Location',(12.1999999993,37.3543295035,50.)) ;
#264=CARTESIAN_POINT('Vertex',(12.2,38.354329503,50.)) ;
#267=CARTESIAN_POINT('Line Origine',(9.79002377484,38.3543295035,50.)) ;
#271=CARTESIAN_POINT('Vertex',(7.38004755084,38.354329503,50.)) ;
#274=CARTESIAN_POINT('Axis2P3D Location',(7.38004754877,41.8543295018,50.)) ;
#278=CARTESIAN_POINT('Vertex',(3.88004755084,41.854329503,50.)) ;
#281=CARTESIAN_POINT('Line Origine',(3.88004755042,42.8543295035,50.)) ;
#285=CARTESIAN_POINT('Vertex',(3.88004755084,43.854329503,50.)) ;
#288=CARTESIAN_POINT('Axis2P3D Location',(2.38004755204,43.8543295051,50.)) ;
#292=CARTESIAN_POINT('Vertex',(2.38004755084,45.354329503,50.)) ;
#295=CARTESIAN_POINT('Line Origine',(0.,45.3543295035,50.)) ;
#299=CARTESIAN_POINT('Vertex',(-2.38004755084,45.354329503,50.)) ;
#302=CARTESIAN_POINT('Axis2P3D Location',(-2.38004755204,43.8543295051,50.)) ;
#306=CARTESIAN_POINT('Vertex',(-3.88004755084,43.854329503,50.)) ;
#309=CARTESIAN_POINT('Line Origine',(-3.88004755042,42.8543295035,50.)) ;
#313=CARTESIAN_POINT('Vertex',(-3.88004755084,41.854329503,50.)) ;
#316=CARTESIAN_POINT('Axis2P3D Location',(-7.38004754877,41.8543295018,50.)) ;
#320=CARTESIAN_POINT('Vertex',(-7.38004755084,38.354329503,50.)) ;
#323=CARTESIAN_POINT('Line Origine',(-9.79002377484,38.3543295035,50.)) ;
#327=CARTESIAN_POINT('Vertex',(-12.2,38.354329503,50.)) ;
#330=CARTESIAN_POINT('Axis2P3D Location',(-12.1999999993,37.3543295035,50.)) ;
#334=CARTESIAN_POINT('Vertex',(-13.2,37.354329503,50.)) ;
#337=CARTESIAN_POINT('Line Origine',(-13.1999999993,35.3543295035,50.)) ;
#341=CARTESIAN_POINT('Vertex',(-13.2,33.354329503,50.)) ;
#344=CARTESIAN_POINT('Axis2P3D Location',(-12.2000000025,33.3543295003,50.)) ;
#348=CARTESIAN_POINT('Vertex',(-12.2,32.354329503,50.)) ;
#351=CARTESIAN_POINT('Line Origine',(-11.4499999993,32.3543295035,50.)) ;
#355=CARTESIAN_POINT('Vertex',(-10.7,32.354329503,50.)) ;
#359=CARTESIAN_POINT('Control Point',(-10.3464469547,32.2078825483,50.)) ;
#360=CARTESIAN_POINT('Control Point',(-10.37976864,32.2412034006,50.)) ;
#361=CARTESIAN_POINT('Control Point',(-10.4170169027,32.270599549,50.)) ;
#362=CARTESIAN_POINT('Control Point',(-10.4575745854,32.2954548573,50.)) ;
#363=CARTESIAN_POINT('Control Point',(-10.5293514656,32.328497,50.)) ;
#364=CARTESIAN_POINT('Control Point',(-10.6058847331,32.3468969651,50.)) ;
#365=CARTESIAN_POINT('Control Point',(-10.6372968734,32.3518722158,50.)) ;
#366=CARTESIAN_POINT('Control Point',(-10.6686485232,32.3543295035,50.)) ;
#367=CARTESIAN_POINT('Control Point',(-10.6999999993,32.3543295035,50.)) ;
#368=CARTESIAN_POINT('Vertex',(-10.3464466094,32.2078828936,50.)) ;
#372=CARTESIAN_POINT('Control Point',(-10.1999999993,31.8543295035,50.)) ;
#373=CARTESIAN_POINT('Control Point',(-10.1999999993,31.9171596715,50.)) ;
#374=CARTESIAN_POINT('Control Point',(-10.2098690742,31.9799891416,50.)) ;
#375=CARTESIAN_POINT('Control Point',(-10.2296140505,32.0407593205,50.)) ;
#376=CARTESIAN_POINT('Control Point',(-10.2657976997,32.1115497643,50.)) ;
#377=CARTESIAN_POINT('Control Point',(-10.3144561946,32.1732753543,50.)) ;
#378=CARTESIAN_POINT('Control Point',(-10.3246682328,32.1852319719,50.)) ;
#379=CARTESIAN_POINT('Control Point',(-10.3353394393,32.1967753105,50.)) ;
#380=CARTESIAN_POINT('Control Point',(-10.3464469547,32.2078825483,50.)) ;
#381=CARTESIAN_POINT('Vertex',(-10.2,31.854329503,50.)) ;
#384=CARTESIAN_POINT('Line Origine',(-10.1999999993,27.9946791728,50.)) ;
#426=CARTESIAN_POINT('Control Point',(-5.38004755042,41.8543295035,50.)) ;
#427=CARTESIAN_POINT('Control Point',(-5.38004755042,42.0621728494,50.)) ;
#428=CARTESIAN_POINT('Control Point',(-5.4070468357,42.270015718,50.)) ;
#429=CARTESIAN_POINT('Control Point',(-5.46105473598,42.47319477,50.)) ;
#430=CARTESIAN_POINT('Control Point',(-5.62059154269,42.8608287117,50.)) ;
#431=CARTESIAN_POINT('Control Point',(-5.87387003184,43.194835426,50.)) ;
#432=CARTESIAN_POINT('Control Point',(-6.0216372303,43.3443795177,50.)) ;
#433=CARTESIAN_POINT('Control Point',(-6.35259498294,43.6016323751,50.)) ;
#434=CARTESIAN_POINT('Control Point',(-6.73829308525,43.7657891701,50.)) ;
#435=CARTESIAN_POINT('Control Point',(-6.94081208169,43.8222217365,50.)) ;
#436=CARTESIAN_POINT('Control Point',(-7.35582474862,43.8811840505,50.)) ;
#437=CARTESIAN_POINT('Control Point',(-7.77212610649,43.8321569106,50.)) ;
#438=CARTESIAN_POINT('Control Point',(-7.97593605219,43.7805809243,50.)) ;
#439=CARTESIAN_POINT('Control Point',(-8.36544883138,43.6256878573,50.)) ;
#440=CARTESIAN_POINT('Control Point',(-8.70245845469,43.3764189385,50.)) ;
#441=CARTESIAN_POINT('Control Point',(-8.85375773273,43.2304493906,50.)) ;
#442=CARTESIAN_POINT('Control Point',(-9.11494726884,42.9025895249,50.)) ;
#443=CARTESIAN_POINT('Control Point',(-9.28370155552,42.5188806915,50.)) ;
#444=CARTESIAN_POINT('Control Point',(-9.34255026074,42.3170505376,50.)) ;
#445=CARTESIAN_POINT('Control Point',(-9.3759791181,42.1003833556,50.)) ;
#446=CARTESIAN_POINT('Control Point',(-9.37987616653,41.8830107159,50.)) ;
#447=CARTESIAN_POINT('Control Point',(-9.37999042505,41.8734502366,50.)) ;
#448=CARTESIAN_POINT('Control Point',(-9.38004755042,41.8638898695,50.)) ;
#449=CARTESIAN_POINT('Control Point',(-9.38004755042,41.8543295035,50.)) ;
#450=CARTESIAN_POINT('Vertex',(-5.38004755084,41.854329503,50.)) ;
#452=CARTESIAN_POINT('Vertex',(-9.38004755084,41.854329503,50.)) ;
#456=CARTESIAN_POINT('Control Point',(-9.38004755042,41.8543295035,50.)) ;
#457=CARTESIAN_POINT('Control Point',(-9.38004755042,41.6464861543,50.)) ;
#458=CARTESIAN_POINT('Control Point',(-9.35304826431,41.4386432824,50.)) ;
#459=CARTESIAN_POINT('Control Point',(-9.29904036736,41.2354642411,50.)) ;
#460=CARTESIAN_POINT('Control Point',(-9.13950355925,40.8478302938,50.)) ;
#461=CARTESIAN_POINT('Control Point',(-8.88622506621,40.5138235754,50.)) ;
#462=CARTESIAN_POINT('Control Point',(-8.73845787421,40.3642794921,50.)) ;
#463=CARTESIAN_POINT('Control Point',(-8.40750012026,40.1070266329,50.)) ;
#464=CARTESIAN_POINT('Control Point',(-8.02180201611,39.9428698371,50.)) ;
#465=CARTESIAN_POINT('Control Point',(-7.81928302048,39.8864372685,50.)) ;
#466=CARTESIAN_POINT('Control Point',(-7.40427035389,39.8274749546,50.)) ;
#467=CARTESIAN_POINT('Control Point',(-6.98796899637,39.8765020945,50.)) ;
#468=CARTESIAN_POINT('Control Point',(-6.78415904853,39.9280780827,50.)) ;
#469=CARTESIAN_POINT('Control Point',(-6.39464626674,40.0829711507,50.)) ;
#470=CARTESIAN_POINT('Control Point',(-6.05763664154,40.3322400718,50.)) ;
#471=CARTESIAN_POINT('Control Point',(-5.90633737357,40.4782096118,50.)) ;
#472=CARTESIAN_POINT('Control Point',(-5.64514783484,40.8060694796,50.)) ;
#473=CARTESIAN_POINT('Control Point',(-5.47639354694,41.189778316,50.)) ;
#474=CARTESIAN_POINT('Control Point',(-5.4175448402,41.3916084668,50.)) ;
#475=CARTESIAN_POINT('Control Point',(-5.38411598272,41.6082756493,50.)) ;
#476=CARTESIAN_POINT('Control Point',(-5.38021893431,41.8256482896,50.)) ;
#477=CARTESIAN_POINT('Control Point',(-5.3801046758,41.8352087699,50.)) ;
#478=CARTESIAN_POINT('Control Point',(-5.38004755042,41.8447691372,50.)) ;
#479=CARTESIAN_POINT('Control Point',(-5.38004755042,41.8543295035,50.)) ;
#486=CARTESIAN_POINT('Control Point',(9.38004755042,41.8543295035,50.)) ;
#487=CARTESIAN_POINT('Control Point',(9.38004755042,42.0621728527,50.)) ;
#488=CARTESIAN_POINT('Control Point',(9.3530482643,42.2700157246,50.)) ;
#489=CARTESIAN_POINT('Control Point',(9.2990403674,42.4731947639,50.)) ;
#490=CARTESIAN_POINT('Control Point',(9.13950355924,42.8608287113,50.)) ;
#491=CARTESIAN_POINT('Control Point',(8.88622506607,43.1948354299,50.)) ;
#492=CARTESIAN_POINT('Control Point',(8.7384578744,43.3443795147,50.)) ;
#493=CARTESIAN_POINT('Control Point',(8.40750012023,43.6016323741,50.)) ;
#494=CARTESIAN_POINT('Control Point',(8.02180201579,43.76578917,50.)) ;
#495=CARTESIAN_POINT('Control Point',(7.81928302082,43.8222217365,50.)) ;
#496=CARTESIAN_POINT('Control Point',(7.4042703539,43.8811840505,50.)) ;
#497=CARTESIAN_POINT('Control Point',(6.98796899604,43.8321569105,50.)) ;
#498=CARTESIAN_POINT('Control Point',(6.78415904883,43.7805809243,50.)) ;
#499=CARTESIAN_POINT('Control Point',(6.39464626931,43.6256878573,50.)) ;
#500=CARTESIAN_POINT('Control Point',(6.05763664575,43.3764189382,50.)) ;
#501=CARTESIAN_POINT('Control Point',(5.9063373703,43.230449391,50.)) ;
#502=CARTESIAN_POINT('Control Point',(5.64514783375,42.9025895249,50.)) ;
#503=CARTESIAN_POINT('Control Point',(5.4763935469,42.5188806909,50.)) ;
#504=CARTESIAN_POINT('Control Point',(5.41754484022,42.3170505383,50.)) ;
#505=CARTESIAN_POINT('Control Point',(5.38411598275,42.100383356,50.)) ;
#506=CARTESIAN_POINT('Control Point',(5.38021893432,41.8830107159,50.)) ;
#507=CARTESIAN_POINT('Control Point',(5.3801046758,41.8734502366,50.)) ;
#508=CARTESIAN_POINT('Control Point',(5.38004755042,41.8638898695,50.)) ;
#509=CARTESIAN_POINT('Control Point',(5.38004755042,41.8543295035,50.)) ;
#510=CARTESIAN_POINT('Vertex',(9.38004755084,41.854329503,50.)) ;
#512=CARTESIAN_POINT('Vertex',(5.38004755084,41.854329503,50.)) ;
#516=CARTESIAN_POINT('Control Point',(5.38004755042,41.8543295035,50.)) ;
#517=CARTESIAN_POINT('Control Point',(5.38004755042,41.6464861576,50.)) ;
#518=CARTESIAN_POINT('Control Point',(5.40704683569,41.438643289,50.)) ;
#519=CARTESIAN_POINT('Control Point',(5.46105473601,41.2354642349,50.)) ;
#520=CARTESIAN_POINT('Control Point',(5.62059154267,40.8478302934,50.)) ;
#521=CARTESIAN_POINT('Control Point',(5.87387003169,40.5138235793,50.)) ;
#522=CARTESIAN_POINT('Control Point',(6.02163723049,40.3642794891,50.)) ;
#523=CARTESIAN_POINT('Control Point',(6.35259498292,40.1070266319,50.)) ;
#524=CARTESIAN_POINT('Control Point',(6.73829308495,39.942869837,50.)) ;
#525=CARTESIAN_POINT('Control Point',(6.94081208201,39.8864372686,50.)) ;
#526=CARTESIAN_POINT('Control Point',(7.35582474862,39.8274749546,50.)) ;
#527=CARTESIAN_POINT('Control Point',(7.77212610616,39.8765020945,50.)) ;
#528=CARTESIAN_POINT('Control Point',(7.9759360525,39.9280780828,50.)) ;
#529=CARTESIAN_POINT('Control Point',(8.36544883394,40.0829711507,50.)) ;
#530=CARTESIAN_POINT('Control Point',(8.70245845889,40.3322400715,50.)) ;
#531=CARTESIAN_POINT('Control Point',(8.85375772947,40.4782096122,50.)) ;
#532=CARTESIAN_POINT('Control Point',(9.11494726775,40.8060694796,50.)) ;
#533=CARTESIAN_POINT('Control Point',(9.28370155548,41.1897783153,50.)) ;
#534=CARTESIAN_POINT('Control Point',(9.34255026076,41.3916084676,50.)) ;
#535=CARTESIAN_POINT('Control Point',(9.37597911813,41.6082756497,50.)) ;
#536=CARTESIAN_POINT('Control Point',(9.37987616654,41.8256482896,50.)) ;
#537=CARTESIAN_POINT('Control Point',(9.37999042505,41.8352087699,50.)) ;
#538=CARTESIAN_POINT('Control Point',(9.38004755042,41.8447691372,50.)) ;
#539=CARTESIAN_POINT('Control Point',(9.38004755042,41.8543295035,50.)) ;
#546=CARTESIAN_POINT('Axis2P3D Location',(-10.2,32.354329503,50.)) ;
#551=CARTESIAN_POINT('Line Origine',(-10.2,31.854329503,52.5)) ;
#555=CARTESIAN_POINT('Vertex',(-10.1999999993,31.8543295035,55.)) ;
#558=CARTESIAN_POINT('Line Origine',(-10.2,27.9946791724,55.)) ;
#570=CARTESIAN_POINT('Axis2P3D Location',(0.,36.4639610307,55.)) ;
#575=CARTESIAN_POINT('Axis2P3D Location',(-10.7000000008,31.8543295019,55.)) ;
#579=CARTESIAN_POINT('Vertex',(-10.3464466093,32.2078828937,55.)) ;
#582=CARTESIAN_POINT('Axis2P3D Location',(-10.7000000008,31.8543295019,55.)) ;
#586=CARTESIAN_POINT('Vertex',(-10.6999999993,32.3543295035,55.)) ;
#589=CARTESIAN_POINT('Line Origine',(-11.4499999993,32.3543295035,55.)) ;
#593=CARTESIAN_POINT('Vertex',(-12.2,32.354329503,55.)) ;
#597=CARTESIAN_POINT('Control Point',(-13.1999999993,33.3543295035,55.)) ;
#598=CARTESIAN_POINT('Control Point',(-13.1999999993,33.2563509431,55.)) ;
#599=CARTESIAN_POINT('Control Point',(-13.1880002514,33.1583728071,55.)) ;
#600=CARTESIAN_POINT('Control Point',(-13.1639975819,33.0623491636,55.)) ;
#601=CARTESIAN_POINT('Control Point',(-13.0929690306,32.8781469766,55.)) ;
#602=CARTESIAN_POINT('Control Point',(-12.9795878863,32.7165315325,55.)) ;
#603=CARTESIAN_POINT('Control Point',(-12.913225819,32.6430962163,55.)) ;
#604=CARTESIAN_POINT('Control Point',(-12.7638778545,32.51398121,55.)) ;
#605=CARTESIAN_POINT('Control Point',(-12.5877866445,32.4247247254,55.)) ;
#606=CARTESIAN_POINT('Control Point',(-12.4946760703,32.3911525356,55.)) ;
#607=CARTESIAN_POINT('Control Point',(-12.378545411,32.3648212808,55.)) ;
#608=CARTESIAN_POINT('Control Point',(-12.2606528702,32.355863414,55.)) ;
#609=CARTESIAN_POINT('Control Point',(-12.2404323998,32.3548403714,55.)) ;
#610=CARTESIAN_POINT('Control Point',(-12.2202161905,32.3543295035,55.)) ;
#611=CARTESIAN_POINT('Control Point',(-12.1999999993,32.3543295035,55.)) ;
#612=CARTESIAN_POINT('Vertex',(-13.1999999993,33.3543295035,55.)) ;
#615=CARTESIAN_POINT('Line Origine',(-13.1999999993,35.3543295035,55.)) ;
#619=CARTESIAN_POINT('Vertex',(-13.2,37.354329503,55.)) ;
#623=CARTESIAN_POINT('Control Point',(-12.1999999993,38.3543295035,55.)) ;
#624=CARTESIAN_POINT('Control Point',(-12.297978555,38.3543295035,55.)) ;
#625=CARTESIAN_POINT('Control Point',(-12.3959566864,38.3423297567,55.)) ;
#626=CARTESIAN_POINT('Control Point',(-12.4919803478,38.3183270828,55.)) ;
#627=CARTESIAN_POINT('Control Point',(-12.6761825272,38.2472985332,55.)) ;
#628=CARTESIAN_POINT('Control Point',(-12.8377979654,38.1339173938,55.)) ;
#629=CARTESIAN_POINT('Control Point',(-12.9112332902,38.0675553188,55.)) ;
#630=CARTESIAN_POINT('Control Point',(-13.0403482937,37.9182073565,55.)) ;
#631=CARTESIAN_POINT('Control Point',(-13.1296047769,37.7421161497,55.)) ;
#632=CARTESIAN_POINT('Control Point',(-13.1631769673,37.6490055735,55.)) ;
#633=CARTESIAN_POINT('Control Point',(-13.189508222,37.5328749146,55.)) ;
#634=CARTESIAN_POINT('Control Point',(-13.1984660887,37.4149823744,55.)) ;
#635=CARTESIAN_POINT('Control Point',(-13.1994891313,37.3947619041,55.)) ;
#636=CARTESIAN_POINT('Control Point',(-13.1999999993,37.3745456947,55.)) ;
#637=CARTESIAN_POINT('Control Point',(-13.1999999993,37.3543295035,55.)) ;
#638=CARTESIAN_POINT('Vertex',(-12.1999999993,38.3543295035,55.)) ;
#641=CARTESIAN_POINT('Line Origine',(-9.79002377484,38.3543295035,55.)) ;
#645=CARTESIAN_POINT('Vertex',(-7.38004755042,38.3543295035,55.)) ;
#648=CARTESIAN_POINT('Axis2P3D Location',(-7.38004754877,41.8543295018,55.)) ;
#652=CARTESIAN_POINT('Vertex',(-3.88004755042,41.8543295035,55.)) ;
#655=CARTESIAN_POINT('Line Origine',(-3.88004755042,42.8543295035,55.)) ;
#659=CARTESIAN_POINT('Vertex',(-3.88004755084,43.854329503,55.)) ;
#663=CARTESIAN_POINT('Control Point',(-2.38004755042,45.3543295035,55.)) ;
#664=CARTESIAN_POINT('Control Point',(-2.56004346561,45.3543295035,55.)) ;
#665=CARTESIAN_POINT('Control Point',(-2.74003874443,45.3273307289,55.)) ;
#666=CARTESIAN_POINT('Control Point',(-2.91465200276,45.2733169117,55.)) ;
#667=CARTESIAN_POINT('Control Point',(-3.24225644218,45.1146156156,55.)) ;
#668=CARTESIAN_POINT('Control Point',(-3.50888016113,44.8667835557,55.)) ;
#669=CARTESIAN_POINT('Control Point',(-3.62249620337,44.7236099704,55.)) ;
#670=CARTESIAN_POINT('Control Point',(-3.76874298276,44.467996446,55.)) ;
#671=CARTESIAN_POINT('Control Point',(-3.84911148038,44.186772579,55.)) ;
#672=CARTESIAN_POINT('Control Point',(-3.86973587965,44.076806756,55.)) ;
#673=CARTESIAN_POINT('Control Point',(-3.88004755042,43.9655680082,55.)) ;
#674=CARTESIAN_POINT('Control Point',(-3.88004755042,43.8543295035,55.)) ;
#675=CARTESIAN_POINT('Vertex',(-2.38004755042,45.3543295035,55.)) ;
#678=CARTESIAN_POINT('Line Origine',(0.,45.3543295035,55.)) ;
#682=CARTESIAN_POINT('Vertex',(2.38004755084,45.354329503,55.)) ;
#686=CARTESIAN_POINT('Control Point',(3.88004755042,43.8543295035,55.)) ;
#687=CARTESIAN_POINT('Control Point',(3.88004755042,44.0343254185,55.)) ;
#688=CARTESIAN_POINT('Control Point',(3.85304877591,44.2143206972,55.)) ;
#689=CARTESIAN_POINT('Control Point',(3.79903496035,44.3889339542,55.)) ;
#690=CARTESIAN_POINT('Control Point',(3.64033366433,44.7165383935,55.)) ;
#691=CARTESIAN_POINT('Control Point',(3.39250160449,44.9831621124,55.)) ;
#692=CARTESIAN_POINT('Control Point',(3.2493280174,45.0967781564,55.)) ;
#693=CARTESIAN_POINT('Control Point',(2.99371449642,45.2430249338,55.)) ;
#694=CARTESIAN_POINT('Control Point',(2.71249063356,45.3233934312,55.)) ;
#695=CARTESIAN_POINT('Control Point',(2.60252479504,45.3440178334,55.)) ;
#696=CARTESIAN_POINT('Control Point',(2.49128605121,45.3543295035,55.)) ;
#697=CARTESIAN_POINT('Control Point',(2.38004755042,45.3543295035,55.)) ;
#698=CARTESIAN_POINT('Vertex',(3.88004755042,43.8543295035,55.)) ;
#701=CARTESIAN_POINT('Line Origine',(3.88004755042,42.8543295035,55.)) ;
#705=CARTESIAN_POINT('Vertex',(3.88004755042,41.8543295035,55.)) ;
#708=CARTESIAN_POINT('Axis2P3D Location',(7.38004754877,41.8543295018,55.)) ;
#712=CARTESIAN_POINT('Vertex',(7.38004755042,38.3543295035,55.)) ;
#715=CARTESIAN_POINT('Line Origine',(9.79002377484,38.3543295035,55.)) ;
#719=CARTESIAN_POINT('Vertex',(12.2,38.354329503,55.)) ;
#723=CARTESIAN_POINT('Control Point',(13.1999999993,37.3543295035,55.)) ;
#724=CARTESIAN_POINT('Control Point',(13.1999999993,37.4523080629,55.)) ;
#725=CARTESIAN_POINT('Control Point',(13.1880002516,37.5502861981,55.)) ;
#726=CARTESIAN_POINT('Control Point',(13.1639975813,37.646309845,55.)) ;
#727=CARTESIAN_POINT('Control Point',(13.0929690301,37.8305120312,55.)) ;
#728=CARTESIAN_POINT('Control Point',(12.9795878861,37.9921274747,55.)) ;
#729=CARTESIAN_POINT('Control Point',(12.9132258193,38.0655627885,55.)) ;
#730=CARTESIAN_POINT('Control Point',(12.7638778516,38.1946777976,55.)) ;
#731=CARTESIAN_POINT('Control Point',(12.5877866374,38.2839342833,55.)) ;
#732=CARTESIAN_POINT('Control Point',(12.4946760781,38.3175064677,55.)) ;
#733=CARTESIAN_POINT('Control Point',(12.3785454149,38.343837724,55.)) ;
#734=CARTESIAN_POINT('Control Point',(12.2606528701,38.3527955911,55.)) ;
#735=CARTESIAN_POINT('Control Point',(12.2404323999,38.3538186355,55.)) ;
#736=CARTESIAN_POINT('Control Point',(12.2202161905,38.3543295035,55.)) ;
#737=CARTESIAN_POINT('Control Point',(12.1999999993,38.3543295035,55.)) ;
#738=CARTESIAN_POINT('Vertex',(13.1999999993,37.3543295035,55.)) ;
#741=CARTESIAN_POINT('Line Origine',(13.1999999993,35.3543295035,55.)) ;
#745=CARTESIAN_POINT('Vertex',(13.2,33.354329503,55.)) ;
#749=CARTESIAN_POINT('Control Point',(12.1999999993,32.3543295035,55.)) ;
#750=CARTESIAN_POINT('Control Point',(12.2979785587,32.3543295035,55.)) ;
#751=CARTESIAN_POINT('Control Point',(12.3959566939,32.3663292511,55.)) ;
#752=CARTESIAN_POINT('Control Point',(12.4919803408,32.3903319214,55.)) ;
#753=CARTESIAN_POINT('Control Point',(12.6761825268,32.4613604726,55.)) ;
#754=CARTESIAN_POINT('Control Point',(12.8377979702,32.5747416164,55.)) ;
#755=CARTESIAN_POINT('Control Point',(12.9112332864,32.6411036837,55.)) ;
#756=CARTESIAN_POINT('Control Point',(13.0403482933,32.7904516489,55.)) ;
#757=CARTESIAN_POINT('Control Point',(13.1296047781,32.9665428597,55.)) ;
#758=CARTESIAN_POINT('Control Point',(13.1631769667,33.0596534308,55.)) ;
#759=CARTESIAN_POINT('Control Point',(13.1895082219,33.1757840909,55.)) ;
#760=CARTESIAN_POINT('Control Point',(13.1984660887,33.2936766326,55.)) ;
#761=CARTESIAN_POINT('Control Point',(13.1994891313,33.3138971029,55.)) ;
#762=CARTESIAN_POINT('Control Point',(13.1999999993,33.3341133122,55.)) ;
#763=CARTESIAN_POINT('Control Point',(13.1999999993,33.3543295035,55.)) ;
#764=CARTESIAN_POINT('Vertex',(12.1999999993,32.3543295035,55.)) ;
#767=CARTESIAN_POINT('Line Origine',(11.4499999993,32.3543295035,55.)) ;
#771=CARTESIAN_POINT('Vertex',(10.6999999993,32.3543295035,55.)) ;
#774=CARTESIAN_POINT('Axis2P3D Location',(10.7000000008,31.8543295019,55.)) ;
#778=CARTESIAN_POINT('Vertex',(10.3464466093,32.2078828937,55.)) ;
#781=CARTESIAN_POINT('Axis2P3D Location',(10.7000000008,31.8543295019,55.)) ;
#785=CARTESIAN_POINT('Vertex',(10.1999999993,31.8543295035,55.)) ;
#788=CARTESIAN_POINT('Line Origine',(10.1999999993,27.9946791728,55.)) ;
#792=CARTESIAN_POINT('Vertex',(10.1999999993,24.1350288422,55.)) ;
#795=CARTESIAN_POINT('Axis2P3D Location',(10.7000000007,24.1350288448,55.)) ;
#799=CARTESIAN_POINT('Vertex',(10.5086582842,23.6730890771,55.)) ;
#802=CARTESIAN_POINT('Axis2P3D Location',(10.7000000007,24.1350288448,55.)) ;
#806=CARTESIAN_POINT('Vertex',(11.0535533912,23.7814754521,55.)) ;
#809=CARTESIAN_POINT('Line Origine',(13.440990258,26.1689123189,55.)) ;
#813=CARTESIAN_POINT('Vertex',(15.8284271248,28.5563491856,55.)) ;
#816=CARTESIAN_POINT('Axis2P3D Location',(13.000000001,31.3847763099,55.)) ;
#820=CARTESIAN_POINT('Vertex',(17.,31.3847763104,55.)) ;
#823=CARTESIAN_POINT('Line Origine',(17.,39.2030240459,55.)) ;
#827=CARTESIAN_POINT('Vertex',(17.,47.0212717814,55.)) ;
#830=CARTESIAN_POINT('Axis2P3D Location',(0.,8.17124146124E-012,55.)) ;
#834=CARTESIAN_POINT('Vertex',(-17.,47.0212717814,55.)) ;
#837=CARTESIAN_POINT('Line Origine',(-17.,39.2030240459,55.)) ;
#841=CARTESIAN_POINT('Vertex',(-17.,31.3847763104,55.)) ;
#844=CARTESIAN_POINT('Axis2P3D Location',(-13.000000001,31.3847763099,55.)) ;
#848=CARTESIAN_POINT('Vertex',(-15.8284271248,28.5563491861,55.)) ;
#851=CARTESIAN_POINT('Line Origine',(-13.440990258,26.1689123189,55.)) ;
#892=CARTESIAN_POINT('Axis2P3D Location',(-7.38004755042,41.8543295035,55.)) ;
#896=CARTESIAN_POINT('Vertex',(-5.38004755042,41.8543295035,55.)) ;
#898=CARTESIAN_POINT('Vertex',(-9.38004755042,41.8543295035,55.)) ;
#901=CARTESIAN_POINT('Axis2P3D Location',(-7.38004755042,41.8543295035,55.)) ;
#910=CARTESIAN_POINT('Axis2P3D Location',(7.38004755042,41.8543295035,55.)) ;
#914=CARTESIAN_POINT('Vertex',(9.38004755042,41.8543295035,55.)) ;
#916=CARTESIAN_POINT('Vertex',(5.38004755042,41.8543295035,55.)) ;
#919=CARTESIAN_POINT('Axis2P3D Location',(7.38004755042,41.8543295035,55.)) ;
#929=CARTESIAN_POINT('Axis2P3D Location',(-10.2,22.9279220614,50.)) ;
#934=CARTESIAN_POINT('Line Origine',(-15.8284271248,28.5563491861,52.5)) ;
#946=CARTESIAN_POINT('Axis2P3D Location',(-13.,31.3847763109,50.)) ;
#951=CARTESIAN_POINT('Line Origine',(-17.,31.3847763109,50.)) ;
#963=CARTESIAN_POINT('Axis2P3D Location',(-17.,31.3847763109,50.)) ;
#968=CARTESIAN_POINT('Line Origine',(-17.,47.0212717819,52.5)) ;
#980=CARTESIAN_POINT('Axis2P3D Location',(0.,0.,50.)) ;
#985=CARTESIAN_POINT('Line Origine',(17.,47.021271782,50.)) ;
#997=CARTESIAN_POINT('Control Point',(-5.36237720894E-014,50.,51.5)) ;
#998=CARTESIAN_POINT('Control Point',(0.191334579007,50.,51.4999999583)) ;
#999=CARTESIAN_POINT('Control Point',(0.395785442711,49.9989726805,51.5503480911)) ;
#1000=CARTESIAN_POINT('Control Point',(0.57181963315,49.9969131905,51.6576060164)) ;
#1001=CARTESIAN_POINT('Control Point',(0.707106766327,49.9949997502,51.7928932309)) ;
#1002=CARTESIAN_POINT('Vertex',(-1.01064309961E-015,50.,51.5)) ;
#1004=CARTESIAN_POINT('Vertex',(0.707106780773,49.9949998558,51.7928932184)) ;
#1008=CARTESIAN_POINT('Control Point',(0.707106766327,49.9949997502,51.7928932309)) ;
#1009=CARTESIAN_POINT('Control Point',(0.842393646395,49.9930863135,51.9281801923)) ;
#1010=CARTESIAN_POINT('Control Point',(0.951361373666,49.9910059672,52.108340949)) ;
#1011=CARTESIAN_POINT('Control Point',(1.00000004109,49.989998999,52.3086657792)) ;
#1012=CARTESIAN_POINT('Control Point',(1.00000004109,49.989998999,52.5)) ;
#1013=CARTESIAN_POINT('Vertex',(1.,49.9899975359,52.5)) ;
#1017=CARTESIAN_POINT('Control Point',(1.00000004109,49.989998999,52.5)) ;
#1018=CARTESIAN_POINT('Control Point',(1.00000004109,49.989998999,52.6913344329)) ;
#1019=CARTESIAN_POINT('Control Point',(0.949651810321,49.9910370543,52.8957859299)) ;
#1020=CARTESIAN_POINT('Control Point',(0.842393796362,49.9930863113,53.0718196577)) ;
#1021=CARTESIAN_POINT('Control Point',(0.707106766327,49.9949997502,53.2071067691)) ;
#1022=CARTESIAN_POINT('Vertex',(0.707106780773,49.9949998558,53.2071067816)) ;
#1026=CARTESIAN_POINT('Control Point',(0.707106766327,49.9949997502,53.2071067691)) ;
#1027=CARTESIAN_POINT('Control Point',(0.571819758576,49.9969131887,53.3423938582)) ;
#1028=CARTESIAN_POINT('Control Point',(0.391659201152,49.9990037585,53.451361185)) ;
#1029=CARTESIAN_POINT('Control Point',(0.191334401619,50.,53.5000000417)) ;
#1030=CARTESIAN_POINT('Control Point',(-9.15933995316E-015,50.,53.5)) ;
#1031=CARTESIAN_POINT('Vertex',(-4.4408920985E-016,50.,53.5)) ;
#1035=CARTESIAN_POINT('Control Point',(-9.21485110439E-015,50.,53.5)) ;
#1036=CARTESIAN_POINT('Control Point',(-0.191334579009,50.,53.5000000417)) ;
#1037=CARTESIAN_POINT('Control Point',(-0.395785442697,49.9989726805,53.4496519089)) ;
#1038=CARTESIAN_POINT('Control Point',(-0.571819633149,49.9969131905,53.3423939836)) ;
#1039=CARTESIAN_POINT('Control Point',(-0.707106766327,49.9949997502,53.2071067691)) ;
#1040=CARTESIAN_POINT('Vertex',(-0.707106780773,49.9949998558,53.2071067816)) ;
#1044=CARTESIAN_POINT('Control Point',(-0.707106766327,49.9949997502,53.2071067691)) ;
#1045=CARTESIAN_POINT('Control Point',(-0.8423936464,49.9930863135,53.0718198077)) ;
#1046=CARTESIAN_POINT('Control Point',(-0.951361373651,49.9910059672,52.891659051)) ;
#1047=CARTESIAN_POINT('Control Point',(-1.00000004109,49.989998999,52.6913342208)) ;
#1048=CARTESIAN_POINT('Control Point',(-1.00000004109,49.989998999,52.5)) ;
#1049=CARTESIAN_POINT('Vertex',(-1.,49.9899975359,52.5)) ;
#1053=CARTESIAN_POINT('Control Point',(-1.00000004109,49.989998999,52.5)) ;
#1054=CARTESIAN_POINT('Control Point',(-1.00000004109,49.989998999,52.3086655671)) ;
#1055=CARTESIAN_POINT('Control Point',(-0.94965181032,49.9910370543,52.1042140701)) ;
#1056=CARTESIAN_POINT('Control Point',(-0.842393796362,49.9930863113,51.9281803423)) ;
#1057=CARTESIAN_POINT('Control Point',(-0.707106766327,49.9949997502,51.7928932309)) ;
#1058=CARTESIAN_POINT('Vertex',(-0.707106780774,49.9949998558,51.7928932184)) ;
#1062=CARTESIAN_POINT('Control Point',(-0.707106766327,49.9949997502,51.7928932309)) ;
#1063=CARTESIAN_POINT('Control Point',(-0.571819758576,49.9969131887,51.6576061418)) ;
#1064=CARTESIAN_POINT('Control Point',(-0.391659201154,49.9990037585,51.548638815)) ;
#1065=CARTESIAN_POINT('Control Point',(-0.191334401619,50.,51.4999999583)) ;
#1066=CARTESIAN_POINT('Control Point',(-5.35682609382E-014,50.,51.5)) ;
#1079=CARTESIAN_POINT('Axis2P3D Location',(17.,47.021271782,50.)) ;
#1084=CARTESIAN_POINT('Line Origine',(17.,31.384776311,52.5)) ;
#1096=CARTESIAN_POINT('Axis2P3D Location',(13.,31.3847763109,50.)) ;
#1101=CARTESIAN_POINT('Line Origine',(15.8284271247,28.5563491861,50.)) ;
#1113=CARTESIAN_POINT('Axis2P3D Location',(15.8284271247,28.5563491861,50.)) ;
#1118=CARTESIAN_POINT('Line Origine',(11.0535533912,23.7814754526,52.5)) ;
#1130=CARTESIAN_POINT('Axis2P3D Location',(10.7,24.1350288425,50.)) ;
#1135=CARTESIAN_POINT('Line Origine',(10.5086582838,23.6730890763,50.)) ;
#1147=CARTESIAN_POINT('Axis2P3D Location',(10.7,24.1350288425,50.)) ;
#1152=CARTESIAN_POINT('Line Origine',(10.2,24.1350288425,50.)) ;
#1164=CARTESIAN_POINT('Axis2P3D Location',(10.2,22.9279220614,50.)) ;
#1169=CARTESIAN_POINT('Line Origine',(10.2,31.8543295029,52.5)) ;
#1181=CARTESIAN_POINT('Axis2P3D Location',(10.7,31.854329503,50.)) ;
#1186=CARTESIAN_POINT('Line Origine',(10.3464466094,32.2078828936,50.)) ;
#1198=CARTESIAN_POINT('Axis2P3D Location',(10.7,31.854329503,50.)) ;
#1203=CARTESIAN_POINT('Line Origine',(10.7,32.354329503,50.)) ;
#1215=CARTESIAN_POINT('Axis2P3D Location',(10.2,32.354329503,50.)) ;
#1220=CARTESIAN_POINT('Line Origine',(12.2,32.354329503,52.5)) ;
#1232=CARTESIAN_POINT('Axis2P3D Location',(12.2,33.354329503,50.)) ;
#1237=CARTESIAN_POINT('Line Origine',(13.2,33.354329503,50.)) ;
#1249=CARTESIAN_POINT('Axis2P3D Location',(13.2,33.354329503,50.)) ;
#1254=CARTESIAN_POINT('Line Origine',(13.2,37.354329503,52.5)) ;
#1266=CARTESIAN_POINT('Axis2P3D Location',(12.2,37.354329503,50.)) ;
#1271=CARTESIAN_POINT('Line Origine',(12.2,38.354329503,50.)) ;
#1283=CARTESIAN_POINT('Axis2P3D Location',(12.2,38.354329503,50.)) ;
#1288=CARTESIAN_POINT('Line Origine',(7.38004755117,38.354329503,52.5)) ;
#1300=CARTESIAN_POINT('Axis2P3D Location',(7.38004755084,41.854329503,50.)) ;
#1305=CARTESIAN_POINT('Line Origine',(3.88004755084,41.854329503,50.)) ;
#1317=CARTESIAN_POINT('Axis2P3D Location',(3.88004755084,41.854329503,50.)) ;
#1322=CARTESIAN_POINT('Line Origine',(3.88004755084,43.854329503,52.5)) ;
#1334=CARTESIAN_POINT('Axis2P3D Location',(2.38004755084,43.854329503,50.)) ;
#1339=CARTESIAN_POINT('Line Origine',(2.38004755084,45.354329503,50.)) ;
#1351=CARTESIAN_POINT('Axis2P3D Location',(2.38004755084,45.354329503,50.)) ;
#1356=CARTESIAN_POINT('Line Origine',(-2.38004755001,45.354329503,52.5)) ;
#1367=CARTESIAN_POINT('Axis2P3D Location',(4.19596357659E-010,45.354329503,52.5)) ;
#1371=CARTESIAN_POINT('Vertex',(-4.06929955165E-016,45.3543295022,51.5)) ;
#1373=CARTESIAN_POINT('Vertex',(-1.,45.3543295022,52.5)) ;
#1376=CARTESIAN_POINT('Axis2P3D Location',(4.19596357659E-010,45.354329503,52.5)) ;
#1380=CARTESIAN_POINT('Vertex',(-2.84465275251E-016,45.3543295022,53.5)) ;
#1383=CARTESIAN_POINT('Axis2P3D Location',(4.19596357659E-010,45.354329503,52.5)) ;
#1387=CARTESIAN_POINT('Vertex',(1.00000000042,45.354329503,52.5)) ;
#1390=CARTESIAN_POINT('Axis2P3D Location',(4.19596357659E-010,45.354329503,52.5)) ;
#1402=CARTESIAN_POINT('Axis2P3D Location',(-2.38004755084,43.854329503,50.)) ;
#1407=CARTESIAN_POINT('Line Origine',(-3.88004755084,43.854329503,50.)) ;
#1419=CARTESIAN_POINT('Axis2P3D Location',(-3.88004755084,43.854329503,50.)) ;
#1424=CARTESIAN_POINT('Line Origine',(-3.88004755084,41.854329503,52.5)) ;
#1436=CARTESIAN_POINT('Axis2P3D Location',(-7.38004755084,41.854329503,50.)) ;
#1441=CARTESIAN_POINT('Line Origine',(-7.38004755084,38.354329503,50.)) ;
#1453=CARTESIAN_POINT('Axis2P3D Location',(-7.38004755084,38.354329503,50.)) ;
#1458=CARTESIAN_POINT('Line Origine',(-12.1999999997,38.354329503,52.5)) ;
#1470=CARTESIAN_POINT('Axis2P3D Location',(-12.2,37.354329503,50.)) ;
#1475=CARTESIAN_POINT('Line Origine',(-13.2,37.354329503,50.)) ;
#1487=CARTESIAN_POINT('Axis2P3D Location',(-13.2,37.354329503,50.)) ;
#1492=CARTESIAN_POINT('Line Origine',(-13.2,33.354329503,52.5)) ;
#1504=CARTESIAN_POINT('Axis2P3D Location',(-12.2,33.354329503,50.)) ;
#1509=CARTESIAN_POINT('Line Origine',(-12.2,32.354329503,50.)) ;
#1521=CARTESIAN_POINT('Axis2P3D Location',(-12.2,32.354329503,50.)) ;
#1526=CARTESIAN_POINT('Line Origine',(-10.7,32.354329503,52.5)) ;
#1538=CARTESIAN_POINT('Axis2P3D Location',(-10.7,31.854329503,50.)) ;
#1543=CARTESIAN_POINT('Line Origine',(-10.3464466094,32.2078828936,50.)) ;
#1555=CARTESIAN_POINT('Axis2P3D Location',(-10.7,31.854329503,50.)) ;
#1567=CARTESIAN_POINT('Axis2P3D Location',(-7.38004755084,41.854329503,55.)) ;
#1572=CARTESIAN_POINT('Line Origine',(-5.38004755084,41.854329503,55.)) ;
#1577=CARTESIAN_POINT('Line Origine',(-9.38004755084,41.854329503,55.)) ;
#1589=CARTESIAN_POINT('Axis2P3D Location',(-7.38004755084,41.854329503,55.)) ;
#1601=CARTESIAN_POINT('Axis2P3D Location',(7.38004755084,41.854329503,55.)) ;
#1606=CARTESIAN_POINT('Line Origine',(9.38004755084,41.854329503,55.)) ;
#1611=CARTESIAN_POINT('Line Origine',(5.38004755084,41.854329503,55.)) ;
#1623=CARTESIAN_POINT('Axis2P3D Location',(7.38004755084,41.854329503,55.)) ;
#1635=CARTESIAN_POINT('Axis2P3D Location',(-3.06161699787E-016,45.,52.5)) ;
#1640=CARTESIAN_POINT('Line Origine',(-4.2862637969E-016,45.,51.5)) ;
#1645=CARTESIAN_POINT('Line Origine',(-6.12323399409E-017,45.,53.5)) ;
#1661=CARTESIAN_POINT('Axis2P3D Location',(-3.06161699787E-016,45.,52.5)) ;
#53=DIRECTION('Axis2P3D Direction',(0.,0.,1.)) ;
#54=DIRECTION('Axis2P3D XDirection',(0.382683432365,-0.923879532511,0.)) ;
#58=DIRECTION('Vector Direction',(0.,0.,1.)) ;
#67=DIRECTION('Axis2P3D Direction',(0.,0.,1.)) ;
#74=DIRECTION('Vector Direction',(0.,0.,1.)) ;
#81=DIRECTION('Axis2P3D Direction',(0.,0.,1.)) ;
#93=DIRECTION('Axis2P3D Direction',(0.,0.,1.)) ;
#94=DIRECTION('Axis2P3D XDirection',(-0.382683432365,0.923879532511,-0.)) ;
#98=DIRECTION('Axis2P3D Direction',(0.,0.,1.)) ;
#105=DIRECTION('Vector Direction',(0.,0.,1.)) ;
#112=DIRECTION('Axis2P3D Direction',(0.,0.,1.)) ;
#124=DIRECTION('Axis2P3D Direction',(0.,0.,-1.)) ;
#125=DIRECTION('Axis2P3D XDirection',(1.,0.,0.)) ;
#129=DIRECTION('Vector Direction',(-0.707106781187,0.707106781187,0.)) ;
#136=DIRECTION('Axis2P3D Direction',(0.,0.,-1.)) ;
#143=DIRECTION('Vector Direction',(0.,-1.,0.)) ;
#150=DIRECTION('Axis2P3D Direction',(0.,0.,-1.)) ;
#157=DIRECTION('Vector Direction',(0.,1.,0.)) ;
#164=DIRECTION('Axis2P3D Direction',(0.,0.,-1.)) ;
#171=DIRECTION('Vector Direction',(-0.707106781187,-0.707106781187,0.)) ;
#207=DIRECTION('Vector Direction',(0.,1.,0.)) ;
#240=DIRECTION('Vector Direction',(-1.,0.,0.)) ;
#247=DIRECTION('Axis2P3D Direction',(0.,0.,-1.)) ;
#254=DIRECTION('Vector Direction',(0.,1.,0.)) ;
#261=DIRECTION('Axis2P3D Direction',(0.,0.,-1.)) ;
#268=DIRECTION('Vector Direction',(1.,0.,0.)) ;
#275=DIRECTION('Axis2P3D Direction',(0.,0.,-1.)) ;
#282=DIRECTION('Vector Direction',(0.,1.,0.)) ;
#289=DIRECTION('Axis2P3D Direction',(0.,0.,-1.)) ;
#296=DIRECTION('Vector Direction',(-1.,0.,0.)) ;
#303=DIRECTION('Axis2P3D Direction',(0.,0.,-1.)) ;
#310=DIRECTION('Vector Direction',(0.,-1.,0.)) ;
#317=DIRECTION('Axis2P3D Direction',(0.,0.,-1.)) ;
#324=DIRECTION('Vector Direction',(1.,0.,0.)) ;
#331=DIRECTION('Axis2P3D Direction',(0.,0.,-1.)) ;
#338=DIRECTION('Vector Direction',(0.,-1.,0.)) ;
#345=DIRECTION('Axis2P3D Direction',(0.,0.,-1.)) ;
#352=DIRECTION('Vector Direction',(-1.,0.,0.)) ;
#385=DIRECTION('Vector Direction',(0.,-1.,0.)) ;
#547=DIRECTION('Axis2P3D Direction',(-1.,0.,0.)) ;
#548=DIRECTION('Axis2P3D XDirection',(0.,-1.,0.)) ;
#552=DIRECTION('Vector Direction',(0.,0.,-1.)) ;
#559=DIRECTION('Vector Direction',(0.,-1.,0.)) ;
#571=DIRECTION('Axis2P3D Direction',(0.,0.,-1.)) ;
#572=DIRECTION('Axis2P3D XDirection',(1.,0.,0.)) ;
#576=DIRECTION('Axis2P3D Direction',(0.,0.,-1.)) ;
#583=DIRECTION('Axis2P3D Direction',(0.,0.,-1.)) ;
#590=DIRECTION('Vector Direction',(1.,0.,0.)) ;
#616=DIRECTION('Vector Direction',(0.,-1.,0.)) ;
#642=DIRECTION('Vector Direction',(-1.,0.,0.)) ;
#649=DIRECTION('Axis2P3D Direction',(0.,0.,-1.)) ;
#656=DIRECTION('Vector Direction',(0.,-1.,0.)) ;
#679=DIRECTION('Vector Direction',(-1.,0.,0.)) ;
#702=DIRECTION('Vector Direction',(0.,1.,0.)) ;
#709=DIRECTION('Axis2P3D Direction',(0.,0.,-1.)) ;
#716=DIRECTION('Vector Direction',(-1.,0.,0.)) ;
#742=DIRECTION('Vector Direction',(0.,1.,0.)) ;
#768=DIRECTION('Vector Direction',(1.,0.,0.)) ;
#775=DIRECTION('Axis2P3D Direction',(0.,0.,-1.)) ;
#782=DIRECTION('Axis2P3D Direction',(0.,0.,-1.)) ;
#789=DIRECTION('Vector Direction',(0.,1.,0.)) ;
#796=DIRECTION('Axis2P3D Direction',(0.,0.,-1.)) ;
#803=DIRECTION('Axis2P3D Direction',(0.,0.,-1.)) ;
#810=DIRECTION('Vector Direction',(-0.707106781187,-0.707106781187,0.)) ;
#817=DIRECTION('Axis2P3D Direction',(0.,0.,-1.)) ;
#824=DIRECTION('Vector Direction',(0.,-1.,0.)) ;
#831=DIRECTION('Axis2P3D Direction',(0.,0.,-1.)) ;
#838=DIRECTION('Vector Direction',(0.,1.,0.)) ;
#845=DIRECTION('Axis2P3D Direction',(0.,0.,-1.)) ;
#852=DIRECTION('Vector Direction',(-0.707106781187,0.707106781187,0.)) ;
#893=DIRECTION('Axis2P3D Direction',(0.,0.,-1.)) ;
#902=DIRECTION('Axis2P3D Direction',(0.,0.,-1.)) ;
#911=DIRECTION('Axis2P3D Direction',(0.,0.,-1.)) ;
#920=DIRECTION('Axis2P3D Direction',(0.,0.,-1.)) ;
#930=DIRECTION('Axis2P3D Direction',(0.707106781187,0.707106781187,0.)) ;
#931=DIRECTION('Axis2P3D XDirection',(-0.707106781187,0.707106781187,0.)) ;
#935=DIRECTION('Vector Direction',(0.,0.,1.)) ;
#947=DIRECTION('Axis2P3D Direction',(-0.,0.,-1.)) ;
#948=DIRECTION('Axis2P3D XDirection',(-0.707106781187,-0.707106781187,0.)) ;
#952=DIRECTION('Vector Direction',(0.,0.,-1.)) ;
#964=DIRECTION('Axis2P3D Direction',(1.,0.,0.)) ;
#965=DIRECTION('Axis2P3D XDirection',(0.,1.,0.)) ;
#969=DIRECTION('Vector Direction',(0.,0.,1.)) ;
#981=DIRECTION('Axis2P3D Direction',(0.,0.,-1.)) ;
#982=DIRECTION('Axis2P3D XDirection',(-1.,-1.22464679915E-016,0.)) ;
#986=DIRECTION('Vector Direction',(0.,0.,-1.)) ;
#1080=DIRECTION('Axis2P3D Direction',(-1.,0.,0.)) ;
#1081=DIRECTION('Axis2P3D XDirection',(0.,-1.,0.)) ;
#1085=DIRECTION('Vector Direction',(0.,0.,1.)) ;
#1097=DIRECTION('Axis2P3D Direction',(0.,0.,-1.)) ;
#1098=DIRECTION('Axis2P3D XDirection',(1.,0.,0.)) ;
#1102=DIRECTION('Vector Direction',(0.,0.,-1.)) ;
#1114=DIRECTION('Axis2P3D Direction',(-0.707106781187,0.707106781187,0.)) ;
#1115=DIRECTION('Axis2P3D XDirection',(-0.707106781187,-0.707106781187,0.)) ;
#1119=DIRECTION('Vector Direction',(0.,0.,1.)) ;
#1131=DIRECTION('Axis2P3D Direction',(0.,0.,1.)) ;
#1132=DIRECTION('Axis2P3D XDirection',(-0.382683432365,-0.923879532511,0.)) ;
#1136=DIRECTION('Vector Direction',(0.,0.,1.)) ;
#1148=DIRECTION('Axis2P3D Direction',(0.,0.,1.)) ;
#1149=DIRECTION('Axis2P3D XDirection',(0.382683432365,0.923879532511,0.)) ;
#1153=DIRECTION('Vector Direction',(0.,0.,1.)) ;
#1165=DIRECTION('Axis2P3D Direction',(1.,9.42223668133E-016,0.)) ;
#1166=DIRECTION('Axis2P3D XDirection',(-9.42223668133E-016,1.,0.)) ;
#1170=DIRECTION('Vector Direction',(0.,0.,1.)) ;
#1182=DIRECTION('Axis2P3D Direction',(0.,0.,1.)) ;
#1183=DIRECTION('Axis2P3D XDirection',(-0.707106781187,0.707106781187,0.)) ;
#1187=DIRECTION('Vector Direction',(0.,0.,1.)) ;
#1199=DIRECTION('Axis2P3D Direction',(0.,0.,1.)) ;
#1200=DIRECTION('Axis2P3D XDirection',(0.707106781187,-0.707106781187,0.)) ;
#1204=DIRECTION('Vector Direction',(0.,0.,1.)) ;
#1216=DIRECTION('Axis2P3D Direction',(2.22044604924E-015,-1.,0.)) ;
#1217=DIRECTION('Axis2P3D XDirection',(1.,2.22044604924E-015,0.)) ;
#1221=DIRECTION('Vector Direction',(0.,0.,1.)) ;
#1233=DIRECTION('Axis2P3D Direction',(0.,0.,-1.)) ;
#1234=DIRECTION('Axis2P3D XDirection',(1.,0.,0.)) ;
#1238=DIRECTION('Vector Direction',(0.,0.,-1.)) ;
#1250=DIRECTION('Axis2P3D Direction',(1.,1.19348975147E-012,0.)) ;
#1251=DIRECTION('Axis2P3D XDirection',(-1.19348975147E-012,1.,0.)) ;
#1255=DIRECTION('Vector Direction',(0.,0.,1.)) ;
#1267=DIRECTION('Axis2P3D Direction',(0.,0.,-1.)) ;
#1268=DIRECTION('Axis2P3D XDirection',(2.22044604925E-015,1.,0.)) ;
#1272=DIRECTION('Vector Direction',(0.,0.,-1.)) ;
#1284=DIRECTION('Axis2P3D Direction',(0.,1.,0.)) ;
#1285=DIRECTION('Axis2P3D XDirection',(-1.,0.,0.)) ;
#1289=DIRECTION('Vector Direction',(0.,0.,1.)) ;
#1301=DIRECTION('Axis2P3D Direction',(0.,0.,-1.)) ;
#1302=DIRECTION('Axis2P3D XDirection',(0.,-1.,0.)) ;
#1306=DIRECTION('Vector Direction',(0.,0.,-1.)) ;
#1318=DIRECTION('Axis2P3D Direction',(1.,-5.55111512313E-016,0.)) ;
#1319=DIRECTION('Axis2P3D XDirection',(5.55111512313E-016,1.,0.)) ;
#1323=DIRECTION('Vector Direction',(0.,0.,1.)) ;
#1335=DIRECTION('Axis2P3D Direction',(0.,0.,-1.)) ;
#1336=DIRECTION('Axis2P3D XDirection',(0.,1.,0.)) ;
#1340=DIRECTION('Vector Direction',(0.,0.,-1.)) ;
#1352=DIRECTION('Axis2P3D Direction',(0.,1.,0.)) ;
#1353=DIRECTION('Axis2P3D XDirection',(-1.,0.,0.)) ;
#1357=DIRECTION('Vector Direction',(0.,0.,1.)) ;
#1368=DIRECTION('Axis2P3D Direction',(0.,1.,0.)) ;
#1377=DIRECTION('Axis2P3D Direction',(0.,1.,0.)) ;
#1384=DIRECTION('Axis2P3D Direction',(0.,1.,0.)) ;
#1391=DIRECTION('Axis2P3D Direction',(0.,1.,0.)) ;
#1403=DIRECTION('Axis2P3D Direction',(0.,0.,-1.)) ;
#1404=DIRECTION('Axis2P3D XDirection',(-1.,0.,0.)) ;
#1408=DIRECTION('Vector Direction',(0.,0.,-1.)) ;
#1420=DIRECTION('Axis2P3D Direction',(-1.,0.,0.)) ;
#1421=DIRECTION('Axis2P3D XDirection',(0.,-1.,0.)) ;
#1425=DIRECTION('Vector Direction',(0.,0.,1.)) ;
#1437=DIRECTION('Axis2P3D Direction',(0.,0.,-1.)) ;
#1438=DIRECTION('Axis2P3D XDirection',(1.,0.,0.)) ;
#1442=DIRECTION('Vector Direction',(0.,0.,-1.)) ;
#1454=DIRECTION('Axis2P3D Direction',(-2.86541715339E-013,1.,0.)) ;
#1455=DIRECTION('Axis2P3D XDirection',(-1.,-2.86541715339E-013,0.)) ;
#1459=DIRECTION('Vector Direction',(0.,0.,1.)) ;
#1471=DIRECTION('Axis2P3D Direction',(0.,0.,-1.)) ;
#1472=DIRECTION('Axis2P3D XDirection',(-1.,4.4408920985E-015,0.)) ;
#1476=DIRECTION('Vector Direction',(0.,0.,-1.)) ;
#1488=DIRECTION('Axis2P3D Direction',(-1.,-1.91124893689E-012,0.)) ;
#1489=DIRECTION('Axis2P3D XDirection',(1.91124893689E-012,-1.,0.)) ;
#1493=DIRECTION('Vector Direction',(0.,0.,1.)) ;
#1505=DIRECTION('Axis2P3D Direction',(0.,0.,-1.)) ;
#1506=DIRECTION('Axis2P3D XDirection',(0.,-1.,0.)) ;
#1510=DIRECTION('Vector Direction',(0.,0.,-1.)) ;
#1522=DIRECTION('Axis2P3D Direction',(-2.22044604926E-015,-1.,0.)) ;
#1523=DIRECTION('Axis2P3D XDirection',(1.,-2.22044604926E-015,0.)) ;
#1527=DIRECTION('Vector Direction',(0.,0.,1.)) ;
#1539=DIRECTION('Axis2P3D Direction',(0.,-0.,1.)) ;
#1540=DIRECTION('Axis2P3D XDirection',(0.707106781187,0.707106781187,0.)) ;
#1544=DIRECTION('Vector Direction',(0.,0.,1.)) ;
#1556=DIRECTION('Axis2P3D Direction',(0.,-0.,1.)) ;
#1557=DIRECTION('Axis2P3D XDirection',(-0.707106781187,-0.707106781187,0.)) ;
#1568=DIRECTION('Axis2P3D Direction',(0.,0.,-1.)) ;
#1569=DIRECTION('Axis2P3D XDirection',(-1.,0.,0.)) ;
#1573=DIRECTION('Vector Direction',(0.,0.,-1.)) ;
#1578=DIRECTION('Vector Direction',(0.,0.,-1.)) ;
#1590=DIRECTION('Axis2P3D Direction',(0.,0.,-1.)) ;
#1591=DIRECTION('Axis2P3D XDirection',(1.,1.22464679915E-016,0.)) ;
#1602=DIRECTION('Axis2P3D Direction',(0.,0.,-1.)) ;
#1603=DIRECTION('Axis2P3D XDirection',(-1.,0.,0.)) ;
#1607=DIRECTION('Vector Direction',(0.,0.,-1.)) ;
#1612=DIRECTION('Vector Direction',(0.,0.,-1.)) ;
#1624=DIRECTION('Axis2P3D Direction',(0.,0.,-1.)) ;
#1625=DIRECTION('Axis2P3D XDirection',(1.,1.22464679915E-016,0.)) ;
#1636=DIRECTION('Axis2P3D Direction',(-6.12323399574E-017,-1.,0.)) ;
#1637=DIRECTION('Axis2P3D XDirection',(-1.22464679915E-016,7.49879891331E-033,-1.)) ;
#1641=DIRECTION('Vector Direction',(-6.12323399574E-017,-1.,0.)) ;
#1646=DIRECTION('Vector Direction',(-6.12323399574E-017,-1.,0.)) ;
#1662=DIRECTION('Axis2P3D Direction',(-6.12323399574E-017,-1.,0.)) ;
#1663=DIRECTION('Axis2P3D XDirection',(0.,0.,1.)) ;
#48=AXIS2_PLACEMENT_3D(' ',#47,$,$) ;
#55=AXIS2_PLACEMENT_3D('Cylinder Axis2P3D',#52,#53,#54) ;
#68=AXIS2_PLACEMENT_3D('Circle Axis2P3D',#66,#67,$) ;
#82=AXIS2_PLACEMENT_3D('Circle Axis2P3D',#80,#81,$) ;
#95=AXIS2_PLACEMENT_3D('Cylinder Axis2P3D',#92,#93,#94) ;
#99=AXIS2_PLACEMENT_3D('Circle Axis2P3D',#97,#98,$) ;
#113=AXIS2_PLACEMENT_3D('Circle Axis2P3D',#111,#112,$) ;
#126=AXIS2_PLACEMENT_3D('Plane Axis2P3D',#123,#124,#125) ;
#137=AXIS2_PLACEMENT_3D('Circle Axis2P3D',#135,#136,$) ;
#151=AXIS2_PLACEMENT_3D('Circle Axis2P3D',#149,#150,$) ;
#165=AXIS2_PLACEMENT_3D('Circle Axis2P3D',#163,#164,$) ;
#248=AXIS2_PLACEMENT_3D('Circle Axis2P3D',#246,#247,$) ;
#262=AXIS2_PLACEMENT_3D('Circle Axis2P3D',#260,#261,$) ;
#276=AXIS2_PLACEMENT_3D('Circle Axis2P3D',#274,#275,$) ;
#290=AXIS2_PLACEMENT_3D('Circle Axis2P3D',#288,#289,$) ;
#304=AXIS2_PLACEMENT_3D('Circle Axis2P3D',#302,#303,$) ;
#318=AXIS2_PLACEMENT_3D('Circle Axis2P3D',#316,#317,$) ;
#332=AXIS2_PLACEMENT_3D('Circle Axis2P3D',#330,#331,$) ;
#346=AXIS2_PLACEMENT_3D('Circle Axis2P3D',#344,#345,$) ;
#549=AXIS2_PLACEMENT_3D('Plane Axis2P3D',#546,#547,#548) ;
#573=AXIS2_PLACEMENT_3D('Plane Axis2P3D',#570,#571,#572) ;
#577=AXIS2_PLACEMENT_3D('Circle Axis2P3D',#575,#576,$) ;
#584=AXIS2_PLACEMENT_3D('Circle Axis2P3D',#582,#583,$) ;
#650=AXIS2_PLACEMENT_3D('Circle Axis2P3D',#648,#649,$) ;
#710=AXIS2_PLACEMENT_3D('Circle Axis2P3D',#708,#709,$) ;
#776=AXIS2_PLACEMENT_3D('Circle Axis2P3D',#774,#775,$) ;
#783=AXIS2_PLACEMENT_3D('Circle Axis2P3D',#781,#782,$) ;
#797=AXIS2_PLACEMENT_3D('Circle Axis2P3D',#795,#796,$) ;
#804=AXIS2_PLACEMENT_3D('Circle Axis2P3D',#802,#803,$) ;
#818=AXIS2_PLACEMENT_3D('Circle Axis2P3D',#816,#817,$) ;
#832=AXIS2_PLACEMENT_3D('Circle Axis2P3D',#830,#831,$) ;
#846=AXIS2_PLACEMENT_3D('Circle Axis2P3D',#844,#845,$) ;
#894=AXIS2_PLACEMENT_3D('Circle Axis2P3D',#892,#893,$) ;
#903=AXIS2_PLACEMENT_3D('Circle Axis2P3D',#901,#902,$) ;
#912=AXIS2_PLACEMENT_3D('Circle Axis2P3D',#910,#911,$) ;
#921=AXIS2_PLACEMENT_3D('Circle Axis2P3D',#919,#920,$) ;
#932=AXIS2_PLACEMENT_3D('Plane Axis2P3D',#929,#930,#931) ;
#949=AXIS2_PLACEMENT_3D('Cylinder Axis2P3D',#946,#947,#948) ;
#966=AXIS2_PLACEMENT_3D('Plane Axis2P3D',#963,#964,#965) ;
#983=AXIS2_PLACEMENT_3D('Cylinder Axis2P3D',#980,#981,#982) ;
#1082=AXIS2_PLACEMENT_3D('Plane Axis2P3D',#1079,#1080,#1081) ;
#1099=AXIS2_PLACEMENT_3D('Cylinder Axis2P3D',#1096,#1097,#1098) ;
#1116=AXIS2_PLACEMENT_3D('Plane Axis2P3D',#1113,#1114,#1115) ;
#1133=AXIS2_PLACEMENT_3D('Cylinder Axis2P3D',#1130,#1131,#1132) ;
#1150=AXIS2_PLACEMENT_3D('Cylinder Axis2P3D',#1147,#1148,#1149) ;
#1167=AXIS2_PLACEMENT_3D('Plane Axis2P3D',#1164,#1165,#1166) ;
#1184=AXIS2_PLACEMENT_3D('Cylinder Axis2P3D',#1181,#1182,#1183) ;
#1201=AXIS2_PLACEMENT_3D('Cylinder Axis2P3D',#1198,#1199,#1200) ;
#1218=AXIS2_PLACEMENT_3D('Plane Axis2P3D',#1215,#1216,#1217) ;
#1235=AXIS2_PLACEMENT_3D('Cylinder Axis2P3D',#1232,#1233,#1234) ;
#1252=AXIS2_PLACEMENT_3D('Plane Axis2P3D',#1249,#1250,#1251) ;
#1269=AXIS2_PLACEMENT_3D('Cylinder Axis2P3D',#1266,#1267,#1268) ;
#1286=AXIS2_PLACEMENT_3D('Plane Axis2P3D',#1283,#1284,#1285) ;
#1303=AXIS2_PLACEMENT_3D('Cylinder Axis2P3D',#1300,#1301,#1302) ;
#1320=AXIS2_PLACEMENT_3D('Plane Axis2P3D',#1317,#1318,#1319) ;
#1337=AXIS2_PLACEMENT_3D('Cylinder Axis2P3D',#1334,#1335,#1336) ;
#1354=AXIS2_PLACEMENT_3D('Plane Axis2P3D',#1351,#1352,#1353) ;
#1369=AXIS2_PLACEMENT_3D('Circle Axis2P3D',#1367,#1368,$) ;
#1378=AXIS2_PLACEMENT_3D('Circle Axis2P3D',#1376,#1377,$) ;
#1385=AXIS2_PLACEMENT_3D('Circle Axis2P3D',#1383,#1384,$) ;
#1392=AXIS2_PLACEMENT_3D('Circle Axis2P3D',#1390,#1391,$) ;
#1405=AXIS2_PLACEMENT_3D('Cylinder Axis2P3D',#1402,#1403,#1404) ;
#1422=AXIS2_PLACEMENT_3D('Plane Axis2P3D',#1419,#1420,#1421) ;
#1439=AXIS2_PLACEMENT_3D('Cylinder Axis2P3D',#1436,#1437,#1438) ;
#1456=AXIS2_PLACEMENT_3D('Plane Axis2P3D',#1453,#1454,#1455) ;
#1473=AXIS2_PLACEMENT_3D('Cylinder Axis2P3D',#1470,#1471,#1472) ;
#1490=AXIS2_PLACEMENT_3D('Plane Axis2P3D',#1487,#1488,#1489) ;
#1507=AXIS2_PLACEMENT_3D('Cylinder Axis2P3D',#1504,#1505,#1506) ;
#1524=AXIS2_PLACEMENT_3D('Plane Axis2P3D',#1521,#1522,#1523) ;
#1541=AXIS2_PLACEMENT_3D('Cylinder Axis2P3D',#1538,#1539,#1540) ;
#1558=AXIS2_PLACEMENT_3D('Cylinder Axis2P3D',#1555,#1556,#1557) ;
#1570=AXIS2_PLACEMENT_3D('Cylinder Axis2P3D',#1567,#1568,#1569) ;
#1592=AXIS2_PLACEMENT_3D('Cylinder Axis2P3D',#1589,#1590,#1591) ;
#1604=AXIS2_PLACEMENT_3D('Cylinder Axis2P3D',#1601,#1602,#1603) ;
#1626=AXIS2_PLACEMENT_3D('Cylinder Axis2P3D',#1623,#1624,#1625) ;
#1638=AXIS2_PLACEMENT_3D('Cylinder Axis2P3D',#1635,#1636,#1637) ;
#1664=AXIS2_PLACEMENT_3D('Cylinder Axis2P3D',#1661,#1662,#1663) ;
#40=PRODUCT_DEFINITION_SHAPE(' ',' ',#14) ;
#31=APPROVAL_PERSON_ORGANIZATION(#25,#21,#19) ;
#25=PERSON_AND_ORGANIZATION(#22,#23) ;
#22=PERSON(' ',' ',' ',$,$,$) ;
#23=ORGANIZATION(' ',' ',' ') ;
#21=APPROVAL(#20,' ') ;
#20=APPROVAL_STATUS('not_yet_approved') ;
#19=APPROVAL_ROLE('APPROVER') ;
#13=DATE_AND_TIME(#11,#12) ;
#12=LOCAL_TIME(13,40,22.,#10) ;
#10=COORDINATED_UNIVERSAL_TIME_OFFSET(0,0,.AHEAD.) ;
#86=ORIENTED_EDGE('',*,*,#65,.T.) ;
#87=ORIENTED_EDGE('',*,*,#72,.T.) ;
#88=ORIENTED_EDGE('',*,*,#79,.T.) ;
#89=ORIENTED_EDGE('',*,*,#84,.T.) ;
#117=ORIENTED_EDGE('',*,*,#65,.F.) ;
#118=ORIENTED_EDGE('',*,*,#103,.T.) ;
#119=ORIENTED_EDGE('',*,*,#110,.T.) ;
#120=ORIENTED_EDGE('',*,*,#115,.T.) ;
#390=ORIENTED_EDGE('',*,*,#72,.F.) ;
#391=ORIENTED_EDGE('',*,*,#115,.F.) ;
#392=ORIENTED_EDGE('',*,*,#134,.T.) ;
#393=ORIENTED_EDGE('',*,*,#141,.T.) ;
#394=ORIENTED_EDGE('',*,*,#148,.F.) ;
#395=ORIENTED_EDGE('',*,*,#155,.T.) ;
#396=ORIENTED_EDGE('',*,*,#162,.F.) ;
#397=ORIENTED_EDGE('',*,*,#169,.T.) ;
#398=ORIENTED_EDGE('',*,*,#176,.T.) ;
#399=ORIENTED_EDGE('',*,*,#192,.F.) ;
#400=ORIENTED_EDGE('',*,*,#205,.F.) ;
#401=ORIENTED_EDGE('',*,*,#212,.T.) ;
#402=ORIENTED_EDGE('',*,*,#225,.F.) ;
#403=ORIENTED_EDGE('',*,*,#238,.F.) ;
#404=ORIENTED_EDGE('',*,*,#245,.F.) ;
#405=ORIENTED_EDGE('',*,*,#252,.F.) ;
#406=ORIENTED_EDGE('',*,*,#259,.T.) ;
#407=ORIENTED_EDGE('',*,*,#266,.F.) ;
#408=ORIENTED_EDGE('',*,*,#273,.F.) ;
#409=ORIENTED_EDGE('',*,*,#280,.T.) ;
#410=ORIENTED_EDGE('',*,*,#287,.T.) ;
#411=ORIENTED_EDGE('',*,*,#294,.F.) ;
#412=ORIENTED_EDGE('',*,*,#301,.T.) ;
#413=ORIENTED_EDGE('',*,*,#308,.F.) ;
#414=ORIENTED_EDGE('',*,*,#315,.T.) ;
#415=ORIENTED_EDGE('',*,*,#322,.T.) ;
#416=ORIENTED_EDGE('',*,*,#329,.F.) ;
#417=ORIENTED_EDGE('',*,*,#336,.F.) ;
#418=ORIENTED_EDGE('',*,*,#343,.T.) ;
#419=ORIENTED_EDGE('',*,*,#350,.F.) ;
#420=ORIENTED_EDGE('',*,*,#357,.F.) ;
#421=ORIENTED_EDGE('',*,*,#370,.F.) ;
#422=ORIENTED_EDGE('',*,*,#383,.F.) ;
#423=ORIENTED_EDGE('',*,*,#388,.T.) ;
#482=ORIENTED_EDGE('',*,*,#454,.T.) ;
#483=ORIENTED_EDGE('',*,*,#480,.T.) ;
#542=ORIENTED_EDGE('',*,*,#514,.T.) ;
#543=ORIENTED_EDGE('',*,*,#540,.T.) ;
#564=ORIENTED_EDGE('',*,*,#79,.F.) ;
#565=ORIENTED_EDGE('',*,*,#388,.F.) ;
#566=ORIENTED_EDGE('',*,*,#557,.F.) ;
#567=ORIENTED_EDGE('',*,*,#562,.T.) ;
#857=ORIENTED_EDGE('',*,*,#103,.F.) ;
#858=ORIENTED_EDGE('',*,*,#84,.F.) ;
#859=ORIENTED_EDGE('',*,*,#562,.F.) ;
#860=ORIENTED_EDGE('',*,*,#581,.F.) ;
#861=ORIENTED_EDGE('',*,*,#588,.F.) ;
#862=ORIENTED_EDGE('',*,*,#595,.F.) ;
#863=ORIENTED_EDGE('',*,*,#614,.F.) ;
#864=ORIENTED_EDGE('',*,*,#621,.F.) ;
#865=ORIENTED_EDGE('',*,*,#640,.F.) ;
#866=ORIENTED_EDGE('',*,*,#647,.F.) ;
#867=ORIENTED_EDGE('',*,*,#654,.F.) ;
#868=ORIENTED_EDGE('',*,*,#661,.F.) ;
#869=ORIENTED_EDGE('',*,*,#677,.F.) ;
#870=ORIENTED_EDGE('',*,*,#684,.F.) ;
#871=ORIENTED_EDGE('',*,*,#700,.F.) ;
#872=ORIENTED_EDGE('',*,*,#707,.F.) ;
#873=ORIENTED_EDGE('',*,*,#714,.F.) ;
#874=ORIENTED_EDGE('',*,*,#721,.F.) ;
#875=ORIENTED_EDGE('',*,*,#740,.F.) ;
#876=ORIENTED_EDGE('',*,*,#747,.F.) ;
#877=ORIENTED_EDGE('',*,*,#766,.F.) ;
#878=ORIENTED_EDGE('',*,*,#773,.F.) ;
#879=ORIENTED_EDGE('',*,*,#780,.F.) ;
#880=ORIENTED_EDGE('',*,*,#787,.F.) ;
#881=ORIENTED_EDGE('',*,*,#794,.F.) ;
#882=ORIENTED_EDGE('',*,*,#801,.F.) ;
#883=ORIENTED_EDGE('',*,*,#808,.F.) ;
#884=ORIENTED_EDGE('',*,*,#815,.F.) ;
#885=ORIENTED_EDGE('',*,*,#822,.F.) ;
#886=ORIENTED_EDGE('',*,*,#829,.F.) ;
#887=ORIENTED_EDGE('',*,*,#836,.F.) ;
#888=ORIENTED_EDGE('',*,*,#843,.F.) ;
#889=ORIENTED_EDGE('',*,*,#850,.F.) ;
#890=ORIENTED_EDGE('',*,*,#855,.F.) ;
#907=ORIENTED_EDGE('',*,*,#900,.T.) ;
#908=ORIENTED_EDGE('',*,*,#905,.T.) ;
#925=ORIENTED_EDGE('',*,*,#918,.T.) ;
#926=ORIENTED_EDGE('',*,*,#923,.T.) ;
#940=ORIENTED_EDGE('',*,*,#110,.F.) ;
#941=ORIENTED_EDGE('',*,*,#855,.T.) ;
#942=ORIENTED_EDGE('',*,*,#938,.F.) ;
#943=ORIENTED_EDGE('',*,*,#134,.F.) ;
#957=ORIENTED_EDGE('',*,*,#141,.F.) ;
#958=ORIENTED_EDGE('',*,*,#938,.T.) ;
#959=ORIENTED_EDGE('',*,*,#850,.T.) ;
#960=ORIENTED_EDGE('',*,*,#955,.F.) ;
#974=ORIENTED_EDGE('',*,*,#148,.T.) ;
#975=ORIENTED_EDGE('',*,*,#955,.T.) ;
#976=ORIENTED_EDGE('',*,*,#843,.T.) ;
#977=ORIENTED_EDGE('',*,*,#972,.F.) ;
#991=ORIENTED_EDGE('',*,*,#155,.F.) ;
#992=ORIENTED_EDGE('',*,*,#972,.T.) ;
#993=ORIENTED_EDGE('',*,*,#836,.T.) ;
#994=ORIENTED_EDGE('',*,*,#989,.F.) ;
#1069=ORIENTED_EDGE('',*,*,#1006,.T.) ;
#1070=ORIENTED_EDGE('',*,*,#1015,.T.) ;
#1071=ORIENTED_EDGE('',*,*,#1024,.T.) ;
#1072=ORIENTED_EDGE('',*,*,#1033,.T.) ;
#1073=ORIENTED_EDGE('',*,*,#1042,.T.) ;
#1074=ORIENTED_EDGE('',*,*,#1051,.T.) ;
#1075=ORIENTED_EDGE('',*,*,#1060,.T.) ;
#1076=ORIENTED_EDGE('',*,*,#1067,.T.) ;
#1090=ORIENTED_EDGE('',*,*,#162,.T.) ;
#1091=ORIENTED_EDGE('',*,*,#989,.T.) ;
#1092=ORIENTED_EDGE('',*,*,#829,.T.) ;
#1093=ORIENTED_EDGE('',*,*,#1088,.F.) ;
#1107=ORIENTED_EDGE('',*,*,#169,.F.) ;
#1108=ORIENTED_EDGE('',*,*,#1088,.T.) ;
#1109=ORIENTED_EDGE('',*,*,#822,.T.) ;
#1110=ORIENTED_EDGE('',*,*,#1105,.F.) ;
#1124=ORIENTED_EDGE('',*,*,#1122,.F.) ;
#1125=ORIENTED_EDGE('',*,*,#176,.F.) ;
#1126=ORIENTED_EDGE('',*,*,#1105,.T.) ;
#1127=ORIENTED_EDGE('',*,*,#815,.T.) ;
#1141=ORIENTED_EDGE('',*,*,#1139,.T.) ;
#1142=ORIENTED_EDGE('',*,*,#192,.T.) ;
#1143=ORIENTED_EDGE('',*,*,#1122,.T.) ;
#1144=ORIENTED_EDGE('',*,*,#808,.T.) ;
#1158=ORIENTED_EDGE('',*,*,#1139,.F.) ;
#1159=ORIENTED_EDGE('',*,*,#801,.T.) ;
#1160=ORIENTED_EDGE('',*,*,#1156,.T.) ;
#1161=ORIENTED_EDGE('',*,*,#205,.T.) ;
#1175=ORIENTED_EDGE('',*,*,#1156,.F.) ;
#1176=ORIENTED_EDGE('',*,*,#794,.T.) ;
#1177=ORIENTED_EDGE('',*,*,#1173,.F.) ;
#1178=ORIENTED_EDGE('',*,*,#212,.F.) ;
#1192=ORIENTED_EDGE('',*,*,#1190,.T.) ;
#1193=ORIENTED_EDGE('',*,*,#225,.T.) ;
#1194=ORIENTED_EDGE('',*,*,#1173,.T.) ;
#1195=ORIENTED_EDGE('',*,*,#787,.T.) ;
#1209=ORIENTED_EDGE('',*,*,#1190,.F.) ;
#1210=ORIENTED_EDGE('',*,*,#780,.T.) ;
#1211=ORIENTED_EDGE('',*,*,#1207,.T.) ;
#1212=ORIENTED_EDGE('',*,*,#238,.T.) ;
#1226=ORIENTED_EDGE('',*,*,#1207,.F.) ;
#1227=ORIENTED_EDGE('',*,*,#773,.T.) ;
#1228=ORIENTED_EDGE('',*,*,#1224,.F.) ;
#1229=ORIENTED_EDGE('',*,*,#245,.T.) ;
#1243=ORIENTED_EDGE('',*,*,#252,.T.) ;
#1244=ORIENTED_EDGE('',*,*,#1224,.T.) ;
#1245=ORIENTED_EDGE('',*,*,#766,.T.) ;
#1246=ORIENTED_EDGE('',*,*,#1241,.F.) ;
#1260=ORIENTED_EDGE('',*,*,#259,.F.) ;
#1261=ORIENTED_EDGE('',*,*,#1241,.T.) ;
#1262=ORIENTED_EDGE('',*,*,#747,.T.) ;
#1263=ORIENTED_EDGE('',*,*,#1258,.F.) ;
#1277=ORIENTED_EDGE('',*,*,#266,.T.) ;
#1278=ORIENTED_EDGE('',*,*,#1258,.T.) ;
#1279=ORIENTED_EDGE('',*,*,#740,.T.) ;
#1280=ORIENTED_EDGE('',*,*,#1275,.F.) ;
#1294=ORIENTED_EDGE('',*,*,#273,.T.) ;
#1295=ORIENTED_EDGE('',*,*,#1275,.T.) ;
#1296=ORIENTED_EDGE('',*,*,#721,.T.) ;
#1297=ORIENTED_EDGE('',*,*,#1292,.F.) ;
#1311=ORIENTED_EDGE('',*,*,#280,.F.) ;
#1312=ORIENTED_EDGE('',*,*,#1292,.T.) ;
#1313=ORIENTED_EDGE('',*,*,#714,.T.) ;
#1314=ORIENTED_EDGE('',*,*,#1309,.F.) ;
#1328=ORIENTED_EDGE('',*,*,#287,.F.) ;
#1329=ORIENTED_EDGE('',*,*,#1309,.T.) ;
#1330=ORIENTED_EDGE('',*,*,#707,.T.) ;
#1331=ORIENTED_EDGE('',*,*,#1326,.F.) ;
#1345=ORIENTED_EDGE('',*,*,#294,.T.) ;
#1346=ORIENTED_EDGE('',*,*,#1326,.T.) ;
#1347=ORIENTED_EDGE('',*,*,#700,.T.) ;
#1348=ORIENTED_EDGE('',*,*,#1343,.F.) ;
#1362=ORIENTED_EDGE('',*,*,#301,.F.) ;
#1363=ORIENTED_EDGE('',*,*,#1343,.T.) ;
#1364=ORIENTED_EDGE('',*,*,#684,.T.) ;
#1365=ORIENTED_EDGE('',*,*,#1360,.F.) ;
#1396=ORIENTED_EDGE('',*,*,#1375,.T.) ;
#1397=ORIENTED_EDGE('',*,*,#1382,.T.) ;
#1398=ORIENTED_EDGE('',*,*,#1389,.T.) ;
#1399=ORIENTED_EDGE('',*,*,#1394,.T.) ;
#1413=ORIENTED_EDGE('',*,*,#308,.T.) ;
#1414=ORIENTED_EDGE('',*,*,#1360,.T.) ;
#1415=ORIENTED_EDGE('',*,*,#677,.T.) ;
#1416=ORIENTED_EDGE('',*,*,#1411,.F.) ;
#1430=ORIENTED_EDGE('',*,*,#315,.F.) ;
#1431=ORIENTED_EDGE('',*,*,#1411,.T.) ;
#1432=ORIENTED_EDGE('',*,*,#661,.T.) ;
#1433=ORIENTED_EDGE('',*,*,#1428,.F.) ;
#1447=ORIENTED_EDGE('',*,*,#322,.F.) ;
#1448=ORIENTED_EDGE('',*,*,#1428,.T.) ;
#1449=ORIENTED_EDGE('',*,*,#654,.T.) ;
#1450=ORIENTED_EDGE('',*,*,#1445,.F.) ;
#1464=ORIENTED_EDGE('',*,*,#329,.T.) ;
#1465=ORIENTED_EDGE('',*,*,#1445,.T.) ;
#1466=ORIENTED_EDGE('',*,*,#647,.T.) ;
#1467=ORIENTED_EDGE('',*,*,#1462,.F.) ;
#1481=ORIENTED_EDGE('',*,*,#336,.T.) ;
#1482=ORIENTED_EDGE('',*,*,#1462,.T.) ;
#1483=ORIENTED_EDGE('',*,*,#640,.T.) ;
#1484=ORIENTED_EDGE('',*,*,#1479,.F.) ;
#1498=ORIENTED_EDGE('',*,*,#343,.F.) ;
#1499=ORIENTED_EDGE('',*,*,#1479,.T.) ;
#1500=ORIENTED_EDGE('',*,*,#621,.T.) ;
#1501=ORIENTED_EDGE('',*,*,#1496,.F.) ;
#1515=ORIENTED_EDGE('',*,*,#350,.T.) ;
#1516=ORIENTED_EDGE('',*,*,#1496,.T.) ;
#1517=ORIENTED_EDGE('',*,*,#614,.T.) ;
#1518=ORIENTED_EDGE('',*,*,#1513,.F.) ;
#1532=ORIENTED_EDGE('',*,*,#1530,.F.) ;
#1533=ORIENTED_EDGE('',*,*,#357,.T.) ;
#1534=ORIENTED_EDGE('',*,*,#1513,.T.) ;
#1535=ORIENTED_EDGE('',*,*,#595,.T.) ;
#1549=ORIENTED_EDGE('',*,*,#1547,.T.) ;
#1550=ORIENTED_EDGE('',*,*,#370,.T.) ;
#1551=ORIENTED_EDGE('',*,*,#1530,.T.) ;
#1552=ORIENTED_EDGE('',*,*,#588,.T.) ;
#1561=ORIENTED_EDGE('',*,*,#1547,.F.) ;
#1562=ORIENTED_EDGE('',*,*,#581,.T.) ;
#1563=ORIENTED_EDGE('',*,*,#557,.T.) ;
#1564=ORIENTED_EDGE('',*,*,#383,.T.) ;
#1583=ORIENTED_EDGE('',*,*,#454,.F.) ;
#1584=ORIENTED_EDGE('',*,*,#1576,.F.) ;
#1585=ORIENTED_EDGE('',*,*,#905,.F.) ;
#1586=ORIENTED_EDGE('',*,*,#1581,.F.) ;
#1595=ORIENTED_EDGE('',*,*,#900,.F.) ;
#1596=ORIENTED_EDGE('',*,*,#1576,.T.) ;
#1597=ORIENTED_EDGE('',*,*,#480,.F.) ;
#1598=ORIENTED_EDGE('',*,*,#1581,.T.) ;
#1617=ORIENTED_EDGE('',*,*,#514,.F.) ;
#1618=ORIENTED_EDGE('',*,*,#1610,.F.) ;
#1619=ORIENTED_EDGE('',*,*,#923,.F.) ;
#1620=ORIENTED_EDGE('',*,*,#1615,.F.) ;
#1629=ORIENTED_EDGE('',*,*,#918,.F.) ;
#1630=ORIENTED_EDGE('',*,*,#1610,.T.) ;
#1631=ORIENTED_EDGE('',*,*,#540,.F.) ;
#1632=ORIENTED_EDGE('',*,*,#1615,.T.) ;
#1651=ORIENTED_EDGE('',*,*,#1033,.F.) ;
#1652=ORIENTED_EDGE('',*,*,#1024,.F.) ;
#1653=ORIENTED_EDGE('',*,*,#1015,.F.) ;
#1654=ORIENTED_EDGE('',*,*,#1006,.F.) ;
#1655=ORIENTED_EDGE('',*,*,#1644,.T.) ;
#1656=ORIENTED_EDGE('',*,*,#1394,.F.) ;
#1657=ORIENTED_EDGE('',*,*,#1389,.F.) ;
#1658=ORIENTED_EDGE('',*,*,#1649,.T.) ;
#1667=ORIENTED_EDGE('',*,*,#1382,.F.) ;
#1668=ORIENTED_EDGE('',*,*,#1375,.F.) ;
#1669=ORIENTED_EDGE('',*,*,#1644,.F.) ;
#1670=ORIENTED_EDGE('',*,*,#1067,.F.) ;
#1671=ORIENTED_EDGE('',*,*,#1060,.F.) ;
#1672=ORIENTED_EDGE('',*,*,#1051,.F.) ;
#1673=ORIENTED_EDGE('',*,*,#1042,.F.) ;
#1674=ORIENTED_EDGE('',*,*,#1649,.F.) ;
#484=FACE_BOUND('',#481,.T.) ;
#544=FACE_BOUND('',#541,.T.) ;
#909=FACE_BOUND('',#906,.T.) ;
#927=FACE_BOUND('',#924,.T.) ;
#1077=FACE_BOUND('',#1068,.T.) ;
#1400=FACE_BOUND('',#1395,.T.) ;
#51=CLOSED_SHELL('Closed Shell',(#91,#122,#545,#569,#928,#945,#962,#979,#1078,#1095,#1112,#1129,#1146,#1163,#1180,#1197,#1214,#1231,#1248,#1265,#1282,#1299,#1316,#1333,#1350,#1401,#1418,#1435,#1452,#1469,#1486,#1503,#1520,#1537,#1554,#1566,#1588,#1600,#1622,#1634,#1660,#1676)) ;
#59=VECTOR('Line Direction',#58,1.) ;
#75=VECTOR('Line Direction',#74,1.) ;
#106=VECTOR('Line Direction',#105,1.) ;
#130=VECTOR('Line Direction',#129,1.) ;
#144=VECTOR('Line Direction',#143,1.) ;
#158=VECTOR('Line Direction',#157,1.) ;
#172=VECTOR('Line Direction',#171,1.) ;
#208=VECTOR('Line Direction',#207,1.) ;
#241=VECTOR('Line Direction',#240,1.) ;
#255=VECTOR('Line Direction',#254,1.) ;
#269=VECTOR('Line Direction',#268,1.) ;
#283=VECTOR('Line Direction',#282,1.) ;
#297=VECTOR('Line Direction',#296,1.) ;
#311=VECTOR('Line Direction',#310,1.) ;
#325=VECTOR('Line Direction',#324,1.) ;
#339=VECTOR('Line Direction',#338,1.) ;
#353=VECTOR('Line Direction',#352,1.) ;
#386=VECTOR('Line Direction',#385,1.) ;
#553=VECTOR('Line Direction',#552,1.) ;
#560=VECTOR('Line Direction',#559,1.) ;
#591=VECTOR('Line Direction',#590,1.) ;
#617=VECTOR('Line Direction',#616,1.) ;
#643=VECTOR('Line Direction',#642,1.) ;
#657=VECTOR('Line Direction',#656,1.) ;
#680=VECTOR('Line Direction',#679,1.) ;
#703=VECTOR('Line Direction',#702,1.) ;
#717=VECTOR('Line Direction',#716,1.) ;
#743=VECTOR('Line Direction',#742,1.) ;
#769=VECTOR('Line Direction',#768,1.) ;
#790=VECTOR('Line Direction',#789,1.) ;
#811=VECTOR('Line Direction',#810,1.) ;
#825=VECTOR('Line Direction',#824,1.) ;
#839=VECTOR('Line Direction',#838,1.) ;
#853=VECTOR('Line Direction',#852,1.) ;
#936=VECTOR('Line Direction',#935,1.) ;
#953=VECTOR('Line Direction',#952,1.) ;
#970=VECTOR('Line Direction',#969,1.) ;
#987=VECTOR('Line Direction',#986,1.) ;
#1086=VECTOR('Line Direction',#1085,1.) ;
#1103=VECTOR('Line Direction',#1102,1.) ;
#1120=VECTOR('Line Direction',#1119,1.) ;
#1137=VECTOR('Line Direction',#1136,1.) ;
#1154=VECTOR('Line Direction',#1153,1.) ;
#1171=VECTOR('Line Direction',#1170,1.) ;
#1188=VECTOR('Line Direction',#1187,1.) ;
#1205=VECTOR('Line Direction',#1204,1.) ;
#1222=VECTOR('Line Direction',#1221,1.) ;
#1239=VECTOR('Line Direction',#1238,1.) ;
#1256=VECTOR('Line Direction',#1255,1.) ;
#1273=VECTOR('Line Direction',#1272,1.) ;
#1290=VECTOR('Line Direction',#1289,1.) ;
#1307=VECTOR('Line Direction',#1306,1.) ;
#1324=VECTOR('Line Direction',#1323,1.) ;
#1341=VECTOR('Line Direction',#1340,1.) ;
#1358=VECTOR('Line Direction',#1357,1.) ;
#1409=VECTOR('Line Direction',#1408,1.) ;
#1426=VECTOR('Line Direction',#1425,1.) ;
#1443=VECTOR('Line Direction',#1442,1.) ;
#1460=VECTOR('Line Direction',#1459,1.) ;
#1477=VECTOR('Line Direction',#1476,1.) ;
#1494=VECTOR('Line Direction',#1493,1.) ;
#1511=VECTOR('Line Direction',#1510,1.) ;
#1528=VECTOR('Line Direction',#1527,1.) ;
#1545=VECTOR('Line Direction',#1544,1.) ;
#1574=VECTOR('Line Direction',#1573,1.) ;
#1579=VECTOR('Line Direction',#1578,1.) ;
#1608=VECTOR('Line Direction',#1607,1.) ;
#1613=VECTOR('Line Direction',#1612,1.) ;
#1642=VECTOR('Line Direction',#1641,1.) ;
#1647=VECTOR('Line Direction',#1646,1.) ;
#1678=ADVANCED_BREP_SHAPE_REPRESENTATION('NONE',(#1677),#46) ;
#49=SHAPE_REPRESENTATION(' ',(#48),#46) ;
#91=ADVANCED_FACE('Corps1',(#90),#56,.T.) ;
#122=ADVANCED_FACE('Corps1',(#121),#96,.T.) ;
#545=ADVANCED_FACE('Corps1',(#424,#484,#544),#127,.T.) ;
#569=ADVANCED_FACE('Corps1',(#568),#550,.F.) ;
#928=ADVANCED_FACE('Corps1',(#891,#909,#927),#574,.F.) ;
#945=ADVANCED_FACE('Corps1',(#944),#933,.F.) ;
#962=ADVANCED_FACE('Corps1',(#961),#950,.T.) ;
#979=ADVANCED_FACE('Corps1',(#978),#967,.F.) ;
#1078=ADVANCED_FACE('Corps1',(#995,#1077),#984,.T.) ;
#1095=ADVANCED_FACE('Corps1',(#1094),#1083,.F.) ;
#1112=ADVANCED_FACE('Corps1',(#1111),#1100,.T.) ;
#1129=ADVANCED_FACE('Corps1',(#1128),#1117,.F.) ;
#1146=ADVANCED_FACE('Corps1',(#1145),#1134,.T.) ;
#1163=ADVANCED_FACE('Corps1',(#1162),#1151,.T.) ;
#1180=ADVANCED_FACE('Corps1',(#1179),#1168,.F.) ;
#1197=ADVANCED_FACE('Corps1',(#1196),#1185,.T.) ;
#1214=ADVANCED_FACE('Corps1',(#1213),#1202,.T.) ;
#1231=ADVANCED_FACE('Corps1',(#1230),#1219,.F.) ;
#1248=ADVANCED_FACE('Corps1',(#1247),#1236,.F.) ;
#1265=ADVANCED_FACE('Corps1',(#1264),#1253,.F.) ;
#1282=ADVANCED_FACE('Corps1',(#1281),#1270,.F.) ;
#1299=ADVANCED_FACE('Corps1',(#1298),#1287,.F.) ;
#1316=ADVANCED_FACE('Corps1',(#1315),#1304,.T.) ;
#1333=ADVANCED_FACE('Corps1',(#1332),#1321,.F.) ;
#1350=ADVANCED_FACE('Corps1',(#1349),#1338,.F.) ;
#1401=ADVANCED_FACE('Corps1',(#1366,#1400),#1355,.F.) ;
#1418=ADVANCED_FACE('Corps1',(#1417),#1406,.F.) ;
#1435=ADVANCED_FACE('Corps1',(#1434),#1423,.F.) ;
#1452=ADVANCED_FACE('Corps1',(#1451),#1440,.T.) ;
#1469=ADVANCED_FACE('Corps1',(#1468),#1457,.F.) ;
#1486=ADVANCED_FACE('Corps1',(#1485),#1474,.F.) ;
#1503=ADVANCED_FACE('Corps1',(#1502),#1491,.F.) ;
#1520=ADVANCED_FACE('Corps1',(#1519),#1508,.F.) ;
#1537=ADVANCED_FACE('Corps1',(#1536),#1525,.F.) ;
#1554=ADVANCED_FACE('Corps1',(#1553),#1542,.T.) ;
#1566=ADVANCED_FACE('Corps1',(#1565),#1559,.T.) ;
#1588=ADVANCED_FACE('Corps1',(#1587),#1571,.F.) ;
#1600=ADVANCED_FACE('Corps1',(#1599),#1593,.F.) ;
#1622=ADVANCED_FACE('Corps1',(#1621),#1605,.F.) ;
#1634=ADVANCED_FACE('Corps1',(#1633),#1627,.F.) ;
#1660=ADVANCED_FACE('Corps1',(#1659),#1639,.F.) ;
#1676=ADVANCED_FACE('Corps1',(#1675),#1665,.F.) ;
#4=APPLICATION_PROTOCOL_DEFINITION('international standard','config_control_design',1994,#1) ;
#32=APPROVAL_DATE_TIME(#13,#21) ;
#177=B_SPLINE_CURVE_WITH_KNOTS('',5,(#178,#179,#180,#181,#182,#183,#184,#185,#186,#187,#188,#189),.UNSPECIFIED.,.F.,.U.,(6,3,3,6),(0.833006397179,0.979758359984,1.46963754898,1.66570976912),.UNSPECIFIED.) ;
#193=B_SPLINE_CURVE_WITH_KNOTS('',5,(#194,#195,#196,#197,#198,#199,#200,#201,#202),.UNSPECIFIED.,.F.,.U.,(6,3,6),(0.,0.489879177091,0.833006397179),.UNSPECIFIED.) ;
#213=B_SPLINE_CURVE_WITH_KNOTS('',5,(#214,#215,#216,#217,#218,#219,#220,#221,#222),.UNSPECIFIED.,.F.,.U.,(6,3,6),(0.555347612789,0.888552732236,1.11024114653),.UNSPECIFIED.) ;
#226=B_SPLINE_CURVE_WITH_KNOTS('',5,(#227,#228,#229,#230,#231,#232,#233,#234,#235),.UNSPECIFIED.,.F.,.U.,(6,3,6),(0.,0.444276362232,0.555347612789),.UNSPECIFIED.) ;
#358=B_SPLINE_CURVE_WITH_KNOTS('',5,(#359,#360,#361,#362,#363,#364,#365,#366,#367),.UNSPECIFIED.,.F.,.U.,(6,3,6),(0.555347630596,0.888552775846,1.11024118884),.UNSPECIFIED.) ;
#371=B_SPLINE_CURVE_WITH_KNOTS('',5,(#372,#373,#374,#375,#376,#377,#378,#379,#380),.UNSPECIFIED.,.F.,.U.,(6,3,6),(0.,0.444276378527,0.555347630596),.UNSPECIFIED.) ;
#425=B_SPLINE_CURVE_WITH_KNOTS('',5,(#426,#427,#428,#429,#430,#431,#432,#433,#434,#435,#436,#437,#438,#439,#440,#441,#442,#443,#444,#445,#446,#447,#448,#449),.UNSPECIFIED.,.F.,.U.,(6,3,3,3,3,3,3,6),(0.,1.46967439326,2.93934879018,4.4090231935,5.87869760307,7.34837199905,8.81804639218,8.88564838907),.UNSPECIFIED.) ;
#455=B_SPLINE_CURVE_WITH_KNOTS('',5,(#456,#457,#458,#459,#460,#461,#462,#463,#464,#465,#466,#467,#468,#469,#470,#471,#472,#473,#474,#475,#476,#477,#478,#479),.UNSPECIFIED.,.F.,.U.,(6,3,3,3,3,3,3,6),(0.,1.46967441616,2.93934882932,4.40902323073,5.8786976398,7.34837205592,8.81804645123,8.88564844944),.UNSPECIFIED.) ;
#485=B_SPLINE_CURVE_WITH_KNOTS('',5,(#486,#487,#488,#489,#490,#491,#492,#493,#494,#495,#496,#497,#498,#499,#500,#501,#502,#503,#504,#505,#506,#507,#508,#509),.UNSPECIFIED.,.F.,.U.,(6,3,3,3,3,3,3,6),(0.,1.46967441648,2.93934883049,4.40902323309,5.87869764332,7.34837204108,8.81804643675,8.88564843364),.UNSPECIFIED.) ;
#515=B_SPLINE_CURVE_WITH_KNOTS('',5,(#516,#517,#518,#519,#520,#521,#522,#523,#524,#525,#526,#527,#528,#529,#530,#531,#532,#533,#534,#535,#536,#537,#538,#539),.UNSPECIFIED.,.F.,.U.,(6,3,3,3,3,3,3,6),(0.,1.46967439295,2.93934878902,4.40902319119,5.87869759961,7.3483720139,8.81804640667,8.88564840487),.UNSPECIFIED.) ;
#596=B_SPLINE_CURVE_WITH_KNOTS('',5,(#597,#598,#599,#600,#601,#602,#603,#604,#605,#606,#607,#608,#609,#610,#611),.UNSPECIFIED.,.F.,.U.,(6,3,3,3,6),(0.,0.692813044219,1.38562607604,2.07843909578,2.2213891551),.UNSPECIFIED.) ;
#622=B_SPLINE_CURVE_WITH_KNOTS('',5,(#623,#624,#625,#626,#627,#628,#629,#630,#631,#632,#633,#634,#635,#636,#637),.UNSPECIFIED.,.F.,.U.,(6,3,3,3,6),(0.,0.692813011614,1.38562602289,2.07843903893,2.22138909825),.UNSPECIFIED.) ;
#662=B_SPLINE_CURVE_WITH_KNOTS('',5,(#663,#664,#665,#666,#667,#668,#669,#670,#671,#672,#673,#674),.UNSPECIFIED.,.F.,.U.,(6,3,3,6),(0.,1.27276332214,2.54552664904,3.33210165921),.UNSPECIFIED.) ;
#685=B_SPLINE_CURVE_WITH_KNOTS('',5,(#686,#687,#688,#689,#690,#691,#692,#693,#694,#695,#696,#697),.UNSPECIFIED.,.F.,.U.,(6,3,3,6),(0.,1.27276332109,2.5455266483,3.33210163061),.UNSPECIFIED.) ;
#722=B_SPLINE_CURVE_WITH_KNOTS('',5,(#723,#724,#725,#726,#727,#728,#729,#730,#731,#732,#733,#734,#735,#736,#737),.UNSPECIFIED.,.F.,.U.,(6,3,3,3,6),(0.,0.692813038078,1.38562607105,2.07843911878,2.22138917816),.UNSPECIFIED.) ;
#748=B_SPLINE_CURVE_WITH_KNOTS('',5,(#749,#750,#751,#752,#753,#754,#755,#756,#757,#758,#759,#760,#761,#762,#763),.UNSPECIFIED.,.F.,.U.,(6,3,3,3,6),(0.,0.692813037993,1.38562606958,2.07843909512,2.22138915444),.UNSPECIFIED.) ;
#996=B_SPLINE_CURVE_WITH_KNOTS('',4,(#997,#998,#999,#1000,#1001),.UNSPECIFIED.,.F.,.U.,(5,5),(0.,1.10921339106),.UNSPECIFIED.) ;
#1007=B_SPLINE_CURVE_WITH_KNOTS('',4,(#1008,#1009,#1010,#1011,#1012),.UNSPECIFIED.,.F.,.U.,(5,5),(0.,1.10921131583),.UNSPECIFIED.) ;
#1016=B_SPLINE_CURVE_WITH_KNOTS('',4,(#1017,#1018,#1019,#1020,#1021),.UNSPECIFIED.,.F.,.U.,(5,5),(0.,1.10921254541),.UNSPECIFIED.) ;
#1025=B_SPLINE_CURVE_WITH_KNOTS('',4,(#1026,#1027,#1028,#1029,#1030),.UNSPECIFIED.,.F.,.U.,(5,5),(0.,1.1092123627),.UNSPECIFIED.) ;
#1034=B_SPLINE_CURVE_WITH_KNOTS('',4,(#1035,#1036,#1037,#1038,#1039),.UNSPECIFIED.,.F.,.U.,(5,5),(0.,1.10921339107),.UNSPECIFIED.) ;
#1043=B_SPLINE_CURVE_WITH_KNOTS('',4,(#1044,#1045,#1046,#1047,#1048),.UNSPECIFIED.,.F.,.U.,(5,5),(0.,1.10921131587),.UNSPECIFIED.) ;
#1052=B_SPLINE_CURVE_WITH_KNOTS('',4,(#1053,#1054,#1055,#1056,#1057),.UNSPECIFIED.,.F.,.U.,(5,5),(0.,1.1092125454),.UNSPECIFIED.) ;
#1061=B_SPLINE_CURVE_WITH_KNOTS('',4,(#1062,#1063,#1064,#1065,#1066),.UNSPECIFIED.,.F.,.U.,(5,5),(0.,1.1092123627),.UNSPECIFIED.) ;
#1677=MANIFOLD_SOLID_BREP('Corps1',#51) ;
#11=CALENDAR_DATE(2026,30,1) ;
#30=CC_DESIGN_APPROVAL(#21,(#16,#6,#14)) ;
#18=CC_DESIGN_DATE_AND_TIME_ASSIGNMENT(#13,#17,(#16)) ;
#29=CC_DESIGN_DATE_AND_TIME_ASSIGNMENT(#13,#28,(#14)) ;
#17=DATE_TIME_ROLE('classification_date') ;
#28=DATE_TIME_ROLE('creation_date') ;
#27=CC_DESIGN_PERSON_AND_ORGANIZATION_ASSIGNMENT(#25,#26,(#16)) ;
#33=CC_DESIGN_PERSON_AND_ORGANIZATION_ASSIGNMENT(#25,#34,(#6)) ;
#35=CC_DESIGN_PERSON_AND_ORGANIZATION_ASSIGNMENT(#25,#36,(#6,#14)) ;
#37=CC_DESIGN_PERSON_AND_ORGANIZATION_ASSIGNMENT(#25,#38,(#5)) ;
#26=PERSON_AND_ORGANIZATION_ROLE('classification_officer') ;
#34=PERSON_AND_ORGANIZATION_ROLE('design_supplier') ;
#36=PERSON_AND_ORGANIZATION_ROLE('creator') ;
#38=PERSON_AND_ORGANIZATION_ROLE('design_owner') ;
#39=CC_DESIGN_SECURITY_CLASSIFICATION(#16,(#6)) ;
#69=CIRCLE('generated circle',#68,0.5) ;
#83=CIRCLE('generated circle',#82,0.5) ;
#100=CIRCLE('generated circle',#99,0.5) ;
#114=CIRCLE('generated circle',#113,0.5) ;
#138=CIRCLE('generated circle',#137,3.99999999897) ;
#152=CIRCLE('generated circle',#151,49.9999999994) ;
#166=CIRCLE('generated circle',#165,3.99999999897) ;
#249=CIRCLE('generated circle',#248,0.999999996801) ;
#263=CIRCLE('generated circle',#262,0.999999999981) ;
#277=CIRCLE('generated circle',#276,3.49999999834) ;
#291=CIRCLE('generated circle',#290,1.49999999838) ;
#305=CIRCLE('generated circle',#304,1.49999999838) ;
#319=CIRCLE('generated circle',#318,3.49999999834) ;
#333=CIRCLE('generated circle',#332,0.999999999981) ;
#347=CIRCLE('generated circle',#346,0.999999996801) ;
#578=CIRCLE('generated circle',#577,0.50000000158) ;
#585=CIRCLE('generated circle',#584,0.50000000158) ;
#651=CIRCLE('generated circle',#650,3.49999999834) ;
#711=CIRCLE('generated circle',#710,3.49999999834) ;
#777=CIRCLE('generated circle',#776,0.50000000158) ;
#784=CIRCLE('generated circle',#783,0.50000000158) ;
#798=CIRCLE('generated circle',#797,0.500000001472) ;
#805=CIRCLE('generated circle',#804,0.500000001472) ;
#819=CIRCLE('generated circle',#818,3.99999999897) ;
#833=CIRCLE('generated circle',#832,49.9999999994) ;
#847=CIRCLE('generated circle',#846,3.99999999897) ;
#895=CIRCLE('generated circle',#894,2.) ;
#904=CIRCLE('generated circle',#903,2.) ;
#913=CIRCLE('generated circle',#912,2.) ;
#922=CIRCLE('generated circle',#921,2.) ;
#1370=CIRCLE('generated circle',#1369,1.) ;
#1379=CIRCLE('generated circle',#1378,1.) ;
#1386=CIRCLE('generated circle',#1385,1.) ;
#1393=CIRCLE('generated circle',#1392,1.) ;
#1679=SHAPE_REPRESENTATION_RELATIONSHIP(' ',' ',#49,#1678) ;
#56=CYLINDRICAL_SURFACE('generated cylinder',#55,0.5) ;
#96=CYLINDRICAL_SURFACE('generated cylinder',#95,0.5) ;
#950=CYLINDRICAL_SURFACE('generated cylinder',#949,4.) ;
#984=CYLINDRICAL_SURFACE('generated cylinder',#983,50.) ;
#1100=CYLINDRICAL_SURFACE('generated cylinder',#1099,4.) ;
#1134=CYLINDRICAL_SURFACE('generated cylinder',#1133,0.5) ;
#1151=CYLINDRICAL_SURFACE('generated cylinder',#1150,0.5) ;
#1185=CYLINDRICAL_SURFACE('generated cylinder',#1184,0.5) ;
#1202=CYLINDRICAL_SURFACE('generated cylinder',#1201,0.5) ;
#1236=CYLINDRICAL_SURFACE('generated cylinder',#1235,1.) ;
#1270=CYLINDRICAL_SURFACE('generated cylinder',#1269,1.) ;
#1304=CYLINDRICAL_SURFACE('generated cylinder',#1303,3.5) ;
#1338=CYLINDRICAL_SURFACE('generated cylinder',#1337,1.5) ;
#1406=CYLINDRICAL_SURFACE('generated cylinder',#1405,1.5) ;
#1440=CYLINDRICAL_SURFACE('generated cylinder',#1439,3.5) ;
#1474=CYLINDRICAL_SURFACE('generated cylinder',#1473,1.) ;
#1508=CYLINDRICAL_SURFACE('generated cylinder',#1507,1.) ;
#1542=CYLINDRICAL_SURFACE('generated cylinder',#1541,0.5) ;
#1559=CYLINDRICAL_SURFACE('generated cylinder',#1558,0.5) ;
#1571=CYLINDRICAL_SURFACE('generated cylinder',#1570,2.) ;
#1593=CYLINDRICAL_SURFACE('generated cylinder',#1592,2.) ;
#1605=CYLINDRICAL_SURFACE('generated cylinder',#1604,2.) ;
#1627=CYLINDRICAL_SURFACE('generated cylinder',#1626,2.) ;
#1639=CYLINDRICAL_SURFACE('generated cylinder',#1638,1.) ;
#1665=CYLINDRICAL_SURFACE('generated cylinder',#1664,1.) ;
#3=DESIGN_CONTEXT(' ',#1,'design') ;
#65=EDGE_CURVE('',#62,#64,#60,.F.) ;
#72=EDGE_CURVE('',#64,#71,#69,.T.) ;
#79=EDGE_CURVE('',#71,#78,#76,.T.) ;
#84=EDGE_CURVE('',#78,#62,#83,.F.) ;
#103=EDGE_CURVE('',#62,#102,#100,.F.) ;
#110=EDGE_CURVE('',#102,#109,#107,.F.) ;
#115=EDGE_CURVE('',#109,#64,#114,.T.) ;
#134=EDGE_CURVE('',#109,#133,#131,.T.) ;
#141=EDGE_CURVE('',#133,#140,#138,.T.) ;
#148=EDGE_CURVE('',#147,#140,#145,.T.) ;
#155=EDGE_CURVE('',#147,#154,#152,.T.) ;
#162=EDGE_CURVE('',#161,#154,#159,.T.) ;
#169=EDGE_CURVE('',#161,#168,#166,.T.) ;
#176=EDGE_CURVE('',#168,#175,#173,.T.) ;
#192=EDGE_CURVE('',#191,#175,#177,.T.) ;
#205=EDGE_CURVE('',#204,#191,#193,.T.) ;
#212=EDGE_CURVE('',#204,#211,#209,.T.) ;
#225=EDGE_CURVE('',#224,#211,#213,.T.) ;
#238=EDGE_CURVE('',#237,#224,#226,.T.) ;
#245=EDGE_CURVE('',#244,#237,#242,.T.) ;
#252=EDGE_CURVE('',#251,#244,#249,.T.) ;
#259=EDGE_CURVE('',#251,#258,#256,.T.) ;
#266=EDGE_CURVE('',#265,#258,#263,.T.) ;
#273=EDGE_CURVE('',#272,#265,#270,.T.) ;
#280=EDGE_CURVE('',#272,#279,#277,.T.) ;
#287=EDGE_CURVE('',#279,#286,#284,.T.) ;
#294=EDGE_CURVE('',#293,#286,#291,.T.) ;
#301=EDGE_CURVE('',#293,#300,#298,.T.) ;
#308=EDGE_CURVE('',#307,#300,#305,.T.) ;
#315=EDGE_CURVE('',#307,#314,#312,.T.) ;
#322=EDGE_CURVE('',#314,#321,#319,.T.) ;
#329=EDGE_CURVE('',#328,#321,#326,.T.) ;
#336=EDGE_CURVE('',#335,#328,#333,.T.) ;
#343=EDGE_CURVE('',#335,#342,#340,.T.) ;
#350=EDGE_CURVE('',#349,#342,#347,.T.) ;
#357=EDGE_CURVE('',#356,#349,#354,.T.) ;
#370=EDGE_CURVE('',#369,#356,#358,.T.) ;
#383=EDGE_CURVE('',#382,#369,#371,.T.) ;
#388=EDGE_CURVE('',#382,#71,#387,.T.) ;
#454=EDGE_CURVE('',#451,#453,#425,.T.) ;
#480=EDGE_CURVE('',#453,#451,#455,.T.) ;
#514=EDGE_CURVE('',#511,#513,#485,.T.) ;
#540=EDGE_CURVE('',#513,#511,#515,.T.) ;
#557=EDGE_CURVE('',#556,#382,#554,.T.) ;
#562=EDGE_CURVE('',#556,#78,#561,.T.) ;
#581=EDGE_CURVE('',#580,#556,#578,.T.) ;
#588=EDGE_CURVE('',#587,#580,#585,.T.) ;
#595=EDGE_CURVE('',#594,#587,#592,.T.) ;
#614=EDGE_CURVE('',#613,#594,#596,.T.) ;
#621=EDGE_CURVE('',#620,#613,#618,.T.) ;
#640=EDGE_CURVE('',#639,#620,#622,.T.) ;
#647=EDGE_CURVE('',#646,#639,#644,.T.) ;
#654=EDGE_CURVE('',#653,#646,#651,.T.) ;
#661=EDGE_CURVE('',#660,#653,#658,.T.) ;
#677=EDGE_CURVE('',#676,#660,#662,.T.) ;
#684=EDGE_CURVE('',#683,#676,#681,.T.) ;
#700=EDGE_CURVE('',#699,#683,#685,.T.) ;
#707=EDGE_CURVE('',#706,#699,#704,.T.) ;
#714=EDGE_CURVE('',#713,#706,#711,.T.) ;
#721=EDGE_CURVE('',#720,#713,#718,.T.) ;
#740=EDGE_CURVE('',#739,#720,#722,.T.) ;
#747=EDGE_CURVE('',#746,#739,#744,.T.) ;
#766=EDGE_CURVE('',#765,#746,#748,.T.) ;
#773=EDGE_CURVE('',#772,#765,#770,.T.) ;
#780=EDGE_CURVE('',#779,#772,#777,.T.) ;
#787=EDGE_CURVE('',#786,#779,#784,.T.) ;
#794=EDGE_CURVE('',#793,#786,#791,.T.) ;
#801=EDGE_CURVE('',#800,#793,#798,.T.) ;
#808=EDGE_CURVE('',#807,#800,#805,.T.) ;
#815=EDGE_CURVE('',#814,#807,#812,.T.) ;
#822=EDGE_CURVE('',#821,#814,#819,.T.) ;
#829=EDGE_CURVE('',#828,#821,#826,.T.) ;
#836=EDGE_CURVE('',#835,#828,#833,.T.) ;
#843=EDGE_CURVE('',#842,#835,#840,.T.) ;
#850=EDGE_CURVE('',#849,#842,#847,.T.) ;
#855=EDGE_CURVE('',#102,#849,#854,.T.) ;
#900=EDGE_CURVE('',#897,#899,#895,.T.) ;
#905=EDGE_CURVE('',#899,#897,#904,.T.) ;
#918=EDGE_CURVE('',#915,#917,#913,.T.) ;
#923=EDGE_CURVE('',#917,#915,#922,.T.) ;
#938=EDGE_CURVE('',#133,#849,#937,.T.) ;
#955=EDGE_CURVE('',#140,#842,#954,.F.) ;
#972=EDGE_CURVE('',#147,#835,#971,.T.) ;
#989=EDGE_CURVE('',#154,#828,#988,.F.) ;
#1006=EDGE_CURVE('',#1003,#1005,#996,.T.) ;
#1015=EDGE_CURVE('',#1005,#1014,#1007,.T.) ;
#1024=EDGE_CURVE('',#1014,#1023,#1016,.T.) ;
#1033=EDGE_CURVE('',#1023,#1032,#1025,.T.) ;
#1042=EDGE_CURVE('',#1032,#1041,#1034,.T.) ;
#1051=EDGE_CURVE('',#1041,#1050,#1043,.T.) ;
#1060=EDGE_CURVE('',#1050,#1059,#1052,.T.) ;
#1067=EDGE_CURVE('',#1059,#1003,#1061,.T.) ;
#1088=EDGE_CURVE('',#161,#821,#1087,.T.) ;
#1105=EDGE_CURVE('',#168,#814,#1104,.F.) ;
#1122=EDGE_CURVE('',#175,#807,#1121,.T.) ;
#1139=EDGE_CURVE('',#800,#191,#1138,.F.) ;
#1156=EDGE_CURVE('',#793,#204,#1155,.F.) ;
#1173=EDGE_CURVE('',#211,#786,#1172,.T.) ;
#1190=EDGE_CURVE('',#779,#224,#1189,.F.) ;
#1207=EDGE_CURVE('',#772,#237,#1206,.F.) ;
#1224=EDGE_CURVE('',#244,#765,#1223,.T.) ;
#1241=EDGE_CURVE('',#251,#746,#1240,.F.) ;
#1258=EDGE_CURVE('',#258,#739,#1257,.T.) ;
#1275=EDGE_CURVE('',#265,#720,#1274,.F.) ;
#1292=EDGE_CURVE('',#272,#713,#1291,.T.) ;
#1309=EDGE_CURVE('',#279,#706,#1308,.F.) ;
#1326=EDGE_CURVE('',#286,#699,#1325,.T.) ;
#1343=EDGE_CURVE('',#293,#683,#1342,.F.) ;
#1360=EDGE_CURVE('',#300,#676,#1359,.T.) ;
#1375=EDGE_CURVE('',#1372,#1374,#1370,.T.) ;
#1382=EDGE_CURVE('',#1374,#1381,#1379,.T.) ;
#1389=EDGE_CURVE('',#1381,#1388,#1386,.T.) ;
#1394=EDGE_CURVE('',#1388,#1372,#1393,.T.) ;
#1411=EDGE_CURVE('',#307,#660,#1410,.F.) ;
#1428=EDGE_CURVE('',#314,#653,#1427,.T.) ;
#1445=EDGE_CURVE('',#321,#646,#1444,.F.) ;
#1462=EDGE_CURVE('',#328,#639,#1461,.T.) ;
#1479=EDGE_CURVE('',#335,#620,#1478,.F.) ;
#1496=EDGE_CURVE('',#342,#613,#1495,.T.) ;
#1513=EDGE_CURVE('',#349,#594,#1512,.F.) ;
#1530=EDGE_CURVE('',#356,#587,#1529,.T.) ;
#1547=EDGE_CURVE('',#580,#369,#1546,.F.) ;
#1576=EDGE_CURVE('',#897,#451,#1575,.T.) ;
#1581=EDGE_CURVE('',#453,#899,#1580,.F.) ;
#1610=EDGE_CURVE('',#915,#511,#1609,.T.) ;
#1615=EDGE_CURVE('',#513,#917,#1614,.F.) ;
#1644=EDGE_CURVE('',#1003,#1372,#1643,.T.) ;
#1649=EDGE_CURVE('',#1381,#1032,#1648,.F.) ;
#85=EDGE_LOOP('',(#86,#87,#88,#89)) ;
#116=EDGE_LOOP('',(#117,#118,#119,#120)) ;
#389=EDGE_LOOP('',(#390,#391,#392,#393,#394,#395,#396,#397,#398,#399,#400,#401,#402,#403,#404,#405,#406,#407,#408,#409,#410,#411,#412,#413,#414,#415,#416,#417,#418,#419,#420,#421,#422,#423)) ;
#481=EDGE_LOOP('',(#482,#483)) ;
#541=EDGE_LOOP('',(#542,#543)) ;
#563=EDGE_LOOP('',(#564,#565,#566,#567)) ;
#856=EDGE_LOOP('',(#857,#858,#859,#860,#861,#862,#863,#864,#865,#866,#867,#868,#869,#870,#871,#872,#873,#874,#875,#876,#877,#878,#879,#880,#881,#882,#883,#884,#885,#886,#887,#888,#889,#890)) ;
#906=EDGE_LOOP('',(#907,#908)) ;
#924=EDGE_LOOP('',(#925,#926)) ;
#939=EDGE_LOOP('',(#940,#941,#942,#943)) ;
#956=EDGE_LOOP('',(#957,#958,#959,#960)) ;
#973=EDGE_LOOP('',(#974,#975,#976,#977)) ;
#990=EDGE_LOOP('',(#991,#992,#993,#994)) ;
#1068=EDGE_LOOP('',(#1069,#1070,#1071,#1072,#1073,#1074,#1075,#1076)) ;
#1089=EDGE_LOOP('',(#1090,#1091,#1092,#1093)) ;
#1106=EDGE_LOOP('',(#1107,#1108,#1109,#1110)) ;
#1123=EDGE_LOOP('',(#1124,#1125,#1126,#1127)) ;
#1140=EDGE_LOOP('',(#1141,#1142,#1143,#1144)) ;
#1157=EDGE_LOOP('',(#1158,#1159,#1160,#1161)) ;
#1174=EDGE_LOOP('',(#1175,#1176,#1177,#1178)) ;
#1191=EDGE_LOOP('',(#1192,#1193,#1194,#1195)) ;
#1208=EDGE_LOOP('',(#1209,#1210,#1211,#1212)) ;
#1225=EDGE_LOOP('',(#1226,#1227,#1228,#1229)) ;
#1242=EDGE_LOOP('',(#1243,#1244,#1245,#1246)) ;
#1259=EDGE_LOOP('',(#1260,#1261,#1262,#1263)) ;
#1276=EDGE_LOOP('',(#1277,#1278,#1279,#1280)) ;
#1293=EDGE_LOOP('',(#1294,#1295,#1296,#1297)) ;
#1310=EDGE_LOOP('',(#1311,#1312,#1313,#1314)) ;
#1327=EDGE_LOOP('',(#1328,#1329,#1330,#1331)) ;
#1344=EDGE_LOOP('',(#1345,#1346,#1347,#1348)) ;
#1361=EDGE_LOOP('',(#1362,#1363,#1364,#1365)) ;
#1395=EDGE_LOOP('',(#1396,#1397,#1398,#1399)) ;
#1412=EDGE_LOOP('',(#1413,#1414,#1415,#1416)) ;
#1429=EDGE_LOOP('',(#1430,#1431,#1432,#1433)) ;
#1446=EDGE_LOOP('',(#1447,#1448,#1449,#1450)) ;
#1463=EDGE_LOOP('',(#1464,#1465,#1466,#1467)) ;
#1480=EDGE_LOOP('',(#1481,#1482,#1483,#1484)) ;
#1497=EDGE_LOOP('',(#1498,#1499,#1500,#1501)) ;
#1514=EDGE_LOOP('',(#1515,#1516,#1517,#1518)) ;
#1531=EDGE_LOOP('',(#1532,#1533,#1534,#1535)) ;
#1548=EDGE_LOOP('',(#1549,#1550,#1551,#1552)) ;
#1560=EDGE_LOOP('',(#1561,#1562,#1563,#1564)) ;
#1582=EDGE_LOOP('',(#1583,#1584,#1585,#1586)) ;
#1594=EDGE_LOOP('',(#1595,#1596,#1597,#1598)) ;
#1616=EDGE_LOOP('',(#1617,#1618,#1619,#1620)) ;
#1628=EDGE_LOOP('',(#1629,#1630,#1631,#1632)) ;
#1650=EDGE_LOOP('',(#1651,#1652,#1653,#1654,#1655,#1656,#1657,#1658)) ;
#1666=EDGE_LOOP('',(#1667,#1668,#1669,#1670,#1671,#1672,#1673,#1674)) ;
#90=FACE_OUTER_BOUND('',#85,.T.) ;
#121=FACE_OUTER_BOUND('',#116,.T.) ;
#424=FACE_OUTER_BOUND('',#389,.T.) ;
#568=FACE_OUTER_BOUND('',#563,.T.) ;
#891=FACE_OUTER_BOUND('',#856,.T.) ;
#944=FACE_OUTER_BOUND('',#939,.T.) ;
#961=FACE_OUTER_BOUND('',#956,.T.) ;
#978=FACE_OUTER_BOUND('',#973,.T.) ;
#995=FACE_OUTER_BOUND('',#990,.T.) ;
#1094=FACE_OUTER_BOUND('',#1089,.T.) ;
#1111=FACE_OUTER_BOUND('',#1106,.T.) ;
#1128=FACE_OUTER_BOUND('',#1123,.T.) ;
#1145=FACE_OUTER_BOUND('',#1140,.T.) ;
#1162=FACE_OUTER_BOUND('',#1157,.T.) ;
#1179=FACE_OUTER_BOUND('',#1174,.T.) ;
#1196=FACE_OUTER_BOUND('',#1191,.T.) ;
#1213=FACE_OUTER_BOUND('',#1208,.T.) ;
#1230=FACE_OUTER_BOUND('',#1225,.T.) ;
#1247=FACE_OUTER_BOUND('',#1242,.T.) ;
#1264=FACE_OUTER_BOUND('',#1259,.T.) ;
#1281=FACE_OUTER_BOUND('',#1276,.T.) ;
#1298=FACE_OUTER_BOUND('',#1293,.T.) ;
#1315=FACE_OUTER_BOUND('',#1310,.T.) ;
#1332=FACE_OUTER_BOUND('',#1327,.T.) ;
#1349=FACE_OUTER_BOUND('',#1344,.T.) ;
#1366=FACE_OUTER_BOUND('',#1361,.T.) ;
#1417=FACE_OUTER_BOUND('',#1412,.T.) ;
#1434=FACE_OUTER_BOUND('',#1429,.T.) ;
#1451=FACE_OUTER_BOUND('',#1446,.T.) ;
#1468=FACE_OUTER_BOUND('',#1463,.T.) ;
#1485=FACE_OUTER_BOUND('',#1480,.T.) ;
#1502=FACE_OUTER_BOUND('',#1497,.T.) ;
#1519=FACE_OUTER_BOUND('',#1514,.T.) ;
#1536=FACE_OUTER_BOUND('',#1531,.T.) ;
#1553=FACE_OUTER_BOUND('',#1548,.T.) ;
#1565=FACE_OUTER_BOUND('',#1560,.T.) ;
#1587=FACE_OUTER_BOUND('',#1582,.T.) ;
#1599=FACE_OUTER_BOUND('',#1594,.T.) ;
#1621=FACE_OUTER_BOUND('',#1616,.T.) ;
#1633=FACE_OUTER_BOUND('',#1628,.T.) ;
#1659=FACE_OUTER_BOUND('',#1650,.T.) ;
#1675=FACE_OUTER_BOUND('',#1666,.T.) ;
#45=UNCERTAINTY_MEASURE_WITH_UNIT(LENGTH_MEASURE(0.005),#41,'distance_accuracy_value','CONFUSED CURVE UNCERTAINTY') ;
#60=LINE('Line',#57,#59) ;
#76=LINE('Line',#73,#75) ;
#107=LINE('Line',#104,#106) ;
#131=LINE('Line',#128,#130) ;
#145=LINE('Line',#142,#144) ;
#159=LINE('Line',#156,#158) ;
#173=LINE('Line',#170,#172) ;
#209=LINE('Line',#206,#208) ;
#242=LINE('Line',#239,#241) ;
#256=LINE('Line',#253,#255) ;
#270=LINE('Line',#267,#269) ;
#284=LINE('Line',#281,#283) ;
#298=LINE('Line',#295,#297) ;
#312=LINE('Line',#309,#311) ;
#326=LINE('Line',#323,#325) ;
#340=LINE('Line',#337,#339) ;
#354=LINE('Line',#351,#353) ;
#387=LINE('Line',#384,#386) ;
#554=LINE('Line',#551,#553) ;
#561=LINE('Line',#558,#560) ;
#592=LINE('Line',#589,#591) ;
#618=LINE('Line',#615,#617) ;
#644=LINE('Line',#641,#643) ;
#658=LINE('Line',#655,#657) ;
#681=LINE('Line',#678,#680) ;
#704=LINE('Line',#701,#703) ;
#718=LINE('Line',#715,#717) ;
#744=LINE('Line',#741,#743) ;
#770=LINE('Line',#767,#769) ;
#791=LINE('Line',#788,#790) ;
#812=LINE('Line',#809,#811) ;
#826=LINE('Line',#823,#825) ;
#840=LINE('Line',#837,#839) ;
#854=LINE('Line',#851,#853) ;
#937=LINE('Line',#934,#936) ;
#954=LINE('Line',#951,#953) ;
#971=LINE('Line',#968,#970) ;
#988=LINE('Line',#985,#987) ;
#1087=LINE('Line',#1084,#1086) ;
#1104=LINE('Line',#1101,#1103) ;
#1121=LINE('Line',#1118,#1120) ;
#1138=LINE('Line',#1135,#1137) ;
#1155=LINE('Line',#1152,#1154) ;
#1172=LINE('Line',#1169,#1171) ;
#1189=LINE('Line',#1186,#1188) ;
#1206=LINE('Line',#1203,#1205) ;
#1223=LINE('Line',#1220,#1222) ;
#1240=LINE('Line',#1237,#1239) ;
#1257=LINE('Line',#1254,#1256) ;
#1274=LINE('Line',#1271,#1273) ;
#1291=LINE('Line',#1288,#1290) ;
#1308=LINE('Line',#1305,#1307) ;
#1325=LINE('Line',#1322,#1324) ;
#1342=LINE('Line',#1339,#1341) ;
#1359=LINE('Line',#1356,#1358) ;
#1410=LINE('Line',#1407,#1409) ;
#1427=LINE('Line',#1424,#1426) ;
#1444=LINE('Line',#1441,#1443) ;
#1461=LINE('Line',#1458,#1460) ;
#1478=LINE('Line',#1475,#1477) ;
#1495=LINE('Line',#1492,#1494) ;
#1512=LINE('Line',#1509,#1511) ;
#1529=LINE('Line',#1526,#1528) ;
#1546=LINE('Line',#1543,#1545) ;
#1575=LINE('Line',#1572,#1574) ;
#1580=LINE('Line',#1577,#1579) ;
#1609=LINE('Line',#1606,#1608) ;
#1614=LINE('Line',#1611,#1613) ;
#1643=LINE('Line',#1640,#1642) ;
#1648=LINE('Line',#1645,#1647) ;
#2=MECHANICAL_CONTEXT(' ',#1,'mechanical') ;
#24=PERSONAL_ADDRESS(' ',' ',' ',' ',' ',' ',' ',' ',' ',' ',' ',' ',(#22),' ') ;
#127=PLANE('Plane',#126) ;
#550=PLANE('Plane',#549) ;
#574=PLANE('Plane',#573) ;
#933=PLANE('Plane',#932) ;
#967=PLANE('Plane',#966) ;
#1083=PLANE('Plane',#1082) ;
#1117=PLANE('Plane',#1116) ;
#1168=PLANE('Plane',#1167) ;
#1219=PLANE('Plane',#1218) ;
#1253=PLANE('Plane',#1252) ;
#1287=PLANE('Plane',#1286) ;
#1321=PLANE('Plane',#1320) ;
#1355=PLANE('Plane',#1354) ;
#1423=PLANE('Plane',#1422) ;
#1457=PLANE('Plane',#1456) ;
#1491=PLANE('Plane',#1490) ;
#1525=PLANE('Plane',#1524) ;
#43=PLANE_ANGLE_MEASURE_WITH_UNIT(PLANE_ANGLE_MEASURE(0.0174532925199),#42) ;
#7=PRODUCT_CATEGORY('part',$) ;
#9=PRODUCT_CATEGORY_RELATIONSHIP(' ',' ',#7,#8) ;
#6=PRODUCT_DEFINITION_FORMATION_WITH_SPECIFIED_SOURCE('',' ',#5,.NOT_KNOWN.) ;
#8=PRODUCT_RELATED_PRODUCT_CATEGORY('detail',$,(#5)) ;
#50=SHAPE_DEFINITION_REPRESENTATION(#40,#49) ;
#62=VERTEX_POINT('',#61) ;
#64=VERTEX_POINT('',#63) ;
#71=VERTEX_POINT('',#70) ;
#78=VERTEX_POINT('',#77) ;
#102=VERTEX_POINT('',#101) ;
#109=VERTEX_POINT('',#108) ;
#133=VERTEX_POINT('',#132) ;
#140=VERTEX_POINT('',#139) ;
#147=VERTEX_POINT('',#146) ;
#154=VERTEX_POINT('',#153) ;
#161=VERTEX_POINT('',#160) ;
#168=VERTEX_POINT('',#167) ;
#175=VERTEX_POINT('',#174) ;
#191=VERTEX_POINT('',#190) ;
#204=VERTEX_POINT('',#203) ;
#211=VERTEX_POINT('',#210) ;
#224=VERTEX_POINT('',#223) ;
#237=VERTEX_POINT('',#236) ;
#244=VERTEX_POINT('',#243) ;
#251=VERTEX_POINT('',#250) ;
#258=VERTEX_POINT('',#257) ;
#265=VERTEX_POINT('',#264) ;
#272=VERTEX_POINT('',#271) ;
#279=VERTEX_POINT('',#278) ;
#286=VERTEX_POINT('',#285) ;
#293=VERTEX_POINT('',#292) ;
#300=VERTEX_POINT('',#299) ;
#307=VERTEX_POINT('',#306) ;
#314=VERTEX_POINT('',#313) ;
#321=VERTEX_POINT('',#320) ;
#328=VERTEX_POINT('',#327) ;
#335=VERTEX_POINT('',#334) ;
#342=VERTEX_POINT('',#341) ;
#349=VERTEX_POINT('',#348) ;
#356=VERTEX_POINT('',#355) ;
#369=VERTEX_POINT('',#368) ;
#382=VERTEX_POINT('',#381) ;
#451=VERTEX_POINT('',#450) ;
#453=VERTEX_POINT('',#452) ;
#511=VERTEX_POINT('',#510) ;
#513=VERTEX_POINT('',#512) ;
#556=VERTEX_POINT('',#555) ;
#580=VERTEX_POINT('',#579) ;
#587=VERTEX_POINT('',#586) ;
#594=VERTEX_POINT('',#593) ;
#613=VERTEX_POINT('',#612) ;
#620=VERTEX_POINT('',#619) ;
#639=VERTEX_POINT('',#638) ;
#646=VERTEX_POINT('',#645) ;
#653=VERTEX_POINT('',#652) ;
#660=VERTEX_POINT('',#659) ;
#676=VERTEX_POINT('',#675) ;
#683=VERTEX_POINT('',#682) ;
#699=VERTEX_POINT('',#698) ;
#706=VERTEX_POINT('',#705) ;
#713=VERTEX_POINT('',#712) ;
#720=VERTEX_POINT('',#719) ;
#739=VERTEX_POINT('',#738) ;
#746=VERTEX_POINT('',#745) ;
#765=VERTEX_POINT('',#764) ;
#772=VERTEX_POINT('',#771) ;
#779=VERTEX_POINT('',#778) ;
#786=VERTEX_POINT('',#785) ;
#793=VERTEX_POINT('',#792) ;
#800=VERTEX_POINT('',#799) ;
#807=VERTEX_POINT('',#806) ;
#814=VERTEX_POINT('',#813) ;
#821=VERTEX_POINT('',#820) ;
#828=VERTEX_POINT('',#827) ;
#835=VERTEX_POINT('',#834) ;
#842=VERTEX_POINT('',#841) ;
#849=VERTEX_POINT('',#848) ;
#897=VERTEX_POINT('',#896) ;
#899=VERTEX_POINT('',#898) ;
#915=VERTEX_POINT('',#914) ;
#917=VERTEX_POINT('',#916) ;
#1003=VERTEX_POINT('',#1002) ;
#1005=VERTEX_POINT('',#1004) ;
#1014=VERTEX_POINT('',#1013) ;
#1023=VERTEX_POINT('',#1022) ;
#1032=VERTEX_POINT('',#1031) ;
#1041=VERTEX_POINT('',#1040) ;
#1050=VERTEX_POINT('',#1049) ;
#1059=VERTEX_POINT('',#1058) ;
#1372=VERTEX_POINT('',#1371) ;
#1374=VERTEX_POINT('',#1373) ;
#1381=VERTEX_POINT('',#1380) ;
#1388=VERTEX_POINT('',#1387) ;
#41=(LENGTH_UNIT()NAMED_UNIT(*)SI_UNIT(.MILLI.,.METRE.)) ;
#42=(NAMED_UNIT(*)PLANE_ANGLE_UNIT()SI_UNIT($,.RADIAN.)) ;
#44=(NAMED_UNIT(*)SI_UNIT($,.STERADIAN.)SOLID_ANGLE_UNIT()) ;
#46=(GEOMETRIC_REPRESENTATION_CONTEXT(3)GLOBAL_UNCERTAINTY_ASSIGNED_CONTEXT((#45))GLOBAL_UNIT_ASSIGNED_CONTEXT((#41,#42,#44))REPRESENTATION_CONTEXT(' ',' ')) ;
ENDSEC;
END-ISO-10303-21;
