solid CATIA STL
  facet normal  -0.000000e+000  0.000000e+000 -1.000000e+000
    outer loop
      vertex -7.500000e+000  0.000000e+000  0.000000e+000
      vertex  7.500000e+000  0.000000e+000  0.000000e+000
      vertex -1.836970e-016 -2.000000e+000  0.000000e+000
    endloop
  endfacet
  facet normal  -0.000000e+000  0.000000e+000 -1.000000e+000
    outer loop
      vertex -7.500000e+000  0.000000e+000  0.000000e+000
      vertex -1.836970e-016 -2.000000e+000  0.000000e+000
      vertex -2.588190e-001 -2.034074e+000  0.000000e+000
    endloop
  endfacet
  facet normal  -0.000000e+000  0.000000e+000 -1.000000e+000
    outer loop
      vertex -7.500000e+000  0.000000e+000  0.000000e+000
      vertex -2.588190e-001 -2.034074e+000  0.000000e+000
      vertex -5.000000e-001 -2.133975e+000  0.000000e+000
    endloop
  endfacet
  facet normal  -0.000000e+000  0.000000e+000 -1.000000e+000
    outer loop
      vertex -7.500000e+000  0.000000e+000  0.000000e+000
      vertex -5.000000e-001 -2.133975e+000  0.000000e+000
      vertex -7.500000e+000 -5.000000e+000  0.000000e+000
    endloop
  endfacet
  facet normal  0.000000e+000  0.000000e+000 -1.000000e+000
    outer loop
      vertex -7.500000e+000 -5.000000e+000  0.000000e+000
      vertex -5.000000e-001 -2.133975e+000  0.000000e+000
      vertex -7.071068e-001 -2.292893e+000  0.000000e+000
    endloop
  endfacet
  facet normal  0.000000e+000  0.000000e+000 -1.000000e+000
    outer loop
      vertex -7.500000e+000 -5.000000e+000  0.000000e+000
      vertex -7.071068e-001 -2.292893e+000  0.000000e+000
      vertex -8.660254e-001 -2.500000e+000  0.000000e+000
    endloop
  endfacet
  facet normal  0.000000e+000  0.000000e+000 -1.000000e+000
    outer loop
      vertex -7.500000e+000 -5.000000e+000  0.000000e+000
      vertex -8.660254e-001 -2.500000e+000  0.000000e+000
      vertex -9.659258e-001 -2.741181e+000  0.000000e+000
    endloop
  endfacet
  facet normal  0.000000e+000  0.000000e+000 -9.999999e-001
    outer loop
      vertex -7.500000e+000 -5.000000e+000  0.000000e+000
      vertex -9.659258e-001 -2.741181e+000  0.000000e+000
      vertex -1.000000e+000 -3.000000e+000  0.000000e+000
    endloop
  endfacet
  facet normal  0.000000e+000  -0.000000e+000 -1.000000e+000
    outer loop
      vertex -7.500000e+000 -5.000000e+000  0.000000e+000
      vertex -1.000000e+000 -3.000000e+000  0.000000e+000
      vertex -9.659258e-001 -3.258819e+000  0.000000e+000
    endloop
  endfacet
  facet normal  0.000000e+000  -0.000000e+000 -1.000000e+000
    outer loop
      vertex -7.500000e+000 -5.000000e+000  0.000000e+000
      vertex -9.659258e-001 -3.258819e+000  0.000000e+000
      vertex -8.660254e-001 -3.500000e+000  0.000000e+000
    endloop
  endfacet
  facet normal  0.000000e+000  -0.000000e+000 -1.000000e+000
    outer loop
      vertex -7.500000e+000 -5.000000e+000  0.000000e+000
      vertex -8.660254e-001 -3.500000e+000  0.000000e+000
      vertex -7.071068e-001 -3.707107e+000  0.000000e+000
    endloop
  endfacet
  facet normal  0.000000e+000  -0.000000e+000 -9.999999e-001
    outer loop
      vertex -7.500000e+000 -5.000000e+000  0.000000e+000
      vertex -7.071068e-001 -3.707107e+000  0.000000e+000
      vertex -5.000000e-001 -3.866025e+000  0.000000e+000
    endloop
  endfacet
  facet normal  0.000000e+000  -0.000000e+000 -9.999999e-001
    outer loop
      vertex -7.500000e+000 -5.000000e+000  0.000000e+000
      vertex -5.000000e-001 -3.866025e+000  0.000000e+000
      vertex -2.588190e-001 -3.965926e+000  0.000000e+000
    endloop
  endfacet
  facet normal  0.000000e+000  -0.000000e+000 -1.000000e+000
    outer loop
      vertex -7.500000e+000 -5.000000e+000  0.000000e+000
      vertex -2.588190e-001 -3.965926e+000  0.000000e+000
      vertex  6.123234e-017 -4.000000e+000  0.000000e+000
    endloop
  endfacet
  facet normal  0.000000e+000  -0.000000e+000 -1.000000e+000
    outer loop
      vertex -7.500000e+000 -5.000000e+000  0.000000e+000
      vertex  6.123234e-017 -4.000000e+000  0.000000e+000
      vertex  7.500000e+000 -5.000000e+000  0.000000e+000
    endloop
  endfacet
  facet normal  0.000000e+000  0.000000e+000 -1.000000e+000
    outer loop
      vertex  7.500000e+000 -5.000000e+000  0.000000e+000
      vertex  6.123234e-017 -4.000000e+000  0.000000e+000
      vertex  2.588190e-001 -3.965926e+000  0.000000e+000
    endloop
  endfacet
  facet normal  0.000000e+000  0.000000e+000 -9.999999e-001
    outer loop
      vertex  7.500000e+000 -5.000000e+000  0.000000e+000
      vertex  2.588190e-001 -3.965926e+000  0.000000e+000
      vertex  5.000000e-001 -3.866025e+000  0.000000e+000
    endloop
  endfacet
  facet normal  0.000000e+000  0.000000e+000 -1.000000e+000
    outer loop
      vertex  7.500000e+000 -5.000000e+000  0.000000e+000
      vertex  5.000000e-001 -3.866025e+000  0.000000e+000
      vertex  7.071068e-001 -3.707107e+000  0.000000e+000
    endloop
  endfacet
  facet normal  0.000000e+000  0.000000e+000 -1.000000e+000
    outer loop
      vertex  7.500000e+000 -5.000000e+000  0.000000e+000
      vertex  7.071068e-001 -3.707107e+000  0.000000e+000
      vertex  8.660254e-001 -3.500000e+000  0.000000e+000
    endloop
  endfacet
  facet normal  0.000000e+000  0.000000e+000 -1.000000e+000
    outer loop
      vertex  7.500000e+000 -5.000000e+000  0.000000e+000
      vertex  8.660254e-001 -3.500000e+000  0.000000e+000
      vertex  9.659258e-001 -3.258819e+000  0.000000e+000
    endloop
  endfacet
  facet normal  0.000000e+000  0.000000e+000 -1.000000e+000
    outer loop
      vertex  7.500000e+000 -5.000000e+000  0.000000e+000
      vertex  9.659258e-001 -3.258819e+000  0.000000e+000
      vertex  1.000000e+000 -3.000000e+000  0.000000e+000
    endloop
  endfacet
  facet normal  0.000000e+000  0.000000e+000 -9.999999e-001
    outer loop
      vertex  7.500000e+000 -5.000000e+000  0.000000e+000
      vertex  1.000000e+000 -3.000000e+000  0.000000e+000
      vertex  9.659258e-001 -2.741181e+000  0.000000e+000
    endloop
  endfacet
  facet normal  0.000000e+000  0.000000e+000 -1.000000e+000
    outer loop
      vertex  7.500000e+000 -5.000000e+000  0.000000e+000
      vertex  9.659258e-001 -2.741181e+000  0.000000e+000
      vertex  8.660254e-001 -2.500000e+000  0.000000e+000
    endloop
  endfacet
  facet normal  0.000000e+000  0.000000e+000 -1.000000e+000
    outer loop
      vertex  7.500000e+000 -5.000000e+000  0.000000e+000
      vertex  8.660254e-001 -2.500000e+000  0.000000e+000
      vertex  7.071068e-001 -2.292893e+000  0.000000e+000
    endloop
  endfacet
  facet normal  0.000000e+000  0.000000e+000 -1.000000e+000
    outer loop
      vertex  7.500000e+000 -5.000000e+000  0.000000e+000
      vertex  7.071068e-001 -2.292893e+000  0.000000e+000
      vertex  5.000000e-001 -2.133975e+000  0.000000e+000
    endloop
  endfacet
  facet normal  0.000000e+000  0.000000e+000 -1.000000e+000
    outer loop
      vertex  7.500000e+000  0.000000e+000  0.000000e+000
      vertex  7.500000e+000 -5.000000e+000  0.000000e+000
      vertex  5.000000e-001 -2.133975e+000  0.000000e+000
    endloop
  endfacet
  facet normal  0.000000e+000  0.000000e+000 -1.000000e+000
    outer loop
      vertex  7.500000e+000  0.000000e+000  0.000000e+000
      vertex  5.000000e-001 -2.133975e+000  0.000000e+000
      vertex  2.588190e-001 -2.034074e+000  0.000000e+000
    endloop
  endfacet
  facet normal  0.000000e+000  0.000000e+000 -1.000000e+000
    outer loop
      vertex  7.500000e+000  0.000000e+000  0.000000e+000
      vertex  2.588190e-001 -2.034074e+000  0.000000e+000
      vertex -1.836970e-016 -2.000000e+000  0.000000e+000
    endloop
  endfacet
  facet normal  9.914449e-001  1.305262e-001  -0.000000e+000
    outer loop
      vertex  1.000000e+000 -3.000000e+000  0.000000e+000
      vertex  1.000000e+000 -3.000000e+000 -3.000000e+000
      vertex  9.659258e-001 -2.741181e+000  0.000000e+000
    endloop
  endfacet
  facet normal  9.914449e-001  1.305262e-001  0.000000e+000
    outer loop
      vertex  9.659258e-001 -2.741181e+000  0.000000e+000
      vertex  1.000000e+000 -3.000000e+000 -3.000000e+000
      vertex  9.659258e-001 -2.741181e+000 -3.000000e+000
    endloop
  endfacet
  facet normal  9.238796e-001  3.826835e-001  -0.000000e+000
    outer loop
      vertex  9.659258e-001 -2.741181e+000  0.000000e+000
      vertex  9.659258e-001 -2.741181e+000 -3.000000e+000
      vertex  8.660254e-001 -2.500000e+000  0.000000e+000
    endloop
  endfacet
  facet normal  9.238796e-001  3.826835e-001  0.000000e+000
    outer loop
      vertex  8.660254e-001 -2.500000e+000  0.000000e+000
      vertex  9.659258e-001 -2.741181e+000 -3.000000e+000
      vertex  8.660254e-001 -2.500000e+000 -3.000000e+000
    endloop
  endfacet
  facet normal  7.933534e-001  6.087613e-001  -0.000000e+000
    outer loop
      vertex  8.660254e-001 -2.500000e+000  0.000000e+000
      vertex  8.660254e-001 -2.500000e+000 -3.000000e+000
      vertex  7.071068e-001 -2.292893e+000  0.000000e+000
    endloop
  endfacet
  facet normal  7.933534e-001  6.087613e-001  0.000000e+000
    outer loop
      vertex  7.071068e-001 -2.292893e+000  0.000000e+000
      vertex  8.660254e-001 -2.500000e+000 -3.000000e+000
      vertex  7.071068e-001 -2.292893e+000 -3.000000e+000
    endloop
  endfacet
  facet normal  6.087614e-001  7.933533e-001  -0.000000e+000
    outer loop
      vertex  7.071068e-001 -2.292893e+000  0.000000e+000
      vertex  7.071068e-001 -2.292893e+000 -3.000000e+000
      vertex  5.000000e-001 -2.133975e+000  0.000000e+000
    endloop
  endfacet
  facet normal  6.087614e-001  7.933533e-001  0.000000e+000
    outer loop
      vertex  5.000000e-001 -2.133975e+000  0.000000e+000
      vertex  7.071068e-001 -2.292893e+000 -3.000000e+000
      vertex  5.000000e-001 -2.133975e+000 -3.000000e+000
    endloop
  endfacet
  facet normal  3.826836e-001  9.238794e-001  -0.000000e+000
    outer loop
      vertex  5.000000e-001 -2.133975e+000  0.000000e+000
      vertex  5.000000e-001 -2.133975e+000 -3.000000e+000
      vertex  2.588190e-001 -2.034074e+000  0.000000e+000
    endloop
  endfacet
  facet normal  3.826836e-001  9.238794e-001  0.000000e+000
    outer loop
      vertex  2.588190e-001 -2.034074e+000  0.000000e+000
      vertex  5.000000e-001 -2.133975e+000 -3.000000e+000
      vertex  2.588190e-001 -2.034074e+000 -3.000000e+000
    endloop
  endfacet
  facet normal  1.305258e-001  9.914449e-001  -0.000000e+000
    outer loop
      vertex  2.588190e-001 -2.034074e+000  0.000000e+000
      vertex  2.588190e-001 -2.034074e+000 -3.000000e+000
      vertex -1.836970e-016 -2.000000e+000  0.000000e+000
    endloop
  endfacet
  facet normal  1.305258e-001  9.914449e-001  0.000000e+000
    outer loop
      vertex -1.836970e-016 -2.000000e+000  0.000000e+000
      vertex  2.588190e-001 -2.034074e+000 -3.000000e+000
      vertex -1.836970e-016 -2.000000e+000 -3.000000e+000
    endloop
  endfacet
  facet normal -1.305258e-001  9.914449e-001  0.000000e+000
    outer loop
      vertex -1.836970e-016 -2.000000e+000  0.000000e+000
      vertex -1.836970e-016 -2.000000e+000 -3.000000e+000
      vertex -2.588190e-001 -2.034074e+000  0.000000e+000
    endloop
  endfacet
  facet normal -1.305258e-001  9.914449e-001  0.000000e+000
    outer loop
      vertex -2.588190e-001 -2.034074e+000  0.000000e+000
      vertex -1.836970e-016 -2.000000e+000 -3.000000e+000
      vertex -2.588190e-001 -2.034074e+000 -3.000000e+000
    endloop
  endfacet
  facet normal -3.826836e-001  9.238794e-001  0.000000e+000
    outer loop
      vertex -2.588190e-001 -2.034074e+000  0.000000e+000
      vertex -2.588190e-001 -2.034074e+000 -3.000000e+000
      vertex -5.000000e-001 -2.133975e+000  0.000000e+000
    endloop
  endfacet
  facet normal -3.826836e-001  9.238794e-001  0.000000e+000
    outer loop
      vertex -5.000000e-001 -2.133975e+000  0.000000e+000
      vertex -2.588190e-001 -2.034074e+000 -3.000000e+000
      vertex -5.000000e-001 -2.133975e+000 -3.000000e+000
    endloop
  endfacet
  facet normal -6.087614e-001  7.933533e-001  0.000000e+000
    outer loop
      vertex -5.000000e-001 -2.133975e+000  0.000000e+000
      vertex -5.000000e-001 -2.133975e+000 -3.000000e+000
      vertex -7.071068e-001 -2.292893e+000  0.000000e+000
    endloop
  endfacet
  facet normal -6.087614e-001  7.933533e-001  0.000000e+000
    outer loop
      vertex -7.071068e-001 -2.292893e+000  0.000000e+000
      vertex -5.000000e-001 -2.133975e+000 -3.000000e+000
      vertex -7.071068e-001 -2.292893e+000 -3.000000e+000
    endloop
  endfacet
  facet normal -7.933534e-001  6.087613e-001  0.000000e+000
    outer loop
      vertex -7.071068e-001 -2.292893e+000  0.000000e+000
      vertex -7.071068e-001 -2.292893e+000 -3.000000e+000
      vertex -8.660254e-001 -2.500000e+000  0.000000e+000
    endloop
  endfacet
  facet normal -7.933534e-001  6.087613e-001  0.000000e+000
    outer loop
      vertex -8.660254e-001 -2.500000e+000  0.000000e+000
      vertex -7.071068e-001 -2.292893e+000 -3.000000e+000
      vertex -8.660254e-001 -2.500000e+000 -3.000000e+000
    endloop
  endfacet
  facet normal -9.238796e-001  3.826835e-001  0.000000e+000
    outer loop
      vertex -8.660254e-001 -2.500000e+000  0.000000e+000
      vertex -8.660254e-001 -2.500000e+000 -3.000000e+000
      vertex -9.659258e-001 -2.741181e+000  0.000000e+000
    endloop
  endfacet
  facet normal -9.238796e-001  3.826835e-001  0.000000e+000
    outer loop
      vertex -9.659258e-001 -2.741181e+000  0.000000e+000
      vertex -8.660254e-001 -2.500000e+000 -3.000000e+000
      vertex -9.659258e-001 -2.741181e+000 -3.000000e+000
    endloop
  endfacet
  facet normal -9.914449e-001  1.305262e-001  0.000000e+000
    outer loop
      vertex -9.659258e-001 -2.741181e+000  0.000000e+000
      vertex -9.659258e-001 -2.741181e+000 -3.000000e+000
      vertex -1.000000e+000 -3.000000e+000  0.000000e+000
    endloop
  endfacet
  facet normal -9.914449e-001  1.305262e-001  0.000000e+000
    outer loop
      vertex -1.000000e+000 -3.000000e+000  0.000000e+000
      vertex -9.659258e-001 -2.741181e+000 -3.000000e+000
      vertex -1.000000e+000 -3.000000e+000 -3.000000e+000
    endloop
  endfacet
  facet normal -9.914449e-001 -1.305262e-001  0.000000e+000
    outer loop
      vertex -1.000000e+000 -3.000000e+000  0.000000e+000
      vertex -1.000000e+000 -3.000000e+000 -3.000000e+000
      vertex -9.659258e-001 -3.258819e+000  0.000000e+000
    endloop
  endfacet
  facet normal -9.914449e-001 -1.305262e-001  -0.000000e+000
    outer loop
      vertex -9.659258e-001 -3.258819e+000  0.000000e+000
      vertex -1.000000e+000 -3.000000e+000 -3.000000e+000
      vertex -9.659258e-001 -3.258819e+000 -3.000000e+000
    endloop
  endfacet
  facet normal -9.238796e-001 -3.826835e-001  0.000000e+000
    outer loop
      vertex -9.659258e-001 -3.258819e+000  0.000000e+000
      vertex -9.659258e-001 -3.258819e+000 -3.000000e+000
      vertex -8.660254e-001 -3.500000e+000  0.000000e+000
    endloop
  endfacet
  facet normal -9.238796e-001 -3.826835e-001  -0.000000e+000
    outer loop
      vertex -8.660254e-001 -3.500000e+000  0.000000e+000
      vertex -9.659258e-001 -3.258819e+000 -3.000000e+000
      vertex -8.660254e-001 -3.500000e+000 -3.000000e+000
    endloop
  endfacet
  facet normal -7.933534e-001 -6.087613e-001  0.000000e+000
    outer loop
      vertex -8.660254e-001 -3.500000e+000  0.000000e+000
      vertex -8.660254e-001 -3.500000e+000 -3.000000e+000
      vertex -7.071068e-001 -3.707107e+000  0.000000e+000
    endloop
  endfacet
  facet normal -7.933534e-001 -6.087613e-001  -0.000000e+000
    outer loop
      vertex -7.071068e-001 -3.707107e+000  0.000000e+000
      vertex -8.660254e-001 -3.500000e+000 -3.000000e+000
      vertex -7.071068e-001 -3.707107e+000 -3.000000e+000
    endloop
  endfacet
  facet normal -6.087614e-001 -7.933533e-001  0.000000e+000
    outer loop
      vertex -7.071068e-001 -3.707107e+000  0.000000e+000
      vertex -7.071068e-001 -3.707107e+000 -3.000000e+000
      vertex -5.000000e-001 -3.866025e+000  0.000000e+000
    endloop
  endfacet
  facet normal -6.087614e-001 -7.933533e-001  -0.000000e+000
    outer loop
      vertex -5.000000e-001 -3.866025e+000  0.000000e+000
      vertex -7.071068e-001 -3.707107e+000 -3.000000e+000
      vertex -5.000000e-001 -3.866025e+000 -3.000000e+000
    endloop
  endfacet
  facet normal -3.826836e-001 -9.238794e-001  0.000000e+000
    outer loop
      vertex -5.000000e-001 -3.866025e+000  0.000000e+000
      vertex -5.000000e-001 -3.866025e+000 -3.000000e+000
      vertex -2.588190e-001 -3.965926e+000  0.000000e+000
    endloop
  endfacet
  facet normal -3.826836e-001 -9.238794e-001  -0.000000e+000
    outer loop
      vertex -2.588190e-001 -3.965926e+000  0.000000e+000
      vertex -5.000000e-001 -3.866025e+000 -3.000000e+000
      vertex -2.588190e-001 -3.965926e+000 -3.000000e+000
    endloop
  endfacet
  facet normal -1.305258e-001 -9.914449e-001  0.000000e+000
    outer loop
      vertex -2.588190e-001 -3.965926e+000  0.000000e+000
      vertex -2.588190e-001 -3.965926e+000 -3.000000e+000
      vertex  6.123234e-017 -4.000000e+000  0.000000e+000
    endloop
  endfacet
  facet normal -1.305258e-001 -9.914449e-001  -0.000000e+000
    outer loop
      vertex  6.123234e-017 -4.000000e+000  0.000000e+000
      vertex -2.588190e-001 -3.965926e+000 -3.000000e+000
      vertex  6.123234e-017 -4.000000e+000 -3.000000e+000
    endloop
  endfacet
  facet normal  1.305258e-001 -9.914449e-001  0.000000e+000
    outer loop
      vertex  6.123234e-017 -4.000000e+000  0.000000e+000
      vertex  6.123234e-017 -4.000000e+000 -3.000000e+000
      vertex  2.588190e-001 -3.965926e+000  0.000000e+000
    endloop
  endfacet
  facet normal  1.305258e-001 -9.914449e-001  0.000000e+000
    outer loop
      vertex  2.588190e-001 -3.965926e+000  0.000000e+000
      vertex  6.123234e-017 -4.000000e+000 -3.000000e+000
      vertex  2.588190e-001 -3.965926e+000 -3.000000e+000
    endloop
  endfacet
  facet normal  3.826836e-001 -9.238794e-001  0.000000e+000
    outer loop
      vertex  2.588190e-001 -3.965926e+000  0.000000e+000
      vertex  2.588190e-001 -3.965926e+000 -3.000000e+000
      vertex  5.000000e-001 -3.866025e+000  0.000000e+000
    endloop
  endfacet
  facet normal  3.826836e-001 -9.238794e-001  0.000000e+000
    outer loop
      vertex  5.000000e-001 -3.866025e+000  0.000000e+000
      vertex  2.588190e-001 -3.965926e+000 -3.000000e+000
      vertex  5.000000e-001 -3.866025e+000 -3.000000e+000
    endloop
  endfacet
  facet normal  6.087614e-001 -7.933533e-001  0.000000e+000
    outer loop
      vertex  5.000000e-001 -3.866025e+000  0.000000e+000
      vertex  5.000000e-001 -3.866025e+000 -3.000000e+000
      vertex  7.071068e-001 -3.707107e+000  0.000000e+000
    endloop
  endfacet
  facet normal  6.087614e-001 -7.933533e-001  0.000000e+000
    outer loop
      vertex  7.071068e-001 -3.707107e+000  0.000000e+000
      vertex  5.000000e-001 -3.866025e+000 -3.000000e+000
      vertex  7.071068e-001 -3.707107e+000 -3.000000e+000
    endloop
  endfacet
  facet normal  7.933534e-001 -6.087613e-001  0.000000e+000
    outer loop
      vertex  7.071068e-001 -3.707107e+000  0.000000e+000
      vertex  7.071068e-001 -3.707107e+000 -3.000000e+000
      vertex  8.660254e-001 -3.500000e+000  0.000000e+000
    endloop
  endfacet
  facet normal  7.933534e-001 -6.087613e-001  0.000000e+000
    outer loop
      vertex  8.660254e-001 -3.500000e+000  0.000000e+000
      vertex  7.071068e-001 -3.707107e+000 -3.000000e+000
      vertex  8.660254e-001 -3.500000e+000 -3.000000e+000
    endloop
  endfacet
  facet normal  9.238796e-001 -3.826835e-001  0.000000e+000
    outer loop
      vertex  8.660254e-001 -3.500000e+000  0.000000e+000
      vertex  8.660254e-001 -3.500000e+000 -3.000000e+000
      vertex  9.659258e-001 -3.258819e+000  0.000000e+000
    endloop
  endfacet
  facet normal  9.238796e-001 -3.826835e-001  0.000000e+000
    outer loop
      vertex  9.659258e-001 -3.258819e+000  0.000000e+000
      vertex  8.660254e-001 -3.500000e+000 -3.000000e+000
      vertex  9.659258e-001 -3.258819e+000 -3.000000e+000
    endloop
  endfacet
  facet normal  9.914449e-001 -1.305262e-001  0.000000e+000
    outer loop
      vertex  9.659258e-001 -3.258819e+000  0.000000e+000
      vertex  9.659258e-001 -3.258819e+000 -3.000000e+000
      vertex  1.000000e+000 -3.000000e+000  0.000000e+000
    endloop
  endfacet
  facet normal  9.914449e-001 -1.305262e-001  0.000000e+000
    outer loop
      vertex  1.000000e+000 -3.000000e+000  0.000000e+000
      vertex  9.659258e-001 -3.258819e+000 -3.000000e+000
      vertex  1.000000e+000 -3.000000e+000 -3.000000e+000
    endloop
  endfacet
  facet normal  -0.000000e+000  0.000000e+000 -9.999999e-001
    outer loop
      vertex -2.588190e-001 -3.965926e+000 -3.000000e+000
      vertex  2.588190e-001 -3.965926e+000 -3.000000e+000
      vertex  6.123234e-017 -4.000000e+000 -3.000000e+000
    endloop
  endfacet
  facet normal  0.000000e+000  0.000000e+000 -1.000000e+000
    outer loop
      vertex  2.588190e-001 -3.965926e+000 -3.000000e+000
      vertex -2.588190e-001 -3.965926e+000 -3.000000e+000
      vertex  5.000000e-001 -3.866025e+000 -3.000000e+000
    endloop
  endfacet
  facet normal  -0.000000e+000  0.000000e+000 -9.999999e-001
    outer loop
      vertex  5.000000e-001 -3.866025e+000 -3.000000e+000
      vertex -2.588190e-001 -3.965926e+000 -3.000000e+000
      vertex -5.000000e-001 -3.866025e+000 -3.000000e+000
    endloop
  endfacet
  facet normal  0.000000e+000  0.000000e+000 -1.000000e+000
    outer loop
      vertex  5.000000e-001 -3.866025e+000 -3.000000e+000
      vertex -5.000000e-001 -3.866025e+000 -3.000000e+000
      vertex  7.071068e-001 -3.707107e+000 -3.000000e+000
    endloop
  endfacet
  facet normal  -0.000000e+000  0.000000e+000 -1.000000e+000
    outer loop
      vertex  7.071068e-001 -3.707107e+000 -3.000000e+000
      vertex -5.000000e-001 -3.866025e+000 -3.000000e+000
      vertex -7.071068e-001 -3.707107e+000 -3.000000e+000
    endloop
  endfacet
  facet normal  0.000000e+000  0.000000e+000 -1.000000e+000
    outer loop
      vertex  7.071068e-001 -3.707107e+000 -3.000000e+000
      vertex -7.071068e-001 -3.707107e+000 -3.000000e+000
      vertex  8.660254e-001 -3.500000e+000 -3.000000e+000
    endloop
  endfacet
  facet normal  -0.000000e+000  0.000000e+000 -1.000000e+000
    outer loop
      vertex  8.660254e-001 -3.500000e+000 -3.000000e+000
      vertex -7.071068e-001 -3.707107e+000 -3.000000e+000
      vertex -8.660254e-001 -3.500000e+000 -3.000000e+000
    endloop
  endfacet
  facet normal  0.000000e+000  0.000000e+000 -1.000000e+000
    outer loop
      vertex  8.660254e-001 -3.500000e+000 -3.000000e+000
      vertex -8.660254e-001 -3.500000e+000 -3.000000e+000
      vertex  9.659258e-001 -3.258819e+000 -3.000000e+000
    endloop
  endfacet
  facet normal  -0.000000e+000  0.000000e+000 -1.000000e+000
    outer loop
      vertex  9.659258e-001 -3.258819e+000 -3.000000e+000
      vertex -8.660254e-001 -3.500000e+000 -3.000000e+000
      vertex -9.659258e-001 -3.258819e+000 -3.000000e+000
    endloop
  endfacet
  facet normal  0.000000e+000  0.000000e+000 -1.000000e+000
    outer loop
      vertex  9.659258e-001 -3.258819e+000 -3.000000e+000
      vertex -9.659258e-001 -3.258819e+000 -3.000000e+000
      vertex  1.000000e+000 -3.000000e+000 -3.000000e+000
    endloop
  endfacet
  facet normal  -0.000000e+000  0.000000e+000 -1.000000e+000
    outer loop
      vertex  1.000000e+000 -3.000000e+000 -3.000000e+000
      vertex -9.659258e-001 -3.258819e+000 -3.000000e+000
      vertex -1.000000e+000 -3.000000e+000 -3.000000e+000
    endloop
  endfacet
  facet normal  0.000000e+000  0.000000e+000 -1.000000e+000
    outer loop
      vertex  1.000000e+000 -3.000000e+000 -3.000000e+000
      vertex -1.000000e+000 -3.000000e+000 -3.000000e+000
      vertex  9.659258e-001 -2.741181e+000 -3.000000e+000
    endloop
  endfacet
  facet normal  -0.000000e+000  0.000000e+000 -1.000000e+000
    outer loop
      vertex  9.659258e-001 -2.741181e+000 -3.000000e+000
      vertex -1.000000e+000 -3.000000e+000 -3.000000e+000
      vertex -9.659258e-001 -2.741181e+000 -3.000000e+000
    endloop
  endfacet
  facet normal  0.000000e+000  0.000000e+000 -1.000000e+000
    outer loop
      vertex  9.659258e-001 -2.741181e+000 -3.000000e+000
      vertex -9.659258e-001 -2.741181e+000 -3.000000e+000
      vertex  8.660254e-001 -2.500000e+000 -3.000000e+000
    endloop
  endfacet
  facet normal  -0.000000e+000  0.000000e+000 -1.000000e+000
    outer loop
      vertex  8.660254e-001 -2.500000e+000 -3.000000e+000
      vertex -9.659258e-001 -2.741181e+000 -3.000000e+000
      vertex -8.660254e-001 -2.500000e+000 -3.000000e+000
    endloop
  endfacet
  facet normal  0.000000e+000  0.000000e+000 -1.000000e+000
    outer loop
      vertex  8.660254e-001 -2.500000e+000 -3.000000e+000
      vertex -8.660254e-001 -2.500000e+000 -3.000000e+000
      vertex  7.071068e-001 -2.292893e+000 -3.000000e+000
    endloop
  endfacet
  facet normal  -0.000000e+000  0.000000e+000 -1.000000e+000
    outer loop
      vertex  7.071068e-001 -2.292893e+000 -3.000000e+000
      vertex -8.660254e-001 -2.500000e+000 -3.000000e+000
      vertex -7.071068e-001 -2.292893e+000 -3.000000e+000
    endloop
  endfacet
  facet normal  0.000000e+000  0.000000e+000 -1.000000e+000
    outer loop
      vertex  7.071068e-001 -2.292893e+000 -3.000000e+000
      vertex -7.071068e-001 -2.292893e+000 -3.000000e+000
      vertex  5.000000e-001 -2.133975e+000 -3.000000e+000
    endloop
  endfacet
  facet normal  -0.000000e+000  0.000000e+000 -1.000000e+000
    outer loop
      vertex  5.000000e-001 -2.133975e+000 -3.000000e+000
      vertex -7.071068e-001 -2.292893e+000 -3.000000e+000
      vertex -5.000000e-001 -2.133975e+000 -3.000000e+000
    endloop
  endfacet
  facet normal  0.000000e+000  0.000000e+000 -9.999999e-001
    outer loop
      vertex  5.000000e-001 -2.133975e+000 -3.000000e+000
      vertex -5.000000e-001 -2.133975e+000 -3.000000e+000
      vertex  2.588190e-001 -2.034074e+000 -3.000000e+000
    endloop
  endfacet
  facet normal  -0.000000e+000  0.000000e+000 -1.000000e+000
    outer loop
      vertex  2.588190e-001 -2.034074e+000 -3.000000e+000
      vertex -5.000000e-001 -2.133975e+000 -3.000000e+000
      vertex -2.588190e-001 -2.034074e+000 -3.000000e+000
    endloop
  endfacet
  facet normal  0.000000e+000  0.000000e+000 -9.999999e-001
    outer loop
      vertex  2.588190e-001 -2.034074e+000 -3.000000e+000
      vertex -2.588190e-001 -2.034074e+000 -3.000000e+000
      vertex -1.836970e-016 -2.000000e+000 -3.000000e+000
    endloop
  endfacet
  facet normal  0.000000e+000  0.000000e+000  1.000000e+000
    outer loop
      vertex -5.500000e+000 -5.000000e+000  3.750000e+000
      vertex  5.500000e+000 -5.000000e+000  3.750000e+000
      vertex  1.937636e-001  2.908958e+000  3.750000e+000
    endloop
  endfacet
  facet normal  0.000000e+000  0.000000e+000  1.000000e+000
    outer loop
      vertex -5.500000e+000 -5.000000e+000  3.750000e+000
      vertex  1.937636e-001  2.908958e+000  3.750000e+000
      vertex -1.937636e-001  2.908958e+000  3.750000e+000
    endloop
  endfacet
  facet normal  0.000000e+000  0.000000e+000  1.000000e+000
    outer loop
      vertex -5.500000e+000 -5.000000e+000  3.750000e+000
      vertex -1.937636e-001  2.908958e+000  3.750000e+000
      vertex -5.746923e-001  2.980166e+000  3.750000e+000
    endloop
  endfacet
  facet normal  0.000000e+000  0.000000e+000  1.000000e+000
    outer loop
      vertex -5.500000e+000 -5.000000e+000  3.750000e+000
      vertex -5.746923e-001  2.980166e+000  3.750000e+000
      vertex -9.360505e-001  3.120157e+000  3.750000e+000
    endloop
  endfacet
  facet normal  0.000000e+000  0.000000e+000  1.000000e+000
    outer loop
      vertex -5.500000e+000 -5.000000e+000  3.750000e+000
      vertex -9.360505e-001  3.120157e+000  3.750000e+000
      vertex -1.265533e+000  3.324164e+000  3.750000e+000
    endloop
  endfacet
  facet normal  0.000000e+000  0.000000e+000  9.999999e-001
    outer loop
      vertex -5.500000e+000 -5.000000e+000  3.750000e+000
      vertex -1.265533e+000  3.324164e+000  3.750000e+000
      vertex -1.551919e+000  3.585239e+000  3.750000e+000
    endloop
  endfacet
  facet normal  0.000000e+000  0.000000e+000  1.000000e+000
    outer loop
      vertex -5.500000e+000 -5.000000e+000  3.750000e+000
      vertex -1.551919e+000  3.585239e+000  3.750000e+000
      vertex -1.785456e+000  3.894492e+000  3.750000e+000
    endloop
  endfacet
  facet normal  0.000000e+000  0.000000e+000  1.000000e+000
    outer loop
      vertex -5.500000e+000 -5.000000e+000  3.750000e+000
      vertex -1.785456e+000  3.894492e+000  3.750000e+000
      vertex -1.958192e+000  4.241393e+000  3.750000e+000
    endloop
  endfacet
  facet normal  0.000000e+000  0.000000e+000  1.000000e+000
    outer loop
      vertex -5.500000e+000 -5.000000e+000  3.750000e+000
      vertex -1.958192e+000  4.241393e+000  3.750000e+000
      vertex -2.064244e+000  4.614126e+000  3.750000e+000
    endloop
  endfacet
  facet normal  0.000000e+000  0.000000e+000  1.000000e+000
    outer loop
      vertex -5.500000e+000 -5.000000e+000  3.750000e+000
      vertex -2.064244e+000  4.614126e+000  3.750000e+000
      vertex -2.100000e+000  5.000000e+000  3.750000e+000
    endloop
  endfacet
  facet normal  0.000000e+000  -0.000000e+000  1.000000e+000
    outer loop
      vertex -5.500000e+000 -5.000000e+000  3.750000e+000
      vertex -2.100000e+000  5.000000e+000  3.750000e+000
      vertex -2.100000e+000  1.158579e+001  3.750000e+000
    endloop
  endfacet
  facet normal  0.000000e+000  0.000000e+000  1.000000e+000
    outer loop
      vertex -5.500000e+000 -5.000000e+000  3.750000e+000
      vertex -2.100000e+000  1.158579e+001  3.750000e+000
      vertex -3.514214e+000  1.300000e+001  3.750000e+000
    endloop
  endfacet
  facet normal  0.000000e+000  0.000000e+000  9.999999e-001
    outer loop
      vertex -5.500000e+000 -5.000000e+000  3.750000e+000
      vertex -3.514214e+000  1.300000e+001  3.750000e+000
      vertex -5.500000e+000  1.300000e+001  3.750000e+000
    endloop
  endfacet
  facet normal  0.000000e+000  0.000000e+000  9.999999e-001
    outer loop
      vertex  5.500000e+000 -5.000000e+000  3.750000e+000
      vertex  5.500000e+000  1.300000e+001  3.750000e+000
      vertex  3.514214e+000  1.300000e+001  3.750000e+000
    endloop
  endfacet
  facet normal  0.000000e+000  0.000000e+000  9.999999e-001
    outer loop
      vertex  5.500000e+000 -5.000000e+000  3.750000e+000
      vertex  3.514214e+000  1.300000e+001  3.750000e+000
      vertex  2.100000e+000  1.158579e+001  3.750000e+000
    endloop
  endfacet
  facet normal  0.000000e+000  0.000000e+000  1.000000e+000
    outer loop
      vertex  5.500000e+000 -5.000000e+000  3.750000e+000
      vertex  2.100000e+000  1.158579e+001  3.750000e+000
      vertex  2.100000e+000  5.000000e+000  3.750000e+000
    endloop
  endfacet
  facet normal  0.000000e+000  0.000000e+000  1.000000e+000
    outer loop
      vertex  5.500000e+000 -5.000000e+000  3.750000e+000
      vertex  2.100000e+000  5.000000e+000  3.750000e+000
      vertex  2.064244e+000  4.614126e+000  3.750000e+000
    endloop
  endfacet
  facet normal  0.000000e+000  0.000000e+000  1.000000e+000
    outer loop
      vertex  5.500000e+000 -5.000000e+000  3.750000e+000
      vertex  2.064244e+000  4.614126e+000  3.750000e+000
      vertex  1.958192e+000  4.241393e+000  3.750000e+000
    endloop
  endfacet
  facet normal  0.000000e+000  0.000000e+000  1.000000e+000
    outer loop
      vertex  5.500000e+000 -5.000000e+000  3.750000e+000
      vertex  1.958192e+000  4.241393e+000  3.750000e+000
      vertex  1.785456e+000  3.894492e+000  3.750000e+000
    endloop
  endfacet
  facet normal  0.000000e+000  0.000000e+000  1.000000e+000
    outer loop
      vertex  5.500000e+000 -5.000000e+000  3.750000e+000
      vertex  1.785456e+000  3.894492e+000  3.750000e+000
      vertex  1.551919e+000  3.585239e+000  3.750000e+000
    endloop
  endfacet
  facet normal  0.000000e+000  0.000000e+000  1.000000e+000
    outer loop
      vertex  5.500000e+000 -5.000000e+000  3.750000e+000
      vertex  1.551919e+000  3.585239e+000  3.750000e+000
      vertex  1.265533e+000  3.324164e+000  3.750000e+000
    endloop
  endfacet
  facet normal  0.000000e+000  0.000000e+000  9.999999e-001
    outer loop
      vertex  5.500000e+000 -5.000000e+000  3.750000e+000
      vertex  1.265533e+000  3.324164e+000  3.750000e+000
      vertex  9.360505e-001  3.120157e+000  3.750000e+000
    endloop
  endfacet
  facet normal  0.000000e+000  0.000000e+000  1.000000e+000
    outer loop
      vertex  5.500000e+000 -5.000000e+000  3.750000e+000
      vertex  9.360505e-001  3.120157e+000  3.750000e+000
      vertex  5.746923e-001  2.980166e+000  3.750000e+000
    endloop
  endfacet
  facet normal  0.000000e+000  0.000000e+000  1.000000e+000
    outer loop
      vertex  5.500000e+000 -5.000000e+000  3.750000e+000
      vertex  5.746923e-001  2.980166e+000  3.750000e+000
      vertex  1.937636e-001  2.908958e+000  3.750000e+000
    endloop
  endfacet
  facet normal  -0.000000e+000  0.000000e+000 -1.000000e+000
    outer loop
      vertex  3.514214e+000  1.300000e+001 -3.750000e+000
      vertex  5.500000e+000  1.300000e+001 -3.750000e+000
      vertex  2.100000e+000  1.158579e+001 -3.750000e+000
    endloop
  endfacet
  facet normal  0.000000e+000  0.000000e+000 -1.000000e+000
    outer loop
      vertex -2.100000e+000  1.158579e+001 -3.750000e+000
      vertex -5.500000e+000  1.300000e+001 -3.750000e+000
      vertex -3.514214e+000  1.300000e+001 -3.750000e+000
    endloop
  endfacet
  facet normal  0.000000e+000  0.000000e+000 -1.000000e+000
    outer loop
      vertex  5.500000e+000  0.000000e+000 -3.750000e+000
      vertex -5.500000e+000  0.000000e+000 -3.750000e+000
      vertex -1.937636e-001  2.908958e+000 -3.750000e+000
    endloop
  endfacet
  facet normal  0.000000e+000  0.000000e+000 -1.000000e+000
    outer loop
      vertex  5.500000e+000  0.000000e+000 -3.750000e+000
      vertex -1.937636e-001  2.908958e+000 -3.750000e+000
      vertex  1.937636e-001  2.908958e+000 -3.750000e+000
    endloop
  endfacet
  facet normal  0.000000e+000  0.000000e+000 -9.999999e-001
    outer loop
      vertex  5.500000e+000  0.000000e+000 -3.750000e+000
      vertex  1.937636e-001  2.908958e+000 -3.750000e+000
      vertex  5.746923e-001  2.980166e+000 -3.750000e+000
    endloop
  endfacet
  facet normal  0.000000e+000  0.000000e+000 -1.000000e+000
    outer loop
      vertex  5.500000e+000  0.000000e+000 -3.750000e+000
      vertex  5.746923e-001  2.980166e+000 -3.750000e+000
      vertex  9.360505e-001  3.120157e+000 -3.750000e+000
    endloop
  endfacet
  facet normal  0.000000e+000  0.000000e+000 -9.999999e-001
    outer loop
      vertex  5.500000e+000  0.000000e+000 -3.750000e+000
      vertex  9.360505e-001  3.120157e+000 -3.750000e+000
      vertex  1.265533e+000  3.324164e+000 -3.750000e+000
    endloop
  endfacet
  facet normal  0.000000e+000  0.000000e+000 -1.000000e+000
    outer loop
      vertex  5.500000e+000  0.000000e+000 -3.750000e+000
      vertex  1.265533e+000  3.324164e+000 -3.750000e+000
      vertex  1.551919e+000  3.585239e+000 -3.750000e+000
    endloop
  endfacet
  facet normal  0.000000e+000  0.000000e+000 -1.000000e+000
    outer loop
      vertex  5.500000e+000  0.000000e+000 -3.750000e+000
      vertex  1.551919e+000  3.585239e+000 -3.750000e+000
      vertex  1.785456e+000  3.894492e+000 -3.750000e+000
    endloop
  endfacet
  facet normal  0.000000e+000  0.000000e+000 -1.000000e+000
    outer loop
      vertex  5.500000e+000  0.000000e+000 -3.750000e+000
      vertex  1.785456e+000  3.894492e+000 -3.750000e+000
      vertex  1.958192e+000  4.241393e+000 -3.750000e+000
    endloop
  endfacet
  facet normal  0.000000e+000  0.000000e+000 -9.999999e-001
    outer loop
      vertex  5.500000e+000  0.000000e+000 -3.750000e+000
      vertex  1.958192e+000  4.241393e+000 -3.750000e+000
      vertex  2.064244e+000  4.614126e+000 -3.750000e+000
    endloop
  endfacet
  facet normal  0.000000e+000  0.000000e+000 -1.000000e+000
    outer loop
      vertex  5.500000e+000  0.000000e+000 -3.750000e+000
      vertex  2.064244e+000  4.614126e+000 -3.750000e+000
      vertex  2.100000e+000  5.000000e+000 -3.750000e+000
    endloop
  endfacet
  facet normal  0.000000e+000  0.000000e+000 -1.000000e+000
    outer loop
      vertex  5.500000e+000  0.000000e+000 -3.750000e+000
      vertex  2.100000e+000  5.000000e+000 -3.750000e+000
      vertex  2.100000e+000  1.158579e+001 -3.750000e+000
    endloop
  endfacet
  facet normal  0.000000e+000  0.000000e+000 -9.999999e-001
    outer loop
      vertex  5.500000e+000  0.000000e+000 -3.750000e+000
      vertex  2.100000e+000  1.158579e+001 -3.750000e+000
      vertex  5.500000e+000  1.300000e+001 -3.750000e+000
    endloop
  endfacet
  facet normal  0.000000e+000  0.000000e+000 -1.000000e+000
    outer loop
      vertex -5.500000e+000  0.000000e+000 -3.750000e+000
      vertex -5.500000e+000  1.300000e+001 -3.750000e+000
      vertex -2.100000e+000  1.158579e+001 -3.750000e+000
    endloop
  endfacet
  facet normal  0.000000e+000  -0.000000e+000 -1.000000e+000
    outer loop
      vertex -5.500000e+000  0.000000e+000 -3.750000e+000
      vertex -2.100000e+000  1.158579e+001 -3.750000e+000
      vertex -2.100000e+000  5.000000e+000 -3.750000e+000
    endloop
  endfacet
  facet normal  0.000000e+000  -0.000000e+000 -1.000000e+000
    outer loop
      vertex -5.500000e+000  0.000000e+000 -3.750000e+000
      vertex -2.100000e+000  5.000000e+000 -3.750000e+000
      vertex -2.064244e+000  4.614126e+000 -3.750000e+000
    endloop
  endfacet
  facet normal  0.000000e+000  -0.000000e+000 -9.999999e-001
    outer loop
      vertex -5.500000e+000  0.000000e+000 -3.750000e+000
      vertex -2.064244e+000  4.614126e+000 -3.750000e+000
      vertex -1.958192e+000  4.241393e+000 -3.750000e+000
    endloop
  endfacet
  facet normal  0.000000e+000  -0.000000e+000 -9.999999e-001
    outer loop
      vertex -5.500000e+000  0.000000e+000 -3.750000e+000
      vertex -1.958192e+000  4.241393e+000 -3.750000e+000
      vertex -1.785456e+000  3.894492e+000 -3.750000e+000
    endloop
  endfacet
  facet normal  0.000000e+000  -0.000000e+000 -1.000000e+000
    outer loop
      vertex -5.500000e+000  0.000000e+000 -3.750000e+000
      vertex -1.785456e+000  3.894492e+000 -3.750000e+000
      vertex -1.551919e+000  3.585239e+000 -3.750000e+000
    endloop
  endfacet
  facet normal  0.000000e+000  -0.000000e+000 -1.000000e+000
    outer loop
      vertex -5.500000e+000  0.000000e+000 -3.750000e+000
      vertex -1.551919e+000  3.585239e+000 -3.750000e+000
      vertex -1.265533e+000  3.324164e+000 -3.750000e+000
    endloop
  endfacet
  facet normal  0.000000e+000  -0.000000e+000 -9.999999e-001
    outer loop
      vertex -5.500000e+000  0.000000e+000 -3.750000e+000
      vertex -1.265533e+000  3.324164e+000 -3.750000e+000
      vertex -9.360505e-001  3.120157e+000 -3.750000e+000
    endloop
  endfacet
  facet normal  0.000000e+000  -0.000000e+000 -1.000000e+000
    outer loop
      vertex -5.500000e+000  0.000000e+000 -3.750000e+000
      vertex -9.360505e-001  3.120157e+000 -3.750000e+000
      vertex -5.746923e-001  2.980166e+000 -3.750000e+000
    endloop
  endfacet
  facet normal  0.000000e+000  -0.000000e+000 -1.000000e+000
    outer loop
      vertex -5.500000e+000  0.000000e+000 -3.750000e+000
      vertex -5.746923e-001  2.980166e+000 -3.750000e+000
      vertex -1.937636e-001  2.908958e+000 -3.750000e+000
    endloop
  endfacet
  facet normal  -0.000000e+000  1.000000e+000  0.000000e+000
    outer loop
      vertex -7.500000e+000  1.300000e+001  1.750000e+000
      vertex -7.461571e+000  1.300000e+001  2.140181e+000
      vertex -7.347759e+000  1.300000e+001  2.515367e+000
    endloop
  endfacet
  facet normal  -0.000000e+000  1.000000e+000  0.000000e+000
    outer loop
      vertex -7.500000e+000  1.300000e+001  1.750000e+000
      vertex -7.347759e+000  1.300000e+001  2.515367e+000
      vertex -7.162939e+000  1.300000e+001  2.861140e+000
    endloop
  endfacet
  facet normal  -0.000000e+000  1.000000e+000  0.000000e+000
    outer loop
      vertex -7.500000e+000  1.300000e+001  1.750000e+000
      vertex -7.162939e+000  1.300000e+001  2.861140e+000
      vertex -6.914214e+000  1.300000e+001  3.164214e+000
    endloop
  endfacet
  facet normal  -0.000000e+000  1.000000e+000  0.000000e+000
    outer loop
      vertex -7.500000e+000  1.300000e+001  1.750000e+000
      vertex -6.914214e+000  1.300000e+001  3.164214e+000
      vertex -6.611140e+000  1.300000e+001  3.412939e+000
    endloop
  endfacet
  facet normal  -0.000000e+000  1.000000e+000  0.000000e+000
    outer loop
      vertex -7.500000e+000  1.300000e+001  1.750000e+000
      vertex -6.611140e+000  1.300000e+001  3.412939e+000
      vertex -6.265367e+000  1.300000e+001  3.597759e+000
    endloop
  endfacet
  facet normal  -0.000000e+000  1.000000e+000  0.000000e+000
    outer loop
      vertex -7.500000e+000  1.300000e+001  1.750000e+000
      vertex -6.265367e+000  1.300000e+001  3.597759e+000
      vertex -5.890181e+000  1.300000e+001  3.711571e+000
    endloop
  endfacet
  facet normal  -0.000000e+000  1.000000e+000  0.000000e+000
    outer loop
      vertex -7.500000e+000  1.300000e+001  1.750000e+000
      vertex -5.890181e+000  1.300000e+001  3.711571e+000
      vertex -5.500000e+000  1.300000e+001  3.750000e+000
    endloop
  endfacet
  facet normal  -0.000000e+000  1.000000e+000  0.000000e+000
    outer loop
      vertex -7.500000e+000  1.300000e+001  1.750000e+000
      vertex -5.500000e+000  1.300000e+001  3.750000e+000
      vertex -3.514214e+000  1.300000e+001  3.750000e+000
    endloop
  endfacet
  facet normal  0.000000e+000  1.000000e+000  0.000000e+000
    outer loop
      vertex -7.500000e+000  1.300000e+001  1.750000e+000
      vertex -3.514214e+000  1.300000e+001  3.750000e+000
      vertex -3.514214e+000  1.300000e+001 -3.750000e+000
    endloop
  endfacet
  facet normal  0.000000e+000  9.999999e-001  0.000000e+000
    outer loop
      vertex -7.500000e+000  1.300000e+001  1.750000e+000
      vertex -3.514214e+000  1.300000e+001 -3.750000e+000
      vertex -7.500000e+000  1.300000e+001 -1.750000e+000
    endloop
  endfacet
  facet normal  0.000000e+000  1.000000e+000  -0.000000e+000
    outer loop
      vertex -3.514214e+000  1.300000e+001 -3.750000e+000
      vertex -5.500000e+000  1.300000e+001 -3.750000e+000
      vertex -5.890181e+000  1.300000e+001 -3.711571e+000
    endloop
  endfacet
  facet normal  -0.000000e+000  1.000000e+000  -0.000000e+000
    outer loop
      vertex -3.514214e+000  1.300000e+001 -3.750000e+000
      vertex -5.890181e+000  1.300000e+001 -3.711571e+000
      vertex -6.265367e+000  1.300000e+001 -3.597759e+000
    endloop
  endfacet
  facet normal  -0.000000e+000  1.000000e+000  -0.000000e+000
    outer loop
      vertex -3.514214e+000  1.300000e+001 -3.750000e+000
      vertex -6.265367e+000  1.300000e+001 -3.597759e+000
      vertex -6.611140e+000  1.300000e+001 -3.412939e+000
    endloop
  endfacet
  facet normal  -0.000000e+000  1.000000e+000  -0.000000e+000
    outer loop
      vertex -3.514214e+000  1.300000e+001 -3.750000e+000
      vertex -6.611140e+000  1.300000e+001 -3.412939e+000
      vertex -6.914214e+000  1.300000e+001 -3.164214e+000
    endloop
  endfacet
  facet normal  -0.000000e+000  1.000000e+000  -0.000000e+000
    outer loop
      vertex -3.514214e+000  1.300000e+001 -3.750000e+000
      vertex -6.914214e+000  1.300000e+001 -3.164214e+000
      vertex -7.162939e+000  1.300000e+001 -2.861140e+000
    endloop
  endfacet
  facet normal  -0.000000e+000  1.000000e+000  -0.000000e+000
    outer loop
      vertex -3.514214e+000  1.300000e+001 -3.750000e+000
      vertex -7.162939e+000  1.300000e+001 -2.861140e+000
      vertex -7.347759e+000  1.300000e+001 -2.515367e+000
    endloop
  endfacet
  facet normal  -0.000000e+000  1.000000e+000  -0.000000e+000
    outer loop
      vertex -3.514214e+000  1.300000e+001 -3.750000e+000
      vertex -7.347759e+000  1.300000e+001 -2.515367e+000
      vertex -7.461571e+000  1.300000e+001 -2.140181e+000
    endloop
  endfacet
  facet normal  -0.000000e+000  1.000000e+000  -0.000000e+000
    outer loop
      vertex -3.514214e+000  1.300000e+001 -3.750000e+000
      vertex -7.461571e+000  1.300000e+001 -2.140181e+000
      vertex -7.500000e+000  1.300000e+001 -1.750000e+000
    endloop
  endfacet
  facet normal  0.000000e+000  9.999999e-001  -0.000000e+000
    outer loop
      vertex  7.500000e+000  1.300000e+001  1.750000e+000
      vertex  7.500000e+000  1.300000e+001 -1.750000e+000
      vertex  3.514214e+000  1.300000e+001 -3.750000e+000
    endloop
  endfacet
  facet normal  0.000000e+000  1.000000e+000  0.000000e+000
    outer loop
      vertex  7.500000e+000  1.300000e+001  1.750000e+000
      vertex  3.514214e+000  1.300000e+001 -3.750000e+000
      vertex  3.514214e+000  1.300000e+001  3.750000e+000
    endloop
  endfacet
  facet normal  -0.000000e+000  1.000000e+000  0.000000e+000
    outer loop
      vertex  7.500000e+000  1.300000e+001  1.750000e+000
      vertex  3.514214e+000  1.300000e+001  3.750000e+000
      vertex  5.500000e+000  1.300000e+001  3.750000e+000
    endloop
  endfacet
  facet normal  0.000000e+000  1.000000e+000  0.000000e+000
    outer loop
      vertex  7.500000e+000  1.300000e+001  1.750000e+000
      vertex  5.500000e+000  1.300000e+001  3.750000e+000
      vertex  5.890181e+000  1.300000e+001  3.711571e+000
    endloop
  endfacet
  facet normal  0.000000e+000  1.000000e+000  0.000000e+000
    outer loop
      vertex  7.500000e+000  1.300000e+001  1.750000e+000
      vertex  5.890181e+000  1.300000e+001  3.711571e+000
      vertex  6.265367e+000  1.300000e+001  3.597759e+000
    endloop
  endfacet
  facet normal  0.000000e+000  1.000000e+000  0.000000e+000
    outer loop
      vertex  7.500000e+000  1.300000e+001  1.750000e+000
      vertex  6.265367e+000  1.300000e+001  3.597759e+000
      vertex  6.611140e+000  1.300000e+001  3.412939e+000
    endloop
  endfacet
  facet normal  0.000000e+000  1.000000e+000  0.000000e+000
    outer loop
      vertex  7.500000e+000  1.300000e+001  1.750000e+000
      vertex  6.611140e+000  1.300000e+001  3.412939e+000
      vertex  6.914214e+000  1.300000e+001  3.164214e+000
    endloop
  endfacet
  facet normal  0.000000e+000  1.000000e+000  0.000000e+000
    outer loop
      vertex  7.500000e+000  1.300000e+001  1.750000e+000
      vertex  6.914214e+000  1.300000e+001  3.164214e+000
      vertex  7.162939e+000  1.300000e+001  2.861140e+000
    endloop
  endfacet
  facet normal  0.000000e+000  1.000000e+000  0.000000e+000
    outer loop
      vertex  7.500000e+000  1.300000e+001  1.750000e+000
      vertex  7.162939e+000  1.300000e+001  2.861140e+000
      vertex  7.347759e+000  1.300000e+001  2.515367e+000
    endloop
  endfacet
  facet normal  0.000000e+000  1.000000e+000  0.000000e+000
    outer loop
      vertex  7.500000e+000  1.300000e+001  1.750000e+000
      vertex  7.347759e+000  1.300000e+001  2.515367e+000
      vertex  7.461571e+000  1.300000e+001  2.140181e+000
    endloop
  endfacet
  facet normal  0.000000e+000  1.000000e+000  0.000000e+000
    outer loop
      vertex  3.514214e+000  1.300000e+001 -3.750000e+000
      vertex  7.500000e+000  1.300000e+001 -1.750000e+000
      vertex  7.461571e+000  1.300000e+001 -2.140181e+000
    endloop
  endfacet
  facet normal  0.000000e+000  1.000000e+000  0.000000e+000
    outer loop
      vertex  3.514214e+000  1.300000e+001 -3.750000e+000
      vertex  7.461571e+000  1.300000e+001 -2.140181e+000
      vertex  7.347759e+000  1.300000e+001 -2.515367e+000
    endloop
  endfacet
  facet normal  0.000000e+000  1.000000e+000  0.000000e+000
    outer loop
      vertex  3.514214e+000  1.300000e+001 -3.750000e+000
      vertex  7.347759e+000  1.300000e+001 -2.515367e+000
      vertex  7.162939e+000  1.300000e+001 -2.861140e+000
    endloop
  endfacet
  facet normal  0.000000e+000  1.000000e+000  0.000000e+000
    outer loop
      vertex  3.514214e+000  1.300000e+001 -3.750000e+000
      vertex  7.162939e+000  1.300000e+001 -2.861140e+000
      vertex  6.914214e+000  1.300000e+001 -3.164214e+000
    endloop
  endfacet
  facet normal  0.000000e+000  1.000000e+000  0.000000e+000
    outer loop
      vertex  3.514214e+000  1.300000e+001 -3.750000e+000
      vertex  6.914214e+000  1.300000e+001 -3.164214e+000
      vertex  6.611140e+000  1.300000e+001 -3.412939e+000
    endloop
  endfacet
  facet normal  0.000000e+000  1.000000e+000  0.000000e+000
    outer loop
      vertex  3.514214e+000  1.300000e+001 -3.750000e+000
      vertex  6.611140e+000  1.300000e+001 -3.412939e+000
      vertex  6.265367e+000  1.300000e+001 -3.597759e+000
    endloop
  endfacet
  facet normal  0.000000e+000  1.000000e+000  0.000000e+000
    outer loop
      vertex  3.514214e+000  1.300000e+001 -3.750000e+000
      vertex  6.265367e+000  1.300000e+001 -3.597759e+000
      vertex  5.890181e+000  1.300000e+001 -3.711571e+000
    endloop
  endfacet
  facet normal  0.000000e+000  1.000000e+000  0.000000e+000
    outer loop
      vertex  3.514214e+000  1.300000e+001 -3.750000e+000
      vertex  5.890181e+000  1.300000e+001 -3.711571e+000
      vertex  5.500000e+000  1.300000e+001 -3.750000e+000
    endloop
  endfacet
  facet normal -7.071066e-001  7.071069e-001  0.000000e+000
    outer loop
      vertex  2.100000e+000  1.158579e+001  3.750000e+000
      vertex  3.514214e+000  1.300000e+001  3.750000e+000
      vertex  2.100000e+000  1.158579e+001 -3.750000e+000
    endloop
  endfacet
  facet normal -7.071066e-001  7.071069e-001  0.000000e+000
    outer loop
      vertex  2.100000e+000  1.158579e+001 -3.750000e+000
      vertex  3.514214e+000  1.300000e+001  3.750000e+000
      vertex  3.514214e+000  1.300000e+001 -3.750000e+000
    endloop
  endfacet
  facet normal  7.071066e-001  7.071069e-001  0.000000e+000
    outer loop
      vertex -3.514214e+000  1.300000e+001  3.750000e+000
      vertex -2.100000e+000  1.158579e+001  3.750000e+000
      vertex -3.514214e+000  1.300000e+001 -3.750000e+000
    endloop
  endfacet
  facet normal  7.071066e-001  7.071069e-001  0.000000e+000
    outer loop
      vertex -3.514214e+000  1.300000e+001 -3.750000e+000
      vertex -2.100000e+000  1.158579e+001  3.750000e+000
      vertex -2.100000e+000  1.158579e+001 -3.750000e+000
    endloop
  endfacet
  facet normal  1.000000e+000  -0.000000e+000  0.000000e+000
    outer loop
      vertex -2.100000e+000  1.158579e+001  3.750000e+000
      vertex -2.100000e+000  5.000000e+000  3.750000e+000
      vertex -2.100000e+000  1.158579e+001 -3.750000e+000
    endloop
  endfacet
  facet normal  1.000000e+000  0.000000e+000  0.000000e+000
    outer loop
      vertex -2.100000e+000  1.158579e+001 -3.750000e+000
      vertex -2.100000e+000  5.000000e+000  3.750000e+000
      vertex -2.100000e+000  5.000000e+000 -3.750000e+000
    endloop
  endfacet
  facet normal -9.957343e-001  9.226805e-002  0.000000e+000
    outer loop
      vertex  2.100000e+000  5.000000e+000  3.750000e+000
      vertex  2.100000e+000  5.000000e+000 -3.750000e+000
      vertex  2.064244e+000  4.614126e+000  3.750000e+000
    endloop
  endfacet
  facet normal -9.957343e-001  9.226805e-002  0.000000e+000
    outer loop
      vertex  2.064244e+000  4.614126e+000  3.750000e+000
      vertex  2.100000e+000  5.000000e+000 -3.750000e+000
      vertex  2.064244e+000  4.614126e+000 -3.750000e+000
    endloop
  endfacet
  facet normal -9.618255e-001  2.736632e-001  0.000000e+000
    outer loop
      vertex  2.064244e+000  4.614126e+000  3.750000e+000
      vertex  2.064244e+000  4.614126e+000 -3.750000e+000
      vertex  1.958192e+000  4.241393e+000  3.750000e+000
    endloop
  endfacet
  facet normal -9.618255e-001  2.736632e-001  0.000000e+000
    outer loop
      vertex  1.958192e+000  4.241393e+000  3.750000e+000
      vertex  2.064244e+000  4.614126e+000 -3.750000e+000
      vertex  1.958192e+000  4.241393e+000 -3.750000e+000
    endloop
  endfacet
  facet normal -8.951634e-001  4.457381e-001  0.000000e+000
    outer loop
      vertex  1.958192e+000  4.241393e+000  3.750000e+000
      vertex  1.958192e+000  4.241393e+000 -3.750000e+000
      vertex  1.785456e+000  3.894492e+000  3.750000e+000
    endloop
  endfacet
  facet normal -8.951634e-001  4.457381e-001  0.000000e+000
    outer loop
      vertex  1.785456e+000  3.894492e+000  3.750000e+000
      vertex  1.958192e+000  4.241393e+000 -3.750000e+000
      vertex  1.785456e+000  3.894492e+000 -3.750000e+000
    endloop
  endfacet
  facet normal -7.980173e-001  6.026347e-001  0.000000e+000
    outer loop
      vertex  1.785456e+000  3.894492e+000  3.750000e+000
      vertex  1.785456e+000  3.894492e+000 -3.750000e+000
      vertex  1.551919e+000  3.585239e+000  3.750000e+000
    endloop
  endfacet
  facet normal -7.980173e-001  6.026347e-001  0.000000e+000
    outer loop
      vertex  1.551919e+000  3.585239e+000  3.750000e+000
      vertex  1.785456e+000  3.894492e+000 -3.750000e+000
      vertex  1.551919e+000  3.585239e+000 -3.750000e+000
    endloop
  endfacet
  facet normal -6.736955e-001  7.390090e-001  0.000000e+000
    outer loop
      vertex  1.551919e+000  3.585239e+000  3.750000e+000
      vertex  1.551919e+000  3.585239e+000 -3.750000e+000
      vertex  1.265533e+000  3.324164e+000  3.750000e+000
    endloop
  endfacet
  facet normal -6.736955e-001  7.390090e-001  0.000000e+000
    outer loop
      vertex  1.265533e+000  3.324164e+000  3.750000e+000
      vertex  1.551919e+000  3.585239e+000 -3.750000e+000
      vertex  1.265533e+000  3.324164e+000 -3.750000e+000
    endloop
  endfacet
  facet normal -5.264325e-001  8.502169e-001  0.000000e+000
    outer loop
      vertex  1.265533e+000  3.324164e+000  3.750000e+000
      vertex  1.265533e+000  3.324164e+000 -3.750000e+000
      vertex  9.360505e-001  3.120157e+000  3.750000e+000
    endloop
  endfacet
  facet normal -5.264325e-001  8.502169e-001  0.000000e+000
    outer loop
      vertex  9.360505e-001  3.120157e+000  3.750000e+000
      vertex  1.265533e+000  3.324164e+000 -3.750000e+000
      vertex  9.360505e-001  3.120157e+000 -3.750000e+000
    endloop
  endfacet
  facet normal -3.612414e-001  9.324723e-001  0.000000e+000
    outer loop
      vertex  9.360505e-001  3.120157e+000  3.750000e+000
      vertex  9.360505e-001  3.120157e+000 -3.750000e+000
      vertex  5.746923e-001  2.980166e+000  3.750000e+000
    endloop
  endfacet
  facet normal -3.612414e-001  9.324723e-001  0.000000e+000
    outer loop
      vertex  5.746923e-001  2.980166e+000  3.750000e+000
      vertex  9.360505e-001  3.120157e+000 -3.750000e+000
      vertex  5.746923e-001  2.980166e+000 -3.750000e+000
    endloop
  endfacet
  facet normal -1.837497e-001  9.829730e-001  0.000000e+000
    outer loop
      vertex  5.746923e-001  2.980166e+000  3.750000e+000
      vertex  5.746923e-001  2.980166e+000 -3.750000e+000
      vertex  1.937636e-001  2.908958e+000  3.750000e+000
    endloop
  endfacet
  facet normal -1.837497e-001  9.829730e-001  0.000000e+000
    outer loop
      vertex  1.937636e-001  2.908958e+000  3.750000e+000
      vertex  5.746923e-001  2.980166e+000 -3.750000e+000
      vertex  1.937636e-001  2.908958e+000 -3.750000e+000
    endloop
  endfacet
  facet normal  0.000000e+000  1.000000e+000  -0.000000e+000
    outer loop
      vertex  1.937636e-001  2.908958e+000  3.750000e+000
      vertex  1.937636e-001  2.908958e+000 -3.750000e+000
      vertex -1.937636e-001  2.908958e+000  3.750000e+000
    endloop
  endfacet
  facet normal  0.000000e+000  1.000000e+000  0.000000e+000
    outer loop
      vertex -1.937636e-001  2.908958e+000  3.750000e+000
      vertex  1.937636e-001  2.908958e+000 -3.750000e+000
      vertex -1.937636e-001  2.908958e+000 -3.750000e+000
    endloop
  endfacet
  facet normal  1.837497e-001  9.829730e-001  -0.000000e+000
    outer loop
      vertex -1.937636e-001  2.908958e+000  3.750000e+000
      vertex -1.937636e-001  2.908958e+000 -3.750000e+000
      vertex -5.746923e-001  2.980166e+000  3.750000e+000
    endloop
  endfacet
  facet normal  1.837497e-001  9.829730e-001  0.000000e+000
    outer loop
      vertex -5.746923e-001  2.980166e+000  3.750000e+000
      vertex -1.937636e-001  2.908958e+000 -3.750000e+000
      vertex -5.746923e-001  2.980166e+000 -3.750000e+000
    endloop
  endfacet
  facet normal  3.612414e-001  9.324723e-001  -0.000000e+000
    outer loop
      vertex -5.746923e-001  2.980166e+000  3.750000e+000
      vertex -5.746923e-001  2.980166e+000 -3.750000e+000
      vertex -9.360505e-001  3.120157e+000  3.750000e+000
    endloop
  endfacet
  facet normal  3.612414e-001  9.324723e-001  0.000000e+000
    outer loop
      vertex -9.360505e-001  3.120157e+000  3.750000e+000
      vertex -5.746923e-001  2.980166e+000 -3.750000e+000
      vertex -9.360505e-001  3.120157e+000 -3.750000e+000
    endloop
  endfacet
  facet normal  5.264325e-001  8.502169e-001  -0.000000e+000
    outer loop
      vertex -9.360505e-001  3.120157e+000  3.750000e+000
      vertex -9.360505e-001  3.120157e+000 -3.750000e+000
      vertex -1.265533e+000  3.324164e+000  3.750000e+000
    endloop
  endfacet
  facet normal  5.264325e-001  8.502169e-001  0.000000e+000
    outer loop
      vertex -1.265533e+000  3.324164e+000  3.750000e+000
      vertex -9.360505e-001  3.120157e+000 -3.750000e+000
      vertex -1.265533e+000  3.324164e+000 -3.750000e+000
    endloop
  endfacet
  facet normal  6.736955e-001  7.390090e-001  -0.000000e+000
    outer loop
      vertex -1.265533e+000  3.324164e+000  3.750000e+000
      vertex -1.265533e+000  3.324164e+000 -3.750000e+000
      vertex -1.551919e+000  3.585239e+000  3.750000e+000
    endloop
  endfacet
  facet normal  6.736955e-001  7.390090e-001  0.000000e+000
    outer loop
      vertex -1.551919e+000  3.585239e+000  3.750000e+000
      vertex -1.265533e+000  3.324164e+000 -3.750000e+000
      vertex -1.551919e+000  3.585239e+000 -3.750000e+000
    endloop
  endfacet
  facet normal  7.980173e-001  6.026347e-001  -0.000000e+000
    outer loop
      vertex -1.551919e+000  3.585239e+000  3.750000e+000
      vertex -1.551919e+000  3.585239e+000 -3.750000e+000
      vertex -1.785456e+000  3.894492e+000  3.750000e+000
    endloop
  endfacet
  facet normal  7.980173e-001  6.026347e-001  0.000000e+000
    outer loop
      vertex -1.785456e+000  3.894492e+000  3.750000e+000
      vertex -1.551919e+000  3.585239e+000 -3.750000e+000
      vertex -1.785456e+000  3.894492e+000 -3.750000e+000
    endloop
  endfacet
  facet normal  8.951634e-001  4.457381e-001  -0.000000e+000
    outer loop
      vertex -1.785456e+000  3.894492e+000  3.750000e+000
      vertex -1.785456e+000  3.894492e+000 -3.750000e+000
      vertex -1.958192e+000  4.241393e+000  3.750000e+000
    endloop
  endfacet
  facet normal  8.951634e-001  4.457381e-001  0.000000e+000
    outer loop
      vertex -1.958192e+000  4.241393e+000  3.750000e+000
      vertex -1.785456e+000  3.894492e+000 -3.750000e+000
      vertex -1.958192e+000  4.241393e+000 -3.750000e+000
    endloop
  endfacet
  facet normal  9.618255e-001  2.736632e-001  -0.000000e+000
    outer loop
      vertex -1.958192e+000  4.241393e+000  3.750000e+000
      vertex -1.958192e+000  4.241393e+000 -3.750000e+000
      vertex -2.064244e+000  4.614126e+000  3.750000e+000
    endloop
  endfacet
  facet normal  9.618255e-001  2.736632e-001  0.000000e+000
    outer loop
      vertex -2.064244e+000  4.614126e+000  3.750000e+000
      vertex -1.958192e+000  4.241393e+000 -3.750000e+000
      vertex -2.064244e+000  4.614126e+000 -3.750000e+000
    endloop
  endfacet
  facet normal  9.957343e-001  9.226805e-002  -0.000000e+000
    outer loop
      vertex -2.064244e+000  4.614126e+000  3.750000e+000
      vertex -2.064244e+000  4.614126e+000 -3.750000e+000
      vertex -2.100000e+000  5.000000e+000  3.750000e+000
    endloop
  endfacet
  facet normal  9.957343e-001  9.226805e-002  0.000000e+000
    outer loop
      vertex -2.100000e+000  5.000000e+000  3.750000e+000
      vertex -2.064244e+000  4.614126e+000 -3.750000e+000
      vertex -2.100000e+000  5.000000e+000 -3.750000e+000
    endloop
  endfacet
  facet normal -1.000000e+000  -0.000000e+000  0.000000e+000
    outer loop
      vertex  2.100000e+000  5.000000e+000  3.750000e+000
      vertex  2.100000e+000  1.158579e+001  3.750000e+000
      vertex  2.100000e+000  5.000000e+000 -3.750000e+000
    endloop
  endfacet
  facet normal -1.000000e+000  0.000000e+000  0.000000e+000
    outer loop
      vertex  2.100000e+000  5.000000e+000 -3.750000e+000
      vertex  2.100000e+000  1.158579e+001  3.750000e+000
      vertex  2.100000e+000  1.158579e+001 -3.750000e+000
    endloop
  endfacet
  facet normal -9.951848e-001  -0.000000e+000 -9.801670e-002
    outer loop
      vertex -7.500000e+000  0.000000e+000 -1.750000e+000
      vertex -7.500000e+000  1.300000e+001 -1.750000e+000
      vertex -7.461571e+000  0.000000e+000 -2.140181e+000
    endloop
  endfacet
  facet normal -9.951848e-001  0.000000e+000 -9.801670e-002
    outer loop
      vertex -7.461571e+000  0.000000e+000 -2.140181e+000
      vertex -7.500000e+000  1.300000e+001 -1.750000e+000
      vertex -7.461571e+000  1.300000e+001 -2.140181e+000
    endloop
  endfacet
  facet normal -9.569403e-001  -0.000000e+000 -2.902847e-001
    outer loop
      vertex -7.461571e+000  0.000000e+000 -2.140181e+000
      vertex -7.461571e+000  1.300000e+001 -2.140181e+000
      vertex -7.347759e+000  0.000000e+000 -2.515367e+000
    endloop
  endfacet
  facet normal -9.569403e-001  0.000000e+000 -2.902847e-001
    outer loop
      vertex -7.347759e+000  0.000000e+000 -2.515367e+000
      vertex -7.461571e+000  1.300000e+001 -2.140181e+000
      vertex -7.347759e+000  1.300000e+001 -2.515367e+000
    endloop
  endfacet
  facet normal -8.819210e-001  -0.000000e+000 -4.713973e-001
    outer loop
      vertex -7.347759e+000  0.000000e+000 -2.515367e+000
      vertex -7.347759e+000  1.300000e+001 -2.515367e+000
      vertex -7.162939e+000  0.000000e+000 -2.861140e+000
    endloop
  endfacet
  facet normal -8.819210e-001  0.000000e+000 -4.713973e-001
    outer loop
      vertex -7.162939e+000  0.000000e+000 -2.861140e+000
      vertex -7.347759e+000  1.300000e+001 -2.515367e+000
      vertex -7.162939e+000  1.300000e+001 -2.861140e+000
    endloop
  endfacet
  facet normal -7.730108e-001  -0.000000e+000 -6.343928e-001
    outer loop
      vertex -7.162939e+000  0.000000e+000 -2.861140e+000
      vertex -7.162939e+000  1.300000e+001 -2.861140e+000
      vertex -6.914214e+000  0.000000e+000 -3.164214e+000
    endloop
  endfacet
  facet normal -7.730108e-001  0.000000e+000 -6.343928e-001
    outer loop
      vertex -6.914214e+000  0.000000e+000 -3.164214e+000
      vertex -7.162939e+000  1.300000e+001 -2.861140e+000
      vertex -6.914214e+000  1.300000e+001 -3.164214e+000
    endloop
  endfacet
  facet normal -6.343929e-001  -0.000000e+000 -7.730108e-001
    outer loop
      vertex -6.914214e+000  0.000000e+000 -3.164214e+000
      vertex -6.914214e+000  1.300000e+001 -3.164214e+000
      vertex -6.611140e+000  0.000000e+000 -3.412939e+000
    endloop
  endfacet
  facet normal -6.343929e-001  0.000000e+000 -7.730108e-001
    outer loop
      vertex -6.611140e+000  0.000000e+000 -3.412939e+000
      vertex -6.914214e+000  1.300000e+001 -3.164214e+000
      vertex -6.611140e+000  1.300000e+001 -3.412939e+000
    endloop
  endfacet
  facet normal -4.713969e-001  -0.000000e+000 -8.819212e-001
    outer loop
      vertex -6.611140e+000  0.000000e+000 -3.412939e+000
      vertex -6.611140e+000  1.300000e+001 -3.412939e+000
      vertex -6.265367e+000  0.000000e+000 -3.597759e+000
    endloop
  endfacet
  facet normal -4.713969e-001  0.000000e+000 -8.819212e-001
    outer loop
      vertex -6.265367e+000  0.000000e+000 -3.597759e+000
      vertex -6.611140e+000  1.300000e+001 -3.412939e+000
      vertex -6.265367e+000  1.300000e+001 -3.597759e+000
    endloop
  endfacet
  facet normal -2.902845e-001  -0.000000e+000 -9.569404e-001
    outer loop
      vertex -6.265367e+000  0.000000e+000 -3.597759e+000
      vertex -6.265367e+000  1.300000e+001 -3.597759e+000
      vertex -5.890181e+000  0.000000e+000 -3.711571e+000
    endloop
  endfacet
  facet normal -2.902845e-001  0.000000e+000 -9.569404e-001
    outer loop
      vertex -5.890181e+000  0.000000e+000 -3.711571e+000
      vertex -6.265367e+000  1.300000e+001 -3.597759e+000
      vertex -5.890181e+000  1.300000e+001 -3.711571e+000
    endloop
  endfacet
  facet normal -9.801731e-002  -0.000000e+000 -9.951848e-001
    outer loop
      vertex -5.890181e+000  0.000000e+000 -3.711571e+000
      vertex -5.890181e+000  1.300000e+001 -3.711571e+000
      vertex -5.500000e+000  0.000000e+000 -3.750000e+000
    endloop
  endfacet
  facet normal -9.801731e-002  0.000000e+000 -9.951848e-001
    outer loop
      vertex -5.500000e+000  0.000000e+000 -3.750000e+000
      vertex -5.890181e+000  1.300000e+001 -3.711571e+000
      vertex -5.500000e+000  1.300000e+001 -3.750000e+000
    endloop
  endfacet
  facet normal  9.801731e-002  0.000000e+000 -9.951848e-001
    outer loop
      vertex  5.500000e+000  0.000000e+000 -3.750000e+000
      vertex  5.500000e+000  1.300000e+001 -3.750000e+000
      vertex  5.890181e+000  0.000000e+000 -3.711571e+000
    endloop
  endfacet
  facet normal  9.801731e-002  0.000000e+000 -9.951848e-001
    outer loop
      vertex  5.890181e+000  0.000000e+000 -3.711571e+000
      vertex  5.500000e+000  1.300000e+001 -3.750000e+000
      vertex  5.890181e+000  1.300000e+001 -3.711571e+000
    endloop
  endfacet
  facet normal  2.902845e-001  0.000000e+000 -9.569404e-001
    outer loop
      vertex  5.890181e+000  0.000000e+000 -3.711571e+000
      vertex  5.890181e+000  1.300000e+001 -3.711571e+000
      vertex  6.265367e+000  0.000000e+000 -3.597759e+000
    endloop
  endfacet
  facet normal  2.902845e-001  0.000000e+000 -9.569404e-001
    outer loop
      vertex  6.265367e+000  0.000000e+000 -3.597759e+000
      vertex  5.890181e+000  1.300000e+001 -3.711571e+000
      vertex  6.265367e+000  1.300000e+001 -3.597759e+000
    endloop
  endfacet
  facet normal  4.713969e-001  0.000000e+000 -8.819212e-001
    outer loop
      vertex  6.265367e+000  0.000000e+000 -3.597759e+000
      vertex  6.265367e+000  1.300000e+001 -3.597759e+000
      vertex  6.611140e+000  0.000000e+000 -3.412939e+000
    endloop
  endfacet
  facet normal  4.713969e-001  0.000000e+000 -8.819212e-001
    outer loop
      vertex  6.611140e+000  0.000000e+000 -3.412939e+000
      vertex  6.265367e+000  1.300000e+001 -3.597759e+000
      vertex  6.611140e+000  1.300000e+001 -3.412939e+000
    endloop
  endfacet
  facet normal  6.343929e-001  0.000000e+000 -7.730108e-001
    outer loop
      vertex  6.611140e+000  0.000000e+000 -3.412939e+000
      vertex  6.611140e+000  1.300000e+001 -3.412939e+000
      vertex  6.914214e+000  0.000000e+000 -3.164214e+000
    endloop
  endfacet
  facet normal  6.343929e-001  0.000000e+000 -7.730108e-001
    outer loop
      vertex  6.914214e+000  0.000000e+000 -3.164214e+000
      vertex  6.611140e+000  1.300000e+001 -3.412939e+000
      vertex  6.914214e+000  1.300000e+001 -3.164214e+000
    endloop
  endfacet
  facet normal  7.730108e-001  0.000000e+000 -6.343928e-001
    outer loop
      vertex  6.914214e+000  0.000000e+000 -3.164214e+000
      vertex  6.914214e+000  1.300000e+001 -3.164214e+000
      vertex  7.162939e+000  0.000000e+000 -2.861140e+000
    endloop
  endfacet
  facet normal  7.730108e-001  0.000000e+000 -6.343928e-001
    outer loop
      vertex  7.162939e+000  0.000000e+000 -2.861140e+000
      vertex  6.914214e+000  1.300000e+001 -3.164214e+000
      vertex  7.162939e+000  1.300000e+001 -2.861140e+000
    endloop
  endfacet
  facet normal  8.819210e-001  0.000000e+000 -4.713973e-001
    outer loop
      vertex  7.162939e+000  0.000000e+000 -2.861140e+000
      vertex  7.162939e+000  1.300000e+001 -2.861140e+000
      vertex  7.347759e+000  0.000000e+000 -2.515367e+000
    endloop
  endfacet
  facet normal  8.819210e-001  0.000000e+000 -4.713973e-001
    outer loop
      vertex  7.347759e+000  0.000000e+000 -2.515367e+000
      vertex  7.162939e+000  1.300000e+001 -2.861140e+000
      vertex  7.347759e+000  1.300000e+001 -2.515367e+000
    endloop
  endfacet
  facet normal  9.569403e-001  0.000000e+000 -2.902847e-001
    outer loop
      vertex  7.347759e+000  0.000000e+000 -2.515367e+000
      vertex  7.347759e+000  1.300000e+001 -2.515367e+000
      vertex  7.461571e+000  0.000000e+000 -2.140181e+000
    endloop
  endfacet
  facet normal  9.569403e-001  0.000000e+000 -2.902847e-001
    outer loop
      vertex  7.461571e+000  0.000000e+000 -2.140181e+000
      vertex  7.347759e+000  1.300000e+001 -2.515367e+000
      vertex  7.461571e+000  1.300000e+001 -2.140181e+000
    endloop
  endfacet
  facet normal  9.951848e-001  0.000000e+000 -9.801670e-002
    outer loop
      vertex  7.461571e+000  0.000000e+000 -2.140181e+000
      vertex  7.461571e+000  1.300000e+001 -2.140181e+000
      vertex  7.500000e+000  0.000000e+000 -1.750000e+000
    endloop
  endfacet
  facet normal  9.951848e-001  0.000000e+000 -9.801670e-002
    outer loop
      vertex  7.500000e+000  0.000000e+000 -1.750000e+000
      vertex  7.461571e+000  1.300000e+001 -2.140181e+000
      vertex  7.500000e+000  1.300000e+001 -1.750000e+000
    endloop
  endfacet
  facet normal  9.951848e-001  0.000000e+000  9.801670e-002
    outer loop
      vertex  7.500000e+000 -5.000000e+000  1.750000e+000
      vertex  7.500000e+000  1.300000e+001  1.750000e+000
      vertex  7.461571e+000 -5.000000e+000  2.140181e+000
    endloop
  endfacet
  facet normal  9.951848e-001  -0.000000e+000  9.801670e-002
    outer loop
      vertex  7.461571e+000 -5.000000e+000  2.140181e+000
      vertex  7.500000e+000  1.300000e+001  1.750000e+000
      vertex  7.461571e+000  1.300000e+001  2.140181e+000
    endloop
  endfacet
  facet normal  9.569404e-001  0.000000e+000  2.902847e-001
    outer loop
      vertex  7.461571e+000 -5.000000e+000  2.140181e+000
      vertex  7.461571e+000  1.300000e+001  2.140181e+000
      vertex  7.347759e+000 -5.000000e+000  2.515367e+000
    endloop
  endfacet
  facet normal  9.569404e-001  -0.000000e+000  2.902847e-001
    outer loop
      vertex  7.347759e+000 -5.000000e+000  2.515367e+000
      vertex  7.461571e+000  1.300000e+001  2.140181e+000
      vertex  7.347759e+000  1.300000e+001  2.515367e+000
    endloop
  endfacet
  facet normal  8.819209e-001  0.000000e+000  4.713973e-001
    outer loop
      vertex  7.347759e+000 -5.000000e+000  2.515367e+000
      vertex  7.347759e+000  1.300000e+001  2.515367e+000
      vertex  7.162939e+000 -5.000000e+000  2.861140e+000
    endloop
  endfacet
  facet normal  8.819209e-001  -0.000000e+000  4.713973e-001
    outer loop
      vertex  7.162939e+000 -5.000000e+000  2.861140e+000
      vertex  7.347759e+000  1.300000e+001  2.515367e+000
      vertex  7.162939e+000  1.300000e+001  2.861140e+000
    endloop
  endfacet
  facet normal  7.730108e-001  0.000000e+000  6.343929e-001
    outer loop
      vertex  7.162939e+000 -5.000000e+000  2.861140e+000
      vertex  7.162939e+000  1.300000e+001  2.861140e+000
      vertex  6.914214e+000 -5.000000e+000  3.164214e+000
    endloop
  endfacet
  facet normal  7.730108e-001  -0.000000e+000  6.343929e-001
    outer loop
      vertex  6.914214e+000 -5.000000e+000  3.164214e+000
      vertex  7.162939e+000  1.300000e+001  2.861140e+000
      vertex  6.914214e+000  1.300000e+001  3.164214e+000
    endloop
  endfacet
  facet normal  6.343929e-001  0.000000e+000  7.730108e-001
    outer loop
      vertex  6.914214e+000 -5.000000e+000  3.164214e+000
      vertex  6.914214e+000  1.300000e+001  3.164214e+000
      vertex  6.611140e+000 -5.000000e+000  3.412939e+000
    endloop
  endfacet
  facet normal  6.343929e-001  -0.000000e+000  7.730108e-001
    outer loop
      vertex  6.611140e+000 -5.000000e+000  3.412939e+000
      vertex  6.914214e+000  1.300000e+001  3.164214e+000
      vertex  6.611140e+000  1.300000e+001  3.412939e+000
    endloop
  endfacet
  facet normal  4.713969e-001  0.000000e+000  8.819212e-001
    outer loop
      vertex  6.611140e+000 -5.000000e+000  3.412939e+000
      vertex  6.611140e+000  1.300000e+001  3.412939e+000
      vertex  6.265367e+000 -5.000000e+000  3.597759e+000
    endloop
  endfacet
  facet normal  4.713969e-001  -0.000000e+000  8.819212e-001
    outer loop
      vertex  6.265367e+000 -5.000000e+000  3.597759e+000
      vertex  6.611140e+000  1.300000e+001  3.412939e+000
      vertex  6.265367e+000  1.300000e+001  3.597759e+000
    endloop
  endfacet
  facet normal  2.902845e-001  0.000000e+000  9.569404e-001
    outer loop
      vertex  6.265367e+000 -5.000000e+000  3.597759e+000
      vertex  6.265367e+000  1.300000e+001  3.597759e+000
      vertex  5.890181e+000 -5.000000e+000  3.711571e+000
    endloop
  endfacet
  facet normal  2.902845e-001  -0.000000e+000  9.569404e-001
    outer loop
      vertex  5.890181e+000 -5.000000e+000  3.711571e+000
      vertex  6.265367e+000  1.300000e+001  3.597759e+000
      vertex  5.890181e+000  1.300000e+001  3.711571e+000
    endloop
  endfacet
  facet normal  9.801730e-002  0.000000e+000  9.951847e-001
    outer loop
      vertex  5.890181e+000 -5.000000e+000  3.711571e+000
      vertex  5.890181e+000  1.300000e+001  3.711571e+000
      vertex  5.500000e+000 -5.000000e+000  3.750000e+000
    endloop
  endfacet
  facet normal  9.801730e-002  -0.000000e+000  9.951847e-001
    outer loop
      vertex  5.500000e+000 -5.000000e+000  3.750000e+000
      vertex  5.890181e+000  1.300000e+001  3.711571e+000
      vertex  5.500000e+000  1.300000e+001  3.750000e+000
    endloop
  endfacet
  facet normal -9.801730e-002  0.000000e+000  9.951847e-001
    outer loop
      vertex -5.500000e+000 -5.000000e+000  3.750000e+000
      vertex -5.500000e+000  1.300000e+001  3.750000e+000
      vertex -5.890181e+000 -5.000000e+000  3.711571e+000
    endloop
  endfacet
  facet normal -9.801730e-002  0.000000e+000  9.951847e-001
    outer loop
      vertex -5.890181e+000 -5.000000e+000  3.711571e+000
      vertex -5.500000e+000  1.300000e+001  3.750000e+000
      vertex -5.890181e+000  1.300000e+001  3.711571e+000
    endloop
  endfacet
  facet normal -2.902845e-001  0.000000e+000  9.569404e-001
    outer loop
      vertex -5.890181e+000 -5.000000e+000  3.711571e+000
      vertex -5.890181e+000  1.300000e+001  3.711571e+000
      vertex -6.265367e+000 -5.000000e+000  3.597759e+000
    endloop
  endfacet
  facet normal -2.902845e-001  0.000000e+000  9.569404e-001
    outer loop
      vertex -6.265367e+000 -5.000000e+000  3.597759e+000
      vertex -5.890181e+000  1.300000e+001  3.711571e+000
      vertex -6.265367e+000  1.300000e+001  3.597759e+000
    endloop
  endfacet
  facet normal -4.713969e-001  0.000000e+000  8.819212e-001
    outer loop
      vertex -6.265367e+000 -5.000000e+000  3.597759e+000
      vertex -6.265367e+000  1.300000e+001  3.597759e+000
      vertex -6.611140e+000 -5.000000e+000  3.412939e+000
    endloop
  endfacet
  facet normal -4.713969e-001  0.000000e+000  8.819212e-001
    outer loop
      vertex -6.611140e+000 -5.000000e+000  3.412939e+000
      vertex -6.265367e+000  1.300000e+001  3.597759e+000
      vertex -6.611140e+000  1.300000e+001  3.412939e+000
    endloop
  endfacet
  facet normal -6.343929e-001  0.000000e+000  7.730108e-001
    outer loop
      vertex -6.611140e+000 -5.000000e+000  3.412939e+000
      vertex -6.611140e+000  1.300000e+001  3.412939e+000
      vertex -6.914214e+000 -5.000000e+000  3.164214e+000
    endloop
  endfacet
  facet normal -6.343929e-001  0.000000e+000  7.730108e-001
    outer loop
      vertex -6.914214e+000 -5.000000e+000  3.164214e+000
      vertex -6.611140e+000  1.300000e+001  3.412939e+000
      vertex -6.914214e+000  1.300000e+001  3.164214e+000
    endloop
  endfacet
  facet normal -7.730108e-001  0.000000e+000  6.343929e-001
    outer loop
      vertex -6.914214e+000 -5.000000e+000  3.164214e+000
      vertex -6.914214e+000  1.300000e+001  3.164214e+000
      vertex -7.162939e+000 -5.000000e+000  2.861140e+000
    endloop
  endfacet
  facet normal -7.730108e-001  0.000000e+000  6.343929e-001
    outer loop
      vertex -7.162939e+000 -5.000000e+000  2.861140e+000
      vertex -6.914214e+000  1.300000e+001  3.164214e+000
      vertex -7.162939e+000  1.300000e+001  2.861140e+000
    endloop
  endfacet
  facet normal -8.819209e-001  0.000000e+000  4.713973e-001
    outer loop
      vertex -7.162939e+000 -5.000000e+000  2.861140e+000
      vertex -7.162939e+000  1.300000e+001  2.861140e+000
      vertex -7.347759e+000 -5.000000e+000  2.515367e+000
    endloop
  endfacet
  facet normal -8.819209e-001  0.000000e+000  4.713973e-001
    outer loop
      vertex -7.347759e+000 -5.000000e+000  2.515367e+000
      vertex -7.162939e+000  1.300000e+001  2.861140e+000
      vertex -7.347759e+000  1.300000e+001  2.515367e+000
    endloop
  endfacet
  facet normal -9.569404e-001  0.000000e+000  2.902847e-001
    outer loop
      vertex -7.347759e+000 -5.000000e+000  2.515367e+000
      vertex -7.347759e+000  1.300000e+001  2.515367e+000
      vertex -7.461571e+000 -5.000000e+000  2.140181e+000
    endloop
  endfacet
  facet normal -9.569404e-001  0.000000e+000  2.902847e-001
    outer loop
      vertex -7.461571e+000 -5.000000e+000  2.140181e+000
      vertex -7.347759e+000  1.300000e+001  2.515367e+000
      vertex -7.461571e+000  1.300000e+001  2.140181e+000
    endloop
  endfacet
  facet normal -9.951848e-001  0.000000e+000  9.801670e-002
    outer loop
      vertex -7.461571e+000 -5.000000e+000  2.140181e+000
      vertex -7.461571e+000  1.300000e+001  2.140181e+000
      vertex -7.500000e+000 -5.000000e+000  1.750000e+000
    endloop
  endfacet
  facet normal -9.951848e-001  0.000000e+000  9.801670e-002
    outer loop
      vertex -7.500000e+000 -5.000000e+000  1.750000e+000
      vertex -7.461571e+000  1.300000e+001  2.140181e+000
      vertex -7.500000e+000  1.300000e+001  1.750000e+000
    endloop
  endfacet
  facet normal -1.000000e+000  0.000000e+000  0.000000e+000
    outer loop
      vertex -7.500000e+000 -5.000000e+000  0.000000e+000
      vertex -7.500000e+000 -5.000000e+000  1.750000e+000
      vertex -7.500000e+000  0.000000e+000  0.000000e+000
    endloop
  endfacet
  facet normal -1.000000e+000  0.000000e+000  0.000000e+000
    outer loop
      vertex -7.500000e+000  0.000000e+000  0.000000e+000
      vertex -7.500000e+000 -5.000000e+000  1.750000e+000
      vertex -7.500000e+000  1.300000e+001  1.750000e+000
    endloop
  endfacet
  facet normal -1.000000e+000  0.000000e+000  0.000000e+000
    outer loop
      vertex -7.500000e+000  0.000000e+000  0.000000e+000
      vertex -7.500000e+000  1.300000e+001  1.750000e+000
      vertex -7.500000e+000  0.000000e+000 -1.750000e+000
    endloop
  endfacet
  facet normal -1.000000e+000  0.000000e+000  0.000000e+000
    outer loop
      vertex -7.500000e+000  0.000000e+000 -1.750000e+000
      vertex -7.500000e+000  1.300000e+001  1.750000e+000
      vertex -7.500000e+000  1.300000e+001 -1.750000e+000
    endloop
  endfacet
  facet normal  1.000000e+000  0.000000e+000  0.000000e+000
    outer loop
      vertex  7.500000e+000  0.000000e+000 -1.750000e+000
      vertex  7.500000e+000  1.300000e+001 -1.750000e+000
      vertex  7.500000e+000  0.000000e+000  0.000000e+000
    endloop
  endfacet
  facet normal  1.000000e+000  -0.000000e+000  0.000000e+000
    outer loop
      vertex  7.500000e+000  0.000000e+000  0.000000e+000
      vertex  7.500000e+000  1.300000e+001 -1.750000e+000
      vertex  7.500000e+000  1.300000e+001  1.750000e+000
    endloop
  endfacet
  facet normal  1.000000e+000  0.000000e+000  0.000000e+000
    outer loop
      vertex  7.500000e+000  0.000000e+000  0.000000e+000
      vertex  7.500000e+000  1.300000e+001  1.750000e+000
      vertex  7.500000e+000 -5.000000e+000  0.000000e+000
    endloop
  endfacet
  facet normal  1.000000e+000  0.000000e+000  0.000000e+000
    outer loop
      vertex  7.500000e+000 -5.000000e+000  0.000000e+000
      vertex  7.500000e+000  1.300000e+001  1.750000e+000
      vertex  7.500000e+000 -5.000000e+000  1.750000e+000
    endloop
  endfacet
  facet normal  0.000000e+000 -1.000000e+000  0.000000e+000
    outer loop
      vertex  7.500000e+000  0.000000e+000  0.000000e+000
      vertex -7.500000e+000  0.000000e+000  0.000000e+000
      vertex  7.500000e+000  0.000000e+000 -1.750000e+000
    endloop
  endfacet
  facet normal  0.000000e+000 -1.000000e+000  0.000000e+000
    outer loop
      vertex  7.500000e+000  0.000000e+000 -1.750000e+000
      vertex -7.500000e+000  0.000000e+000  0.000000e+000
      vertex -7.500000e+000  0.000000e+000 -1.750000e+000
    endloop
  endfacet
  facet normal  0.000000e+000 -1.000000e+000  0.000000e+000
    outer loop
      vertex  7.500000e+000  0.000000e+000 -1.750000e+000
      vertex -7.500000e+000  0.000000e+000 -1.750000e+000
      vertex  7.461571e+000  0.000000e+000 -2.140181e+000
    endloop
  endfacet
  facet normal  0.000000e+000 -1.000000e+000  0.000000e+000
    outer loop
      vertex  7.461571e+000  0.000000e+000 -2.140181e+000
      vertex -7.500000e+000  0.000000e+000 -1.750000e+000
      vertex -7.461571e+000  0.000000e+000 -2.140181e+000
    endloop
  endfacet
  facet normal  0.000000e+000 -1.000000e+000  0.000000e+000
    outer loop
      vertex  7.461571e+000  0.000000e+000 -2.140181e+000
      vertex -7.461571e+000  0.000000e+000 -2.140181e+000
      vertex  7.347759e+000  0.000000e+000 -2.515367e+000
    endloop
  endfacet
  facet normal  0.000000e+000 -1.000000e+000  0.000000e+000
    outer loop
      vertex  7.347759e+000  0.000000e+000 -2.515367e+000
      vertex -7.461571e+000  0.000000e+000 -2.140181e+000
      vertex -7.347759e+000  0.000000e+000 -2.515367e+000
    endloop
  endfacet
  facet normal  0.000000e+000 -1.000000e+000  0.000000e+000
    outer loop
      vertex  7.347759e+000  0.000000e+000 -2.515367e+000
      vertex -7.347759e+000  0.000000e+000 -2.515367e+000
      vertex  7.162939e+000  0.000000e+000 -2.861140e+000
    endloop
  endfacet
  facet normal  0.000000e+000 -1.000000e+000  0.000000e+000
    outer loop
      vertex  7.162939e+000  0.000000e+000 -2.861140e+000
      vertex -7.347759e+000  0.000000e+000 -2.515367e+000
      vertex -7.162939e+000  0.000000e+000 -2.861140e+000
    endloop
  endfacet
  facet normal  0.000000e+000 -1.000000e+000  0.000000e+000
    outer loop
      vertex  7.162939e+000  0.000000e+000 -2.861140e+000
      vertex -7.162939e+000  0.000000e+000 -2.861140e+000
      vertex  6.914214e+000  0.000000e+000 -3.164214e+000
    endloop
  endfacet
  facet normal  0.000000e+000 -1.000000e+000  0.000000e+000
    outer loop
      vertex  6.914214e+000  0.000000e+000 -3.164214e+000
      vertex -7.162939e+000  0.000000e+000 -2.861140e+000
      vertex -6.914214e+000  0.000000e+000 -3.164214e+000
    endloop
  endfacet
  facet normal  0.000000e+000 -1.000000e+000  0.000000e+000
    outer loop
      vertex  6.914214e+000  0.000000e+000 -3.164214e+000
      vertex -6.914214e+000  0.000000e+000 -3.164214e+000
      vertex  6.611140e+000  0.000000e+000 -3.412939e+000
    endloop
  endfacet
  facet normal  0.000000e+000 -1.000000e+000  0.000000e+000
    outer loop
      vertex  6.611140e+000  0.000000e+000 -3.412939e+000
      vertex -6.914214e+000  0.000000e+000 -3.164214e+000
      vertex -6.611140e+000  0.000000e+000 -3.412939e+000
    endloop
  endfacet
  facet normal  0.000000e+000 -1.000000e+000  0.000000e+000
    outer loop
      vertex  6.611140e+000  0.000000e+000 -3.412939e+000
      vertex -6.611140e+000  0.000000e+000 -3.412939e+000
      vertex  6.265367e+000  0.000000e+000 -3.597759e+000
    endloop
  endfacet
  facet normal  0.000000e+000 -1.000000e+000  0.000000e+000
    outer loop
      vertex  6.265367e+000  0.000000e+000 -3.597759e+000
      vertex -6.611140e+000  0.000000e+000 -3.412939e+000
      vertex -6.265367e+000  0.000000e+000 -3.597759e+000
    endloop
  endfacet
  facet normal  0.000000e+000 -1.000000e+000  0.000000e+000
    outer loop
      vertex  6.265367e+000  0.000000e+000 -3.597759e+000
      vertex -6.265367e+000  0.000000e+000 -3.597759e+000
      vertex  5.890181e+000  0.000000e+000 -3.711571e+000
    endloop
  endfacet
  facet normal  0.000000e+000 -1.000000e+000  0.000000e+000
    outer loop
      vertex  5.890181e+000  0.000000e+000 -3.711571e+000
      vertex -6.265367e+000  0.000000e+000 -3.597759e+000
      vertex -5.890181e+000  0.000000e+000 -3.711571e+000
    endloop
  endfacet
  facet normal  0.000000e+000 -9.999999e-001  0.000000e+000
    outer loop
      vertex  5.890181e+000  0.000000e+000 -3.711571e+000
      vertex -5.890181e+000  0.000000e+000 -3.711571e+000
      vertex  5.500000e+000  0.000000e+000 -3.750000e+000
    endloop
  endfacet
  facet normal  0.000000e+000 -1.000000e+000  0.000000e+000
    outer loop
      vertex  5.500000e+000  0.000000e+000 -3.750000e+000
      vertex -5.890181e+000  0.000000e+000 -3.711571e+000
      vertex -5.500000e+000  0.000000e+000 -3.750000e+000
    endloop
  endfacet
  facet normal  0.000000e+000 -1.000000e+000  0.000000e+000
    outer loop
      vertex  5.500000e+000 -5.000000e+000  3.750000e+000
      vertex -5.500000e+000 -5.000000e+000  3.750000e+000
      vertex  5.890181e+000 -5.000000e+000  3.711571e+000
    endloop
  endfacet
  facet normal  0.000000e+000 -9.999999e-001  0.000000e+000
    outer loop
      vertex  5.890181e+000 -5.000000e+000  3.711571e+000
      vertex -5.500000e+000 -5.000000e+000  3.750000e+000
      vertex -5.890181e+000 -5.000000e+000  3.711571e+000
    endloop
  endfacet
  facet normal  0.000000e+000 -1.000000e+000  0.000000e+000
    outer loop
      vertex  5.890181e+000 -5.000000e+000  3.711571e+000
      vertex -5.890181e+000 -5.000000e+000  3.711571e+000
      vertex  6.265367e+000 -5.000000e+000  3.597759e+000
    endloop
  endfacet
  facet normal  0.000000e+000 -1.000000e+000  0.000000e+000
    outer loop
      vertex  6.265367e+000 -5.000000e+000  3.597759e+000
      vertex -5.890181e+000 -5.000000e+000  3.711571e+000
      vertex -6.265367e+000 -5.000000e+000  3.597759e+000
    endloop
  endfacet
  facet normal  0.000000e+000 -1.000000e+000  0.000000e+000
    outer loop
      vertex  6.265367e+000 -5.000000e+000  3.597759e+000
      vertex -6.265367e+000 -5.000000e+000  3.597759e+000
      vertex  6.611140e+000 -5.000000e+000  3.412939e+000
    endloop
  endfacet
  facet normal  0.000000e+000 -1.000000e+000  0.000000e+000
    outer loop
      vertex  6.611140e+000 -5.000000e+000  3.412939e+000
      vertex -6.265367e+000 -5.000000e+000  3.597759e+000
      vertex -6.611140e+000 -5.000000e+000  3.412939e+000
    endloop
  endfacet
  facet normal  0.000000e+000 -1.000000e+000  0.000000e+000
    outer loop
      vertex  6.611140e+000 -5.000000e+000  3.412939e+000
      vertex -6.611140e+000 -5.000000e+000  3.412939e+000
      vertex  6.914214e+000 -5.000000e+000  3.164214e+000
    endloop
  endfacet
  facet normal  0.000000e+000 -1.000000e+000  0.000000e+000
    outer loop
      vertex  6.914214e+000 -5.000000e+000  3.164214e+000
      vertex -6.611140e+000 -5.000000e+000  3.412939e+000
      vertex -6.914214e+000 -5.000000e+000  3.164214e+000
    endloop
  endfacet
  facet normal  0.000000e+000 -1.000000e+000  0.000000e+000
    outer loop
      vertex  6.914214e+000 -5.000000e+000  3.164214e+000
      vertex -6.914214e+000 -5.000000e+000  3.164214e+000
      vertex  7.162939e+000 -5.000000e+000  2.861140e+000
    endloop
  endfacet
  facet normal  0.000000e+000 -1.000000e+000  0.000000e+000
    outer loop
      vertex  7.162939e+000 -5.000000e+000  2.861140e+000
      vertex -6.914214e+000 -5.000000e+000  3.164214e+000
      vertex -7.162939e+000 -5.000000e+000  2.861140e+000
    endloop
  endfacet
  facet normal  0.000000e+000 -1.000000e+000  0.000000e+000
    outer loop
      vertex  7.162939e+000 -5.000000e+000  2.861140e+000
      vertex -7.162939e+000 -5.000000e+000  2.861140e+000
      vertex  7.347759e+000 -5.000000e+000  2.515367e+000
    endloop
  endfacet
  facet normal  0.000000e+000 -1.000000e+000  0.000000e+000
    outer loop
      vertex  7.347759e+000 -5.000000e+000  2.515367e+000
      vertex -7.162939e+000 -5.000000e+000  2.861140e+000
      vertex -7.347759e+000 -5.000000e+000  2.515367e+000
    endloop
  endfacet
  facet normal  0.000000e+000 -1.000000e+000  0.000000e+000
    outer loop
      vertex  7.347759e+000 -5.000000e+000  2.515367e+000
      vertex -7.347759e+000 -5.000000e+000  2.515367e+000
      vertex  7.461571e+000 -5.000000e+000  2.140181e+000
    endloop
  endfacet
  facet normal  0.000000e+000 -1.000000e+000  0.000000e+000
    outer loop
      vertex  7.461571e+000 -5.000000e+000  2.140181e+000
      vertex -7.347759e+000 -5.000000e+000  2.515367e+000
      vertex -7.461571e+000 -5.000000e+000  2.140181e+000
    endloop
  endfacet
  facet normal  0.000000e+000 -1.000000e+000  0.000000e+000
    outer loop
      vertex  7.461571e+000 -5.000000e+000  2.140181e+000
      vertex -7.461571e+000 -5.000000e+000  2.140181e+000
      vertex  7.500000e+000 -5.000000e+000  1.750000e+000
    endloop
  endfacet
  facet normal  0.000000e+000 -1.000000e+000  0.000000e+000
    outer loop
      vertex  7.500000e+000 -5.000000e+000  1.750000e+000
      vertex -7.461571e+000 -5.000000e+000  2.140181e+000
      vertex -7.500000e+000 -5.000000e+000  1.750000e+000
    endloop
  endfacet
  facet normal  0.000000e+000 -1.000000e+000  0.000000e+000
    outer loop
      vertex  7.500000e+000 -5.000000e+000  1.750000e+000
      vertex -7.500000e+000 -5.000000e+000  1.750000e+000
      vertex  7.500000e+000 -5.000000e+000  0.000000e+000
    endloop
  endfacet
  facet normal  0.000000e+000 -1.000000e+000  0.000000e+000
    outer loop
      vertex  7.500000e+000 -5.000000e+000  0.000000e+000
      vertex -7.500000e+000 -5.000000e+000  1.750000e+000
      vertex -7.500000e+000 -5.000000e+000  0.000000e+000
    endloop
  endfacet
endsolid CATIA STL
