solid CATIA STL
  facet normal  -0.000000e+000  0.000000e+000  9.999999e-001
    outer loop
      vertex  1.778620e-001  1.992076e+000  5.200000e+001
      vertex -2.141903e-001  1.988498e+000  5.200000e+001
      vertex  5.630791e-001  1.919099e+000  5.200000e+001
    endloop
  endfacet
  facet normal  0.000000e+000  0.000000e+000  9.999999e-001
    outer loop
      vertex  5.630791e-001  1.919099e+000  5.200000e+001
      vertex -2.141903e-001  1.988498e+000  5.200000e+001
      vertex -5.980113e-001  1.908503e+000  5.200000e+001
    endloop
  endfacet
  facet normal  -0.000000e+000  0.000000e+000  1.000000e+000
    outer loop
      vertex  5.630791e-001  1.919099e+000  5.200000e+001
      vertex -5.980113e-001  1.908503e+000  5.200000e+001
      vertex  9.266573e-001  1.772373e+000  5.200000e+001
    endloop
  endfacet
  facet normal  0.000000e+000  0.000000e+000  1.000000e+000
    outer loop
      vertex  9.266573e-001  1.772373e+000  5.200000e+001
      vertex -5.980113e-001  1.908503e+000  5.200000e+001
      vertex -9.588511e-001  1.755165e+000  5.200000e+001
    endloop
  endfacet
  facet normal  -0.000000e+000  0.000000e+000  1.000000e+000
    outer loop
      vertex  9.266573e-001  1.772373e+000  5.200000e+001
      vertex -9.588511e-001  1.755165e+000  5.200000e+001
      vertex  1.254625e+000  1.557536e+000  5.200000e+001
    endloop
  endfacet
  facet normal  0.000000e+000  0.000000e+000  1.000000e+000
    outer loop
      vertex  1.254625e+000  1.557536e+000  5.200000e+001
      vertex -9.588511e-001  1.755165e+000  5.200000e+001
      vertex -1.282843e+000  1.534378e+000  5.200000e+001
    endloop
  endfacet
  facet normal  -0.000000e+000  0.000000e+000  1.000000e+000
    outer loop
      vertex  1.254625e+000  1.557536e+000  5.200000e+001
      vertex -1.282843e+000  1.534378e+000  5.200000e+001
      vertex  1.534378e+000  1.282843e+000  5.200000e+001
    endloop
  endfacet
  facet normal  0.000000e+000  0.000000e+000  1.000000e+000
    outer loop
      vertex  1.534378e+000  1.282843e+000  5.200000e+001
      vertex -1.282843e+000  1.534378e+000  5.200000e+001
      vertex -1.557536e+000  1.254625e+000  5.200000e+001
    endloop
  endfacet
  facet normal  -0.000000e+000  0.000000e+000  1.000000e+000
    outer loop
      vertex  1.534378e+000  1.282843e+000  5.200000e+001
      vertex -1.557536e+000  1.254625e+000  5.200000e+001
      vertex  1.755165e+000  9.588511e-001  5.200000e+001
    endloop
  endfacet
  facet normal  0.000000e+000  0.000000e+000  1.000000e+000
    outer loop
      vertex  1.755165e+000  9.588511e-001  5.200000e+001
      vertex -1.557536e+000  1.254625e+000  5.200000e+001
      vertex -1.772373e+000  9.266573e-001  5.200000e+001
    endloop
  endfacet
  facet normal  -0.000000e+000  0.000000e+000  1.000000e+000
    outer loop
      vertex  1.755165e+000  9.588511e-001  5.200000e+001
      vertex -1.772373e+000  9.266573e-001  5.200000e+001
      vertex  1.908503e+000  5.980113e-001  5.200000e+001
    endloop
  endfacet
  facet normal  0.000000e+000  0.000000e+000  1.000000e+000
    outer loop
      vertex  1.908503e+000  5.980113e-001  5.200000e+001
      vertex -1.772373e+000  9.266573e-001  5.200000e+001
      vertex -1.919099e+000  5.630791e-001  5.200000e+001
    endloop
  endfacet
  facet normal  -0.000000e+000  0.000000e+000  1.000000e+000
    outer loop
      vertex  1.908503e+000  5.980113e-001  5.200000e+001
      vertex -1.919099e+000  5.630791e-001  5.200000e+001
      vertex  1.988498e+000  2.141903e-001  5.200000e+001
    endloop
  endfacet
  facet normal  0.000000e+000  0.000000e+000  1.000000e+000
    outer loop
      vertex  1.988498e+000  2.141903e-001  5.200000e+001
      vertex -1.919099e+000  5.630791e-001  5.200000e+001
      vertex -1.992076e+000  1.778620e-001  5.200000e+001
    endloop
  endfacet
  facet normal  -0.000000e+000  0.000000e+000  9.999999e-001
    outer loop
      vertex  1.988498e+000  2.141903e-001  5.200000e+001
      vertex -1.992076e+000  1.778620e-001  5.200000e+001
      vertex  1.992076e+000 -1.778620e-001  5.200000e+001
    endloop
  endfacet
  facet normal  0.000000e+000  0.000000e+000  9.999999e-001
    outer loop
      vertex  1.992076e+000 -1.778620e-001  5.200000e+001
      vertex -1.992076e+000  1.778620e-001  5.200000e+001
      vertex -1.988498e+000 -2.141903e-001  5.200000e+001
    endloop
  endfacet
  facet normal  -0.000000e+000  0.000000e+000  1.000000e+000
    outer loop
      vertex  1.992076e+000 -1.778620e-001  5.200000e+001
      vertex -1.988498e+000 -2.141903e-001  5.200000e+001
      vertex  1.919099e+000 -5.630791e-001  5.200000e+001
    endloop
  endfacet
  facet normal  0.000000e+000  0.000000e+000  1.000000e+000
    outer loop
      vertex  1.919099e+000 -5.630791e-001  5.200000e+001
      vertex -1.988498e+000 -2.141903e-001  5.200000e+001
      vertex -1.908503e+000 -5.980113e-001  5.200000e+001
    endloop
  endfacet
  facet normal  -0.000000e+000  0.000000e+000  1.000000e+000
    outer loop
      vertex  1.919099e+000 -5.630791e-001  5.200000e+001
      vertex -1.908503e+000 -5.980113e-001  5.200000e+001
      vertex  1.772373e+000 -9.266573e-001  5.200000e+001
    endloop
  endfacet
  facet normal  0.000000e+000  0.000000e+000  1.000000e+000
    outer loop
      vertex  1.772373e+000 -9.266573e-001  5.200000e+001
      vertex -1.908503e+000 -5.980113e-001  5.200000e+001
      vertex -1.755165e+000 -9.588511e-001  5.200000e+001
    endloop
  endfacet
  facet normal  -0.000000e+000  0.000000e+000  1.000000e+000
    outer loop
      vertex  1.772373e+000 -9.266573e-001  5.200000e+001
      vertex -1.755165e+000 -9.588511e-001  5.200000e+001
      vertex  1.557536e+000 -1.254625e+000  5.200000e+001
    endloop
  endfacet
  facet normal  0.000000e+000  0.000000e+000  1.000000e+000
    outer loop
      vertex  1.557536e+000 -1.254625e+000  5.200000e+001
      vertex -1.755165e+000 -9.588511e-001  5.200000e+001
      vertex -1.534378e+000 -1.282843e+000  5.200000e+001
    endloop
  endfacet
  facet normal  -0.000000e+000  0.000000e+000  1.000000e+000
    outer loop
      vertex  1.557536e+000 -1.254625e+000  5.200000e+001
      vertex -1.534378e+000 -1.282843e+000  5.200000e+001
      vertex  1.282843e+000 -1.534378e+000  5.200000e+001
    endloop
  endfacet
  facet normal  0.000000e+000  0.000000e+000  1.000000e+000
    outer loop
      vertex  1.282843e+000 -1.534378e+000  5.200000e+001
      vertex -1.534378e+000 -1.282843e+000  5.200000e+001
      vertex -1.254625e+000 -1.557536e+000  5.200000e+001
    endloop
  endfacet
  facet normal  -0.000000e+000  0.000000e+000  1.000000e+000
    outer loop
      vertex  1.282843e+000 -1.534378e+000  5.200000e+001
      vertex -1.254625e+000 -1.557536e+000  5.200000e+001
      vertex  9.588511e-001 -1.755165e+000  5.200000e+001
    endloop
  endfacet
  facet normal  0.000000e+000  0.000000e+000  1.000000e+000
    outer loop
      vertex  9.588511e-001 -1.755165e+000  5.200000e+001
      vertex -1.254625e+000 -1.557536e+000  5.200000e+001
      vertex -9.266573e-001 -1.772373e+000  5.200000e+001
    endloop
  endfacet
  facet normal  -0.000000e+000  0.000000e+000  1.000000e+000
    outer loop
      vertex  9.588511e-001 -1.755165e+000  5.200000e+001
      vertex -9.266573e-001 -1.772373e+000  5.200000e+001
      vertex  5.980113e-001 -1.908503e+000  5.200000e+001
    endloop
  endfacet
  facet normal  0.000000e+000  0.000000e+000  1.000000e+000
    outer loop
      vertex  5.980113e-001 -1.908503e+000  5.200000e+001
      vertex -9.266573e-001 -1.772373e+000  5.200000e+001
      vertex -5.630791e-001 -1.919099e+000  5.200000e+001
    endloop
  endfacet
  facet normal  -0.000000e+000  0.000000e+000  9.999999e-001
    outer loop
      vertex  5.980113e-001 -1.908503e+000  5.200000e+001
      vertex -5.630791e-001 -1.919099e+000  5.200000e+001
      vertex  2.141903e-001 -1.988498e+000  5.200000e+001
    endloop
  endfacet
  facet normal  0.000000e+000  0.000000e+000  9.999999e-001
    outer loop
      vertex  2.141903e-001 -1.988498e+000  5.200000e+001
      vertex -5.630791e-001 -1.919099e+000  5.200000e+001
      vertex -1.778620e-001 -1.992076e+000  5.200000e+001
    endloop
  endfacet
  facet normal  0.000000e+000  0.000000e+000  1.000000e+000
    outer loop
      vertex -9.588511e-001  1.755165e+000  1.000000e+001
      vertex -5.980113e-001  1.908503e+000  1.000000e+001
      vertex -4.751164e+000  1.557704e+000  1.000000e+001
    endloop
  endfacet
  facet normal  -0.000000e+000  0.000000e+000  1.000000e+000
    outer loop
      vertex -1.919099e+000  5.630791e-001  1.000000e+001
      vertex -4.989283e+000  3.271994e-001  1.000000e+001
      vertex -1.992076e+000  1.778620e-001  1.000000e+001
    endloop
  endfacet
  facet normal  0.000000e+000  -0.000000e+000  1.000000e+000
    outer loop
      vertex  1.908503e+000  5.980113e-001  1.000000e+001
      vertex  1.988498e+000  2.141903e-001  1.000000e+001
      vertex  4.990950e+000  3.007036e-001  1.000000e+001
    endloop
  endfacet
  facet normal  -0.000000e+000  0.000000e+000  1.000000e+000
    outer loop
      vertex  2.141903e-001 -1.988498e+000  1.000000e+001
      vertex -1.778620e-001 -1.992076e+000  1.000000e+001
      vertex -1.327411e-002 -4.999982e+000  1.000000e+001
    endloop
  endfacet
  facet normal  0.000000e+000  0.000000e+000  1.000000e+000
    outer loop
      vertex  2.141903e-001 -1.988498e+000  1.000000e+001
      vertex -1.327411e-002 -4.999982e+000  1.000000e+001
      vertex  6.134945e-001 -4.962220e+000  1.000000e+001
    endloop
  endfacet
  facet normal  0.000000e+000  -0.000000e+000  1.000000e+000
    outer loop
      vertex  2.141903e-001 -1.988498e+000  1.000000e+001
      vertex  6.134945e-001 -4.962220e+000  1.000000e+001
      vertex  1.230588e+000 -4.846200e+000  1.000000e+001
    endloop
  endfacet
  facet normal  0.000000e+000  -0.000000e+000  1.000000e+000
    outer loop
      vertex  2.141903e-001 -1.988498e+000  1.000000e+001
      vertex  1.230588e+000 -4.846200e+000  1.000000e+001
      vertex  1.828274e+000 -4.653753e+000  1.000000e+001
    endloop
  endfacet
  facet normal  0.000000e+000  -0.000000e+000  1.000000e+000
    outer loop
      vertex  2.141903e-001 -1.988498e+000  1.000000e+001
      vertex  1.828274e+000 -4.653753e+000  1.000000e+001
      vertex  2.397128e+000 -4.387913e+000  1.000000e+001
    endloop
  endfacet
  facet normal  0.000000e+000  -0.000000e+000  1.000000e+000
    outer loop
      vertex  2.141903e-001 -1.988498e+000  1.000000e+001
      vertex  2.397128e+000 -4.387913e+000  1.000000e+001
      vertex  2.928177e+000 -4.052873e+000  1.000000e+001
    endloop
  endfacet
  facet normal  0.000000e+000  -0.000000e+000  1.000000e+000
    outer loop
      vertex  2.141903e-001 -1.988498e+000  1.000000e+001
      vertex  2.928177e+000 -4.052873e+000  1.000000e+001
      vertex  3.413047e+000 -3.653917e+000  1.000000e+001
    endloop
  endfacet
  facet normal  0.000000e+000  -0.000000e+000  1.000000e+000
    outer loop
      vertex  2.141903e-001 -1.988498e+000  1.000000e+001
      vertex  3.413047e+000 -3.653917e+000  1.000000e+001
      vertex  3.844091e+000 -3.197337e+000  1.000000e+001
    endloop
  endfacet
  facet normal  0.000000e+000  -0.000000e+000  1.000000e+000
    outer loop
      vertex  2.141903e-001 -1.988498e+000  1.000000e+001
      vertex  3.844091e+000 -3.197337e+000  1.000000e+001
      vertex  4.214512e+000 -2.690332e+000  1.000000e+001
    endloop
  endfacet
  facet normal  0.000000e+000  -0.000000e+000  1.000000e+000
    outer loop
      vertex  2.141903e-001 -1.988498e+000  1.000000e+001
      vertex  4.214512e+000 -2.690332e+000  1.000000e+001
      vertex  4.518467e+000 -2.140900e+000  1.000000e+001
    endloop
  endfacet
  facet normal  0.000000e+000  0.000000e+000  9.999999e-001
    outer loop
      vertex  2.141903e-001 -1.988498e+000  1.000000e+001
      vertex  4.518467e+000 -2.140900e+000  1.000000e+001
      vertex  5.980113e-001 -1.908503e+000  1.000000e+001
    endloop
  endfacet
  facet normal  0.000000e+000  0.000000e+000  9.999999e-001
    outer loop
      vertex -4.518467e+000  2.140900e+000  1.000000e+001
      vertex -4.751164e+000  1.557704e+000  1.000000e+001
      vertex -5.980113e-001  1.908503e+000  1.000000e+001
    endloop
  endfacet
  facet normal  0.000000e+000  -0.000000e+000  1.000000e+000
    outer loop
      vertex -4.518467e+000  2.140900e+000  1.000000e+001
      vertex -5.980113e-001  1.908503e+000  1.000000e+001
      vertex -2.141903e-001  1.988498e+000  1.000000e+001
    endloop
  endfacet
  facet normal  0.000000e+000  0.000000e+000  1.000000e+000
    outer loop
      vertex -4.518467e+000  2.140900e+000  1.000000e+001
      vertex -2.141903e-001  1.988498e+000  1.000000e+001
      vertex -6.134945e-001  4.962220e+000  1.000000e+001
    endloop
  endfacet
  facet normal  0.000000e+000  0.000000e+000  1.000000e+000
    outer loop
      vertex -4.518467e+000  2.140900e+000  1.000000e+001
      vertex -6.134945e-001  4.962220e+000  1.000000e+001
      vertex -1.230588e+000  4.846200e+000  1.000000e+001
    endloop
  endfacet
  facet normal  0.000000e+000  0.000000e+000  1.000000e+000
    outer loop
      vertex -4.518467e+000  2.140900e+000  1.000000e+001
      vertex -1.230588e+000  4.846200e+000  1.000000e+001
      vertex -1.828274e+000  4.653753e+000  1.000000e+001
    endloop
  endfacet
  facet normal  0.000000e+000  0.000000e+000  1.000000e+000
    outer loop
      vertex -4.518467e+000  2.140900e+000  1.000000e+001
      vertex -1.828274e+000  4.653753e+000  1.000000e+001
      vertex -2.397128e+000  4.387913e+000  1.000000e+001
    endloop
  endfacet
  facet normal  0.000000e+000  0.000000e+000  1.000000e+000
    outer loop
      vertex -4.518467e+000  2.140900e+000  1.000000e+001
      vertex -2.397128e+000  4.387913e+000  1.000000e+001
      vertex -2.928177e+000  4.052873e+000  1.000000e+001
    endloop
  endfacet
  facet normal  0.000000e+000  0.000000e+000  1.000000e+000
    outer loop
      vertex -4.518467e+000  2.140900e+000  1.000000e+001
      vertex -2.928177e+000  4.052873e+000  1.000000e+001
      vertex -3.413047e+000  3.653917e+000  1.000000e+001
    endloop
  endfacet
  facet normal  0.000000e+000  0.000000e+000  1.000000e+000
    outer loop
      vertex -4.518467e+000  2.140900e+000  1.000000e+001
      vertex -3.413047e+000  3.653917e+000  1.000000e+001
      vertex -3.844091e+000  3.197337e+000  1.000000e+001
    endloop
  endfacet
  facet normal  0.000000e+000  0.000000e+000  1.000000e+000
    outer loop
      vertex -4.518467e+000  2.140900e+000  1.000000e+001
      vertex -3.844091e+000  3.197337e+000  1.000000e+001
      vertex -4.214512e+000  2.690332e+000  1.000000e+001
    endloop
  endfacet
  facet normal  0.000000e+000  0.000000e+000  1.000000e+000
    outer loop
      vertex -4.529771e+000 -2.116878e+000  1.000000e+001
      vertex -1.327411e-002 -4.999982e+000  1.000000e+001
      vertex -1.778620e-001 -1.992076e+000  1.000000e+001
    endloop
  endfacet
  facet normal  0.000000e+000  0.000000e+000  1.000000e+000
    outer loop
      vertex -4.529771e+000 -2.116878e+000  1.000000e+001
      vertex -1.778620e-001 -1.992076e+000  1.000000e+001
      vertex -5.630791e-001 -1.919099e+000  1.000000e+001
    endloop
  endfacet
  facet normal  0.000000e+000  0.000000e+000  1.000000e+000
    outer loop
      vertex -4.529771e+000 -2.116878e+000  1.000000e+001
      vertex -5.630791e-001 -1.919099e+000  1.000000e+001
      vertex -9.266573e-001 -1.772373e+000  1.000000e+001
    endloop
  endfacet
  facet normal  0.000000e+000  0.000000e+000  9.999999e-001
    outer loop
      vertex -4.529771e+000 -2.116878e+000  1.000000e+001
      vertex -9.266573e-001 -1.772373e+000  1.000000e+001
      vertex -1.254625e+000 -1.557536e+000  1.000000e+001
    endloop
  endfacet
  facet normal  0.000000e+000  0.000000e+000  1.000000e+000
    outer loop
      vertex -4.529771e+000 -2.116878e+000  1.000000e+001
      vertex -1.254625e+000 -1.557536e+000  1.000000e+001
      vertex -4.759368e+000 -1.532455e+000  1.000000e+001
    endloop
  endfacet
  facet normal  0.000000e+000  0.000000e+000  9.999999e-001
    outer loop
      vertex -1.327411e-002 -4.999982e+000  1.000000e+001
      vertex -4.529771e+000 -2.116878e+000  1.000000e+001
      vertex -4.228737e+000 -2.667917e+000  1.000000e+001
    endloop
  endfacet
  facet normal  0.000000e+000  0.000000e+000  1.000000e+000
    outer loop
      vertex -1.327411e-002 -4.999982e+000  1.000000e+001
      vertex -4.228737e+000 -2.667917e+000  1.000000e+001
      vertex -3.861014e+000 -3.176881e+000  1.000000e+001
    endloop
  endfacet
  facet normal  0.000000e+000  0.000000e+000  1.000000e+000
    outer loop
      vertex -1.327411e-002 -4.999982e+000  1.000000e+001
      vertex -3.861014e+000 -3.176881e+000  1.000000e+001
      vertex -3.432400e+000 -3.635744e+000  1.000000e+001
    endloop
  endfacet
  facet normal  0.000000e+000  0.000000e+000  1.000000e+000
    outer loop
      vertex -1.327411e-002 -4.999982e+000  1.000000e+001
      vertex -3.432400e+000 -3.635744e+000  1.000000e+001
      vertex -2.949655e+000 -4.037268e+000  1.000000e+001
    endloop
  endfacet
  facet normal  0.000000e+000  0.000000e+000  1.000000e+000
    outer loop
      vertex -1.327411e-002 -4.999982e+000  1.000000e+001
      vertex -2.949655e+000 -4.037268e+000  1.000000e+001
      vertex -2.420392e+000 -4.375123e+000  1.000000e+001
    endloop
  endfacet
  facet normal  0.000000e+000  0.000000e+000  1.000000e+000
    outer loop
      vertex -1.327411e-002 -4.999982e+000  1.000000e+001
      vertex -2.420392e+000 -4.375123e+000  1.000000e+001
      vertex -1.852958e+000 -4.643980e+000  1.000000e+001
    endloop
  endfacet
  facet normal  0.000000e+000  0.000000e+000  1.000000e+000
    outer loop
      vertex -1.327411e-002 -4.999982e+000  1.000000e+001
      vertex -1.852958e+000 -4.643980e+000  1.000000e+001
      vertex -1.256302e+000 -4.839598e+000  1.000000e+001
    endloop
  endfacet
  facet normal  0.000000e+000  0.000000e+000  1.000000e+000
    outer loop
      vertex -1.327411e-002 -4.999982e+000  1.000000e+001
      vertex -1.256302e+000 -4.839598e+000  1.000000e+001
      vertex -6.398334e-001 -4.958892e+000  1.000000e+001
    endloop
  endfacet
  facet normal  0.000000e+000  0.000000e+000  1.000000e+000
    outer loop
      vertex  1.778620e-001  1.992076e+000  1.000000e+001
      vertex  4.759368e+000  1.532455e+000  1.000000e+001
      vertex  4.529771e+000  2.116878e+000  1.000000e+001
    endloop
  endfacet
  facet normal  0.000000e+000  0.000000e+000  1.000000e+000
    outer loop
      vertex  1.778620e-001  1.992076e+000  1.000000e+001
      vertex  4.529771e+000  2.116878e+000  1.000000e+001
      vertex  4.228737e+000  2.667917e+000  1.000000e+001
    endloop
  endfacet
  facet normal  0.000000e+000  0.000000e+000  1.000000e+000
    outer loop
      vertex  1.778620e-001  1.992076e+000  1.000000e+001
      vertex  4.228737e+000  2.667917e+000  1.000000e+001
      vertex  3.861014e+000  3.176881e+000  1.000000e+001
    endloop
  endfacet
  facet normal  0.000000e+000  0.000000e+000  9.999999e-001
    outer loop
      vertex  1.778620e-001  1.992076e+000  1.000000e+001
      vertex  3.861014e+000  3.176881e+000  1.000000e+001
      vertex  3.432400e+000  3.635744e+000  1.000000e+001
    endloop
  endfacet
  facet normal  0.000000e+000  0.000000e+000  1.000000e+000
    outer loop
      vertex  1.778620e-001  1.992076e+000  1.000000e+001
      vertex  3.432400e+000  3.635744e+000  1.000000e+001
      vertex  2.949655e+000  4.037268e+000  1.000000e+001
    endloop
  endfacet
  facet normal  0.000000e+000  0.000000e+000  1.000000e+000
    outer loop
      vertex  1.778620e-001  1.992076e+000  1.000000e+001
      vertex  2.949655e+000  4.037268e+000  1.000000e+001
      vertex  2.420392e+000  4.375123e+000  1.000000e+001
    endloop
  endfacet
  facet normal  0.000000e+000  0.000000e+000  1.000000e+000
    outer loop
      vertex  1.778620e-001  1.992076e+000  1.000000e+001
      vertex  2.420392e+000  4.375123e+000  1.000000e+001
      vertex  1.852958e+000  4.643980e+000  1.000000e+001
    endloop
  endfacet
  facet normal  0.000000e+000  0.000000e+000  9.999999e-001
    outer loop
      vertex  1.778620e-001  1.992076e+000  1.000000e+001
      vertex  1.852958e+000  4.643980e+000  1.000000e+001
      vertex  1.256302e+000  4.839598e+000  1.000000e+001
    endloop
  endfacet
  facet normal  0.000000e+000  0.000000e+000  1.000000e+000
    outer loop
      vertex  1.778620e-001  1.992076e+000  1.000000e+001
      vertex  1.256302e+000  4.839598e+000  1.000000e+001
      vertex  6.398334e-001  4.958892e+000  1.000000e+001
    endloop
  endfacet
  facet normal  0.000000e+000  0.000000e+000  1.000000e+000
    outer loop
      vertex  1.778620e-001  1.992076e+000  1.000000e+001
      vertex  6.398334e-001  4.958892e+000  1.000000e+001
      vertex  1.327411e-002  4.999982e+000  1.000000e+001
    endloop
  endfacet
  facet normal  0.000000e+000  0.000000e+000  1.000000e+000
    outer loop
      vertex  1.778620e-001  1.992076e+000  1.000000e+001
      vertex  1.327411e-002  4.999982e+000  1.000000e+001
      vertex -6.134945e-001  4.962220e+000  1.000000e+001
    endloop
  endfacet
  facet normal  0.000000e+000  0.000000e+000  1.000000e+000
    outer loop
      vertex  1.778620e-001  1.992076e+000  1.000000e+001
      vertex -6.134945e-001  4.962220e+000  1.000000e+001
      vertex -2.141903e-001  1.988498e+000  1.000000e+001
    endloop
  endfacet
  facet normal  0.000000e+000  0.000000e+000  1.000000e+000
    outer loop
      vertex  4.759368e+000  1.532455e+000  1.000000e+001
      vertex  1.778620e-001  1.992076e+000  1.000000e+001
      vertex  5.630791e-001  1.919099e+000  1.000000e+001
    endloop
  endfacet
  facet normal  0.000000e+000  0.000000e+000  1.000000e+000
    outer loop
      vertex  4.759368e+000  1.532455e+000  1.000000e+001
      vertex  5.630791e-001  1.919099e+000  1.000000e+001
      vertex  9.266573e-001  1.772373e+000  1.000000e+001
    endloop
  endfacet
  facet normal  0.000000e+000  0.000000e+000  9.999999e-001
    outer loop
      vertex  4.759368e+000  1.532455e+000  1.000000e+001
      vertex  9.266573e-001  1.772373e+000  1.000000e+001
      vertex  1.254625e+000  1.557536e+000  1.000000e+001
    endloop
  endfacet
  facet normal  0.000000e+000  0.000000e+000  1.000000e+000
    outer loop
      vertex  4.759368e+000  1.532455e+000  1.000000e+001
      vertex  1.254625e+000  1.557536e+000  1.000000e+001
      vertex  1.534378e+000  1.282843e+000  1.000000e+001
    endloop
  endfacet
  facet normal  -0.000000e+000  0.000000e+000  1.000000e+000
    outer loop
      vertex  4.759368e+000  1.532455e+000  1.000000e+001
      vertex  1.534378e+000  1.282843e+000  1.000000e+001
      vertex  4.913906e+000  9.238643e-001  1.000000e+001
    endloop
  endfacet
  facet normal  0.000000e+000  0.000000e+000  9.999999e-001
    outer loop
      vertex -4.908932e+000  9.499422e-001  1.000000e+001
      vertex -1.557536e+000  1.254625e+000  1.000000e+001
      vertex -4.751164e+000  1.557704e+000  1.000000e+001
    endloop
  endfacet
  facet normal  0.000000e+000  0.000000e+000  1.000000e+000
    outer loop
      vertex -4.751164e+000  1.557704e+000  1.000000e+001
      vertex -1.557536e+000  1.254625e+000  1.000000e+001
      vertex -1.282843e+000  1.534378e+000  1.000000e+001
    endloop
  endfacet
  facet normal  0.000000e+000  -0.000000e+000  1.000000e+000
    outer loop
      vertex -4.751164e+000  1.557704e+000  1.000000e+001
      vertex -1.282843e+000  1.534378e+000  1.000000e+001
      vertex -9.588511e-001  1.755165e+000  1.000000e+001
    endloop
  endfacet
  facet normal  0.000000e+000  0.000000e+000  9.999999e-001
    outer loop
      vertex -4.989283e+000  3.271994e-001  1.000000e+001
      vertex -1.919099e+000  5.630791e-001  1.000000e+001
      vertex -4.908932e+000  9.499422e-001  1.000000e+001
    endloop
  endfacet
  facet normal  0.000000e+000  0.000000e+000  9.999999e-001
    outer loop
      vertex -4.908932e+000  9.499422e-001  1.000000e+001
      vertex -1.919099e+000  5.630791e-001  1.000000e+001
      vertex -1.772373e+000  9.266573e-001  1.000000e+001
    endloop
  endfacet
  facet normal  0.000000e+000  -0.000000e+000  1.000000e+000
    outer loop
      vertex -4.908932e+000  9.499422e-001  1.000000e+001
      vertex -1.772373e+000  9.266573e-001  1.000000e+001
      vertex -1.557536e+000  1.254625e+000  1.000000e+001
    endloop
  endfacet
  facet normal  0.000000e+000  0.000000e+000  9.999999e-001
    outer loop
      vertex -1.992076e+000  1.778620e-001  1.000000e+001
      vertex -4.989283e+000  3.271994e-001  1.000000e+001
      vertex -1.988498e+000 -2.141903e-001  1.000000e+001
    endloop
  endfacet
  facet normal  0.000000e+000  0.000000e+000  9.999999e-001
    outer loop
      vertex -1.988498e+000 -2.141903e-001  1.000000e+001
      vertex -4.989283e+000  3.271994e-001  1.000000e+001
      vertex -4.990950e+000 -3.007036e-001  1.000000e+001
    endloop
  endfacet
  facet normal  -0.000000e+000  0.000000e+000  1.000000e+000
    outer loop
      vertex -1.988498e+000 -2.141903e-001  1.000000e+001
      vertex -4.990950e+000 -3.007036e-001  1.000000e+001
      vertex -1.908503e+000 -5.980113e-001  1.000000e+001
    endloop
  endfacet
  facet normal  0.000000e+000  0.000000e+000  1.000000e+000
    outer loop
      vertex -1.908503e+000 -5.980113e-001  1.000000e+001
      vertex -4.990950e+000 -3.007036e-001  1.000000e+001
      vertex -4.913906e+000 -9.238643e-001  1.000000e+001
    endloop
  endfacet
  facet normal  -0.000000e+000  0.000000e+000  1.000000e+000
    outer loop
      vertex -1.908503e+000 -5.980113e-001  1.000000e+001
      vertex -4.913906e+000 -9.238643e-001  1.000000e+001
      vertex -1.755165e+000 -9.588511e-001  1.000000e+001
    endloop
  endfacet
  facet normal  0.000000e+000  0.000000e+000  1.000000e+000
    outer loop
      vertex -1.755165e+000 -9.588511e-001  1.000000e+001
      vertex -4.913906e+000 -9.238643e-001  1.000000e+001
      vertex -1.534378e+000 -1.282843e+000  1.000000e+001
    endloop
  endfacet
  facet normal  0.000000e+000  0.000000e+000  1.000000e+000
    outer loop
      vertex -1.534378e+000 -1.282843e+000  1.000000e+001
      vertex -4.913906e+000 -9.238643e-001  1.000000e+001
      vertex -4.759368e+000 -1.532455e+000  1.000000e+001
    endloop
  endfacet
  facet normal  -0.000000e+000  0.000000e+000  1.000000e+000
    outer loop
      vertex -1.534378e+000 -1.282843e+000  1.000000e+001
      vertex -4.759368e+000 -1.532455e+000  1.000000e+001
      vertex -1.254625e+000 -1.557536e+000  1.000000e+001
    endloop
  endfacet
  facet normal  0.000000e+000  0.000000e+000  9.999999e-001
    outer loop
      vertex  1.908503e+000  5.980113e-001  1.000000e+001
      vertex  4.990950e+000  3.007036e-001  1.000000e+001
      vertex  1.755165e+000  9.588511e-001  1.000000e+001
    endloop
  endfacet
  facet normal  0.000000e+000  0.000000e+000  1.000000e+000
    outer loop
      vertex  1.755165e+000  9.588511e-001  1.000000e+001
      vertex  4.990950e+000  3.007036e-001  1.000000e+001
      vertex  4.913906e+000  9.238643e-001  1.000000e+001
    endloop
  endfacet
  facet normal  0.000000e+000  0.000000e+000  1.000000e+000
    outer loop
      vertex  1.755165e+000  9.588511e-001  1.000000e+001
      vertex  4.913906e+000  9.238643e-001  1.000000e+001
      vertex  1.534378e+000  1.282843e+000  1.000000e+001
    endloop
  endfacet
  facet normal  -0.000000e+000  0.000000e+000  9.999999e-001
    outer loop
      vertex  4.990950e+000  3.007036e-001  1.000000e+001
      vertex  1.988498e+000  2.141903e-001  1.000000e+001
      vertex  4.989283e+000 -3.271994e-001  1.000000e+001
    endloop
  endfacet
  facet normal  0.000000e+000  0.000000e+000  9.999999e-001
    outer loop
      vertex  4.989283e+000 -3.271994e-001  1.000000e+001
      vertex  1.988498e+000  2.141903e-001  1.000000e+001
      vertex  1.992076e+000 -1.778620e-001  1.000000e+001
    endloop
  endfacet
  facet normal  0.000000e+000  0.000000e+000  1.000000e+000
    outer loop
      vertex  4.989283e+000 -3.271994e-001  1.000000e+001
      vertex  1.992076e+000 -1.778620e-001  1.000000e+001
      vertex  4.908932e+000 -9.499422e-001  1.000000e+001
    endloop
  endfacet
  facet normal  0.000000e+000  0.000000e+000  1.000000e+000
    outer loop
      vertex  4.908932e+000 -9.499422e-001  1.000000e+001
      vertex  1.992076e+000 -1.778620e-001  1.000000e+001
      vertex  1.919099e+000 -5.630791e-001  1.000000e+001
    endloop
  endfacet
  facet normal  0.000000e+000  0.000000e+000  9.999999e-001
    outer loop
      vertex  4.908932e+000 -9.499422e-001  1.000000e+001
      vertex  1.919099e+000 -5.630791e-001  1.000000e+001
      vertex  1.772373e+000 -9.266573e-001  1.000000e+001
    endloop
  endfacet
  facet normal  0.000000e+000  0.000000e+000  9.999999e-001
    outer loop
      vertex  4.908932e+000 -9.499422e-001  1.000000e+001
      vertex  1.772373e+000 -9.266573e-001  1.000000e+001
      vertex  4.751164e+000 -1.557704e+000  1.000000e+001
    endloop
  endfacet
  facet normal  0.000000e+000  0.000000e+000  1.000000e+000
    outer loop
      vertex  4.751164e+000 -1.557704e+000  1.000000e+001
      vertex  1.772373e+000 -9.266573e-001  1.000000e+001
      vertex  1.557536e+000 -1.254625e+000  1.000000e+001
    endloop
  endfacet
  facet normal  0.000000e+000  0.000000e+000  1.000000e+000
    outer loop
      vertex  4.751164e+000 -1.557704e+000  1.000000e+001
      vertex  1.557536e+000 -1.254625e+000  1.000000e+001
      vertex  1.282843e+000 -1.534378e+000  1.000000e+001
    endloop
  endfacet
  facet normal  0.000000e+000  0.000000e+000  1.000000e+000
    outer loop
      vertex  4.751164e+000 -1.557704e+000  1.000000e+001
      vertex  1.282843e+000 -1.534378e+000  1.000000e+001
      vertex  4.518467e+000 -2.140900e+000  1.000000e+001
    endloop
  endfacet
  facet normal  0.000000e+000  0.000000e+000  1.000000e+000
    outer loop
      vertex  4.518467e+000 -2.140900e+000  1.000000e+001
      vertex  1.282843e+000 -1.534378e+000  1.000000e+001
      vertex  9.588511e-001 -1.755165e+000  1.000000e+001
    endloop
  endfacet
  facet normal  0.000000e+000  0.000000e+000  9.999999e-001
    outer loop
      vertex  4.518467e+000 -2.140900e+000  1.000000e+001
      vertex  9.588511e-001 -1.755165e+000  1.000000e+001
      vertex  5.980113e-001 -1.908503e+000  1.000000e+001
    endloop
  endfacet
  facet normal  0.000000e+000  0.000000e+000 -1.000000e+000
    outer loop
      vertex  1.327411e-002  4.999982e+000  0.000000e+000
      vertex  6.398334e-001  4.958892e+000  0.000000e+000
      vertex -6.134945e-001  4.962220e+000  0.000000e+000
    endloop
  endfacet
  facet normal  -0.000000e+000  0.000000e+000 -1.000000e+000
    outer loop
      vertex -6.134945e-001  4.962220e+000  0.000000e+000
      vertex  6.398334e-001  4.958892e+000  0.000000e+000
      vertex -1.230588e+000  4.846200e+000  0.000000e+000
    endloop
  endfacet
  facet normal  0.000000e+000  0.000000e+000 -1.000000e+000
    outer loop
      vertex -1.230588e+000  4.846200e+000  0.000000e+000
      vertex  6.398334e-001  4.958892e+000  0.000000e+000
      vertex  1.256302e+000  4.839598e+000  0.000000e+000
    endloop
  endfacet
  facet normal  -0.000000e+000  0.000000e+000 -9.999999e-001
    outer loop
      vertex -1.230588e+000  4.846200e+000  0.000000e+000
      vertex  1.256302e+000  4.839598e+000  0.000000e+000
      vertex -1.828274e+000  4.653753e+000  0.000000e+000
    endloop
  endfacet
  facet normal  0.000000e+000  0.000000e+000 -1.000000e+000
    outer loop
      vertex -1.828274e+000  4.653753e+000  0.000000e+000
      vertex  1.256302e+000  4.839598e+000  0.000000e+000
      vertex  1.852958e+000  4.643980e+000  0.000000e+000
    endloop
  endfacet
  facet normal  -0.000000e+000  0.000000e+000 -1.000000e+000
    outer loop
      vertex -1.828274e+000  4.653753e+000  0.000000e+000
      vertex  1.852958e+000  4.643980e+000  0.000000e+000
      vertex -2.397128e+000  4.387913e+000  0.000000e+000
    endloop
  endfacet
  facet normal  0.000000e+000  0.000000e+000 -1.000000e+000
    outer loop
      vertex -2.397128e+000  4.387913e+000  0.000000e+000
      vertex  1.852958e+000  4.643980e+000  0.000000e+000
      vertex  2.420392e+000  4.375123e+000  0.000000e+000
    endloop
  endfacet
  facet normal  -0.000000e+000  0.000000e+000 -1.000000e+000
    outer loop
      vertex -2.397128e+000  4.387913e+000  0.000000e+000
      vertex  2.420392e+000  4.375123e+000  0.000000e+000
      vertex -2.928177e+000  4.052873e+000  0.000000e+000
    endloop
  endfacet
  facet normal  0.000000e+000  0.000000e+000 -1.000000e+000
    outer loop
      vertex -2.928177e+000  4.052873e+000  0.000000e+000
      vertex  2.420392e+000  4.375123e+000  0.000000e+000
      vertex  2.949655e+000  4.037268e+000  0.000000e+000
    endloop
  endfacet
  facet normal  -0.000000e+000  0.000000e+000 -1.000000e+000
    outer loop
      vertex -2.928177e+000  4.052873e+000  0.000000e+000
      vertex  2.949655e+000  4.037268e+000  0.000000e+000
      vertex -3.413047e+000  3.653917e+000  0.000000e+000
    endloop
  endfacet
  facet normal  0.000000e+000  0.000000e+000 -1.000000e+000
    outer loop
      vertex -3.413047e+000  3.653917e+000  0.000000e+000
      vertex  2.949655e+000  4.037268e+000  0.000000e+000
      vertex  3.432400e+000  3.635744e+000  0.000000e+000
    endloop
  endfacet
  facet normal  -0.000000e+000  0.000000e+000 -1.000000e+000
    outer loop
      vertex -3.413047e+000  3.653917e+000  0.000000e+000
      vertex  3.432400e+000  3.635744e+000  0.000000e+000
      vertex -3.844091e+000  3.197337e+000  0.000000e+000
    endloop
  endfacet
  facet normal  0.000000e+000  0.000000e+000 -1.000000e+000
    outer loop
      vertex -3.844091e+000  3.197337e+000  0.000000e+000
      vertex  3.432400e+000  3.635744e+000  0.000000e+000
      vertex  3.861014e+000  3.176881e+000  0.000000e+000
    endloop
  endfacet
  facet normal  -0.000000e+000  0.000000e+000 -1.000000e+000
    outer loop
      vertex -3.844091e+000  3.197337e+000  0.000000e+000
      vertex  3.861014e+000  3.176881e+000  0.000000e+000
      vertex -4.214512e+000  2.690332e+000  0.000000e+000
    endloop
  endfacet
  facet normal  0.000000e+000  0.000000e+000 -1.000000e+000
    outer loop
      vertex -4.214512e+000  2.690332e+000  0.000000e+000
      vertex  3.861014e+000  3.176881e+000  0.000000e+000
      vertex  4.228737e+000  2.667917e+000  0.000000e+000
    endloop
  endfacet
  facet normal  -0.000000e+000  0.000000e+000 -1.000000e+000
    outer loop
      vertex -4.214512e+000  2.690332e+000  0.000000e+000
      vertex  4.228737e+000  2.667917e+000  0.000000e+000
      vertex -4.518467e+000  2.140900e+000  0.000000e+000
    endloop
  endfacet
  facet normal  0.000000e+000  0.000000e+000 -1.000000e+000
    outer loop
      vertex -4.518467e+000  2.140900e+000  0.000000e+000
      vertex  4.228737e+000  2.667917e+000  0.000000e+000
      vertex  4.529771e+000  2.116878e+000  0.000000e+000
    endloop
  endfacet
  facet normal  -0.000000e+000  0.000000e+000 -9.999999e-001
    outer loop
      vertex -4.518467e+000  2.140900e+000  0.000000e+000
      vertex  4.529771e+000  2.116878e+000  0.000000e+000
      vertex -4.751164e+000  1.557704e+000  0.000000e+000
    endloop
  endfacet
  facet normal  0.000000e+000  0.000000e+000 -1.000000e+000
    outer loop
      vertex -4.751164e+000  1.557704e+000  0.000000e+000
      vertex  4.529771e+000  2.116878e+000  0.000000e+000
      vertex  4.759368e+000  1.532455e+000  0.000000e+000
    endloop
  endfacet
  facet normal  -0.000000e+000  0.000000e+000 -1.000000e+000
    outer loop
      vertex -4.751164e+000  1.557704e+000  0.000000e+000
      vertex  4.759368e+000  1.532455e+000  0.000000e+000
      vertex -4.908932e+000  9.499422e-001  0.000000e+000
    endloop
  endfacet
  facet normal  0.000000e+000  0.000000e+000 -1.000000e+000
    outer loop
      vertex -4.908932e+000  9.499422e-001  0.000000e+000
      vertex  4.759368e+000  1.532455e+000  0.000000e+000
      vertex  4.913906e+000  9.238643e-001  0.000000e+000
    endloop
  endfacet
  facet normal  -0.000000e+000  0.000000e+000 -1.000000e+000
    outer loop
      vertex -4.908932e+000  9.499422e-001  0.000000e+000
      vertex  4.913906e+000  9.238643e-001  0.000000e+000
      vertex -4.989283e+000  3.271994e-001  0.000000e+000
    endloop
  endfacet
  facet normal  0.000000e+000  0.000000e+000 -1.000000e+000
    outer loop
      vertex -4.989283e+000  3.271994e-001  0.000000e+000
      vertex  4.913906e+000  9.238643e-001  0.000000e+000
      vertex  4.990950e+000  3.007036e-001  0.000000e+000
    endloop
  endfacet
  facet normal  -0.000000e+000  0.000000e+000 -1.000000e+000
    outer loop
      vertex -4.989283e+000  3.271994e-001  0.000000e+000
      vertex  4.990950e+000  3.007036e-001  0.000000e+000
      vertex -4.990950e+000 -3.007036e-001  0.000000e+000
    endloop
  endfacet
  facet normal  0.000000e+000  0.000000e+000 -1.000000e+000
    outer loop
      vertex -4.990950e+000 -3.007036e-001  0.000000e+000
      vertex  4.990950e+000  3.007036e-001  0.000000e+000
      vertex  4.989283e+000 -3.271994e-001  0.000000e+000
    endloop
  endfacet
  facet normal  -0.000000e+000  0.000000e+000 -1.000000e+000
    outer loop
      vertex -4.990950e+000 -3.007036e-001  0.000000e+000
      vertex  4.989283e+000 -3.271994e-001  0.000000e+000
      vertex -4.913906e+000 -9.238643e-001  0.000000e+000
    endloop
  endfacet
  facet normal  0.000000e+000  0.000000e+000 -1.000000e+000
    outer loop
      vertex -4.913906e+000 -9.238643e-001  0.000000e+000
      vertex  4.989283e+000 -3.271994e-001  0.000000e+000
      vertex  4.908932e+000 -9.499422e-001  0.000000e+000
    endloop
  endfacet
  facet normal  -0.000000e+000  0.000000e+000 -1.000000e+000
    outer loop
      vertex -4.913906e+000 -9.238643e-001  0.000000e+000
      vertex  4.908932e+000 -9.499422e-001  0.000000e+000
      vertex -4.759368e+000 -1.532455e+000  0.000000e+000
    endloop
  endfacet
  facet normal  0.000000e+000  0.000000e+000 -1.000000e+000
    outer loop
      vertex -4.759368e+000 -1.532455e+000  0.000000e+000
      vertex  4.908932e+000 -9.499422e-001  0.000000e+000
      vertex  4.751164e+000 -1.557704e+000  0.000000e+000
    endloop
  endfacet
  facet normal  -0.000000e+000  0.000000e+000 -1.000000e+000
    outer loop
      vertex -4.759368e+000 -1.532455e+000  0.000000e+000
      vertex  4.751164e+000 -1.557704e+000  0.000000e+000
      vertex -4.529771e+000 -2.116878e+000  0.000000e+000
    endloop
  endfacet
  facet normal  0.000000e+000  0.000000e+000 -9.999999e-001
    outer loop
      vertex -4.529771e+000 -2.116878e+000  0.000000e+000
      vertex  4.751164e+000 -1.557704e+000  0.000000e+000
      vertex  4.518467e+000 -2.140900e+000  0.000000e+000
    endloop
  endfacet
  facet normal  -0.000000e+000  0.000000e+000 -1.000000e+000
    outer loop
      vertex -4.529771e+000 -2.116878e+000  0.000000e+000
      vertex  4.518467e+000 -2.140900e+000  0.000000e+000
      vertex -4.228737e+000 -2.667917e+000  0.000000e+000
    endloop
  endfacet
  facet normal  0.000000e+000  0.000000e+000 -1.000000e+000
    outer loop
      vertex -4.228737e+000 -2.667917e+000  0.000000e+000
      vertex  4.518467e+000 -2.140900e+000  0.000000e+000
      vertex  4.214512e+000 -2.690332e+000  0.000000e+000
    endloop
  endfacet
  facet normal  -0.000000e+000  0.000000e+000 -1.000000e+000
    outer loop
      vertex -4.228737e+000 -2.667917e+000  0.000000e+000
      vertex  4.214512e+000 -2.690332e+000  0.000000e+000
      vertex -3.861014e+000 -3.176881e+000  0.000000e+000
    endloop
  endfacet
  facet normal  0.000000e+000  0.000000e+000 -1.000000e+000
    outer loop
      vertex -3.861014e+000 -3.176881e+000  0.000000e+000
      vertex  4.214512e+000 -2.690332e+000  0.000000e+000
      vertex  3.844091e+000 -3.197337e+000  0.000000e+000
    endloop
  endfacet
  facet normal  -0.000000e+000  0.000000e+000 -1.000000e+000
    outer loop
      vertex -3.861014e+000 -3.176881e+000  0.000000e+000
      vertex  3.844091e+000 -3.197337e+000  0.000000e+000
      vertex -3.432400e+000 -3.635744e+000  0.000000e+000
    endloop
  endfacet
  facet normal  0.000000e+000  0.000000e+000 -1.000000e+000
    outer loop
      vertex -3.432400e+000 -3.635744e+000  0.000000e+000
      vertex  3.844091e+000 -3.197337e+000  0.000000e+000
      vertex  3.413047e+000 -3.653917e+000  0.000000e+000
    endloop
  endfacet
  facet normal  -0.000000e+000  0.000000e+000 -1.000000e+000
    outer loop
      vertex -3.432400e+000 -3.635744e+000  0.000000e+000
      vertex  3.413047e+000 -3.653917e+000  0.000000e+000
      vertex -2.949655e+000 -4.037268e+000  0.000000e+000
    endloop
  endfacet
  facet normal  0.000000e+000  0.000000e+000 -1.000000e+000
    outer loop
      vertex -2.949655e+000 -4.037268e+000  0.000000e+000
      vertex  3.413047e+000 -3.653917e+000  0.000000e+000
      vertex  2.928177e+000 -4.052873e+000  0.000000e+000
    endloop
  endfacet
  facet normal  -0.000000e+000  0.000000e+000 -1.000000e+000
    outer loop
      vertex -2.949655e+000 -4.037268e+000  0.000000e+000
      vertex  2.928177e+000 -4.052873e+000  0.000000e+000
      vertex -2.420392e+000 -4.375123e+000  0.000000e+000
    endloop
  endfacet
  facet normal  0.000000e+000  0.000000e+000 -1.000000e+000
    outer loop
      vertex -2.420392e+000 -4.375123e+000  0.000000e+000
      vertex  2.928177e+000 -4.052873e+000  0.000000e+000
      vertex  2.397128e+000 -4.387913e+000  0.000000e+000
    endloop
  endfacet
  facet normal  -0.000000e+000  0.000000e+000 -1.000000e+000
    outer loop
      vertex -2.420392e+000 -4.375123e+000  0.000000e+000
      vertex  2.397128e+000 -4.387913e+000  0.000000e+000
      vertex -1.852958e+000 -4.643980e+000  0.000000e+000
    endloop
  endfacet
  facet normal  0.000000e+000  0.000000e+000 -1.000000e+000
    outer loop
      vertex -1.852958e+000 -4.643980e+000  0.000000e+000
      vertex  2.397128e+000 -4.387913e+000  0.000000e+000
      vertex  1.828274e+000 -4.653753e+000  0.000000e+000
    endloop
  endfacet
  facet normal  -0.000000e+000  0.000000e+000 -1.000000e+000
    outer loop
      vertex -1.852958e+000 -4.643980e+000  0.000000e+000
      vertex  1.828274e+000 -4.653753e+000  0.000000e+000
      vertex -1.256302e+000 -4.839598e+000  0.000000e+000
    endloop
  endfacet
  facet normal  0.000000e+000  0.000000e+000 -9.999999e-001
    outer loop
      vertex -1.256302e+000 -4.839598e+000  0.000000e+000
      vertex  1.828274e+000 -4.653753e+000  0.000000e+000
      vertex  1.230588e+000 -4.846200e+000  0.000000e+000
    endloop
  endfacet
  facet normal  -0.000000e+000  0.000000e+000 -1.000000e+000
    outer loop
      vertex -1.256302e+000 -4.839598e+000  0.000000e+000
      vertex  1.230588e+000 -4.846200e+000  0.000000e+000
      vertex -6.398334e-001 -4.958892e+000  0.000000e+000
    endloop
  endfacet
  facet normal  0.000000e+000  0.000000e+000 -1.000000e+000
    outer loop
      vertex -6.398334e-001 -4.958892e+000  0.000000e+000
      vertex  1.230588e+000 -4.846200e+000  0.000000e+000
      vertex  6.134945e-001 -4.962220e+000  0.000000e+000
    endloop
  endfacet
  facet normal  -0.000000e+000  0.000000e+000 -1.000000e+000
    outer loop
      vertex -6.398334e-001 -4.958892e+000  0.000000e+000
      vertex  6.134945e-001 -4.962220e+000  0.000000e+000
      vertex -1.327411e-002 -4.999982e+000  0.000000e+000
    endloop
  endfacet
  facet normal -3.910989e-001  9.203487e-001  0.000000e+000
    outer loop
      vertex -9.588511e-001  1.755165e+000  1.000000e+001
      vertex -9.588511e-001  1.755165e+000  5.200000e+001
      vertex -5.980113e-001  1.908503e+000  1.000000e+001
    endloop
  endfacet
  facet normal -3.910989e-001  9.203487e-001  0.000000e+000
    outer loop
      vertex -5.980113e-001  1.908503e+000  1.000000e+001
      vertex -9.588511e-001  1.755165e+000  5.200000e+001
      vertex -5.980113e-001  1.908503e+000  5.200000e+001
    endloop
  endfacet
  facet normal -2.040330e-001  9.789640e-001  0.000000e+000
    outer loop
      vertex -5.980113e-001  1.908503e+000  1.000000e+001
      vertex -5.980113e-001  1.908503e+000  5.200000e+001
      vertex -2.141903e-001  1.988498e+000  1.000000e+001
    endloop
  endfacet
  facet normal -2.040330e-001  9.789640e-001  0.000000e+000
    outer loop
      vertex -2.141903e-001  1.988498e+000  1.000000e+001
      vertex -5.980113e-001  1.908503e+000  5.200000e+001
      vertex -2.141903e-001  1.988498e+000  5.200000e+001
    endloop
  endfacet
  facet normal -9.125820e-003  9.999583e-001  0.000000e+000
    outer loop
      vertex -2.141903e-001  1.988498e+000  1.000000e+001
      vertex -2.141903e-001  1.988498e+000  5.200000e+001
      vertex  1.778620e-001  1.992076e+000  1.000000e+001
    endloop
  endfacet
  facet normal -9.125820e-003  9.999583e-001  0.000000e+000
    outer loop
      vertex  1.778620e-001  1.992076e+000  1.000000e+001
      vertex -2.141903e-001  1.988498e+000  5.200000e+001
      vertex  1.778620e-001  1.992076e+000  5.200000e+001
    endloop
  endfacet
  facet normal  1.861316e-001  9.825248e-001  0.000000e+000
    outer loop
      vertex  1.778620e-001  1.992076e+000  1.000000e+001
      vertex  1.778620e-001  1.992076e+000  5.200000e+001
      vertex  5.630791e-001  1.919099e+000  1.000000e+001
    endloop
  endfacet
  facet normal  1.861316e-001  9.825248e-001  -0.000000e+000
    outer loop
      vertex  5.630791e-001  1.919099e+000  1.000000e+001
      vertex  1.778620e-001  1.992076e+000  5.200000e+001
      vertex  5.630791e-001  1.919099e+000  5.200000e+001
    endloop
  endfacet
  facet normal  3.742360e-001  9.273335e-001  0.000000e+000
    outer loop
      vertex  5.630791e-001  1.919099e+000  1.000000e+001
      vertex  5.630791e-001  1.919099e+000  5.200000e+001
      vertex  9.266573e-001  1.772373e+000  1.000000e+001
    endloop
  endfacet
  facet normal  3.742360e-001  9.273335e-001  -0.000000e+000
    outer loop
      vertex  9.266573e-001  1.772373e+000  1.000000e+001
      vertex  5.630791e-001  1.919099e+000  5.200000e+001
      vertex  9.266573e-001  1.772373e+000  5.200000e+001
    endloop
  endfacet
  facet normal  5.479590e-001  8.365051e-001  0.000000e+000
    outer loop
      vertex  9.266573e-001  1.772373e+000  1.000000e+001
      vertex  9.266573e-001  1.772373e+000  5.200000e+001
      vertex  1.254625e+000  1.557536e+000  1.000000e+001
    endloop
  endfacet
  facet normal  5.479590e-001  8.365051e-001  -0.000000e+000
    outer loop
      vertex  1.254625e+000  1.557536e+000  1.000000e+001
      vertex  9.266573e-001  1.772373e+000  5.200000e+001
      vertex  1.254625e+000  1.557536e+000  5.200000e+001
    endloop
  endfacet
  facet normal  7.006242e-001  7.135304e-001  0.000000e+000
    outer loop
      vertex  1.254625e+000  1.557536e+000  1.000000e+001
      vertex  1.254625e+000  1.557536e+000  5.200000e+001
      vertex  1.534378e+000  1.282843e+000  1.000000e+001
    endloop
  endfacet
  facet normal  7.006242e-001  7.135304e-001  -0.000000e+000
    outer loop
      vertex  1.534378e+000  1.282843e+000  1.000000e+001
      vertex  1.254625e+000  1.557536e+000  5.200000e+001
      vertex  1.534378e+000  1.282843e+000  5.200000e+001
    endloop
  endfacet
  facet normal  8.263648e-001  5.631350e-001  0.000000e+000
    outer loop
      vertex  1.534378e+000  1.282843e+000  1.000000e+001
      vertex  1.534378e+000  1.282843e+000  5.200000e+001
      vertex  1.755165e+000  9.588511e-001  1.000000e+001
    endloop
  endfacet
  facet normal  8.263648e-001  5.631350e-001  -0.000000e+000
    outer loop
      vertex  1.755165e+000  9.588511e-001  1.000000e+001
      vertex  1.534378e+000  1.282843e+000  5.200000e+001
      vertex  1.755165e+000  9.588511e-001  5.200000e+001
    endloop
  endfacet
  facet normal  9.203487e-001  3.910989e-001  0.000000e+000
    outer loop
      vertex  1.755165e+000  9.588511e-001  1.000000e+001
      vertex  1.755165e+000  9.588511e-001  5.200000e+001
      vertex  1.908503e+000  5.980113e-001  1.000000e+001
    endloop
  endfacet
  facet normal  9.203487e-001  3.910989e-001  -0.000000e+000
    outer loop
      vertex  1.908503e+000  5.980113e-001  1.000000e+001
      vertex  1.755165e+000  9.588511e-001  5.200000e+001
      vertex  1.908503e+000  5.980113e-001  5.200000e+001
    endloop
  endfacet
  facet normal  9.789640e-001  2.040330e-001  0.000000e+000
    outer loop
      vertex  1.908503e+000  5.980113e-001  1.000000e+001
      vertex  1.908503e+000  5.980113e-001  5.200000e+001
      vertex  1.988498e+000  2.141903e-001  1.000000e+001
    endloop
  endfacet
  facet normal  9.789640e-001  2.040330e-001  -0.000000e+000
    outer loop
      vertex  1.988498e+000  2.141903e-001  1.000000e+001
      vertex  1.908503e+000  5.980113e-001  5.200000e+001
      vertex  1.988498e+000  2.141903e-001  5.200000e+001
    endloop
  endfacet
  facet normal  9.999583e-001  9.125820e-003  0.000000e+000
    outer loop
      vertex  1.988498e+000  2.141903e-001  1.000000e+001
      vertex  1.988498e+000  2.141903e-001  5.200000e+001
      vertex  1.992076e+000 -1.778620e-001  1.000000e+001
    endloop
  endfacet
  facet normal  9.999583e-001  9.125820e-003  -0.000000e+000
    outer loop
      vertex  1.992076e+000 -1.778620e-001  1.000000e+001
      vertex  1.988498e+000  2.141903e-001  5.200000e+001
      vertex  1.992076e+000 -1.778620e-001  5.200000e+001
    endloop
  endfacet
  facet normal  9.825248e-001 -1.861316e-001  0.000000e+000
    outer loop
      vertex  1.992076e+000 -1.778620e-001  1.000000e+001
      vertex  1.992076e+000 -1.778620e-001  5.200000e+001
      vertex  1.919099e+000 -5.630791e-001  1.000000e+001
    endloop
  endfacet
  facet normal  9.825248e-001 -1.861316e-001  0.000000e+000
    outer loop
      vertex  1.919099e+000 -5.630791e-001  1.000000e+001
      vertex  1.992076e+000 -1.778620e-001  5.200000e+001
      vertex  1.919099e+000 -5.630791e-001  5.200000e+001
    endloop
  endfacet
  facet normal  9.273335e-001 -3.742360e-001  0.000000e+000
    outer loop
      vertex  1.919099e+000 -5.630791e-001  1.000000e+001
      vertex  1.919099e+000 -5.630791e-001  5.200000e+001
      vertex  1.772373e+000 -9.266573e-001  1.000000e+001
    endloop
  endfacet
  facet normal  9.273335e-001 -3.742360e-001  0.000000e+000
    outer loop
      vertex  1.772373e+000 -9.266573e-001  1.000000e+001
      vertex  1.919099e+000 -5.630791e-001  5.200000e+001
      vertex  1.772373e+000 -9.266573e-001  5.200000e+001
    endloop
  endfacet
  facet normal  8.365051e-001 -5.479590e-001  0.000000e+000
    outer loop
      vertex  1.772373e+000 -9.266573e-001  1.000000e+001
      vertex  1.772373e+000 -9.266573e-001  5.200000e+001
      vertex  1.557536e+000 -1.254625e+000  1.000000e+001
    endloop
  endfacet
  facet normal  8.365051e-001 -5.479590e-001  0.000000e+000
    outer loop
      vertex  1.557536e+000 -1.254625e+000  1.000000e+001
      vertex  1.772373e+000 -9.266573e-001  5.200000e+001
      vertex  1.557536e+000 -1.254625e+000  5.200000e+001
    endloop
  endfacet
  facet normal  7.135304e-001 -7.006242e-001  0.000000e+000
    outer loop
      vertex  1.557536e+000 -1.254625e+000  1.000000e+001
      vertex  1.557536e+000 -1.254625e+000  5.200000e+001
      vertex  1.282843e+000 -1.534378e+000  1.000000e+001
    endloop
  endfacet
  facet normal  7.135304e-001 -7.006242e-001  0.000000e+000
    outer loop
      vertex  1.282843e+000 -1.534378e+000  1.000000e+001
      vertex  1.557536e+000 -1.254625e+000  5.200000e+001
      vertex  1.282843e+000 -1.534378e+000  5.200000e+001
    endloop
  endfacet
  facet normal  5.631350e-001 -8.263648e-001  0.000000e+000
    outer loop
      vertex  1.282843e+000 -1.534378e+000  1.000000e+001
      vertex  1.282843e+000 -1.534378e+000  5.200000e+001
      vertex  9.588511e-001 -1.755165e+000  1.000000e+001
    endloop
  endfacet
  facet normal  5.631350e-001 -8.263648e-001  0.000000e+000
    outer loop
      vertex  9.588511e-001 -1.755165e+000  1.000000e+001
      vertex  1.282843e+000 -1.534378e+000  5.200000e+001
      vertex  9.588511e-001 -1.755165e+000  5.200000e+001
    endloop
  endfacet
  facet normal -4.233761e-001  9.059541e-001  0.000000e+000
    outer loop
      vertex -2.397128e+000  4.387913e+000  0.000000e+000
      vertex -2.397128e+000  4.387913e+000  1.000000e+001
      vertex -1.828274e+000  4.653753e+000  0.000000e+000
    endloop
  endfacet
  facet normal -4.233761e-001  9.059541e-001  0.000000e+000
    outer loop
      vertex -1.828274e+000  4.653753e+000  0.000000e+000
      vertex -2.397128e+000  4.387913e+000  1.000000e+001
      vertex -1.828274e+000  4.653753e+000  1.000000e+001
    endloop
  endfacet
  facet normal -3.064908e-001  9.518737e-001  0.000000e+000
    outer loop
      vertex -1.828274e+000  4.653753e+000  0.000000e+000
      vertex -1.828274e+000  4.653753e+000  1.000000e+001
      vertex -1.230588e+000  4.846200e+000  0.000000e+000
    endloop
  endfacet
  facet normal -3.064908e-001  9.518737e-001  0.000000e+000
    outer loop
      vertex -1.230588e+000  4.846200e+000  0.000000e+000
      vertex -1.828274e+000  4.653753e+000  1.000000e+001
      vertex -1.230588e+000  4.846200e+000  1.000000e+001
    endloop
  endfacet
  facet normal -1.847727e-001  9.827814e-001  0.000000e+000
    outer loop
      vertex -1.230588e+000  4.846200e+000  0.000000e+000
      vertex -1.230588e+000  4.846200e+000  1.000000e+001
      vertex -6.134945e-001  4.962220e+000  0.000000e+000
    endloop
  endfacet
  facet normal -1.847727e-001  9.827814e-001  0.000000e+000
    outer loop
      vertex -6.134945e-001  4.962220e+000  0.000000e+000
      vertex -1.230588e+000  4.846200e+000  1.000000e+001
      vertex -6.134945e-001  4.962220e+000  1.000000e+001
    endloop
  endfacet
  facet normal -6.014067e-002  9.981899e-001  0.000000e+000
    outer loop
      vertex -6.134945e-001  4.962220e+000  0.000000e+000
      vertex -6.134945e-001  4.962220e+000  1.000000e+001
      vertex  1.327411e-002  4.999982e+000  0.000000e+000
    endloop
  endfacet
  facet normal -6.014067e-002  9.981899e-001  0.000000e+000
    outer loop
      vertex  1.327411e-002  4.999982e+000  0.000000e+000
      vertex -6.134945e-001  4.962220e+000  1.000000e+001
      vertex  1.327411e-002  4.999982e+000  1.000000e+001
    endloop
  endfacet
  facet normal  6.543984e-002  9.978566e-001  0.000000e+000
    outer loop
      vertex  1.327411e-002  4.999982e+000  0.000000e+000
      vertex  1.327411e-002  4.999982e+000  1.000000e+001
      vertex  6.398334e-001  4.958892e+000  0.000000e+000
    endloop
  endfacet
  facet normal  6.543984e-002  9.978566e-001  -0.000000e+000
    outer loop
      vertex  6.398334e-001  4.958892e+000  0.000000e+000
      vertex  1.327411e-002  4.999982e+000  1.000000e+001
      vertex  6.398334e-001  4.958892e+000  1.000000e+001
    endloop
  endfacet
  facet normal  1.899883e-001  9.817864e-001  0.000000e+000
    outer loop
      vertex  6.398334e-001  4.958892e+000  0.000000e+000
      vertex  6.398334e-001  4.958892e+000  1.000000e+001
      vertex  1.256302e+000  4.839598e+000  0.000000e+000
    endloop
  endfacet
  facet normal  1.899883e-001  9.817864e-001  -0.000000e+000
    outer loop
      vertex  1.256302e+000  4.839598e+000  0.000000e+000
      vertex  6.398334e-001  4.958892e+000  1.000000e+001
      vertex  1.256302e+000  4.839598e+000  1.000000e+001
    endloop
  endfacet
  facet normal  3.115409e-001  9.502327e-001  0.000000e+000
    outer loop
      vertex  1.256302e+000  4.839598e+000  0.000000e+000
      vertex  1.256302e+000  4.839598e+000  1.000000e+001
      vertex  1.852958e+000  4.643980e+000  0.000000e+000
    endloop
  endfacet
  facet normal  3.115409e-001  9.502327e-001  -0.000000e+000
    outer loop
      vertex  1.852958e+000  4.643980e+000  0.000000e+000
      vertex  1.256302e+000  4.839598e+000  1.000000e+001
      vertex  1.852958e+000  4.643980e+000  1.000000e+001
    endloop
  endfacet
  facet normal  4.281801e-001  9.036934e-001  0.000000e+000
    outer loop
      vertex  1.852958e+000  4.643980e+000  0.000000e+000
      vertex  1.852958e+000  4.643980e+000  1.000000e+001
      vertex  2.420392e+000  4.375123e+000  0.000000e+000
    endloop
  endfacet
  facet normal  4.281801e-001  9.036934e-001  -0.000000e+000
    outer loop
      vertex  2.420392e+000  4.375123e+000  0.000000e+000
      vertex  1.852958e+000  4.643980e+000  1.000000e+001
      vertex  2.420392e+000  4.375123e+000  1.000000e+001
    endloop
  endfacet
  facet normal  5.380667e-001  8.429024e-001  0.000000e+000
    outer loop
      vertex  2.420392e+000  4.375123e+000  0.000000e+000
      vertex  2.420392e+000  4.375123e+000  1.000000e+001
      vertex  2.949655e+000  4.037268e+000  0.000000e+000
    endloop
  endfacet
  facet normal  5.380667e-001  8.429024e-001  -0.000000e+000
    outer loop
      vertex  2.949655e+000  4.037268e+000  0.000000e+000
      vertex  2.420392e+000  4.375123e+000  1.000000e+001
      vertex  2.949655e+000  4.037268e+000  1.000000e+001
    endloop
  endfacet
  facet normal  6.394669e-001  7.688186e-001  0.000000e+000
    outer loop
      vertex  2.949655e+000  4.037268e+000  0.000000e+000
      vertex  2.949655e+000  4.037268e+000  1.000000e+001
      vertex  3.432400e+000  3.635744e+000  0.000000e+000
    endloop
  endfacet
  facet normal  6.394669e-001  7.688186e-001  -0.000000e+000
    outer loop
      vertex  3.432400e+000  3.635744e+000  0.000000e+000
      vertex  2.949655e+000  4.037268e+000  1.000000e+001
      vertex  3.432400e+000  3.635744e+000  1.000000e+001
    endloop
  endfacet
  facet normal  7.307836e-001  6.826093e-001  0.000000e+000
    outer loop
      vertex  3.432400e+000  3.635744e+000  0.000000e+000
      vertex  3.432400e+000  3.635744e+000  1.000000e+001
      vertex  3.861014e+000  3.176881e+000  0.000000e+000
    endloop
  endfacet
  facet normal  7.307836e-001  6.826093e-001  -0.000000e+000
    outer loop
      vertex  3.861014e+000  3.176881e+000  0.000000e+000
      vertex  3.432400e+000  3.635744e+000  1.000000e+001
      vertex  3.861014e+000  3.176881e+000  1.000000e+001
    endloop
  endfacet
  facet normal  8.105747e-001  5.856353e-001  0.000000e+000
    outer loop
      vertex  3.861014e+000  3.176881e+000  0.000000e+000
      vertex  3.861014e+000  3.176881e+000  1.000000e+001
      vertex  4.228737e+000  2.667917e+000  0.000000e+000
    endloop
  endfacet
  facet normal  8.105747e-001  5.856353e-001  -0.000000e+000
    outer loop
      vertex  4.228737e+000  2.667917e+000  0.000000e+000
      vertex  3.861014e+000  3.176881e+000  1.000000e+001
      vertex  4.228737e+000  2.667917e+000  1.000000e+001
    endloop
  endfacet
  facet normal  8.775824e-001  4.794259e-001  0.000000e+000
    outer loop
      vertex  4.228737e+000  2.667917e+000  0.000000e+000
      vertex  4.228737e+000  2.667917e+000  1.000000e+001
      vertex  4.529771e+000  2.116878e+000  0.000000e+000
    endloop
  endfacet
  facet normal  8.775824e-001  4.794259e-001  -0.000000e+000
    outer loop
      vertex  4.529771e+000  2.116878e+000  0.000000e+000
      vertex  4.228737e+000  2.667917e+000  1.000000e+001
      vertex  4.529771e+000  2.116878e+000  1.000000e+001
    endloop
  endfacet
  facet normal  9.307505e-001  3.656549e-001  0.000000e+000
    outer loop
      vertex  4.529771e+000  2.116878e+000  0.000000e+000
      vertex  4.529771e+000  2.116878e+000  1.000000e+001
      vertex  4.759368e+000  1.532455e+000  0.000000e+000
    endloop
  endfacet
  facet normal  9.307505e-001  3.656549e-001  -0.000000e+000
    outer loop
      vertex  4.759368e+000  1.532455e+000  0.000000e+000
      vertex  4.529771e+000  2.116878e+000  1.000000e+001
      vertex  4.759368e+000  1.532455e+000  1.000000e+001
    endloop
  endfacet
  facet normal  9.692401e-001  2.461171e-001  0.000000e+000
    outer loop
      vertex  4.759368e+000  1.532455e+000  0.000000e+000
      vertex  4.759368e+000  1.532455e+000  1.000000e+001
      vertex  4.913906e+000  9.238643e-001  0.000000e+000
    endloop
  endfacet
  facet normal  9.692401e-001  2.461171e-001  -0.000000e+000
    outer loop
      vertex  4.913906e+000  9.238643e-001  0.000000e+000
      vertex  4.759368e+000  1.532455e+000  1.000000e+001
      vertex  4.913906e+000  9.238643e-001  1.000000e+001
    endloop
  endfacet
  facet normal  9.924439e-001  1.226993e-001  0.000000e+000
    outer loop
      vertex  4.913906e+000  9.238643e-001  0.000000e+000
      vertex  4.913906e+000  9.238643e-001  1.000000e+001
      vertex  4.990950e+000  3.007036e-001  0.000000e+000
    endloop
  endfacet
  facet normal  9.924439e-001  1.226993e-001  -0.000000e+000
    outer loop
      vertex  4.990950e+000  3.007036e-001  0.000000e+000
      vertex  4.913906e+000  9.238643e-001  1.000000e+001
      vertex  4.990950e+000  3.007036e-001  1.000000e+001
    endloop
  endfacet
  facet normal  9.999964e-001 -2.654895e-003  0.000000e+000
    outer loop
      vertex  4.990950e+000  3.007036e-001  0.000000e+000
      vertex  4.990950e+000  3.007036e-001  1.000000e+001
      vertex  4.989283e+000 -3.271994e-001  0.000000e+000
    endloop
  endfacet
  facet normal  9.999964e-001 -2.654895e-003  0.000000e+000
    outer loop
      vertex  4.989283e+000 -3.271994e-001  0.000000e+000
      vertex  4.990950e+000  3.007036e-001  1.000000e+001
      vertex  4.989283e+000 -3.271994e-001  1.000000e+001
    endloop
  endfacet
  facet normal  9.917785e-001 -1.279666e-001  0.000000e+000
    outer loop
      vertex  4.989283e+000 -3.271994e-001  0.000000e+000
      vertex  4.989283e+000 -3.271994e-001  1.000000e+001
      vertex  4.908932e+000 -9.499422e-001  0.000000e+000
    endloop
  endfacet
  facet normal  9.917785e-001 -1.279666e-001  0.000000e+000
    outer loop
      vertex  4.908932e+000 -9.499422e-001  0.000000e+000
      vertex  4.989283e+000 -3.271994e-001  1.000000e+001
      vertex  4.908932e+000 -9.499422e-001  1.000000e+001
    endloop
  endfacet
  facet normal  9.679195e-001 -2.512605e-001  0.000000e+000
    outer loop
      vertex  4.908932e+000 -9.499422e-001  0.000000e+000
      vertex  4.908932e+000 -9.499422e-001  1.000000e+001
      vertex  4.751164e+000 -1.557704e+000  0.000000e+000
    endloop
  endfacet
  facet normal  9.679195e-001 -2.512605e-001  0.000000e+000
    outer loop
      vertex  4.751164e+000 -1.557704e+000  0.000000e+000
      vertex  4.908932e+000 -9.499422e-001  1.000000e+001
      vertex  4.751164e+000 -1.557704e+000  1.000000e+001
    endloop
  endfacet
  facet normal  9.287958e-001 -3.705918e-001  0.000000e+000
    outer loop
      vertex  4.751164e+000 -1.557704e+000  0.000000e+000
      vertex  4.751164e+000 -1.557704e+000  1.000000e+001
      vertex  4.518467e+000 -2.140900e+000  0.000000e+000
    endloop
  endfacet
  facet normal  9.287958e-001 -3.705918e-001  0.000000e+000
    outer loop
      vertex  4.518467e+000 -2.140900e+000  0.000000e+000
      vertex  4.751164e+000 -1.557704e+000  1.000000e+001
      vertex  4.518467e+000 -2.140900e+000  1.000000e+001
    endloop
  endfacet
  facet normal  8.750249e-001 -4.840781e-001  0.000000e+000
    outer loop
      vertex  4.518467e+000 -2.140900e+000  0.000000e+000
      vertex  4.518467e+000 -2.140900e+000  1.000000e+001
      vertex  4.214512e+000 -2.690332e+000  0.000000e+000
    endloop
  endfacet
  facet normal  8.750249e-001 -4.840781e-001  0.000000e+000
    outer loop
      vertex  4.214512e+000 -2.690332e+000  0.000000e+000
      vertex  4.518467e+000 -2.140900e+000  1.000000e+001
      vertex  4.214512e+000 -2.690332e+000  1.000000e+001
    endloop
  endfacet
  facet normal  8.074536e-001 -5.899311e-001  0.000000e+000
    outer loop
      vertex  4.214512e+000 -2.690332e+000  0.000000e+000
      vertex  4.214512e+000 -2.690332e+000  1.000000e+001
      vertex  3.844091e+000 -3.197337e+000  0.000000e+000
    endloop
  endfacet
  facet normal  8.074536e-001 -5.899311e-001  0.000000e+000
    outer loop
      vertex  3.844091e+000 -3.197337e+000  0.000000e+000
      vertex  4.214512e+000 -2.690332e+000  1.000000e+001
      vertex  3.844091e+000 -3.197337e+000  1.000000e+001
    endloop
  endfacet
  facet normal  7.271487e-001 -6.864800e-001  0.000000e+000
    outer loop
      vertex  3.844091e+000 -3.197337e+000  0.000000e+000
      vertex  3.844091e+000 -3.197337e+000  1.000000e+001
      vertex  3.413047e+000 -3.653917e+000  0.000000e+000
    endloop
  endfacet
  facet normal  7.271487e-001 -6.864800e-001  0.000000e+000
    outer loop
      vertex  3.413047e+000 -3.653917e+000  0.000000e+000
      vertex  3.844091e+000 -3.197337e+000  1.000000e+001
      vertex  3.413047e+000 -3.653917e+000  1.000000e+001
    endloop
  endfacet
  facet normal  6.353762e-001 -7.722028e-001  0.000000e+000
    outer loop
      vertex  3.413047e+000 -3.653917e+000  0.000000e+000
      vertex  3.413047e+000 -3.653917e+000  1.000000e+001
      vertex  2.928177e+000 -4.052873e+000  0.000000e+000
    endloop
  endfacet
  facet normal  6.353762e-001 -7.722028e-001  0.000000e+000
    outer loop
      vertex  2.928177e+000 -4.052873e+000  0.000000e+000
      vertex  3.413047e+000 -3.653917e+000  1.000000e+001
      vertex  2.928177e+000 -4.052873e+000  1.000000e+001
    endloop
  endfacet
  facet normal  5.335832e-001 -8.457475e-001  0.000000e+000
    outer loop
      vertex  2.928177e+000 -4.052873e+000  0.000000e+000
      vertex  2.928177e+000 -4.052873e+000  1.000000e+001
      vertex  2.397128e+000 -4.387913e+000  0.000000e+000
    endloop
  endfacet
  facet normal  5.335832e-001 -8.457475e-001  0.000000e+000
    outer loop
      vertex  2.397128e+000 -4.387913e+000  0.000000e+000
      vertex  2.928177e+000 -4.052873e+000  1.000000e+001
      vertex  2.397128e+000 -4.387913e+000  1.000000e+001
    endloop
  endfacet
  facet normal  3.910989e-001 -9.203487e-001  0.000000e+000
    outer loop
      vertex  9.588511e-001 -1.755165e+000  1.000000e+001
      vertex  9.588511e-001 -1.755165e+000  5.200000e+001
      vertex  5.980113e-001 -1.908503e+000  1.000000e+001
    endloop
  endfacet
  facet normal  3.910989e-001 -9.203487e-001  0.000000e+000
    outer loop
      vertex  5.980113e-001 -1.908503e+000  1.000000e+001
      vertex  9.588511e-001 -1.755165e+000  5.200000e+001
      vertex  5.980113e-001 -1.908503e+000  5.200000e+001
    endloop
  endfacet
  facet normal  2.040330e-001 -9.789640e-001  0.000000e+000
    outer loop
      vertex  5.980113e-001 -1.908503e+000  1.000000e+001
      vertex  5.980113e-001 -1.908503e+000  5.200000e+001
      vertex  2.141903e-001 -1.988498e+000  1.000000e+001
    endloop
  endfacet
  facet normal  2.040330e-001 -9.789640e-001  0.000000e+000
    outer loop
      vertex  2.141903e-001 -1.988498e+000  1.000000e+001
      vertex  5.980113e-001 -1.908503e+000  5.200000e+001
      vertex  2.141903e-001 -1.988498e+000  5.200000e+001
    endloop
  endfacet
  facet normal  9.125820e-003 -9.999583e-001  0.000000e+000
    outer loop
      vertex  2.141903e-001 -1.988498e+000  1.000000e+001
      vertex  2.141903e-001 -1.988498e+000  5.200000e+001
      vertex -1.778620e-001 -1.992076e+000  1.000000e+001
    endloop
  endfacet
  facet normal  9.125820e-003 -9.999583e-001  0.000000e+000
    outer loop
      vertex -1.778620e-001 -1.992076e+000  1.000000e+001
      vertex  2.141903e-001 -1.988498e+000  5.200000e+001
      vertex -1.778620e-001 -1.992076e+000  5.200000e+001
    endloop
  endfacet
  facet normal -1.861316e-001 -9.825248e-001  -0.000000e+000
    outer loop
      vertex -1.778620e-001 -1.992076e+000  1.000000e+001
      vertex -1.778620e-001 -1.992076e+000  5.200000e+001
      vertex -5.630791e-001 -1.919099e+000  1.000000e+001
    endloop
  endfacet
  facet normal -1.861316e-001 -9.825248e-001  0.000000e+000
    outer loop
      vertex -5.630791e-001 -1.919099e+000  1.000000e+001
      vertex -1.778620e-001 -1.992076e+000  5.200000e+001
      vertex -5.630791e-001 -1.919099e+000  5.200000e+001
    endloop
  endfacet
  facet normal -3.742360e-001 -9.273335e-001  -0.000000e+000
    outer loop
      vertex -5.630791e-001 -1.919099e+000  1.000000e+001
      vertex -5.630791e-001 -1.919099e+000  5.200000e+001
      vertex -9.266573e-001 -1.772373e+000  1.000000e+001
    endloop
  endfacet
  facet normal -3.742360e-001 -9.273335e-001  0.000000e+000
    outer loop
      vertex -9.266573e-001 -1.772373e+000  1.000000e+001
      vertex -5.630791e-001 -1.919099e+000  5.200000e+001
      vertex -9.266573e-001 -1.772373e+000  5.200000e+001
    endloop
  endfacet
  facet normal -5.479590e-001 -8.365051e-001  -0.000000e+000
    outer loop
      vertex -9.266573e-001 -1.772373e+000  1.000000e+001
      vertex -9.266573e-001 -1.772373e+000  5.200000e+001
      vertex -1.254625e+000 -1.557536e+000  1.000000e+001
    endloop
  endfacet
  facet normal -5.479590e-001 -8.365051e-001  0.000000e+000
    outer loop
      vertex -1.254625e+000 -1.557536e+000  1.000000e+001
      vertex -9.266573e-001 -1.772373e+000  5.200000e+001
      vertex -1.254625e+000 -1.557536e+000  5.200000e+001
    endloop
  endfacet
  facet normal -7.006242e-001 -7.135304e-001  -0.000000e+000
    outer loop
      vertex -1.254625e+000 -1.557536e+000  1.000000e+001
      vertex -1.254625e+000 -1.557536e+000  5.200000e+001
      vertex -1.534378e+000 -1.282843e+000  1.000000e+001
    endloop
  endfacet
  facet normal -7.006242e-001 -7.135304e-001  0.000000e+000
    outer loop
      vertex -1.534378e+000 -1.282843e+000  1.000000e+001
      vertex -1.254625e+000 -1.557536e+000  5.200000e+001
      vertex -1.534378e+000 -1.282843e+000  5.200000e+001
    endloop
  endfacet
  facet normal -8.263648e-001 -5.631350e-001  -0.000000e+000
    outer loop
      vertex -1.534378e+000 -1.282843e+000  1.000000e+001
      vertex -1.534378e+000 -1.282843e+000  5.200000e+001
      vertex -1.755165e+000 -9.588511e-001  1.000000e+001
    endloop
  endfacet
  facet normal -8.263648e-001 -5.631350e-001  0.000000e+000
    outer loop
      vertex -1.755165e+000 -9.588511e-001  1.000000e+001
      vertex -1.534378e+000 -1.282843e+000  5.200000e+001
      vertex -1.755165e+000 -9.588511e-001  5.200000e+001
    endloop
  endfacet
  facet normal -9.203487e-001 -3.910989e-001  -0.000000e+000
    outer loop
      vertex -1.755165e+000 -9.588511e-001  1.000000e+001
      vertex -1.755165e+000 -9.588511e-001  5.200000e+001
      vertex -1.908503e+000 -5.980113e-001  1.000000e+001
    endloop
  endfacet
  facet normal -9.203487e-001 -3.910989e-001  0.000000e+000
    outer loop
      vertex -1.908503e+000 -5.980113e-001  1.000000e+001
      vertex -1.755165e+000 -9.588511e-001  5.200000e+001
      vertex -1.908503e+000 -5.980113e-001  5.200000e+001
    endloop
  endfacet
  facet normal -9.789640e-001 -2.040330e-001  -0.000000e+000
    outer loop
      vertex -1.908503e+000 -5.980113e-001  1.000000e+001
      vertex -1.908503e+000 -5.980113e-001  5.200000e+001
      vertex -1.988498e+000 -2.141903e-001  1.000000e+001
    endloop
  endfacet
  facet normal -9.789640e-001 -2.040330e-001  0.000000e+000
    outer loop
      vertex -1.988498e+000 -2.141903e-001  1.000000e+001
      vertex -1.908503e+000 -5.980113e-001  5.200000e+001
      vertex -1.988498e+000 -2.141903e-001  5.200000e+001
    endloop
  endfacet
  facet normal -9.999583e-001 -9.125820e-003  -0.000000e+000
    outer loop
      vertex -1.988498e+000 -2.141903e-001  1.000000e+001
      vertex -1.988498e+000 -2.141903e-001  5.200000e+001
      vertex -1.992076e+000  1.778620e-001  1.000000e+001
    endloop
  endfacet
  facet normal -9.999583e-001 -9.125820e-003  0.000000e+000
    outer loop
      vertex -1.992076e+000  1.778620e-001  1.000000e+001
      vertex -1.988498e+000 -2.141903e-001  5.200000e+001
      vertex -1.992076e+000  1.778620e-001  5.200000e+001
    endloop
  endfacet
  facet normal -9.825248e-001  1.861316e-001  0.000000e+000
    outer loop
      vertex -1.992076e+000  1.778620e-001  1.000000e+001
      vertex -1.992076e+000  1.778620e-001  5.200000e+001
      vertex -1.919099e+000  5.630791e-001  1.000000e+001
    endloop
  endfacet
  facet normal -9.825248e-001  1.861316e-001  0.000000e+000
    outer loop
      vertex -1.919099e+000  5.630791e-001  1.000000e+001
      vertex -1.992076e+000  1.778620e-001  5.200000e+001
      vertex -1.919099e+000  5.630791e-001  5.200000e+001
    endloop
  endfacet
  facet normal -9.273335e-001  3.742360e-001  0.000000e+000
    outer loop
      vertex -1.919099e+000  5.630791e-001  1.000000e+001
      vertex -1.919099e+000  5.630791e-001  5.200000e+001
      vertex -1.772373e+000  9.266573e-001  1.000000e+001
    endloop
  endfacet
  facet normal -9.273335e-001  3.742360e-001  0.000000e+000
    outer loop
      vertex -1.772373e+000  9.266573e-001  1.000000e+001
      vertex -1.919099e+000  5.630791e-001  5.200000e+001
      vertex -1.772373e+000  9.266573e-001  5.200000e+001
    endloop
  endfacet
  facet normal -8.365051e-001  5.479590e-001  0.000000e+000
    outer loop
      vertex -1.772373e+000  9.266573e-001  1.000000e+001
      vertex -1.772373e+000  9.266573e-001  5.200000e+001
      vertex -1.557536e+000  1.254625e+000  1.000000e+001
    endloop
  endfacet
  facet normal -8.365051e-001  5.479590e-001  0.000000e+000
    outer loop
      vertex -1.557536e+000  1.254625e+000  1.000000e+001
      vertex -1.772373e+000  9.266573e-001  5.200000e+001
      vertex -1.557536e+000  1.254625e+000  5.200000e+001
    endloop
  endfacet
  facet normal -7.135304e-001  7.006242e-001  0.000000e+000
    outer loop
      vertex -1.557536e+000  1.254625e+000  1.000000e+001
      vertex -1.557536e+000  1.254625e+000  5.200000e+001
      vertex -1.282843e+000  1.534378e+000  1.000000e+001
    endloop
  endfacet
  facet normal -7.135304e-001  7.006242e-001  0.000000e+000
    outer loop
      vertex -1.282843e+000  1.534378e+000  1.000000e+001
      vertex -1.557536e+000  1.254625e+000  5.200000e+001
      vertex -1.282843e+000  1.534378e+000  5.200000e+001
    endloop
  endfacet
  facet normal -5.631350e-001  8.263648e-001  0.000000e+000
    outer loop
      vertex -1.282843e+000  1.534378e+000  1.000000e+001
      vertex -1.282843e+000  1.534378e+000  5.200000e+001
      vertex -9.588511e-001  1.755165e+000  1.000000e+001
    endloop
  endfacet
  facet normal -5.631350e-001  8.263648e-001  0.000000e+000
    outer loop
      vertex -9.588511e-001  1.755165e+000  1.000000e+001
      vertex -1.282843e+000  1.534378e+000  5.200000e+001
      vertex -9.588511e-001  1.755165e+000  5.200000e+001
    endloop
  endfacet
  facet normal  4.233761e-001 -9.059541e-001  0.000000e+000
    outer loop
      vertex  2.397128e+000 -4.387913e+000  0.000000e+000
      vertex  2.397128e+000 -4.387913e+000  1.000000e+001
      vertex  1.828274e+000 -4.653753e+000  0.000000e+000
    endloop
  endfacet
  facet normal  4.233761e-001 -9.059541e-001  0.000000e+000
    outer loop
      vertex  1.828274e+000 -4.653753e+000  0.000000e+000
      vertex  2.397128e+000 -4.387913e+000  1.000000e+001
      vertex  1.828274e+000 -4.653753e+000  1.000000e+001
    endloop
  endfacet
  facet normal  3.064908e-001 -9.518737e-001  0.000000e+000
    outer loop
      vertex  1.828274e+000 -4.653753e+000  0.000000e+000
      vertex  1.828274e+000 -4.653753e+000  1.000000e+001
      vertex  1.230588e+000 -4.846200e+000  0.000000e+000
    endloop
  endfacet
  facet normal  3.064908e-001 -9.518737e-001  0.000000e+000
    outer loop
      vertex  1.230588e+000 -4.846200e+000  0.000000e+000
      vertex  1.828274e+000 -4.653753e+000  1.000000e+001
      vertex  1.230588e+000 -4.846200e+000  1.000000e+001
    endloop
  endfacet
  facet normal  1.847727e-001 -9.827814e-001  0.000000e+000
    outer loop
      vertex  1.230588e+000 -4.846200e+000  0.000000e+000
      vertex  1.230588e+000 -4.846200e+000  1.000000e+001
      vertex  6.134945e-001 -4.962220e+000  0.000000e+000
    endloop
  endfacet
  facet normal  1.847727e-001 -9.827814e-001  0.000000e+000
    outer loop
      vertex  6.134945e-001 -4.962220e+000  0.000000e+000
      vertex  1.230588e+000 -4.846200e+000  1.000000e+001
      vertex  6.134945e-001 -4.962220e+000  1.000000e+001
    endloop
  endfacet
  facet normal  6.014067e-002 -9.981899e-001  0.000000e+000
    outer loop
      vertex  6.134945e-001 -4.962220e+000  0.000000e+000
      vertex  6.134945e-001 -4.962220e+000  1.000000e+001
      vertex -1.327411e-002 -4.999982e+000  0.000000e+000
    endloop
  endfacet
  facet normal  6.014067e-002 -9.981899e-001  0.000000e+000
    outer loop
      vertex -1.327411e-002 -4.999982e+000  0.000000e+000
      vertex  6.134945e-001 -4.962220e+000  1.000000e+001
      vertex -1.327411e-002 -4.999982e+000  1.000000e+001
    endloop
  endfacet
  facet normal -6.543984e-002 -9.978566e-001  -0.000000e+000
    outer loop
      vertex -1.327411e-002 -4.999982e+000  0.000000e+000
      vertex -1.327411e-002 -4.999982e+000  1.000000e+001
      vertex -6.398334e-001 -4.958892e+000  0.000000e+000
    endloop
  endfacet
  facet normal -6.543984e-002 -9.978566e-001  0.000000e+000
    outer loop
      vertex -6.398334e-001 -4.958892e+000  0.000000e+000
      vertex -1.327411e-002 -4.999982e+000  1.000000e+001
      vertex -6.398334e-001 -4.958892e+000  1.000000e+001
    endloop
  endfacet
  facet normal -1.899883e-001 -9.817864e-001  -0.000000e+000
    outer loop
      vertex -6.398334e-001 -4.958892e+000  0.000000e+000
      vertex -6.398334e-001 -4.958892e+000  1.000000e+001
      vertex -1.256302e+000 -4.839598e+000  0.000000e+000
    endloop
  endfacet
  facet normal -1.899883e-001 -9.817864e-001  0.000000e+000
    outer loop
      vertex -1.256302e+000 -4.839598e+000  0.000000e+000
      vertex -6.398334e-001 -4.958892e+000  1.000000e+001
      vertex -1.256302e+000 -4.839598e+000  1.000000e+001
    endloop
  endfacet
  facet normal -3.115409e-001 -9.502327e-001  -0.000000e+000
    outer loop
      vertex -1.256302e+000 -4.839598e+000  0.000000e+000
      vertex -1.256302e+000 -4.839598e+000  1.000000e+001
      vertex -1.852958e+000 -4.643980e+000  0.000000e+000
    endloop
  endfacet
  facet normal -3.115409e-001 -9.502327e-001  0.000000e+000
    outer loop
      vertex -1.852958e+000 -4.643980e+000  0.000000e+000
      vertex -1.256302e+000 -4.839598e+000  1.000000e+001
      vertex -1.852958e+000 -4.643980e+000  1.000000e+001
    endloop
  endfacet
  facet normal -4.281801e-001 -9.036934e-001  -0.000000e+000
    outer loop
      vertex -1.852958e+000 -4.643980e+000  0.000000e+000
      vertex -1.852958e+000 -4.643980e+000  1.000000e+001
      vertex -2.420392e+000 -4.375123e+000  0.000000e+000
    endloop
  endfacet
  facet normal -4.281801e-001 -9.036934e-001  0.000000e+000
    outer loop
      vertex -2.420392e+000 -4.375123e+000  0.000000e+000
      vertex -1.852958e+000 -4.643980e+000  1.000000e+001
      vertex -2.420392e+000 -4.375123e+000  1.000000e+001
    endloop
  endfacet
  facet normal -5.380667e-001 -8.429024e-001  -0.000000e+000
    outer loop
      vertex -2.420392e+000 -4.375123e+000  0.000000e+000
      vertex -2.420392e+000 -4.375123e+000  1.000000e+001
      vertex -2.949655e+000 -4.037268e+000  0.000000e+000
    endloop
  endfacet
  facet normal -5.380667e-001 -8.429024e-001  0.000000e+000
    outer loop
      vertex -2.949655e+000 -4.037268e+000  0.000000e+000
      vertex -2.420392e+000 -4.375123e+000  1.000000e+001
      vertex -2.949655e+000 -4.037268e+000  1.000000e+001
    endloop
  endfacet
  facet normal -6.394669e-001 -7.688186e-001  -0.000000e+000
    outer loop
      vertex -2.949655e+000 -4.037268e+000  0.000000e+000
      vertex -2.949655e+000 -4.037268e+000  1.000000e+001
      vertex -3.432400e+000 -3.635744e+000  0.000000e+000
    endloop
  endfacet
  facet normal -6.394669e-001 -7.688186e-001  0.000000e+000
    outer loop
      vertex -3.432400e+000 -3.635744e+000  0.000000e+000
      vertex -2.949655e+000 -4.037268e+000  1.000000e+001
      vertex -3.432400e+000 -3.635744e+000  1.000000e+001
    endloop
  endfacet
  facet normal -7.307836e-001 -6.826093e-001  -0.000000e+000
    outer loop
      vertex -3.432400e+000 -3.635744e+000  0.000000e+000
      vertex -3.432400e+000 -3.635744e+000  1.000000e+001
      vertex -3.861014e+000 -3.176881e+000  0.000000e+000
    endloop
  endfacet
  facet normal -7.307836e-001 -6.826093e-001  0.000000e+000
    outer loop
      vertex -3.861014e+000 -3.176881e+000  0.000000e+000
      vertex -3.432400e+000 -3.635744e+000  1.000000e+001
      vertex -3.861014e+000 -3.176881e+000  1.000000e+001
    endloop
  endfacet
  facet normal -8.105747e-001 -5.856353e-001  -0.000000e+000
    outer loop
      vertex -3.861014e+000 -3.176881e+000  0.000000e+000
      vertex -3.861014e+000 -3.176881e+000  1.000000e+001
      vertex -4.228737e+000 -2.667917e+000  0.000000e+000
    endloop
  endfacet
  facet normal -8.105747e-001 -5.856353e-001  0.000000e+000
    outer loop
      vertex -4.228737e+000 -2.667917e+000  0.000000e+000
      vertex -3.861014e+000 -3.176881e+000  1.000000e+001
      vertex -4.228737e+000 -2.667917e+000  1.000000e+001
    endloop
  endfacet
  facet normal -8.775824e-001 -4.794259e-001  -0.000000e+000
    outer loop
      vertex -4.228737e+000 -2.667917e+000  0.000000e+000
      vertex -4.228737e+000 -2.667917e+000  1.000000e+001
      vertex -4.529771e+000 -2.116878e+000  0.000000e+000
    endloop
  endfacet
  facet normal -8.775824e-001 -4.794259e-001  0.000000e+000
    outer loop
      vertex -4.529771e+000 -2.116878e+000  0.000000e+000
      vertex -4.228737e+000 -2.667917e+000  1.000000e+001
      vertex -4.529771e+000 -2.116878e+000  1.000000e+001
    endloop
  endfacet
  facet normal -9.307505e-001 -3.656549e-001  -0.000000e+000
    outer loop
      vertex -4.529771e+000 -2.116878e+000  0.000000e+000
      vertex -4.529771e+000 -2.116878e+000  1.000000e+001
      vertex -4.759368e+000 -1.532455e+000  0.000000e+000
    endloop
  endfacet
  facet normal -9.307505e-001 -3.656549e-001  0.000000e+000
    outer loop
      vertex -4.759368e+000 -1.532455e+000  0.000000e+000
      vertex -4.529771e+000 -2.116878e+000  1.000000e+001
      vertex -4.759368e+000 -1.532455e+000  1.000000e+001
    endloop
  endfacet
  facet normal -9.692401e-001 -2.461171e-001  -0.000000e+000
    outer loop
      vertex -4.759368e+000 -1.532455e+000  0.000000e+000
      vertex -4.759368e+000 -1.532455e+000  1.000000e+001
      vertex -4.913906e+000 -9.238643e-001  0.000000e+000
    endloop
  endfacet
  facet normal -9.692401e-001 -2.461171e-001  0.000000e+000
    outer loop
      vertex -4.913906e+000 -9.238643e-001  0.000000e+000
      vertex -4.759368e+000 -1.532455e+000  1.000000e+001
      vertex -4.913906e+000 -9.238643e-001  1.000000e+001
    endloop
  endfacet
  facet normal -9.924439e-001 -1.226993e-001  -0.000000e+000
    outer loop
      vertex -4.913906e+000 -9.238643e-001  0.000000e+000
      vertex -4.913906e+000 -9.238643e-001  1.000000e+001
      vertex -4.990950e+000 -3.007036e-001  0.000000e+000
    endloop
  endfacet
  facet normal -9.924439e-001 -1.226993e-001  0.000000e+000
    outer loop
      vertex -4.990950e+000 -3.007036e-001  0.000000e+000
      vertex -4.913906e+000 -9.238643e-001  1.000000e+001
      vertex -4.990950e+000 -3.007036e-001  1.000000e+001
    endloop
  endfacet
  facet normal -9.999964e-001  2.654895e-003  0.000000e+000
    outer loop
      vertex -4.990950e+000 -3.007036e-001  0.000000e+000
      vertex -4.990950e+000 -3.007036e-001  1.000000e+001
      vertex -4.989283e+000  3.271994e-001  0.000000e+000
    endloop
  endfacet
  facet normal -9.999964e-001  2.654895e-003  0.000000e+000
    outer loop
      vertex -4.989283e+000  3.271994e-001  0.000000e+000
      vertex -4.990950e+000 -3.007036e-001  1.000000e+001
      vertex -4.989283e+000  3.271994e-001  1.000000e+001
    endloop
  endfacet
  facet normal -9.917785e-001  1.279666e-001  0.000000e+000
    outer loop
      vertex -4.989283e+000  3.271994e-001  0.000000e+000
      vertex -4.989283e+000  3.271994e-001  1.000000e+001
      vertex -4.908932e+000  9.499422e-001  0.000000e+000
    endloop
  endfacet
  facet normal -9.917785e-001  1.279666e-001  0.000000e+000
    outer loop
      vertex -4.908932e+000  9.499422e-001  0.000000e+000
      vertex -4.989283e+000  3.271994e-001  1.000000e+001
      vertex -4.908932e+000  9.499422e-001  1.000000e+001
    endloop
  endfacet
  facet normal -9.679195e-001  2.512605e-001  0.000000e+000
    outer loop
      vertex -4.908932e+000  9.499422e-001  0.000000e+000
      vertex -4.908932e+000  9.499422e-001  1.000000e+001
      vertex -4.751164e+000  1.557704e+000  0.000000e+000
    endloop
  endfacet
  facet normal -9.679195e-001  2.512605e-001  0.000000e+000
    outer loop
      vertex -4.751164e+000  1.557704e+000  0.000000e+000
      vertex -4.908932e+000  9.499422e-001  1.000000e+001
      vertex -4.751164e+000  1.557704e+000  1.000000e+001
    endloop
  endfacet
  facet normal -9.287958e-001  3.705918e-001  0.000000e+000
    outer loop
      vertex -4.751164e+000  1.557704e+000  0.000000e+000
      vertex -4.751164e+000  1.557704e+000  1.000000e+001
      vertex -4.518467e+000  2.140900e+000  0.000000e+000
    endloop
  endfacet
  facet normal -9.287958e-001  3.705918e-001  0.000000e+000
    outer loop
      vertex -4.518467e+000  2.140900e+000  0.000000e+000
      vertex -4.751164e+000  1.557704e+000  1.000000e+001
      vertex -4.518467e+000  2.140900e+000  1.000000e+001
    endloop
  endfacet
  facet normal -8.750249e-001  4.840781e-001  0.000000e+000
    outer loop
      vertex -4.518467e+000  2.140900e+000  0.000000e+000
      vertex -4.518467e+000  2.140900e+000  1.000000e+001
      vertex -4.214512e+000  2.690332e+000  0.000000e+000
    endloop
  endfacet
  facet normal -8.750249e-001  4.840781e-001  0.000000e+000
    outer loop
      vertex -4.214512e+000  2.690332e+000  0.000000e+000
      vertex -4.518467e+000  2.140900e+000  1.000000e+001
      vertex -4.214512e+000  2.690332e+000  1.000000e+001
    endloop
  endfacet
  facet normal -8.074536e-001  5.899311e-001  0.000000e+000
    outer loop
      vertex -4.214512e+000  2.690332e+000  0.000000e+000
      vertex -4.214512e+000  2.690332e+000  1.000000e+001
      vertex -3.844091e+000  3.197337e+000  0.000000e+000
    endloop
  endfacet
  facet normal -8.074536e-001  5.899311e-001  0.000000e+000
    outer loop
      vertex -3.844091e+000  3.197337e+000  0.000000e+000
      vertex -4.214512e+000  2.690332e+000  1.000000e+001
      vertex -3.844091e+000  3.197337e+000  1.000000e+001
    endloop
  endfacet
  facet normal -7.271487e-001  6.864800e-001  0.000000e+000
    outer loop
      vertex -3.844091e+000  3.197337e+000  0.000000e+000
      vertex -3.844091e+000  3.197337e+000  1.000000e+001
      vertex -3.413047e+000  3.653917e+000  0.000000e+000
    endloop
  endfacet
  facet normal -7.271487e-001  6.864800e-001  0.000000e+000
    outer loop
      vertex -3.413047e+000  3.653917e+000  0.000000e+000
      vertex -3.844091e+000  3.197337e+000  1.000000e+001
      vertex -3.413047e+000  3.653917e+000  1.000000e+001
    endloop
  endfacet
  facet normal -6.353762e-001  7.722028e-001  0.000000e+000
    outer loop
      vertex -3.413047e+000  3.653917e+000  0.000000e+000
      vertex -3.413047e+000  3.653917e+000  1.000000e+001
      vertex -2.928177e+000  4.052873e+000  0.000000e+000
    endloop
  endfacet
  facet normal -6.353762e-001  7.722028e-001  0.000000e+000
    outer loop
      vertex -2.928177e+000  4.052873e+000  0.000000e+000
      vertex -3.413047e+000  3.653917e+000  1.000000e+001
      vertex -2.928177e+000  4.052873e+000  1.000000e+001
    endloop
  endfacet
  facet normal -5.335832e-001  8.457475e-001  0.000000e+000
    outer loop
      vertex -2.928177e+000  4.052873e+000  0.000000e+000
      vertex -2.928177e+000  4.052873e+000  1.000000e+001
      vertex -2.397128e+000  4.387913e+000  0.000000e+000
    endloop
  endfacet
  facet normal -5.335832e-001  8.457475e-001  0.000000e+000
    outer loop
      vertex -2.397128e+000  4.387913e+000  0.000000e+000
      vertex -2.928177e+000  4.052873e+000  1.000000e+001
      vertex -2.397128e+000  4.387913e+000  1.000000e+001
    endloop
  endfacet
endsolid CATIA STL
