ISO-10303-21;
HEADER;
FILE_DESCRIPTION(('CATIA V5 STEP Exchange'),'2;1');

FILE_NAME('\\\\Mac\\Home\\Documents\\COURS\\IPSA\\AeroIPSA\\Projets\\Fusees\\SP-02\\CATIA\\CATIA_new\\SP02_ALPHA\\SP02_ALPHA_Trappe_Parachute.stp','2026-02-07T11:13:12+00:00',('none'),('none'),'CATIA Version 5 Release 19 GA (IN-10)','CATIA V5 STEP AP203','none');

FILE_SCHEMA(('CONFIG_CONTROL_DESIGN'));

ENDSEC;
/* file written by CATIA V5R19 */
DATA;
#5=PRODUCT('SP02_ALPHA_Trappe_Parachute','','',(#2)) ;
#1=APPLICATION_CONTEXT('configuration controlled 3D design of mechanical parts and assemblies') ;
#14=PRODUCT_DEFINITION('',' ',#6,#3) ;
#16=SECURITY_CLASSIFICATION(' ',' ',#15) ;
#15=SECURITY_CLASSIFICATION_LEVEL('unclassified') ;
#47=CARTESIAN_POINT(' ',(0.,0.,0.)) ;
#53=CARTESIAN_POINT('Control Point',(85.2226055477,1.,-200.)) ;
#54=CARTESIAN_POINT('Control Point',(85.2226055477,0.,-200.)) ;
#55=CARTESIAN_POINT('Control Point',(85.2226055477,1.,-202.365572588)) ;
#56=CARTESIAN_POINT('Control Point',(85.2226055477,0.,-202.365572588)) ;
#57=CARTESIAN_POINT('Control Point',(84.9529452277,1.,-204.731144809)) ;
#58=CARTESIAN_POINT('Control Point',(84.9529452277,4.4408920985E-016,-204.731144809)) ;
#59=CARTESIAN_POINT('Control Point',(84.4134824159,1.,-207.052031716)) ;
#60=CARTESIAN_POINT('Control Point',(84.4134824159,6.66133814775E-016,-207.052031716)) ;
#61=CARTESIAN_POINT('Control Point',(82.7344759419,1.,-211.985026327)) ;
#62=CARTESIAN_POINT('Control Point',(82.7344759419,1.99840144433E-015,-211.985026327)) ;
#63=CARTESIAN_POINT('Control Point',(80.1429654975,1.,-216.513874808)) ;
#64=CARTESIAN_POINT('Control Point',(80.1429654975,1.55431223448E-014,-216.513874808)) ;
#65=CARTESIAN_POINT('Control Point',(78.5204765541,1.,-218.848148277)) ;
#66=CARTESIAN_POINT('Control Point',(78.5204765541,-4.4408920985E-016,-218.848148277)) ;
#67=CARTESIAN_POINT('Control Point',(74.7096102896,1.,-223.531334768)) ;
#68=CARTESIAN_POINT('Control Point',(74.7096102896,-8.881784197E-016,-223.531334768)) ;
#69=CARTESIAN_POINT('Control Point',(70.2283596262,1.,-227.584953063)) ;
#70=CARTESIAN_POINT('Control Point',(70.2283596262,-8.881784197E-016,-227.584953063)) ;
#71=CARTESIAN_POINT('Control Point',(67.6902865808,1.,-229.553096878)) ;
#72=CARTESIAN_POINT('Control Point',(67.6902865808,-4.4408920985E-016,-229.553096878)) ;
#73=CARTESIAN_POINT('Control Point',(62.4952722081,1.,-232.962558893)) ;
#74=CARTESIAN_POINT('Control Point',(62.4952722081,2.44249065418E-015,-232.962558893)) ;
#75=CARTESIAN_POINT('Control Point',(56.8182393527,1.,-235.479176826)) ;
#76=CARTESIAN_POINT('Control Point',(56.8182393527,1.22124532709E-014,-235.479176826)) ;
#77=CARTESIAN_POINT('Control Point',(53.9746289031,1.,-236.461877544)) ;
#78=CARTESIAN_POINT('Control Point',(53.9746289031,-2.22044604925E-016,-236.461877544)) ;
#79=CARTESIAN_POINT('Control Point',(48.3202592076,1.,-237.843698609)) ;
#80=CARTESIAN_POINT('Control Point',(48.3202592076,0.,-237.843698609)) ;
#81=CARTESIAN_POINT('Control Point',(42.5126476087,1.,-238.156249259)) ;
#82=CARTESIAN_POINT('Control Point',(42.5126476087,0.,-238.156249259)) ;
#83=CARTESIAN_POINT('Control Point',(39.701202406,1.,-238.043764742)) ;
#84=CARTESIAN_POINT('Control Point',(39.701202406,0.,-238.043764742)) ;
#85=CARTESIAN_POINT('Control Point',(33.978447366,1.,-237.281043658)) ;
#86=CARTESIAN_POINT('Control Point',(33.978447366,-8.881784197E-016,-237.281043658)) ;
#87=CARTESIAN_POINT('Control Point',(28.4814122756,1.,-235.508509917)) ;
#88=CARTESIAN_POINT('Control Point',(28.4814122756,-3.10862446895E-015,-235.508509917)) ;
#89=CARTESIAN_POINT('Control Point',(25.7492432543,1.,-234.354992831)) ;
#90=CARTESIAN_POINT('Control Point',(25.7492432543,0.,-234.354992831)) ;
#91=CARTESIAN_POINT('Control Point',(20.2777761884,1.,-231.512767106)) ;
#92=CARTESIAN_POINT('Control Point',(20.2777761884,-2.22044604925E-016,-231.512767106)) ;
#93=CARTESIAN_POINT('Control Point',(15.3157693496,1.,-227.849332929)) ;
#94=CARTESIAN_POINT('Control Point',(15.3157693496,-2.22044604925E-016,-227.849332929)) ;
#95=CARTESIAN_POINT('Control Point',(12.887946536,1.,-225.749780862)) ;
#96=CARTESIAN_POINT('Control Point',(12.887946536,-2.22044604925E-016,-225.749780862)) ;
#97=CARTESIAN_POINT('Control Point',(8.58135032412,1.,-221.409119479)) ;
#98=CARTESIAN_POINT('Control Point',(8.58135032412,8.881784197E-016,-221.409119479)) ;
#99=CARTESIAN_POINT('Control Point',(5.02934047782,1.,-216.436524057)) ;
#100=CARTESIAN_POINT('Control Point',(5.02934047782,1.11022302463E-015,-216.436524057)) ;
#101=CARTESIAN_POINT('Control Point',(3.53396821689,1.,-213.924630505)) ;
#102=CARTESIAN_POINT('Control Point',(3.53396821689,-2.22044604925E-016,-213.924630505)) ;
#103=CARTESIAN_POINT('Control Point',(1.56512867579,1.,-209.695648741)) ;
#104=CARTESIAN_POINT('Control Point',(1.56512867579,-6.66133814775E-016,-209.695648741)) ;
#105=CARTESIAN_POINT('Control Point',(0.4358548755,1.,-205.191235193)) ;
#106=CARTESIAN_POINT('Control Point',(0.4358548755,-4.4408920985E-016,-205.191235193)) ;
#107=CARTESIAN_POINT('Control Point',(0.145278685258,1.,-203.472631317)) ;
#108=CARTESIAN_POINT('Control Point',(0.145278685258,-8.881784197E-016,-203.472631317)) ;
#109=CARTESIAN_POINT('Control Point',(2.15383266777E-014,1.,-201.736315758)) ;
#110=CARTESIAN_POINT('Control Point',(2.15383266777E-014,-6.66133814775E-016,-201.736315758)) ;
#111=CARTESIAN_POINT('Control Point',(2.24265050974E-014,1.,-200.)) ;
#112=CARTESIAN_POINT('Control Point',(2.24265050974E-014,4.4408920985E-016,-200.)) ;
#114=CARTESIAN_POINT('Control Point',(2.40918396344E-014,1.,-200.)) ;
#115=CARTESIAN_POINT('Control Point',(3.24921838567E-014,1.,-202.604043284)) ;
#116=CARTESIAN_POINT('Control Point',(0.326769027153,1.,-205.208086123)) ;
#117=CARTESIAN_POINT('Control Point',(0.981008621325,1.,-207.753498031)) ;
#118=CARTESIAN_POINT('Control Point',(2.54057509983,1.,-211.925907569)) ;
#119=CARTESIAN_POINT('Control Point',(4.73419999989,1.,-215.800525126)) ;
#120=CARTESIAN_POINT('Control Point',(5.73182171469,1.,-217.34465221)) ;
#121=CARTESIAN_POINT('Control Point',(8.01283293675,1.,-220.49710147)) ;
#122=CARTESIAN_POINT('Control Point',(10.6098743849,1.,-223.391184916)) ;
#123=CARTESIAN_POINT('Control Point',(12.0593909566,1.,-224.848407272)) ;
#124=CARTESIAN_POINT('Control Point',(15.6176490385,1.,-228.084344785)) ;
#125=CARTESIAN_POINT('Control Point',(19.5335351594,1.,-230.883928781)) ;
#126=CARTESIAN_POINT('Control Point',(21.8831632159,1.,-232.334241594)) ;
#127=CARTESIAN_POINT('Control Point',(26.0346204348,1.,-234.499069979)) ;
#128=CARTESIAN_POINT('Control Point',(30.4264894485,1.,-236.099576637)) ;
#129=CARTESIAN_POINT('Control Point',(32.2652366312,1.,-236.654143637)) ;
#130=CARTESIAN_POINT('Control Point',(36.5053442923,1.,-237.662511569)) ;
#131=CARTESIAN_POINT('Control Point',(40.8466938265,1.,-238.076346434)) ;
#132=CARTESIAN_POINT('Control Point',(43.2888481738,1.,-238.111630159)) ;
#133=CARTESIAN_POINT('Control Point',(48.9006071196,1.,-237.737492516)) ;
#134=CARTESIAN_POINT('Control Point',(54.3677459298,1.,-236.361975104)) ;
#135=CARTESIAN_POINT('Control Point',(57.3731187613,1.,-235.28215947)) ;
#136=CARTESIAN_POINT('Control Point',(62.7849872369,1.,-232.777219104)) ;
#137=CARTESIAN_POINT('Control Point',(67.7422861427,1.,-229.468337968)) ;
#138=CARTESIAN_POINT('Control Point',(69.9423785116,1.,-227.771970966)) ;
#139=CARTESIAN_POINT('Control Point',(73.0539872807,1.,-225.026246167)) ;
#140=CARTESIAN_POINT('Control Point',(75.8599776404,1.,-221.980091613)) ;
#141=CARTESIAN_POINT('Control Point',(76.7531951293,1.,-220.939512288)) ;
#142=CARTESIAN_POINT('Control Point',(78.4023617377,1.,-218.869931057)) ;
#143=CARTESIAN_POINT('Control Point',(79.89271276,1.,-216.682416333)) ;
#144=CARTESIAN_POINT('Control Point',(80.5713694623,1.,-215.600010577)) ;
#145=CARTESIAN_POINT('Control Point',(82.5887935897,1.,-212.070948447)) ;
#146=CARTESIAN_POINT('Control Point',(84.1000132613,1.,-208.285353515)) ;
#147=CARTESIAN_POINT('Control Point',(84.8486369392,1.,-205.57154043)) ;
#148=CARTESIAN_POINT('Control Point',(85.2226055477,1.,-202.78577047)) ;
#149=CARTESIAN_POINT('Control Point',(85.2226055477,1.,-200.)) ;
#150=CARTESIAN_POINT('Vertex',(2.35367281221E-014,1.,-200.)) ;
#152=CARTESIAN_POINT('Vertex',(85.2226055477,1.,-200.)) ;
#156=CARTESIAN_POINT('Control Point',(85.2226055477,1.,-200.)) ;
#157=CARTESIAN_POINT('Control Point',(85.2226055477,0.,-200.)) ;
#158=CARTESIAN_POINT('Vertex',(85.2226055477,0.,-200.)) ;
#162=CARTESIAN_POINT('Control Point',(2.38142838782E-014,0.,-200.)) ;
#163=CARTESIAN_POINT('Control Point',(2.86635949351E-014,0.,-202.030982664)) ;
#164=CARTESIAN_POINT('Control Point',(0.198772784081,0.,-204.061965155)) ;
#165=CARTESIAN_POINT('Control Point',(0.596729627229,0.,-206.065566995)) ;
#166=CARTESIAN_POINT('Control Point',(1.82427897531,0.,-210.257681528)) ;
#167=CARTESIAN_POINT('Control Point',(3.74902683939,0.,-214.188223519)) ;
#168=CARTESIAN_POINT('Control Point',(4.94137461399,0.,-216.200242548)) ;
#169=CARTESIAN_POINT('Control Point',(8.20820457226,0.,-220.936943553)) ;
#170=CARTESIAN_POINT('Control Point',(12.1769160675,0.,-225.111793375)) ;
#171=CARTESIAN_POINT('Control Point',(14.7348066998,0.,-227.397417521)) ;
#172=CARTESIAN_POINT('Control Point',(19.6011137359,0.,-231.076178734)) ;
#173=CARTESIAN_POINT('Control Point',(24.9681592723,0.,-233.957825169)) ;
#174=CARTESIAN_POINT('Control Point',(27.4083356246,0.,-235.052188574)) ;
#175=CARTESIAN_POINT('Control Point',(32.4375524303,0.,-236.855669576)) ;
#176=CARTESIAN_POINT('Control Point',(37.6920361333,0.,-237.820045418)) ;
#177=CARTESIAN_POINT('Control Point',(40.3540211612,0.,-238.073983304)) ;
#178=CARTESIAN_POINT('Control Point',(46.1367737184,0.,-238.109659067)) ;
#179=CARTESIAN_POINT('Control Point',(51.8354451727,0.,-237.06374198)) ;
#180=CARTESIAN_POINT('Control Point',(54.834467604,0.,-236.197755889)) ;
#181=CARTESIAN_POINT('Control Point',(60.708008388,0.,-233.90742926)) ;
#182=CARTESIAN_POINT('Control Point',(66.109316895,0.,-230.654050314)) ;
#183=CARTESIAN_POINT('Control Point',(68.7046461814,0.,-228.792787441)) ;
#184=CARTESIAN_POINT('Control Point',(73.5160251076,0.,-224.758100612)) ;
#185=CARTESIAN_POINT('Control Point',(77.6445682161,0.,-220.030504217)) ;
#186=CARTESIAN_POINT('Control Point',(79.4909659506,0.,-217.543116646)) ;
#187=CARTESIAN_POINT('Control Point',(82.4139471326,0.,-212.742054694)) ;
#188=CARTESIAN_POINT('Control Point',(84.3141179048,0.,-207.466157348)) ;
#189=CARTESIAN_POINT('Control Point',(84.9199342941,0.,-205.012372247)) ;
#190=CARTESIAN_POINT('Control Point',(85.2226055477,0.,-202.506186256)) ;
#191=CARTESIAN_POINT('Control Point',(85.2226055477,0.,-200.)) ;
#192=CARTESIAN_POINT('Vertex',(-4.88498130835E-015,0.,-200.)) ;
#196=CARTESIAN_POINT('Control Point',(2.39808173319E-014,1.,-200.)) ;
#197=CARTESIAN_POINT('Control Point',(2.39808173319E-014,0.,-200.)) ;
#207=CARTESIAN_POINT('Control Point',(85.2226055477,1.,38.0822701604)) ;
#208=CARTESIAN_POINT('Control Point',(85.2226055477,1.,-238.082273751)) ;
#209=CARTESIAN_POINT('Control Point',(79.7887905385,1.,38.0822701604)) ;
#210=CARTESIAN_POINT('Control Point',(79.7887905385,1.,-238.082273751)) ;
#211=CARTESIAN_POINT('Control Point',(74.354904892,1.,38.0822702229)) ;
#212=CARTESIAN_POINT('Control Point',(74.354904892,1.,-238.082483611)) ;
#213=CARTESIAN_POINT('Control Point',(68.9211104337,1.,38.0822701604)) ;
#214=CARTESIAN_POINT('Control Point',(68.9211104337,1.,-238.08227375)) ;
#215=CARTESIAN_POINT('Control Point',(51.8765526071,1.,38.0822701604)) ;
#216=CARTESIAN_POINT('Control Point',(51.8765526071,1.,-238.082273753)) ;
#217=CARTESIAN_POINT('Control Point',(34.8322113168,1.,38.0822701604)) ;
#218=CARTESIAN_POINT('Control Point',(34.8322113168,1.,-238.082273747)) ;
#219=CARTESIAN_POINT('Control Point',(23.2215352702,1.,38.0822701604)) ;
#220=CARTESIAN_POINT('Control Point',(23.2215352702,1.,-238.08227376)) ;
#221=CARTESIAN_POINT('Control Point',(11.6107063928,1.,38.0822701604)) ;
#222=CARTESIAN_POINT('Control Point',(11.6107063928,1.,-238.082273751)) ;
#223=CARTESIAN_POINT('Control Point',(-3.5527136788E-015,1.,38.0822701604)) ;
#224=CARTESIAN_POINT('Control Point',(-3.5527136788E-015,1.,-238.082273751)) ;
#226=CARTESIAN_POINT('Control Point',(-4.88498130835E-015,1.,0.)) ;
#227=CARTESIAN_POINT('Control Point',(-4.88498130835E-015,1.,-200.)) ;
#228=CARTESIAN_POINT('Vertex',(2.35367281221E-014,1.,-1.25607396695E-015)) ;
#232=CARTESIAN_POINT('Control Point',(85.2226055477,1.,9.94759830064E-014)) ;
#233=CARTESIAN_POINT('Control Point',(85.2226055477,1.,2.60403861996)) ;
#234=CARTESIAN_POINT('Control Point',(84.8958376907,1.,5.20807655695)) ;
#235=CARTESIAN_POINT('Control Point',(84.2419873837,1.,7.75269471386)) ;
#236=CARTESIAN_POINT('Control Point',(82.6817576582,1.,11.9264678344)) ;
#237=CARTESIAN_POINT('Control Point',(80.4885996067,1.,15.8001155599)) ;
#238=CARTESIAN_POINT('Control Point',(79.4906106612,1.,17.3448552641)) ;
#239=CARTESIAN_POINT('Control Point',(77.2099724747,1.,20.4968365894)) ;
#240=CARTESIAN_POINT('Control Point',(74.6124960597,1.,23.3914605846)) ;
#241=CARTESIAN_POINT('Control Point',(73.1631640558,1.,24.8484367593)) ;
#242=CARTESIAN_POINT('Control Point',(69.6049821302,1.,28.0843143801)) ;
#243=CARTESIAN_POINT('Control Point',(65.6889879076,1.,30.883990819)) ;
#244=CARTESIAN_POINT('Control Point',(63.3393871354,1.,32.3342678767)) ;
#245=CARTESIAN_POINT('Control Point',(59.1879986509,1.,34.4990668411)) ;
#246=CARTESIAN_POINT('Control Point',(54.7960849476,1.,36.0995928406)) ;
#247=CARTESIAN_POINT('Control Point',(52.9572146319,1.,36.654176036)) ;
#248=CARTESIAN_POINT('Control Point',(48.7174476455,1.,37.6624833737)) ;
#249=CARTESIAN_POINT('Control Point',(44.375682774,1.,38.0763885138)) ;
#250=CARTESIAN_POINT('Control Point',(41.9338456671,1.,38.1116415005)) ;
#251=CARTESIAN_POINT('Control Point',(36.3219005592,1.,37.7374733404)) ;
#252=CARTESIAN_POINT('Control Point',(30.854996988,1.,36.3619902525)) ;
#253=CARTESIAN_POINT('Control Point',(27.8496422554,1.,35.2822452056)) ;
#254=CARTESIAN_POINT('Control Point',(22.4375313995,1.,32.7771698122)) ;
#255=CARTESIAN_POINT('Control Point',(17.4804409065,1.,29.4683777172)) ;
#256=CARTESIAN_POINT('Control Point',(15.2801639667,1.,27.7718531359)) ;
#257=CARTESIAN_POINT('Control Point',(12.168663318,1.,25.026231239)) ;
#258=CARTESIAN_POINT('Control Point',(9.36260438058,1.,21.9800131102)) ;
#259=CARTESIAN_POINT('Control Point',(8.46944651786,1.,20.9395127585)) ;
#260=CARTESIAN_POINT('Control Point',(6.82017773986,1.,18.8697999643)) ;
#261=CARTESIAN_POINT('Control Point',(5.32990962337,1.,16.6824032085)) ;
#262=CARTESIAN_POINT('Control Point',(4.65115691375,1.,15.5998377719)) ;
#263=CARTESIAN_POINT('Control Point',(2.63391716534,1.,12.0711390004)) ;
#264=CARTESIAN_POINT('Control Point',(1.12232230048,1.,8.28481308925)) ;
#265=CARTESIAN_POINT('Control Point',(0.373966606139,1.,5.57152523283)) ;
#266=CARTESIAN_POINT('Control Point',(5.32548375833E-014,1.,2.78576300697)) ;
#267=CARTESIAN_POINT('Control Point',(5.19584375525E-014,1.,1.50990331349E-014)) ;
#268=CARTESIAN_POINT('Vertex',(85.2226055477,1.,9.23705556488E-014)) ;
#272=CARTESIAN_POINT('Control Point',(85.2226055477,1.,1.13686837722E-013)) ;
#273=CARTESIAN_POINT('Control Point',(85.2226055477,1.,-200.)) ;
#283=CARTESIAN_POINT('Control Point',(2.35367281221E-014,1.,0.)) ;
#284=CARTESIAN_POINT('Control Point',(2.35367281221E-014,0.,0.)) ;
#285=CARTESIAN_POINT('Control Point',(2.35367281221E-014,1.,-40.)) ;
#286=CARTESIAN_POINT('Control Point',(2.35367281221E-014,0.,-40.)) ;
#287=CARTESIAN_POINT('Control Point',(2.35367281221E-014,1.,-80.)) ;
#288=CARTESIAN_POINT('Control Point',(2.35367281221E-014,4.4408920985E-016,-80.)) ;
#289=CARTESIAN_POINT('Control Point',(2.35367281221E-014,1.,-120.)) ;
#290=CARTESIAN_POINT('Control Point',(2.35367281221E-014,1.7763568394E-015,-120.)) ;
#291=CARTESIAN_POINT('Control Point',(2.35367281221E-014,1.,-160.)) ;
#292=CARTESIAN_POINT('Control Point',(2.35367281221E-014,4.55191440096E-015,-160.)) ;
#293=CARTESIAN_POINT('Control Point',(2.35367281221E-014,1.,-200.)) ;
#294=CARTESIAN_POINT('Control Point',(2.35367281221E-014,9.43689570931E-015,-200.)) ;
#296=CARTESIAN_POINT('Control Point',(2.35367281221E-014,0.,0.)) ;
#297=CARTESIAN_POINT('Control Point',(2.35367281221E-014,0.,-40.)) ;
#298=CARTESIAN_POINT('Control Point',(2.35367281221E-014,0.,-80.)) ;
#299=CARTESIAN_POINT('Control Point',(2.35367281221E-014,0.,-120.)) ;
#300=CARTESIAN_POINT('Control Point',(2.35367281221E-014,0.,-160.)) ;
#301=CARTESIAN_POINT('Control Point',(2.35367281221E-014,0.,-200.)) ;
#302=CARTESIAN_POINT('Vertex',(5.19584375525E-014,0.,0.)) ;
#306=CARTESIAN_POINT('Control Point',(2.35367281221E-014,1.,0.)) ;
#307=CARTESIAN_POINT('Control Point',(2.35367281221E-014,0.,0.)) ;
#317=CARTESIAN_POINT('Control Point',(85.2226055477,0.,38.0408036265)) ;
#318=CARTESIAN_POINT('Control Point',(85.2226055477,0.,-238.040803691)) ;
#319=CARTESIAN_POINT('Control Point',(79.7887905385,0.,38.0408036265)) ;
#320=CARTESIAN_POINT('Control Point',(79.7887905385,0.,-238.040803691)) ;
#321=CARTESIAN_POINT('Control Point',(74.354904892,0.,38.0408036575)) ;
#322=CARTESIAN_POINT('Control Point',(74.354904892,0.,-238.041013519)) ;
#323=CARTESIAN_POINT('Control Point',(68.9211120392,0.,38.0408036265)) ;
#324=CARTESIAN_POINT('Control Point',(68.9211120392,0.,-238.040803691)) ;
#325=CARTESIAN_POINT('Control Point',(52.5021213679,0.,38.0408036265)) ;
#326=CARTESIAN_POINT('Control Point',(52.5021213679,0.,-238.040803691)) ;
#327=CARTESIAN_POINT('Control Point',(36.0833462881,0.,38.0408036265)) ;
#328=CARTESIAN_POINT('Control Point',(36.0833462881,0.,-238.040803691)) ;
#329=CARTESIAN_POINT('Control Point',(25.0982173247,0.,38.0408036265)) ;
#330=CARTESIAN_POINT('Control Point',(25.0982173247,0.,-238.040803691)) ;
#331=CARTESIAN_POINT('Control Point',(13.4874505217,0.,38.0408036265)) ;
#332=CARTESIAN_POINT('Control Point',(13.4874505217,0.,-238.040803691)) ;
#333=CARTESIAN_POINT('Control Point',(1.87671436952,0.,38.0408036265)) ;
#334=CARTESIAN_POINT('Control Point',(1.87671436952,0.,-238.040803691)) ;
#335=CARTESIAN_POINT('Control Point',(1.25114898594,0.,38.0408036269)) ;
#336=CARTESIAN_POINT('Control Point',(1.25114898594,0.,-238.040806472)) ;
#337=CARTESIAN_POINT('Control Point',(0.625570669607,0.,38.0408036265)) ;
#338=CARTESIAN_POINT('Control Point',(0.625570669607,0.,-238.040803691)) ;
#339=CARTESIAN_POINT('Control Point',(-1.02140518266E-014,0.,38.0408036265)) ;
#340=CARTESIAN_POINT('Control Point',(-1.02140518266E-014,0.,-238.040803691)) ;
#342=CARTESIAN_POINT('Control Point',(85.2226055477,0.,7.1054273576E-014)) ;
#343=CARTESIAN_POINT('Control Point',(85.2226055477,0.,-200.)) ;
#344=CARTESIAN_POINT('Vertex',(85.2226055477,0.,9.94759830064E-014)) ;
#348=CARTESIAN_POINT('Control Point',(85.2226055477,0.,9.23705556488E-014)) ;
#349=CARTESIAN_POINT('Control Point',(85.2226055477,0.,2.03098214266)) ;
#350=CARTESIAN_POINT('Control Point',(85.0238328652,0.,4.06196386987)) ;
#351=CARTESIAN_POINT('Control Point',(84.6258795494,0.,6.06556649237)) ;
#352=CARTESIAN_POINT('Control Point',(83.3983281884,0.,10.2576794136)) ;
#353=CARTESIAN_POINT('Control Point',(81.4735785542,0.,14.1882157085)) ;
#354=CARTESIAN_POINT('Control Point',(80.2812233828,0.,16.200244319)) ;
#355=CARTESIAN_POINT('Control Point',(77.0143912022,0.,20.9369371412)) ;
#356=CARTESIAN_POINT('Control Point',(73.0456758755,0.,25.1117911539)) ;
#357=CARTESIAN_POINT('Control Point',(70.4877885211,0.,27.3974152343)) ;
#358=CARTESIAN_POINT('Control Point',(65.6214892336,0.,31.0761789052)) ;
#359=CARTESIAN_POINT('Control Point',(60.2544503774,0.,33.9578253734)) ;
#360=CARTESIAN_POINT('Control Point',(57.8142763264,0.,35.0521884618)) ;
#361=CARTESIAN_POINT('Control Point',(52.7850673697,0.,36.8556706689)) ;
#362=CARTESIAN_POINT('Control Point',(47.5305971048,0.,37.8200452169)) ;
#363=CARTESIAN_POINT('Control Point',(44.8686147631,0.,38.0739833977)) ;
#364=CARTESIAN_POINT('Control Point',(39.0858627613,0.,38.1096588918)) ;
#365=CARTESIAN_POINT('Control Point',(33.38718129,0.,37.0637420478)) ;
#366=CARTESIAN_POINT('Control Point',(30.3881502086,0.,36.1977570086)) ;
#367=CARTESIAN_POINT('Control Point',(24.5146027186,0.,33.9074367)) ;
#368=CARTESIAN_POINT('Control Point',(19.1132897557,0.,30.6540339958)) ;
#369=CARTESIAN_POINT('Control Point',(16.5179501603,0.,28.7927376274)) ;
#370=CARTESIAN_POINT('Control Point',(11.7065656819,0.,24.7580196317)) ;
#371=CARTESIAN_POINT('Control Point',(7.57803141509,0.,20.0304444642)) ;
#372=CARTESIAN_POINT('Control Point',(5.73163151557,0.,17.5430653352)) ;
#373=CARTESIAN_POINT('Control Point',(2.80865354933,0.,12.742038619)) ;
#374=CARTESIAN_POINT('Control Point',(0.908491398539,0.,7.46615620839)) ;
#375=CARTESIAN_POINT('Control Point',(0.302671147369,0.,5.01237099155)) ;
#376=CARTESIAN_POINT('Control Point',(-3.6375434697E-015,0.,2.50618581188)) ;
#377=CARTESIAN_POINT('Control Point',(-4.88498130835E-015,0.,-8.881784197E-016)) ;
#387=CARTESIAN_POINT('Control Point',(85.2226055477,1.,9.23705556488E-014)) ;
#388=CARTESIAN_POINT('Control Point',(85.2226055477,0.,9.23705556488E-014)) ;
#389=CARTESIAN_POINT('Control Point',(85.2226055477,1.,-40.)) ;
#390=CARTESIAN_POINT('Control Point',(85.2226055477,2.22044604925E-016,-40.)) ;
#391=CARTESIAN_POINT('Control Point',(85.2226055477,1.,-80.)) ;
#392=CARTESIAN_POINT('Control Point',(85.2226055477,1.11022302463E-016,-80.)) ;
#393=CARTESIAN_POINT('Control Point',(85.2226055477,1.,-120.)) ;
#394=CARTESIAN_POINT('Control Point',(85.2226055477,6.66133814775E-016,-120.)) ;
#395=CARTESIAN_POINT('Control Point',(85.2226055477,1.,-160.)) ;
#396=CARTESIAN_POINT('Control Point',(85.2226055477,1.99840144433E-015,-160.)) ;
#397=CARTESIAN_POINT('Control Point',(85.2226055477,1.,-200.)) ;
#398=CARTESIAN_POINT('Control Point',(85.2226055477,2.88657986403E-015,-200.)) ;
#400=CARTESIAN_POINT('Control Point',(85.2226055477,1.,9.23705556488E-014)) ;
#401=CARTESIAN_POINT('Control Point',(85.2226055477,0.,9.23705556488E-014)) ;
#411=CARTESIAN_POINT('Control Point',(2.35367281221E-014,1.,0.)) ;
#412=CARTESIAN_POINT('Control Point',(2.35367281221E-014,0.,0.)) ;
#413=CARTESIAN_POINT('Control Point',(2.48249040825E-014,1.,2.36557895109)) ;
#414=CARTESIAN_POINT('Control Point',(2.48249040825E-014,0.,2.36557895109)) ;
#415=CARTESIAN_POINT('Control Point',(0.26966177051,1.,4.73115753463)) ;
#416=CARTESIAN_POINT('Control Point',(0.26966177051,0.,4.73115753463)) ;
#417=CARTESIAN_POINT('Control Point',(0.809129405471,1.,7.05203607282)) ;
#418=CARTESIAN_POINT('Control Point',(0.809129405471,0.,7.05203607282)) ;
#419=CARTESIAN_POINT('Control Point',(2.48812994654,1.,11.9850261832)) ;
#420=CARTESIAN_POINT('Control Point',(2.48812994654,-1.33226762955E-015,11.9850261832)) ;
#421=CARTESIAN_POINT('Control Point',(5.07964610227,1.,16.5138514339)) ;
#422=CARTESIAN_POINT('Control Point',(5.07964610227,-9.99200722163E-015,16.5138514339)) ;
#423=CARTESIAN_POINT('Control Point',(6.70212405495,1.,18.8480972)) ;
#424=CARTESIAN_POINT('Control Point',(6.70212405495,-4.4408920985E-016,18.8480972)) ;
#425=CARTESIAN_POINT('Control Point',(10.5129975938,1.,23.5312742211)) ;
#426=CARTESIAN_POINT('Control Point',(10.5129975938,-2.22044604925E-016,23.5312742211)) ;
#427=CARTESIAN_POINT('Control Point',(14.9942677235,1.,27.5849205198)) ;
#428=CARTESIAN_POINT('Control Point',(14.9942677235,4.4408920985E-016,27.5849205198)) ;
#429=CARTESIAN_POINT('Control Point',(17.532372237,1.,29.5531068113)) ;
#430=CARTESIAN_POINT('Control Point',(17.532372237,2.22044604925E-016,29.5531068113)) ;
#431=CARTESIAN_POINT('Control Point',(22.7273998655,1.,32.9625991949)) ;
#432=CARTESIAN_POINT('Control Point',(22.7273998655,4.4408920985E-016,32.9625991949)) ;
#433=CARTESIAN_POINT('Control Point',(28.4044421313,1.,35.4792031539)) ;
#434=CARTESIAN_POINT('Control Point',(28.4044421313,-2.6645352591E-015,35.4792031539)) ;
#435=CARTESIAN_POINT('Control Point',(31.2480409997,1.,36.4618901031)) ;
#436=CARTESIAN_POINT('Control Point',(31.2480409997,2.22044604925E-016,36.4618901031)) ;
#437=CARTESIAN_POINT('Control Point',(36.9024043556,1.,37.843701069)) ;
#438=CARTESIAN_POINT('Control Point',(36.9024043556,0.,37.843701069)) ;
#439=CARTESIAN_POINT('Control Point',(42.7099993098,1.,38.1562492627)) ;
#440=CARTESIAN_POINT('Control Point',(42.7099993098,2.22044604925E-016,38.1562492627)) ;
#441=CARTESIAN_POINT('Control Point',(45.5214432109,1.,38.0437640706)) ;
#442=CARTESIAN_POINT('Control Point',(45.5214432109,0.,38.0437640706)) ;
#443=CARTESIAN_POINT('Control Point',(51.2441879103,1.,37.2810417325)) ;
#444=CARTESIAN_POINT('Control Point',(51.2441879103,4.4408920985E-016,37.2810417325)) ;
#445=CARTESIAN_POINT('Control Point',(56.7412083137,1.,35.5085071914)) ;
#446=CARTESIAN_POINT('Control Point',(56.7412083137,5.99520433298E-015,35.5085071914)) ;
#447=CARTESIAN_POINT('Control Point',(59.473382122,1.,34.3549861959)) ;
#448=CARTESIAN_POINT('Control Point',(59.473382122,2.22044604925E-016,34.3549861959)) ;
#449=CARTESIAN_POINT('Control Point',(64.9448443397,1.,31.5127572111)) ;
#450=CARTESIAN_POINT('Control Point',(64.9448443397,0.,31.5127572111)) ;
#451=CARTESIAN_POINT('Control Point',(69.9068438313,1.,27.8493175774)) ;
#452=CARTESIAN_POINT('Control Point',(69.9068438313,0.,27.8493175774)) ;
#453=CARTESIAN_POINT('Control Point',(72.3346669979,1.,25.7497590369)) ;
#454=CARTESIAN_POINT('Control Point',(72.3346669979,2.22044604925E-016,25.7497590369)) ;
#455=CARTESIAN_POINT('Control Point',(76.6412676773,1.,21.4090878467)) ;
#456=CARTESIAN_POINT('Control Point',(76.6412676773,-6.66133814775E-016,21.4090878467)) ;
#457=CARTESIAN_POINT('Control Point',(80.1932846236,1.,16.4364839403)) ;
#458=CARTESIAN_POINT('Control Point',(80.1932846236,-9.54791801178E-015,16.4364839403)) ;
#459=CARTESIAN_POINT('Control Point',(81.6886472058,1.,13.9246034851)) ;
#460=CARTESIAN_POINT('Control Point',(81.6886472058,2.22044604925E-016,13.9246034851)) ;
#461=CARTESIAN_POINT('Control Point',(83.6574903463,1.,9.6956230442)) ;
#462=CARTESIAN_POINT('Control Point',(83.6574903463,4.4408920985E-016,9.6956230442)) ;
#463=CARTESIAN_POINT('Control Point',(84.786754977,1.,5.19121551603)) ;
#464=CARTESIAN_POINT('Control Point',(84.786754977,-4.4408920985E-016,5.19121551603)) ;
#465=CARTESIAN_POINT('Control Point',(85.0773284346,1.,3.47261252782)) ;
#466=CARTESIAN_POINT('Control Point',(85.0773284346,-2.22044604925E-016,3.47261252782)) ;
#467=CARTESIAN_POINT('Control Point',(85.2226055477,1.,1.73630636291)) ;
#468=CARTESIAN_POINT('Control Point',(85.2226055477,-2.22044604925E-016,1.73630636291)) ;
#469=CARTESIAN_POINT('Control Point',(85.2226055477,1.,6.75015598972E-014)) ;
#470=CARTESIAN_POINT('Control Point',(85.2226055477,-2.22044604925E-016,6.75015598972E-014)) ;
#48=AXIS2_PLACEMENT_3D(' ',#47,$,$) ;
#40=PRODUCT_DEFINITION_SHAPE(' ',' ',#14) ;
#31=APPROVAL_PERSON_ORGANIZATION(#25,#21,#19) ;
#25=PERSON_AND_ORGANIZATION(#22,#23) ;
#22=PERSON(' ',' ',' ',$,$,$) ;
#23=ORGANIZATION(' ',' ',' ') ;
#21=APPROVAL(#20,' ') ;
#20=APPROVAL_STATUS('not_yet_approved') ;
#19=APPROVAL_ROLE('APPROVER') ;
#13=DATE_AND_TIME(#11,#12) ;
#12=LOCAL_TIME(12,13,11.,#10) ;
#10=COORDINATED_UNIVERSAL_TIME_OFFSET(0,0,.AHEAD.) ;
#200=ORIENTED_EDGE('',*,*,#154,.T.) ;
#201=ORIENTED_EDGE('',*,*,#160,.T.) ;
#202=ORIENTED_EDGE('',*,*,#194,.F.) ;
#203=ORIENTED_EDGE('',*,*,#198,.F.) ;
#276=ORIENTED_EDGE('',*,*,#230,.F.) ;
#277=ORIENTED_EDGE('',*,*,#270,.F.) ;
#278=ORIENTED_EDGE('',*,*,#274,.T.) ;
#279=ORIENTED_EDGE('',*,*,#154,.F.) ;
#310=ORIENTED_EDGE('',*,*,#230,.T.) ;
#311=ORIENTED_EDGE('',*,*,#198,.T.) ;
#312=ORIENTED_EDGE('',*,*,#304,.F.) ;
#313=ORIENTED_EDGE('',*,*,#308,.F.) ;
#380=ORIENTED_EDGE('',*,*,#194,.T.) ;
#381=ORIENTED_EDGE('',*,*,#346,.F.) ;
#382=ORIENTED_EDGE('',*,*,#378,.T.) ;
#383=ORIENTED_EDGE('',*,*,#304,.T.) ;
#404=ORIENTED_EDGE('',*,*,#402,.T.) ;
#405=ORIENTED_EDGE('',*,*,#346,.T.) ;
#406=ORIENTED_EDGE('',*,*,#160,.F.) ;
#407=ORIENTED_EDGE('',*,*,#274,.F.) ;
#472=ORIENTED_EDGE('',*,*,#270,.T.) ;
#473=ORIENTED_EDGE('',*,*,#308,.T.) ;
#474=ORIENTED_EDGE('',*,*,#378,.F.) ;
#475=ORIENTED_EDGE('',*,*,#402,.F.) ;
#51=CLOSED_SHELL('Closed Shell',(#205,#281,#315,#385,#409,#477)) ;
#479=ADVANCED_BREP_SHAPE_REPRESENTATION('NONE',(#478),#46) ;
#49=SHAPE_REPRESENTATION(' ',(#48),#46) ;
#205=ADVANCED_FACE('Corps de pi\X2\00E8\X0\ce.1',(#204),#52,.F.) ;
#281=ADVANCED_FACE('Corps de pi\X2\00E8\X0\ce.1',(#280),#206,.F.) ;
#315=ADVANCED_FACE('Corps de pi\X2\00E8\X0\ce.1',(#314),#282,.T.) ;
#385=ADVANCED_FACE('Corps de pi\X2\00E8\X0\ce.1',(#384),#316,.T.) ;
#409=ADVANCED_FACE('Corps de pi\X2\00E8\X0\ce.1',(#408),#386,.F.) ;
#477=ADVANCED_FACE('Corps de pi\X2\00E8\X0\ce.1',(#476),#410,.F.) ;
#4=APPLICATION_PROTOCOL_DEFINITION('international standard','config_control_design',1994,#1) ;
#32=APPROVAL_DATE_TIME(#13,#21) ;
#113=B_SPLINE_CURVE_WITH_KNOTS('',5,(#114,#115,#116,#117,#118,#119,#120,#121,#122,#123,#124,#125,#126,#127,#128,#129,#130,#131,#132,#133,#134,#135,#136,#137,#138,#139,#140,#141,#142,#143,#144,#145,#146,#147,#148,#149),.UNSPECIFIED.,.F.,.U.,(6,3,3,3,3,3,3,3,3,3,3,6),(0.,22.5516763654,38.420728422,56.1888791983,80.0139007141,96.6082091979,117.682734795,145.17236227,169.155947984,181.018943496,192.046829905,216.172309867),.UNSPECIFIED.) ;
#155=B_SPLINE_CURVE_WITH_KNOTS('',1,(#156,#157),.UNSPECIFIED.,.F.,.U.,(2,2),(-1.,0.),.UNSPECIFIED.) ;
#161=B_SPLINE_CURVE_WITH_KNOTS('',5,(#162,#163,#164,#165,#166,#167,#168,#169,#170,#171,#172,#173,#174,#175,#176,#177,#178,#179,#180,#181,#182,#183,#184,#185,#186,#187,#188,#189,#190,#191),.UNSPECIFIED.,.F.,.U.,(6,3,3,3,3,3,3,3,3,6),(0.,17.5888258208,37.7205966999,67.28600897,90.3534032277,113.40059152,140.267157197,167.803887874,194.467794321,216.172003964),.UNSPECIFIED.) ;
#195=B_SPLINE_CURVE_WITH_KNOTS('',1,(#196,#197),.UNSPECIFIED.,.F.,.U.,(2,2),(-1.,0.),.UNSPECIFIED.) ;
#225=B_SPLINE_CURVE_WITH_KNOTS('',1,(#226,#227),.UNSPECIFIED.,.F.,.U.,(2,2),(37.9999995387,237.999999539),.UNSPECIFIED.) ;
#231=B_SPLINE_CURVE_WITH_KNOTS('',5,(#232,#233,#234,#235,#236,#237,#238,#239,#240,#241,#242,#243,#244,#245,#246,#247,#248,#249,#250,#251,#252,#253,#254,#255,#256,#257,#258,#259,#260,#261,#262,#263,#264,#265,#266,#267),.UNSPECIFIED.,.F.,.U.,(6,3,3,3,3,3,3,3,3,3,3,6),(0.,22.5516359733,38.4207149856,56.18892465,80.0139468611,96.6082546736,117.682775126,145.172366729,169.155919781,181.019052092,192.046966409,216.172381739),.UNSPECIFIED.) ;
#271=B_SPLINE_CURVE_WITH_KNOTS('',1,(#272,#273),.UNSPECIFIED.,.F.,.U.,(2,2),(37.9999995387,237.999999539),.UNSPECIFIED.) ;
#295=B_SPLINE_CURVE_WITH_KNOTS('',5,(#296,#297,#298,#299,#300,#301),.UNSPECIFIED.,.F.,.U.,(6,6),(0.,200.),.UNSPECIFIED.) ;
#305=B_SPLINE_CURVE_WITH_KNOTS('',1,(#306,#307),.UNSPECIFIED.,.F.,.U.,(2,2),(-1.,0.),.UNSPECIFIED.) ;
#341=B_SPLINE_CURVE_WITH_KNOTS('',1,(#342,#343),.UNSPECIFIED.,.F.,.U.,(2,2),(37.9999995387,237.999999539),.UNSPECIFIED.) ;
#347=B_SPLINE_CURVE_WITH_KNOTS('',5,(#348,#349,#350,#351,#352,#353,#354,#355,#356,#357,#358,#359,#360,#361,#362,#363,#364,#365,#366,#367,#368,#369,#370,#371,#372,#373,#374,#375,#376,#377),.UNSPECIFIED.,.F.,.U.,(6,3,3,3,3,3,3,3,3,6),(0.,17.5888213017,37.7205700802,67.2859867932,90.3533788986,113.400564904,140.26712576,167.803849667,194.467726056,216.171931853),.UNSPECIFIED.) ;
#399=B_SPLINE_CURVE_WITH_KNOTS('',1,(#400,#401),.UNSPECIFIED.,.F.,.U.,(2,2),(-1.,0.),.UNSPECIFIED.) ;
#52=B_SPLINE_SURFACE_WITH_KNOTS('',5,1,((#53,#54),(#55,#56),(#57,#58),(#59,#60),(#61,#62),(#63,#64),(#65,#66),(#67,#68),(#69,#70),(#71,#72),(#73,#74),(#75,#76),(#77,#78),(#79,#80),(#81,#82),(#83,#84),(#85,#86),(#87,#88),(#89,#90),(#91,#92),(#93,#94),(#95,#96),(#97,#98),(#99,#100),(#101,#102),(#103,#104),(#105,#106),(#107,#108),(#109,#110),(#111,#112)),.UNSPECIFIED.,.F.,.F.,.U.,(6,3,3,3,3,3,3,3,3,6),(2,2),(0.,16.7271241847,36.6974876577,59.3116627225,80.4733660302,100.276809121,121.142248765,143.747209565,164.222576517,176.500182982),(-1.,0.),.UNSPECIFIED.) ;
#206=B_SPLINE_SURFACE_WITH_KNOTS('',5,1,((#207,#208),(#209,#210),(#211,#212),(#213,#214),(#215,#216),(#217,#218),(#219,#220),(#221,#222),(#223,#224)),.UNSPECIFIED.,.F.,.F.,.U.,(6,3,6),(2,2),(202.432923475,229.601998521,287.655530485),(-0.0822706216885,276.08227329),.UNSPECIFIED.) ;
#282=B_SPLINE_SURFACE_WITH_KNOTS('',5,1,((#283,#284),(#285,#286),(#287,#288),(#289,#290),(#291,#292),(#293,#294)),.UNSPECIFIED.,.F.,.F.,.U.,(6,6),(2,2),(0.,200.),(-1.,0.),.UNSPECIFIED.) ;
#316=B_SPLINE_SURFACE_WITH_KNOTS('',5,1,((#317,#318),(#319,#320),(#321,#322),(#323,#324),(#325,#326),(#327,#328),(#329,#330),(#331,#332),(#333,#334),(#335,#336),(#337,#338),(#339,#340)),.UNSPECIFIED.,.F.,.F.,.U.,(6,3,3,6),(2,2),(202.432923475,229.601998521,284.527677137,287.655530485),(-0.0408040877566,276.040803229),.UNSPECIFIED.) ;
#386=B_SPLINE_SURFACE_WITH_KNOTS('',5,1,((#387,#388),(#389,#390),(#391,#392),(#393,#394),(#395,#396),(#397,#398)),.UNSPECIFIED.,.F.,.F.,.U.,(6,6),(2,2),(0.,200.),(-1.,0.),.UNSPECIFIED.) ;
#410=B_SPLINE_SURFACE_WITH_KNOTS('',5,1,((#411,#412),(#413,#414),(#415,#416),(#417,#418),(#419,#420),(#421,#422),(#423,#424),(#425,#426),(#427,#428),(#429,#430),(#431,#432),(#433,#434),(#435,#436),(#437,#438),(#439,#440),(#441,#442),(#443,#444),(#445,#446),(#447,#448),(#449,#450),(#451,#452),(#453,#454),(#455,#456),(#457,#458),(#459,#460),(#461,#462),(#463,#464),(#465,#466),(#467,#468),(#469,#470)),.UNSPECIFIED.,.F.,.F.,.U.,(6,3,3,3,3,3,3,3,3,6),(2,2),(0.,16.7271691775,36.6975265499,59.3118448531,80.4733982117,100.276842875,121.142274993,143.747264151,164.222659536,176.50019957),(-1.,0.),.UNSPECIFIED.) ;
#478=MANIFOLD_SOLID_BREP('Corps de pi\X2\00E8\X0\ce.1',#51) ;
#11=CALENDAR_DATE(2026,7,2) ;
#30=CC_DESIGN_APPROVAL(#21,(#16,#6,#14)) ;
#18=CC_DESIGN_DATE_AND_TIME_ASSIGNMENT(#13,#17,(#16)) ;
#29=CC_DESIGN_DATE_AND_TIME_ASSIGNMENT(#13,#28,(#14)) ;
#17=DATE_TIME_ROLE('classification_date') ;
#28=DATE_TIME_ROLE('creation_date') ;
#27=CC_DESIGN_PERSON_AND_ORGANIZATION_ASSIGNMENT(#25,#26,(#16)) ;
#33=CC_DESIGN_PERSON_AND_ORGANIZATION_ASSIGNMENT(#25,#34,(#6)) ;
#35=CC_DESIGN_PERSON_AND_ORGANIZATION_ASSIGNMENT(#25,#36,(#6,#14)) ;
#37=CC_DESIGN_PERSON_AND_ORGANIZATION_ASSIGNMENT(#25,#38,(#5)) ;
#26=PERSON_AND_ORGANIZATION_ROLE('classification_officer') ;
#34=PERSON_AND_ORGANIZATION_ROLE('design_supplier') ;
#36=PERSON_AND_ORGANIZATION_ROLE('creator') ;
#38=PERSON_AND_ORGANIZATION_ROLE('design_owner') ;
#39=CC_DESIGN_SECURITY_CLASSIFICATION(#16,(#6)) ;
#480=SHAPE_REPRESENTATION_RELATIONSHIP(' ',' ',#49,#479) ;
#3=DESIGN_CONTEXT(' ',#1,'design') ;
#154=EDGE_CURVE('',#151,#153,#113,.T.) ;
#160=EDGE_CURVE('',#153,#159,#155,.T.) ;
#194=EDGE_CURVE('',#193,#159,#161,.T.) ;
#198=EDGE_CURVE('',#151,#193,#195,.T.) ;
#230=EDGE_CURVE('',#229,#151,#225,.T.) ;
#270=EDGE_CURVE('',#269,#229,#231,.T.) ;
#274=EDGE_CURVE('',#269,#153,#271,.T.) ;
#304=EDGE_CURVE('',#303,#193,#295,.T.) ;
#308=EDGE_CURVE('',#229,#303,#305,.T.) ;
#346=EDGE_CURVE('',#345,#159,#341,.T.) ;
#378=EDGE_CURVE('',#345,#303,#347,.T.) ;
#402=EDGE_CURVE('',#269,#345,#399,.T.) ;
#199=EDGE_LOOP('',(#200,#201,#202,#203)) ;
#275=EDGE_LOOP('',(#276,#277,#278,#279)) ;
#309=EDGE_LOOP('',(#310,#311,#312,#313)) ;
#379=EDGE_LOOP('',(#380,#381,#382,#383)) ;
#403=EDGE_LOOP('',(#404,#405,#406,#407)) ;
#471=EDGE_LOOP('',(#472,#473,#474,#475)) ;
#204=FACE_OUTER_BOUND('',#199,.T.) ;
#280=FACE_OUTER_BOUND('',#275,.T.) ;
#314=FACE_OUTER_BOUND('',#309,.T.) ;
#384=FACE_OUTER_BOUND('',#379,.T.) ;
#408=FACE_OUTER_BOUND('',#403,.T.) ;
#476=FACE_OUTER_BOUND('',#471,.T.) ;
#45=UNCERTAINTY_MEASURE_WITH_UNIT(LENGTH_MEASURE(0.005),#41,'distance_accuracy_value','CONFUSED CURVE UNCERTAINTY') ;
#2=MECHANICAL_CONTEXT(' ',#1,'mechanical') ;
#24=PERSONAL_ADDRESS(' ',' ',' ',' ',' ',' ',' ',' ',' ',' ',' ',' ',(#22),' ') ;
#43=PLANE_ANGLE_MEASURE_WITH_UNIT(PLANE_ANGLE_MEASURE(0.0174532925199),#42) ;
#7=PRODUCT_CATEGORY('part',$) ;
#9=PRODUCT_CATEGORY_RELATIONSHIP(' ',' ',#7,#8) ;
#6=PRODUCT_DEFINITION_FORMATION_WITH_SPECIFIED_SOURCE('',' ',#5,.NOT_KNOWN.) ;
#8=PRODUCT_RELATED_PRODUCT_CATEGORY('detail',$,(#5)) ;
#50=SHAPE_DEFINITION_REPRESENTATION(#40,#49) ;
#151=VERTEX_POINT('',#150) ;
#153=VERTEX_POINT('',#152) ;
#159=VERTEX_POINT('',#158) ;
#193=VERTEX_POINT('',#192) ;
#229=VERTEX_POINT('',#228) ;
#269=VERTEX_POINT('',#268) ;
#303=VERTEX_POINT('',#302) ;
#345=VERTEX_POINT('',#344) ;
#41=(LENGTH_UNIT()NAMED_UNIT(*)SI_UNIT(.MILLI.,.METRE.)) ;
#42=(NAMED_UNIT(*)PLANE_ANGLE_UNIT()SI_UNIT($,.RADIAN.)) ;
#44=(NAMED_UNIT(*)SI_UNIT($,.STERADIAN.)SOLID_ANGLE_UNIT()) ;
#46=(GEOMETRIC_REPRESENTATION_CONTEXT(3)GLOBAL_UNCERTAINTY_ASSIGNED_CONTEXT((#45))GLOBAL_UNIT_ASSIGNED_CONTEXT((#41,#42,#44))REPRESENTATION_CONTEXT(' ',' ')) ;
ENDSEC;
END-ISO-10303-21;
