solid CATIA STL
  facet normal  0.000000e+000  0.000000e+000  1.000000e+000
    outer loop
      vertex -1.111140e+000  1.662939e+000  4.000000e+000
      vertex -4.842916e+000  1.243449e+000  4.000000e+000
      vertex -1.414214e+000  1.414214e+000  4.000000e+000
    endloop
  endfacet
  facet normal  -0.000000e+000  0.000000e+000  1.000000e+000
    outer loop
      vertex -1.414214e+000  1.414214e+000  4.000000e+000
      vertex -4.842916e+000  1.243449e+000  4.000000e+000
      vertex -1.662939e+000  1.111140e+000  4.000000e+000
    endloop
  endfacet
  facet normal  -0.000000e+000  0.000000e+000  9.999999e-001
    outer loop
      vertex -1.111140e+000 -1.662939e+000  4.000000e+000
      vertex -4.648882e+000 -1.840623e+000  4.000000e+000
      vertex -7.653669e-001 -1.847759e+000  4.000000e+000
    endloop
  endfacet
  facet normal  0.000000e+000  0.000000e+000  1.000000e+000
    outer loop
      vertex  4.842916e+000  1.243449e+000  4.000000e+000
      vertex  1.111140e+000  1.662939e+000  4.000000e+000
      vertex  1.414214e+000  1.414214e+000  4.000000e+000
    endloop
  endfacet
  facet normal  0.000000e+000  -0.000000e+000  1.000000e+000
    outer loop
      vertex  1.414214e+000  1.414214e+000  4.000000e+000
      vertex  1.662939e+000  1.111140e+000  4.000000e+000
      vertex  4.842916e+000  1.243449e+000  4.000000e+000
    endloop
  endfacet
  facet normal  -0.000000e+000  -0.000000e+000  1.000000e+000
    outer loop
      vertex -4.381534e+000 -2.408768e+000  4.000000e+000
      vertex -4.045085e+000 -2.938926e+000  4.000000e+000
      vertex -3.644843e+000 -3.422735e+000  4.000000e+000
    endloop
  endfacet
  facet normal  -0.000000e+000  -0.000000e+000  1.000000e+000
    outer loop
      vertex -4.381534e+000 -2.408768e+000  4.000000e+000
      vertex -3.644843e+000 -3.422735e+000  4.000000e+000
      vertex -3.187120e+000 -3.852566e+000  4.000000e+000
    endloop
  endfacet
  facet normal  -0.000000e+000  -0.000000e+000  1.000000e+000
    outer loop
      vertex -4.381534e+000 -2.408768e+000  4.000000e+000
      vertex -3.187120e+000 -3.852566e+000  4.000000e+000
      vertex -2.679134e+000 -4.221640e+000  4.000000e+000
    endloop
  endfacet
  facet normal  -0.000000e+000  -0.000000e+000  1.000000e+000
    outer loop
      vertex -4.381534e+000 -2.408768e+000  4.000000e+000
      vertex -2.679134e+000 -4.221640e+000  4.000000e+000
      vertex -2.128896e+000 -4.524135e+000  4.000000e+000
    endloop
  endfacet
  facet normal  -0.000000e+000  -0.000000e+000  1.000000e+000
    outer loop
      vertex -4.381534e+000 -2.408768e+000  4.000000e+000
      vertex -2.128896e+000 -4.524135e+000  4.000000e+000
      vertex -1.545085e+000 -4.755282e+000  4.000000e+000
    endloop
  endfacet
  facet normal  -0.000000e+000  -0.000000e+000  1.000000e+000
    outer loop
      vertex -4.381534e+000 -2.408768e+000  4.000000e+000
      vertex -1.545085e+000 -4.755282e+000  4.000000e+000
      vertex -9.369066e-001 -4.911436e+000  4.000000e+000
    endloop
  endfacet
  facet normal  -0.000000e+000  -0.000000e+000  1.000000e+000
    outer loop
      vertex -4.381534e+000 -2.408768e+000  4.000000e+000
      vertex -9.369066e-001 -4.911436e+000  4.000000e+000
      vertex -3.139526e-001 -4.990134e+000  4.000000e+000
    endloop
  endfacet
  facet normal  0.000000e+000  -0.000000e+000  1.000000e+000
    outer loop
      vertex -4.381534e+000 -2.408768e+000  4.000000e+000
      vertex -3.139526e-001 -4.990134e+000  4.000000e+000
      vertex  3.139526e-001 -4.990134e+000  4.000000e+000
    endloop
  endfacet
  facet normal  0.000000e+000  0.000000e+000  9.999999e-001
    outer loop
      vertex -4.381534e+000 -2.408768e+000  4.000000e+000
      vertex  3.139526e-001 -4.990134e+000  4.000000e+000
      vertex -3.673940e-016 -2.000000e+000  4.000000e+000
    endloop
  endfacet
  facet normal  0.000000e+000  0.000000e+000  1.000000e+000
    outer loop
      vertex -4.381534e+000 -2.408768e+000  4.000000e+000
      vertex -3.673940e-016 -2.000000e+000  4.000000e+000
      vertex -3.901806e-001 -1.961571e+000  4.000000e+000
    endloop
  endfacet
  facet normal  0.000000e+000  0.000000e+000  1.000000e+000
    outer loop
      vertex -4.381534e+000 -2.408768e+000  4.000000e+000
      vertex -3.901806e-001 -1.961571e+000  4.000000e+000
      vertex -7.653669e-001 -1.847759e+000  4.000000e+000
    endloop
  endfacet
  facet normal  0.000000e+000  0.000000e+000  1.000000e+000
    outer loop
      vertex -4.381534e+000 -2.408768e+000  4.000000e+000
      vertex -7.653669e-001 -1.847759e+000  4.000000e+000
      vertex -4.648882e+000 -1.840623e+000  4.000000e+000
    endloop
  endfacet
  facet normal  0.000000e+000  -0.000000e+000  1.000000e+000
    outer loop
      vertex -3.673940e-016 -2.000000e+000  4.000000e+000
      vertex  3.139526e-001 -4.990134e+000  4.000000e+000
      vertex  9.369066e-001 -4.911436e+000  4.000000e+000
    endloop
  endfacet
  facet normal  0.000000e+000  -0.000000e+000  1.000000e+000
    outer loop
      vertex -3.673940e-016 -2.000000e+000  4.000000e+000
      vertex  9.369066e-001 -4.911436e+000  4.000000e+000
      vertex  1.545085e+000 -4.755282e+000  4.000000e+000
    endloop
  endfacet
  facet normal  0.000000e+000  -0.000000e+000  1.000000e+000
    outer loop
      vertex -3.673940e-016 -2.000000e+000  4.000000e+000
      vertex  1.545085e+000 -4.755282e+000  4.000000e+000
      vertex  2.128896e+000 -4.524135e+000  4.000000e+000
    endloop
  endfacet
  facet normal  0.000000e+000  -0.000000e+000  1.000000e+000
    outer loop
      vertex -3.673940e-016 -2.000000e+000  4.000000e+000
      vertex  2.128896e+000 -4.524135e+000  4.000000e+000
      vertex  2.679134e+000 -4.221640e+000  4.000000e+000
    endloop
  endfacet
  facet normal  0.000000e+000  -0.000000e+000  1.000000e+000
    outer loop
      vertex -3.673940e-016 -2.000000e+000  4.000000e+000
      vertex  2.679134e+000 -4.221640e+000  4.000000e+000
      vertex  3.187120e+000 -3.852566e+000  4.000000e+000
    endloop
  endfacet
  facet normal  0.000000e+000  -0.000000e+000  1.000000e+000
    outer loop
      vertex -3.673940e-016 -2.000000e+000  4.000000e+000
      vertex  3.187120e+000 -3.852566e+000  4.000000e+000
      vertex  3.644843e+000 -3.422735e+000  4.000000e+000
    endloop
  endfacet
  facet normal  0.000000e+000  -0.000000e+000  1.000000e+000
    outer loop
      vertex -3.673940e-016 -2.000000e+000  4.000000e+000
      vertex  3.644843e+000 -3.422735e+000  4.000000e+000
      vertex  4.045085e+000 -2.938926e+000  4.000000e+000
    endloop
  endfacet
  facet normal  0.000000e+000  -0.000000e+000  1.000000e+000
    outer loop
      vertex -3.673940e-016 -2.000000e+000  4.000000e+000
      vertex  4.045085e+000 -2.938926e+000  4.000000e+000
      vertex  4.381534e+000 -2.408768e+000  4.000000e+000
    endloop
  endfacet
  facet normal  0.000000e+000  0.000000e+000  9.999999e-001
    outer loop
      vertex -3.673940e-016 -2.000000e+000  4.000000e+000
      vertex  4.381534e+000 -2.408768e+000  4.000000e+000
      vertex  3.901806e-001 -1.961571e+000  4.000000e+000
    endloop
  endfacet
  facet normal  -0.000000e+000  -0.000000e+000  1.000000e+000
    outer loop
      vertex  1.224647e-016  2.000000e+000  4.000000e+000
      vertex  3.901806e-001  1.961571e+000  4.000000e+000
      vertex  4.648882e+000  1.840623e+000  4.000000e+000
    endloop
  endfacet
  facet normal  0.000000e+000  0.000000e+000  9.999999e-001
    outer loop
      vertex  1.224647e-016  2.000000e+000  4.000000e+000
      vertex  4.648882e+000  1.840623e+000  4.000000e+000
      vertex  4.381534e+000  2.408768e+000  4.000000e+000
    endloop
  endfacet
  facet normal  0.000000e+000  0.000000e+000  1.000000e+000
    outer loop
      vertex  1.224647e-016  2.000000e+000  4.000000e+000
      vertex  4.381534e+000  2.408768e+000  4.000000e+000
      vertex  4.045085e+000  2.938926e+000  4.000000e+000
    endloop
  endfacet
  facet normal  0.000000e+000  0.000000e+000  1.000000e+000
    outer loop
      vertex  1.224647e-016  2.000000e+000  4.000000e+000
      vertex  4.045085e+000  2.938926e+000  4.000000e+000
      vertex  3.644843e+000  3.422735e+000  4.000000e+000
    endloop
  endfacet
  facet normal  0.000000e+000  0.000000e+000  1.000000e+000
    outer loop
      vertex  1.224647e-016  2.000000e+000  4.000000e+000
      vertex  3.644843e+000  3.422735e+000  4.000000e+000
      vertex  3.187120e+000  3.852566e+000  4.000000e+000
    endloop
  endfacet
  facet normal  0.000000e+000  0.000000e+000  1.000000e+000
    outer loop
      vertex  1.224647e-016  2.000000e+000  4.000000e+000
      vertex  3.187120e+000  3.852566e+000  4.000000e+000
      vertex  2.679134e+000  4.221640e+000  4.000000e+000
    endloop
  endfacet
  facet normal  0.000000e+000  0.000000e+000  1.000000e+000
    outer loop
      vertex  1.224647e-016  2.000000e+000  4.000000e+000
      vertex  2.679134e+000  4.221640e+000  4.000000e+000
      vertex  2.128896e+000  4.524135e+000  4.000000e+000
    endloop
  endfacet
  facet normal  0.000000e+000  0.000000e+000  1.000000e+000
    outer loop
      vertex  1.224647e-016  2.000000e+000  4.000000e+000
      vertex  2.128896e+000  4.524135e+000  4.000000e+000
      vertex  1.545085e+000  4.755282e+000  4.000000e+000
    endloop
  endfacet
  facet normal  0.000000e+000  0.000000e+000  1.000000e+000
    outer loop
      vertex  1.224647e-016  2.000000e+000  4.000000e+000
      vertex  1.545085e+000  4.755282e+000  4.000000e+000
      vertex  9.369066e-001  4.911436e+000  4.000000e+000
    endloop
  endfacet
  facet normal  0.000000e+000  0.000000e+000  1.000000e+000
    outer loop
      vertex  1.224647e-016  2.000000e+000  4.000000e+000
      vertex  9.369066e-001  4.911436e+000  4.000000e+000
      vertex  3.139526e-001  4.990134e+000  4.000000e+000
    endloop
  endfacet
  facet normal  0.000000e+000  0.000000e+000  1.000000e+000
    outer loop
      vertex  1.224647e-016  2.000000e+000  4.000000e+000
      vertex  3.139526e-001  4.990134e+000  4.000000e+000
      vertex -3.139526e-001  4.990134e+000  4.000000e+000
    endloop
  endfacet
  facet normal  0.000000e+000  0.000000e+000  1.000000e+000
    outer loop
      vertex  1.224647e-016  2.000000e+000  4.000000e+000
      vertex -3.139526e-001  4.990134e+000  4.000000e+000
      vertex -9.369066e-001  4.911436e+000  4.000000e+000
    endloop
  endfacet
  facet normal  0.000000e+000  0.000000e+000  1.000000e+000
    outer loop
      vertex  1.224647e-016  2.000000e+000  4.000000e+000
      vertex -9.369066e-001  4.911436e+000  4.000000e+000
      vertex -1.545085e+000  4.755282e+000  4.000000e+000
    endloop
  endfacet
  facet normal  0.000000e+000  0.000000e+000  1.000000e+000
    outer loop
      vertex  1.224647e-016  2.000000e+000  4.000000e+000
      vertex -1.545085e+000  4.755282e+000  4.000000e+000
      vertex -2.128896e+000  4.524135e+000  4.000000e+000
    endloop
  endfacet
  facet normal  0.000000e+000  0.000000e+000  1.000000e+000
    outer loop
      vertex  1.224647e-016  2.000000e+000  4.000000e+000
      vertex -2.128896e+000  4.524135e+000  4.000000e+000
      vertex -2.679134e+000  4.221640e+000  4.000000e+000
    endloop
  endfacet
  facet normal  0.000000e+000  0.000000e+000  1.000000e+000
    outer loop
      vertex  1.224647e-016  2.000000e+000  4.000000e+000
      vertex -2.679134e+000  4.221640e+000  4.000000e+000
      vertex -3.187120e+000  3.852566e+000  4.000000e+000
    endloop
  endfacet
  facet normal  0.000000e+000  0.000000e+000  1.000000e+000
    outer loop
      vertex  1.224647e-016  2.000000e+000  4.000000e+000
      vertex -3.187120e+000  3.852566e+000  4.000000e+000
      vertex -3.644843e+000  3.422735e+000  4.000000e+000
    endloop
  endfacet
  facet normal  0.000000e+000  0.000000e+000  1.000000e+000
    outer loop
      vertex  1.224647e-016  2.000000e+000  4.000000e+000
      vertex -3.644843e+000  3.422735e+000  4.000000e+000
      vertex -4.045085e+000  2.938926e+000  4.000000e+000
    endloop
  endfacet
  facet normal  0.000000e+000  0.000000e+000  1.000000e+000
    outer loop
      vertex  1.224647e-016  2.000000e+000  4.000000e+000
      vertex -4.045085e+000  2.938926e+000  4.000000e+000
      vertex -4.381534e+000  2.408768e+000  4.000000e+000
    endloop
  endfacet
  facet normal  0.000000e+000  0.000000e+000  1.000000e+000
    outer loop
      vertex -4.648882e+000  1.840623e+000  4.000000e+000
      vertex -4.842916e+000  1.243449e+000  4.000000e+000
      vertex -1.111140e+000  1.662939e+000  4.000000e+000
    endloop
  endfacet
  facet normal  0.000000e+000  -0.000000e+000  9.999999e-001
    outer loop
      vertex -4.648882e+000  1.840623e+000  4.000000e+000
      vertex -1.111140e+000  1.662939e+000  4.000000e+000
      vertex -7.653669e-001  1.847759e+000  4.000000e+000
    endloop
  endfacet
  facet normal  0.000000e+000  -0.000000e+000  1.000000e+000
    outer loop
      vertex -4.648882e+000  1.840623e+000  4.000000e+000
      vertex -7.653669e-001  1.847759e+000  4.000000e+000
      vertex -3.901806e-001  1.961571e+000  4.000000e+000
    endloop
  endfacet
  facet normal  0.000000e+000  -0.000000e+000  1.000000e+000
    outer loop
      vertex -4.648882e+000  1.840623e+000  4.000000e+000
      vertex -3.901806e-001  1.961571e+000  4.000000e+000
      vertex  1.224647e-016  2.000000e+000  4.000000e+000
    endloop
  endfacet
  facet normal  0.000000e+000  0.000000e+000  1.000000e+000
    outer loop
      vertex -4.648882e+000  1.840623e+000  4.000000e+000
      vertex  1.224647e-016  2.000000e+000  4.000000e+000
      vertex -4.381534e+000  2.408768e+000  4.000000e+000
    endloop
  endfacet
  facet normal  0.000000e+000  0.000000e+000  1.000000e+000
    outer loop
      vertex -1.662939e+000  1.111140e+000  4.000000e+000
      vertex -4.842916e+000  1.243449e+000  4.000000e+000
      vertex -1.847759e+000  7.653669e-001  4.000000e+000
    endloop
  endfacet
  facet normal  0.000000e+000  0.000000e+000  1.000000e+000
    outer loop
      vertex -1.847759e+000  7.653669e-001  4.000000e+000
      vertex -4.842916e+000  1.243449e+000  4.000000e+000
      vertex -4.960574e+000  6.266662e-001  4.000000e+000
    endloop
  endfacet
  facet normal  -0.000000e+000  0.000000e+000  1.000000e+000
    outer loop
      vertex -1.847759e+000  7.653669e-001  4.000000e+000
      vertex -4.960574e+000  6.266662e-001  4.000000e+000
      vertex -1.961571e+000  3.901806e-001  4.000000e+000
    endloop
  endfacet
  facet normal  0.000000e+000  0.000000e+000  1.000000e+000
    outer loop
      vertex -1.961571e+000  3.901806e-001  4.000000e+000
      vertex -4.960574e+000  6.266662e-001  4.000000e+000
      vertex -5.000000e+000  6.123234e-016  4.000000e+000
    endloop
  endfacet
  facet normal  -0.000000e+000  0.000000e+000  1.000000e+000
    outer loop
      vertex -1.961571e+000  3.901806e-001  4.000000e+000
      vertex -5.000000e+000  6.123234e-016  4.000000e+000
      vertex -2.000000e+000  2.449294e-016  4.000000e+000
    endloop
  endfacet
  facet normal  0.000000e+000  0.000000e+000  1.000000e+000
    outer loop
      vertex -2.000000e+000  2.449294e-016  4.000000e+000
      vertex -5.000000e+000  6.123234e-016  4.000000e+000
      vertex -1.961571e+000 -3.901806e-001  4.000000e+000
    endloop
  endfacet
  facet normal  0.000000e+000  0.000000e+000  1.000000e+000
    outer loop
      vertex -1.961571e+000 -3.901806e-001  4.000000e+000
      vertex -5.000000e+000  6.123234e-016  4.000000e+000
      vertex -4.960574e+000 -6.266662e-001  4.000000e+000
    endloop
  endfacet
  facet normal  -0.000000e+000  0.000000e+000  1.000000e+000
    outer loop
      vertex -1.961571e+000 -3.901806e-001  4.000000e+000
      vertex -4.960574e+000 -6.266662e-001  4.000000e+000
      vertex -1.847759e+000 -7.653669e-001  4.000000e+000
    endloop
  endfacet
  facet normal  0.000000e+000  0.000000e+000  1.000000e+000
    outer loop
      vertex -1.847759e+000 -7.653669e-001  4.000000e+000
      vertex -4.960574e+000 -6.266662e-001  4.000000e+000
      vertex -1.662939e+000 -1.111140e+000  4.000000e+000
    endloop
  endfacet
  facet normal  0.000000e+000  0.000000e+000  1.000000e+000
    outer loop
      vertex -1.662939e+000 -1.111140e+000  4.000000e+000
      vertex -4.960574e+000 -6.266662e-001  4.000000e+000
      vertex -4.842916e+000 -1.243449e+000  4.000000e+000
    endloop
  endfacet
  facet normal  -0.000000e+000  0.000000e+000  1.000000e+000
    outer loop
      vertex -1.662939e+000 -1.111140e+000  4.000000e+000
      vertex -4.842916e+000 -1.243449e+000  4.000000e+000
      vertex -1.414214e+000 -1.414214e+000  4.000000e+000
    endloop
  endfacet
  facet normal  0.000000e+000  0.000000e+000  1.000000e+000
    outer loop
      vertex -1.414214e+000 -1.414214e+000  4.000000e+000
      vertex -4.842916e+000 -1.243449e+000  4.000000e+000
      vertex -4.648882e+000 -1.840623e+000  4.000000e+000
    endloop
  endfacet
  facet normal  0.000000e+000  0.000000e+000  1.000000e+000
    outer loop
      vertex -1.414214e+000 -1.414214e+000  4.000000e+000
      vertex -4.648882e+000 -1.840623e+000  4.000000e+000
      vertex -1.111140e+000 -1.662939e+000  4.000000e+000
    endloop
  endfacet
  facet normal  0.000000e+000  0.000000e+000  1.000000e+000
    outer loop
      vertex  1.111140e+000  1.662939e+000  4.000000e+000
      vertex  4.842916e+000  1.243449e+000  4.000000e+000
      vertex  7.653669e-001  1.847759e+000  4.000000e+000
    endloop
  endfacet
  facet normal  0.000000e+000  0.000000e+000  1.000000e+000
    outer loop
      vertex  7.653669e-001  1.847759e+000  4.000000e+000
      vertex  4.842916e+000  1.243449e+000  4.000000e+000
      vertex  4.648882e+000  1.840623e+000  4.000000e+000
    endloop
  endfacet
  facet normal  0.000000e+000  0.000000e+000  1.000000e+000
    outer loop
      vertex  7.653669e-001  1.847759e+000  4.000000e+000
      vertex  4.648882e+000  1.840623e+000  4.000000e+000
      vertex  3.901806e-001  1.961571e+000  4.000000e+000
    endloop
  endfacet
  facet normal  -0.000000e+000  0.000000e+000  1.000000e+000
    outer loop
      vertex  4.842916e+000  1.243449e+000  4.000000e+000
      vertex  1.662939e+000  1.111140e+000  4.000000e+000
      vertex  4.960574e+000  6.266662e-001  4.000000e+000
    endloop
  endfacet
  facet normal  0.000000e+000  0.000000e+000  1.000000e+000
    outer loop
      vertex  4.960574e+000  6.266662e-001  4.000000e+000
      vertex  1.662939e+000  1.111140e+000  4.000000e+000
      vertex  1.847759e+000  7.653669e-001  4.000000e+000
    endloop
  endfacet
  facet normal  0.000000e+000  0.000000e+000  1.000000e+000
    outer loop
      vertex  4.960574e+000  6.266662e-001  4.000000e+000
      vertex  1.847759e+000  7.653669e-001  4.000000e+000
      vertex  5.000000e+000  0.000000e+000  4.000000e+000
    endloop
  endfacet
  facet normal  0.000000e+000  0.000000e+000  1.000000e+000
    outer loop
      vertex  5.000000e+000  0.000000e+000  4.000000e+000
      vertex  1.847759e+000  7.653669e-001  4.000000e+000
      vertex  1.961571e+000  3.901806e-001  4.000000e+000
    endloop
  endfacet
  facet normal  0.000000e+000  0.000000e+000  1.000000e+000
    outer loop
      vertex  5.000000e+000  0.000000e+000  4.000000e+000
      vertex  1.961571e+000  3.901806e-001  4.000000e+000
      vertex  2.000000e+000  0.000000e+000  4.000000e+000
    endloop
  endfacet
  facet normal  -0.000000e+000  0.000000e+000  1.000000e+000
    outer loop
      vertex  5.000000e+000  0.000000e+000  4.000000e+000
      vertex  2.000000e+000  0.000000e+000  4.000000e+000
      vertex  4.960574e+000 -6.266662e-001  4.000000e+000
    endloop
  endfacet
  facet normal  0.000000e+000  0.000000e+000  1.000000e+000
    outer loop
      vertex  4.960574e+000 -6.266662e-001  4.000000e+000
      vertex  2.000000e+000  0.000000e+000  4.000000e+000
      vertex  1.961571e+000 -3.901806e-001  4.000000e+000
    endloop
  endfacet
  facet normal  0.000000e+000  0.000000e+000  1.000000e+000
    outer loop
      vertex  4.960574e+000 -6.266662e-001  4.000000e+000
      vertex  1.961571e+000 -3.901806e-001  4.000000e+000
      vertex  1.847759e+000 -7.653669e-001  4.000000e+000
    endloop
  endfacet
  facet normal  -0.000000e+000  0.000000e+000  1.000000e+000
    outer loop
      vertex  4.960574e+000 -6.266662e-001  4.000000e+000
      vertex  1.847759e+000 -7.653669e-001  4.000000e+000
      vertex  4.842916e+000 -1.243449e+000  4.000000e+000
    endloop
  endfacet
  facet normal  0.000000e+000  0.000000e+000  1.000000e+000
    outer loop
      vertex  4.842916e+000 -1.243449e+000  4.000000e+000
      vertex  1.847759e+000 -7.653669e-001  4.000000e+000
      vertex  1.662939e+000 -1.111140e+000  4.000000e+000
    endloop
  endfacet
  facet normal  0.000000e+000  0.000000e+000  1.000000e+000
    outer loop
      vertex  4.842916e+000 -1.243449e+000  4.000000e+000
      vertex  1.662939e+000 -1.111140e+000  4.000000e+000
      vertex  4.648882e+000 -1.840623e+000  4.000000e+000
    endloop
  endfacet
  facet normal  0.000000e+000  0.000000e+000  1.000000e+000
    outer loop
      vertex  4.648882e+000 -1.840623e+000  4.000000e+000
      vertex  1.662939e+000 -1.111140e+000  4.000000e+000
      vertex  1.414214e+000 -1.414214e+000  4.000000e+000
    endloop
  endfacet
  facet normal  0.000000e+000  0.000000e+000  1.000000e+000
    outer loop
      vertex  4.648882e+000 -1.840623e+000  4.000000e+000
      vertex  1.414214e+000 -1.414214e+000  4.000000e+000
      vertex  1.111140e+000 -1.662939e+000  4.000000e+000
    endloop
  endfacet
  facet normal  0.000000e+000  0.000000e+000  1.000000e+000
    outer loop
      vertex  3.901806e-001 -1.961571e+000  4.000000e+000
      vertex  4.381534e+000 -2.408768e+000  4.000000e+000
      vertex  7.653669e-001 -1.847759e+000  4.000000e+000
    endloop
  endfacet
  facet normal  -0.000000e+000  0.000000e+000  1.000000e+000
    outer loop
      vertex  7.653669e-001 -1.847759e+000  4.000000e+000
      vertex  4.381534e+000 -2.408768e+000  4.000000e+000
      vertex  4.648882e+000 -1.840623e+000  4.000000e+000
    endloop
  endfacet
  facet normal  0.000000e+000  0.000000e+000  9.999999e-001
    outer loop
      vertex  7.653669e-001 -1.847759e+000  4.000000e+000
      vertex  4.648882e+000 -1.840623e+000  4.000000e+000
      vertex  1.111140e+000 -1.662939e+000  4.000000e+000
    endloop
  endfacet
  facet normal  0.000000e+000  0.000000e+000 -1.000000e+000
    outer loop
      vertex -1.414214e+000  1.414214e+000  0.000000e+000
      vertex -4.842916e+000  1.243449e+000  0.000000e+000
      vertex -1.111140e+000  1.662939e+000  0.000000e+000
    endloop
  endfacet
  facet normal  0.000000e+000  0.000000e+000 -1.000000e+000
    outer loop
      vertex -1.662939e+000  1.111140e+000  0.000000e+000
      vertex -4.842916e+000  1.243449e+000  0.000000e+000
      vertex -1.414214e+000  1.414214e+000  0.000000e+000
    endloop
  endfacet
  facet normal  0.000000e+000  0.000000e+000 -9.999999e-001
    outer loop
      vertex -7.653669e-001 -1.847759e+000  0.000000e+000
      vertex -4.648882e+000 -1.840623e+000  0.000000e+000
      vertex -1.111140e+000 -1.662939e+000  0.000000e+000
    endloop
  endfacet
  facet normal  0.000000e+000  0.000000e+000 -1.000000e+000
    outer loop
      vertex  1.414214e+000  1.414214e+000  0.000000e+000
      vertex  1.111140e+000  1.662939e+000  0.000000e+000
      vertex  4.842916e+000  1.243449e+000  0.000000e+000
    endloop
  endfacet
  facet normal  0.000000e+000  0.000000e+000 -1.000000e+000
    outer loop
      vertex  4.842916e+000  1.243449e+000  0.000000e+000
      vertex  1.662939e+000  1.111140e+000  0.000000e+000
      vertex  1.414214e+000  1.414214e+000  0.000000e+000
    endloop
  endfacet
  facet normal  0.000000e+000  0.000000e+000 -1.000000e+000
    outer loop
      vertex -4.381534e+000 -2.408768e+000  0.000000e+000
      vertex -4.648882e+000 -1.840623e+000  0.000000e+000
      vertex -7.653669e-001 -1.847759e+000  0.000000e+000
    endloop
  endfacet
  facet normal  0.000000e+000  -0.000000e+000 -1.000000e+000
    outer loop
      vertex -4.381534e+000 -2.408768e+000  0.000000e+000
      vertex -7.653669e-001 -1.847759e+000  0.000000e+000
      vertex -3.901806e-001 -1.961571e+000  0.000000e+000
    endloop
  endfacet
  facet normal  0.000000e+000  -0.000000e+000 -1.000000e+000
    outer loop
      vertex -4.381534e+000 -2.408768e+000  0.000000e+000
      vertex -3.901806e-001 -1.961571e+000  0.000000e+000
      vertex -3.673940e-016 -2.000000e+000  0.000000e+000
    endloop
  endfacet
  facet normal  0.000000e+000  -0.000000e+000 -1.000000e+000
    outer loop
      vertex -4.381534e+000 -2.408768e+000  0.000000e+000
      vertex -3.673940e-016 -2.000000e+000  0.000000e+000
      vertex  3.139526e-001 -4.990134e+000  0.000000e+000
    endloop
  endfacet
  facet normal  0.000000e+000  0.000000e+000 -1.000000e+000
    outer loop
      vertex -4.381534e+000 -2.408768e+000  0.000000e+000
      vertex  3.139526e-001 -4.990134e+000  0.000000e+000
      vertex -3.139526e-001 -4.990134e+000  0.000000e+000
    endloop
  endfacet
  facet normal  0.000000e+000  0.000000e+000 -1.000000e+000
    outer loop
      vertex -4.381534e+000 -2.408768e+000  0.000000e+000
      vertex -3.139526e-001 -4.990134e+000  0.000000e+000
      vertex -9.369066e-001 -4.911436e+000  0.000000e+000
    endloop
  endfacet
  facet normal  0.000000e+000  0.000000e+000 -9.999999e-001
    outer loop
      vertex -4.381534e+000 -2.408768e+000  0.000000e+000
      vertex -9.369066e-001 -4.911436e+000  0.000000e+000
      vertex -1.545085e+000 -4.755282e+000  0.000000e+000
    endloop
  endfacet
  facet normal  0.000000e+000  0.000000e+000 -1.000000e+000
    outer loop
      vertex -4.381534e+000 -2.408768e+000  0.000000e+000
      vertex -1.545085e+000 -4.755282e+000  0.000000e+000
      vertex -2.128896e+000 -4.524135e+000  0.000000e+000
    endloop
  endfacet
  facet normal  0.000000e+000  0.000000e+000 -1.000000e+000
    outer loop
      vertex -4.381534e+000 -2.408768e+000  0.000000e+000
      vertex -2.128896e+000 -4.524135e+000  0.000000e+000
      vertex -2.679134e+000 -4.221640e+000  0.000000e+000
    endloop
  endfacet
  facet normal  0.000000e+000  0.000000e+000 -1.000000e+000
    outer loop
      vertex -4.381534e+000 -2.408768e+000  0.000000e+000
      vertex -2.679134e+000 -4.221640e+000  0.000000e+000
      vertex -3.187120e+000 -3.852566e+000  0.000000e+000
    endloop
  endfacet
  facet normal  0.000000e+000  0.000000e+000 -1.000000e+000
    outer loop
      vertex -4.381534e+000 -2.408768e+000  0.000000e+000
      vertex -3.187120e+000 -3.852566e+000  0.000000e+000
      vertex -3.644843e+000 -3.422735e+000  0.000000e+000
    endloop
  endfacet
  facet normal  0.000000e+000  0.000000e+000 -1.000000e+000
    outer loop
      vertex -4.381534e+000 -2.408768e+000  0.000000e+000
      vertex -3.644843e+000 -3.422735e+000  0.000000e+000
      vertex -4.045085e+000 -2.938926e+000  0.000000e+000
    endloop
  endfacet
  facet normal  0.000000e+000  -0.000000e+000 -1.000000e+000
    outer loop
      vertex -3.673940e-016 -2.000000e+000  0.000000e+000
      vertex  3.901806e-001 -1.961571e+000  0.000000e+000
      vertex  4.381534e+000 -2.408768e+000  0.000000e+000
    endloop
  endfacet
  facet normal  -0.000000e+000  0.000000e+000 -1.000000e+000
    outer loop
      vertex -3.673940e-016 -2.000000e+000  0.000000e+000
      vertex  4.381534e+000 -2.408768e+000  0.000000e+000
      vertex  4.045085e+000 -2.938926e+000  0.000000e+000
    endloop
  endfacet
  facet normal  -0.000000e+000  0.000000e+000 -1.000000e+000
    outer loop
      vertex -3.673940e-016 -2.000000e+000  0.000000e+000
      vertex  4.045085e+000 -2.938926e+000  0.000000e+000
      vertex  3.644843e+000 -3.422735e+000  0.000000e+000
    endloop
  endfacet
  facet normal  -0.000000e+000  0.000000e+000 -1.000000e+000
    outer loop
      vertex -3.673940e-016 -2.000000e+000  0.000000e+000
      vertex  3.644843e+000 -3.422735e+000  0.000000e+000
      vertex  3.187120e+000 -3.852566e+000  0.000000e+000
    endloop
  endfacet
  facet normal  -0.000000e+000  0.000000e+000 -1.000000e+000
    outer loop
      vertex -3.673940e-016 -2.000000e+000  0.000000e+000
      vertex  3.187120e+000 -3.852566e+000  0.000000e+000
      vertex  2.679134e+000 -4.221640e+000  0.000000e+000
    endloop
  endfacet
  facet normal  -0.000000e+000  0.000000e+000 -1.000000e+000
    outer loop
      vertex -3.673940e-016 -2.000000e+000  0.000000e+000
      vertex  2.679134e+000 -4.221640e+000  0.000000e+000
      vertex  2.128896e+000 -4.524135e+000  0.000000e+000
    endloop
  endfacet
  facet normal  -0.000000e+000  0.000000e+000 -1.000000e+000
    outer loop
      vertex -3.673940e-016 -2.000000e+000  0.000000e+000
      vertex  2.128896e+000 -4.524135e+000  0.000000e+000
      vertex  1.545085e+000 -4.755282e+000  0.000000e+000
    endloop
  endfacet
  facet normal  -0.000000e+000  0.000000e+000 -1.000000e+000
    outer loop
      vertex -3.673940e-016 -2.000000e+000  0.000000e+000
      vertex  1.545085e+000 -4.755282e+000  0.000000e+000
      vertex  9.369066e-001 -4.911436e+000  0.000000e+000
    endloop
  endfacet
  facet normal  -0.000000e+000  0.000000e+000 -1.000000e+000
    outer loop
      vertex -3.673940e-016 -2.000000e+000  0.000000e+000
      vertex  9.369066e-001 -4.911436e+000  0.000000e+000
      vertex  3.139526e-001 -4.990134e+000  0.000000e+000
    endloop
  endfacet
  facet normal  0.000000e+000  0.000000e+000 -1.000000e+000
    outer loop
      vertex  1.224647e-016  2.000000e+000  0.000000e+000
      vertex -4.381534e+000  2.408768e+000  0.000000e+000
      vertex -4.045085e+000  2.938926e+000  0.000000e+000
    endloop
  endfacet
  facet normal  0.000000e+000  0.000000e+000 -1.000000e+000
    outer loop
      vertex  1.224647e-016  2.000000e+000  0.000000e+000
      vertex -4.045085e+000  2.938926e+000  0.000000e+000
      vertex -3.644843e+000  3.422735e+000  0.000000e+000
    endloop
  endfacet
  facet normal  0.000000e+000  0.000000e+000 -1.000000e+000
    outer loop
      vertex  1.224647e-016  2.000000e+000  0.000000e+000
      vertex -3.644843e+000  3.422735e+000  0.000000e+000
      vertex -3.187120e+000  3.852566e+000  0.000000e+000
    endloop
  endfacet
  facet normal  0.000000e+000  0.000000e+000 -1.000000e+000
    outer loop
      vertex  1.224647e-016  2.000000e+000  0.000000e+000
      vertex -3.187120e+000  3.852566e+000  0.000000e+000
      vertex -2.679134e+000  4.221640e+000  0.000000e+000
    endloop
  endfacet
  facet normal  0.000000e+000  0.000000e+000 -1.000000e+000
    outer loop
      vertex  1.224647e-016  2.000000e+000  0.000000e+000
      vertex -2.679134e+000  4.221640e+000  0.000000e+000
      vertex -2.128896e+000  4.524135e+000  0.000000e+000
    endloop
  endfacet
  facet normal  0.000000e+000  0.000000e+000 -1.000000e+000
    outer loop
      vertex  1.224647e-016  2.000000e+000  0.000000e+000
      vertex -2.128896e+000  4.524135e+000  0.000000e+000
      vertex -1.545085e+000  4.755282e+000  0.000000e+000
    endloop
  endfacet
  facet normal  0.000000e+000  0.000000e+000 -1.000000e+000
    outer loop
      vertex  1.224647e-016  2.000000e+000  0.000000e+000
      vertex -1.545085e+000  4.755282e+000  0.000000e+000
      vertex -9.369066e-001  4.911436e+000  0.000000e+000
    endloop
  endfacet
  facet normal  0.000000e+000  0.000000e+000 -1.000000e+000
    outer loop
      vertex  1.224647e-016  2.000000e+000  0.000000e+000
      vertex -9.369066e-001  4.911436e+000  0.000000e+000
      vertex -3.139526e-001  4.990134e+000  0.000000e+000
    endloop
  endfacet
  facet normal  0.000000e+000  0.000000e+000 -1.000000e+000
    outer loop
      vertex  1.224647e-016  2.000000e+000  0.000000e+000
      vertex -3.139526e-001  4.990134e+000  0.000000e+000
      vertex  3.139526e-001  4.990134e+000  0.000000e+000
    endloop
  endfacet
  facet normal  0.000000e+000  -0.000000e+000 -1.000000e+000
    outer loop
      vertex  1.224647e-016  2.000000e+000  0.000000e+000
      vertex  3.139526e-001  4.990134e+000  0.000000e+000
      vertex  9.369066e-001  4.911436e+000  0.000000e+000
    endloop
  endfacet
  facet normal  0.000000e+000  -0.000000e+000 -1.000000e+000
    outer loop
      vertex  1.224647e-016  2.000000e+000  0.000000e+000
      vertex  9.369066e-001  4.911436e+000  0.000000e+000
      vertex  1.545085e+000  4.755282e+000  0.000000e+000
    endloop
  endfacet
  facet normal  0.000000e+000  -0.000000e+000 -1.000000e+000
    outer loop
      vertex  1.224647e-016  2.000000e+000  0.000000e+000
      vertex  1.545085e+000  4.755282e+000  0.000000e+000
      vertex  2.128896e+000  4.524135e+000  0.000000e+000
    endloop
  endfacet
  facet normal  0.000000e+000  -0.000000e+000 -1.000000e+000
    outer loop
      vertex  1.224647e-016  2.000000e+000  0.000000e+000
      vertex  2.128896e+000  4.524135e+000  0.000000e+000
      vertex  2.679134e+000  4.221640e+000  0.000000e+000
    endloop
  endfacet
  facet normal  0.000000e+000  -0.000000e+000 -1.000000e+000
    outer loop
      vertex  1.224647e-016  2.000000e+000  0.000000e+000
      vertex  2.679134e+000  4.221640e+000  0.000000e+000
      vertex  3.187120e+000  3.852566e+000  0.000000e+000
    endloop
  endfacet
  facet normal  0.000000e+000  -0.000000e+000 -1.000000e+000
    outer loop
      vertex  1.224647e-016  2.000000e+000  0.000000e+000
      vertex  3.187120e+000  3.852566e+000  0.000000e+000
      vertex  3.644843e+000  3.422735e+000  0.000000e+000
    endloop
  endfacet
  facet normal  0.000000e+000  -0.000000e+000 -1.000000e+000
    outer loop
      vertex  1.224647e-016  2.000000e+000  0.000000e+000
      vertex  3.644843e+000  3.422735e+000  0.000000e+000
      vertex  4.045085e+000  2.938926e+000  0.000000e+000
    endloop
  endfacet
  facet normal  0.000000e+000  -0.000000e+000 -1.000000e+000
    outer loop
      vertex  1.224647e-016  2.000000e+000  0.000000e+000
      vertex  4.045085e+000  2.938926e+000  0.000000e+000
      vertex  4.381534e+000  2.408768e+000  0.000000e+000
    endloop
  endfacet
  facet normal  0.000000e+000  -0.000000e+000 -1.000000e+000
    outer loop
      vertex  1.224647e-016  2.000000e+000  0.000000e+000
      vertex  4.381534e+000  2.408768e+000  0.000000e+000
      vertex  4.648882e+000  1.840623e+000  0.000000e+000
    endloop
  endfacet
  facet normal  0.000000e+000  0.000000e+000 -9.999999e-001
    outer loop
      vertex  1.224647e-016  2.000000e+000  0.000000e+000
      vertex  4.648882e+000  1.840623e+000  0.000000e+000
      vertex  3.901806e-001  1.961571e+000  0.000000e+000
    endloop
  endfacet
  facet normal  0.000000e+000  -0.000000e+000 -1.000000e+000
    outer loop
      vertex -4.648882e+000  1.840623e+000  0.000000e+000
      vertex -4.381534e+000  2.408768e+000  0.000000e+000
      vertex  1.224647e-016  2.000000e+000  0.000000e+000
    endloop
  endfacet
  facet normal  0.000000e+000  0.000000e+000 -1.000000e+000
    outer loop
      vertex -4.648882e+000  1.840623e+000  0.000000e+000
      vertex  1.224647e-016  2.000000e+000  0.000000e+000
      vertex -3.901806e-001  1.961571e+000  0.000000e+000
    endloop
  endfacet
  facet normal  0.000000e+000  0.000000e+000 -1.000000e+000
    outer loop
      vertex -4.648882e+000  1.840623e+000  0.000000e+000
      vertex -3.901806e-001  1.961571e+000  0.000000e+000
      vertex -7.653669e-001  1.847759e+000  0.000000e+000
    endloop
  endfacet
  facet normal  0.000000e+000  0.000000e+000 -9.999999e-001
    outer loop
      vertex -4.648882e+000  1.840623e+000  0.000000e+000
      vertex -7.653669e-001  1.847759e+000  0.000000e+000
      vertex -1.111140e+000  1.662939e+000  0.000000e+000
    endloop
  endfacet
  facet normal  -0.000000e+000  0.000000e+000 -1.000000e+000
    outer loop
      vertex -4.648882e+000  1.840623e+000  0.000000e+000
      vertex -1.111140e+000  1.662939e+000  0.000000e+000
      vertex -4.842916e+000  1.243449e+000  0.000000e+000
    endloop
  endfacet
  facet normal  -0.000000e+000  0.000000e+000 -1.000000e+000
    outer loop
      vertex -4.842916e+000  1.243449e+000  0.000000e+000
      vertex -1.662939e+000  1.111140e+000  0.000000e+000
      vertex -4.960574e+000  6.266662e-001  0.000000e+000
    endloop
  endfacet
  facet normal  0.000000e+000  0.000000e+000 -1.000000e+000
    outer loop
      vertex -4.960574e+000  6.266662e-001  0.000000e+000
      vertex -1.662939e+000  1.111140e+000  0.000000e+000
      vertex -1.847759e+000  7.653669e-001  0.000000e+000
    endloop
  endfacet
  facet normal  0.000000e+000  0.000000e+000 -1.000000e+000
    outer loop
      vertex -4.960574e+000  6.266662e-001  0.000000e+000
      vertex -1.847759e+000  7.653669e-001  0.000000e+000
      vertex -5.000000e+000  6.123234e-016  0.000000e+000
    endloop
  endfacet
  facet normal  0.000000e+000  0.000000e+000 -1.000000e+000
    outer loop
      vertex -5.000000e+000  6.123234e-016  0.000000e+000
      vertex -1.847759e+000  7.653669e-001  0.000000e+000
      vertex -1.961571e+000  3.901806e-001  0.000000e+000
    endloop
  endfacet
  facet normal  0.000000e+000  0.000000e+000 -1.000000e+000
    outer loop
      vertex -5.000000e+000  6.123234e-016  0.000000e+000
      vertex -1.961571e+000  3.901806e-001  0.000000e+000
      vertex -2.000000e+000  2.449294e-016  0.000000e+000
    endloop
  endfacet
  facet normal  -0.000000e+000  0.000000e+000 -1.000000e+000
    outer loop
      vertex -5.000000e+000  6.123234e-016  0.000000e+000
      vertex -2.000000e+000  2.449294e-016  0.000000e+000
      vertex -4.960574e+000 -6.266662e-001  0.000000e+000
    endloop
  endfacet
  facet normal  0.000000e+000  0.000000e+000 -1.000000e+000
    outer loop
      vertex -4.960574e+000 -6.266662e-001  0.000000e+000
      vertex -2.000000e+000  2.449294e-016  0.000000e+000
      vertex -1.961571e+000 -3.901806e-001  0.000000e+000
    endloop
  endfacet
  facet normal  0.000000e+000  -0.000000e+000 -1.000000e+000
    outer loop
      vertex -4.960574e+000 -6.266662e-001  0.000000e+000
      vertex -1.961571e+000 -3.901806e-001  0.000000e+000
      vertex -1.847759e+000 -7.653669e-001  0.000000e+000
    endloop
  endfacet
  facet normal  -0.000000e+000  0.000000e+000 -1.000000e+000
    outer loop
      vertex -4.960574e+000 -6.266662e-001  0.000000e+000
      vertex -1.847759e+000 -7.653669e-001  0.000000e+000
      vertex -4.842916e+000 -1.243449e+000  0.000000e+000
    endloop
  endfacet
  facet normal  0.000000e+000  0.000000e+000 -1.000000e+000
    outer loop
      vertex -4.842916e+000 -1.243449e+000  0.000000e+000
      vertex -1.847759e+000 -7.653669e-001  0.000000e+000
      vertex -1.662939e+000 -1.111140e+000  0.000000e+000
    endloop
  endfacet
  facet normal  0.000000e+000  0.000000e+000 -1.000000e+000
    outer loop
      vertex -4.842916e+000 -1.243449e+000  0.000000e+000
      vertex -1.662939e+000 -1.111140e+000  0.000000e+000
      vertex -4.648882e+000 -1.840623e+000  0.000000e+000
    endloop
  endfacet
  facet normal  0.000000e+000  0.000000e+000 -1.000000e+000
    outer loop
      vertex -4.648882e+000 -1.840623e+000  0.000000e+000
      vertex -1.662939e+000 -1.111140e+000  0.000000e+000
      vertex -1.414214e+000 -1.414214e+000  0.000000e+000
    endloop
  endfacet
  facet normal  0.000000e+000  -0.000000e+000 -1.000000e+000
    outer loop
      vertex -4.648882e+000 -1.840623e+000  0.000000e+000
      vertex -1.414214e+000 -1.414214e+000  0.000000e+000
      vertex -1.111140e+000 -1.662939e+000  0.000000e+000
    endloop
  endfacet
  facet normal  0.000000e+000  0.000000e+000 -1.000000e+000
    outer loop
      vertex  4.842916e+000  1.243449e+000  0.000000e+000
      vertex  1.111140e+000  1.662939e+000  0.000000e+000
      vertex  4.648882e+000  1.840623e+000  0.000000e+000
    endloop
  endfacet
  facet normal  -0.000000e+000  0.000000e+000 -9.999999e-001
    outer loop
      vertex  4.648882e+000  1.840623e+000  0.000000e+000
      vertex  1.111140e+000  1.662939e+000  0.000000e+000
      vertex  7.653669e-001  1.847759e+000  0.000000e+000
    endloop
  endfacet
  facet normal  0.000000e+000  0.000000e+000 -1.000000e+000
    outer loop
      vertex  4.648882e+000  1.840623e+000  0.000000e+000
      vertex  7.653669e-001  1.847759e+000  0.000000e+000
      vertex  3.901806e-001  1.961571e+000  0.000000e+000
    endloop
  endfacet
  facet normal  0.000000e+000  0.000000e+000 -1.000000e+000
    outer loop
      vertex  1.662939e+000  1.111140e+000  0.000000e+000
      vertex  4.842916e+000  1.243449e+000  0.000000e+000
      vertex  1.847759e+000  7.653669e-001  0.000000e+000
    endloop
  endfacet
  facet normal  0.000000e+000  0.000000e+000 -1.000000e+000
    outer loop
      vertex  1.847759e+000  7.653669e-001  0.000000e+000
      vertex  4.842916e+000  1.243449e+000  0.000000e+000
      vertex  4.960574e+000  6.266662e-001  0.000000e+000
    endloop
  endfacet
  facet normal  -0.000000e+000  0.000000e+000 -1.000000e+000
    outer loop
      vertex  1.847759e+000  7.653669e-001  0.000000e+000
      vertex  4.960574e+000  6.266662e-001  0.000000e+000
      vertex  1.961571e+000  3.901806e-001  0.000000e+000
    endloop
  endfacet
  facet normal  0.000000e+000  0.000000e+000 -1.000000e+000
    outer loop
      vertex  1.961571e+000  3.901806e-001  0.000000e+000
      vertex  4.960574e+000  6.266662e-001  0.000000e+000
      vertex  5.000000e+000  0.000000e+000  0.000000e+000
    endloop
  endfacet
  facet normal  0.000000e+000  0.000000e+000 -1.000000e+000
    outer loop
      vertex  1.961571e+000  3.901806e-001  0.000000e+000
      vertex  5.000000e+000  0.000000e+000  0.000000e+000
      vertex  2.000000e+000  0.000000e+000  0.000000e+000
    endloop
  endfacet
  facet normal  -0.000000e+000  0.000000e+000 -1.000000e+000
    outer loop
      vertex  2.000000e+000  0.000000e+000  0.000000e+000
      vertex  5.000000e+000  0.000000e+000  0.000000e+000
      vertex  1.961571e+000 -3.901806e-001  0.000000e+000
    endloop
  endfacet
  facet normal  0.000000e+000  0.000000e+000 -1.000000e+000
    outer loop
      vertex  1.961571e+000 -3.901806e-001  0.000000e+000
      vertex  5.000000e+000  0.000000e+000  0.000000e+000
      vertex  4.960574e+000 -6.266662e-001  0.000000e+000
    endloop
  endfacet
  facet normal  -0.000000e+000  0.000000e+000 -1.000000e+000
    outer loop
      vertex  1.961571e+000 -3.901806e-001  0.000000e+000
      vertex  4.960574e+000 -6.266662e-001  0.000000e+000
      vertex  1.847759e+000 -7.653669e-001  0.000000e+000
    endloop
  endfacet
  facet normal  0.000000e+000  0.000000e+000 -1.000000e+000
    outer loop
      vertex  1.847759e+000 -7.653669e-001  0.000000e+000
      vertex  4.960574e+000 -6.266662e-001  0.000000e+000
      vertex  1.662939e+000 -1.111140e+000  0.000000e+000
    endloop
  endfacet
  facet normal  0.000000e+000  0.000000e+000 -1.000000e+000
    outer loop
      vertex  1.662939e+000 -1.111140e+000  0.000000e+000
      vertex  4.960574e+000 -6.266662e-001  0.000000e+000
      vertex  4.842916e+000 -1.243449e+000  0.000000e+000
    endloop
  endfacet
  facet normal  -0.000000e+000  0.000000e+000 -1.000000e+000
    outer loop
      vertex  1.662939e+000 -1.111140e+000  0.000000e+000
      vertex  4.842916e+000 -1.243449e+000  0.000000e+000
      vertex  1.414214e+000 -1.414214e+000  0.000000e+000
    endloop
  endfacet
  facet normal  0.000000e+000  0.000000e+000 -1.000000e+000
    outer loop
      vertex  1.414214e+000 -1.414214e+000  0.000000e+000
      vertex  4.842916e+000 -1.243449e+000  0.000000e+000
      vertex  4.648882e+000 -1.840623e+000  0.000000e+000
    endloop
  endfacet
  facet normal  0.000000e+000  0.000000e+000 -1.000000e+000
    outer loop
      vertex  1.414214e+000 -1.414214e+000  0.000000e+000
      vertex  4.648882e+000 -1.840623e+000  0.000000e+000
      vertex  1.111140e+000 -1.662939e+000  0.000000e+000
    endloop
  endfacet
  facet normal  0.000000e+000  0.000000e+000 -9.999999e-001
    outer loop
      vertex  4.381534e+000 -2.408768e+000  0.000000e+000
      vertex  3.901806e-001 -1.961571e+000  0.000000e+000
      vertex  4.648882e+000 -1.840623e+000  0.000000e+000
    endloop
  endfacet
  facet normal  0.000000e+000  0.000000e+000 -1.000000e+000
    outer loop
      vertex  4.648882e+000 -1.840623e+000  0.000000e+000
      vertex  3.901806e-001 -1.961571e+000  0.000000e+000
      vertex  7.653669e-001 -1.847759e+000  0.000000e+000
    endloop
  endfacet
  facet normal  0.000000e+000  0.000000e+000 -9.999999e-001
    outer loop
      vertex  4.648882e+000 -1.840623e+000  0.000000e+000
      vertex  7.653669e-001 -1.847759e+000  0.000000e+000
      vertex  1.111140e+000 -1.662939e+000  0.000000e+000
    endloop
  endfacet
  facet normal  9.951847e-001 -9.801729e-002  0.000000e+000
    outer loop
      vertex -2.000000e+000  2.449294e-016  4.000000e+000
      vertex -2.000000e+000  2.449294e-016  0.000000e+000
      vertex -1.961571e+000  3.901806e-001  4.000000e+000
    endloop
  endfacet
  facet normal  9.951847e-001 -9.801729e-002  0.000000e+000
    outer loop
      vertex -1.961571e+000  3.901806e-001  4.000000e+000
      vertex -2.000000e+000  2.449294e-016  0.000000e+000
      vertex -1.961571e+000  3.901806e-001  0.000000e+000
    endloop
  endfacet
  facet normal  9.569404e-001 -2.902847e-001  0.000000e+000
    outer loop
      vertex -1.961571e+000  3.901806e-001  4.000000e+000
      vertex -1.961571e+000  3.901806e-001  0.000000e+000
      vertex -1.847759e+000  7.653669e-001  4.000000e+000
    endloop
  endfacet
  facet normal  9.569404e-001 -2.902847e-001  0.000000e+000
    outer loop
      vertex -1.847759e+000  7.653669e-001  4.000000e+000
      vertex -1.961571e+000  3.901806e-001  0.000000e+000
      vertex -1.847759e+000  7.653669e-001  0.000000e+000
    endloop
  endfacet
  facet normal  8.819214e-001 -4.713967e-001  0.000000e+000
    outer loop
      vertex -1.847759e+000  7.653669e-001  4.000000e+000
      vertex -1.847759e+000  7.653669e-001  0.000000e+000
      vertex -1.662939e+000  1.111140e+000  4.000000e+000
    endloop
  endfacet
  facet normal  8.819214e-001 -4.713967e-001  0.000000e+000
    outer loop
      vertex -1.662939e+000  1.111140e+000  4.000000e+000
      vertex -1.847759e+000  7.653669e-001  0.000000e+000
      vertex -1.662939e+000  1.111140e+000  0.000000e+000
    endloop
  endfacet
  facet normal  7.730104e-001 -6.343933e-001  0.000000e+000
    outer loop
      vertex -1.662939e+000  1.111140e+000  4.000000e+000
      vertex -1.662939e+000  1.111140e+000  0.000000e+000
      vertex -1.414214e+000  1.414214e+000  4.000000e+000
    endloop
  endfacet
  facet normal  7.730104e-001 -6.343933e-001  0.000000e+000
    outer loop
      vertex -1.414214e+000  1.414214e+000  4.000000e+000
      vertex -1.662939e+000  1.111140e+000  0.000000e+000
      vertex -1.414214e+000  1.414214e+000  0.000000e+000
    endloop
  endfacet
  facet normal  6.343933e-001 -7.730104e-001  0.000000e+000
    outer loop
      vertex -1.414214e+000  1.414214e+000  4.000000e+000
      vertex -1.414214e+000  1.414214e+000  0.000000e+000
      vertex -1.111140e+000  1.662939e+000  4.000000e+000
    endloop
  endfacet
  facet normal  6.343933e-001 -7.730104e-001  0.000000e+000
    outer loop
      vertex -1.111140e+000  1.662939e+000  4.000000e+000
      vertex -1.414214e+000  1.414214e+000  0.000000e+000
      vertex -1.111140e+000  1.662939e+000  0.000000e+000
    endloop
  endfacet
  facet normal  4.713967e-001 -8.819214e-001  0.000000e+000
    outer loop
      vertex -1.111140e+000  1.662939e+000  4.000000e+000
      vertex -1.111140e+000  1.662939e+000  0.000000e+000
      vertex -7.653669e-001  1.847759e+000  4.000000e+000
    endloop
  endfacet
  facet normal  4.713967e-001 -8.819214e-001  0.000000e+000
    outer loop
      vertex -7.653669e-001  1.847759e+000  4.000000e+000
      vertex -1.111140e+000  1.662939e+000  0.000000e+000
      vertex -7.653669e-001  1.847759e+000  0.000000e+000
    endloop
  endfacet
  facet normal  2.902847e-001 -9.569404e-001  0.000000e+000
    outer loop
      vertex -7.653669e-001  1.847759e+000  4.000000e+000
      vertex -7.653669e-001  1.847759e+000  0.000000e+000
      vertex -3.901806e-001  1.961571e+000  4.000000e+000
    endloop
  endfacet
  facet normal  2.902847e-001 -9.569404e-001  0.000000e+000
    outer loop
      vertex -3.901806e-001  1.961571e+000  4.000000e+000
      vertex -7.653669e-001  1.847759e+000  0.000000e+000
      vertex -3.901806e-001  1.961571e+000  0.000000e+000
    endloop
  endfacet
  facet normal  9.801729e-002 -9.951847e-001  0.000000e+000
    outer loop
      vertex -3.901806e-001  1.961571e+000  4.000000e+000
      vertex -3.901806e-001  1.961571e+000  0.000000e+000
      vertex  1.224647e-016  2.000000e+000  4.000000e+000
    endloop
  endfacet
  facet normal  9.801729e-002 -9.951847e-001  0.000000e+000
    outer loop
      vertex  1.224647e-016  2.000000e+000  4.000000e+000
      vertex -3.901806e-001  1.961571e+000  0.000000e+000
      vertex  1.224647e-016  2.000000e+000  0.000000e+000
    endloop
  endfacet
  facet normal -9.801729e-002 -9.951847e-001  0.000000e+000
    outer loop
      vertex  1.224647e-016  2.000000e+000  4.000000e+000
      vertex  1.224647e-016  2.000000e+000  0.000000e+000
      vertex  3.901806e-001  1.961571e+000  4.000000e+000
    endloop
  endfacet
  facet normal -9.801729e-002 -9.951847e-001  -0.000000e+000
    outer loop
      vertex  3.901806e-001  1.961571e+000  4.000000e+000
      vertex  1.224647e-016  2.000000e+000  0.000000e+000
      vertex  3.901806e-001  1.961571e+000  0.000000e+000
    endloop
  endfacet
  facet normal -2.902847e-001 -9.569404e-001  0.000000e+000
    outer loop
      vertex  3.901806e-001  1.961571e+000  4.000000e+000
      vertex  3.901806e-001  1.961571e+000  0.000000e+000
      vertex  7.653669e-001  1.847759e+000  4.000000e+000
    endloop
  endfacet
  facet normal -2.902847e-001 -9.569404e-001  -0.000000e+000
    outer loop
      vertex  7.653669e-001  1.847759e+000  4.000000e+000
      vertex  3.901806e-001  1.961571e+000  0.000000e+000
      vertex  7.653669e-001  1.847759e+000  0.000000e+000
    endloop
  endfacet
  facet normal -4.713967e-001 -8.819214e-001  0.000000e+000
    outer loop
      vertex  7.653669e-001  1.847759e+000  4.000000e+000
      vertex  7.653669e-001  1.847759e+000  0.000000e+000
      vertex  1.111140e+000  1.662939e+000  4.000000e+000
    endloop
  endfacet
  facet normal -4.713967e-001 -8.819214e-001  -0.000000e+000
    outer loop
      vertex  1.111140e+000  1.662939e+000  4.000000e+000
      vertex  7.653669e-001  1.847759e+000  0.000000e+000
      vertex  1.111140e+000  1.662939e+000  0.000000e+000
    endloop
  endfacet
  facet normal -6.343933e-001 -7.730104e-001  0.000000e+000
    outer loop
      vertex  1.111140e+000  1.662939e+000  4.000000e+000
      vertex  1.111140e+000  1.662939e+000  0.000000e+000
      vertex  1.414214e+000  1.414214e+000  4.000000e+000
    endloop
  endfacet
  facet normal -6.343933e-001 -7.730104e-001  -0.000000e+000
    outer loop
      vertex  1.414214e+000  1.414214e+000  4.000000e+000
      vertex  1.111140e+000  1.662939e+000  0.000000e+000
      vertex  1.414214e+000  1.414214e+000  0.000000e+000
    endloop
  endfacet
  facet normal -7.730104e-001 -6.343933e-001  0.000000e+000
    outer loop
      vertex  1.414214e+000  1.414214e+000  4.000000e+000
      vertex  1.414214e+000  1.414214e+000  0.000000e+000
      vertex  1.662939e+000  1.111140e+000  4.000000e+000
    endloop
  endfacet
  facet normal -7.730104e-001 -6.343933e-001  -0.000000e+000
    outer loop
      vertex  1.662939e+000  1.111140e+000  4.000000e+000
      vertex  1.414214e+000  1.414214e+000  0.000000e+000
      vertex  1.662939e+000  1.111140e+000  0.000000e+000
    endloop
  endfacet
  facet normal -8.819214e-001 -4.713967e-001  0.000000e+000
    outer loop
      vertex  1.662939e+000  1.111140e+000  4.000000e+000
      vertex  1.662939e+000  1.111140e+000  0.000000e+000
      vertex  1.847759e+000  7.653669e-001  4.000000e+000
    endloop
  endfacet
  facet normal -8.819214e-001 -4.713967e-001  -0.000000e+000
    outer loop
      vertex  1.847759e+000  7.653669e-001  4.000000e+000
      vertex  1.662939e+000  1.111140e+000  0.000000e+000
      vertex  1.847759e+000  7.653669e-001  0.000000e+000
    endloop
  endfacet
  facet normal -9.569404e-001 -2.902847e-001  0.000000e+000
    outer loop
      vertex  1.847759e+000  7.653669e-001  4.000000e+000
      vertex  1.847759e+000  7.653669e-001  0.000000e+000
      vertex  1.961571e+000  3.901806e-001  4.000000e+000
    endloop
  endfacet
  facet normal -9.569404e-001 -2.902847e-001  -0.000000e+000
    outer loop
      vertex  1.961571e+000  3.901806e-001  4.000000e+000
      vertex  1.847759e+000  7.653669e-001  0.000000e+000
      vertex  1.961571e+000  3.901806e-001  0.000000e+000
    endloop
  endfacet
  facet normal -9.951847e-001 -9.801729e-002  0.000000e+000
    outer loop
      vertex  1.961571e+000  3.901806e-001  4.000000e+000
      vertex  1.961571e+000  3.901806e-001  0.000000e+000
      vertex  2.000000e+000  0.000000e+000  4.000000e+000
    endloop
  endfacet
  facet normal -9.951847e-001 -9.801729e-002  -0.000000e+000
    outer loop
      vertex  2.000000e+000  0.000000e+000  4.000000e+000
      vertex  1.961571e+000  3.901806e-001  0.000000e+000
      vertex  2.000000e+000  0.000000e+000  0.000000e+000
    endloop
  endfacet
  facet normal -9.951847e-001  9.801729e-002  0.000000e+000
    outer loop
      vertex  2.000000e+000  0.000000e+000  4.000000e+000
      vertex  2.000000e+000  0.000000e+000  0.000000e+000
      vertex  1.961571e+000 -3.901806e-001  4.000000e+000
    endloop
  endfacet
  facet normal -9.951847e-001  9.801729e-002  0.000000e+000
    outer loop
      vertex  1.961571e+000 -3.901806e-001  4.000000e+000
      vertex  2.000000e+000  0.000000e+000  0.000000e+000
      vertex  1.961571e+000 -3.901806e-001  0.000000e+000
    endloop
  endfacet
  facet normal -9.569404e-001  2.902847e-001  0.000000e+000
    outer loop
      vertex  1.961571e+000 -3.901806e-001  4.000000e+000
      vertex  1.961571e+000 -3.901806e-001  0.000000e+000
      vertex  1.847759e+000 -7.653669e-001  4.000000e+000
    endloop
  endfacet
  facet normal -9.569404e-001  2.902847e-001  0.000000e+000
    outer loop
      vertex  1.847759e+000 -7.653669e-001  4.000000e+000
      vertex  1.961571e+000 -3.901806e-001  0.000000e+000
      vertex  1.847759e+000 -7.653669e-001  0.000000e+000
    endloop
  endfacet
  facet normal -8.819214e-001  4.713967e-001  0.000000e+000
    outer loop
      vertex  1.847759e+000 -7.653669e-001  4.000000e+000
      vertex  1.847759e+000 -7.653669e-001  0.000000e+000
      vertex  1.662939e+000 -1.111140e+000  4.000000e+000
    endloop
  endfacet
  facet normal -8.819214e-001  4.713967e-001  0.000000e+000
    outer loop
      vertex  1.662939e+000 -1.111140e+000  4.000000e+000
      vertex  1.847759e+000 -7.653669e-001  0.000000e+000
      vertex  1.662939e+000 -1.111140e+000  0.000000e+000
    endloop
  endfacet
  facet normal -7.730104e-001  6.343933e-001  0.000000e+000
    outer loop
      vertex  1.662939e+000 -1.111140e+000  4.000000e+000
      vertex  1.662939e+000 -1.111140e+000  0.000000e+000
      vertex  1.414214e+000 -1.414214e+000  4.000000e+000
    endloop
  endfacet
  facet normal -7.730104e-001  6.343933e-001  0.000000e+000
    outer loop
      vertex  1.414214e+000 -1.414214e+000  4.000000e+000
      vertex  1.662939e+000 -1.111140e+000  0.000000e+000
      vertex  1.414214e+000 -1.414214e+000  0.000000e+000
    endloop
  endfacet
  facet normal -6.343933e-001  7.730104e-001  0.000000e+000
    outer loop
      vertex  1.414214e+000 -1.414214e+000  4.000000e+000
      vertex  1.414214e+000 -1.414214e+000  0.000000e+000
      vertex  1.111140e+000 -1.662939e+000  4.000000e+000
    endloop
  endfacet
  facet normal -6.343933e-001  7.730104e-001  0.000000e+000
    outer loop
      vertex  1.111140e+000 -1.662939e+000  4.000000e+000
      vertex  1.414214e+000 -1.414214e+000  0.000000e+000
      vertex  1.111140e+000 -1.662939e+000  0.000000e+000
    endloop
  endfacet
  facet normal -4.713967e-001  8.819214e-001  0.000000e+000
    outer loop
      vertex  1.111140e+000 -1.662939e+000  4.000000e+000
      vertex  1.111140e+000 -1.662939e+000  0.000000e+000
      vertex  7.653669e-001 -1.847759e+000  4.000000e+000
    endloop
  endfacet
  facet normal -4.713967e-001  8.819214e-001  0.000000e+000
    outer loop
      vertex  7.653669e-001 -1.847759e+000  4.000000e+000
      vertex  1.111140e+000 -1.662939e+000  0.000000e+000
      vertex  7.653669e-001 -1.847759e+000  0.000000e+000
    endloop
  endfacet
  facet normal -2.902847e-001  9.569404e-001  0.000000e+000
    outer loop
      vertex  7.653669e-001 -1.847759e+000  4.000000e+000
      vertex  7.653669e-001 -1.847759e+000  0.000000e+000
      vertex  3.901806e-001 -1.961571e+000  4.000000e+000
    endloop
  endfacet
  facet normal -2.902847e-001  9.569404e-001  0.000000e+000
    outer loop
      vertex  3.901806e-001 -1.961571e+000  4.000000e+000
      vertex  7.653669e-001 -1.847759e+000  0.000000e+000
      vertex  3.901806e-001 -1.961571e+000  0.000000e+000
    endloop
  endfacet
  facet normal -9.801729e-002  9.951847e-001  0.000000e+000
    outer loop
      vertex  3.901806e-001 -1.961571e+000  4.000000e+000
      vertex  3.901806e-001 -1.961571e+000  0.000000e+000
      vertex -3.673940e-016 -2.000000e+000  4.000000e+000
    endloop
  endfacet
  facet normal -9.801729e-002  9.951847e-001  0.000000e+000
    outer loop
      vertex -3.673940e-016 -2.000000e+000  4.000000e+000
      vertex  3.901806e-001 -1.961571e+000  0.000000e+000
      vertex -3.673940e-016 -2.000000e+000  0.000000e+000
    endloop
  endfacet
  facet normal  9.801729e-002  9.951847e-001  -0.000000e+000
    outer loop
      vertex -3.673940e-016 -2.000000e+000  4.000000e+000
      vertex -3.673940e-016 -2.000000e+000  0.000000e+000
      vertex -3.901806e-001 -1.961571e+000  4.000000e+000
    endloop
  endfacet
  facet normal  9.801729e-002  9.951847e-001  0.000000e+000
    outer loop
      vertex -3.901806e-001 -1.961571e+000  4.000000e+000
      vertex -3.673940e-016 -2.000000e+000  0.000000e+000
      vertex -3.901806e-001 -1.961571e+000  0.000000e+000
    endloop
  endfacet
  facet normal  2.902847e-001  9.569404e-001  -0.000000e+000
    outer loop
      vertex -3.901806e-001 -1.961571e+000  4.000000e+000
      vertex -3.901806e-001 -1.961571e+000  0.000000e+000
      vertex -7.653669e-001 -1.847759e+000  4.000000e+000
    endloop
  endfacet
  facet normal  2.902847e-001  9.569404e-001  0.000000e+000
    outer loop
      vertex -7.653669e-001 -1.847759e+000  4.000000e+000
      vertex -3.901806e-001 -1.961571e+000  0.000000e+000
      vertex -7.653669e-001 -1.847759e+000  0.000000e+000
    endloop
  endfacet
  facet normal  4.713967e-001  8.819214e-001  -0.000000e+000
    outer loop
      vertex -7.653669e-001 -1.847759e+000  4.000000e+000
      vertex -7.653669e-001 -1.847759e+000  0.000000e+000
      vertex -1.111140e+000 -1.662939e+000  4.000000e+000
    endloop
  endfacet
  facet normal  4.713967e-001  8.819214e-001  0.000000e+000
    outer loop
      vertex -1.111140e+000 -1.662939e+000  4.000000e+000
      vertex -7.653669e-001 -1.847759e+000  0.000000e+000
      vertex -1.111140e+000 -1.662939e+000  0.000000e+000
    endloop
  endfacet
  facet normal  6.343933e-001  7.730104e-001  -0.000000e+000
    outer loop
      vertex -1.111140e+000 -1.662939e+000  4.000000e+000
      vertex -1.111140e+000 -1.662939e+000  0.000000e+000
      vertex -1.414214e+000 -1.414214e+000  4.000000e+000
    endloop
  endfacet
  facet normal  6.343933e-001  7.730104e-001  0.000000e+000
    outer loop
      vertex -1.414214e+000 -1.414214e+000  4.000000e+000
      vertex -1.111140e+000 -1.662939e+000  0.000000e+000
      vertex -1.414214e+000 -1.414214e+000  0.000000e+000
    endloop
  endfacet
  facet normal  7.730104e-001  6.343933e-001  -0.000000e+000
    outer loop
      vertex -1.414214e+000 -1.414214e+000  4.000000e+000
      vertex -1.414214e+000 -1.414214e+000  0.000000e+000
      vertex -1.662939e+000 -1.111140e+000  4.000000e+000
    endloop
  endfacet
  facet normal  7.730104e-001  6.343933e-001  0.000000e+000
    outer loop
      vertex -1.662939e+000 -1.111140e+000  4.000000e+000
      vertex -1.414214e+000 -1.414214e+000  0.000000e+000
      vertex -1.662939e+000 -1.111140e+000  0.000000e+000
    endloop
  endfacet
  facet normal  8.819214e-001  4.713967e-001  -0.000000e+000
    outer loop
      vertex -1.662939e+000 -1.111140e+000  4.000000e+000
      vertex -1.662939e+000 -1.111140e+000  0.000000e+000
      vertex -1.847759e+000 -7.653669e-001  4.000000e+000
    endloop
  endfacet
  facet normal  8.819214e-001  4.713967e-001  0.000000e+000
    outer loop
      vertex -1.847759e+000 -7.653669e-001  4.000000e+000
      vertex -1.662939e+000 -1.111140e+000  0.000000e+000
      vertex -1.847759e+000 -7.653669e-001  0.000000e+000
    endloop
  endfacet
  facet normal  9.569404e-001  2.902847e-001  -0.000000e+000
    outer loop
      vertex -1.847759e+000 -7.653669e-001  4.000000e+000
      vertex -1.847759e+000 -7.653669e-001  0.000000e+000
      vertex -1.961571e+000 -3.901806e-001  4.000000e+000
    endloop
  endfacet
  facet normal  9.569404e-001  2.902847e-001  0.000000e+000
    outer loop
      vertex -1.961571e+000 -3.901806e-001  4.000000e+000
      vertex -1.847759e+000 -7.653669e-001  0.000000e+000
      vertex -1.961571e+000 -3.901806e-001  0.000000e+000
    endloop
  endfacet
  facet normal  9.951847e-001  9.801729e-002  -0.000000e+000
    outer loop
      vertex -1.961571e+000 -3.901806e-001  4.000000e+000
      vertex -1.961571e+000 -3.901806e-001  0.000000e+000
      vertex -2.000000e+000  2.449294e-016  4.000000e+000
    endloop
  endfacet
  facet normal  9.951847e-001  9.801729e-002  0.000000e+000
    outer loop
      vertex -2.000000e+000  2.449294e-016  4.000000e+000
      vertex -1.961571e+000 -3.901806e-001  0.000000e+000
      vertex -2.000000e+000  2.449294e-016  0.000000e+000
    endloop
  endfacet
  facet normal  9.980268e-001 -6.279025e-002  0.000000e+000
    outer loop
      vertex  5.000000e+000  0.000000e+000  0.000000e+000
      vertex  5.000000e+000  0.000000e+000  4.000000e+000
      vertex  4.960574e+000 -6.266662e-001  0.000000e+000
    endloop
  endfacet
  facet normal  9.980268e-001 -6.279025e-002  0.000000e+000
    outer loop
      vertex  4.960574e+000 -6.266662e-001  0.000000e+000
      vertex  5.000000e+000  0.000000e+000  4.000000e+000
      vertex  4.960574e+000 -6.266662e-001  4.000000e+000
    endloop
  endfacet
  facet normal  9.822872e-001 -1.873813e-001  0.000000e+000
    outer loop
      vertex  4.960574e+000 -6.266662e-001  0.000000e+000
      vertex  4.960574e+000 -6.266662e-001  4.000000e+000
      vertex  4.842916e+000 -1.243449e+000  0.000000e+000
    endloop
  endfacet
  facet normal  9.822872e-001 -1.873813e-001  0.000000e+000
    outer loop
      vertex  4.842916e+000 -1.243449e+000  0.000000e+000
      vertex  4.960574e+000 -6.266662e-001  4.000000e+000
      vertex  4.842916e+000 -1.243449e+000  4.000000e+000
    endloop
  endfacet
  facet normal  9.510565e-001 -3.090174e-001  0.000000e+000
    outer loop
      vertex  4.842916e+000 -1.243449e+000  0.000000e+000
      vertex  4.842916e+000 -1.243449e+000  4.000000e+000
      vertex  4.648882e+000 -1.840623e+000  0.000000e+000
    endloop
  endfacet
  facet normal  9.510565e-001 -3.090174e-001  0.000000e+000
    outer loop
      vertex  4.648882e+000 -1.840623e+000  0.000000e+000
      vertex  4.842916e+000 -1.243449e+000  4.000000e+000
      vertex  4.648882e+000 -1.840623e+000  4.000000e+000
    endloop
  endfacet
  facet normal  9.048272e-001 -4.257789e-001  0.000000e+000
    outer loop
      vertex  4.648882e+000 -1.840623e+000  0.000000e+000
      vertex  4.648882e+000 -1.840623e+000  4.000000e+000
      vertex  4.381534e+000 -2.408768e+000  0.000000e+000
    endloop
  endfacet
  facet normal  9.048272e-001 -4.257789e-001  0.000000e+000
    outer loop
      vertex  4.381534e+000 -2.408768e+000  0.000000e+000
      vertex  4.648882e+000 -1.840623e+000  4.000000e+000
      vertex  4.381534e+000 -2.408768e+000  4.000000e+000
    endloop
  endfacet
  facet normal  8.443277e-001 -5.358272e-001  0.000000e+000
    outer loop
      vertex  4.381534e+000 -2.408768e+000  0.000000e+000
      vertex  4.381534e+000 -2.408768e+000  4.000000e+000
      vertex  4.045085e+000 -2.938926e+000  0.000000e+000
    endloop
  endfacet
  facet normal  8.443277e-001 -5.358272e-001  0.000000e+000
    outer loop
      vertex  4.045085e+000 -2.938926e+000  0.000000e+000
      vertex  4.381534e+000 -2.408768e+000  4.000000e+000
      vertex  4.045085e+000 -2.938926e+000  4.000000e+000
    endloop
  endfacet
  facet normal  7.705132e-001 -6.374241e-001  0.000000e+000
    outer loop
      vertex  4.045085e+000 -2.938926e+000  0.000000e+000
      vertex  4.045085e+000 -2.938926e+000  4.000000e+000
      vertex  3.644843e+000 -3.422735e+000  0.000000e+000
    endloop
  endfacet
  facet normal  7.705132e-001 -6.374241e-001  0.000000e+000
    outer loop
      vertex  3.644843e+000 -3.422735e+000  0.000000e+000
      vertex  4.045085e+000 -2.938926e+000  4.000000e+000
      vertex  3.644843e+000 -3.422735e+000  4.000000e+000
    endloop
  endfacet
  facet normal  6.845472e-001 -7.289685e-001  0.000000e+000
    outer loop
      vertex  3.644843e+000 -3.422735e+000  0.000000e+000
      vertex  3.644843e+000 -3.422735e+000  4.000000e+000
      vertex  3.187120e+000 -3.852566e+000  0.000000e+000
    endloop
  endfacet
  facet normal  6.845472e-001 -7.289685e-001  0.000000e+000
    outer loop
      vertex  3.187120e+000 -3.852566e+000  0.000000e+000
      vertex  3.644843e+000 -3.422735e+000  4.000000e+000
      vertex  3.187120e+000 -3.852566e+000  4.000000e+000
    endloop
  endfacet
  facet normal  5.877852e-001 -8.090171e-001  0.000000e+000
    outer loop
      vertex  3.187120e+000 -3.852566e+000  0.000000e+000
      vertex  3.187120e+000 -3.852566e+000  4.000000e+000
      vertex  2.679134e+000 -4.221640e+000  0.000000e+000
    endloop
  endfacet
  facet normal  5.877852e-001 -8.090171e-001  0.000000e+000
    outer loop
      vertex  2.679134e+000 -4.221640e+000  0.000000e+000
      vertex  3.187120e+000 -3.852566e+000  4.000000e+000
      vertex  2.679134e+000 -4.221640e+000  4.000000e+000
    endloop
  endfacet
  facet normal  4.817535e-001 -8.763067e-001  0.000000e+000
    outer loop
      vertex  2.679134e+000 -4.221640e+000  0.000000e+000
      vertex  2.679134e+000 -4.221640e+000  4.000000e+000
      vertex  2.128896e+000 -4.524135e+000  0.000000e+000
    endloop
  endfacet
  facet normal  4.817535e-001 -8.763067e-001  0.000000e+000
    outer loop
      vertex  2.128896e+000 -4.524135e+000  0.000000e+000
      vertex  2.679134e+000 -4.221640e+000  4.000000e+000
      vertex  2.128896e+000 -4.524135e+000  4.000000e+000
    endloop
  endfacet
  facet normal  3.681245e-001 -9.297765e-001  0.000000e+000
    outer loop
      vertex  2.128896e+000 -4.524135e+000  0.000000e+000
      vertex  2.128896e+000 -4.524135e+000  4.000000e+000
      vertex  1.545085e+000 -4.755282e+000  0.000000e+000
    endloop
  endfacet
  facet normal  3.681245e-001 -9.297765e-001  0.000000e+000
    outer loop
      vertex  1.545085e+000 -4.755282e+000  0.000000e+000
      vertex  2.128896e+000 -4.524135e+000  4.000000e+000
      vertex  1.545085e+000 -4.755282e+000  4.000000e+000
    endloop
  endfacet
  facet normal  2.486899e-001 -9.685831e-001  0.000000e+000
    outer loop
      vertex  1.545085e+000 -4.755282e+000  0.000000e+000
      vertex  1.545085e+000 -4.755282e+000  4.000000e+000
      vertex  9.369066e-001 -4.911436e+000  0.000000e+000
    endloop
  endfacet
  facet normal  2.486899e-001 -9.685831e-001  0.000000e+000
    outer loop
      vertex  9.369066e-001 -4.911436e+000  0.000000e+000
      vertex  1.545085e+000 -4.755282e+000  4.000000e+000
      vertex  9.369066e-001 -4.911436e+000  4.000000e+000
    endloop
  endfacet
  facet normal  1.253337e-001 -9.921147e-001  0.000000e+000
    outer loop
      vertex  9.369066e-001 -4.911436e+000  0.000000e+000
      vertex  9.369066e-001 -4.911436e+000  4.000000e+000
      vertex  3.139526e-001 -4.990134e+000  0.000000e+000
    endloop
  endfacet
  facet normal  1.253337e-001 -9.921147e-001  0.000000e+000
    outer loop
      vertex  3.139526e-001 -4.990134e+000  0.000000e+000
      vertex  9.369066e-001 -4.911436e+000  4.000000e+000
      vertex  3.139526e-001 -4.990134e+000  4.000000e+000
    endloop
  endfacet
  facet normal  0.000000e+000 -1.000000e+000  -0.000000e+000
    outer loop
      vertex  3.139526e-001 -4.990134e+000  0.000000e+000
      vertex  3.139526e-001 -4.990134e+000  4.000000e+000
      vertex -3.139526e-001 -4.990134e+000  0.000000e+000
    endloop
  endfacet
  facet normal  0.000000e+000 -1.000000e+000  0.000000e+000
    outer loop
      vertex -3.139526e-001 -4.990134e+000  0.000000e+000
      vertex  3.139526e-001 -4.990134e+000  4.000000e+000
      vertex -3.139526e-001 -4.990134e+000  4.000000e+000
    endloop
  endfacet
  facet normal -1.253337e-001 -9.921147e-001  -0.000000e+000
    outer loop
      vertex -3.139526e-001 -4.990134e+000  0.000000e+000
      vertex -3.139526e-001 -4.990134e+000  4.000000e+000
      vertex -9.369066e-001 -4.911436e+000  0.000000e+000
    endloop
  endfacet
  facet normal -1.253337e-001 -9.921147e-001  0.000000e+000
    outer loop
      vertex -9.369066e-001 -4.911436e+000  0.000000e+000
      vertex -3.139526e-001 -4.990134e+000  4.000000e+000
      vertex -9.369066e-001 -4.911436e+000  4.000000e+000
    endloop
  endfacet
  facet normal -2.486899e-001 -9.685831e-001  -0.000000e+000
    outer loop
      vertex -9.369066e-001 -4.911436e+000  0.000000e+000
      vertex -9.369066e-001 -4.911436e+000  4.000000e+000
      vertex -1.545085e+000 -4.755282e+000  0.000000e+000
    endloop
  endfacet
  facet normal -2.486899e-001 -9.685831e-001  0.000000e+000
    outer loop
      vertex -1.545085e+000 -4.755282e+000  0.000000e+000
      vertex -9.369066e-001 -4.911436e+000  4.000000e+000
      vertex -1.545085e+000 -4.755282e+000  4.000000e+000
    endloop
  endfacet
  facet normal -3.681245e-001 -9.297765e-001  -0.000000e+000
    outer loop
      vertex -1.545085e+000 -4.755282e+000  0.000000e+000
      vertex -1.545085e+000 -4.755282e+000  4.000000e+000
      vertex -2.128896e+000 -4.524135e+000  0.000000e+000
    endloop
  endfacet
  facet normal -3.681245e-001 -9.297765e-001  0.000000e+000
    outer loop
      vertex -2.128896e+000 -4.524135e+000  0.000000e+000
      vertex -1.545085e+000 -4.755282e+000  4.000000e+000
      vertex -2.128896e+000 -4.524135e+000  4.000000e+000
    endloop
  endfacet
  facet normal -4.817535e-001 -8.763067e-001  -0.000000e+000
    outer loop
      vertex -2.128896e+000 -4.524135e+000  0.000000e+000
      vertex -2.128896e+000 -4.524135e+000  4.000000e+000
      vertex -2.679134e+000 -4.221640e+000  0.000000e+000
    endloop
  endfacet
  facet normal -4.817535e-001 -8.763067e-001  0.000000e+000
    outer loop
      vertex -2.679134e+000 -4.221640e+000  0.000000e+000
      vertex -2.128896e+000 -4.524135e+000  4.000000e+000
      vertex -2.679134e+000 -4.221640e+000  4.000000e+000
    endloop
  endfacet
  facet normal -5.877852e-001 -8.090171e-001  -0.000000e+000
    outer loop
      vertex -2.679134e+000 -4.221640e+000  0.000000e+000
      vertex -2.679134e+000 -4.221640e+000  4.000000e+000
      vertex -3.187120e+000 -3.852566e+000  0.000000e+000
    endloop
  endfacet
  facet normal -5.877852e-001 -8.090171e-001  0.000000e+000
    outer loop
      vertex -3.187120e+000 -3.852566e+000  0.000000e+000
      vertex -2.679134e+000 -4.221640e+000  4.000000e+000
      vertex -3.187120e+000 -3.852566e+000  4.000000e+000
    endloop
  endfacet
  facet normal -6.845472e-001 -7.289685e-001  -0.000000e+000
    outer loop
      vertex -3.187120e+000 -3.852566e+000  0.000000e+000
      vertex -3.187120e+000 -3.852566e+000  4.000000e+000
      vertex -3.644843e+000 -3.422735e+000  0.000000e+000
    endloop
  endfacet
  facet normal -6.845472e-001 -7.289685e-001  0.000000e+000
    outer loop
      vertex -3.644843e+000 -3.422735e+000  0.000000e+000
      vertex -3.187120e+000 -3.852566e+000  4.000000e+000
      vertex -3.644843e+000 -3.422735e+000  4.000000e+000
    endloop
  endfacet
  facet normal -7.705132e-001 -6.374241e-001  -0.000000e+000
    outer loop
      vertex -3.644843e+000 -3.422735e+000  0.000000e+000
      vertex -3.644843e+000 -3.422735e+000  4.000000e+000
      vertex -4.045085e+000 -2.938926e+000  0.000000e+000
    endloop
  endfacet
  facet normal -7.705132e-001 -6.374241e-001  0.000000e+000
    outer loop
      vertex -4.045085e+000 -2.938926e+000  0.000000e+000
      vertex -3.644843e+000 -3.422735e+000  4.000000e+000
      vertex -4.045085e+000 -2.938926e+000  4.000000e+000
    endloop
  endfacet
  facet normal -8.443277e-001 -5.358272e-001  -0.000000e+000
    outer loop
      vertex -4.045085e+000 -2.938926e+000  0.000000e+000
      vertex -4.045085e+000 -2.938926e+000  4.000000e+000
      vertex -4.381534e+000 -2.408768e+000  0.000000e+000
    endloop
  endfacet
  facet normal -8.443277e-001 -5.358272e-001  0.000000e+000
    outer loop
      vertex -4.381534e+000 -2.408768e+000  0.000000e+000
      vertex -4.045085e+000 -2.938926e+000  4.000000e+000
      vertex -4.381534e+000 -2.408768e+000  4.000000e+000
    endloop
  endfacet
  facet normal -9.048272e-001 -4.257789e-001  -0.000000e+000
    outer loop
      vertex -4.381534e+000 -2.408768e+000  0.000000e+000
      vertex -4.381534e+000 -2.408768e+000  4.000000e+000
      vertex -4.648882e+000 -1.840623e+000  0.000000e+000
    endloop
  endfacet
  facet normal -9.048272e-001 -4.257789e-001  0.000000e+000
    outer loop
      vertex -4.648882e+000 -1.840623e+000  0.000000e+000
      vertex -4.381534e+000 -2.408768e+000  4.000000e+000
      vertex -4.648882e+000 -1.840623e+000  4.000000e+000
    endloop
  endfacet
  facet normal -9.510565e-001 -3.090174e-001  -0.000000e+000
    outer loop
      vertex -4.648882e+000 -1.840623e+000  0.000000e+000
      vertex -4.648882e+000 -1.840623e+000  4.000000e+000
      vertex -4.842916e+000 -1.243449e+000  0.000000e+000
    endloop
  endfacet
  facet normal -9.510565e-001 -3.090174e-001  0.000000e+000
    outer loop
      vertex -4.842916e+000 -1.243449e+000  0.000000e+000
      vertex -4.648882e+000 -1.840623e+000  4.000000e+000
      vertex -4.842916e+000 -1.243449e+000  4.000000e+000
    endloop
  endfacet
  facet normal -9.822872e-001 -1.873813e-001  -0.000000e+000
    outer loop
      vertex -4.842916e+000 -1.243449e+000  0.000000e+000
      vertex -4.842916e+000 -1.243449e+000  4.000000e+000
      vertex -4.960574e+000 -6.266662e-001  0.000000e+000
    endloop
  endfacet
  facet normal -9.822872e-001 -1.873813e-001  0.000000e+000
    outer loop
      vertex -4.960574e+000 -6.266662e-001  0.000000e+000
      vertex -4.842916e+000 -1.243449e+000  4.000000e+000
      vertex -4.960574e+000 -6.266662e-001  4.000000e+000
    endloop
  endfacet
  facet normal -9.980268e-001 -6.279025e-002  -0.000000e+000
    outer loop
      vertex -4.960574e+000 -6.266662e-001  0.000000e+000
      vertex -4.960574e+000 -6.266662e-001  4.000000e+000
      vertex -5.000000e+000  6.123234e-016  0.000000e+000
    endloop
  endfacet
  facet normal -9.980268e-001 -6.279025e-002  0.000000e+000
    outer loop
      vertex -5.000000e+000  6.123234e-016  0.000000e+000
      vertex -4.960574e+000 -6.266662e-001  4.000000e+000
      vertex -5.000000e+000  6.123234e-016  4.000000e+000
    endloop
  endfacet
  facet normal -9.980268e-001  6.279025e-002  0.000000e+000
    outer loop
      vertex -5.000000e+000  6.123234e-016  0.000000e+000
      vertex -5.000000e+000  6.123234e-016  4.000000e+000
      vertex -4.960574e+000  6.266662e-001  0.000000e+000
    endloop
  endfacet
  facet normal -9.980268e-001  6.279025e-002  0.000000e+000
    outer loop
      vertex -4.960574e+000  6.266662e-001  0.000000e+000
      vertex -5.000000e+000  6.123234e-016  4.000000e+000
      vertex -4.960574e+000  6.266662e-001  4.000000e+000
    endloop
  endfacet
  facet normal -9.822872e-001  1.873813e-001  0.000000e+000
    outer loop
      vertex -4.960574e+000  6.266662e-001  0.000000e+000
      vertex -4.960574e+000  6.266662e-001  4.000000e+000
      vertex -4.842916e+000  1.243449e+000  0.000000e+000
    endloop
  endfacet
  facet normal -9.822872e-001  1.873813e-001  0.000000e+000
    outer loop
      vertex -4.842916e+000  1.243449e+000  0.000000e+000
      vertex -4.960574e+000  6.266662e-001  4.000000e+000
      vertex -4.842916e+000  1.243449e+000  4.000000e+000
    endloop
  endfacet
  facet normal -9.510565e-001  3.090174e-001  0.000000e+000
    outer loop
      vertex -4.842916e+000  1.243449e+000  0.000000e+000
      vertex -4.842916e+000  1.243449e+000  4.000000e+000
      vertex -4.648882e+000  1.840623e+000  0.000000e+000
    endloop
  endfacet
  facet normal -9.510565e-001  3.090174e-001  0.000000e+000
    outer loop
      vertex -4.648882e+000  1.840623e+000  0.000000e+000
      vertex -4.842916e+000  1.243449e+000  4.000000e+000
      vertex -4.648882e+000  1.840623e+000  4.000000e+000
    endloop
  endfacet
  facet normal -9.048272e-001  4.257789e-001  0.000000e+000
    outer loop
      vertex -4.648882e+000  1.840623e+000  0.000000e+000
      vertex -4.648882e+000  1.840623e+000  4.000000e+000
      vertex -4.381534e+000  2.408768e+000  0.000000e+000
    endloop
  endfacet
  facet normal -9.048272e-001  4.257789e-001  0.000000e+000
    outer loop
      vertex -4.381534e+000  2.408768e+000  0.000000e+000
      vertex -4.648882e+000  1.840623e+000  4.000000e+000
      vertex -4.381534e+000  2.408768e+000  4.000000e+000
    endloop
  endfacet
  facet normal -8.443277e-001  5.358272e-001  0.000000e+000
    outer loop
      vertex -4.381534e+000  2.408768e+000  0.000000e+000
      vertex -4.381534e+000  2.408768e+000  4.000000e+000
      vertex -4.045085e+000  2.938926e+000  0.000000e+000
    endloop
  endfacet
  facet normal -8.443277e-001  5.358272e-001  0.000000e+000
    outer loop
      vertex -4.045085e+000  2.938926e+000  0.000000e+000
      vertex -4.381534e+000  2.408768e+000  4.000000e+000
      vertex -4.045085e+000  2.938926e+000  4.000000e+000
    endloop
  endfacet
  facet normal -7.705132e-001  6.374241e-001  0.000000e+000
    outer loop
      vertex -4.045085e+000  2.938926e+000  0.000000e+000
      vertex -4.045085e+000  2.938926e+000  4.000000e+000
      vertex -3.644843e+000  3.422735e+000  0.000000e+000
    endloop
  endfacet
  facet normal -7.705132e-001  6.374241e-001  0.000000e+000
    outer loop
      vertex -3.644843e+000  3.422735e+000  0.000000e+000
      vertex -4.045085e+000  2.938926e+000  4.000000e+000
      vertex -3.644843e+000  3.422735e+000  4.000000e+000
    endloop
  endfacet
  facet normal -6.845472e-001  7.289685e-001  0.000000e+000
    outer loop
      vertex -3.644843e+000  3.422735e+000  0.000000e+000
      vertex -3.644843e+000  3.422735e+000  4.000000e+000
      vertex -3.187120e+000  3.852566e+000  0.000000e+000
    endloop
  endfacet
  facet normal -6.845472e-001  7.289685e-001  0.000000e+000
    outer loop
      vertex -3.187120e+000  3.852566e+000  0.000000e+000
      vertex -3.644843e+000  3.422735e+000  4.000000e+000
      vertex -3.187120e+000  3.852566e+000  4.000000e+000
    endloop
  endfacet
  facet normal -5.877852e-001  8.090171e-001  0.000000e+000
    outer loop
      vertex -3.187120e+000  3.852566e+000  0.000000e+000
      vertex -3.187120e+000  3.852566e+000  4.000000e+000
      vertex -2.679134e+000  4.221640e+000  0.000000e+000
    endloop
  endfacet
  facet normal -5.877852e-001  8.090171e-001  0.000000e+000
    outer loop
      vertex -2.679134e+000  4.221640e+000  0.000000e+000
      vertex -3.187120e+000  3.852566e+000  4.000000e+000
      vertex -2.679134e+000  4.221640e+000  4.000000e+000
    endloop
  endfacet
  facet normal -4.817535e-001  8.763067e-001  0.000000e+000
    outer loop
      vertex -2.679134e+000  4.221640e+000  0.000000e+000
      vertex -2.679134e+000  4.221640e+000  4.000000e+000
      vertex -2.128896e+000  4.524135e+000  0.000000e+000
    endloop
  endfacet
  facet normal -4.817535e-001  8.763067e-001  0.000000e+000
    outer loop
      vertex -2.128896e+000  4.524135e+000  0.000000e+000
      vertex -2.679134e+000  4.221640e+000  4.000000e+000
      vertex -2.128896e+000  4.524135e+000  4.000000e+000
    endloop
  endfacet
  facet normal -3.681245e-001  9.297765e-001  0.000000e+000
    outer loop
      vertex -2.128896e+000  4.524135e+000  0.000000e+000
      vertex -2.128896e+000  4.524135e+000  4.000000e+000
      vertex -1.545085e+000  4.755282e+000  0.000000e+000
    endloop
  endfacet
  facet normal -3.681245e-001  9.297765e-001  0.000000e+000
    outer loop
      vertex -1.545085e+000  4.755282e+000  0.000000e+000
      vertex -2.128896e+000  4.524135e+000  4.000000e+000
      vertex -1.545085e+000  4.755282e+000  4.000000e+000
    endloop
  endfacet
  facet normal -2.486899e-001  9.685831e-001  0.000000e+000
    outer loop
      vertex -1.545085e+000  4.755282e+000  0.000000e+000
      vertex -1.545085e+000  4.755282e+000  4.000000e+000
      vertex -9.369066e-001  4.911436e+000  0.000000e+000
    endloop
  endfacet
  facet normal -2.486899e-001  9.685831e-001  0.000000e+000
    outer loop
      vertex -9.369066e-001  4.911436e+000  0.000000e+000
      vertex -1.545085e+000  4.755282e+000  4.000000e+000
      vertex -9.369066e-001  4.911436e+000  4.000000e+000
    endloop
  endfacet
  facet normal -1.253337e-001  9.921147e-001  0.000000e+000
    outer loop
      vertex -9.369066e-001  4.911436e+000  0.000000e+000
      vertex -9.369066e-001  4.911436e+000  4.000000e+000
      vertex -3.139526e-001  4.990134e+000  0.000000e+000
    endloop
  endfacet
  facet normal -1.253337e-001  9.921147e-001  0.000000e+000
    outer loop
      vertex -3.139526e-001  4.990134e+000  0.000000e+000
      vertex -9.369066e-001  4.911436e+000  4.000000e+000
      vertex -3.139526e-001  4.990134e+000  4.000000e+000
    endloop
  endfacet
  facet normal  0.000000e+000  1.000000e+000  0.000000e+000
    outer loop
      vertex -3.139526e-001  4.990134e+000  0.000000e+000
      vertex -3.139526e-001  4.990134e+000  4.000000e+000
      vertex  3.139526e-001  4.990134e+000  0.000000e+000
    endloop
  endfacet
  facet normal  0.000000e+000  1.000000e+000  -0.000000e+000
    outer loop
      vertex  3.139526e-001  4.990134e+000  0.000000e+000
      vertex -3.139526e-001  4.990134e+000  4.000000e+000
      vertex  3.139526e-001  4.990134e+000  4.000000e+000
    endloop
  endfacet
  facet normal  1.253337e-001  9.921147e-001  0.000000e+000
    outer loop
      vertex  3.139526e-001  4.990134e+000  0.000000e+000
      vertex  3.139526e-001  4.990134e+000  4.000000e+000
      vertex  9.369066e-001  4.911436e+000  0.000000e+000
    endloop
  endfacet
  facet normal  1.253337e-001  9.921147e-001  -0.000000e+000
    outer loop
      vertex  9.369066e-001  4.911436e+000  0.000000e+000
      vertex  3.139526e-001  4.990134e+000  4.000000e+000
      vertex  9.369066e-001  4.911436e+000  4.000000e+000
    endloop
  endfacet
  facet normal  2.486899e-001  9.685831e-001  0.000000e+000
    outer loop
      vertex  9.369066e-001  4.911436e+000  0.000000e+000
      vertex  9.369066e-001  4.911436e+000  4.000000e+000
      vertex  1.545085e+000  4.755282e+000  0.000000e+000
    endloop
  endfacet
  facet normal  2.486899e-001  9.685831e-001  -0.000000e+000
    outer loop
      vertex  1.545085e+000  4.755282e+000  0.000000e+000
      vertex  9.369066e-001  4.911436e+000  4.000000e+000
      vertex  1.545085e+000  4.755282e+000  4.000000e+000
    endloop
  endfacet
  facet normal  3.681245e-001  9.297765e-001  0.000000e+000
    outer loop
      vertex  1.545085e+000  4.755282e+000  0.000000e+000
      vertex  1.545085e+000  4.755282e+000  4.000000e+000
      vertex  2.128896e+000  4.524135e+000  0.000000e+000
    endloop
  endfacet
  facet normal  3.681245e-001  9.297765e-001  -0.000000e+000
    outer loop
      vertex  2.128896e+000  4.524135e+000  0.000000e+000
      vertex  1.545085e+000  4.755282e+000  4.000000e+000
      vertex  2.128896e+000  4.524135e+000  4.000000e+000
    endloop
  endfacet
  facet normal  4.817535e-001  8.763067e-001  0.000000e+000
    outer loop
      vertex  2.128896e+000  4.524135e+000  0.000000e+000
      vertex  2.128896e+000  4.524135e+000  4.000000e+000
      vertex  2.679134e+000  4.221640e+000  0.000000e+000
    endloop
  endfacet
  facet normal  4.817535e-001  8.763067e-001  -0.000000e+000
    outer loop
      vertex  2.679134e+000  4.221640e+000  0.000000e+000
      vertex  2.128896e+000  4.524135e+000  4.000000e+000
      vertex  2.679134e+000  4.221640e+000  4.000000e+000
    endloop
  endfacet
  facet normal  5.877852e-001  8.090171e-001  0.000000e+000
    outer loop
      vertex  2.679134e+000  4.221640e+000  0.000000e+000
      vertex  2.679134e+000  4.221640e+000  4.000000e+000
      vertex  3.187120e+000  3.852566e+000  0.000000e+000
    endloop
  endfacet
  facet normal  5.877852e-001  8.090171e-001  -0.000000e+000
    outer loop
      vertex  3.187120e+000  3.852566e+000  0.000000e+000
      vertex  2.679134e+000  4.221640e+000  4.000000e+000
      vertex  3.187120e+000  3.852566e+000  4.000000e+000
    endloop
  endfacet
  facet normal  6.845472e-001  7.289685e-001  0.000000e+000
    outer loop
      vertex  3.187120e+000  3.852566e+000  0.000000e+000
      vertex  3.187120e+000  3.852566e+000  4.000000e+000
      vertex  3.644843e+000  3.422735e+000  0.000000e+000
    endloop
  endfacet
  facet normal  6.845472e-001  7.289685e-001  -0.000000e+000
    outer loop
      vertex  3.644843e+000  3.422735e+000  0.000000e+000
      vertex  3.187120e+000  3.852566e+000  4.000000e+000
      vertex  3.644843e+000  3.422735e+000  4.000000e+000
    endloop
  endfacet
  facet normal  7.705132e-001  6.374241e-001  0.000000e+000
    outer loop
      vertex  3.644843e+000  3.422735e+000  0.000000e+000
      vertex  3.644843e+000  3.422735e+000  4.000000e+000
      vertex  4.045085e+000  2.938926e+000  0.000000e+000
    endloop
  endfacet
  facet normal  7.705132e-001  6.374241e-001  -0.000000e+000
    outer loop
      vertex  4.045085e+000  2.938926e+000  0.000000e+000
      vertex  3.644843e+000  3.422735e+000  4.000000e+000
      vertex  4.045085e+000  2.938926e+000  4.000000e+000
    endloop
  endfacet
  facet normal  8.443277e-001  5.358272e-001  0.000000e+000
    outer loop
      vertex  4.045085e+000  2.938926e+000  0.000000e+000
      vertex  4.045085e+000  2.938926e+000  4.000000e+000
      vertex  4.381534e+000  2.408768e+000  0.000000e+000
    endloop
  endfacet
  facet normal  8.443277e-001  5.358272e-001  -0.000000e+000
    outer loop
      vertex  4.381534e+000  2.408768e+000  0.000000e+000
      vertex  4.045085e+000  2.938926e+000  4.000000e+000
      vertex  4.381534e+000  2.408768e+000  4.000000e+000
    endloop
  endfacet
  facet normal  9.048272e-001  4.257789e-001  0.000000e+000
    outer loop
      vertex  4.381534e+000  2.408768e+000  0.000000e+000
      vertex  4.381534e+000  2.408768e+000  4.000000e+000
      vertex  4.648882e+000  1.840623e+000  0.000000e+000
    endloop
  endfacet
  facet normal  9.048272e-001  4.257789e-001  -0.000000e+000
    outer loop
      vertex  4.648882e+000  1.840623e+000  0.000000e+000
      vertex  4.381534e+000  2.408768e+000  4.000000e+000
      vertex  4.648882e+000  1.840623e+000  4.000000e+000
    endloop
  endfacet
  facet normal  9.510565e-001  3.090174e-001  0.000000e+000
    outer loop
      vertex  4.648882e+000  1.840623e+000  0.000000e+000
      vertex  4.648882e+000  1.840623e+000  4.000000e+000
      vertex  4.842916e+000  1.243449e+000  0.000000e+000
    endloop
  endfacet
  facet normal  9.510565e-001  3.090174e-001  -0.000000e+000
    outer loop
      vertex  4.842916e+000  1.243449e+000  0.000000e+000
      vertex  4.648882e+000  1.840623e+000  4.000000e+000
      vertex  4.842916e+000  1.243449e+000  4.000000e+000
    endloop
  endfacet
  facet normal  9.822872e-001  1.873813e-001  0.000000e+000
    outer loop
      vertex  4.842916e+000  1.243449e+000  0.000000e+000
      vertex  4.842916e+000  1.243449e+000  4.000000e+000
      vertex  4.960574e+000  6.266662e-001  0.000000e+000
    endloop
  endfacet
  facet normal  9.822872e-001  1.873813e-001  -0.000000e+000
    outer loop
      vertex  4.960574e+000  6.266662e-001  0.000000e+000
      vertex  4.842916e+000  1.243449e+000  4.000000e+000
      vertex  4.960574e+000  6.266662e-001  4.000000e+000
    endloop
  endfacet
  facet normal  9.980268e-001  6.279025e-002  0.000000e+000
    outer loop
      vertex  4.960574e+000  6.266662e-001  0.000000e+000
      vertex  4.960574e+000  6.266662e-001  4.000000e+000
      vertex  5.000000e+000  0.000000e+000  0.000000e+000
    endloop
  endfacet
  facet normal  9.980268e-001  6.279025e-002  -0.000000e+000
    outer loop
      vertex  5.000000e+000  0.000000e+000  0.000000e+000
      vertex  4.960574e+000  6.266662e-001  4.000000e+000
      vertex  5.000000e+000  0.000000e+000  4.000000e+000
    endloop
  endfacet
endsolid CATIA STL
