solid CATIA STL
  facet normal  -0.000000e+000  0.000000e+000 -1.000000e+000
    outer loop
      vertex -7.500000e+000  6.000000e+000  0.000000e+000
      vertex  7.500000e+000  6.000000e+000  0.000000e+000
      vertex -2.588190e-001  2.965926e+000  0.000000e+000
    endloop
  endfacet
  facet normal  -0.000000e+000  0.000000e+000 -1.000000e+000
    outer loop
      vertex -7.500000e+000  6.000000e+000  0.000000e+000
      vertex -2.588190e-001  2.965926e+000  0.000000e+000
      vertex -5.000000e-001  2.866025e+000  0.000000e+000
    endloop
  endfacet
  facet normal  -0.000000e+000  0.000000e+000 -1.000000e+000
    outer loop
      vertex -7.500000e+000  6.000000e+000  0.000000e+000
      vertex -5.000000e-001  2.866025e+000  0.000000e+000
      vertex -7.500000e+000  0.000000e+000  0.000000e+000
    endloop
  endfacet
  facet normal  0.000000e+000  0.000000e+000 -1.000000e+000
    outer loop
      vertex -7.500000e+000  0.000000e+000  0.000000e+000
      vertex -5.000000e-001  2.866025e+000  0.000000e+000
      vertex -7.071068e-001  2.707107e+000  0.000000e+000
    endloop
  endfacet
  facet normal  0.000000e+000  0.000000e+000 -1.000000e+000
    outer loop
      vertex -7.500000e+000  0.000000e+000  0.000000e+000
      vertex -7.071068e-001  2.707107e+000  0.000000e+000
      vertex -8.660254e-001  2.500000e+000  0.000000e+000
    endloop
  endfacet
  facet normal  0.000000e+000  0.000000e+000 -1.000000e+000
    outer loop
      vertex -7.500000e+000  0.000000e+000  0.000000e+000
      vertex -8.660254e-001  2.500000e+000  0.000000e+000
      vertex -9.659258e-001  2.258819e+000  0.000000e+000
    endloop
  endfacet
  facet normal  0.000000e+000  0.000000e+000 -9.999999e-001
    outer loop
      vertex -7.500000e+000  0.000000e+000  0.000000e+000
      vertex -9.659258e-001  2.258819e+000  0.000000e+000
      vertex -1.000000e+000  2.000000e+000  0.000000e+000
    endloop
  endfacet
  facet normal  0.000000e+000  -0.000000e+000 -1.000000e+000
    outer loop
      vertex -7.500000e+000  0.000000e+000  0.000000e+000
      vertex -1.000000e+000  2.000000e+000  0.000000e+000
      vertex -9.659258e-001  1.741181e+000  0.000000e+000
    endloop
  endfacet
  facet normal  0.000000e+000  -0.000000e+000 -1.000000e+000
    outer loop
      vertex -7.500000e+000  0.000000e+000  0.000000e+000
      vertex -9.659258e-001  1.741181e+000  0.000000e+000
      vertex -8.660254e-001  1.500000e+000  0.000000e+000
    endloop
  endfacet
  facet normal  0.000000e+000  -0.000000e+000 -1.000000e+000
    outer loop
      vertex -7.500000e+000  0.000000e+000  0.000000e+000
      vertex -8.660254e-001  1.500000e+000  0.000000e+000
      vertex -7.071068e-001  1.292893e+000  0.000000e+000
    endloop
  endfacet
  facet normal  0.000000e+000  -0.000000e+000 -9.999999e-001
    outer loop
      vertex -7.500000e+000  0.000000e+000  0.000000e+000
      vertex -7.071068e-001  1.292893e+000  0.000000e+000
      vertex -5.000000e-001  1.133975e+000  0.000000e+000
    endloop
  endfacet
  facet normal  0.000000e+000  -0.000000e+000 -1.000000e+000
    outer loop
      vertex -7.500000e+000  0.000000e+000  0.000000e+000
      vertex -5.000000e-001  1.133975e+000  0.000000e+000
      vertex -2.588190e-001  1.034074e+000  0.000000e+000
    endloop
  endfacet
  facet normal  0.000000e+000  -0.000000e+000 -1.000000e+000
    outer loop
      vertex -7.500000e+000  0.000000e+000  0.000000e+000
      vertex -2.588190e-001  1.034074e+000  0.000000e+000
      vertex  6.123234e-017  1.000000e+000  0.000000e+000
    endloop
  endfacet
  facet normal  0.000000e+000  -0.000000e+000 -1.000000e+000
    outer loop
      vertex -7.500000e+000  0.000000e+000  0.000000e+000
      vertex  6.123234e-017  1.000000e+000  0.000000e+000
      vertex  7.500000e+000  0.000000e+000  0.000000e+000
    endloop
  endfacet
  facet normal  0.000000e+000  0.000000e+000 -1.000000e+000
    outer loop
      vertex  7.500000e+000  0.000000e+000  0.000000e+000
      vertex  6.123234e-017  1.000000e+000  0.000000e+000
      vertex  2.588190e-001  1.034074e+000  0.000000e+000
    endloop
  endfacet
  facet normal  0.000000e+000  0.000000e+000 -1.000000e+000
    outer loop
      vertex  7.500000e+000  0.000000e+000  0.000000e+000
      vertex  2.588190e-001  1.034074e+000  0.000000e+000
      vertex  5.000000e-001  1.133975e+000  0.000000e+000
    endloop
  endfacet
  facet normal  0.000000e+000  0.000000e+000 -1.000000e+000
    outer loop
      vertex  7.500000e+000  0.000000e+000  0.000000e+000
      vertex  5.000000e-001  1.133975e+000  0.000000e+000
      vertex  7.071068e-001  1.292893e+000  0.000000e+000
    endloop
  endfacet
  facet normal  0.000000e+000  0.000000e+000 -1.000000e+000
    outer loop
      vertex  7.500000e+000  0.000000e+000  0.000000e+000
      vertex  7.071068e-001  1.292893e+000  0.000000e+000
      vertex  8.660254e-001  1.500000e+000  0.000000e+000
    endloop
  endfacet
  facet normal  0.000000e+000  0.000000e+000 -1.000000e+000
    outer loop
      vertex  7.500000e+000  0.000000e+000  0.000000e+000
      vertex  8.660254e-001  1.500000e+000  0.000000e+000
      vertex  9.659258e-001  1.741181e+000  0.000000e+000
    endloop
  endfacet
  facet normal  0.000000e+000  0.000000e+000 -1.000000e+000
    outer loop
      vertex  7.500000e+000  0.000000e+000  0.000000e+000
      vertex  9.659258e-001  1.741181e+000  0.000000e+000
      vertex  1.000000e+000  2.000000e+000  0.000000e+000
    endloop
  endfacet
  facet normal  0.000000e+000  0.000000e+000 -1.000000e+000
    outer loop
      vertex  7.500000e+000  0.000000e+000  0.000000e+000
      vertex  1.000000e+000  2.000000e+000  0.000000e+000
      vertex  7.500000e+000  6.000000e+000  0.000000e+000
    endloop
  endfacet
  facet normal  0.000000e+000  0.000000e+000 -1.000000e+000
    outer loop
      vertex  7.500000e+000  6.000000e+000  0.000000e+000
      vertex  1.000000e+000  2.000000e+000  0.000000e+000
      vertex  9.659258e-001  2.258819e+000  0.000000e+000
    endloop
  endfacet
  facet normal  0.000000e+000  0.000000e+000 -1.000000e+000
    outer loop
      vertex  7.500000e+000  6.000000e+000  0.000000e+000
      vertex  9.659258e-001  2.258819e+000  0.000000e+000
      vertex  8.660254e-001  2.500000e+000  0.000000e+000
    endloop
  endfacet
  facet normal  0.000000e+000  0.000000e+000 -1.000000e+000
    outer loop
      vertex  7.500000e+000  6.000000e+000  0.000000e+000
      vertex  8.660254e-001  2.500000e+000  0.000000e+000
      vertex  7.071068e-001  2.707107e+000  0.000000e+000
    endloop
  endfacet
  facet normal  0.000000e+000  0.000000e+000 -1.000000e+000
    outer loop
      vertex  7.500000e+000  6.000000e+000  0.000000e+000
      vertex  7.071068e-001  2.707107e+000  0.000000e+000
      vertex  5.000000e-001  2.866025e+000  0.000000e+000
    endloop
  endfacet
  facet normal  0.000000e+000  0.000000e+000 -1.000000e+000
    outer loop
      vertex  7.500000e+000  6.000000e+000  0.000000e+000
      vertex  5.000000e-001  2.866025e+000  0.000000e+000
      vertex  2.588190e-001  2.965926e+000  0.000000e+000
    endloop
  endfacet
  facet normal  0.000000e+000  0.000000e+000 -1.000000e+000
    outer loop
      vertex  7.500000e+000  6.000000e+000  0.000000e+000
      vertex  2.588190e-001  2.965926e+000  0.000000e+000
      vertex -1.836970e-016  3.000000e+000  0.000000e+000
    endloop
  endfacet
  facet normal  -0.000000e+000  0.000000e+000 -1.000000e+000
    outer loop
      vertex  7.500000e+000  6.000000e+000  0.000000e+000
      vertex -1.836970e-016  3.000000e+000  0.000000e+000
      vertex -2.588190e-001  2.965926e+000  0.000000e+000
    endloop
  endfacet
  facet normal  9.914449e-001  1.305262e-001  -0.000000e+000
    outer loop
      vertex  1.000000e+000  2.000000e+000  0.000000e+000
      vertex  1.000000e+000  2.000000e+000 -2.500000e+000
      vertex  9.659258e-001  2.258819e+000  0.000000e+000
    endloop
  endfacet
  facet normal  9.914449e-001  1.305262e-001  0.000000e+000
    outer loop
      vertex  9.659258e-001  2.258819e+000  0.000000e+000
      vertex  1.000000e+000  2.000000e+000 -2.500000e+000
      vertex  9.659258e-001  2.258819e+000 -2.500000e+000
    endloop
  endfacet
  facet normal  9.238794e-001  3.826835e-001  -0.000000e+000
    outer loop
      vertex  9.659258e-001  2.258819e+000  0.000000e+000
      vertex  9.659258e-001  2.258819e+000 -2.500000e+000
      vertex  8.660254e-001  2.500000e+000  0.000000e+000
    endloop
  endfacet
  facet normal  9.238794e-001  3.826835e-001  0.000000e+000
    outer loop
      vertex  8.660254e-001  2.500000e+000  0.000000e+000
      vertex  9.659258e-001  2.258819e+000 -2.500000e+000
      vertex  8.660254e-001  2.500000e+000 -2.500000e+000
    endloop
  endfacet
  facet normal  7.933534e-001  6.087614e-001  -0.000000e+000
    outer loop
      vertex  8.660254e-001  2.500000e+000  0.000000e+000
      vertex  8.660254e-001  2.500000e+000 -2.500000e+000
      vertex  7.071068e-001  2.707107e+000  0.000000e+000
    endloop
  endfacet
  facet normal  7.933534e-001  6.087614e-001  0.000000e+000
    outer loop
      vertex  7.071068e-001  2.707107e+000  0.000000e+000
      vertex  8.660254e-001  2.500000e+000 -2.500000e+000
      vertex  7.071068e-001  2.707107e+000 -2.500000e+000
    endloop
  endfacet
  facet normal  6.087614e-001  7.933534e-001  -0.000000e+000
    outer loop
      vertex  7.071068e-001  2.707107e+000  0.000000e+000
      vertex  7.071068e-001  2.707107e+000 -2.500000e+000
      vertex  5.000000e-001  2.866025e+000  0.000000e+000
    endloop
  endfacet
  facet normal  6.087614e-001  7.933534e-001  0.000000e+000
    outer loop
      vertex  5.000000e-001  2.866025e+000  0.000000e+000
      vertex  7.071068e-001  2.707107e+000 -2.500000e+000
      vertex  5.000000e-001  2.866025e+000 -2.500000e+000
    endloop
  endfacet
  facet normal  3.826837e-001  9.238794e-001  -0.000000e+000
    outer loop
      vertex  5.000000e-001  2.866025e+000  0.000000e+000
      vertex  5.000000e-001  2.866025e+000 -2.500000e+000
      vertex  2.588190e-001  2.965926e+000  0.000000e+000
    endloop
  endfacet
  facet normal  3.826837e-001  9.238794e-001  0.000000e+000
    outer loop
      vertex  2.588190e-001  2.965926e+000  0.000000e+000
      vertex  5.000000e-001  2.866025e+000 -2.500000e+000
      vertex  2.588190e-001  2.965926e+000 -2.500000e+000
    endloop
  endfacet
  facet normal  1.305258e-001  9.914449e-001  -0.000000e+000
    outer loop
      vertex  2.588190e-001  2.965926e+000  0.000000e+000
      vertex  2.588190e-001  2.965926e+000 -2.500000e+000
      vertex -1.836970e-016  3.000000e+000  0.000000e+000
    endloop
  endfacet
  facet normal  1.305258e-001  9.914449e-001  0.000000e+000
    outer loop
      vertex -1.836970e-016  3.000000e+000  0.000000e+000
      vertex  2.588190e-001  2.965926e+000 -2.500000e+000
      vertex -1.836970e-016  3.000000e+000 -2.500000e+000
    endloop
  endfacet
  facet normal -1.305258e-001  9.914449e-001  0.000000e+000
    outer loop
      vertex -1.836970e-016  3.000000e+000  0.000000e+000
      vertex -1.836970e-016  3.000000e+000 -2.500000e+000
      vertex -2.588190e-001  2.965926e+000  0.000000e+000
    endloop
  endfacet
  facet normal -1.305258e-001  9.914449e-001  0.000000e+000
    outer loop
      vertex -2.588190e-001  2.965926e+000  0.000000e+000
      vertex -1.836970e-016  3.000000e+000 -2.500000e+000
      vertex -2.588190e-001  2.965926e+000 -2.500000e+000
    endloop
  endfacet
  facet normal -3.826837e-001  9.238794e-001  0.000000e+000
    outer loop
      vertex -2.588190e-001  2.965926e+000  0.000000e+000
      vertex -2.588190e-001  2.965926e+000 -2.500000e+000
      vertex -5.000000e-001  2.866025e+000  0.000000e+000
    endloop
  endfacet
  facet normal -3.826837e-001  9.238794e-001  0.000000e+000
    outer loop
      vertex -5.000000e-001  2.866025e+000  0.000000e+000
      vertex -2.588190e-001  2.965926e+000 -2.500000e+000
      vertex -5.000000e-001  2.866025e+000 -2.500000e+000
    endloop
  endfacet
  facet normal -6.087614e-001  7.933534e-001  0.000000e+000
    outer loop
      vertex -5.000000e-001  2.866025e+000  0.000000e+000
      vertex -5.000000e-001  2.866025e+000 -2.500000e+000
      vertex -7.071068e-001  2.707107e+000  0.000000e+000
    endloop
  endfacet
  facet normal -6.087614e-001  7.933534e-001  0.000000e+000
    outer loop
      vertex -7.071068e-001  2.707107e+000  0.000000e+000
      vertex -5.000000e-001  2.866025e+000 -2.500000e+000
      vertex -7.071068e-001  2.707107e+000 -2.500000e+000
    endloop
  endfacet
  facet normal -7.933534e-001  6.087614e-001  0.000000e+000
    outer loop
      vertex -7.071068e-001  2.707107e+000  0.000000e+000
      vertex -7.071068e-001  2.707107e+000 -2.500000e+000
      vertex -8.660254e-001  2.500000e+000  0.000000e+000
    endloop
  endfacet
  facet normal -7.933534e-001  6.087614e-001  0.000000e+000
    outer loop
      vertex -8.660254e-001  2.500000e+000  0.000000e+000
      vertex -7.071068e-001  2.707107e+000 -2.500000e+000
      vertex -8.660254e-001  2.500000e+000 -2.500000e+000
    endloop
  endfacet
  facet normal -9.238794e-001  3.826835e-001  0.000000e+000
    outer loop
      vertex -8.660254e-001  2.500000e+000  0.000000e+000
      vertex -8.660254e-001  2.500000e+000 -2.500000e+000
      vertex -9.659258e-001  2.258819e+000  0.000000e+000
    endloop
  endfacet
  facet normal -9.238794e-001  3.826835e-001  0.000000e+000
    outer loop
      vertex -9.659258e-001  2.258819e+000  0.000000e+000
      vertex -8.660254e-001  2.500000e+000 -2.500000e+000
      vertex -9.659258e-001  2.258819e+000 -2.500000e+000
    endloop
  endfacet
  facet normal -9.914449e-001  1.305262e-001  0.000000e+000
    outer loop
      vertex -9.659258e-001  2.258819e+000  0.000000e+000
      vertex -9.659258e-001  2.258819e+000 -2.500000e+000
      vertex -1.000000e+000  2.000000e+000  0.000000e+000
    endloop
  endfacet
  facet normal -9.914449e-001  1.305262e-001  0.000000e+000
    outer loop
      vertex -1.000000e+000  2.000000e+000  0.000000e+000
      vertex -9.659258e-001  2.258819e+000 -2.500000e+000
      vertex -1.000000e+000  2.000000e+000 -2.500000e+000
    endloop
  endfacet
  facet normal -9.914449e-001 -1.305262e-001  0.000000e+000
    outer loop
      vertex -1.000000e+000  2.000000e+000  0.000000e+000
      vertex -1.000000e+000  2.000000e+000 -2.500000e+000
      vertex -9.659258e-001  1.741181e+000  0.000000e+000
    endloop
  endfacet
  facet normal -9.914449e-001 -1.305262e-001  -0.000000e+000
    outer loop
      vertex -9.659258e-001  1.741181e+000  0.000000e+000
      vertex -1.000000e+000  2.000000e+000 -2.500000e+000
      vertex -9.659258e-001  1.741181e+000 -2.500000e+000
    endloop
  endfacet
  facet normal -9.238794e-001 -3.826835e-001  0.000000e+000
    outer loop
      vertex -9.659258e-001  1.741181e+000  0.000000e+000
      vertex -9.659258e-001  1.741181e+000 -2.500000e+000
      vertex -8.660254e-001  1.500000e+000  0.000000e+000
    endloop
  endfacet
  facet normal -9.238794e-001 -3.826835e-001  -0.000000e+000
    outer loop
      vertex -8.660254e-001  1.500000e+000  0.000000e+000
      vertex -9.659258e-001  1.741181e+000 -2.500000e+000
      vertex -8.660254e-001  1.500000e+000 -2.500000e+000
    endloop
  endfacet
  facet normal -7.933534e-001 -6.087614e-001  0.000000e+000
    outer loop
      vertex -8.660254e-001  1.500000e+000  0.000000e+000
      vertex -8.660254e-001  1.500000e+000 -2.500000e+000
      vertex -7.071068e-001  1.292893e+000  0.000000e+000
    endloop
  endfacet
  facet normal -7.933534e-001 -6.087614e-001  -0.000000e+000
    outer loop
      vertex -7.071068e-001  1.292893e+000  0.000000e+000
      vertex -8.660254e-001  1.500000e+000 -2.500000e+000
      vertex -7.071068e-001  1.292893e+000 -2.500000e+000
    endloop
  endfacet
  facet normal -6.087614e-001 -7.933534e-001  0.000000e+000
    outer loop
      vertex -7.071068e-001  1.292893e+000  0.000000e+000
      vertex -7.071068e-001  1.292893e+000 -2.500000e+000
      vertex -5.000000e-001  1.133975e+000  0.000000e+000
    endloop
  endfacet
  facet normal -6.087614e-001 -7.933534e-001  -0.000000e+000
    outer loop
      vertex -5.000000e-001  1.133975e+000  0.000000e+000
      vertex -7.071068e-001  1.292893e+000 -2.500000e+000
      vertex -5.000000e-001  1.133975e+000 -2.500000e+000
    endloop
  endfacet
  facet normal -3.826832e-001 -9.238796e-001  0.000000e+000
    outer loop
      vertex -5.000000e-001  1.133975e+000  0.000000e+000
      vertex -5.000000e-001  1.133975e+000 -2.500000e+000
      vertex -2.588190e-001  1.034074e+000  0.000000e+000
    endloop
  endfacet
  facet normal -3.826832e-001 -9.238796e-001  -0.000000e+000
    outer loop
      vertex -2.588190e-001  1.034074e+000  0.000000e+000
      vertex -5.000000e-001  1.133975e+000 -2.500000e+000
      vertex -2.588190e-001  1.034074e+000 -2.500000e+000
    endloop
  endfacet
  facet normal -1.305262e-001 -9.914449e-001  0.000000e+000
    outer loop
      vertex -2.588190e-001  1.034074e+000  0.000000e+000
      vertex -2.588190e-001  1.034074e+000 -2.500000e+000
      vertex  6.123234e-017  1.000000e+000  0.000000e+000
    endloop
  endfacet
  facet normal -1.305262e-001 -9.914449e-001  -0.000000e+000
    outer loop
      vertex  6.123234e-017  1.000000e+000  0.000000e+000
      vertex -2.588190e-001  1.034074e+000 -2.500000e+000
      vertex  6.123234e-017  1.000000e+000 -2.500000e+000
    endloop
  endfacet
  facet normal  1.305262e-001 -9.914449e-001  0.000000e+000
    outer loop
      vertex  6.123234e-017  1.000000e+000  0.000000e+000
      vertex  6.123234e-017  1.000000e+000 -2.500000e+000
      vertex  2.588190e-001  1.034074e+000  0.000000e+000
    endloop
  endfacet
  facet normal  1.305262e-001 -9.914449e-001  0.000000e+000
    outer loop
      vertex  2.588190e-001  1.034074e+000  0.000000e+000
      vertex  6.123234e-017  1.000000e+000 -2.500000e+000
      vertex  2.588190e-001  1.034074e+000 -2.500000e+000
    endloop
  endfacet
  facet normal  3.826832e-001 -9.238796e-001  0.000000e+000
    outer loop
      vertex  2.588190e-001  1.034074e+000  0.000000e+000
      vertex  2.588190e-001  1.034074e+000 -2.500000e+000
      vertex  5.000000e-001  1.133975e+000  0.000000e+000
    endloop
  endfacet
  facet normal  3.826832e-001 -9.238796e-001  0.000000e+000
    outer loop
      vertex  5.000000e-001  1.133975e+000  0.000000e+000
      vertex  2.588190e-001  1.034074e+000 -2.500000e+000
      vertex  5.000000e-001  1.133975e+000 -2.500000e+000
    endloop
  endfacet
  facet normal  6.087614e-001 -7.933534e-001  0.000000e+000
    outer loop
      vertex  5.000000e-001  1.133975e+000  0.000000e+000
      vertex  5.000000e-001  1.133975e+000 -2.500000e+000
      vertex  7.071068e-001  1.292893e+000  0.000000e+000
    endloop
  endfacet
  facet normal  6.087614e-001 -7.933534e-001  0.000000e+000
    outer loop
      vertex  7.071068e-001  1.292893e+000  0.000000e+000
      vertex  5.000000e-001  1.133975e+000 -2.500000e+000
      vertex  7.071068e-001  1.292893e+000 -2.500000e+000
    endloop
  endfacet
  facet normal  7.933534e-001 -6.087614e-001  0.000000e+000
    outer loop
      vertex  7.071068e-001  1.292893e+000  0.000000e+000
      vertex  7.071068e-001  1.292893e+000 -2.500000e+000
      vertex  8.660254e-001  1.500000e+000  0.000000e+000
    endloop
  endfacet
  facet normal  7.933534e-001 -6.087614e-001  0.000000e+000
    outer loop
      vertex  8.660254e-001  1.500000e+000  0.000000e+000
      vertex  7.071068e-001  1.292893e+000 -2.500000e+000
      vertex  8.660254e-001  1.500000e+000 -2.500000e+000
    endloop
  endfacet
  facet normal  9.238794e-001 -3.826835e-001  0.000000e+000
    outer loop
      vertex  8.660254e-001  1.500000e+000  0.000000e+000
      vertex  8.660254e-001  1.500000e+000 -2.500000e+000
      vertex  9.659258e-001  1.741181e+000  0.000000e+000
    endloop
  endfacet
  facet normal  9.238794e-001 -3.826835e-001  0.000000e+000
    outer loop
      vertex  9.659258e-001  1.741181e+000  0.000000e+000
      vertex  8.660254e-001  1.500000e+000 -2.500000e+000
      vertex  9.659258e-001  1.741181e+000 -2.500000e+000
    endloop
  endfacet
  facet normal  9.914449e-001 -1.305262e-001  0.000000e+000
    outer loop
      vertex  9.659258e-001  1.741181e+000  0.000000e+000
      vertex  9.659258e-001  1.741181e+000 -2.500000e+000
      vertex  1.000000e+000  2.000000e+000  0.000000e+000
    endloop
  endfacet
  facet normal  9.914449e-001 -1.305262e-001  0.000000e+000
    outer loop
      vertex  1.000000e+000  2.000000e+000  0.000000e+000
      vertex  9.659258e-001  1.741181e+000 -2.500000e+000
      vertex  1.000000e+000  2.000000e+000 -2.500000e+000
    endloop
  endfacet
  facet normal  -0.000000e+000  0.000000e+000 -1.000000e+000
    outer loop
      vertex -2.588190e-001  1.034074e+000 -2.500000e+000
      vertex  2.588190e-001  1.034074e+000 -2.500000e+000
      vertex  6.123234e-017  1.000000e+000 -2.500000e+000
    endloop
  endfacet
  facet normal  0.000000e+000  0.000000e+000 -1.000000e+000
    outer loop
      vertex  2.588190e-001  1.034074e+000 -2.500000e+000
      vertex -2.588190e-001  1.034074e+000 -2.500000e+000
      vertex  5.000000e-001  1.133975e+000 -2.500000e+000
    endloop
  endfacet
  facet normal  -0.000000e+000  0.000000e+000 -1.000000e+000
    outer loop
      vertex  5.000000e-001  1.133975e+000 -2.500000e+000
      vertex -2.588190e-001  1.034074e+000 -2.500000e+000
      vertex -5.000000e-001  1.133975e+000 -2.500000e+000
    endloop
  endfacet
  facet normal  0.000000e+000  0.000000e+000 -1.000000e+000
    outer loop
      vertex  5.000000e-001  1.133975e+000 -2.500000e+000
      vertex -5.000000e-001  1.133975e+000 -2.500000e+000
      vertex  7.071068e-001  1.292893e+000 -2.500000e+000
    endloop
  endfacet
  facet normal  -0.000000e+000  0.000000e+000 -1.000000e+000
    outer loop
      vertex  7.071068e-001  1.292893e+000 -2.500000e+000
      vertex -5.000000e-001  1.133975e+000 -2.500000e+000
      vertex -7.071068e-001  1.292893e+000 -2.500000e+000
    endloop
  endfacet
  facet normal  0.000000e+000  0.000000e+000 -1.000000e+000
    outer loop
      vertex  7.071068e-001  1.292893e+000 -2.500000e+000
      vertex -7.071068e-001  1.292893e+000 -2.500000e+000
      vertex  8.660254e-001  1.500000e+000 -2.500000e+000
    endloop
  endfacet
  facet normal  -0.000000e+000  0.000000e+000 -1.000000e+000
    outer loop
      vertex  8.660254e-001  1.500000e+000 -2.500000e+000
      vertex -7.071068e-001  1.292893e+000 -2.500000e+000
      vertex -8.660254e-001  1.500000e+000 -2.500000e+000
    endloop
  endfacet
  facet normal  0.000000e+000  0.000000e+000 -1.000000e+000
    outer loop
      vertex  8.660254e-001  1.500000e+000 -2.500000e+000
      vertex -8.660254e-001  1.500000e+000 -2.500000e+000
      vertex  9.659258e-001  1.741181e+000 -2.500000e+000
    endloop
  endfacet
  facet normal  -0.000000e+000  0.000000e+000 -1.000000e+000
    outer loop
      vertex  9.659258e-001  1.741181e+000 -2.500000e+000
      vertex -8.660254e-001  1.500000e+000 -2.500000e+000
      vertex -9.659258e-001  1.741181e+000 -2.500000e+000
    endloop
  endfacet
  facet normal  0.000000e+000  0.000000e+000 -1.000000e+000
    outer loop
      vertex  9.659258e-001  1.741181e+000 -2.500000e+000
      vertex -9.659258e-001  1.741181e+000 -2.500000e+000
      vertex  1.000000e+000  2.000000e+000 -2.500000e+000
    endloop
  endfacet
  facet normal  -0.000000e+000  0.000000e+000 -1.000000e+000
    outer loop
      vertex  1.000000e+000  2.000000e+000 -2.500000e+000
      vertex -9.659258e-001  1.741181e+000 -2.500000e+000
      vertex -1.000000e+000  2.000000e+000 -2.500000e+000
    endloop
  endfacet
  facet normal  0.000000e+000  0.000000e+000 -1.000000e+000
    outer loop
      vertex  1.000000e+000  2.000000e+000 -2.500000e+000
      vertex -1.000000e+000  2.000000e+000 -2.500000e+000
      vertex  9.659258e-001  2.258819e+000 -2.500000e+000
    endloop
  endfacet
  facet normal  -0.000000e+000  0.000000e+000 -1.000000e+000
    outer loop
      vertex  9.659258e-001  2.258819e+000 -2.500000e+000
      vertex -1.000000e+000  2.000000e+000 -2.500000e+000
      vertex -9.659258e-001  2.258819e+000 -2.500000e+000
    endloop
  endfacet
  facet normal  0.000000e+000  0.000000e+000 -1.000000e+000
    outer loop
      vertex  9.659258e-001  2.258819e+000 -2.500000e+000
      vertex -9.659258e-001  2.258819e+000 -2.500000e+000
      vertex  8.660254e-001  2.500000e+000 -2.500000e+000
    endloop
  endfacet
  facet normal  -0.000000e+000  0.000000e+000 -1.000000e+000
    outer loop
      vertex  8.660254e-001  2.500000e+000 -2.500000e+000
      vertex -9.659258e-001  2.258819e+000 -2.500000e+000
      vertex -8.660254e-001  2.500000e+000 -2.500000e+000
    endloop
  endfacet
  facet normal  0.000000e+000  0.000000e+000 -1.000000e+000
    outer loop
      vertex  8.660254e-001  2.500000e+000 -2.500000e+000
      vertex -8.660254e-001  2.500000e+000 -2.500000e+000
      vertex  7.071068e-001  2.707107e+000 -2.500000e+000
    endloop
  endfacet
  facet normal  -0.000000e+000  0.000000e+000 -1.000000e+000
    outer loop
      vertex  7.071068e-001  2.707107e+000 -2.500000e+000
      vertex -8.660254e-001  2.500000e+000 -2.500000e+000
      vertex -7.071068e-001  2.707107e+000 -2.500000e+000
    endloop
  endfacet
  facet normal  0.000000e+000  0.000000e+000 -1.000000e+000
    outer loop
      vertex  7.071068e-001  2.707107e+000 -2.500000e+000
      vertex -7.071068e-001  2.707107e+000 -2.500000e+000
      vertex  5.000000e-001  2.866025e+000 -2.500000e+000
    endloop
  endfacet
  facet normal  -0.000000e+000  0.000000e+000 -1.000000e+000
    outer loop
      vertex  5.000000e-001  2.866025e+000 -2.500000e+000
      vertex -7.071068e-001  2.707107e+000 -2.500000e+000
      vertex -5.000000e-001  2.866025e+000 -2.500000e+000
    endloop
  endfacet
  facet normal  0.000000e+000  0.000000e+000 -9.999999e-001
    outer loop
      vertex  5.000000e-001  2.866025e+000 -2.500000e+000
      vertex -5.000000e-001  2.866025e+000 -2.500000e+000
      vertex  2.588190e-001  2.965926e+000 -2.500000e+000
    endloop
  endfacet
  facet normal  -0.000000e+000  0.000000e+000 -1.000000e+000
    outer loop
      vertex  2.588190e-001  2.965926e+000 -2.500000e+000
      vertex -5.000000e-001  2.866025e+000 -2.500000e+000
      vertex -2.588190e-001  2.965926e+000 -2.500000e+000
    endloop
  endfacet
  facet normal  0.000000e+000  0.000000e+000 -9.999999e-001
    outer loop
      vertex  2.588190e-001  2.965926e+000 -2.500000e+000
      vertex -2.588190e-001  2.965926e+000 -2.500000e+000
      vertex -1.836970e-016  3.000000e+000 -2.500000e+000
    endloop
  endfacet
  facet normal -9.951848e-001  -0.000000e+000 -9.801670e-002
    outer loop
      vertex -7.500000e+000  6.000000e+000 -1.750000e+000
      vertex -7.500000e+000  1.400000e+001 -1.750000e+000
      vertex -7.461571e+000  6.000000e+000 -2.140181e+000
    endloop
  endfacet
  facet normal -9.951848e-001  0.000000e+000 -9.801670e-002
    outer loop
      vertex -7.461571e+000  6.000000e+000 -2.140181e+000
      vertex -7.500000e+000  1.400000e+001 -1.750000e+000
      vertex -7.461571e+000  1.400000e+001 -2.140181e+000
    endloop
  endfacet
  facet normal -9.569404e-001  -0.000000e+000 -2.902847e-001
    outer loop
      vertex -7.461571e+000  6.000000e+000 -2.140181e+000
      vertex -7.461571e+000  1.400000e+001 -2.140181e+000
      vertex -7.347759e+000  6.000000e+000 -2.515367e+000
    endloop
  endfacet
  facet normal -9.569404e-001  0.000000e+000 -2.902847e-001
    outer loop
      vertex -7.347759e+000  6.000000e+000 -2.515367e+000
      vertex -7.461571e+000  1.400000e+001 -2.140181e+000
      vertex -7.347759e+000  1.400000e+001 -2.515367e+000
    endloop
  endfacet
  facet normal -8.819209e-001  -0.000000e+000 -4.713973e-001
    outer loop
      vertex -7.347759e+000  6.000000e+000 -2.515367e+000
      vertex -7.347759e+000  1.400000e+001 -2.515367e+000
      vertex -7.162939e+000  6.000000e+000 -2.861140e+000
    endloop
  endfacet
  facet normal -8.819209e-001  0.000000e+000 -4.713973e-001
    outer loop
      vertex -7.162939e+000  6.000000e+000 -2.861140e+000
      vertex -7.347759e+000  1.400000e+001 -2.515367e+000
      vertex -7.162939e+000  1.400000e+001 -2.861140e+000
    endloop
  endfacet
  facet normal -7.730108e-001  -0.000000e+000 -6.343929e-001
    outer loop
      vertex -7.162939e+000  6.000000e+000 -2.861140e+000
      vertex -7.162939e+000  1.400000e+001 -2.861140e+000
      vertex -6.914214e+000  6.000000e+000 -3.164214e+000
    endloop
  endfacet
  facet normal -7.730108e-001  0.000000e+000 -6.343929e-001
    outer loop
      vertex -6.914214e+000  6.000000e+000 -3.164214e+000
      vertex -7.162939e+000  1.400000e+001 -2.861140e+000
      vertex -6.914214e+000  1.400000e+001 -3.164214e+000
    endloop
  endfacet
  facet normal -6.343929e-001  -0.000000e+000 -7.730107e-001
    outer loop
      vertex -6.914214e+000  6.000000e+000 -3.164214e+000
      vertex -6.914214e+000  1.400000e+001 -3.164214e+000
      vertex -6.611140e+000  6.000000e+000 -3.412939e+000
    endloop
  endfacet
  facet normal -6.343929e-001  0.000000e+000 -7.730107e-001
    outer loop
      vertex -6.611140e+000  6.000000e+000 -3.412939e+000
      vertex -6.914214e+000  1.400000e+001 -3.164214e+000
      vertex -6.611140e+000  1.400000e+001 -3.412939e+000
    endloop
  endfacet
  facet normal -4.713969e-001  -0.000000e+000 -8.819212e-001
    outer loop
      vertex -6.611140e+000  6.000000e+000 -3.412939e+000
      vertex -6.611140e+000  1.400000e+001 -3.412939e+000
      vertex -6.265367e+000  6.000000e+000 -3.597759e+000
    endloop
  endfacet
  facet normal -4.713969e-001  0.000000e+000 -8.819212e-001
    outer loop
      vertex -6.265367e+000  6.000000e+000 -3.597759e+000
      vertex -6.611140e+000  1.400000e+001 -3.412939e+000
      vertex -6.265367e+000  1.400000e+001 -3.597759e+000
    endloop
  endfacet
  facet normal -2.902845e-001  -0.000000e+000 -9.569404e-001
    outer loop
      vertex -6.265367e+000  6.000000e+000 -3.597759e+000
      vertex -6.265367e+000  1.400000e+001 -3.597759e+000
      vertex -5.890181e+000  6.000000e+000 -3.711571e+000
    endloop
  endfacet
  facet normal -2.902845e-001  0.000000e+000 -9.569404e-001
    outer loop
      vertex -5.890181e+000  6.000000e+000 -3.711571e+000
      vertex -6.265367e+000  1.400000e+001 -3.597759e+000
      vertex -5.890181e+000  1.400000e+001 -3.711571e+000
    endloop
  endfacet
  facet normal -9.801731e-002  -0.000000e+000 -9.951848e-001
    outer loop
      vertex -5.890181e+000  6.000000e+000 -3.711571e+000
      vertex -5.890181e+000  1.400000e+001 -3.711571e+000
      vertex -5.500000e+000  6.000000e+000 -3.750000e+000
    endloop
  endfacet
  facet normal -9.801731e-002  0.000000e+000 -9.951848e-001
    outer loop
      vertex -5.500000e+000  6.000000e+000 -3.750000e+000
      vertex -5.890181e+000  1.400000e+001 -3.711571e+000
      vertex -5.500000e+000  1.400000e+001 -3.750000e+000
    endloop
  endfacet
  facet normal  9.801731e-002  0.000000e+000 -9.951848e-001
    outer loop
      vertex  5.500000e+000  6.000000e+000 -3.750000e+000
      vertex  5.500000e+000  1.400000e+001 -3.750000e+000
      vertex  5.890181e+000  6.000000e+000 -3.711571e+000
    endloop
  endfacet
  facet normal  9.801731e-002  0.000000e+000 -9.951848e-001
    outer loop
      vertex  5.890181e+000  6.000000e+000 -3.711571e+000
      vertex  5.500000e+000  1.400000e+001 -3.750000e+000
      vertex  5.890181e+000  1.400000e+001 -3.711571e+000
    endloop
  endfacet
  facet normal  2.902845e-001  0.000000e+000 -9.569404e-001
    outer loop
      vertex  5.890181e+000  6.000000e+000 -3.711571e+000
      vertex  5.890181e+000  1.400000e+001 -3.711571e+000
      vertex  6.265367e+000  6.000000e+000 -3.597759e+000
    endloop
  endfacet
  facet normal  2.902845e-001  0.000000e+000 -9.569404e-001
    outer loop
      vertex  6.265367e+000  6.000000e+000 -3.597759e+000
      vertex  5.890181e+000  1.400000e+001 -3.711571e+000
      vertex  6.265367e+000  1.400000e+001 -3.597759e+000
    endloop
  endfacet
  facet normal  4.713969e-001  0.000000e+000 -8.819212e-001
    outer loop
      vertex  6.265367e+000  6.000000e+000 -3.597759e+000
      vertex  6.265367e+000  1.400000e+001 -3.597759e+000
      vertex  6.611140e+000  6.000000e+000 -3.412939e+000
    endloop
  endfacet
  facet normal  4.713969e-001  0.000000e+000 -8.819212e-001
    outer loop
      vertex  6.611140e+000  6.000000e+000 -3.412939e+000
      vertex  6.265367e+000  1.400000e+001 -3.597759e+000
      vertex  6.611140e+000  1.400000e+001 -3.412939e+000
    endloop
  endfacet
  facet normal  6.343929e-001  0.000000e+000 -7.730107e-001
    outer loop
      vertex  6.611140e+000  6.000000e+000 -3.412939e+000
      vertex  6.611140e+000  1.400000e+001 -3.412939e+000
      vertex  6.914214e+000  6.000000e+000 -3.164214e+000
    endloop
  endfacet
  facet normal  6.343929e-001  0.000000e+000 -7.730107e-001
    outer loop
      vertex  6.914214e+000  6.000000e+000 -3.164214e+000
      vertex  6.611140e+000  1.400000e+001 -3.412939e+000
      vertex  6.914214e+000  1.400000e+001 -3.164214e+000
    endloop
  endfacet
  facet normal  7.730108e-001  0.000000e+000 -6.343929e-001
    outer loop
      vertex  6.914214e+000  6.000000e+000 -3.164214e+000
      vertex  6.914214e+000  1.400000e+001 -3.164214e+000
      vertex  7.162939e+000  6.000000e+000 -2.861140e+000
    endloop
  endfacet
  facet normal  7.730108e-001  0.000000e+000 -6.343929e-001
    outer loop
      vertex  7.162939e+000  6.000000e+000 -2.861140e+000
      vertex  6.914214e+000  1.400000e+001 -3.164214e+000
      vertex  7.162939e+000  1.400000e+001 -2.861140e+000
    endloop
  endfacet
  facet normal  8.819209e-001  0.000000e+000 -4.713973e-001
    outer loop
      vertex  7.162939e+000  6.000000e+000 -2.861140e+000
      vertex  7.162939e+000  1.400000e+001 -2.861140e+000
      vertex  7.347759e+000  6.000000e+000 -2.515367e+000
    endloop
  endfacet
  facet normal  8.819209e-001  0.000000e+000 -4.713973e-001
    outer loop
      vertex  7.347759e+000  6.000000e+000 -2.515367e+000
      vertex  7.162939e+000  1.400000e+001 -2.861140e+000
      vertex  7.347759e+000  1.400000e+001 -2.515367e+000
    endloop
  endfacet
  facet normal  9.569404e-001  0.000000e+000 -2.902847e-001
    outer loop
      vertex  7.347759e+000  6.000000e+000 -2.515367e+000
      vertex  7.347759e+000  1.400000e+001 -2.515367e+000
      vertex  7.461571e+000  6.000000e+000 -2.140181e+000
    endloop
  endfacet
  facet normal  9.569404e-001  0.000000e+000 -2.902847e-001
    outer loop
      vertex  7.461571e+000  6.000000e+000 -2.140181e+000
      vertex  7.347759e+000  1.400000e+001 -2.515367e+000
      vertex  7.461571e+000  1.400000e+001 -2.140181e+000
    endloop
  endfacet
  facet normal  9.951848e-001  0.000000e+000 -9.801670e-002
    outer loop
      vertex  7.461571e+000  6.000000e+000 -2.140181e+000
      vertex  7.461571e+000  1.400000e+001 -2.140181e+000
      vertex  7.500000e+000  6.000000e+000 -1.750000e+000
    endloop
  endfacet
  facet normal  9.951848e-001  0.000000e+000 -9.801670e-002
    outer loop
      vertex  7.500000e+000  6.000000e+000 -1.750000e+000
      vertex  7.461571e+000  1.400000e+001 -2.140181e+000
      vertex  7.500000e+000  1.400000e+001 -1.750000e+000
    endloop
  endfacet
  facet normal  9.951847e-001  0.000000e+000  9.801670e-002
    outer loop
      vertex  7.500000e+000  0.000000e+000  1.750000e+000
      vertex  7.500000e+000  1.400000e+001  1.750000e+000
      vertex  7.461571e+000  0.000000e+000  2.140181e+000
    endloop
  endfacet
  facet normal  9.951847e-001  -0.000000e+000  9.801670e-002
    outer loop
      vertex  7.461571e+000  0.000000e+000  2.140181e+000
      vertex  7.500000e+000  1.400000e+001  1.750000e+000
      vertex  7.461571e+000  1.400000e+001  2.140181e+000
    endloop
  endfacet
  facet normal  9.569403e-001  0.000000e+000  2.902847e-001
    outer loop
      vertex  7.461571e+000  0.000000e+000  2.140181e+000
      vertex  7.461571e+000  1.400000e+001  2.140181e+000
      vertex  7.347759e+000  0.000000e+000  2.515367e+000
    endloop
  endfacet
  facet normal  9.569403e-001  -0.000000e+000  2.902847e-001
    outer loop
      vertex  7.347759e+000  0.000000e+000  2.515367e+000
      vertex  7.461571e+000  1.400000e+001  2.140181e+000
      vertex  7.347759e+000  1.400000e+001  2.515367e+000
    endloop
  endfacet
  facet normal  8.819209e-001  0.000000e+000  4.713973e-001
    outer loop
      vertex  7.347759e+000  0.000000e+000  2.515367e+000
      vertex  7.347759e+000  1.400000e+001  2.515367e+000
      vertex  7.162939e+000  0.000000e+000  2.861140e+000
    endloop
  endfacet
  facet normal  8.819209e-001  -0.000000e+000  4.713973e-001
    outer loop
      vertex  7.162939e+000  0.000000e+000  2.861140e+000
      vertex  7.347759e+000  1.400000e+001  2.515367e+000
      vertex  7.162939e+000  1.400000e+001  2.861140e+000
    endloop
  endfacet
  facet normal  7.730108e-001  0.000000e+000  6.343929e-001
    outer loop
      vertex  7.162939e+000  0.000000e+000  2.861140e+000
      vertex  7.162939e+000  1.400000e+001  2.861140e+000
      vertex  6.914214e+000  0.000000e+000  3.164214e+000
    endloop
  endfacet
  facet normal  7.730108e-001  -0.000000e+000  6.343929e-001
    outer loop
      vertex  6.914214e+000  0.000000e+000  3.164214e+000
      vertex  7.162939e+000  1.400000e+001  2.861140e+000
      vertex  6.914214e+000  1.400000e+001  3.164214e+000
    endloop
  endfacet
  facet normal  6.343929e-001  0.000000e+000  7.730108e-001
    outer loop
      vertex  6.914214e+000  0.000000e+000  3.164214e+000
      vertex  6.914214e+000  1.400000e+001  3.164214e+000
      vertex  6.611140e+000  0.000000e+000  3.412939e+000
    endloop
  endfacet
  facet normal  6.343929e-001  -0.000000e+000  7.730108e-001
    outer loop
      vertex  6.611140e+000  0.000000e+000  3.412939e+000
      vertex  6.914214e+000  1.400000e+001  3.164214e+000
      vertex  6.611140e+000  1.400000e+001  3.412939e+000
    endloop
  endfacet
  facet normal  4.713969e-001  0.000000e+000  8.819212e-001
    outer loop
      vertex  6.611140e+000  0.000000e+000  3.412939e+000
      vertex  6.611140e+000  1.400000e+001  3.412939e+000
      vertex  6.265367e+000  0.000000e+000  3.597759e+000
    endloop
  endfacet
  facet normal  4.713969e-001  -0.000000e+000  8.819212e-001
    outer loop
      vertex  6.265367e+000  0.000000e+000  3.597759e+000
      vertex  6.611140e+000  1.400000e+001  3.412939e+000
      vertex  6.265367e+000  1.400000e+001  3.597759e+000
    endloop
  endfacet
  facet normal  2.902845e-001  0.000000e+000  9.569404e-001
    outer loop
      vertex  6.265367e+000  0.000000e+000  3.597759e+000
      vertex  6.265367e+000  1.400000e+001  3.597759e+000
      vertex  5.890181e+000  0.000000e+000  3.711571e+000
    endloop
  endfacet
  facet normal  2.902845e-001  -0.000000e+000  9.569404e-001
    outer loop
      vertex  5.890181e+000  0.000000e+000  3.711571e+000
      vertex  6.265367e+000  1.400000e+001  3.597759e+000
      vertex  5.890181e+000  1.400000e+001  3.711571e+000
    endloop
  endfacet
  facet normal  9.801731e-002  0.000000e+000  9.951847e-001
    outer loop
      vertex  5.890181e+000  0.000000e+000  3.711571e+000
      vertex  5.890181e+000  1.400000e+001  3.711571e+000
      vertex  5.500000e+000  0.000000e+000  3.750000e+000
    endloop
  endfacet
  facet normal  9.801731e-002  -0.000000e+000  9.951847e-001
    outer loop
      vertex  5.500000e+000  0.000000e+000  3.750000e+000
      vertex  5.890181e+000  1.400000e+001  3.711571e+000
      vertex  5.500000e+000  1.400000e+001  3.750000e+000
    endloop
  endfacet
  facet normal -9.801731e-002  0.000000e+000  9.951847e-001
    outer loop
      vertex -5.500000e+000  0.000000e+000  3.750000e+000
      vertex -5.500000e+000  1.400000e+001  3.750000e+000
      vertex -5.890181e+000  0.000000e+000  3.711571e+000
    endloop
  endfacet
  facet normal -9.801731e-002  0.000000e+000  9.951847e-001
    outer loop
      vertex -5.890181e+000  0.000000e+000  3.711571e+000
      vertex -5.500000e+000  1.400000e+001  3.750000e+000
      vertex -5.890181e+000  1.400000e+001  3.711571e+000
    endloop
  endfacet
  facet normal -2.902845e-001  0.000000e+000  9.569404e-001
    outer loop
      vertex -5.890181e+000  0.000000e+000  3.711571e+000
      vertex -5.890181e+000  1.400000e+001  3.711571e+000
      vertex -6.265367e+000  0.000000e+000  3.597759e+000
    endloop
  endfacet
  facet normal -2.902845e-001  0.000000e+000  9.569404e-001
    outer loop
      vertex -6.265367e+000  0.000000e+000  3.597759e+000
      vertex -5.890181e+000  1.400000e+001  3.711571e+000
      vertex -6.265367e+000  1.400000e+001  3.597759e+000
    endloop
  endfacet
  facet normal -4.713969e-001  0.000000e+000  8.819212e-001
    outer loop
      vertex -6.265367e+000  0.000000e+000  3.597759e+000
      vertex -6.265367e+000  1.400000e+001  3.597759e+000
      vertex -6.611140e+000  0.000000e+000  3.412939e+000
    endloop
  endfacet
  facet normal -4.713969e-001  0.000000e+000  8.819212e-001
    outer loop
      vertex -6.611140e+000  0.000000e+000  3.412939e+000
      vertex -6.265367e+000  1.400000e+001  3.597759e+000
      vertex -6.611140e+000  1.400000e+001  3.412939e+000
    endloop
  endfacet
  facet normal -6.343929e-001  0.000000e+000  7.730108e-001
    outer loop
      vertex -6.611140e+000  0.000000e+000  3.412939e+000
      vertex -6.611140e+000  1.400000e+001  3.412939e+000
      vertex -6.914214e+000  0.000000e+000  3.164214e+000
    endloop
  endfacet
  facet normal -6.343929e-001  0.000000e+000  7.730108e-001
    outer loop
      vertex -6.914214e+000  0.000000e+000  3.164214e+000
      vertex -6.611140e+000  1.400000e+001  3.412939e+000
      vertex -6.914214e+000  1.400000e+001  3.164214e+000
    endloop
  endfacet
  facet normal -7.730108e-001  0.000000e+000  6.343929e-001
    outer loop
      vertex -6.914214e+000  0.000000e+000  3.164214e+000
      vertex -6.914214e+000  1.400000e+001  3.164214e+000
      vertex -7.162939e+000  0.000000e+000  2.861140e+000
    endloop
  endfacet
  facet normal -7.730108e-001  0.000000e+000  6.343929e-001
    outer loop
      vertex -7.162939e+000  0.000000e+000  2.861140e+000
      vertex -6.914214e+000  1.400000e+001  3.164214e+000
      vertex -7.162939e+000  1.400000e+001  2.861140e+000
    endloop
  endfacet
  facet normal -8.819209e-001  0.000000e+000  4.713973e-001
    outer loop
      vertex -7.162939e+000  0.000000e+000  2.861140e+000
      vertex -7.162939e+000  1.400000e+001  2.861140e+000
      vertex -7.347759e+000  0.000000e+000  2.515367e+000
    endloop
  endfacet
  facet normal -8.819209e-001  0.000000e+000  4.713973e-001
    outer loop
      vertex -7.347759e+000  0.000000e+000  2.515367e+000
      vertex -7.162939e+000  1.400000e+001  2.861140e+000
      vertex -7.347759e+000  1.400000e+001  2.515367e+000
    endloop
  endfacet
  facet normal -9.569403e-001  0.000000e+000  2.902847e-001
    outer loop
      vertex -7.347759e+000  0.000000e+000  2.515367e+000
      vertex -7.347759e+000  1.400000e+001  2.515367e+000
      vertex -7.461571e+000  0.000000e+000  2.140181e+000
    endloop
  endfacet
  facet normal -9.569403e-001  0.000000e+000  2.902847e-001
    outer loop
      vertex -7.461571e+000  0.000000e+000  2.140181e+000
      vertex -7.347759e+000  1.400000e+001  2.515367e+000
      vertex -7.461571e+000  1.400000e+001  2.140181e+000
    endloop
  endfacet
  facet normal -9.951847e-001  0.000000e+000  9.801670e-002
    outer loop
      vertex -7.461571e+000  0.000000e+000  2.140181e+000
      vertex -7.461571e+000  1.400000e+001  2.140181e+000
      vertex -7.500000e+000  0.000000e+000  1.750000e+000
    endloop
  endfacet
  facet normal -9.951847e-001  0.000000e+000  9.801670e-002
    outer loop
      vertex -7.500000e+000  0.000000e+000  1.750000e+000
      vertex -7.461571e+000  1.400000e+001  2.140181e+000
      vertex -7.500000e+000  1.400000e+001  1.750000e+000
    endloop
  endfacet
  facet normal -1.000000e+000  0.000000e+000  0.000000e+000
    outer loop
      vertex -7.500000e+000  0.000000e+000  0.000000e+000
      vertex -7.500000e+000  0.000000e+000  1.750000e+000
      vertex -7.500000e+000  6.000000e+000  0.000000e+000
    endloop
  endfacet
  facet normal -1.000000e+000  0.000000e+000  0.000000e+000
    outer loop
      vertex -7.500000e+000  6.000000e+000  0.000000e+000
      vertex -7.500000e+000  0.000000e+000  1.750000e+000
      vertex -7.500000e+000  1.400000e+001  1.750000e+000
    endloop
  endfacet
  facet normal -1.000000e+000  0.000000e+000  0.000000e+000
    outer loop
      vertex -7.500000e+000  6.000000e+000  0.000000e+000
      vertex -7.500000e+000  1.400000e+001  1.750000e+000
      vertex -7.500000e+000  6.000000e+000 -1.750000e+000
    endloop
  endfacet
  facet normal -1.000000e+000  0.000000e+000  0.000000e+000
    outer loop
      vertex -7.500000e+000  6.000000e+000 -1.750000e+000
      vertex -7.500000e+000  1.400000e+001  1.750000e+000
      vertex -7.500000e+000  1.400000e+001 -1.750000e+000
    endloop
  endfacet
  facet normal  0.000000e+000  1.000000e+000  0.000000e+000
    outer loop
      vertex -5.500000e+000  1.400000e+001  3.750000e+000
      vertex  5.500000e+000  1.400000e+001  3.750000e+000
      vertex -5.890181e+000  1.400000e+001  3.711571e+000
    endloop
  endfacet
  facet normal  0.000000e+000  9.999999e-001  0.000000e+000
    outer loop
      vertex -5.890181e+000  1.400000e+001  3.711571e+000
      vertex  5.500000e+000  1.400000e+001  3.750000e+000
      vertex  5.890181e+000  1.400000e+001  3.711571e+000
    endloop
  endfacet
  facet normal  0.000000e+000  1.000000e+000  0.000000e+000
    outer loop
      vertex -5.890181e+000  1.400000e+001  3.711571e+000
      vertex  5.890181e+000  1.400000e+001  3.711571e+000
      vertex -6.265367e+000  1.400000e+001  3.597759e+000
    endloop
  endfacet
  facet normal  0.000000e+000  1.000000e+000  0.000000e+000
    outer loop
      vertex -6.265367e+000  1.400000e+001  3.597759e+000
      vertex  5.890181e+000  1.400000e+001  3.711571e+000
      vertex  6.265367e+000  1.400000e+001  3.597759e+000
    endloop
  endfacet
  facet normal  0.000000e+000  1.000000e+000  0.000000e+000
    outer loop
      vertex -6.265367e+000  1.400000e+001  3.597759e+000
      vertex  6.265367e+000  1.400000e+001  3.597759e+000
      vertex -6.611140e+000  1.400000e+001  3.412939e+000
    endloop
  endfacet
  facet normal  0.000000e+000  1.000000e+000  0.000000e+000
    outer loop
      vertex -6.611140e+000  1.400000e+001  3.412939e+000
      vertex  6.265367e+000  1.400000e+001  3.597759e+000
      vertex  6.611140e+000  1.400000e+001  3.412939e+000
    endloop
  endfacet
  facet normal  0.000000e+000  1.000000e+000  0.000000e+000
    outer loop
      vertex -6.611140e+000  1.400000e+001  3.412939e+000
      vertex  6.611140e+000  1.400000e+001  3.412939e+000
      vertex -6.914214e+000  1.400000e+001  3.164214e+000
    endloop
  endfacet
  facet normal  0.000000e+000  1.000000e+000  0.000000e+000
    outer loop
      vertex -6.914214e+000  1.400000e+001  3.164214e+000
      vertex  6.611140e+000  1.400000e+001  3.412939e+000
      vertex  6.914214e+000  1.400000e+001  3.164214e+000
    endloop
  endfacet
  facet normal  0.000000e+000  1.000000e+000  0.000000e+000
    outer loop
      vertex -6.914214e+000  1.400000e+001  3.164214e+000
      vertex  6.914214e+000  1.400000e+001  3.164214e+000
      vertex -7.162939e+000  1.400000e+001  2.861140e+000
    endloop
  endfacet
  facet normal  0.000000e+000  1.000000e+000  0.000000e+000
    outer loop
      vertex -7.162939e+000  1.400000e+001  2.861140e+000
      vertex  6.914214e+000  1.400000e+001  3.164214e+000
      vertex  7.162939e+000  1.400000e+001  2.861140e+000
    endloop
  endfacet
  facet normal  0.000000e+000  1.000000e+000  0.000000e+000
    outer loop
      vertex -7.162939e+000  1.400000e+001  2.861140e+000
      vertex  7.162939e+000  1.400000e+001  2.861140e+000
      vertex -7.347759e+000  1.400000e+001  2.515367e+000
    endloop
  endfacet
  facet normal  0.000000e+000  1.000000e+000  0.000000e+000
    outer loop
      vertex -7.347759e+000  1.400000e+001  2.515367e+000
      vertex  7.162939e+000  1.400000e+001  2.861140e+000
      vertex  7.347759e+000  1.400000e+001  2.515367e+000
    endloop
  endfacet
  facet normal  0.000000e+000  1.000000e+000  0.000000e+000
    outer loop
      vertex -7.347759e+000  1.400000e+001  2.515367e+000
      vertex  7.347759e+000  1.400000e+001  2.515367e+000
      vertex -7.461571e+000  1.400000e+001  2.140181e+000
    endloop
  endfacet
  facet normal  0.000000e+000  1.000000e+000  0.000000e+000
    outer loop
      vertex -7.461571e+000  1.400000e+001  2.140181e+000
      vertex  7.347759e+000  1.400000e+001  2.515367e+000
      vertex  7.461571e+000  1.400000e+001  2.140181e+000
    endloop
  endfacet
  facet normal  0.000000e+000  1.000000e+000  0.000000e+000
    outer loop
      vertex -7.461571e+000  1.400000e+001  2.140181e+000
      vertex  7.461571e+000  1.400000e+001  2.140181e+000
      vertex -7.500000e+000  1.400000e+001  1.750000e+000
    endloop
  endfacet
  facet normal  0.000000e+000  1.000000e+000  0.000000e+000
    outer loop
      vertex -7.500000e+000  1.400000e+001  1.750000e+000
      vertex  7.461571e+000  1.400000e+001  2.140181e+000
      vertex  7.500000e+000  1.400000e+001  1.750000e+000
    endloop
  endfacet
  facet normal  0.000000e+000  1.000000e+000  0.000000e+000
    outer loop
      vertex -7.500000e+000  1.400000e+001  1.750000e+000
      vertex  7.500000e+000  1.400000e+001  1.750000e+000
      vertex -7.500000e+000  1.400000e+001 -1.750000e+000
    endloop
  endfacet
  facet normal  0.000000e+000  1.000000e+000  0.000000e+000
    outer loop
      vertex -7.500000e+000  1.400000e+001 -1.750000e+000
      vertex  7.500000e+000  1.400000e+001  1.750000e+000
      vertex  7.500000e+000  1.400000e+001 -1.750000e+000
    endloop
  endfacet
  facet normal  0.000000e+000  1.000000e+000  0.000000e+000
    outer loop
      vertex -7.500000e+000  1.400000e+001 -1.750000e+000
      vertex  7.500000e+000  1.400000e+001 -1.750000e+000
      vertex -7.461571e+000  1.400000e+001 -2.140181e+000
    endloop
  endfacet
  facet normal  0.000000e+000  1.000000e+000  0.000000e+000
    outer loop
      vertex -7.461571e+000  1.400000e+001 -2.140181e+000
      vertex  7.500000e+000  1.400000e+001 -1.750000e+000
      vertex  7.461571e+000  1.400000e+001 -2.140181e+000
    endloop
  endfacet
  facet normal  0.000000e+000  1.000000e+000  0.000000e+000
    outer loop
      vertex -7.461571e+000  1.400000e+001 -2.140181e+000
      vertex  7.461571e+000  1.400000e+001 -2.140181e+000
      vertex -7.347759e+000  1.400000e+001 -2.515367e+000
    endloop
  endfacet
  facet normal  0.000000e+000  1.000000e+000  0.000000e+000
    outer loop
      vertex -7.347759e+000  1.400000e+001 -2.515367e+000
      vertex  7.461571e+000  1.400000e+001 -2.140181e+000
      vertex  7.347759e+000  1.400000e+001 -2.515367e+000
    endloop
  endfacet
  facet normal  0.000000e+000  1.000000e+000  0.000000e+000
    outer loop
      vertex -7.347759e+000  1.400000e+001 -2.515367e+000
      vertex  7.347759e+000  1.400000e+001 -2.515367e+000
      vertex -7.162939e+000  1.400000e+001 -2.861140e+000
    endloop
  endfacet
  facet normal  0.000000e+000  1.000000e+000  0.000000e+000
    outer loop
      vertex -7.162939e+000  1.400000e+001 -2.861140e+000
      vertex  7.347759e+000  1.400000e+001 -2.515367e+000
      vertex  7.162939e+000  1.400000e+001 -2.861140e+000
    endloop
  endfacet
  facet normal  0.000000e+000  1.000000e+000  0.000000e+000
    outer loop
      vertex -7.162939e+000  1.400000e+001 -2.861140e+000
      vertex  7.162939e+000  1.400000e+001 -2.861140e+000
      vertex -6.914214e+000  1.400000e+001 -3.164214e+000
    endloop
  endfacet
  facet normal  0.000000e+000  1.000000e+000  0.000000e+000
    outer loop
      vertex -6.914214e+000  1.400000e+001 -3.164214e+000
      vertex  7.162939e+000  1.400000e+001 -2.861140e+000
      vertex  6.914214e+000  1.400000e+001 -3.164214e+000
    endloop
  endfacet
  facet normal  0.000000e+000  1.000000e+000  0.000000e+000
    outer loop
      vertex -6.914214e+000  1.400000e+001 -3.164214e+000
      vertex  6.914214e+000  1.400000e+001 -3.164214e+000
      vertex -6.611140e+000  1.400000e+001 -3.412939e+000
    endloop
  endfacet
  facet normal  0.000000e+000  1.000000e+000  0.000000e+000
    outer loop
      vertex -6.611140e+000  1.400000e+001 -3.412939e+000
      vertex  6.914214e+000  1.400000e+001 -3.164214e+000
      vertex  6.611140e+000  1.400000e+001 -3.412939e+000
    endloop
  endfacet
  facet normal  0.000000e+000  1.000000e+000  0.000000e+000
    outer loop
      vertex -6.611140e+000  1.400000e+001 -3.412939e+000
      vertex  6.611140e+000  1.400000e+001 -3.412939e+000
      vertex -6.265367e+000  1.400000e+001 -3.597759e+000
    endloop
  endfacet
  facet normal  0.000000e+000  1.000000e+000  0.000000e+000
    outer loop
      vertex -6.265367e+000  1.400000e+001 -3.597759e+000
      vertex  6.611140e+000  1.400000e+001 -3.412939e+000
      vertex  6.265367e+000  1.400000e+001 -3.597759e+000
    endloop
  endfacet
  facet normal  0.000000e+000  1.000000e+000  0.000000e+000
    outer loop
      vertex -6.265367e+000  1.400000e+001 -3.597759e+000
      vertex  6.265367e+000  1.400000e+001 -3.597759e+000
      vertex -5.890181e+000  1.400000e+001 -3.711571e+000
    endloop
  endfacet
  facet normal  0.000000e+000  1.000000e+000  0.000000e+000
    outer loop
      vertex -5.890181e+000  1.400000e+001 -3.711571e+000
      vertex  6.265367e+000  1.400000e+001 -3.597759e+000
      vertex  5.890181e+000  1.400000e+001 -3.711571e+000
    endloop
  endfacet
  facet normal  0.000000e+000  9.999999e-001  0.000000e+000
    outer loop
      vertex -5.890181e+000  1.400000e+001 -3.711571e+000
      vertex  5.890181e+000  1.400000e+001 -3.711571e+000
      vertex -5.500000e+000  1.400000e+001 -3.750000e+000
    endloop
  endfacet
  facet normal  0.000000e+000  1.000000e+000  0.000000e+000
    outer loop
      vertex -5.500000e+000  1.400000e+001 -3.750000e+000
      vertex  5.890181e+000  1.400000e+001 -3.711571e+000
      vertex  5.500000e+000  1.400000e+001 -3.750000e+000
    endloop
  endfacet
  facet normal  1.000000e+000  0.000000e+000  0.000000e+000
    outer loop
      vertex  7.500000e+000  6.000000e+000 -1.750000e+000
      vertex  7.500000e+000  1.400000e+001 -1.750000e+000
      vertex  7.500000e+000  6.000000e+000  0.000000e+000
    endloop
  endfacet
  facet normal  1.000000e+000  -0.000000e+000  0.000000e+000
    outer loop
      vertex  7.500000e+000  6.000000e+000  0.000000e+000
      vertex  7.500000e+000  1.400000e+001 -1.750000e+000
      vertex  7.500000e+000  1.400000e+001  1.750000e+000
    endloop
  endfacet
  facet normal  1.000000e+000  0.000000e+000  0.000000e+000
    outer loop
      vertex  7.500000e+000  6.000000e+000  0.000000e+000
      vertex  7.500000e+000  1.400000e+001  1.750000e+000
      vertex  7.500000e+000  0.000000e+000  0.000000e+000
    endloop
  endfacet
  facet normal  1.000000e+000  0.000000e+000  0.000000e+000
    outer loop
      vertex  7.500000e+000  0.000000e+000  0.000000e+000
      vertex  7.500000e+000  1.400000e+001  1.750000e+000
      vertex  7.500000e+000  0.000000e+000  1.750000e+000
    endloop
  endfacet
  facet normal  0.000000e+000 -1.000000e+000  0.000000e+000
    outer loop
      vertex  7.500000e+000  6.000000e+000  0.000000e+000
      vertex -7.500000e+000  6.000000e+000  0.000000e+000
      vertex  7.500000e+000  6.000000e+000 -1.750000e+000
    endloop
  endfacet
  facet normal  0.000000e+000 -1.000000e+000  0.000000e+000
    outer loop
      vertex  7.500000e+000  6.000000e+000 -1.750000e+000
      vertex -7.500000e+000  6.000000e+000  0.000000e+000
      vertex -7.500000e+000  6.000000e+000 -1.750000e+000
    endloop
  endfacet
  facet normal  0.000000e+000 -1.000000e+000  0.000000e+000
    outer loop
      vertex  7.500000e+000  6.000000e+000 -1.750000e+000
      vertex -7.500000e+000  6.000000e+000 -1.750000e+000
      vertex  7.461571e+000  6.000000e+000 -2.140181e+000
    endloop
  endfacet
  facet normal  0.000000e+000 -1.000000e+000  0.000000e+000
    outer loop
      vertex  7.461571e+000  6.000000e+000 -2.140181e+000
      vertex -7.500000e+000  6.000000e+000 -1.750000e+000
      vertex -7.461571e+000  6.000000e+000 -2.140181e+000
    endloop
  endfacet
  facet normal  0.000000e+000 -1.000000e+000  0.000000e+000
    outer loop
      vertex  7.461571e+000  6.000000e+000 -2.140181e+000
      vertex -7.461571e+000  6.000000e+000 -2.140181e+000
      vertex  7.347759e+000  6.000000e+000 -2.515367e+000
    endloop
  endfacet
  facet normal  0.000000e+000 -1.000000e+000  0.000000e+000
    outer loop
      vertex  7.347759e+000  6.000000e+000 -2.515367e+000
      vertex -7.461571e+000  6.000000e+000 -2.140181e+000
      vertex -7.347759e+000  6.000000e+000 -2.515367e+000
    endloop
  endfacet
  facet normal  0.000000e+000 -1.000000e+000  0.000000e+000
    outer loop
      vertex  7.347759e+000  6.000000e+000 -2.515367e+000
      vertex -7.347759e+000  6.000000e+000 -2.515367e+000
      vertex  7.162939e+000  6.000000e+000 -2.861140e+000
    endloop
  endfacet
  facet normal  0.000000e+000 -1.000000e+000  0.000000e+000
    outer loop
      vertex  7.162939e+000  6.000000e+000 -2.861140e+000
      vertex -7.347759e+000  6.000000e+000 -2.515367e+000
      vertex -7.162939e+000  6.000000e+000 -2.861140e+000
    endloop
  endfacet
  facet normal  0.000000e+000 -1.000000e+000  0.000000e+000
    outer loop
      vertex  7.162939e+000  6.000000e+000 -2.861140e+000
      vertex -7.162939e+000  6.000000e+000 -2.861140e+000
      vertex  6.914214e+000  6.000000e+000 -3.164214e+000
    endloop
  endfacet
  facet normal  0.000000e+000 -1.000000e+000  0.000000e+000
    outer loop
      vertex  6.914214e+000  6.000000e+000 -3.164214e+000
      vertex -7.162939e+000  6.000000e+000 -2.861140e+000
      vertex -6.914214e+000  6.000000e+000 -3.164214e+000
    endloop
  endfacet
  facet normal  0.000000e+000 -1.000000e+000  0.000000e+000
    outer loop
      vertex  6.914214e+000  6.000000e+000 -3.164214e+000
      vertex -6.914214e+000  6.000000e+000 -3.164214e+000
      vertex  6.611140e+000  6.000000e+000 -3.412939e+000
    endloop
  endfacet
  facet normal  0.000000e+000 -1.000000e+000  0.000000e+000
    outer loop
      vertex  6.611140e+000  6.000000e+000 -3.412939e+000
      vertex -6.914214e+000  6.000000e+000 -3.164214e+000
      vertex -6.611140e+000  6.000000e+000 -3.412939e+000
    endloop
  endfacet
  facet normal  0.000000e+000 -1.000000e+000  0.000000e+000
    outer loop
      vertex  6.611140e+000  6.000000e+000 -3.412939e+000
      vertex -6.611140e+000  6.000000e+000 -3.412939e+000
      vertex  6.265367e+000  6.000000e+000 -3.597759e+000
    endloop
  endfacet
  facet normal  0.000000e+000 -1.000000e+000  0.000000e+000
    outer loop
      vertex  6.265367e+000  6.000000e+000 -3.597759e+000
      vertex -6.611140e+000  6.000000e+000 -3.412939e+000
      vertex -6.265367e+000  6.000000e+000 -3.597759e+000
    endloop
  endfacet
  facet normal  0.000000e+000 -1.000000e+000  0.000000e+000
    outer loop
      vertex  6.265367e+000  6.000000e+000 -3.597759e+000
      vertex -6.265367e+000  6.000000e+000 -3.597759e+000
      vertex  5.890181e+000  6.000000e+000 -3.711571e+000
    endloop
  endfacet
  facet normal  0.000000e+000 -1.000000e+000  0.000000e+000
    outer loop
      vertex  5.890181e+000  6.000000e+000 -3.711571e+000
      vertex -6.265367e+000  6.000000e+000 -3.597759e+000
      vertex -5.890181e+000  6.000000e+000 -3.711571e+000
    endloop
  endfacet
  facet normal  0.000000e+000 -9.999999e-001  0.000000e+000
    outer loop
      vertex  5.890181e+000  6.000000e+000 -3.711571e+000
      vertex -5.890181e+000  6.000000e+000 -3.711571e+000
      vertex  5.500000e+000  6.000000e+000 -3.750000e+000
    endloop
  endfacet
  facet normal  0.000000e+000 -1.000000e+000  0.000000e+000
    outer loop
      vertex  5.500000e+000  6.000000e+000 -3.750000e+000
      vertex -5.890181e+000  6.000000e+000 -3.711571e+000
      vertex -5.500000e+000  6.000000e+000 -3.750000e+000
    endloop
  endfacet
  facet normal  0.000000e+000 -1.000000e+000  0.000000e+000
    outer loop
      vertex  5.500000e+000  0.000000e+000  3.750000e+000
      vertex -5.500000e+000  0.000000e+000  3.750000e+000
      vertex  5.890181e+000  0.000000e+000  3.711571e+000
    endloop
  endfacet
  facet normal  0.000000e+000 -9.999999e-001  0.000000e+000
    outer loop
      vertex  5.890181e+000  0.000000e+000  3.711571e+000
      vertex -5.500000e+000  0.000000e+000  3.750000e+000
      vertex -5.890181e+000  0.000000e+000  3.711571e+000
    endloop
  endfacet
  facet normal  0.000000e+000 -1.000000e+000  0.000000e+000
    outer loop
      vertex  5.890181e+000  0.000000e+000  3.711571e+000
      vertex -5.890181e+000  0.000000e+000  3.711571e+000
      vertex  6.265367e+000  0.000000e+000  3.597759e+000
    endloop
  endfacet
  facet normal  0.000000e+000 -1.000000e+000  0.000000e+000
    outer loop
      vertex  6.265367e+000  0.000000e+000  3.597759e+000
      vertex -5.890181e+000  0.000000e+000  3.711571e+000
      vertex -6.265367e+000  0.000000e+000  3.597759e+000
    endloop
  endfacet
  facet normal  0.000000e+000 -1.000000e+000  0.000000e+000
    outer loop
      vertex  6.265367e+000  0.000000e+000  3.597759e+000
      vertex -6.265367e+000  0.000000e+000  3.597759e+000
      vertex  6.611140e+000  0.000000e+000  3.412939e+000
    endloop
  endfacet
  facet normal  0.000000e+000 -1.000000e+000  0.000000e+000
    outer loop
      vertex  6.611140e+000  0.000000e+000  3.412939e+000
      vertex -6.265367e+000  0.000000e+000  3.597759e+000
      vertex -6.611140e+000  0.000000e+000  3.412939e+000
    endloop
  endfacet
  facet normal  0.000000e+000 -1.000000e+000  0.000000e+000
    outer loop
      vertex  6.611140e+000  0.000000e+000  3.412939e+000
      vertex -6.611140e+000  0.000000e+000  3.412939e+000
      vertex  6.914214e+000  0.000000e+000  3.164214e+000
    endloop
  endfacet
  facet normal  0.000000e+000 -1.000000e+000  0.000000e+000
    outer loop
      vertex  6.914214e+000  0.000000e+000  3.164214e+000
      vertex -6.611140e+000  0.000000e+000  3.412939e+000
      vertex -6.914214e+000  0.000000e+000  3.164214e+000
    endloop
  endfacet
  facet normal  0.000000e+000 -1.000000e+000  0.000000e+000
    outer loop
      vertex  6.914214e+000  0.000000e+000  3.164214e+000
      vertex -6.914214e+000  0.000000e+000  3.164214e+000
      vertex  7.162939e+000  0.000000e+000  2.861140e+000
    endloop
  endfacet
  facet normal  0.000000e+000 -1.000000e+000  0.000000e+000
    outer loop
      vertex  7.162939e+000  0.000000e+000  2.861140e+000
      vertex -6.914214e+000  0.000000e+000  3.164214e+000
      vertex -7.162939e+000  0.000000e+000  2.861140e+000
    endloop
  endfacet
  facet normal  0.000000e+000 -1.000000e+000  0.000000e+000
    outer loop
      vertex  7.162939e+000  0.000000e+000  2.861140e+000
      vertex -7.162939e+000  0.000000e+000  2.861140e+000
      vertex  7.347759e+000  0.000000e+000  2.515367e+000
    endloop
  endfacet
  facet normal  0.000000e+000 -1.000000e+000  0.000000e+000
    outer loop
      vertex  7.347759e+000  0.000000e+000  2.515367e+000
      vertex -7.162939e+000  0.000000e+000  2.861140e+000
      vertex -7.347759e+000  0.000000e+000  2.515367e+000
    endloop
  endfacet
  facet normal  0.000000e+000 -1.000000e+000  0.000000e+000
    outer loop
      vertex  7.347759e+000  0.000000e+000  2.515367e+000
      vertex -7.347759e+000  0.000000e+000  2.515367e+000
      vertex  7.461571e+000  0.000000e+000  2.140181e+000
    endloop
  endfacet
  facet normal  0.000000e+000 -1.000000e+000  0.000000e+000
    outer loop
      vertex  7.461571e+000  0.000000e+000  2.140181e+000
      vertex -7.347759e+000  0.000000e+000  2.515367e+000
      vertex -7.461571e+000  0.000000e+000  2.140181e+000
    endloop
  endfacet
  facet normal  0.000000e+000 -1.000000e+000  0.000000e+000
    outer loop
      vertex  7.461571e+000  0.000000e+000  2.140181e+000
      vertex -7.461571e+000  0.000000e+000  2.140181e+000
      vertex  7.500000e+000  0.000000e+000  1.750000e+000
    endloop
  endfacet
  facet normal  0.000000e+000 -1.000000e+000  0.000000e+000
    outer loop
      vertex  7.500000e+000  0.000000e+000  1.750000e+000
      vertex -7.461571e+000  0.000000e+000  2.140181e+000
      vertex -7.500000e+000  0.000000e+000  1.750000e+000
    endloop
  endfacet
  facet normal  0.000000e+000 -1.000000e+000  0.000000e+000
    outer loop
      vertex  7.500000e+000  0.000000e+000  1.750000e+000
      vertex -7.500000e+000  0.000000e+000  1.750000e+000
      vertex  7.500000e+000  0.000000e+000  0.000000e+000
    endloop
  endfacet
  facet normal  0.000000e+000 -1.000000e+000  0.000000e+000
    outer loop
      vertex  7.500000e+000  0.000000e+000  0.000000e+000
      vertex -7.500000e+000  0.000000e+000  1.750000e+000
      vertex -7.500000e+000  0.000000e+000  0.000000e+000
    endloop
  endfacet
  facet normal  0.000000e+000  0.000000e+000  1.000000e+000
    outer loop
      vertex -5.500000e+000  0.000000e+000  3.750000e+000
      vertex  5.500000e+000  0.000000e+000  3.750000e+000
      vertex -5.500000e+000  1.400000e+001  3.750000e+000
    endloop
  endfacet
  facet normal  -0.000000e+000  0.000000e+000  1.000000e+000
    outer loop
      vertex -5.500000e+000  1.400000e+001  3.750000e+000
      vertex  5.500000e+000  0.000000e+000  3.750000e+000
      vertex  5.500000e+000  1.400000e+001  3.750000e+000
    endloop
  endfacet
  facet normal  0.000000e+000  0.000000e+000 -1.000000e+000
    outer loop
      vertex -5.500000e+000  6.000000e+000 -3.750000e+000
      vertex -5.500000e+000  1.400000e+001 -3.750000e+000
      vertex  5.500000e+000  6.000000e+000 -3.750000e+000
    endloop
  endfacet
  facet normal  0.000000e+000  0.000000e+000 -1.000000e+000
    outer loop
      vertex  5.500000e+000  6.000000e+000 -3.750000e+000
      vertex -5.500000e+000  1.400000e+001 -3.750000e+000
      vertex  5.500000e+000  1.400000e+001 -3.750000e+000
    endloop
  endfacet
endsolid CATIA STL
